<svg width="12" height="12" viewBox="0 0 12 12" fill="none" xmlns="http://www.w3.org/2000/svg">
<path d="M8.75859 6.27773C8.75391 5.47852 9.11602 4.87617 9.84727 4.43203C9.43828 3.84609 8.81953 3.52383 8.00391 3.46172C7.23164 3.40078 6.38672 3.91172 6.07734 3.91172C5.75039 3.91172 5.00273 3.48281 4.41445 3.48281C3.20039 3.50156 1.91016 4.45078 1.91016 6.38203C1.91016 6.95273 2.01445 7.54219 2.22305 8.14922C2.50195 8.94844 3.50742 10.9066 4.55625 10.875C5.10469 10.8621 5.49258 10.4859 6.20625 10.4859C6.89883 10.4859 7.25742 10.875 7.86914 10.875C8.92734 10.8598 9.83672 9.07969 10.1016 8.27813C8.68242 7.60899 8.75859 6.31875 8.75859 6.27773ZM7.52695 2.70352C8.12109 1.99805 8.06719 1.35586 8.04961 1.125C7.52461 1.15547 6.91758 1.48242 6.57187 1.88438C6.19102 2.31563 5.96719 2.84883 6.01523 3.45C6.58242 3.49336 7.10039 3.20156 7.52695 2.70352Z" fill="black"/>
</svg>
