<svg width="12" height="12" viewBox="0 0 12 12" fill="none" xmlns="http://www.w3.org/2000/svg">
<g clip-path="url(#clip0_218_90)">
<path d="M8.76146 6.95714C8.66257 6.95714 8.5659 6.92781 8.48367 6.87287C8.40145 6.81793 8.33736 6.73984 8.29952 6.64848C8.26168 6.55712 8.25177 6.45658 8.27107 6.35959C8.29036 6.2626 8.33798 6.17351 8.40791 6.10358C8.47783 6.03366 8.56692 5.98604 8.66391 5.96674C8.7609 5.94745 8.86144 5.95735 8.9528 5.9952C9.04416 6.03304 9.12225 6.09713 9.17719 6.17935C9.23213 6.26158 9.26146 6.35825 9.26146 6.45714C9.26146 6.58974 9.20878 6.71692 9.11501 6.81069C9.02124 6.90446 8.89407 6.95714 8.76146 6.95714ZM3.23854 6.95714C3.13965 6.95714 3.04298 6.92781 2.96076 6.87287C2.87853 6.81793 2.81445 6.73984 2.7766 6.64848C2.73876 6.55712 2.72886 6.45658 2.74815 6.35959C2.76744 6.2626 2.81506 6.17351 2.88499 6.10358C2.95491 6.03366 3.04401 5.98604 3.141 5.96674C3.23799 5.94745 3.33852 5.95735 3.42988 5.9952C3.52125 6.03304 3.59934 6.09713 3.65428 6.17935C3.70922 6.26158 3.73854 6.35825 3.73854 6.45714C3.73854 6.58974 3.68586 6.71692 3.5921 6.81069C3.49833 6.90446 3.37115 6.95714 3.23854 6.95714ZM8.94063 3.94714L9.93938 2.21797C9.95527 2.19429 9.96612 2.1676 9.97128 2.13955C9.97644 2.1115 9.97578 2.08269 9.96935 2.05491C9.96291 2.02712 9.95085 2.00096 9.93389 1.97802C9.91694 1.95509 9.89545 1.93589 9.87077 1.9216C9.84609 1.90731 9.81874 1.89824 9.79042 1.89495C9.76209 1.89166 9.73338 1.89422 9.70609 1.90247C9.67879 1.91072 9.65348 1.92449 9.63172 1.94293C9.60996 1.96136 9.59221 1.98407 9.57958 2.00964L8.56833 3.76109C7.76057 3.39881 6.88529 3.21151 6 3.21151C5.11471 3.21151 4.23943 3.39881 3.43167 3.76109L2.42042 2.00964C2.40779 1.98407 2.39004 1.96136 2.36828 1.94293C2.34652 1.92449 2.32121 1.91072 2.29391 1.90247C2.26662 1.89422 2.23791 1.89166 2.20959 1.89495C2.18126 1.89824 2.15391 1.90731 2.12923 1.9216C2.10455 1.93589 2.08306 1.95509 2.06611 1.97802C2.04915 2.00096 2.03709 2.02712 2.03065 2.05491C2.02422 2.08269 2.02357 2.1115 2.02872 2.13955C2.03388 2.1676 2.04473 2.19429 2.06063 2.21797L3.05938 3.94714C1.34438 4.87984 0.171667 6.61589 0 8.66693H12C11.8283 6.61589 10.6554 4.87984 8.94063 3.94714Z" fill="black"/>
</g>
<defs>
<clipPath id="clip0_218_90">
<rect width="12" height="12" fill="white"/>
</clipPath>
</defs>
</svg>
