<svg width="12" height="12" viewBox="0 0 12 12" fill="none" xmlns="http://www.w3.org/2000/svg">
<g clip-path="url(#clip0_216_83)">
<path d="M5.97729 0.792077C5.9343 0.791913 5.89141 0.791912 5.84838 0.79278C5.69065 0.796061 5.53287 0.806959 5.376 0.82428C5.3838 0.82817 5.38875 0.83178 5.38702 0.834545L4.79955 1.75887L6.53175 2.91755L6.52882 2.92196L8.18409 2.92852L8.69534 1.85776L8.03543 1.21833C7.66357 1.05905 7.27387 0.942334 6.87598 0.871928C6.57949 0.819428 6.27839 0.793178 5.97731 0.792077H5.97729ZM4.47441 2.06794L2.74809 2.92997L2.42435 5.23639L3.62773 6.02522L5.83894 5.00715L6.18757 3.21418L4.47443 2.06794H4.47441ZM9.07622 2.07601L8.57817 3.11897L9.4395 4.82335L10.8941 5.73519L11.1592 5.23639C11.1645 5.23974 11.1698 5.24583 11.1746 5.25397C11.1566 5.13786 11.1345 5.0221 11.1087 4.90751C10.9577 4.23744 10.673 3.5959 10.2767 3.03322C10.0641 2.73153 9.81907 2.45248 9.54792 2.20119L9.07624 2.07598L9.07622 2.07601ZM1.98272 2.61507C1.82086 2.80362 1.67201 3.00319 1.53886 3.21272C1.17145 3.79079 0.919172 4.44305 0.802054 5.11848C0.744937 5.44754 0.719883 5.78232 0.726586 6.11677L1.2012 6.23616L1.97534 5.28694L2.31448 2.87138L1.98272 2.61507ZM9.31207 5.25985L8.00395 6.30868L7.92262 8.67805L8.85136 9.17319L10.6605 8.01083L10.7637 6.16512L10.7615 6.1688L9.31205 5.25983L9.31207 5.25985ZM6.01104 5.40999L3.80714 6.42512L3.77859 8.22101L5.86816 9.56576L7.4839 8.71177L7.56445 6.32701L6.01102 5.40999H6.01104ZM0.755883 6.57601C0.777211 6.77372 0.809554 6.97013 0.853289 7.16415C1.00434 7.83423 1.2897 8.47571 1.68607 9.0384C1.77684 9.1673 1.87404 9.29164 1.97609 9.41194L1.75638 8.28329L1.75929 8.28254L1.12577 6.66901L0.755883 6.57601ZM3.50248 8.56454L2.29469 8.75569L2.532 9.97665C2.73302 10.1522 2.94701 10.3126 3.17217 10.4556C3.51464 10.6733 3.88308 10.8513 4.2664 10.9852L5.7342 10.6643L5.63238 9.93486L3.5025 8.56447L3.50248 8.56454ZM10.5908 8.57626L9.08569 9.54305L8.10131 10.6534L8.20462 10.7977C8.48651 10.6677 8.75705 10.5131 9.01102 10.3355C9.57281 9.94269 10.0564 9.43775 10.4238 8.85964C10.4827 8.76713 10.538 8.67237 10.5908 8.57623L10.5908 8.57626ZM7.71319 10.8651L5.83959 11.0907L5.23097 11.2232C5.86362 11.3169 6.5134 11.2945 7.13674 11.1573C7.35734 11.1087 7.57465 11.045 7.78713 10.9683L7.71316 10.865L7.71319 10.8651Z" fill="black"/>
</g>
<defs>
<clipPath id="clip0_216_83">
<rect width="12" height="12" fill="white"/>
</clipPath>
</defs>
</svg>
