<svg width="12" height="12" viewBox="0 0 12 12" fill="none" xmlns="http://www.w3.org/2000/svg">
<path d="M2.81798 9.18236C2.40011 8.7645 2.06864 8.26842 1.84249 7.72245C1.61634 7.17648 1.49994 6.59131 1.49994 6.00036C1.49994 5.40941 1.61634 4.82424 1.84249 4.27827C2.06864 3.7323 2.40011 3.23622 2.81798 2.81836M9.18198 2.81836C9.59985 3.23622 9.93132 3.7323 10.1575 4.27827C10.3836 4.82424 10.5 5.40941 10.5 6.00036C10.5 6.59131 10.3836 7.17648 10.1575 7.72245C9.93132 8.26842 9.59985 8.7645 9.18198 9.18236M4.23198 7.76786C3.7633 7.29904 3.50001 6.66327 3.50001 6.00036C3.50001 5.33745 3.7633 4.70168 4.23198 4.23286M7.76798 4.23286C8.23666 4.70168 8.49994 5.33745 8.49994 6.00036C8.49994 6.66327 8.23666 7.29904 7.76798 7.76786M6.49998 6.00036C6.49998 6.13297 6.4473 6.26014 6.35353 6.35391C6.25976 6.44768 6.13259 6.50036 5.99998 6.50036C5.86737 6.50036 5.74019 6.44768 5.64642 6.35391C5.55266 6.26014 5.49998 6.13297 5.49998 6.00036C5.49998 5.86775 5.55266 5.74057 5.64642 5.64681C5.74019 5.55304 5.86737 5.50036 5.99998 5.50036C6.13259 5.50036 6.25976 5.55304 6.35353 5.64681C6.4473 5.74057 6.49998 5.86775 6.49998 6.00036Z" stroke="black" stroke-linecap="round" stroke-linejoin="round"/>
</svg>
