<svg width="12" height="12" viewBox="0 0 12 12" fill="none" xmlns="http://www.w3.org/2000/svg">
<g clip-path="url(#clip0_216_85)">
<path d="M10.5 3H6.705L8.35 1.355L8 1L6 3L4 1L3.645 1.355L5.295 3H1.5C1.23478 3 0.98043 3.10536 0.792893 3.29289C0.605357 3.48043 0.5 3.73478 0.5 4V10C0.5 10.55 0.95 11 1.5 11H10.5C11.05 11 11.5 10.55 11.5 10V4C11.5 3.73478 11.3946 3.48043 11.2071 3.29289C11.0196 3.10536 10.7652 3 10.5 3ZM10.5 10H1.5V4H10.5V10ZM4.5 5V9L8 7L4.5 5Z" fill="black"/>
</g>
<defs>
<clipPath id="clip0_216_85">
<rect width="12" height="12" fill="white"/>
</clipPath>
</defs>
</svg>
