<svg width="12" height="12" viewBox="0 0 12 12" fill="none" xmlns="http://www.w3.org/2000/svg">
<path d="M6 1.21875C5.05436 1.21875 4.12995 1.49917 3.34368 2.02454C2.55741 2.54991 1.94458 3.29664 1.5827 4.1703C1.22082 5.04395 1.12614 6.0053 1.31062 6.93278C1.49511 7.86025 1.95048 8.71218 2.61915 9.38085C3.28782 10.0495 4.13975 10.5049 5.06723 10.6894C5.9947 10.8739 6.95605 10.7792 7.82971 10.4173C8.70337 10.0554 9.4501 9.44259 9.97547 8.65632C10.5008 7.87005 10.7813 6.94564 10.7813 6C10.7798 4.73239 10.2755 3.51713 9.37921 2.62079C8.48288 1.72445 7.26761 1.22024 6 1.21875ZM6 8.34375C5.53645 8.34375 5.08331 8.20629 4.69788 7.94876C4.31246 7.69122 4.01205 7.32518 3.83466 6.89691C3.65727 6.46865 3.61085 5.9974 3.70129 5.54276C3.79172 5.08811 4.01494 4.6705 4.34272 4.34272C4.6705 4.01494 5.08812 3.79172 5.54276 3.70128C5.9974 3.61085 6.46865 3.65726 6.89692 3.83466C7.32518 4.01205 7.69122 4.31245 7.94876 4.69788C8.20629 5.08331 8.34375 5.53645 8.34375 6C8.34301 6.62137 8.09584 7.21708 7.65646 7.65646C7.21708 8.09584 6.62137 8.34301 6 8.34375ZM7.84547 3.75656C7.4005 3.38904 6.85572 3.1631 6.28125 3.10781V1.79063C7.20411 1.85182 8.081 2.21579 8.77594 2.82609L7.84547 3.75656ZM5.71875 3.10781C5.14428 3.1631 4.5995 3.38904 4.15453 3.75656L3.22406 2.82609C3.919 2.21579 4.79589 1.85182 5.71875 1.79063V3.10781ZM3.75656 4.15453C3.38904 4.5995 3.1631 5.14428 3.10781 5.71875H1.79063C1.85172 4.79587 2.2157 3.91895 2.8261 3.22406L3.75656 4.15453ZM3.10781 6.28125C3.1631 6.85572 3.38904 7.4005 3.75656 7.84547L2.8261 8.77594C2.2157 8.08105 1.85172 7.20413 1.79063 6.28125H3.10781ZM4.15453 8.24344C4.5995 8.61096 5.14428 8.8369 5.71875 8.89219V10.2094C4.79589 10.1482 3.919 9.78421 3.22406 9.17391L4.15453 8.24344ZM6.28125 8.89219C6.85572 8.8369 7.4005 8.61096 7.84547 8.24344L8.77594 9.17391C8.081 9.78421 7.20411 10.1482 6.28125 10.2094V8.89219ZM8.24344 7.84547C8.61096 7.4005 8.8369 6.85572 8.89219 6.28125H10.2094C10.1483 7.20413 9.78431 8.08105 9.17391 8.77594L8.24344 7.84547ZM8.89219 5.71875C8.8369 5.14428 8.61096 4.5995 8.24344 4.15453L9.17391 3.22406C9.78431 3.91895 10.1483 4.79587 10.2094 5.71875H8.89219Z" fill="black"/>
</svg>
