<svg width="137" height="36" viewBox="0 0 137 36" fill="none" xmlns="http://www.w3.org/2000/svg">
<g clip-path="url(#clip0_17954_3040)">
<path d="M16.1813 -0.0875105C25.949 -0.929942 34.5327 6.42425 35.3751 16.374C35.876 22.2711 33.5081 28.0542 29.0455 31.8338C22.6476 37.2527 13.4264 37.3893 6.86906 32.2209C-0.872205 26.0962 -2.28384 14.7347 3.72702 6.83408C6.73245 2.87238 11.2634 0.367858 16.1813 -0.0875105ZM16.3179 0.527236C6.89182 1.30136 -0.143615 9.72567 0.607742 19.3339C1.3591 28.9422 9.62403 36.1143 19.0502 35.3401C28.499 34.566 35.5117 26.1645 34.7604 16.5334C34.3278 11.069 31.3906 6.15103 26.8597 3.19114C23.7404 1.16475 20.052 0.231247 16.3179 0.527236Z" fill="#E40707"/>
<path d="M15.2481 1.43797C23.4219 0.162942 31.2542 5.3086 33.4855 13.4369C34.715 17.9223 34.0548 22.9769 31.5047 26.8703C29.1823 27.9404 26.564 28.1225 24.0594 28.0087C19.87 27.8038 15.7717 26.6881 11.5596 26.5743C9.19165 26.506 6.75543 26.8248 4.5469 27.8038C-0.803678 20.3813 0.767342 9.93059 8.05323 4.48894C10.1479 2.89515 12.6297 1.87057 15.2481 1.43797ZM17.707 1.75673C17.3655 2.78131 17.0468 3.80589 16.7052 4.85323C15.6351 4.85323 14.565 4.83047 13.4949 4.876C14.3601 5.51352 15.2253 6.15104 16.0905 6.81132C15.7717 7.8359 15.4302 8.86047 15.1114 9.90782C15.9766 9.27031 16.8418 8.63279 17.707 7.99528C18.5722 8.63279 19.4374 9.27031 20.3026 9.90782C19.9839 8.88324 19.6424 7.8359 19.3236 6.81132C20.1888 6.1738 21.054 5.53629 21.9192 4.876C20.8491 4.85324 19.779 4.876 18.7088 4.876C18.3673 3.80589 18.0258 2.78131 17.707 1.75673ZM10.2618 5.78674C10.1479 6.31041 10.0796 6.83409 9.96578 7.35776L8.39476 7.56268L9.78363 8.3368C9.69256 8.86048 9.60149 9.40692 9.51041 9.90782C9.89748 9.54353 10.2845 9.17923 10.6716 8.79217C11.127 9.04262 11.5823 9.31584 12.0605 9.54353C11.8328 9.06539 11.6051 8.56449 11.3774 8.08635C11.7645 7.72205 12.1515 7.33499 12.5158 6.9707C11.9922 7.039 11.4685 7.10731 10.9448 7.17561C10.7171 6.76578 10.4895 6.28765 10.2618 5.78674ZM24.4693 7.24392L22.8982 7.039C23.2853 7.42607 23.6496 7.79036 24.0367 8.15465C23.809 8.63279 23.5813 9.1337 23.3536 9.61183L24.7425 8.86048C25.1295 9.22477 25.5166 9.61183 25.9037 9.97613C25.7898 9.45245 25.7215 8.90601 25.6304 8.38234C26.0858 8.13189 26.5412 7.85867 27.0193 7.60821L25.4483 7.4033C25.3345 6.87962 25.2662 6.33318 25.1523 5.83228C24.9246 6.28765 24.6969 6.76578 24.4693 7.24392ZM5.27549 9.54353C5.29825 9.86229 5.32102 10.181 5.34379 10.4998L4.45582 10.8641L5.36656 11.0918C5.38933 11.4105 5.4121 11.7293 5.43487 12.0481C5.59425 11.7748 5.75362 11.5016 5.93577 11.2512L6.84651 11.4561L6.25453 10.7275L6.75543 9.90782L5.86747 10.2721C5.68532 10.0217 5.4804 9.77121 5.27549 9.54353ZM29.5238 10.2721L28.6586 9.90782L29.1595 10.7275C28.9546 10.9779 28.7497 11.2056 28.5448 11.4561L29.4555 11.2512L29.9564 12.0481L30.0247 11.0918L30.9355 10.8641L30.0703 10.4998L30.1386 9.54353L29.5238 10.2721ZM7.68894 11.9342C6.68713 12.2074 5.73086 12.8449 5.22995 13.7785C5.18441 17.0571 5.22995 20.3358 5.20718 23.6372C5.95854 24.1609 6.7782 24.5251 7.66617 24.7528C8.69075 25.026 9.7381 24.9577 10.7854 24.8894C11.8328 24.8211 12.9029 24.5479 13.677 23.8193C14.8838 22.7492 15.2481 20.8594 14.6105 19.3567C14.269 18.5143 13.5177 17.9223 12.7208 17.558C13.5177 17.0571 14.1324 16.1919 14.0869 15.2129C14.1096 13.4597 12.6069 11.9342 10.9448 11.7521C9.87471 11.6382 8.75905 11.6382 7.68894 11.9342ZM12.1971 11.6838C13.381 12.1164 14.1552 13.2092 14.565 14.3704C15.0887 14.3704 15.6123 14.3704 16.136 14.3704C16.136 17.8768 16.136 21.4059 16.136 24.9122H18.8227C18.8227 21.4059 18.8227 17.8768 18.8227 14.3704C19.3236 14.3704 19.8245 14.3704 20.3026 14.3704C21.0995 13.1637 22.2152 12.1391 23.5813 11.6838C19.779 11.7065 15.9766 11.6838 12.1971 11.6838ZM23.9228 12.0481C22.4656 12.5717 21.2817 13.6191 20.5986 15.0307C19.8473 16.5562 19.7334 18.3094 19.9839 19.9715C20.2116 21.5425 20.9857 23.0224 22.238 24.0015C23.4219 24.935 24.9702 25.231 26.4046 25.1171C27.8617 25.0033 29.3872 24.5935 30.5484 23.6372C30.5484 21.5425 30.5484 19.4478 30.5484 17.3303C29.0912 17.3303 27.6341 17.3303 26.1769 17.3303C26.1769 18.1272 26.1769 18.9469 26.1769 19.7438H27.8845C27.8845 20.5407 27.8845 21.3603 27.8845 22.1572C26.9965 22.772 25.8126 22.772 24.8108 22.4077C23.7179 21.9751 22.9665 20.8822 22.7389 19.7438C22.5112 18.5826 22.5795 17.3759 23.0121 16.283C23.4219 15.2812 24.2643 14.4615 25.3117 14.2566C26.6095 13.9151 27.9528 14.4843 28.9319 15.3267C29.3189 14.5753 29.6832 13.824 30.0931 13.0726C28.4537 11.5471 25.972 11.365 23.9228 12.0481Z" fill="#E40707"/>
<path d="M55.0017 16.6017C55.4115 16.966 55.8441 17.3303 56.2767 17.6946C56.0035 17.8995 55.7075 18.0817 55.4343 18.2866C55.9807 19.1746 56.0035 20.313 55.5481 21.2465C55.0472 22.1345 54.0454 22.6354 53.0436 22.6354C52.611 22.6581 52.1556 22.476 51.7458 22.7264C51.5637 22.7947 51.2904 23.068 51.5864 23.2046C51.9052 23.3412 52.2695 23.2273 52.611 23.1818C53.59 22.9997 54.7057 22.9769 55.5709 23.5233C56.6182 24.2747 56.4816 26.0506 55.4115 26.7109C53.6128 27.8721 51.1538 27.6672 49.4007 26.4832C49.7877 26.0279 50.1748 25.5725 50.5618 25.1399C51.5409 26.0051 53.0208 26.2555 54.182 25.618C54.4552 25.4814 54.5463 25.1399 54.4097 24.8667C54.3414 24.7528 54.2276 24.639 54.091 24.5934C53.0436 24.2747 51.9735 24.7528 50.9261 24.5707C50.3569 24.5251 49.7194 24.1836 49.6739 23.5461C49.56 22.863 50.152 22.3849 50.6757 22.0889C49.3779 21.3603 48.9453 19.425 49.8788 18.2411C50.9034 16.8977 52.8615 16.7611 54.3186 17.3986L55.0017 16.6017ZM52.019 18.5598C51.1311 18.9013 50.9944 20.2219 51.632 20.8367C52.0418 21.2465 52.6793 21.292 53.203 21.1326C53.9999 20.8367 54.2048 19.6755 53.7494 19.0152C53.3851 18.446 52.611 18.3321 52.019 18.5598ZM134.6 17.3759C134.828 17.1254 135.078 16.8522 135.306 16.6017C135.716 16.966 136.148 17.3303 136.581 17.6946C136.308 17.8995 136.012 18.0817 135.738 18.2866C136.217 19.0835 136.308 20.0853 135.966 20.9505C135.602 21.8157 134.828 22.4304 133.894 22.5671C133.416 22.6581 132.938 22.5671 132.46 22.5671C132.187 22.6581 131.777 22.7264 131.754 23.0907C132.027 23.3867 132.437 23.2501 132.779 23.2046C133.758 22.9997 134.85 22.9541 135.761 23.4778C136.809 24.0925 136.831 25.8002 135.921 26.5515C135.01 27.3029 133.826 27.5306 132.687 27.485C131.617 27.4395 130.57 27.098 129.682 26.4832C130.069 26.0279 130.456 25.5953 130.82 25.1399C131.504 25.7319 132.392 26.0279 133.279 25.9595C133.78 25.8912 134.418 25.8457 134.714 25.3448C134.873 24.9577 134.509 24.5707 134.145 24.5479C133.029 24.3885 131.868 24.8667 130.775 24.4796C130.274 24.3658 129.933 23.9104 129.933 23.3867C129.91 22.772 130.479 22.3621 130.934 22.0889C129.637 21.3831 129.204 19.425 130.137 18.2411C131.208 16.8977 133.166 16.7383 134.6 17.3759ZM132.3 18.5598C131.321 18.9469 131.299 20.5407 132.187 21.0188C132.779 21.3376 133.667 21.2693 134.054 20.6545C134.372 20.0853 134.372 19.2884 133.894 18.8103C133.507 18.4004 132.824 18.3549 132.3 18.5598ZM70.803 17.7857C71.9642 16.6928 73.8995 16.8066 75.1062 17.7857C76.1763 16.8977 77.8384 16.7383 79.0224 17.4897C79.7054 17.9451 80.0242 18.7875 80.0242 19.5844C80.0242 21.2465 80.0242 22.9086 80.0242 24.5707H78.2027C78.2027 23.0452 78.2027 21.5652 78.2027 20.0398C78.2027 19.5844 78.1344 19.0607 77.7701 18.7647C77.087 18.2411 75.9942 18.4687 75.5616 19.1973C75.516 20.996 75.5616 22.772 75.5388 24.5707H73.7173C73.7173 22.9086 73.7401 21.2465 73.7173 19.5844C73.7401 18.6054 72.4878 18.2183 71.7592 18.6509C71.486 18.833 71.0534 19.038 71.0534 19.425C71.0307 21.1326 71.0534 22.8403 71.0534 24.5707H69.2319V17.1709H70.4842L70.803 17.7857ZM81.6635 18.3321C83.0068 16.7611 85.5341 16.6017 87.1507 17.854C88.198 18.6737 88.5851 20.1536 88.198 21.4059C86.331 21.4059 84.4868 21.4059 82.6198 21.4059C82.6881 22.1345 83.0979 22.8403 83.781 23.068C84.7372 23.4095 85.9212 23.3184 86.7636 22.6354C86.9913 23.068 87.2418 23.5233 87.4694 23.9787C86.3993 24.7073 85.056 24.7756 83.8037 24.6618C82.5742 24.5479 81.3675 23.6827 80.9577 22.4532C80.5023 21.0871 80.6617 19.425 81.6635 18.3321ZM83.8493 18.6054C83.2117 18.8103 82.8475 19.4478 82.6881 20.0853C83.9631 20.0853 85.2381 20.0853 86.5132 20.0853C86.3993 19.6072 86.2855 19.129 85.8756 18.833C85.3064 18.4232 84.5095 18.4004 83.8493 18.6054ZM99.6505 17.4442C100.948 16.9205 102.406 16.875 103.749 17.3303C104.523 17.6035 105.047 18.3549 105.183 19.1518C105.456 20.4496 105.252 21.7474 105.388 23.0452C105.434 23.5006 105.639 23.9104 105.957 24.2064C105.639 24.6845 105.047 24.7756 104.523 24.6618C104.113 24.5479 103.885 24.1836 103.681 23.8649C103.18 24.4341 102.383 24.6617 101.654 24.7073C100.857 24.7301 100.015 24.5707 99.4229 23.9787C98.8081 23.364 98.717 22.3621 98.9675 21.5425C99.2179 20.7228 99.9693 20.1991 100.766 19.9259C101.654 19.6527 102.588 19.5844 103.521 19.7438C103.453 19.2884 103.271 18.8103 102.815 18.6509C101.927 18.3094 100.903 18.446 100.038 18.7875C99.901 18.3549 99.7644 17.8995 99.6505 17.4442ZM101.153 21.3831C100.516 21.7702 100.47 22.9541 101.222 23.2273C101.836 23.4095 102.61 23.3867 103.134 22.9314C103.612 22.4532 103.498 21.7246 103.521 21.0871C102.724 20.9733 101.836 20.9505 101.153 21.3831ZM108.143 17.7857C109.282 16.6928 111.24 16.8066 112.424 17.7857C113.494 16.8977 115.156 16.7383 116.317 17.4897C117 17.9451 117.342 18.7875 117.319 19.5844C117.342 21.2465 117.319 22.9086 117.319 24.5934H115.497C115.497 23.0907 115.497 21.588 115.497 20.0625C115.497 19.6072 115.429 19.0835 115.065 18.7647C114.382 18.2411 113.289 18.4687 112.833 19.1973C112.788 20.996 112.833 22.772 112.811 24.5707H110.989C110.966 22.9086 111.012 21.2465 110.966 19.5844C110.966 18.6054 109.714 18.2183 108.986 18.6509C108.712 18.833 108.28 19.038 108.28 19.425C108.28 21.1326 108.28 22.8403 108.28 24.5707H106.458C106.458 22.1117 106.458 19.6299 106.458 17.1709H107.711C107.893 17.3759 108.029 17.5808 108.143 17.7857ZM123.899 17.8312C124.787 16.9433 126.199 16.8522 127.337 17.2165C128.361 17.558 129.045 18.5826 129.09 19.6755C129.136 21.3148 129.09 22.9541 129.113 24.5934H127.291C127.291 23.1363 127.291 21.6791 127.291 20.2219C127.291 19.6527 127.155 18.9924 126.631 18.6964C125.789 18.2638 124.764 18.537 124.127 19.1746C124.104 20.9733 124.127 22.772 124.127 24.5707H122.305C122.305 22.1117 122.305 19.6299 122.305 17.1709H123.626C123.694 17.3986 123.785 17.6035 123.899 17.8312ZM45.7805 17.1709H48.6265C48.6265 19.6299 48.6265 22.1117 48.6265 24.5707H46.7823C46.7823 22.5671 46.7823 20.5862 46.7823 18.5826H45.7805C45.8033 18.1272 45.7805 17.6491 45.7805 17.1709ZM64.997 17.1709H67.8431V24.5707H65.9988C65.9988 22.5671 65.9988 20.5862 65.9988 18.5826C65.6801 18.5826 65.3385 18.5826 64.997 18.5826V17.1709ZM118.047 17.1709H120.893C120.893 19.6299 120.893 22.1117 120.893 24.5707H119.072C119.072 22.5671 119.072 20.5862 119.072 18.5826H118.07C118.047 18.1044 118.047 17.6491 118.047 17.1709ZM91.6361 15.3267C92.7289 14.4843 94.1861 14.2111 95.5522 14.3021C96.463 14.3704 97.3509 14.6892 98.1023 15.2812C97.8291 15.7593 97.5786 16.2602 97.3054 16.7383C96.3947 16.1236 95.3018 15.7138 94.2089 15.987C93.0249 16.1919 92.0914 17.2165 91.841 18.3777C91.5905 19.4933 91.6361 20.7456 92.2508 21.7474C93.1388 23.2046 95.279 23.5916 96.6679 22.6354C96.6679 21.9751 96.6679 21.292 96.6679 20.6317H95.1879C95.1879 20.1081 95.1879 19.6072 95.1879 19.0835C96.3264 19.0835 97.442 19.0835 98.5577 19.0835C98.5577 20.609 98.5577 22.1117 98.5577 23.6372C97.4192 24.4341 96.0076 24.7301 94.6643 24.7301C93.3437 24.7528 91.932 24.2975 91.0441 23.2729C89.8601 22.0206 89.5641 20.1764 89.8146 18.4915C89.974 17.262 90.6342 16.1008 91.6361 15.3267ZM38.2897 14.4387C39.337 14.416 40.3616 14.3477 41.4089 14.3477C42.3197 14.3704 43.276 14.5298 44.0045 15.099C44.7104 15.6682 44.9836 16.67 44.7331 17.5352C44.551 18.15 44.0273 18.537 43.5036 18.833C44.2095 19.0835 44.8925 19.5389 45.1885 20.2447C45.6211 21.2465 45.5528 22.5215 44.7787 23.3412C43.9818 24.2064 42.7978 24.5479 41.6822 24.5479C40.5437 24.5707 39.3826 24.5479 38.2441 24.5479L38.2897 14.4387ZM40.1795 15.8959C40.1795 16.6928 40.1795 17.5125 40.1795 18.3094C40.8853 18.3321 41.6594 18.4232 42.3197 18.1044C43.071 17.7629 43.1849 16.5334 42.4563 16.1236C41.7732 15.7593 40.9536 15.8959 40.1795 15.8959ZM40.1795 19.7438C40.1795 20.8594 40.1795 21.9751 40.1795 23.068C40.9763 23.1135 41.796 23.1818 42.5474 22.9086C43.7996 22.5215 43.8452 20.313 42.5929 19.9259C41.8415 19.6527 40.9991 19.721 40.1795 19.7438ZM45.8033 14.4615H48.6265C48.6265 14.9852 48.6265 15.5316 48.6265 16.0553C47.6703 16.0553 46.7368 16.0553 45.7805 16.0553C45.7805 15.5316 45.8033 14.9852 45.8033 14.4615ZM56.8459 14.4387C59.3505 14.4387 61.8777 14.4387 64.405 14.4387C64.405 14.9624 64.405 15.5088 64.405 16.0553H62.151C62.151 18.8786 62.151 21.7474 62.151 24.5707C61.5135 24.5707 60.8759 24.5707 60.2384 24.5707C60.2384 21.7246 60.2384 18.8786 60.2384 16.0553H56.8459V14.4387ZM64.997 16.0553C64.997 15.5316 64.997 14.9852 64.997 14.4615C65.9305 14.4615 66.8868 14.4615 67.8203 14.4615V16.0553C66.8868 16.0553 65.9305 16.0553 64.997 16.0553ZM118.07 14.4615C119.004 14.4615 119.96 14.4615 120.916 14.4615C120.916 14.9852 120.916 15.5316 120.916 16.0553C119.983 16.0553 119.026 16.0553 118.093 16.0553C118.07 15.5316 118.07 14.9852 118.07 14.4615Z" fill="#E40707"/>
<path d="M8.39467 14.7347C9.07772 13.8923 10.6487 14.0289 11.1041 15.0763C11.2863 15.6455 11.0358 16.4424 10.3983 16.6017C9.6697 16.8066 8.91834 16.6928 8.16698 16.7156C8.21252 16.0781 8.00761 15.3267 8.39467 14.7347ZM8.16698 18.9013C9.10049 18.9469 10.0795 18.7647 10.9675 19.129C12.2653 19.6527 12.1742 21.9068 10.8764 22.3621C9.98846 22.476 9.00942 22.5443 8.16698 22.1117C8.16698 21.0643 8.16698 19.9715 8.16698 18.9013ZM13.3126 27.3484C18.0712 27.8266 22.8071 29.1244 27.6112 28.5551C28.7496 28.4413 29.8653 28.1681 30.9582 27.7355C30.1157 28.8511 29.2278 29.9213 28.1121 30.7637C27.2241 30.9231 26.3362 30.832 25.471 30.7409C22.8981 30.3994 20.4392 29.6025 17.9802 28.7828C16.4319 28.3047 14.9064 27.7127 13.3126 27.3484ZM10.1934 28.373C12.2425 28.4185 14.2006 29.1244 16.1587 29.7619C19.3918 30.8092 22.5794 32.0843 25.9946 32.3575C24.5375 33.1771 23.012 33.8374 21.3727 34.2017C21.145 34.27 20.9628 34.0879 20.7579 34.0196C18.7315 32.8811 16.7962 31.5833 14.7698 30.3766C13.3126 29.5342 11.8099 28.7601 10.1934 28.373ZM7.64331 31.1052C9.07772 31.1963 10.5349 31.4012 11.8327 32.0387C13.3126 32.699 14.6104 33.6553 15.931 34.566C12.9256 34.179 10.0568 32.995 7.64331 31.1052Z" fill="#E40707"/>
</g>
<defs>
<clipPath id="clip0_17954_3040">
<rect width="137" height="36" fill="white"/>
</clipPath>
</defs>
</svg>
