<svg width="126" height="35" viewBox="0 0 1264 354" fill="none" xmlns="http://www.w3.org/2000/svg">
<path d="M0 353.607V0.92071C7.93798 -0.768403 337.956 0.0761546 350.455 1.76527V352.425C348.09 352.425 345.894 352.425 343.867 352.425C232.06 352.763 120.252 353.1 8.61358 353.438C5.91125 353.607 3.37787 353.607 0 353.607ZM336.605 339.081C336.774 337.56 337.112 336.716 337.112 335.703C336.943 228.951 336.943 122.199 336.774 15.4471C336.774 15.2782 336.605 15.1093 336.436 14.7714C336.267 14.6025 336.098 14.4336 335.591 14.0958C334.916 14.0958 334.072 13.758 333.058 13.758C227.331 13.9269 121.435 14.0958 15.5382 14.2647C15.3693 14.2647 15.2004 14.4336 14.8627 14.6025C14.6938 14.7714 14.5248 14.9403 14.0182 15.2781C13.8493 16.2916 13.6804 17.474 13.6804 18.6564C13.8493 124.901 13.8493 231.315 14.0182 337.56C14.0182 337.73 14.1871 338.067 14.3559 338.236C14.5248 338.405 14.6938 338.574 15.5382 339.081H336.605Z" fill="url(#paint0_linear_1327_20)"/>
<path d="M1101.86 280.13C1114.53 299.892 1126.86 318.81 1139.52 338.742H1104.23C1093.42 320.668 1082.61 302.426 1071.46 284.015H1055.08V338.235H1025.86C1025.69 338.067 1025.52 337.897 1025.35 337.56C1025.19 337.391 1025.02 337.221 1025.02 337.053C1024.85 290.94 1024.85 244.996 1024.85 198.883C1024.85 197.532 1025.02 196.012 1025.02 194.323C1026.37 194.154 1027.55 193.816 1028.73 193.816C1046.97 193.816 1065.21 193.647 1083.45 193.985C1088.18 193.985 1093.08 194.661 1097.64 196.012C1113.85 200.741 1124.67 211.045 1128.04 228.105C1130.58 241.28 1129.23 253.949 1121.28 265.265C1116.56 271.853 1110.14 276.414 1101.86 280.13ZM1055.42 257.327C1064.71 257.327 1073.32 257.665 1081.94 257.158C1091.73 256.651 1097.81 250.571 1098.49 241.449C1099.33 229.625 1094.94 222.7 1084.8 220.335C1080.75 219.322 1060.48 219.66 1055.59 220.673L1055.42 257.327Z" fill="white"/>
<path d="M756.984 81.9979C757.657 96.3551 755.123 110.206 748.37 122.874C737.392 143.819 719.491 154.123 696.014 155.136C679.968 155.812 665.104 151.927 652.605 141.116C642.475 132.502 636.225 121.354 632.679 108.517C626.769 86.0519 627.442 63.7552 637.577 42.6415C647.707 21.6965 664.935 10.5483 688.242 9.36597C696.856 8.85926 705.47 9.19706 713.745 12.0686C735.531 19.3318 747.861 35.0405 753.941 56.3233C755.123 60.7148 756.136 65.1065 756.645 69.6673C757.318 73.7213 756.815 77.9439 756.984 81.9979ZM727.426 82.3355C727.257 78.4507 727.257 74.5658 726.917 70.8495C726.244 63.5866 724.05 56.83 720.504 50.4114C710.877 33.0135 688.752 32.3379 677.264 39.4322C669.663 44.1616 665.274 51.087 662.57 59.1949C659.024 70.005 658.515 81.491 659.867 92.6394C660.715 99.2269 662.57 105.814 665.444 111.895C671.354 124.394 681.823 130.137 695.844 129.293C708.847 128.448 717.63 121.861 722.868 109.868C726.584 101.084 727.426 91.7949 727.426 82.3355Z" fill="white"/>
<path d="M1004.24 265.943C1004.07 278.104 1002.22 289.928 997.653 301.076C988.196 324.555 968.604 338.406 942.762 339.419C922.837 340.264 905.439 333.845 892.267 318.305C883.653 308.171 878.925 296.009 877.233 283.003C874.869 266.111 875.378 249.051 881.622 232.667C889.394 212.736 903.075 199.392 924.353 194.831C944.793 190.44 964.046 193.48 980.425 206.993C992.585 216.958 999.005 230.64 1001.88 245.842C1003.23 252.599 1003.56 259.355 1004.24 265.943ZM974.515 265.943C973.842 255.808 972.49 245.673 967.762 235.876C957.456 214.932 924.862 213.58 913.374 234.187C911.35 237.735 909.828 241.451 908.646 245.336C905.943 254.119 905.1 263.24 905.943 272.361C906.791 281.145 908.143 289.928 912.702 297.698C916.757 304.623 922.158 309.69 929.929 312.055C942.932 316.109 962.015 313.407 969.956 292.462C973.163 284.016 974.011 275.233 974.515 265.943Z" fill="white"/>
<path d="M515.802 61.3916H486.753C486.584 59.3649 486.415 57.3377 486.415 55.3108C486.077 43.1491 478.815 35.717 466.485 35.5481C462.263 35.5481 457.872 36.0549 453.818 37.4062C449.09 38.9263 445.88 42.6424 444.529 47.5408C442.503 54.6351 444.361 60.0403 451.116 62.9115C457.196 65.4456 463.783 66.9655 470.37 68.6545C477.463 70.6818 484.726 72.2017 491.82 74.3975C495.197 75.4112 498.575 77.1002 501.615 78.6206C518.336 87.0657 522.558 104.633 520.363 117.977C517.829 133.517 509.046 144.158 494.691 149.901C476.619 157.333 458.21 157.671 440.138 150.407C419.871 142.3 408.893 124.733 410.413 101.93C410.413 101.592 410.751 101.086 411.257 100.41C412.608 100.241 414.297 100.072 415.986 100.072C423.924 100.072 431.693 100.072 439.969 100.072C440.138 102.437 440.307 104.295 440.476 106.153C440.814 118.653 446.556 125.916 458.547 128.618C465.641 130.138 472.904 129.632 479.659 126.76C484.557 124.733 488.273 121.524 489.455 116.119C490.975 108.011 488.78 102.943 481.01 100.072C473.41 97.2004 465.472 95.6806 457.534 93.3156C450.272 91.1197 442.671 89.4307 435.578 86.5595C403.826 73.8907 408.724 33.5212 429.16 19.5016C437.605 13.5897 446.894 10.2115 457.196 9.53582C466.992 8.86016 476.788 9.19796 486.246 12.7451C505.838 19.6705 519.18 37.5751 515.802 61.3916Z" fill="white"/>
<path d="M626.598 338.911H596.701C592.312 330.634 588.087 322.526 583.528 313.912H539.109C534.887 321.851 530.496 330.296 525.766 339.248C521.037 339.248 516.139 339.248 511.073 339.248C506.344 339.248 501.614 339.248 496.041 339.248C513.606 290.264 530.664 242.463 547.891 194.323H575.252C592.142 242.124 609.201 290.095 626.598 338.911ZM575.252 287.393C570.523 270.84 566.47 254.962 560.558 239.422C556.167 255.299 551.776 271.177 547.385 287.393H575.252Z" fill="white"/>
<path d="M722.868 249.896C722.868 246.518 723.038 243.477 722.868 240.436C722.359 230.809 717.461 224.39 708.344 221.012C692.298 215.269 673.04 221.012 665.614 239.761C658.685 257.159 658.685 275.064 665.614 292.292C672.876 310.704 691.116 316.616 707.665 311.548C717.122 308.677 722.529 301.075 723.038 291.11C723.202 288.239 723.038 285.367 723.038 282.157H752.759C756.475 304.623 745.497 324.385 726.414 332.662C700.572 343.979 675.573 341.952 652.775 323.879C646.525 318.811 641.627 312.393 638.42 305.299C627.102 280.131 626.43 254.625 637.408 229.289C647.034 207.499 664.595 196.013 688.243 193.479C700.403 192.128 712.224 193.311 723.371 198.04C738.405 204.29 748.704 215.269 752.086 231.484C753.268 237.227 753.099 243.308 753.602 249.727L722.868 249.896Z" fill="white"/>
<path d="M503.301 277.765H445.877C445.877 298.372 445.877 318.304 445.877 339.08C435.237 339.08 425.61 339.08 416.49 339.08C415.645 338.236 415.476 338.067 415.308 337.897C415.138 337.729 415.138 337.391 415.138 337.222C414.97 290.94 414.97 244.659 414.801 198.377C414.801 197.195 414.97 196.012 414.97 194.999C420.712 193.648 495.194 193.31 508.875 194.323C510.226 198.377 509.212 202.769 509.381 206.991C509.55 211.045 509.381 215.099 509.381 219.829C488.101 220.336 467.326 219.66 446.046 220.166C445.709 230.639 445.877 240.774 445.877 251.415H503.132C503.639 260.198 503.639 268.475 503.301 277.765Z" fill="white"/>
<path d="M1229.54 194.157H1264C1262.65 196.521 1261.81 198.717 1260.62 200.575C1245.08 226.418 1229.37 252.262 1213.67 278.106C1211.64 281.314 1210.8 284.524 1210.8 288.24C1210.97 302.597 1210.8 316.955 1210.8 331.481C1210.8 333.846 1210.8 336.211 1210.8 338.913H1180.73C1180.56 336.886 1180.39 335.028 1180.39 333.17C1180.39 318.306 1180.23 303.442 1180.39 288.578C1180.39 284.524 1179.38 281.146 1177.36 277.767C1161.14 251.079 1145.27 224.392 1129.22 197.704C1128.72 196.859 1128.38 196.015 1127.54 194.494C1133.45 193.65 1139.02 194.157 1144.59 194.157C1150.16 193.988 1155.57 194.157 1161.82 194.157C1172.96 213.243 1184.28 232.331 1195.94 252.093C1207.25 232.331 1218.23 213.412 1229.54 194.157Z" fill="white"/>
<path d="M830.788 154.63H800.558V36.3918C795.49 35.0405 790.762 35.7162 786.033 35.7162C781.305 35.5473 776.407 35.7162 771.679 35.7162C766.95 35.7162 762.222 35.7162 757.154 35.7162V10.7173C762.222 9.36605 856.8 8.85928 874.87 10.0417C875.379 18.1494 875.04 26.426 875.04 35.5473C860.516 35.8851 846.161 35.5473 831.128 35.8851C830.788 45.8509 830.958 55.6477 830.958 65.2755C830.958 75.4102 830.958 85.3758 830.958 95.5105V154.63H830.788Z" fill="white"/>
<path d="M753.099 194.323H870.985V219.153C866.596 220.842 861.698 219.66 857.133 219.997C852.405 220.166 847.507 219.997 842.779 219.997C838.05 219.997 833.322 219.997 827.915 219.997V339.248C817.616 339.248 807.989 339.417 797.854 339.08C796.842 330.803 797.515 323.033 797.345 315.263C797.181 307.324 797.345 299.385 797.345 291.447C797.345 283.508 797.345 276.076 797.345 268.475C797.345 260.536 797.345 252.597 797.345 244.659C797.345 236.72 797.345 228.949 797.345 220.166C782.657 219.66 768.466 220.166 753.942 219.828C752.42 215.437 753.433 211.045 753.269 206.822C752.929 202.938 753.099 198.884 753.099 194.323Z" fill="white"/>
<path d="M569.847 128.788H628.962C630.144 133.517 629.465 137.74 629.635 141.963C629.805 146.016 629.635 150.07 629.635 154.462H542.317C541.135 149.226 540.798 19.333 541.98 9.53613C546.371 9.53613 550.762 9.53613 555.323 9.53613C559.883 9.53613 564.443 9.53613 569.678 9.53613C569.678 16.6304 569.847 23.218 569.847 29.8055C569.847 36.2241 569.847 42.8116 569.847 49.2303C569.847 55.9868 569.847 62.5741 569.847 69.3308C569.847 76.0874 569.847 82.3367 569.847 88.7557C569.847 95.5117 569.847 102.099 569.847 108.856C569.847 115.443 569.847 121.862 569.847 128.788Z" fill="white"/>
<path d="M188.993 125.24C198.282 131.152 206.895 136.557 215.678 142.131C222.264 137.739 228.683 133.179 235.438 129.125C244.052 123.888 252.835 118.821 262.968 117.301C275.635 115.274 288.302 114.767 299.956 121.693C305.36 124.902 309.414 128.956 309.414 135.881C309.414 139.428 308.4 142.3 305.192 144.327C296.071 150.408 286.951 156.657 277.831 162.738C271.244 167.13 264.657 171.352 257.394 176.251C259.928 178.616 262.124 180.643 264.319 182.501C276.649 192.635 288.978 203.108 301.645 212.905C313.974 222.364 314.143 236.721 310.596 246.518C306.711 257.666 294.044 261.382 286.106 257.666C281.715 255.639 277.493 253.444 273.609 250.572C238.141 223.208 203.011 195.507 167.712 167.974C147.614 152.434 127.515 136.895 107.586 121.355C105.559 119.834 103.701 117.977 101.168 115.781C104.377 113.754 106.91 112.065 109.613 110.545C144.404 89.7685 179.028 68.9923 215.34 50.9189C224.629 46.1893 234.256 42.6422 244.559 41.6288C257.057 40.4464 268.879 43.3179 279.35 50.2432C281.208 51.4256 282.729 53.7903 283.235 55.9862C284.924 62.7424 280.871 71.5258 274.791 75.073C247.599 90.7822 220.576 106.491 193.384 122.199C192.033 123.044 191.019 123.888 188.993 125.24Z" fill="url(#paint1_linear_1327_20)"/>
<path d="M36.6489 187.566C47.9648 196.181 58.2673 203.951 68.4012 211.72C72.7924 215.099 77.0145 218.646 81.5748 221.686C84.7834 223.882 85.6278 226.584 85.9661 230.132C86.8105 239.084 87.8234 248.037 89.0061 258.171C102.517 248.712 114.171 238.24 127.176 228.78C117.38 219.659 106.909 212.227 97.1127 204.12C86.979 195.843 76.6768 187.566 66.3741 179.289C56.2405 171.181 46.1069 163.243 36.3111 155.304V104.124C42.3913 108.516 47.7958 112.232 53.2004 116.117C87.8235 141.285 122.447 166.452 157.239 191.789C166.528 198.545 175.986 205.133 184.937 212.227C192.707 218.477 197.773 226.247 197.098 236.888C196.76 243.813 194.058 249.388 188.146 253.104C179.702 258.171 171.257 263.069 162.643 267.968C136.972 282.326 111.3 296.852 85.6278 311.04C83.4322 312.223 80.899 313.236 78.3657 313.912C70.2585 315.77 62.152 315.432 54.2138 313.236C48.1337 311.547 43.7424 307.831 41.5468 301.581C39.1823 294.825 37.6623 287.899 37.1556 280.636C34.96 250.908 36.8178 221.18 36.1422 191.451C36.1422 190.606 36.48 189.593 36.6489 187.566Z" fill="url(#paint2_linear_1327_20)"/>
<path d="M116.368 71.3568C104.039 81.8298 92.0476 92.1331 79.5493 102.775C65.3626 91.2886 51.1753 79.634 36.6504 67.8103C37.4949 65.9521 38.0016 64.4316 39.015 63.2494C42.3928 59.3646 45.7707 54.9727 49.8241 51.7634C61.8158 42.3044 74.8204 42.1355 88.1632 48.3852C99.4789 53.6214 107.924 61.8981 116.368 71.3568Z" fill="url(#paint3_linear_1327_20)"/>
<path d="M235.268 266.112C250.131 264.592 260.434 280.639 260.265 291.111C260.096 304.455 248.442 316.279 235.099 316.279C221.757 316.279 210.61 304.455 210.103 290.942C209.428 277.598 223.783 264.254 235.268 266.112Z" fill="url(#paint4_linear_1327_20)"/>
<defs>
<linearGradient id="paint0_linear_1327_20" x1="-34.2753" y1="-16.7062" x2="365.112" y2="353.826" gradientUnits="userSpaceOnUse">
<stop stop-color="#4AE2AD"/>
<stop offset="0.41" stop-color="#48E373"/>
<stop offset="1" stop-color="#59BD50"/>
</linearGradient>
<linearGradient id="paint1_linear_1327_20" x1="33.2199" y1="100.149" x2="307.776" y2="157.736" gradientUnits="userSpaceOnUse">
<stop stop-color="#4AE2AD"/>
<stop offset="0.41" stop-color="#48E373"/>
<stop offset="1" stop-color="#59BD50"/>
</linearGradient>
<linearGradient id="paint2_linear_1327_20" x1="11.9195" y1="201.703" x2="286.459" y2="259.291" gradientUnits="userSpaceOnUse">
<stop stop-color="#4AE2AD"/>
<stop offset="0.41" stop-color="#48E373"/>
<stop offset="1" stop-color="#59BD50"/>
</linearGradient>
<linearGradient id="paint3_linear_1327_20" x1="40.4154" y1="65.8737" x2="314.955" y2="123.461" gradientUnits="userSpaceOnUse">
<stop stop-color="#4AE2AD"/>
<stop offset="0.41" stop-color="#48E373"/>
<stop offset="1" stop-color="#59BD50"/>
</linearGradient>
<linearGradient id="paint4_linear_1327_20" x1="3.39436" y1="242.346" x2="277.95" y2="299.933" gradientUnits="userSpaceOnUse">
<stop stop-color="#4AE2AD"/>
<stop offset="0.41" stop-color="#48E373"/>
<stop offset="1" stop-color="#59BD50"/>
</linearGradient>
</defs>
</svg>
