<svg width="1958" height="488" viewBox="0 0 1958 488" fill="none" xmlns="http://www.w3.org/2000/svg">
<g clip-path="url(#clip0_1380_15)">
<path d="M330.839 191.838C329.24 191.085 338.858 195.847 322.821 187.828C300.354 176.595 271.366 165.776 272.035 129.023C272.116 124.578 268.307 126.351 263.348 131.696C263.011 132.023 262.656 132.329 262.284 132.615C219.244 170.454 199.836 197.847 193.92 238.307C184.496 302.765 200.577 310.85 206.111 308.23C207.144 307.712 208.043 306.963 208.738 306.04C209.434 305.118 209.907 304.047 210.12 302.912C212.073 293.878 216.027 262.714 270.767 252.311C324.83 340.743 240.746 394.154 189.34 394.154C126.577 394.154 43.4981 311.452 139.405 211.087C155.761 193.97 178.833 177.426 202.538 141.72C231.577 97.9796 236.68 56.6482 207.489 17.476C192.515 -2.61899 189.925 -1.96119 190.51 2.7269C192.877 21.6917 192.285 15.8787 192.515 21.4375C193.652 48.9807 174.305 62.4209 148.411 78.2375L47.5076 136.374C46.5475 136.923 35.1032 143.176 34.143 143.725C24.7877 149.07 0 169.118 0 199.188C0 217.194 0.0629529 350.209 0.0629529 350.209C-0.00962237 361.135 2.79228 371.887 8.18756 381.387C13.5828 390.888 21.3817 398.802 30.8018 404.336C44.2145 412.275 138.682 467.245 156.43 477.174C157.475 477.759 158.706 478.632 159.771 479.179C184.496 491.875 208.239 488.437 227.931 477.174C247.289 466.102 330.472 420.446 359.574 399.659C378.284 386.294 385.635 367.583 384.966 351.546V262.671C384.966 231.932 364.919 207.875 330.839 191.838Z" fill="url(#paint0_linear_1380_15)"/>
<path d="M504.26 300.537C504.26 266.595 528.311 245.016 557.308 245.016C571.694 245.016 583.607 249.512 591.7 257.604V247.488H618.898V355.833C618.898 382.808 599.343 408.432 562.928 408.432C528.987 408.432 509.429 386.629 506.958 363.251H534.829C537.753 374.04 546.294 383.032 562.928 383.032C582.261 383.032 592.151 369.546 592.151 353.585V343.246C584.058 351.563 571.694 355.833 557.308 355.833C528.311 355.833 504.26 334.479 504.26 300.537ZM531.46 300.537C531.46 319.644 544.722 331.333 562.477 331.333C570.547 331.096 578.206 327.724 583.83 321.932C589.454 316.14 592.6 308.385 592.6 300.313C592.6 292.24 589.454 284.485 583.83 278.693C578.206 272.902 570.547 269.53 562.477 269.292C544.722 269.292 531.46 281.205 531.46 300.537Z" fill="white"/>
<path d="M696.004 365.948C666.108 365.948 640.482 343.471 640.482 305.481C640.482 267.493 666.108 244.79 696.004 244.79C702.518 244.649 708.995 245.808 715.054 248.201C721.114 250.595 726.636 254.173 731.295 258.727V247.488H759.169V363.251H731.295V352.237C726.622 356.757 721.093 360.298 715.033 362.653C708.973 365.007 702.503 366.128 696.004 365.948ZM668.807 305.481C668.807 327.735 682.742 340.548 700.951 340.548C717.585 340.548 731.971 327.735 731.971 305.481C731.971 283.003 717.585 270.191 700.951 270.191C682.742 270.191 668.807 283.004 668.807 305.481Z" fill="white"/>
<path d="M930.01 244.791C959.458 244.791 973.844 265.471 973.844 295.142V363.251H945.297V298.288C945.297 279.857 937.655 270.191 920.57 270.191C906.184 270.191 894.945 279.857 894.945 298.288V363.251H866.398V298.288C866.398 279.857 859.654 270.191 842.569 270.191C827.284 270.191 816.045 279.857 816.045 298.288V363.251H787.498V247.488H816.045V259.402C821.442 251.76 831.78 244.791 851.113 244.791C869.77 244.791 882.581 252.658 888.426 263.447C895.17 252.658 907.759 244.791 930.01 244.791Z" fill="white"/>
<path d="M997.678 205.229C997.684 200.581 999.533 196.125 1002.82 192.838C1006.11 189.551 1010.56 187.702 1015.21 187.695C1017.5 187.702 1019.77 188.163 1021.88 189.049C1023.99 189.936 1025.9 191.231 1027.51 192.861C1029.12 194.49 1030.39 196.422 1031.25 198.545C1032.11 200.668 1032.54 202.939 1032.52 205.229C1032.49 209.83 1030.64 214.233 1027.38 217.476C1024.11 220.719 1019.7 222.539 1015.1 222.539C1010.5 222.539 1006.08 220.719 1002.82 217.476C999.556 214.233 997.707 209.83 997.678 205.229ZM1029.6 247.488V363.251H1001.05V247.488H1029.6Z" fill="white"/>
<path d="M1086.46 247.488V259.402C1091.86 251.76 1102.87 244.791 1121.53 244.791C1150.98 244.791 1167.16 265.471 1167.16 295.142V363.251H1138.61V298.288C1138.61 279.857 1129.85 270.191 1112.99 270.191C1097.7 270.191 1086.46 279.857 1086.46 298.288V363.251H1057.92V247.488H1086.46Z" fill="white"/>
<path d="M1187.84 300.537C1187.84 266.595 1211.89 245.016 1240.89 245.016C1255.28 245.016 1267.19 249.512 1275.28 257.604V247.488H1302.48V355.833C1302.48 382.808 1282.93 408.432 1246.51 408.432C1212.57 408.432 1193.01 386.629 1190.54 363.251H1218.41C1221.34 374.04 1229.88 383.032 1246.51 383.032C1265.84 383.032 1275.74 369.546 1275.74 353.585V343.246C1267.64 351.563 1255.28 355.833 1240.89 355.833C1211.89 355.833 1187.84 334.479 1187.84 300.537ZM1215.04 300.537C1215.04 319.644 1228.31 331.333 1246.06 331.333C1254.13 331.096 1261.79 327.724 1267.41 321.932C1273.04 316.14 1276.18 308.385 1276.18 300.313C1276.18 292.24 1273.04 284.485 1267.41 278.693C1261.79 272.902 1254.13 269.53 1246.06 269.292C1228.31 269.292 1215.04 281.205 1215.04 300.537Z" fill="white"/>
<path d="M1434.66 339.424C1441.11 339.63 1447.52 338.359 1453.4 335.71C1459.28 333.061 1464.48 329.104 1468.6 324.14L1483.67 346.392C1475.12 355.609 1459.16 365.949 1434.44 365.949C1397.8 365.949 1374.64 339.65 1374.64 305.482C1374.64 271.315 1397.8 245.016 1434.44 245.016C1459.16 245.016 1475.12 255.356 1483.67 264.571L1468.6 286.825C1464.48 281.861 1459.28 277.903 1453.4 275.254C1447.52 272.605 1441.11 271.335 1434.66 271.54C1416.01 271.54 1403.19 285.026 1403.19 305.482C1403.19 325.937 1416.01 339.424 1434.66 339.424Z" fill="white"/>
<path d="M1492.89 305.481C1492.89 273.788 1515.14 244.791 1554.25 244.791C1593.37 244.791 1615.62 273.788 1615.62 305.481C1615.62 337.402 1593.37 366.398 1554.25 366.398C1515.14 366.398 1492.89 337.402 1492.89 305.481ZM1521.44 305.481C1521.44 327.061 1535.6 340.997 1554.25 340.997C1572.91 340.997 1587.07 327.061 1587.07 305.481C1587.07 284.128 1572.91 270.191 1554.25 270.191C1535.6 270.191 1521.44 284.128 1521.44 305.481Z" fill="white"/>
<path d="M1665.53 247.488V258.502C1669.35 251.534 1676.76 244.791 1691.38 244.791C1709.59 244.791 1722.4 258.727 1721.27 283.902H1693.4C1693.4 275.585 1688.46 269.967 1680.14 269.967C1672.49 269.967 1665.53 275.585 1665.53 294.018V363.251H1636.98V247.488H1665.53Z" fill="white"/>
<path d="M1767.35 258.502C1775.67 249.512 1788.26 244.791 1803.54 244.791C1835.01 244.791 1859.28 268.618 1859.28 305.258C1859.28 341.897 1835.01 365.948 1803.54 365.948C1788.26 365.948 1775.67 361.003 1767.35 352.012V412.704H1738.8V247.488H1767.35V258.502ZM1766 305.258C1766 327.735 1780.84 340.548 1797.24 340.548C1815.9 340.548 1830.74 327.735 1830.74 305.258C1830.74 283.004 1815.9 270.191 1797.24 270.191C1780.84 270.191 1766 283.004 1766 305.258Z" fill="white"/>
<path d="M1869.63 343.695L1888.29 325.038C1890.53 329.96 1894.19 334.104 1898.79 336.945C1903.39 339.787 1908.73 341.197 1914.14 340.997C1922.46 340.997 1929.65 336.278 1929.65 328.185C1929.65 320.768 1923.8 316.721 1915.04 313.798L1904.7 310.427C1888.74 305.258 1877.27 294.243 1877.27 277.16C1877.27 259.626 1893.46 244.791 1913.24 244.791C1932.35 244.791 1945.61 253.557 1951.68 263.672L1933.02 279.857C1931.14 276.575 1928.42 273.85 1925.14 271.955C1921.87 270.06 1918.15 269.064 1914.36 269.067C1907.85 269.067 1904.02 272.888 1904.02 277.16C1904.02 282.329 1908.07 285.477 1914.59 287.723L1924.48 291.095C1940.21 296.491 1957.3 306.831 1957.3 328.185C1957.3 349.54 1939.31 365.948 1914.14 365.948C1890.99 365.948 1876.37 355.384 1869.63 343.695Z" fill="white"/>
</g>
<defs>
<linearGradient id="paint0_linear_1380_15" x1="51.862" y1="131.481" x2="327.274" y2="468.5" gradientUnits="userSpaceOnUse">
<stop offset="0.03856" stop-color="#AA19AB"/>
<stop offset="0.92103" stop-color="#E00E52"/>
</linearGradient>
<clipPath id="clip0_1380_15">
<rect width="1958" height="488" fill="white"/>
</clipPath>
</defs>
</svg>
