<svg width="108" height="36" viewBox="0 0 108 36" fill="none" xmlns="http://www.w3.org/2000/svg">
<path d="M1.61721 12.3591C-0.0352188 12.3591 0.0351006 10.8825 0.0351006 10.8825V10.0036C0.0351006 8.42145 1.67346 5.03222 5.5549 5.1166C9.28165 5.1166 11.3208 7.89408 11.3208 10.0036V10.8825C11.3208 11.445 10.9692 12.3591 9.77386 12.3591C8.47301 12.3591 8.05112 11.7263 8.05112 10.8825C8.05112 9.86293 7.38312 8.35114 5.62522 8.35114C3.86732 8.35114 3.30479 10.0036 3.26964 10.8825C3.26964 10.8825 3.26963 12.3591 1.61721 12.3591Z" fill="#FC5F00"/>
<path d="M36.5296 12.3256C34.8771 12.3256 34.9475 10.8489 34.9475 10.8489V9.96999C34.9475 8.38788 36.5858 4.99865 40.4673 5.08303C44.194 5.08303 46.2332 7.86051 46.2332 9.96999V10.8489C46.2332 11.4115 45.8816 12.3256 44.6862 12.3256C43.3854 12.3256 42.9635 11.6927 42.9635 10.8489C42.9635 9.82936 42.2955 8.31757 40.5376 8.31757C38.7797 8.31757 38.2171 9.96999 38.182 10.8489C38.182 10.8489 38.182 12.3256 36.5296 12.3256Z" fill="#FC5F00"/>
<path d="M63.3201 12.3959C61.6677 12.3959 61.738 10.9193 61.738 10.9193V10.0403C61.738 8.45819 63.3763 5.06896 67.2578 5.15334C70.9845 5.15334 73.0237 7.93082 73.0237 10.0403V10.9193C73.0237 11.4818 72.6721 12.3959 71.4767 12.3959C70.1759 12.3959 69.754 11.763 69.754 10.9193C69.754 9.89967 69.086 8.38788 67.3281 8.38788C65.5702 8.38788 65.0077 10.0403 64.9725 10.9193C64.9725 10.9193 64.9725 12.3959 63.3201 12.3959Z" fill="#FC5F00"/>
<path d="M1.58741 20.6916C-0.0701019 20.6916 0.000433939 22.1822 0.000433939 22.1822V23.0695C0.000433939 24.6667 1.64383 28.0881 5.53722 28.0029C9.27543 28.0029 11.3209 25.199 11.3209 23.0695V22.1822C11.3209 21.6144 10.9682 20.6916 9.76916 20.6916C8.46431 20.6916 8.04112 21.3304 8.04112 22.1822C8.04112 23.2115 7.37106 24.7377 5.60775 24.7377C3.84444 24.7377 3.28019 23.0695 3.24492 22.1822C3.24492 22.1822 3.24492 20.6916 1.58741 20.6916Z" fill="#FC5F00"/>
<path d="M11.1101 28.6022L9.80923 26.2817L6.89111 27.6529C6.98487 27.817 7.28488 28.4475 8.29743 30.2194C8.69924 30.9226 9.61099 31.2726 10.5124 30.7468C11.3562 30.2546 11.4265 29.1999 11.1101 28.6022Z" fill="#FC5F00"/>
<path d="M15.8616 20.6916C14.2041 20.6916 14.2746 22.1822 14.2746 22.1822V23.0695C14.2746 24.6667 15.918 28.0881 19.8114 28.0029C23.5496 28.0029 25.595 25.199 25.595 23.0695V22.1822C25.595 21.6144 25.2424 20.6916 24.0433 20.6916C22.7385 20.6916 22.3153 21.3304 22.3153 22.1822C22.3153 23.2115 21.6452 24.7377 19.8819 24.7377C18.1186 24.7377 17.5544 23.0695 17.5191 22.1822C17.5191 22.1822 17.5191 20.6916 15.8616 20.6916Z" fill="#FC5F00"/>
<path d="M36.5344 20.6916C34.8769 20.6916 34.9475 22.1822 34.9475 22.1822V23.0695C34.9475 24.6667 36.5909 28.0881 40.4842 28.0029C44.2225 28.0029 46.2679 25.199 46.2679 23.0695V22.1822C46.2679 21.6144 45.9152 20.6916 44.7162 20.6916C43.4113 20.6916 42.9881 21.3304 42.9881 22.1822C42.9881 23.2115 42.3181 24.7377 40.5548 24.7377C38.7915 24.7377 38.2272 23.0695 38.1919 22.1822C38.1919 22.1822 38.1919 20.6916 36.5344 20.6916Z" fill="#FC5F00"/>
<path d="M63.2544 20.6916C61.5969 20.6916 61.6674 22.1822 61.6674 22.1822V23.0695C61.6674 24.6667 63.3108 28.0881 67.2042 28.0029C70.9424 28.0029 72.9879 25.199 72.9879 23.0695V22.1822C72.9879 21.6144 72.6352 20.6916 71.4362 20.6916C70.1313 20.6916 69.7081 21.3304 69.7081 22.1822C69.7081 23.2115 69.0381 24.7377 67.2747 24.7377C65.5114 24.7377 64.9472 23.0695 64.9119 22.1822C64.9119 22.1822 64.9119 20.6916 63.2544 20.6916Z" fill="#FC5F00"/>
<path d="M81.7774 5.11658H77.242C76.3982 5.11658 75.6951 5.67911 75.6951 6.73384C75.6951 7.78858 76.2928 8.31595 77.3124 8.31595H81.1797C83.3244 8.31595 83.8517 9.93322 83.8517 11.1638V12.7459C83.8517 14.1873 82.797 15.2421 81.4961 15.2421H77.5233C76.1521 15.2421 75.6951 16.1562 75.6951 16.8945C75.695 17.6328 76.0818 18.4415 77.5233 18.4415C78.9648 18.4415 79.6328 18.5469 81.6719 18.4415C84.6604 18.2869 86.9808 16.121 86.9808 12.9217V10.2145C86.9808 7.78858 84.2736 5.11658 81.7774 5.11658Z" fill="#FC5F00"/>
<path d="M68.8042 21.7464L62.8977 13.2381C63.261 13.2381 64.0228 13.3436 64.7259 12.8514C65.3939 12.3838 65.5697 11.7498 65.64 11.4802L71.5466 19.7775C71.1481 19.8009 70.5858 19.7563 69.7887 20.2346C69.0855 20.6565 68.9097 21.4534 68.8042 21.7464Z" fill="#FC5F00"/>
<path d="M76.7498 9.30039C76.131 9.30039 75.7654 8.83162 75.6599 8.59723V14.996C75.8357 14.7968 76.4685 14.328 76.9608 14.328H78.9296V9.30039H76.7498Z" fill="#FC5F00"/>
<path d="M75.625 18.6738C75.6182 18.649 75.6182 18.6295 75.625 18.6172L75.625 18.6738C75.6766 18.8617 76.1183 19.3556 76.9258 19.3556C77.8298 19.3556 78.5314 19.3907 78.9299 19.3556V26.3872C78.9299 27.3013 78.4728 27.9341 77.3478 27.9693C76.2227 28.0044 75.625 27.3013 75.625 26.3872L75.625 18.6738Z" fill="#FC5F00"/>
<path d="M1.61727 13.3084C0.773476 13.3084 0.140632 12.8865 0 12.6404V20.3751C0.257825 20.1759 0.773476 19.7775 1.61727 19.7775C2.4259 19.7775 3.00015 20.1759 3.26969 20.3751V12.6404C3.11734 12.8865 2.46106 13.3084 1.61727 13.3084Z" fill="#FC5F00"/>
<path d="M9.63314 13.3436C8.78934 13.3436 8.1565 12.9217 8.01587 12.6756V20.4104C8.27369 20.2111 8.78934 19.8127 9.63314 19.8127C10.4418 19.8127 11.016 20.2111 11.2856 20.4104V12.6756C11.1332 12.9217 10.4769 13.3436 9.63314 13.3436Z" fill="#FC5F00"/>
<path d="M36.5643 13.3436C35.7205 13.3436 35.0877 12.9217 34.947 12.6756V20.4104C35.2048 20.2111 35.7205 19.8127 36.5643 19.8127C37.3729 19.8127 37.9472 20.2111 38.2167 20.4104V12.6756C38.0644 12.9217 37.4081 13.3436 36.5643 13.3436Z" fill="#FC5F00"/>
<path d="M14.2388 6.769V20.3751C14.4849 20.2345 14.6255 19.7423 15.8912 19.7423C16.8053 19.7423 17.3327 20.1642 17.5085 20.3751C17.4967 16.0976 17.4803 7.26825 17.5085 6.59321C17.5436 5.74942 16.8405 5.11658 15.856 5.11658C14.7661 5.11658 14.2388 5.81974 14.2388 6.769Z" fill="#FC5F00"/>
<path d="M22.2903 6.80422V20.4104C22.5364 20.2697 22.677 19.7775 23.9427 19.7775C24.8568 19.7775 25.3842 20.1994 25.56 20.4104C25.5483 16.1328 25.5318 7.30346 25.56 6.62843C25.5951 5.78464 24.892 5.15179 23.9076 5.15179C22.8177 5.15179 22.2903 5.85495 22.2903 6.80422Z" fill="#FC5F00"/>
<path d="M28.6187 6.80422V26.4575C28.6187 27.2662 29.1109 28.0396 30.2008 28.0396C30.9391 28.0396 31.8921 27.8287 31.8883 26.4575C31.8766 22.18 31.8602 7.30346 31.8883 6.62843C31.9235 5.78464 31.2203 5.15179 30.2359 5.15179C29.146 5.15179 28.6187 5.85495 28.6187 6.80422Z" fill="#FC5F00"/>
<path d="M48.4124 21.1487C48.4124 21.9081 48.3772 22.2737 48.3772 26.4575C48.3772 27.2662 48.8694 28.0396 49.9593 28.0396C50.6976 28.0396 51.6506 27.8287 51.6469 26.4575C51.6352 22.18 51.6188 21.8589 51.6469 21.1838C51.014 21.6761 50.8734 21.8167 50.0999 21.8167C49.221 21.8167 48.9397 21.6409 48.4124 21.1487Z" fill="#FC5F00"/>
<path d="M48.3772 6.80422V11.5154C48.3772 12.324 48.4124 15.1015 48.4124 17C49.6077 15.4882 50.1351 14.6445 51.6469 12.535C51.6352 8.25742 51.6188 7.30346 51.6469 6.62843C51.682 5.78464 50.9789 5.15179 49.9945 5.15179C48.9046 5.15179 48.3772 5.85495 48.3772 6.80422Z" fill="#FC5F00"/>
<path d="M89.1606 6.80422V26.4575C89.1606 27.2662 89.6529 28.0396 90.7428 28.0396C91.4811 28.0396 92.4341 27.8287 92.4303 26.4575C92.4186 22.18 92.4022 7.30346 92.4303 6.62843C92.4655 5.78464 91.7623 5.15179 90.7779 5.15179C89.688 5.15179 89.1606 5.85495 89.1606 6.80422Z" fill="#FC5F00"/>
<path d="M104.63 6.80421V17.2813L107.759 23.9965C107.748 19.7189 107.872 7.30345 107.9 6.62842C107.935 5.78463 107.232 5.15178 106.247 5.15178C105.158 5.15178 104.63 5.85494 104.63 6.80421Z" fill="#FC5F00"/>
<path d="M95.8759 5.32757C95.2782 5.60883 94.8598 6.48779 95.2782 7.36673C98.1963 13.4959 104.208 26.0075 104.63 26.8794C105.158 27.9693 106.107 28.2651 106.951 27.7935C107.935 27.2434 107.865 26.1763 107.513 25.4379C107.106 24.5833 98.598 6.72867 98.1611 5.85494C97.7041 4.94083 96.5609 5.00515 95.8759 5.32757Z" fill="#FC5F00"/>
<path d="M95.1377 9.40588V26.4575C95.1377 27.2661 95.6299 28.0396 96.7198 28.0396C97.4581 28.0396 98.4111 27.8287 98.4074 26.4575L98.4058 25.8855C98.3943 21.7084 98.3805 16.696 98.4074 16.0507L95.1377 9.40588Z" fill="#FC5F00"/>
<path d="M57.483 5.81977C55.1978 8.98398 51.5764 14.2224 48.7287 18.2305C48.3291 18.7931 48.1311 19.9533 49.1154 20.5861C49.9751 21.1388 50.9572 20.7268 51.471 20.0588C51.8226 19.6017 59.8034 8.1402 60.2605 7.43704C60.7175 6.73388 60.6825 5.88305 59.8387 5.2924C58.9246 4.65252 57.9524 5.16977 57.483 5.81977Z" fill="#FC5F00"/>
<path d="M55.6551 15.7695L53.4753 18.8985C54.6942 21.4533 56.9771 26.2536 57.3427 26.9849C57.7998 27.899 58.8194 28.2857 59.6631 27.8287C60.6476 27.2954 60.5773 26.2466 60.2608 25.4028C60.0077 24.7277 57.1083 18.7579 55.6551 15.7695Z" fill="#FC5F00"/>
</svg>
