<svg width="60" height="25" viewBox="0 0 60 25" fill="none" xmlns="http://www.w3.org/2000/svg">
<g clip-path="url(#clip0_1109_65897)">
<path d="M0 24.9961C0 24.0508 0 23.2509 0 22.3055C19.7065 22.3055 39.3402 22.3055 59.0466 22.3055C59.0466 23.1782 59.0466 24.0508 59.0466 24.9961C39.4129 24.9961 19.7065 24.9961 0 24.9961Z" fill="white"/>
<path d="M38.9766 1.29018C40.94 1.29018 42.9033 1.14474 44.794 1.29018C46.7574 1.43561 47.9208 2.52638 48.139 4.48975C48.2844 5.50779 48.2117 6.59856 48.139 7.6166C47.9936 8.78008 47.4118 9.72541 46.2483 10.3799C48.0663 11.2525 48.5026 12.7795 48.5026 14.5975C48.5026 15.2519 48.5026 15.9064 48.5026 16.5609C48.4299 19.2514 46.9755 20.7785 44.285 20.9239C42.5398 20.9966 40.7218 20.9239 38.9039 20.9239C38.9766 14.4521 38.9766 7.90747 38.9766 1.29018ZM42.1035 18.1606C42.8306 18.1606 43.5578 18.1606 44.285 18.1606C44.8667 18.1606 45.303 17.7971 45.3757 17.2153C45.4485 15.9064 45.4485 14.5975 45.303 13.2159C45.303 12.8523 44.7213 12.416 44.3577 12.2705C43.7032 12.0524 42.9033 12.1251 42.1762 12.0524C42.1035 14.1612 42.1035 16.1246 42.1035 18.1606ZM42.1035 9.28911C42.6852 9.28911 43.1942 9.36182 43.6305 9.28911C44.285 9.21639 44.9394 8.92552 45.0122 8.19834C45.0849 7.1803 45.0849 6.23497 45.0122 5.21692C44.9394 4.56247 44.4304 4.19888 43.776 4.12616C43.1942 4.05344 42.6852 4.12616 42.0307 4.12616C42.1035 5.79866 42.1035 7.47117 42.1035 9.28911Z" fill="white"/>
<path d="M31.6321 20.9966C30.6141 20.9966 29.6688 20.9966 28.5053 20.9966C28.4326 20.3422 28.2871 19.6877 28.2871 18.9605C28.2144 17.9425 28.2871 16.8517 28.2871 15.761C28.2871 13.2886 27.7054 12.7795 25.1603 12.9977C25.1603 15.6155 25.1603 18.2334 25.1603 20.9239C24.0695 20.9239 23.1242 20.9239 22.0334 20.9239C22.0334 14.3793 22.0334 7.83476 22.0334 1.29018C24.0695 1.29018 26.1056 1.14474 28.069 1.3629C29.9596 1.50833 30.9777 2.59909 31.1958 4.48975C31.3413 5.79866 31.3413 7.1803 31.1958 8.48921C31.1231 9.72541 30.4686 10.6707 29.3052 11.3252C30.7595 12.1251 31.2685 13.5067 31.2685 14.9611C31.2685 16.1973 31.2685 17.5062 31.3413 18.7424C31.414 19.5423 31.5594 20.1967 31.6321 20.9966ZM25.1603 10.089C25.6693 10.089 26.1783 10.089 26.6146 10.089C27.6327 10.0163 28.1417 9.57998 28.2144 8.56193C28.2871 7.54388 28.2871 6.52584 28.2144 5.58051C28.1417 4.85334 27.8508 4.2716 27.0509 4.12616C26.4692 4.05344 25.8147 4.12616 25.1603 4.12616C25.1603 6.08953 25.1603 8.05291 25.1603 10.089Z" fill="white"/>
<path d="M11.2712 20.9966C11.2712 14.4521 11.2712 7.90747 11.2712 1.29018C11.853 1.29018 12.362 1.29018 12.871 1.29018C14.0345 1.29018 15.198 1.29018 16.3614 1.29018C18.6157 1.3629 20.1428 2.52638 20.3609 4.78062C20.5791 6.52584 20.5791 8.34378 20.3609 10.089C20.07 12.3432 18.6157 13.5067 16.216 13.6522C15.6343 13.6522 15.0525 13.6522 14.3981 13.6522C14.3981 16.1246 14.3981 18.5969 14.3981 20.9966C13.3073 20.9966 12.362 20.9966 11.2712 20.9966ZM14.3981 4.12616C14.3981 6.30769 14.3981 8.48921 14.3981 10.7435C14.8344 10.7435 15.2707 10.7435 15.6343 10.7435C16.7977 10.7435 17.3068 10.3072 17.3068 9.07095C17.3068 8.27106 17.3068 7.39845 17.3068 6.59856C17.3068 4.19888 17.0159 3.90801 14.5435 3.98073C14.6162 4.05344 14.5435 4.05344 14.3981 4.12616Z" fill="white"/>
<path d="M3.19957 15.0338C3.27229 15.761 3.27229 16.4881 3.34501 17.1426C3.49044 18.0152 3.99946 18.4515 4.79936 18.4515C5.59925 18.4515 6.03555 18.0152 6.18099 17.2153C6.39914 16.1246 6.18099 15.1065 5.45381 14.3066C4.36305 13.0704 3.27229 11.9069 2.10881 10.7435C0.436305 8.99824 -0.29087 6.96214 0.218153 4.48975C0.654458 2.38094 2.32696 1.07202 4.72664 0.999307C7.0536 0.92659 8.65339 2.09007 9.16241 4.2716C9.30784 4.99877 9.38056 5.72595 9.45328 6.52584C8.36252 6.52584 7.48991 6.52584 6.47186 6.52584C6.39914 6.01682 6.39914 5.50779 6.32643 5.07149C6.18099 4.2716 5.74468 3.83529 4.87207 3.83529C3.99946 3.83529 3.49044 4.19888 3.34501 4.99877C3.05414 6.23497 3.41772 7.39845 4.21762 8.27106C5.01751 9.14367 5.89012 9.94356 6.76273 10.7435C8.7261 12.5614 9.74415 14.7429 9.30784 17.5062C8.87154 19.9059 7.27175 21.1421 4.72664 21.1421C2.18153 21.0693 0.436305 19.615 0.145435 17.288C0.0727175 16.5609 0.145435 15.8337 0.145435 14.9611C0.654458 14.9611 1.16348 14.9611 1.6725 14.9611C2.18153 15.0338 2.61783 15.0338 3.19957 15.0338Z" fill="white"/>
<path d="M53.6655 18.1606C55.4108 18.1606 57.156 18.1606 58.9739 18.1606C58.9739 19.106 58.9739 20.0513 58.9739 20.9966C56.1379 20.9966 53.3747 20.9966 50.466 20.9966C50.466 14.4521 50.466 7.90747 50.466 1.29018C53.3019 1.29018 56.0652 1.29018 58.9739 1.29018C58.9739 2.16279 58.9739 3.0354 58.9739 3.98073C57.2287 3.98073 55.4835 3.98073 53.6655 3.98073C53.6655 5.87138 53.6655 7.6166 53.6655 9.50726C55.0472 9.50726 56.4288 9.50726 57.8832 9.50726C57.8832 10.5253 57.8832 11.3979 57.8832 12.3432C56.5015 12.3432 55.1199 12.3432 53.7383 12.3432C53.6655 14.3066 53.6655 16.1973 53.6655 18.1606Z" fill="white"/>
<path d="M33.5228 20.9966C33.5228 14.4521 33.5228 7.90747 33.5228 1.29018C34.5408 1.29018 35.4862 1.29018 36.5769 1.29018C36.5769 7.83476 36.5769 14.3793 36.5769 20.9966C35.5589 20.9966 34.6135 20.9966 33.5228 20.9966Z" fill="white"/>
</g>
<defs>
<clipPath id="clip0_1109_65897">
<rect width="60" height="25" fill="white"/>
</clipPath>
</defs>
</svg>
