<svg width="120" height="150" viewBox="0 0 438 596" fill="none" xmlns="http://www.w3.org/2000/svg">
<path d="M431.971 314.404C430.069 310.39 403.321 245.361 401.431 240.635C399.529 235.91 399.059 235.43 395.267 234.491C391.491 233.542 388.876 237.087 388.876 237.087C388.876 237.087 324.235 287.44 321.182 289.824C316.439 298.337 324.493 300.463 324.493 300.463C324.493 300.463 330.233 301.924 338.883 304.15C312.82 339.6 270.804 362.597 223.405 362.597C144.33 362.597 80.2279 298.575 80.2279 219.6C80.2279 140.625 144.33 76.6026 223.405 76.6026C273.19 76.6026 315.8 100.153 341.455 138.667L402.504 92.1942C362.648 36.3847 297.282 0 223.409 0C101.979 0 3.53223 98.3115 3.53223 219.6C3.53223 340.877 101.979 439.2 223.409 439.2C306.472 439.2 378.771 393.21 416.156 325.328C416.383 325.412 416.61 325.497 416.811 325.57C427.236 328.635 429.138 328.35 431.979 325.286C434.812 322.21 433.861 318.422 431.971 314.404Z" fill="white"/>
<path d="M218.645 125.119C166.404 125.119 124.049 167.421 124.049 219.596C124.049 271.772 166.404 314.078 218.645 314.078C270.887 314.078 313.243 271.776 313.243 219.6C313.243 167.424 270.887 125.119 218.645 125.119ZM269.324 226.137C265.162 229.074 210.931 270.211 207.466 272.995C203.986 275.759 200.521 277.563 196.871 275.521C193.222 273.48 192.51 271.707 193.052 260.868C192.894 245.604 193.164 165.352 193.164 165.352C193.164 165.352 193.364 157.039 202.75 159.65C205.776 162.076 269.863 213.133 269.863 213.133C269.863 213.133 273.924 214.836 273.882 218.735C273.844 222.634 273.501 223.199 269.324 226.137Z" fill="white"/>
<path d="M218.645 125.119C166.404 125.119 124.049 167.421 124.049 219.596C124.049 271.772 166.404 314.078 218.645 314.078C270.887 314.078 313.243 271.776 313.243 219.6C313.243 167.424 270.887 125.119 218.645 125.119ZM269.324 226.137C265.162 229.074 210.931 270.211 207.466 272.995C203.986 275.759 200.521 277.563 196.871 275.521C193.222 273.48 192.51 271.707 193.052 260.868C192.894 245.604 193.164 165.352 193.164 165.352C193.164 165.352 193.364 157.039 202.75 159.65C205.776 162.076 269.863 213.133 269.863 213.133C269.863 213.133 273.924 214.836 273.882 218.735C273.844 222.634 273.501 223.199 269.324 226.137Z" stroke="white" stroke-width="3.6895" stroke-miterlimit="10"/>
<path d="M44.9226 556.19C45.7503 556.19 46.1661 556.606 46.1661 557.432V562.965C46.1661 563.83 45.7503 564.265 44.9226 564.265H16.5998C15.1291 564.265 13.9126 564.387 12.954 564.63C11.9916 564.876 11.2293 565.287 10.6634 565.872C10.0974 566.456 9.69322 567.237 9.44688 568.213C9.20048 569.194 9.08113 570.436 9.08113 571.939V580.071C9.08113 581.578 9.2043 582.828 9.44688 583.824C9.69322 584.823 10.0974 585.611 10.6634 586.196C11.2293 586.78 11.9916 587.195 12.954 587.438C13.9165 587.684 15.1291 587.803 16.5998 587.803H35.2558C36.2337 587.803 36.9536 587.549 37.404 587.042C37.8544 586.534 38.0816 585.638 38.0816 584.362V579.786C38.0816 579.298 37.8544 579.052 37.404 579.052H20.8384C20.0107 579.052 19.5949 578.618 19.5949 577.753V573.519C19.5949 572.654 20.0107 572.22 20.8384 572.22H44.4145C45.5463 572.22 46.1122 572.785 46.1122 573.915V587.073C46.1122 590.233 45.5078 592.463 44.3028 593.762C43.0978 595.062 41.3616 595.712 39.1018 595.712H16.261C13.3967 595.712 10.9637 595.451 8.96947 594.92C6.97144 594.393 5.34299 593.536 4.08026 592.352C2.81753 591.168 1.89358 589.622 1.30842 587.723C0.723249 585.823 0.430664 583.516 0.430664 580.805V571.093C0.430664 568.382 0.723249 566.087 1.30842 564.203C1.89358 562.323 2.81368 560.789 4.08026 559.601C5.34299 558.417 6.97144 557.547 8.96947 557.001C10.9675 556.455 13.3967 556.183 16.261 556.183H44.9226V556.19Z" fill="#7F7F7F"/>
<path d="M121.155 556.19C122.588 556.19 123.792 556.483 124.774 557.067C125.752 557.652 126.714 558.79 127.657 560.481L146.371 594.417C146.56 594.794 146.606 595.105 146.513 595.347C146.417 595.593 146.148 595.712 145.694 595.712H138.514C137.871 595.712 137.439 595.467 137.213 594.978L133.197 587.696H106.626L102.726 594.978C102.46 595.467 102.029 595.712 101.425 595.712H94.076C93.5869 595.712 93.294 595.59 93.198 595.347C93.102 595.101 93.1521 594.794 93.3406 594.417L111.885 560.481C112.828 558.786 113.752 557.652 114.657 557.067C115.561 556.483 116.616 556.19 117.821 556.19H121.155ZM110.187 581.148H129.636L120.647 564.603C120.497 564.342 120.289 564.208 120.023 564.208H119.685C119.419 564.208 119.211 564.342 119.061 564.603L110.187 581.148Z" fill="#7F7F7F"/>
<path d="M205.193 556.19C206.021 556.19 206.737 556.248 207.341 556.36C207.946 556.471 208.473 556.69 208.924 557.01C209.374 557.329 209.782 557.763 210.14 558.309C210.498 558.855 210.864 559.578 211.242 560.481L223.003 587.584C223.152 587.923 223.418 588.092 223.795 588.092H224.473C224.85 588.092 225.112 587.923 225.266 587.584L237.027 560.481C237.404 559.578 237.77 558.855 238.128 558.309C238.486 557.763 238.891 557.332 239.344 557.01C239.795 556.69 240.315 556.475 240.9 556.36C241.485 556.248 242.19 556.19 243.021 556.19H249.069C251.029 556.19 252.349 556.632 253.027 557.517C253.704 558.401 254.043 559.917 254.043 562.062V594.471C254.043 595.298 253.608 595.712 252.742 595.712H246.975C246.147 595.712 245.731 595.298 245.731 594.471V564.996C245.731 564.619 245.581 564.43 245.281 564.43H244.773C244.395 564.43 244.149 564.58 244.037 564.88L232.619 590.176C232.168 591.191 231.707 592.049 231.233 592.745C230.76 593.44 230.251 594.013 229.709 594.467C229.162 594.917 228.538 595.24 227.842 595.428C227.145 595.616 226.325 595.709 225.381 595.709H222.667C221.724 595.709 220.904 595.616 220.208 595.428C219.51 595.24 218.887 594.921 218.34 594.467C217.794 594.013 217.285 593.44 216.812 592.745C216.338 592.049 215.88 591.191 215.426 590.176L204.008 564.88C203.896 564.58 203.65 564.43 203.272 564.43H202.764C202.464 564.43 202.314 564.619 202.314 564.996V594.471C202.314 595.298 201.898 595.712 201.07 595.712H195.303C194.437 595.712 194.002 595.298 194.002 594.471V562.062C194.002 559.917 194.341 558.401 195.018 557.517C195.696 556.632 197.036 556.19 199.034 556.19H205.193Z" fill="#7F7F7F"/>
<path d="M344.229 556.19C345.095 556.19 345.531 556.606 345.531 557.432V562.796C345.531 563.622 345.095 564.038 344.229 564.038H319.525C318.055 564.038 316.838 564.16 315.879 564.403C314.917 564.649 314.147 565.06 313.561 565.645C312.976 566.229 312.573 567.021 312.345 568.017C312.118 569.017 312.007 570.247 312.007 571.716V572.281H343.948C344.776 572.281 345.192 572.696 345.192 573.523V577.983C345.192 578.81 344.776 579.225 343.948 579.225H312.007V580.186C312.007 581.655 312.118 582.89 312.345 583.885C312.573 584.881 312.976 585.673 313.561 586.258C314.147 586.842 314.921 587.257 315.879 587.499C316.842 587.745 318.055 587.865 319.525 587.865H344.229C345.095 587.865 345.531 588.28 345.531 589.106V594.47C345.531 595.297 345.095 595.712 344.229 595.712H319.356C316.491 595.712 314.058 595.451 312.064 594.92C310.066 594.393 308.438 593.536 307.175 592.352C305.912 591.168 304.989 589.622 304.403 587.723C303.818 585.823 303.525 583.516 303.525 580.805V571.093C303.525 568.382 303.818 566.087 304.403 564.203C304.989 562.323 305.912 560.789 307.175 559.601C308.438 558.417 310.066 557.547 312.064 557.001C314.063 556.455 316.491 556.183 319.356 556.183H344.229V556.19Z" fill="#7F7F7F"/>
<path d="M434.144 556.19C434.971 556.19 435.387 556.606 435.387 557.433V562.796C435.387 563.623 434.971 564.038 434.144 564.038H405.821C404.727 564.038 403.954 564.323 403.503 564.884C403.049 565.449 402.825 566.222 402.825 567.199V569.117C402.825 571.224 403.803 572.278 405.767 572.278H426.968C430.248 572.278 432.715 573.116 434.375 574.792C436.034 576.469 436.861 578.868 436.861 581.99V586.508C436.861 589.257 436.049 591.476 434.432 593.171C432.811 594.867 430.286 595.712 426.856 595.712H395.534C394.668 595.712 394.233 595.298 394.233 594.471V589.107C394.233 588.28 394.668 587.865 395.534 587.865H425.216C426.309 587.865 427.083 587.584 427.534 587.019C427.984 586.454 428.211 585.685 428.211 584.705V582.39C428.211 580.283 427.23 579.23 425.27 579.23H404.069C400.789 579.23 398.321 578.391 396.662 576.719C395.003 575.042 394.175 572.643 394.175 569.521V565.399C394.175 562.65 394.984 560.431 396.608 558.736C398.229 557.044 400.754 556.195 404.185 556.195L434.144 556.19Z" fill="#7F7F7F"/>
<path d="M47.1252 490.656C48.1031 490.656 48.592 491.083 48.592 491.937V497.47C48.592 498.323 48.1031 498.75 47.1252 498.75H13.7283C12.4386 498.75 11.5301 499.042 10.995 499.623C10.4637 500.204 10.1942 501 10.1942 502.011V503.991C10.1942 506.167 11.3491 507.251 13.6591 507.251H38.6557C42.5209 507.251 45.4313 508.117 47.387 509.843C49.3427 511.569 50.3205 514.045 50.3205 517.267V521.928C50.3205 524.761 49.3658 527.052 47.4524 528.799C45.543 530.544 42.5632 531.421 38.5209 531.421H1.59381C0.569768 531.421 0.0615979 530.994 0.0615979 530.14V524.607C0.0615979 523.754 0.573618 523.327 1.59381 523.327H36.5922C37.8819 523.327 38.7904 523.035 39.3256 522.454C39.8568 521.873 40.1263 521.077 40.1263 520.067V517.679C40.1263 515.506 38.9714 514.418 36.6615 514.418H11.6648C7.79965 514.418 4.88538 513.553 2.93354 511.827C0.977847 510.1 0 507.625 0 504.402V500.15C0 497.316 0.954746 495.025 2.86809 493.279C4.77758 491.533 7.7573 490.656 11.7996 490.656H47.1252Z" fill="white"/>
<path d="M98.7485 490.656C103.823 490.656 107.464 491.668 109.674 493.686C111.88 495.705 112.985 498.692 112.985 502.653V506.963C112.985 510.923 111.88 513.91 109.674 515.929C107.464 517.948 103.826 518.959 98.7485 518.959H71.3339V530.14C71.3339 530.994 70.849 531.421 69.8791 531.421H62.7257C61.7094 531.421 61.2012 530.994 61.2012 530.14V492.406C61.2012 491.241 61.8638 490.66 63.188 490.66L98.7485 490.656ZM71.3339 511.269H96.6925C98.9447 511.269 100.535 510.843 101.459 509.989C102.386 509.135 102.849 507.836 102.849 506.086V503.872C102.849 502.126 102.386 500.826 101.459 499.969C100.531 499.115 98.9412 498.689 96.6925 498.689H72.1928C71.619 498.689 71.3303 498.923 71.3303 499.388L71.3339 511.269Z" fill="white"/>
<path d="M133.589 490.656C134.548 490.656 135.026 491.083 135.026 491.937V530.136C135.026 530.99 134.544 531.417 133.589 531.417H126.533C125.532 531.417 125.031 530.99 125.031 530.136V491.937C125.031 491.083 125.532 490.656 126.533 490.656H133.589Z" fill="white"/>
<path d="M186.138 491.971C189.383 491.971 192.117 492.252 194.346 492.805C196.57 493.363 198.353 494.232 199.685 495.416C201.017 496.601 201.972 498.127 202.553 499.988C203.135 501.849 203.423 504.086 203.423 506.697V530.201C203.423 531.266 202.888 531.797 201.826 531.797H194.707C193.641 531.797 193.11 531.266 193.11 530.201V509.162C193.11 507.662 193.014 506.393 192.821 505.352C192.628 504.313 192.251 503.491 191.697 502.887C191.138 502.283 190.376 501.849 189.41 501.58C188.44 501.314 187.181 501.18 185.634 501.18H166.311C164.76 501.18 160.19 501.003 158.512 501.122C158.631 502.917 158.392 507.662 158.392 509.162V530.201C158.392 531.266 157.857 531.797 156.795 531.797H149.677C148.56 531.797 148.006 531.266 148.006 530.201V506.697C148.006 504.086 148.086 495.143 148.006 491.79C149.873 491.41 161.999 491.967 165.295 491.967L186.138 491.971Z" fill="white"/>
<path d="M253.941 491.192C259.084 491.192 262.776 492.203 265.013 494.222C267.25 496.24 268.37 499.228 268.37 503.188V507.498C268.37 511.459 267.25 514.446 265.013 516.464C262.776 518.483 259.084 519.495 253.941 519.495H226.157V530.672C226.157 531.525 225.664 531.952 224.683 531.952H217.433C216.406 531.952 215.89 531.525 215.89 530.672V492.937C215.89 491.773 216.559 491.192 217.903 491.192H253.941ZM226.161 511.805H251.862C254.145 511.805 255.754 511.378 256.694 510.524C257.633 509.671 258.103 508.371 258.103 506.621V504.407C258.103 502.661 257.633 501.362 256.694 500.504C255.754 499.651 254.145 499.224 251.862 499.224H227.031C226.45 499.224 226.157 499.459 226.157 499.924L226.161 511.805Z" fill="white"/>
<path d="M287.721 491.192C288.645 491.192 289.107 491.618 289.107 492.472V515.707C289.107 517.26 289.242 518.552 289.515 519.579C289.789 520.609 290.239 521.425 290.87 522.024C291.502 522.628 292.352 523.055 293.423 523.305C294.493 523.559 295.852 523.681 297.492 523.681H323.028C323.952 523.681 324.414 524.109 324.414 524.962V530.672C324.414 531.525 323.952 531.952 323.028 531.952H297.111C293.916 531.952 291.205 531.679 288.976 531.137C286.747 530.595 284.93 529.711 283.521 528.488C282.112 527.265 281.084 525.673 280.43 523.712C279.779 521.751 279.452 519.375 279.452 516.58V492.472C279.452 491.618 279.933 491.192 280.903 491.192H287.721Z" fill="white"/>
<path d="M362.404 491.192C364.002 491.192 365.346 491.492 366.439 492.096C367.533 492.699 368.603 493.872 369.654 495.617L390.523 530.614C390.732 531.002 390.785 531.321 390.681 531.575C390.577 531.829 390.273 531.952 389.765 531.952H381.757C381.041 531.952 380.56 531.699 380.306 531.195L375.829 523.681H346.193L341.843 531.195C341.547 531.699 341.065 531.952 340.391 531.952H332.195C331.648 531.952 331.321 531.825 331.218 531.575C331.113 531.321 331.163 531.002 331.375 530.614L352.056 495.617C353.107 493.872 354.139 492.695 355.148 492.096C356.156 491.496 357.334 491.192 358.678 491.192H362.404ZM350.174 516.93H371.864L361.839 499.87C361.669 499.601 361.438 499.462 361.146 499.462H360.768C360.472 499.462 360.241 499.601 360.075 499.87L350.174 516.93Z" fill="white"/>
<path d="M391.446 491.192C392.116 491.192 392.62 491.427 392.959 491.892L409.794 512.912L426.756 491.892C427.091 491.427 427.596 491.192 428.27 491.192H436.531C436.866 491.192 437.097 491.319 437.224 491.568C437.351 491.822 437.308 492.084 437.097 492.353L414.46 519.487V530.672C414.46 531.525 413.998 531.952 413.074 531.952H406.264C405.297 531.952 404.813 531.525 404.813 530.672V519.491L382.426 492.357C382.214 492.084 382.164 491.822 382.268 491.573C382.372 491.319 382.615 491.195 382.992 491.195L391.446 491.192Z" fill="white"/>
</svg>
