<svg width="126" height="36" viewBox="0 0 126 36" fill="none" xmlns="http://www.w3.org/2000/svg">
<path d="M23.8628 19.4889H29.2341L26.5225 15.5482L23.8628 19.4889Z" fill="white"/>
<path d="M73.5272 10.2222L73.3787 10H0V25.9926H65.8974L67.7176 23.2815H78.1185L79.8495 25.8L79.9833 25.9926H84.3739L83.891 25.2963L73.5272 10.2222ZM17.0947 17.4074V21.9407L16.9758 22.0444C15.5197 23.2889 13.3726 23.9185 10.5792 23.9185C5.72795 23.9111 2.82311 21.7111 2.82311 18.0222C2.82311 16.1407 3.61061 14.5926 5.10389 13.5481C6.47087 12.5852 8.36533 12.0815 10.5867 12.0815C13.2761 12.0815 15.1854 12.6148 16.6118 13.763L16.8792 13.9778L16.6638 14.2444L15.7129 15.4296L15.49 15.7037L15.2225 15.4741C14.279 14.6889 13.12 14.163 10.5495 14.163C7.11722 14.163 5.37877 15.4519 5.37877 17.9926C5.37877 20.5333 7.07264 21.837 10.5495 21.837C12.3846 21.837 13.7664 21.5259 14.7693 20.8963V19.2074H9.41285V17.0593H17.0947V17.4074ZM34.2414 23.7037H32.1389L32.0349 23.5556L30.7051 21.6222H22.4289L21.1362 23.5556L21.0322 23.7111H18.3725L18.7291 23.1778L26.1955 12.0963L26.2995 11.9407H26.8047L26.9087 12.0889L34.5237 23.1704L34.8952 23.7037H34.2414ZM52.3688 12.437V23.7037H49.9022V16.9111L45.1252 21.4741L45.0287 21.5704H44.62L44.5235 21.4815L39.479 16.8889V23.7037H37.0051V12.0963H37.6366L37.7331 12.1852L44.8206 18.6519L51.6333 12.1926L51.7298 12.0963H52.3688V12.437ZM69.3297 12.8L68.3268 14.3333L68.2228 14.4889H58.7505V16.7704H66.7295L66.3803 17.3037L65.4219 18.7704L65.3179 18.9259H58.7505V21.4963H63.6315L63.2823 22.0296L62.2794 23.563L62.1754 23.7185H56.2765V12.2667H69.6789L69.3297 12.8ZM70.0281 19.837L72.8586 15.6444L75.7486 19.837H70.0281Z" fill="white"/>
<path d="M125.487 10H107.338H106.877V10.4593V13.1778V13.637H107.338H114.41V25.5333V25.9926H114.871H117.947H118.407V25.5333V13.637H125.487H125.948V13.1778V10.4593V10H125.487Z" fill="white"/>
<path d="M100.614 19.8815C104.217 18.9481 104.782 16.5185 104.782 15.0889C104.782 13.3704 104.106 12.0667 102.769 11.2148C101.431 10.363 99.6038 10 97.0407 10H86.1494V25.9926H90.1389V20.2741H95.9412L101.008 25.8444L101.142 25.9926H106.164L105.465 25.2222L100.614 19.8815ZM96.7807 16.8222H90.1389V13.563H96.7807C100.718 13.563 100.718 14.4222 100.718 15.1778C100.718 15.9333 100.718 16.8222 96.7881 16.8222H96.7807Z" fill="white"/>
</svg>
