<svg width="155" height="36" viewBox="0 0 155 36" fill="none" xmlns="http://www.w3.org/2000/svg">
<g clip-path="url(#clip0_481_13410)">
<path d="M38.5994 15.9658H42.1597V21.9822H44.4286V15.9658H47.9486V13.962H38.5994V15.9658Z" fill="#27BDBE"/>
<path d="M67.614 15.9658H71.1744V21.9822H73.4381V15.9658H76.9631V13.962H67.614V15.9658Z" fill="#27BDBE"/>
<path d="M120.24 15.9658H123.8V21.9822H126.064V15.9658H129.589V13.962H120.24V15.9658Z" fill="#27BDBE"/>
<path d="M31.2455 13.962C30.6529 13.962 30.1465 14.038 29.7262 14.1902C29.3109 14.3424 28.9715 14.5555 28.7133 14.8294C28.4549 15.1034 28.2676 15.4382 28.1511 15.8339C28.0346 16.2245 27.9739 16.6658 27.9739 17.1528V18.8066C27.9739 19.2936 28.0295 19.7299 28.1511 20.1256C28.2676 20.5213 28.4549 20.851 28.7133 21.13C28.9715 21.4039 29.3059 21.622 29.7262 21.7692C30.1465 21.9214 30.6529 21.9975 31.2455 21.9975H37.5256V19.9125H31.4481C31.0024 19.9125 30.6885 19.8161 30.5112 19.6183C30.3339 19.4255 30.2478 19.0856 30.2478 18.6088V17.2644C30.2478 16.7724 30.3389 16.4325 30.5162 16.2498C30.6935 16.0672 31.0074 15.9708 31.4481 15.9708H37.5256V13.967H31.2455V13.962Z" fill="#27BDBE"/>
<path d="M113.109 13.962C112.516 13.962 112.01 14.038 111.589 14.1902C111.174 14.3424 110.835 14.5555 110.577 14.8294C110.318 15.1034 110.131 15.4382 110.014 15.8339C109.898 16.2245 109.837 16.6658 109.837 17.1528V18.8066C109.837 19.2936 109.893 19.7299 110.014 20.1256C110.131 20.5213 110.318 20.851 110.577 21.13C110.835 21.4039 111.169 21.622 111.589 21.7692C112.01 21.9214 112.516 21.9975 113.109 21.9975H119.389V19.9125H113.311C112.866 19.9125 112.552 19.8161 112.374 19.6183C112.197 19.4255 112.111 19.0856 112.111 18.6088V17.2644C112.111 16.7724 112.202 16.4325 112.379 16.2498C112.557 16.0672 112.871 15.9708 113.311 15.9708H119.389V13.967H113.109V13.962Z" fill="#27BDBE"/>
<path d="M18.1539 24.4528L13.064 29.551C12.4663 30.1496 11.4889 30.1496 10.8913 29.551L0.448211 19.0856C-0.149404 18.487 -0.149404 17.5079 0.448211 16.9093L3.32992 14.0279H5.90778C8.81482 14.0279 10.1468 13.3329 10.6127 11.5472H6.29268H5.79635L10.8913 6.44895C11.4889 5.85035 12.4663 5.85035 13.064 6.44895L18.1539 11.5472H15.4949C11.6965 11.5472 10.5874 12.7191 10.5874 15.9708V20.019C10.5874 23.2707 11.7016 24.4476 15.4949 24.4476H18.1539V24.4528Z" fill="#27BDBE"/>
<path d="M23.507 16.9144L20.6252 14.033H15.6265C13.8691 14.033 13.4336 14.5453 13.4336 16.1332V19.9176C13.4336 21.5257 13.8691 21.9975 15.6417 21.9975H20.605L23.5018 19.0958C24.1046 18.487 24.1046 17.513 23.507 16.9144ZM18.2499 19.5726H17.5864V17.4065H18.2499V19.5726ZM18.2499 16.8282H17.5864V16.1788H18.2499V16.8282Z" fill="#27BDBE"/>
<path d="M52.218 21.9822V13.9873H54.4767V21.9873H52.218V21.9822Z" fill="#27BDBE"/>
<path d="M80.397 19.8871H87.2745V21.962H78.1179L78.1381 13.967L87.2391 13.962L87.2493 15.9302L80.402 15.9658V17.1173H84.1194V18.7457L80.397 18.7406V19.8871Z" fill="#27BDBE"/>
<path d="M148.216 19.8871H155.089V21.962H145.932L145.952 13.967L155.054 13.962L155.063 15.9302L148.216 15.9658V17.1173H151.934V18.7457L148.211 18.7406L148.216 19.8871Z" fill="#27BDBE"/>
<path d="M90.8399 19.0907V21.9873H88.5811L88.5962 13.9873H95.1296C95.6258 13.9873 96.0463 14.0482 96.3906 14.1649C96.735 14.2815 97.0136 14.454 97.2262 14.6772C97.439 14.9004 97.5909 15.1693 97.6871 15.4838C97.7834 15.7983 97.829 16.1535 97.829 16.5491V17.1173C97.829 17.5079 97.7834 17.8529 97.6871 18.1623C97.5909 18.4718 97.439 18.7305 97.2314 18.9486C97.0237 19.1668 96.7553 19.3291 96.426 19.4509C96.0968 19.5675 95.6967 19.6284 95.2207 19.6284H94.9928C94.8814 19.6284 94.7041 19.6284 94.7041 19.6284V19.6944C94.8004 19.7806 97.9809 21.9011 97.9809 21.9011V21.9873H95.0384L90.8399 19.0907ZM90.8348 15.9861L90.8399 17.9188H94.7244C95.0232 17.9188 95.2359 17.858 95.3676 17.7413C95.4943 17.6246 95.56 17.4014 95.56 17.0717V16.7977C95.56 16.4883 95.4943 16.2803 95.3676 16.1585C95.2409 16.0419 95.0232 15.981 94.7244 15.981H90.8348V15.9861Z" fill="#27BDBE"/>
<path d="M130.439 21.9822V13.9873H132.698V21.9873H130.439V21.9822Z" fill="#27BDBE"/>
<path d="M142.544 13.9873H145.167V14.0736L141.035 21.9416L137.651 21.9518L133.549 14.0786V13.9924H136.213L139.151 20.0038H139.576L142.544 13.9873Z" fill="#27BDBE"/>
<path d="M109.665 21.9518H102.053L103.253 19.8871H106.216L104.241 16.4984H103.952L100.777 21.9518H98.5278L103.147 13.9417H105.041L109.665 21.9518Z" fill="#27BDBE"/>
<path d="M64.2411 19.9023H63.9879L59.7033 13.9467H56.4519V21.9468H58.6854V16.0266H58.9285L63.1471 21.9468H66.4797V13.9467H64.2411V19.9023Z" fill="#27BDBE"/>
</g>
<defs>
<clipPath id="clip0_481_13410">
<rect width="155" height="36" fill="white"/>
</clipPath>
</defs>
</svg>
