<svg xmlns="http://www.w3.org/2000/svg" width="48" height="28" viewBox="0 0 48 28" fill="none"><path d="M5.70562 27.6103V2.29366L0.536604 4.08216L0 2.48849L6.12633 0.194824H7.65733V27.6115H5.70562V27.6103Z" fill="#B3B2B2"/><path d="M30.8438 25.8417C28.9407 27.2802 26.5741 28 23.7404 28C20.9067 28 18.539 27.2802 16.6371 25.8417C14.7352 24.4032 13.7837 22.568 13.7837 20.3385V20.2615C13.7837 18.732 14.3319 17.3775 15.4306 16.198C16.5281 15.0185 17.9572 14.1307 19.7188 13.5333C18.2631 12.9885 17.0636 12.1718 16.119 11.0833C15.1745 9.99367 14.7016 8.6975 14.7016 7.19367V7.1155C14.7016 5.09367 15.6137 3.402 17.4391 2.0405C19.2656 0.680167 21.3668 0 23.7404 0C26.114 0 28.2141 0.680167 30.0394 2.04167C31.8637 3.40317 32.7769 5.09367 32.7769 7.11667V7.19483C32.7769 8.69867 32.3041 9.99483 31.3607 11.0845C30.4161 12.173 29.2154 12.9897 27.7609 13.5345C29.5225 14.1318 30.9515 15.0197 32.0491 16.1992C33.1466 17.3787 33.696 18.7332 33.696 20.2627V20.3397C33.696 22.568 32.7445 24.4032 30.8438 25.8417ZM17.9966 24.5C19.4267 25.6142 21.3414 26.1718 23.7404 26.1718C26.1395 26.1718 28.0541 25.6142 29.4843 24.5C30.9145 23.3858 31.6284 22.0243 31.6284 20.4167V20.3385C31.6284 18.655 30.8693 17.2608 29.3498 16.1583C27.8304 15.057 25.961 14.5052 23.7404 14.5052C21.5198 14.5052 19.6493 15.057 18.131 16.1583C16.6116 17.2608 15.8525 18.6538 15.8525 20.3385V20.4167C15.8525 22.0243 16.5664 23.3858 17.9966 24.5ZM18.8009 11.2187C20.1534 12.2687 21.8003 12.7937 23.7404 12.7937C25.6805 12.7937 27.3263 12.2687 28.68 11.2187C30.0325 10.1698 30.7093 8.827 30.7093 7.19483V7.1155C30.7093 5.58717 30.0394 4.3225 28.6997 3.32383C27.3599 2.3275 25.706 1.827 23.7404 1.827C21.7748 1.827 20.1221 2.32633 18.7812 3.32383C17.4414 4.32367 16.7704 5.58717 16.7704 7.1155V7.19367C16.7715 8.827 17.4472 10.1698 18.8009 11.2187Z" fill="#B3B2B2"/><path d="M40.6497 20.8065V14.797H34.6787V13.4541H40.6497V7.4458H42.0266V13.4541H47.9999V14.797H42.0266V20.8065H40.6497Z" fill="#B3B2B2"/></svg>