<svg width="71" height="36" viewBox="0 0 71 36" fill="none" xmlns="http://www.w3.org/2000/svg">
<path d="M11.1529 23.9294C14.2717 23.9294 16.8 21.4011 16.8 18.2824C16.8 15.1636 14.2717 12.6353 11.1529 12.6353C8.03413 12.6353 5.50586 15.1636 5.50586 18.2824C5.50586 21.4011 8.03413 23.9294 11.1529 23.9294Z" fill="url(#paint0_linear_481_13254)"/>
<path d="M21.8823 15.9529C20.1882 15.8824 18.4941 15.7412 16.7294 15.6706C17.8588 14.1882 18.9176 12.8471 19.9764 11.4353C18.2823 12.1412 16.6588 12.8471 14.9647 13.6235C15.3882 12.0706 15.7411 10.5882 16.0941 9.10588C15.1764 9.95294 14.2588 10.8 13.2706 11.6471C13.2 10.1647 13.0588 8.75294 12.9882 7.34118C12.9176 7.34118 12.9176 7.34118 12.9176 7.34118C12.0706 8.89412 11.1529 10.4471 10.3059 12C9.3882 10.6588 8.47056 9.31765 7.6235 8.04706C7.55291 8.04706 7.55291 8.04706 7.55291 8.04706C7.69409 9.67059 7.83526 11.2941 7.97644 12.9176C6.56467 11.8588 5.08232 10.8 3.67056 9.74118C4.30585 11.2941 4.94114 12.7765 5.64703 14.2588C4.23526 13.9765 2.89409 13.6941 1.55291 13.4118C2.75291 14.5412 3.95291 15.7412 5.2235 16.9412C3.45879 17.2235 1.76467 17.5765 0.0705566 17.9294C0.0705566 18 0.0705566 18 0.0705566 18C1.55291 18.4941 3.03526 19.0588 4.51762 19.5529C3.17644 20.3294 1.97644 21.0353 0.705851 21.8118C0.705851 21.8824 0.705851 21.8824 0.705851 21.8824C2.32938 21.6706 4.0235 21.5294 5.7882 21.3176C4.72938 22.7294 3.67056 24.0699 2.61173 25.4118C4.16467 24.6353 5.7882 23.8588 7.41173 23.0824C7.12938 24.8471 6.84703 26.6118 6.56467 28.3765C6.63526 28.3765 6.63526 28.3765 6.63526 28.3765C7.55291 27.2464 8.54114 26.0471 9.52938 24.8471C9.95291 26.0471 10.3059 27.2464 10.7294 28.4471C10.8 28.4471 10.8 28.4471 10.8 28.4471C11.2235 27.2471 11.647 26.0478 12.0706 24.8471C13.0588 26.1176 14.1176 27.3882 15.1058 28.6581C14.9647 26.8235 14.8235 24.9882 14.6117 23.2235C16.0941 24.1412 17.5058 25.0588 18.9176 25.9758C18.2823 24.3522 17.5764 22.6581 16.9411 21.0346C18.4235 21.0346 19.9764 20.964 21.4588 20.964C21.4588 20.8927 21.4588 20.8927 21.4588 20.8927C20.047 20.2581 18.6353 19.6934 17.1529 19.0574C18.7058 18.0692 20.3294 17.0104 21.8823 16.0221C21.8823 15.9529 21.8823 15.9529 21.8823 15.9529ZM11.0823 23.8588C8.11761 23.7882 5.43526 21.3176 5.57644 17.9294C5.71762 15.1059 8.04703 12.6353 11.1529 12.6353C14.2588 12.6353 16.7294 15.1765 16.7294 18.2118C16.7294 21.2471 14.2588 23.7882 11.0823 23.8588Z" fill="#FFCC00"/>
<path d="M14.8234 19.6235C14.6823 19.4118 14.6117 19.1294 14.4705 18.9176C14.3999 18.8471 14.3999 18.8471 14.3293 18.7765C14.3293 18.8478 14.3293 18.8478 14.3293 18.9176C14.3999 19.0588 14.3999 19.2 14.4705 19.3419C13.2705 19.8353 9.17637 19.7647 7.55284 19.2706C7.62343 19.1294 7.83519 18.9176 7.7646 18.7059C7.48225 19.1294 7.1999 19.4824 6.77637 19.7647C7.05872 19.7647 7.1999 19.5529 7.34107 19.4824C7.69401 19.9765 8.04696 20.4706 8.47048 20.8941C9.31754 21.7412 10.2352 22.1654 11.4352 22.0242C12.2117 21.8831 12.847 21.6 13.4117 21.1066C13.9058 20.6824 14.3293 20.1882 14.6117 19.6235C14.7528 19.7647 14.8234 19.8353 14.9646 19.9765C14.9646 19.9765 15.0352 19.9765 15.1058 19.9765C15.0352 19.9059 15.0352 19.9059 15.0352 19.8353C14.9646 19.7647 14.894 19.6941 14.8234 19.6235ZM13.9058 20.3294C13.4117 20.8941 12.847 21.3882 12.1411 21.6706C11.0117 22.0941 10.0234 21.8824 9.03519 21.1765C8.54107 20.7529 7.90578 20.0471 7.69401 19.5529C9.95284 20.0471 12.1411 20.0471 14.3293 19.6941C14.1881 19.9059 14.047 20.1176 13.9058 20.3294Z" fill="#242422"/>
<path d="M13.553 17.5765C13.6236 17.5059 13.7648 17.5059 13.7648 17.4353C13.7648 17.2235 13.7648 17.0118 13.8354 16.8706C13.6236 16.8706 13.4119 17.2235 13.553 17.5765Z" fill="white"/>
<path d="M14.1882 16.9412C14.1176 16.7294 14.047 16.5882 13.8353 16.5882C13.6941 16.5882 13.5529 16.7294 13.4823 16.8706C13.1294 17.5059 13.2706 18.0706 13.3412 18.1412C13.4118 18.4228 13.6941 18.4941 13.9059 18.2824C14.2588 17.9294 14.3294 17.4353 14.1882 16.9412ZM13.7647 17.4353C13.7647 17.5059 13.6235 17.5059 13.5529 17.5765C13.4118 17.2235 13.6235 16.8706 13.8353 16.8706C13.7647 17.0118 13.7647 17.2235 13.7647 17.4353Z" fill="#242422"/>
<path d="M7.76469 16.3059C7.62351 16.2353 7.41175 16.3765 7.34116 16.5176C7.19998 16.8 7.12939 17.0824 7.12939 17.3647C7.12939 17.4353 7.12939 17.5059 7.12939 17.5059C7.12939 17.7176 7.27057 18 7.48234 18C7.62351 18 7.83528 17.8588 7.90587 17.6471C8.04704 17.3647 8.11763 17.0118 8.04704 16.6588C8.04704 16.5176 7.97645 16.3765 7.76469 16.3059ZM7.55292 17.1529C7.55292 17.2235 7.41175 17.2235 7.34116 17.2941C7.27057 16.8706 7.41175 16.5882 7.6941 16.5882C7.62351 16.8 7.62351 16.9412 7.55292 17.1529Z" fill="#242422"/>
<path d="M10.3765 18.1412C10.6589 18.1412 10.8706 18.1412 11.153 18.1412C11.153 18.2118 11.153 18.2824 11.153 18.3529C11.153 18.4235 11.153 18.4235 11.153 18.4941C11.2236 18.4941 11.2236 18.4941 11.2236 18.4941C11.2236 18.4228 11.2942 18.4228 11.2942 18.3529C11.3648 18.1412 11.2942 18 11.0824 18C10.8 18 10.5883 18 10.3059 18C9.95299 18 9.67064 17.7882 9.60005 17.4353C9.45887 17.0118 9.60005 16.6588 9.8824 16.3765C10.1648 16.0235 10.5883 15.8118 11.0118 15.6706C11.0824 15.6706 11.153 15.6 11.2236 15.6C11.0824 15.5294 11.0118 15.5294 10.9412 15.5294C10.5883 15.6706 10.1648 15.8118 9.8824 16.0941C9.60005 16.3765 9.38828 16.6588 9.38828 17.0824C9.3177 17.7176 9.74123 18.1412 10.3765 18.1412Z" fill="#242422"/>
<path d="M7.90605 15.6706C8.47076 15.8118 8.61194 16.2353 8.68253 16.7294C8.75311 16.0235 8.40017 15.5294 7.90605 15.4588C7.27076 15.3176 6.84723 15.8118 6.70605 16.3765C6.98841 15.9529 7.27076 15.5294 7.90605 15.6706Z" fill="#242422"/>
<path d="M13.9766 15.9529C14.5413 16.0941 14.8236 16.5176 14.9648 17.0824C14.9648 16.3765 14.5413 15.8118 13.9766 15.7412C13.3413 15.6706 12.9883 16.1647 12.8472 16.6588C13.1295 16.2353 13.4119 15.8824 13.9766 15.9529Z" fill="#242422"/>
<path d="M28.8001 12.9882C29.2236 12.4941 29.6472 12 30.0707 11.5059C30.1413 11.4353 30.3531 11.3647 30.4942 11.2941C31.1295 11.2941 31.7648 11.2941 32.4707 11.2941C32.6825 11.2941 32.7531 11.3647 32.7531 11.5765C32.7531 13.5529 32.7531 15.4588 32.7531 17.4353C32.7531 17.6471 32.6825 17.7176 32.4707 17.7176C31.8354 17.7176 31.2707 17.7176 30.6354 17.7176C30.4236 17.7176 30.3531 17.6471 30.3531 17.4353C30.3531 16.1647 30.3531 14.8941 30.3531 13.6235C30.3531 13.6235 30.3531 13.5529 30.3531 13.4824C29.8589 14.0471 29.3648 14.6824 28.8001 15.2471C28.306 14.6824 27.8119 14.1176 27.2472 13.4824C27.2472 13.6941 27.2472 13.7647 27.2472 13.8353C27.2472 15.0353 27.2472 16.2353 27.2472 17.3647C27.2472 17.5765 27.1766 17.6471 26.9648 17.6471C26.3295 17.6471 25.7648 17.6471 25.1295 17.6471C24.9178 17.6471 24.8472 17.5765 24.8472 17.3647C24.8472 15.3882 24.8472 13.4824 24.8472 11.5059C24.8472 11.2941 24.9178 11.2235 25.1295 11.2235C25.7648 11.2235 26.4707 11.2235 27.106 11.2235C27.2472 11.2235 27.3883 11.2941 27.4589 11.3647C27.8825 11.7882 28.2354 12.2118 28.5883 12.7059C28.6589 12.9176 28.7295 12.9176 28.8001 12.9882Z" fill="white"/>
<path d="M66.0001 17.6471C65.2236 17.6471 64.5177 17.6471 63.8118 17.6471C63.5994 17.6471 63.5994 17.5059 63.5994 17.3647C63.5994 16.5882 63.5994 15.7412 63.5994 14.9647C63.5994 13.8353 63.5994 12.7059 63.5994 11.5765C63.5994 11.5059 63.5994 11.3647 63.5994 11.2235C63.7405 11.2235 63.8118 11.2235 63.9523 11.2235C65.2236 11.2235 66.4229 11.2235 67.6942 11.2235C68.1177 11.2235 68.5405 11.2941 68.9648 11.4353C69.6707 11.6471 70.0236 12.2118 70.0942 12.9176C70.1655 13.3412 69.953 13.7647 69.6707 14.1176C69.5295 14.2588 69.3883 14.4 69.1765 14.6118C69.953 15.4588 70.306 16.4471 70.5883 17.5765C70.2354 17.5765 69.8824 17.5765 69.6001 17.5765C69.2471 17.5765 68.8236 17.5765 68.4707 17.5765C68.3295 17.5765 68.1883 17.5765 68.1883 17.3647C67.9067 16.3059 67.2707 15.5294 66.2118 15.0353C66.2118 15.0353 66.1412 15.0353 66.0707 14.9647C66.0001 15.9529 66.0001 16.8 66.0001 17.6471ZM66.0707 12.0706C66.0707 12.7059 66.0707 13.3412 66.0707 14.0471C66.5648 14.1882 66.989 14.0471 67.2707 13.6235C67.4824 13.2706 67.4824 12.9176 67.2707 12.5647C66.9883 12.1412 66.5648 12 66.0707 12.0706Z" fill="white"/>
<path d="M47.2941 17.6471C46.4471 17.6471 45.6706 17.6471 44.8941 17.6471C44.5412 16.4471 43.9066 15.5294 42.7059 15.0353C42.7059 15.9529 42.7059 16.8 42.7059 17.6471C41.9294 17.6471 41.1529 17.6471 40.3765 17.6471C40.3765 15.5294 40.3765 13.4118 40.3765 11.2941C40.4471 11.2941 40.5176 11.2941 40.5882 11.2941C41.8588 11.2941 43.2 11.2941 44.4706 11.2941C44.8941 11.2941 45.3882 11.4353 45.8118 11.5765C46.5176 11.7882 46.7993 12.4235 46.7993 13.0588C46.7993 13.4118 46.6581 13.8353 46.3758 14.1176C46.3045 14.1882 46.2346 14.2588 46.164 14.4C45.8816 14.6824 45.8111 14.6118 46.164 14.9647C46.6574 15.5294 46.8699 16.1647 47.0816 16.8706C47.1529 17.0824 47.2235 17.3647 47.2941 17.6471ZM42.7765 14.0471C42.9176 14.0471 42.9889 14.0471 43.1294 14.0471C43.5536 14.1176 43.8353 13.8353 43.9765 13.5529C44.1882 13.2 44.1882 12.8471 43.9059 12.4941C43.6235 12.1412 43.2706 12 42.8471 12.0706C42.7758 12.0706 42.7059 12.1412 42.7059 12.2118C42.7765 12.7765 42.7765 13.4118 42.7765 14.0471Z" fill="white"/>
<path d="M48.2119 11.3647C48.9178 11.3647 49.6237 11.3647 50.4009 11.3647C50.4714 11.3647 50.5413 11.5059 50.5413 11.5765C50.5413 12.2118 50.5413 12.7765 50.5413 13.4118C50.5413 13.4824 50.5413 13.6235 50.5413 13.6941C51.1766 13.7647 51.6001 13.4824 51.9531 13.1294C52.3766 12.7059 52.659 12.1412 52.8707 11.6471C52.9413 11.4353 53.0119 11.4353 53.2237 11.4353C53.8583 11.4353 54.4943 11.4353 55.1289 11.4353C55.3413 11.4353 55.4112 11.5059 55.3413 11.7176C55.1289 12.5647 54.706 13.4118 54.2112 14.1176C53.7171 14.7529 53.7171 14.4706 54.2112 15.1059C54.7759 15.8824 55.1994 16.6588 55.5524 17.5765C55.623 17.7176 55.5524 17.7882 55.4112 17.7882C54.7053 17.7882 53.9994 17.7882 53.223 17.7882C53.1517 17.7882 53.0105 17.6471 52.9406 17.5765C52.7289 16.8 52.3759 16.0941 51.7406 15.5294C51.3171 15.1765 51.2465 15.1059 50.6112 15.1765C50.6112 16.0235 50.6112 16.8706 50.6112 17.7882C49.834 17.7882 49.0583 17.7882 48.2818 17.7882C48.2119 15.6 48.2119 13.4824 48.2119 11.3647Z" fill="white"/>
<path d="M56.1883 11.3647C56.8941 11.3647 57.6 11.3647 58.3059 11.3647C58.5184 11.3647 58.4471 11.5059 58.4471 11.6471C58.4471 12.7059 58.4471 13.7647 58.4471 14.8235C58.4471 15.1765 58.6589 15.4588 59.0118 15.5294C59.5059 15.6 59.8589 15.4588 60 15.0353C60 14.9647 60 14.8235 60 14.7529C60 13.6941 60 12.7059 60 11.6471C60 11.4353 60.0706 11.2941 60.353 11.2941C60.9177 11.2941 61.553 11.2941 62.1177 11.2941C62.3294 11.2941 62.4 11.3647 62.4 11.5765C62.4 12.8471 62.4 14.1176 62.3287 15.3882C62.2582 16.4471 61.4817 17.4353 60.2824 17.6471C59.8581 17.7176 59.364 17.7882 58.8706 17.7176C57.3876 17.6471 56.4706 16.9412 56.1177 15.4588C56.1177 15.3882 56.1177 15.3176 56.1177 15.2471C56.1177 13.9765 56.1177 12.7765 56.1177 11.5059C56.1883 11.5059 56.1883 11.4353 56.1883 11.3647Z" fill="white"/>
<path d="M34.0237 17.6471C34.0237 15.5294 34.0237 13.4118 34.0237 11.2941C34.0943 11.2941 34.2354 11.2941 34.306 11.2941C35.7884 11.2941 37.3413 11.2941 38.8237 11.2941C39.0354 11.2941 39.106 11.3647 39.1766 11.5765C39.1766 12.2824 39.1766 12.2824 38.4707 12.2824C37.8354 12.2824 37.2707 12.2824 36.6354 12.2824C36.423 12.2824 36.3531 12.3529 36.3531 12.5647C36.3531 12.9882 36.3531 13.4118 36.3531 13.8353C36.3531 14.0471 36.4237 14.1176 36.6354 14.1176C37.1289 14.1176 37.5531 14.1176 38.0472 14.1176C38.1877 14.1176 38.259 14.1882 38.259 14.3294C38.259 15.1765 38.4002 15.0353 37.5531 15.0353C37.2002 15.0353 36.9178 15.0353 36.5649 15.0353C36.3531 15.0353 36.2832 15.1059 36.2832 15.2471C36.2832 15.6706 36.2832 16.0941 36.2832 16.5176C36.2832 16.7294 36.3538 16.8 36.5649 16.8C37.2707 16.8 38.0479 16.8 38.7538 16.8C38.9656 16.8 39.0354 16.8706 39.0354 17.0824C39.0354 17.7176 39.0354 17.7176 38.4009 17.7176C37.0597 17.7176 35.6479 17.7176 34.3067 17.7176C34.306 17.6471 34.1649 17.6471 34.0237 17.6471Z" fill="white"/>
<path d="M47.0826 20.6824C46.9414 20.9647 46.8002 21.1765 46.7296 21.4595C46.4473 22.0941 46.2355 22.6588 46.0237 23.2948C45.7414 23.9301 45.5296 24.4948 45.2466 25.1301C45.1061 25.4118 44.9649 25.6941 44.8943 25.9765C44.8237 26.1882 44.6826 26.3294 44.5414 26.2588C44.3296 26.1875 44.1178 26.1176 44.048 25.9765C43.7656 25.4118 43.5538 24.7765 43.3421 24.1412C43.059 23.5059 42.8473 22.9412 42.5649 22.3059C42.4237 21.9529 42.2833 21.6 42.1414 21.2471C42.0708 21.1765 42.0708 21.0353 42.0002 20.9647C41.6473 21.1059 41.6473 21.2471 41.6473 21.4588C41.6473 22.7993 41.6473 24.2111 41.6473 25.5529C41.6473 25.6941 41.6473 25.7647 41.6473 25.9059C41.6473 26.1176 41.5061 26.2588 41.2943 26.2588C41.0826 26.2588 41.012 26.1176 41.012 25.9059C41.012 25.4118 41.012 24.9176 41.012 24.4228C41.012 23.0111 41.012 21.6706 41.012 20.2588C41.012 19.6941 41.2244 19.5529 41.7178 19.6941C41.7891 19.6941 41.9303 19.7647 42.0002 19.9059C42.212 20.4 42.4237 20.8934 42.6355 21.3882C42.9171 22.0235 43.2002 22.6588 43.412 23.2941C43.5531 23.6471 43.6943 23.9294 43.8355 24.2824C43.9767 24.6353 44.1178 24.9882 44.2597 25.2699C44.2597 25.2699 44.3303 25.3412 44.4009 25.4111C44.5414 25.2699 44.6826 25.1993 44.7538 24.9875C44.8943 24.7052 44.9656 24.4221 45.1068 24.1405C45.4597 23.2228 45.8833 22.2346 46.2362 21.3169C46.3774 20.964 46.5186 20.6111 46.6597 20.1868C46.8009 19.7633 47.1538 19.5522 47.648 19.6934C47.7186 19.6934 47.7891 19.764 47.8597 19.8339C47.9296 19.9765 47.9296 20.0471 47.9296 20.1882C47.9296 22.0941 47.9296 24 47.9296 25.9066C47.9296 26.1184 47.9296 26.2595 47.7171 26.3301C47.4355 26.4 47.2943 26.2588 47.2943 25.9059C47.2943 24.9882 47.2943 24 47.2943 23.0824C47.2943 22.4471 47.2943 21.8118 47.2943 21.1765C47.2943 21.0353 47.2237 20.8941 47.2237 20.7529C47.1531 20.6824 47.0826 20.6824 47.0826 20.6824Z" fill="white"/>
<path d="M57.7413 20.7529C57.7413 20.8934 57.6707 21.0346 57.6707 21.1765C57.6707 22.6588 57.6707 24.1412 57.6707 25.6235C57.6707 25.6948 57.6707 25.8353 57.6707 25.9059C57.6707 26.1176 57.5994 26.2588 57.3883 26.2588C57.1773 26.2588 57.0354 26.1176 57.0354 25.9059C57.0354 23.9294 57.0354 22.0235 57.0354 20.0471C57.0354 19.9059 57.1766 19.6941 57.2472 19.6228C57.4589 19.4824 57.6707 19.4824 57.8825 19.6941C58.0942 19.9758 58.2354 20.1875 58.4472 20.4706C59.0119 21.4588 59.5773 22.3765 60.0707 23.3647C60.353 23.9294 60.706 24.4235 60.9883 24.9882C60.9883 24.9882 61.0589 25.0588 61.1288 25.1287C61.2001 24.9169 61.2001 24.7052 61.2001 24.564C61.2001 23.0816 61.2001 21.6699 61.2001 20.1875C61.2001 20.0471 61.2001 19.9059 61.2707 19.764C61.342 19.6934 61.4825 19.6228 61.553 19.6228C61.6236 19.6228 61.7648 19.764 61.7648 19.8346C61.8354 19.9758 61.8354 20.0471 61.8354 20.1875C61.8354 22.0934 61.8354 23.9294 61.8354 25.8346C61.8354 26.0471 61.8354 26.1875 61.6236 26.2588C61.342 26.3294 60.989 26.2588 60.9178 26.0471C60.4236 25.1287 59.8589 24.2111 59.3648 23.2941C58.9413 22.5882 58.5185 21.8824 58.0942 21.1765C58.0236 21.0353 57.8825 20.8941 57.7413 20.7529C57.8119 20.7529 57.7413 20.7529 57.7413 20.7529Z" fill="white"/>
<path d="M70.5885 24.4235C70.5885 24.7765 70.5885 25.2007 70.5885 25.5536C70.5885 25.9066 70.4473 26.1184 70.0943 26.1882C69.1068 26.4007 68.1885 26.5412 67.2002 26.1882C66.4943 25.9066 65.9296 25.4824 65.5767 24.7765C65.012 23.7882 65.012 22.7294 65.3649 21.6C65.5774 20.9654 66.0002 20.4007 66.5649 19.9765C67.3421 19.4824 68.1885 19.3419 69.0355 19.4118C69.3885 19.4824 69.7414 19.5529 70.0237 19.6941C70.2355 19.7647 70.2355 19.9758 70.1649 20.1176C70.0936 20.3294 69.9525 20.2588 69.812 20.1882C68.6819 19.8353 67.623 19.8353 66.6355 20.6824C66.2113 21.0353 65.9296 21.4595 65.9296 22.0235C65.859 22.4471 65.859 22.8706 65.859 23.2941C65.9303 24.9176 67.059 25.6235 68.4708 25.6941C68.8943 25.6941 69.3179 25.6228 69.6708 25.4816C69.7414 25.4816 69.8826 25.2699 69.8826 25.2C69.8826 24.6353 69.8826 24 69.8826 23.4353C69.8826 23.2235 69.7414 23.0824 69.5296 23.0824C69.2473 23.0824 68.9649 23.0824 68.612 23.0824C68.5407 23.0824 68.3296 22.9412 68.3296 22.8706C68.3296 22.7294 68.4009 22.5176 68.612 22.5176C69.1061 22.5176 69.6708 22.5176 70.1649 22.5176C70.4466 22.5176 70.5179 22.7993 70.5179 23.0111C70.5885 23.5765 70.5885 24 70.5885 24.4235Z" fill="white"/>
<path d="M30.0001 24.4235C30.0001 24.7765 30.0001 25.2007 30.0001 25.5536C30.0001 25.9066 29.7883 26.1184 29.506 26.1882C28.5178 26.4007 27.5295 26.5412 26.6119 26.1882C25.8354 25.9066 25.2707 25.4118 24.9178 24.7059C24.4942 23.7882 24.4942 22.8706 24.706 21.8824C24.8472 21.1765 25.3413 20.5412 25.9766 20.1176C26.7531 19.6235 27.5295 19.4824 28.4472 19.5529C28.8001 19.6235 29.1531 19.6941 29.506 19.8346C29.7178 19.9059 29.7883 20.0471 29.6472 20.2588C29.5766 20.4706 29.4354 20.4 29.2236 20.4C28.0942 20.0471 26.9648 20.1176 26.0472 20.8934C25.6942 21.2464 25.4119 21.6706 25.3413 22.1647C25.2001 23.0111 25.1295 23.7882 25.6236 24.564C25.906 25.0581 26.3295 25.4816 26.9648 25.6941C27.6707 25.9059 28.3766 25.9758 29.0825 25.7647C29.3648 25.6941 29.506 25.5529 29.506 25.2706C29.506 24.7765 29.506 24.2831 29.506 23.7882C29.506 23.4353 29.3648 23.2941 29.0119 23.2941C28.7295 23.2941 28.4472 23.2941 28.1648 23.2941C28.0942 23.2941 27.9531 23.1529 27.8825 23.0824C27.9531 23.0111 28.0236 22.8 28.1648 22.8C28.3766 22.7294 28.6589 22.7294 28.8707 22.7294C29.0825 22.7294 29.3648 22.7294 29.5766 22.7294C29.9295 22.7294 30.0707 22.8706 30.0707 23.2235C30.0001 23.5765 30.0001 24 30.0001 24.4235Z" fill="white"/>
<path d="M37.9059 26.3294C37.7647 26.1882 37.6235 26.0478 37.553 25.8353C37.4118 25.4824 37.2706 25.1294 37.2 24.7765C37.1294 24.4941 36.9882 24.4235 36.7059 24.4235C35.7882 24.4235 34.8706 24.4235 33.9529 24.4235C33.7412 24.4235 33.6 24.5647 33.5294 24.7765C33.3882 25.2 33.1765 25.6235 32.9647 26.0471C32.8941 26.1875 32.7529 26.3287 32.5412 26.2588C32.4 26.1875 32.3294 26.1176 32.4 25.9765C32.8235 25.0588 33.1765 24.0706 33.5294 23.1529C33.8824 22.3059 34.2353 21.4595 34.6588 20.5412C34.8 20.2595 34.8706 19.9765 35.0824 19.7647C35.2235 19.5529 35.5059 19.5529 35.6471 19.7647C35.7882 19.9059 35.8588 20.1176 35.9294 20.3294C36.2111 20.9647 36.4941 21.6 36.7059 22.2353C36.8471 22.5176 36.9177 22.8 37.0588 23.0824C37.3412 23.7882 37.6941 24.5647 37.9765 25.2706C38.0478 25.4824 38.1177 25.6948 38.2588 25.9059C38.3294 26.1882 38.1882 26.2588 37.9059 26.3294ZM35.2941 23.9294C35.5765 23.9294 35.9294 23.9294 36.2118 23.9294C36.4941 23.9294 36.636 23.7882 36.5647 23.5052C36.4941 23.2235 36.3529 22.9405 36.2118 22.6581C36 22.0934 35.7882 21.4588 35.5059 20.8934C35.4353 20.8235 35.2941 20.7529 35.2235 20.6824C35.1529 20.6824 35.0824 20.8235 35.0118 20.8941C34.9412 21.0353 34.9412 21.1765 34.8706 21.2471C34.5882 21.9529 34.3059 22.7301 33.9529 23.436C33.8118 23.7889 33.8824 23.8595 34.2353 23.9301C34.6588 23.9294 35.0118 23.9294 35.2941 23.9294Z" fill="white"/>
<path d="M52.1648 23.0118C52.1648 22.0941 52.1648 21.1765 52.1648 20.2595C52.1648 20.1184 52.1648 19.9772 52.2354 19.9066C52.306 19.8353 52.4471 19.6948 52.5177 19.6948C52.5883 19.6948 52.7295 19.8353 52.7994 19.9066C52.8707 19.9765 52.8707 20.1176 52.8707 20.1882C52.8707 22.0941 52.8707 24 52.8707 25.8353C52.8707 26.0478 52.8707 26.1882 52.5883 26.2595C52.306 26.3294 52.2354 26.1882 52.2354 25.9059C52.1648 24.9176 52.1648 23.9294 52.1648 23.0118Z" fill="white"/>
<defs>
<linearGradient id="paint0_linear_481_13254" x1="7.11675" y1="14.2451" x2="15.1349" y2="22.2633" gradientUnits="userSpaceOnUse">
<stop stop-color="white"/>
<stop offset="1" stop-color="#FFF2A9"/>
</linearGradient>
</defs>
</svg>
