<svg width="86" height="36" viewBox="0 0 86 36" fill="none" xmlns="http://www.w3.org/2000/svg">
<g clip-path="url(#clip0_481_12979)">
<path fill-rule="evenodd" clip-rule="evenodd" d="M-0.258057 10H12.3839V26.0225H-0.258057V10ZM2.83794 23.5843V12.8736H5.93394C7.05194 12.8736 7.91194 13.1348 8.51394 13.5702C9.11594 14.0056 9.45994 14.7893 9.45994 15.7472C9.45994 16.2697 9.37394 16.7051 9.11594 17.1404C8.85794 17.5758 8.51394 17.8371 8.08394 18.0112C8.68594 18.0983 9.02994 18.4466 9.28794 18.882C9.54594 19.3174 9.71794 19.8399 9.71794 20.4494C9.71794 21.4944 9.45994 22.2781 8.85794 22.8006C8.25594 23.323 7.48194 23.5843 6.36394 23.5843H2.83794ZM4.72994 18.882V21.9298H6.19194C6.62194 21.9298 6.96594 21.8427 7.13794 21.5815C7.30994 21.3202 7.48194 20.9719 7.48194 20.4494C7.48194 19.927 7.39594 19.5787 7.22394 19.3174C7.05194 19.0562 6.70794 18.882 6.36394 18.882H4.72994ZM4.72994 17.4017H5.84794C6.27794 17.4017 6.62194 17.2275 6.79394 17.0534C6.96594 16.8792 7.13794 16.4438 7.13794 16.0084C7.13794 15.486 7.05194 15.1376 6.79394 14.8764C6.53594 14.6152 6.19194 14.5281 5.76194 14.5281H4.72994V17.4017Z" fill="#FFCC29"/>
<path d="M21.6721 21.8427C21.4141 22.2781 21.0701 22.6264 20.4681 22.9747C19.9521 23.323 19.2641 23.4972 18.4041 23.4972C17.2861 23.4972 16.4261 23.1489 15.7381 22.4523C15.0501 21.7556 14.7061 20.7978 14.7061 19.5787V16.4438C14.7061 15.2247 15.0501 14.2669 15.6521 13.5702C16.2541 12.8736 17.1141 12.5253 18.2321 12.5253C19.3501 12.5253 20.1241 12.7865 20.7261 13.309C21.3281 13.8315 21.5861 14.6152 21.6721 15.6601V15.7472H20.2961C20.2961 15.0506 20.1241 14.6152 19.7801 14.1798C19.4361 13.8315 19.0061 13.6573 18.3181 13.6573C17.6301 13.6573 17.2001 13.9185 16.7701 14.3539C16.4261 14.7893 16.2541 15.486 16.2541 16.4438V19.6657C16.2541 20.5365 16.4261 21.2332 16.8561 21.7556C17.2861 22.2781 17.8021 22.4523 18.4901 22.4523C19.0061 22.4523 19.3501 22.3652 19.6941 22.191C19.9521 22.0169 20.2101 21.7556 20.2961 21.4944V19.0562H18.4901V18.0112H21.7581L21.6721 21.8427Z" fill="white"/>
<path d="M25.284 26.0225H24.51V10H25.284V26.0225ZM38.184 26.0225H37.41V10H38.184V26.0225ZM50.998 26.0225H50.31V10H50.998V26.0225ZM76.798 26.0225H76.024V10H76.798V26.0225ZM63.898 26.0225H63.124V10H63.898V26.0225Z" fill="white"/>
<path d="M29.842 19.6657H32.508L31.218 14.9635H31.132L29.842 19.6657ZM32.938 20.8848H29.584L28.81 23.5843H27.262L30.53 12.8736H31.906L35.174 23.5843H33.712L32.938 20.8848Z" fill="white"/>
<path d="M41.7099 12.8736L44.2039 21.5815L46.6979 12.8736H48.5899V23.5843H47.1279V19.4916L47.2999 15.3118H47.2139L44.7199 23.5843H43.6879L41.1939 15.3118H41.1079L41.2799 19.4916V23.5843H39.8179V12.8736H41.7099Z" fill="white"/>
<path d="M57.7918 23.5843H56.3298V12.8736H57.7918V23.5843Z" fill="white"/>
<path d="M73.6159 23.5843H72.1539L68.1979 15.573H68.1119V23.5843H66.6499V12.8736H68.1119L72.1539 20.7978V12.8736H73.6159V23.5843Z" fill="white"/>
<path d="M85.9999 21.9298C85.7419 22.3652 85.3979 22.7135 84.7959 23.0618C84.2799 23.4101 83.5919 23.5843 82.7319 23.5843C81.6139 23.5843 80.7539 23.236 80.0659 22.5393C79.3779 21.8427 79.0339 20.8848 79.0339 19.6657V16.4438C79.0339 15.2247 79.3779 14.2669 79.9799 13.5702C80.5819 12.8736 81.5279 12.5253 82.5599 12.5253C83.5919 12.5253 84.4519 12.7865 85.0539 13.309C85.6559 13.8315 85.9139 14.6152 85.9999 15.6601V15.7472H84.6239C84.6239 15.0506 84.4519 14.5281 84.1079 14.1798C83.7639 13.8315 83.3339 13.6573 82.6459 13.6573C81.9579 13.6573 81.5279 13.9185 81.0979 14.3539C80.7539 14.7893 80.4959 15.486 80.4959 16.4438V19.6657C80.4959 20.6236 80.6679 21.3202 81.0979 21.7556C81.5279 22.191 82.0439 22.4523 82.7319 22.4523C83.2479 22.4523 83.5919 22.3652 83.9359 22.191C84.1939 22.0169 84.4519 21.7556 84.5379 21.4944V19.0562H82.7319V17.9242H85.9999V21.9298Z" fill="white"/>
</g>
<defs>
<clipPath id="clip0_481_12979">
<rect width="86" height="36" fill="white"/>
</clipPath>
</defs>
</svg>
