<svg width="197" height="56" viewBox="0 0 1978 568" fill="none" xmlns="http://www.w3.org/2000/svg">
<path d="M0.294434 78.3369V156.285H61.0254V478.177H143.64V156.285H204.501V78.3369H0.294434Z" fill="white"/>
<path d="M896.497 78.3369V478.177H1085.81V400.358H979.112V317.231H1063.67V239.283H979.112V156.285H1085.81V78.3369H896.497Z" fill="white"/>
<path d="M1255.96 16.4438H1173.35V416.284H1362.66V338.336H1255.96V16.4438Z" fill="white"/>
<path d="M1920.64 266.474C1936.95 246.663 1946.79 221.155 1946.79 193.446C1946.79 129.871 1895.26 78.3369 1831.68 78.3369H1742.59V478.177H1833.75C1902.12 478.177 1957.54 422.759 1957.54 354.392C1957.28 320.08 1943.3 288.874 1920.64 266.474ZM1826.88 156.285C1847.47 156.285 1864.05 172.988 1864.05 193.446C1864.05 214.034 1847.34 230.608 1826.88 230.608H1825.2V156.156H1826.88V156.285ZM1874.67 354.392C1874.67 379.771 1854.08 400.229 1828.83 400.229H1825.2V308.426H1828.83C1854.21 308.556 1874.67 329.143 1874.67 354.392Z" fill="white"/>
<path d="M514.371 224.651C514.371 143.855 448.849 78.3369 368.047 78.3369H310.035H278.828V478.177H361.443V370.837H367.917C373.486 370.837 378.924 370.448 384.233 369.93L437.713 478.177H529.91L460.633 337.689C493.523 310.886 514.371 270.229 514.371 224.651ZM361.702 293.018V156.285H363.385C401.196 156.285 431.756 186.843 431.756 224.651C431.756 262.46 401.196 293.018 363.385 293.018H361.702Z" fill="white"/>
<path d="M736.447 373.685C736.447 394.532 719.484 411.494 698.636 411.494C677.658 411.494 660.825 394.532 660.825 373.685V78.3369H578.21V368.894C578.21 435.448 632.207 489.442 698.765 489.442C765.323 489.442 819.321 435.448 819.321 368.894V78.3369H736.706V373.685H736.447Z" fill="white"/>
<path d="M1978 535.019H1144.34V567.778H1978V535.019Z" fill="white"/>
<path d="M1978 0H1144.34V32.759H1978V0Z" fill="white"/>
<path d="M1589.53 539.81H1674.09L1587.85 139.97H1486.45L1400.21 539.81H1484.77L1494.48 493.973H1579.82L1589.53 539.81ZM1511.06 416.025L1537.09 293.406L1563.11 416.025H1511.06Z" fill="white"/>
</svg>
