<svg width="1228" height="425" viewBox="0 0 1228 425" fill="none" xmlns="http://www.w3.org/2000/svg">
<path opacity="0.958" fill-rule="evenodd" clip-rule="evenodd" d="M474.192 0.465444C486.457 -0.96434 497.987 1.19763 508.784 6.95136C531.767 22.6487 554.108 39.2238 575.805 56.6767C580.951 72.3323 575.906 83.3814 560.671 89.8269C543.122 77.9303 525.826 65.6792 508.784 53.0734C492.929 42.5043 477.075 42.5043 461.221 53.0734C444.178 65.6792 426.883 77.9303 409.333 89.8269C388.309 79.0546 385.908 65.3621 402.127 48.7495C419.196 37.0921 436.011 25.0817 452.573 12.7166C459.494 7.82336 466.7 3.74011 474.192 0.465444Z" fill="white"/>
<path opacity="0.957" fill-rule="evenodd" clip-rule="evenodd" d="M735.071 0.465444C747.336 -0.96434 758.867 1.19763 769.662 6.95136C789.841 21.3645 810.019 35.7776 830.198 50.1908C839.523 58.7003 841.209 68.5503 835.242 79.7377C830.63 84.9092 825.11 88.0325 818.667 89.1063C801.371 76.6144 784.076 64.124 766.78 51.6321C752.367 42.9842 737.953 42.9842 723.54 51.6321C706.245 64.124 688.949 76.6144 671.653 89.1063C659.837 86.6431 653.111 79.1958 651.475 66.7659C652.447 62.1667 654.13 57.8427 656.519 53.7941C677.418 38.6603 698.317 23.5265 719.216 8.39267C724.29 5.04018 729.565 2.39681 735.071 0.465444Z" fill="white"/>
<path opacity="0.959" fill-rule="evenodd" clip-rule="evenodd" d="M354.565 66.7656C356.276 74.739 360.12 81.7063 366.095 87.6647C396.363 109.284 426.631 130.904 456.898 152.524C477.077 163.093 497.255 163.093 517.433 152.524C546.036 131.262 575.344 111.083 605.354 91.9886C615.505 90.1423 625.114 91.5836 634.18 96.3126C661.085 115.53 687.984 134.748 714.894 153.965C733.587 162.557 752.324 162.557 771.105 153.965C804.832 130.815 837.737 106.553 869.835 81.1788C872.199 76.5421 874.116 71.7382 875.6 66.7656C876.566 83.1 876.566 99.4359 875.6 115.77C873.813 122.85 870.21 128.856 864.79 133.787C833.816 156.241 802.583 178.341 771.105 200.087C753.535 207.997 735.749 208.479 717.776 201.529C686.629 180.469 655.88 158.85 625.532 136.669C617.583 133.444 609.895 133.924 602.471 138.111C575.086 157.809 547.701 177.506 520.316 197.205C498.216 209.696 476.115 209.696 454.016 197.205C426.07 176.467 397.725 156.289 368.978 136.669C362.713 131.86 358.148 125.854 355.286 118.653C354.565 101.364 354.324 84.0686 354.565 66.7656Z" fill="white"/>
<path opacity="0.907" fill-rule="evenodd" clip-rule="evenodd" d="M0 336.292C7.09271 335.633 12.1373 338.516 15.1338 344.94C15.3745 362.735 16.0952 380.511 17.2958 398.268C33.1387 389.506 49.2339 381.338 65.5798 373.766C81.9258 381.338 98.0209 389.506 113.864 398.268C115.064 380.993 115.785 363.697 116.026 346.381C118.25 338.896 123.294 335.533 131.16 336.292C131.64 365.614 131.16 394.921 129.718 424.212C108.429 412.967 87.0496 401.916 65.5798 391.062C43.8246 402.53 21.9642 413.579 0 424.212C0 394.906 0 365.598 0 336.292Z" fill="white"/>
<path opacity="0.952" fill-rule="evenodd" clip-rule="evenodd" d="M197.459 336.292C199.862 336.292 202.263 336.292 204.666 336.292C204.906 363.681 204.666 391.066 203.945 418.446C200.474 422.943 195.911 424.865 190.252 424.212C190.012 397.302 190.252 370.399 190.973 343.498C192.45 340.346 194.612 337.943 197.459 336.292Z" fill="white"/>
<path opacity="0.907" fill-rule="evenodd" clip-rule="evenodd" d="M259.436 336.292C263.062 336.659 266.426 337.861 269.525 339.895C304.472 359.169 339.305 378.627 374.02 398.268C374.5 381.452 374.981 364.638 375.461 347.822C377.818 340.417 382.863 336.574 390.595 336.292C391.075 365.614 390.595 394.921 389.154 424.212C351.68 403.553 314.205 382.894 276.731 362.235C275.531 379.029 274.81 395.845 274.569 412.681C271.877 419.441 266.832 422.804 259.436 422.77C259.436 393.944 259.436 365.118 259.436 336.292Z" fill="white"/>
<path opacity="0.926" fill-rule="evenodd" clip-rule="evenodd" d="M441.041 336.292C479.477 336.292 517.911 336.292 556.346 336.292C557.475 343.582 554.592 348.626 547.698 351.425C516.954 352.146 486.206 352.387 455.454 352.146C455.454 359.832 455.454 367.52 455.454 375.207C477.074 375.207 498.694 375.207 520.313 375.207C520.972 382.3 518.089 387.344 511.665 390.341C492.934 391.061 474.197 391.302 455.454 391.061C455.693 399.722 455.453 408.37 454.734 417.005C451.93 422.612 447.366 425.014 441.041 424.212C441.041 394.905 441.041 365.598 441.041 336.292Z" fill="white"/>
<path opacity="0.895" fill-rule="evenodd" clip-rule="evenodd" d="M615.441 336.292C617.844 336.292 620.245 336.292 622.648 336.292C622.889 363.201 622.648 390.104 621.927 417.005C618.357 422.272 613.312 424.673 606.793 424.212C606.553 398.264 606.793 372.32 607.514 346.381C608.866 341.916 611.509 338.553 615.441 336.292Z" fill="white"/>
<path opacity="0.915" fill-rule="evenodd" clip-rule="evenodd" d="M678.859 336.292C717.544 355.999 755.739 376.657 793.444 398.268C793.92 380.492 794.41 362.715 794.885 344.939C798.272 339.276 803.317 336.394 810.019 336.292C810.495 365.614 810.019 394.921 808.578 424.212C770.858 403.187 732.894 382.527 694.714 362.235C693.518 379.511 692.797 396.807 692.552 414.122C689.943 420.043 685.374 422.926 678.859 422.77C678.859 393.944 678.859 365.118 678.859 336.292Z" fill="white"/>
<path opacity="0.876" fill-rule="evenodd" clip-rule="evenodd" d="M871.996 336.292C874.403 336.292 876.795 336.292 879.202 336.292C879.447 362.719 879.202 389.145 878.482 415.564C875.484 421.988 870.439 424.87 863.348 424.212C863.103 397.784 863.348 371.359 864.069 344.939C865.539 340.832 868.176 337.949 871.996 336.292Z" fill="white"/>
<path opacity="0.895" fill-rule="evenodd" clip-rule="evenodd" d="M925.325 336.292C970.006 336.292 1014.69 336.292 1059.37 336.292C1060.03 343.384 1057.15 348.429 1050.72 351.425C1033.91 352.146 1017.09 352.387 1000.27 352.146C1000.52 373.29 1000.27 394.43 999.553 415.564C996.555 421.988 991.511 424.87 984.419 424.212C984.419 400.189 984.419 376.168 984.419 352.146C967.599 352.387 950.779 352.146 933.973 351.425C927.545 348.429 924.662 343.384 925.325 336.292Z" fill="white"/>
<path opacity="0.912" fill-rule="evenodd" clip-rule="evenodd" d="M1101.16 337.733C1108.11 336.076 1115.32 335.837 1122.78 337.013C1136.92 348.03 1150.86 359.32 1164.58 370.884C1176.59 360.554 1188.61 350.225 1200.61 339.895C1209.38 336.33 1218.52 335.368 1228 337.013C1209.93 353.646 1191.43 369.739 1172.51 385.297C1172.03 395.866 1171.54 406.437 1171.07 417.006C1168.27 422.612 1163.7 425.015 1157.38 424.212C1157.62 411.232 1157.38 398.26 1156.65 385.297C1137.92 369.679 1119.43 353.824 1101.16 337.733Z" fill="white"/>
</svg>
