<svg width="1614" height="425" viewBox="0 0 1614 425" fill="none" xmlns="http://www.w3.org/2000/svg">
<path opacity="0.999" fill-rule="evenodd" clip-rule="evenodd" d="M53.0625 0C467.127 0 881.193 0 1295.26 0C1295.26 17.6875 1295.26 35.375 1295.26 53.0625C1242.19 53.0625 1189.13 53.0625 1136.07 53.0625C1136.07 106.125 1136.07 159.187 1136.07 212.25C1135.89 212.25 1135.71 212.25 1135.54 212.25C1117.85 212.25 1100.16 212.25 1082.47 212.25C1082.47 159.187 1082.47 106.125 1082.47 53.0625C739.336 53.0625 396.2 53.0625 53.0625 53.0625C53.0625 35.375 53.0625 17.6875 53.0625 0Z" fill="white"/>
<path opacity="0.997" fill-rule="evenodd" clip-rule="evenodd" d="M1400.85 0C1454.09 0 1507.33 0 1560.57 0C1560.57 17.6875 1560.57 35.375 1560.57 53.0625C1507.51 53.0625 1454.44 53.0625 1401.38 53.0625C1401.21 53.0625 1401.02 53.0625 1400.85 53.0625C1400.85 35.375 1400.85 17.6875 1400.85 0Z" fill="white"/>
<path fill-rule="evenodd" clip-rule="evenodd" d="M0 53.0625C17.6875 53.0625 35.375 53.0625 53.0625 53.0625C53.0625 159.187 53.0625 265.312 53.0625 371.437C449.263 371.437 845.461 371.437 1241.66 371.437C1241.66 353.75 1241.66 336.062 1241.66 318.375C1241.66 300.688 1241.66 283 1241.66 265.312C1242.19 282.909 1242.37 300.597 1242.19 318.375C1259.88 318.375 1277.57 318.375 1295.26 318.375C1295.26 336.062 1295.26 353.75 1295.26 371.437C1330.63 371.437 1366 371.437 1401.38 371.437C1401.38 389.125 1401.38 406.813 1401.38 424.5C934.255 424.5 467.127 424.5 0 424.5C0 300.688 0 176.875 0 53.0625Z" fill="white"/>
<path fill-rule="evenodd" clip-rule="evenodd" d="M1295.26 53.0625C1330.45 53.0625 1365.65 53.0625 1400.85 53.0625C1401.03 53.0625 1401.21 53.0625 1401.38 53.0625C1401.38 70.7498 1401.38 88.4377 1401.38 106.125C1366 106.125 1330.63 106.125 1295.26 106.125C1295.26 88.4377 1295.26 70.7498 1295.26 53.0625Z" fill="white"/>
<path opacity="0.997" fill-rule="evenodd" clip-rule="evenodd" d="M1560.57 53.0625C1578.25 53.0625 1595.95 53.0625 1613.63 53.0625C1613.63 106.125 1613.63 159.187 1613.63 212.25C1595.95 212.25 1578.25 212.25 1560.57 212.25C1560.57 159.187 1560.57 106.125 1560.57 53.0625Z" fill="white"/>
<path opacity="0.994" fill-rule="evenodd" clip-rule="evenodd" d="M176.699 123.636C188.55 123.636 200.401 123.636 212.251 123.636C212.251 170.861 212.251 218.087 212.251 265.313C229.938 265.313 247.626 265.313 265.314 265.313C265.314 277.163 265.314 289.014 265.314 300.864C218.088 300.864 170.862 300.864 123.637 300.864C123.637 289.014 123.637 277.163 123.637 265.313C141.324 265.313 159.012 265.313 176.699 265.313C176.699 241.788 176.699 218.264 176.699 194.739C164.849 194.739 152.998 194.739 141.147 194.739C141.147 182.889 141.147 171.038 141.147 159.188C147.161 159.188 153.175 159.188 159.189 159.188C159.189 153.174 159.189 147.16 159.189 141.146C165.025 141.146 170.862 141.146 176.699 141.146C176.699 135.309 176.699 129.473 176.699 123.636Z" fill="white"/>
<path opacity="0.99" fill-rule="evenodd" clip-rule="evenodd" d="M310.414 123.636C351.803 123.636 393.192 123.636 434.581 123.636C434.581 129.473 434.581 135.309 434.581 141.146C440.417 141.146 446.254 141.146 452.091 141.146C452.091 188.549 452.091 235.952 452.091 283.354C446.254 283.354 440.417 283.354 434.581 283.354C434.581 289.191 434.581 295.028 434.581 300.864C393.192 300.864 351.803 300.864 310.414 300.864C310.414 295.028 310.414 289.191 310.414 283.354C304.401 283.354 298.387 283.354 292.373 283.354C292.373 235.952 292.373 188.549 292.373 141.146C298.387 141.146 304.401 141.146 310.414 141.146C310.414 135.309 310.414 129.473 310.414 123.636ZM328.456 159.188C357.817 159.188 387.178 159.188 416.539 159.188C416.539 194.563 416.539 229.937 416.539 265.313C387.178 265.313 357.817 265.313 328.456 265.313C328.456 229.937 328.456 194.563 328.456 159.188Z" fill="white"/>
<path opacity="0.993" fill-rule="evenodd" clip-rule="evenodd" d="M497.196 123.636C538.584 123.636 579.973 123.636 621.362 123.636C621.362 129.473 621.362 135.309 621.362 141.146C627.199 141.146 633.036 141.146 638.872 141.146C638.872 188.549 638.872 235.952 638.872 283.354C633.036 283.354 627.199 283.354 621.362 283.354C621.362 289.191 621.362 295.028 621.362 300.864C579.973 300.864 538.584 300.864 497.196 300.864C497.196 295.028 497.196 289.191 497.196 283.354C491.182 283.354 485.168 283.354 479.154 283.354C479.154 235.952 479.154 188.549 479.154 141.146C485.168 141.146 491.182 141.146 497.196 141.146C497.196 135.309 497.196 129.473 497.196 123.636ZM515.237 159.188C544.596 159.188 573.961 159.188 603.321 159.188C603.321 194.563 603.321 229.937 603.321 265.313C573.961 265.313 544.596 265.313 515.237 265.313C515.237 229.937 515.237 194.563 515.237 159.188Z" fill="white"/>
<path opacity="0.988" fill-rule="evenodd" clip-rule="evenodd" d="M665.936 123.636C677.965 123.636 689.989 123.636 702.018 123.636C702.018 147.16 702.018 170.685 702.018 194.209C731.202 194.209 760.387 194.209 789.571 194.209C789.571 170.685 789.571 147.16 789.571 123.636C801.6 123.636 813.624 123.636 825.654 123.636C825.654 182.712 825.654 241.788 825.654 300.864C813.624 300.864 801.6 300.864 789.571 300.864C789.571 277.34 789.571 253.816 789.571 230.291C760.387 230.291 731.202 230.291 702.018 230.291C702.018 253.816 702.018 277.34 702.018 300.864C689.989 300.864 677.965 300.864 665.936 300.864C665.936 241.788 665.936 182.712 665.936 123.636Z" fill="white"/>
<path opacity="0.995" fill-rule="evenodd" clip-rule="evenodd" d="M852.715 123.636C900.116 123.636 947.522 123.636 994.922 123.636C994.922 129.473 994.922 135.309 994.922 141.146C1000.76 141.146 1006.6 141.146 1012.43 141.146C1012.43 164.848 1012.43 188.549 1012.43 212.25C1006.6 212.25 1000.76 212.25 994.922 212.25C994.922 218.264 994.922 224.278 994.922 230.291C959.546 230.291 924.174 230.291 888.797 230.291C888.797 253.816 888.797 277.34 888.797 300.864C876.768 300.864 864.744 300.864 852.715 300.864C852.715 241.788 852.715 182.712 852.715 123.636ZM888.797 159.188C917.982 159.188 947.166 159.188 976.35 159.188C976.35 170.861 976.35 182.535 976.35 194.209C947.166 194.209 917.982 194.209 888.797 194.209C888.797 182.535 888.797 170.861 888.797 159.188Z" fill="white"/>
<path fill-rule="evenodd" clip-rule="evenodd" d="M1454.44 159.187C1472.13 159.187 1489.82 159.187 1507.51 159.187C1507.51 141.5 1507.51 123.812 1507.51 106.125C1489.82 106.125 1472.13 106.125 1454.44 106.125C1454.44 123.812 1454.44 141.5 1454.44 159.187Z" fill="white"/>
<path opacity="0.993" fill-rule="evenodd" clip-rule="evenodd" d="M1135.54 212.25C1135.71 212.25 1135.89 212.25 1136.07 212.25C1153.75 212.25 1171.44 212.25 1189.13 212.25C1189.13 229.937 1189.13 247.625 1189.13 265.312C1188.96 265.312 1188.77 265.312 1188.6 265.312C1170.91 265.312 1153.22 265.312 1135.54 265.312C1135.54 247.625 1135.54 229.937 1135.54 212.25Z" fill="white"/>
<path opacity="0.997" fill-rule="evenodd" clip-rule="evenodd" d="M1560.57 212.25C1560.57 229.937 1560.57 247.625 1560.57 265.312C1542.88 265.312 1525.19 265.312 1507.51 265.312C1507.51 247.625 1507.51 229.937 1507.51 212.25C1525.19 212.25 1542.88 212.25 1560.57 212.25Z" fill="white"/>
<path opacity="0.993" fill-rule="evenodd" clip-rule="evenodd" d="M1188.6 265.312C1188.77 265.312 1188.96 265.312 1189.13 265.312C1206.64 265.312 1224.15 265.312 1241.66 265.312C1241.66 283 1241.66 300.688 1241.66 318.375C1223.98 318.375 1206.29 318.375 1188.6 318.375C1188.6 300.688 1188.6 283 1188.6 265.312Z" fill="white"/>
<path opacity="0.997" fill-rule="evenodd" clip-rule="evenodd" d="M1507.51 265.312C1507.51 283 1507.51 300.688 1507.51 318.375C1489.82 318.375 1472.13 318.375 1454.44 318.375C1454.44 300.688 1454.44 283 1454.44 265.312C1472.13 265.312 1489.82 265.312 1507.51 265.312Z" fill="white"/>
<path opacity="0.997" fill-rule="evenodd" clip-rule="evenodd" d="M1454.44 318.375C1454.44 336.062 1454.44 353.75 1454.44 371.437C1436.76 371.437 1419.07 371.437 1401.38 371.437C1401.38 353.75 1401.38 336.062 1401.38 318.375C1419.07 318.375 1436.76 318.375 1454.44 318.375Z" fill="white"/>
<path fill-rule="evenodd" clip-rule="evenodd" d="M1295.26 53.0625C1295.26 70.7498 1295.26 88.4377 1295.26 106.125C1330.63 106.125 1366 106.125 1401.38 106.125C1401.38 88.4377 1401.38 70.7498 1401.38 53.0625C1454.44 53.0625 1507.51 53.0625 1560.57 53.0625C1560.57 106.125 1560.57 159.187 1560.57 212.25C1542.88 212.25 1525.19 212.25 1507.51 212.25C1507.51 229.937 1507.51 247.625 1507.51 265.312C1489.82 265.312 1472.13 265.312 1454.44 265.312C1454.44 283 1454.44 300.688 1454.44 318.375C1436.76 318.375 1419.07 318.375 1401.38 318.375C1401.38 336.062 1401.38 353.75 1401.38 371.437C1366 371.437 1330.63 371.437 1295.26 371.437C1295.26 353.75 1295.26 336.062 1295.26 318.375C1277.57 318.375 1259.88 318.375 1242.19 318.375C1242.37 300.597 1242.19 282.909 1241.66 265.312C1224.15 265.312 1206.64 265.312 1189.13 265.312C1189.13 247.625 1189.13 229.937 1189.13 212.25C1171.45 212.25 1153.75 212.25 1136.07 212.25C1136.07 159.187 1136.07 106.125 1136.07 53.0625C1189.13 53.0625 1242.19 53.0625 1295.26 53.0625Z" fill="#FE5E5E"/>
<path fill-rule="evenodd" clip-rule="evenodd" d="M1454.44 159.187C1454.44 141.5 1454.44 123.812 1454.44 106.125C1472.13 106.125 1489.82 106.125 1507.51 106.125C1507.51 123.812 1507.51 141.5 1507.51 159.187C1489.82 159.187 1472.13 159.187 1454.44 159.187Z" fill="#FFFEFE"/>
</svg>
