<svg width="68" height="36" viewBox="0 0 68 36" fill="none" xmlns="http://www.w3.org/2000/svg">
<path d="M13.7801 32.7323C13.7801 33.0762 13.77 33.4214 13.7842 33.7646C13.7923 33.9589 13.7165 34.0929 13.5689 34.2039C12.2523 35.1956 10.4334 35.2091 9.32532 34.5241C8.27473 33.8729 7.85842 32.9076 7.88076 31.7088C7.91935 29.6333 9.77344 28.3946 11.5998 28.6301C12.2469 28.7141 12.8345 28.9002 13.3618 29.2813C13.5378 29.4086 13.5777 29.5379 13.4139 29.7017C13.3598 29.7559 13.3178 29.8222 13.2657 29.8777C13.0829 30.0706 12.978 30.3766 12.7187 30.4477C12.4662 30.5181 12.2909 30.2378 12.0709 30.1315C11.3459 29.7809 10.4876 29.8696 9.96975 30.3658C9.33479 30.9736 9.16624 31.8929 9.54396 32.6876C9.87972 33.3923 10.5634 33.7666 11.3886 33.6962C11.6593 33.6739 11.9213 33.6184 12.1677 33.5006C12.3133 33.4302 12.4087 33.3402 12.4317 33.1608C12.496 32.6531 12.4243 32.5624 11.9091 32.5509C10.9046 32.5279 11.0745 32.7303 11.0562 31.6499C11.0528 31.4265 11.0826 31.2918 11.3615 31.2979C12.0547 31.3135 12.7485 31.3101 13.4417 31.3013C13.6921 31.2979 13.7849 31.4001 13.7781 31.6431C13.7673 32.0053 13.7754 32.3688 13.7754 32.7323H13.7801ZM22.4833 32.7039C22.4833 33.0484 22.4739 33.3936 22.4867 33.7368C22.4949 33.9507 22.4069 34.0888 22.2424 34.2195C21.1363 35.0948 19.3289 35.2538 18.0901 34.5749C16.8717 33.9061 16.2584 32.3491 16.6652 30.9533C17.1262 29.37 18.589 28.4271 20.2502 28.62C20.8966 28.6951 21.4862 28.888 22.0163 29.2671C22.2207 29.4133 22.2471 29.5535 22.0677 29.7322C22.0129 29.7863 21.9696 29.8513 21.9188 29.9082C21.7536 30.0936 21.6203 30.3502 21.4125 30.445C21.1654 30.5573 20.9941 30.2459 20.7768 30.1437C20.0153 29.7883 19.0486 29.8384 18.4705 30.5641C17.8755 31.3114 17.8728 32.3593 18.4915 33.108C18.9837 33.7023 20.0911 33.8919 20.8323 33.5087C21.076 33.3821 21.2107 32.9157 21.0774 32.6626C21.0381 32.5874 20.9738 32.5543 20.8946 32.5502C20.7795 32.5441 20.6624 32.5543 20.5487 32.5394C20.2901 32.5069 19.9327 32.6795 19.7926 32.4365C19.6369 32.1671 19.7418 31.8015 19.7465 31.4766C19.7479 31.3608 19.8339 31.3114 19.9395 31.3101C20.7105 31.306 21.4808 31.304 22.2518 31.3019C22.4211 31.3019 22.4867 31.3947 22.4854 31.5558C22.482 31.9389 22.4847 32.3214 22.4847 32.7039H22.4833ZM53.0153 28.6525C53.7795 28.6152 54.4273 28.8366 55.0278 29.2062C55.3371 29.3964 55.3412 29.4309 55.1205 29.7403C54.9553 29.9718 54.8525 30.3089 54.5932 30.3976C54.3488 30.4795 54.1336 30.1728 53.8777 30.0963C53.6577 30.03 53.4424 29.944 53.219 29.8885C52.9665 29.8256 52.7168 29.8703 52.4947 29.9995C52.1421 30.2033 52.1373 30.6318 52.4988 30.8227C52.733 30.9466 52.9997 31.0122 53.2569 31.0907C53.7349 31.2349 54.2216 31.35 54.6643 31.5951C55.2688 31.9301 55.5104 32.4311 55.4874 33.1107C55.4644 33.7998 55.2126 34.3454 54.5905 34.6635C53.6556 35.1428 52.6917 35.0575 51.7386 34.7076C51.3778 34.5756 51.0441 34.3826 50.7381 34.1444C50.5858 34.0266 50.5553 33.9128 50.7063 33.77C50.7889 33.6908 50.8573 33.5967 50.9344 33.5114C51.0759 33.3564 51.193 33.1472 51.3697 33.0647C51.5971 32.9584 51.7149 33.2481 51.8923 33.3429C52.3255 33.573 52.7716 33.724 53.2664 33.7186C53.4424 33.7172 53.613 33.6949 53.77 33.6143C54.1681 33.4112 54.1938 32.9902 53.81 32.7614C53.4783 32.5631 53.0924 32.4933 52.7269 32.3776C52.4345 32.2848 52.1319 32.2172 51.8489 32.1021C51.2262 31.8509 50.8572 31.4069 50.8207 30.713C50.7814 29.9684 51.0014 29.3571 51.6743 28.9605C52.1028 28.708 52.5692 28.6193 53.0153 28.6525ZM2.54798e-05 29.0715C0.45221 28.9774 0.913195 29.0491 1.36876 29.0241C1.58741 29.0112 1.65916 29.1859 1.74649 29.3294C2.05516 29.8364 2.35707 30.0219 2.66304 30.5309C2.76119 30.6934 2.86476 30.8538 2.96224 31.0082C3.15584 31.0068 3.18427 30.8552 3.24858 30.7516C3.60261 30.1823 3.96138 29.6157 4.2951 29.0343C4.42372 28.8109 4.56519 28.6863 4.83461 28.6958C5.21572 28.71 5.59818 28.6999 5.9583 28.6999C6.06999 28.9009 5.9407 28.995 5.87504 29.0979C5.26649 30.0496 4.66064 31.0041 4.03719 31.9471C3.8287 32.2632 3.71227 32.5793 3.7319 32.9638C3.75762 33.4593 3.74341 33.9582 3.73799 34.4551C3.73326 34.8734 3.72784 34.8734 3.33116 34.889C2.33541 34.9296 2.27584 34.9248 2.35098 33.9663C2.43221 32.9347 2.15332 32.3965 1.53664 31.5781C1.04249 30.9215 0.635656 30.1999 0.196333 29.5034C0.11781 29.3768 -0.00200529 29.2651 2.54798e-05 29.0715ZM63.1833 31.7467C63.1833 30.8863 63.18 30.0259 63.1847 29.1656C63.1867 28.712 63.1935 28.712 63.6166 28.7019C64.5907 28.6775 64.5907 28.6775 64.5907 29.657C64.592 30.8234 64.5907 31.989 64.5947 33.1554C64.5968 33.596 64.6028 33.6015 65.03 33.6042C65.7807 33.6082 66.5314 33.6001 67.2828 33.6062C67.6835 33.6096 67.6937 33.617 67.6917 34.0266C67.6842 35.0636 67.8027 34.8815 66.8556 34.889C65.7773 34.8984 64.6996 34.8937 63.6213 34.889C63.1894 34.8876 63.182 34.8808 63.1786 34.4408C63.1732 33.5432 63.1772 32.6443 63.1772 31.746H63.1833V31.7467ZM59.9036 31.7873C59.9043 32.668 59.9077 33.5487 59.903 34.4287C59.9009 34.8822 59.8948 34.8822 59.4725 34.893C58.4733 34.9167 58.4713 34.9167 58.4692 33.9054C58.4665 32.3552 58.4665 30.8051 58.4679 29.2549C58.4686 28.708 58.472 28.708 58.9891 28.7026C59.9043 28.6924 59.9043 28.6924 59.9043 29.6063C59.9036 30.3326 59.9036 31.0603 59.9036 31.7873ZM37.4291 31.5795C37.7744 31.4502 37.9788 31.1131 37.9504 30.7733C37.9219 30.4294 37.7202 30.1823 37.3729 30.0699C37.0771 29.9725 36.7705 29.9616 36.4638 29.9677C35.4627 29.9853 35.6224 29.8242 35.6062 30.7435C35.6062 31.0095 35.6048 31.2187 35.6069 31.4285C35.6082 31.5477 35.6305 31.6783 35.7781 31.6749C36.3305 31.6641 36.8923 31.7819 37.4291 31.5795ZM38.1216 32.7418C38.6029 33.441 39.0646 34.1125 39.6 34.8917C39.0158 34.8917 38.563 34.8863 38.1115 34.8944C37.9199 34.8978 37.8468 34.7671 37.7601 34.6419C37.4582 34.1978 37.1563 33.7531 36.851 33.3117C36.6297 32.9916 36.0753 32.8311 35.7416 32.98C35.6096 33.0396 35.6082 33.1547 35.6082 33.2671C35.6055 33.6888 35.5947 34.1098 35.6123 34.5302C35.6231 34.8016 35.5304 34.9167 35.2488 34.8964C35.0003 34.8788 34.7478 34.8802 34.4981 34.8957C34.2347 34.9127 34.1731 34.7888 34.1738 34.5546C34.1785 32.7181 34.1772 30.8802 34.1752 29.0431C34.1752 28.8576 34.1813 28.6917 34.4378 28.6985C35.4579 28.7263 36.4828 28.6274 37.4982 28.754C38.5616 28.886 39.1593 29.3849 39.3381 30.2927C39.5215 31.2336 39.1993 32.1461 38.3294 32.5908C38.28 32.6165 38.2374 32.6572 38.1216 32.7418ZM29.7731 31.9917C29.8557 30.9933 29.2465 30.1972 28.248 30.0171C28.0226 29.9765 27.7884 29.9718 27.5582 29.9711C26.903 29.9684 26.9213 29.8784 26.9219 30.5702C26.9226 31.3358 26.9185 32.1 26.924 32.8656C26.9301 33.6935 26.8157 33.6021 27.6517 33.6076C27.7674 33.6076 27.8832 33.6116 27.9982 33.6062C29.0062 33.5615 29.696 32.9333 29.7731 31.9917ZM28.6048 28.7757C30.9977 29.1696 32.0652 31.7656 30.6118 33.6915C30.006 34.4943 29.1307 34.822 28.1492 34.8856C27.7654 34.9106 27.3789 34.8896 26.993 34.8896V34.8924C26.6268 34.8924 26.2599 34.8808 25.8944 34.8957C25.6371 34.9059 25.5085 34.845 25.5099 34.5512C25.5187 32.7133 25.5133 30.8768 25.5099 29.0397C25.5099 28.8528 25.5227 28.6911 25.7759 28.7005C26.7195 28.733 27.6665 28.622 28.6048 28.7757ZM44.3283 32.2524H45.8101C45.6097 31.6472 45.3877 31.0996 45.0777 30.4585C44.8117 31.0968 44.5869 31.6343 44.3283 32.2524ZM48.2085 34.4023C48.2667 34.5397 48.3682 34.6683 48.31 34.889C47.9255 34.889 47.5261 34.8842 47.1274 34.8917C46.9297 34.8944 46.8661 34.7603 46.8065 34.6168C46.6969 34.3508 46.5832 34.0882 46.4837 33.8188C46.4058 33.6109 46.2718 33.5243 46.0464 33.527C45.4114 33.5351 44.7744 33.5392 44.1395 33.5243C43.8816 33.5182 43.7523 33.6333 43.6683 33.8533C43.5736 34.1044 43.4558 34.3467 43.3678 34.5992C43.296 34.8084 43.1803 34.9079 42.9461 34.8964C42.6015 34.8822 42.2556 34.8924 41.8846 34.8924C41.8467 34.6649 41.9469 34.5024 42.018 34.3359C42.7653 32.5949 43.5201 30.8572 44.2539 29.1101C44.3913 28.7831 44.5646 28.6396 44.9348 28.6599C45.8412 28.7114 45.6781 28.4887 46.064 29.3869C46.7801 31.0589 47.4943 32.7303 48.2085 34.4023Z" fill="white"/>
<path d="M30.9253 6.19675C30.7288 5.66267 30.5377 5.13738 30.384 4.60067C30.2262 4.04948 30.1083 3.49039 30.0196 2.92604C29.9705 2.61182 29.9778 2.60261 30.2926 2.49728C30.9298 2.28488 31.5799 2.11812 32.2472 2.02026C32.556 1.97506 32.5715 1.98471 32.6133 2.28796C32.7898 3.565 33.1633 4.78586 33.7314 5.95275C33.796 6.08484 33.8306 6.29988 33.9784 6.3069C34.1668 6.31568 34.1909 6.08748 34.2591 5.94968C34.8245 4.79596 35.1966 3.58694 35.3672 2.32175C35.4136 1.98033 35.4236 1.97199 35.7825 2.02289C36.4511 2.11812 37.098 2.29893 37.7353 2.50738C38.0259 2.60217 38.02 2.61402 37.9745 2.91594C37.8217 3.9266 37.5479 4.90742 37.1862 5.86718C37.1457 5.97513 37.0216 6.10371 37.143 6.20553C37.239 6.28583 37.3609 6.18183 37.4642 6.14058C38.5058 5.72587 39.4174 5.12421 40.2203 4.36808C40.2571 4.33297 40.2935 4.29787 40.3303 4.2632C40.6242 3.98409 40.6233 3.98541 40.9512 4.2474C41.4393 4.63709 41.9079 5.04654 42.3172 5.51347C42.5238 5.74957 42.5215 5.75308 42.3077 5.96767C40.7452 7.53479 38.8588 8.56388 36.6645 9.07996C36.5635 9.10366 36.4616 9.12165 36.3624 9.15018C36.1255 9.21907 36.1086 9.26779 36.2901 9.44552C36.8906 10.0323 37.5533 10.5475 38.2675 11.0021C38.4899 11.1438 38.4981 11.1381 38.7583 10.9056C39.8559 9.92254 41.095 9.14096 42.4614 8.54676C42.8617 8.37254 43.2743 8.22334 43.6864 8.07676C43.9662 7.97758 44.013 8.00084 44.1286 8.26722C44.3865 8.86405 44.6075 9.47317 44.749 10.106C44.8122 10.3904 44.8086 10.4044 44.5061 10.5066C43.8447 10.7305 43.2093 11.0061 42.6024 11.344C42.2103 11.5625 41.8323 11.8017 41.468 12.0606C41.3675 12.1321 41.206 12.1909 41.2228 12.3239C41.2433 12.4898 41.4389 12.4779 41.5649 12.5161C42.4942 12.7979 43.4453 12.9747 44.4174 13.0462C45.1493 13.1002 45.0074 13.0778 44.9492 13.6729C44.8955 14.2289 44.7822 14.7775 44.6176 15.3142C44.5302 15.6003 44.5216 15.6113 44.2118 15.5893C43.1497 15.5152 42.1066 15.3331 41.0841 15.0456C38.4954 14.318 36.2565 13.0278 34.3478 11.2044C33.9748 10.8476 34.0435 10.8086 33.6427 11.1952C31.6167 13.1507 29.21 14.4778 26.4275 15.1738C25.5869 15.384 24.7312 15.5226 23.8651 15.5858C23.4658 15.6152 23.4712 15.6047 23.3589 15.2471C23.1787 14.6739 23.0891 14.0854 23.0191 13.4934C22.9722 13.0989 22.9804 13.0857 23.4162 13.0568C24.3632 12.9931 25.2926 12.8426 26.2023 12.5819C26.3633 12.5359 26.5235 12.4854 26.6822 12.4319C26.8191 12.3853 26.8346 12.2985 26.7286 12.2124C26.5808 12.0922 26.4257 11.9794 26.2655 11.8741C25.4072 11.3102 24.4961 10.8437 23.5108 10.515C23.1683 10.4004 23.1651 10.3956 23.2461 10.0665C23.3948 9.46176 23.5854 8.86975 23.8497 8.30101C23.9966 7.9846 24.0021 7.97627 24.3387 8.08773C25.4581 8.45856 26.5089 8.96235 27.4955 9.59034C28.1228 9.98969 28.7064 10.4408 29.2641 10.924C29.5115 11.1386 29.5111 11.1346 29.7863 10.9591C30.4236 10.5514 31.0145 10.0902 31.5576 9.57191C31.6217 9.51047 31.6881 9.45079 31.7454 9.38408C31.8369 9.27788 31.7955 9.20152 31.6727 9.15895C31.5999 9.1335 31.523 9.11946 31.4475 9.10278C29.2168 8.61084 27.3063 7.57516 25.7106 6.0041C25.6742 5.96855 25.6387 5.93213 25.6023 5.89702C25.5059 5.80398 25.4877 5.70919 25.585 5.60387C26.0936 5.05531 26.6381 4.54362 27.2412 4.08985C27.3654 3.99638 27.4505 4.0508 27.5406 4.13944C27.8476 4.44225 28.1656 4.7332 28.5117 4.99563C29.1663 5.49196 29.8773 5.89307 30.6533 6.18885C30.722 6.2165 30.7929 6.25863 30.9253 6.19675ZM33.9593 22.9953C33.6359 22.9953 33.3116 23.008 32.9891 22.9914C32.7034 22.9764 32.6629 22.9255 32.662 22.6455C32.6588 21.7033 32.6502 20.7607 32.6661 19.8185C32.6716 19.5144 32.5801 19.2774 32.3864 19.0382C31.3138 17.7182 30.2544 16.388 29.1936 15.0592C28.922 14.7196 28.927 14.7169 29.3405 14.5265C29.8773 14.279 30.4036 14.0135 30.9085 13.7093C31.291 13.4798 31.2933 13.4842 31.5576 13.8147C32.2736 14.7099 32.9895 15.6051 33.7064 16.5C33.993 16.8576 34.0007 16.8567 34.2787 16.5092C35.0101 15.5937 35.742 14.6783 36.4743 13.7638C36.6981 13.4842 36.7031 13.4807 37.0006 13.6602C37.5711 14.0042 38.1665 14.3035 38.7747 14.58C39.0394 14.6998 39.0476 14.7384 38.8697 14.9614C37.7707 16.3407 36.6736 17.7213 35.5628 19.0927C35.3926 19.3029 35.3176 19.5091 35.3203 19.7715C35.3308 20.7133 35.3253 21.6564 35.324 22.5981C35.323 22.9382 35.3117 22.9668 34.9669 22.9892C34.6325 23.0107 34.2946 22.9935 33.9589 22.9935V22.9953H33.9593Z" fill="#E6642B"/>
</svg>
