<svg width="63" height="36" viewBox="0 0 63 36" fill="none" xmlns="http://www.w3.org/2000/svg">
<g clip-path="url(#clip0_6482_530569)">
<path fill-rule="evenodd" clip-rule="evenodd" d="M1.61539 0.0518799C1.93846 0.0518799 2.26154 0.0518799 2.58462 0.0518799C6.55701 0.537931 10.5955 0.749732 14.7 0.687279C19.4472 0.725441 24.1318 0.513642 28.7538 0.0518799C30.9078 0.0518799 33.0615 0.0518799 35.2154 0.0518799C35.9039 0.310431 36.6576 0.469281 37.477 0.528429C45.4463 0.634328 53.4152 0.740229 61.3846 0.846128C61.5323 0.97764 61.6401 1.13649 61.7077 1.32268C59.6729 1.63921 57.6266 1.74512 55.5693 1.64038C48.4402 1.49185 41.3326 1.6507 34.2461 2.11693C42.9685 2.27577 51.6916 2.32872 60.4154 2.27578C60.4154 2.38168 60.4154 2.48758 60.4154 2.59348C41.1384 2.59348 21.8615 2.59348 2.58462 2.59348C2.58462 3.33477 2.58462 4.07608 2.58462 4.81737C2.58462 5.24096 2.58462 5.66458 2.58462 6.08817C2.35075 5.26768 2.08152 4.42047 1.77693 3.54657C1.4502 3.28078 1.07328 3.17488 0.646154 3.22888C0.541306 5.51205 0.649 7.73595 0.969231 9.90056C0.969231 10.6419 0.969231 11.3832 0.969231 12.1245C0.969231 12.5481 0.969231 12.9717 0.969231 13.3953C1.06822 14.312 2.0913 31.2242 1.77693 32.0019C1.6482 30.1469 0.365713 12.7124 0.203545 10.4019C0 7.50191 0 4.60556 0 1.64038C0 0.10188 1.61539 0.0518799 1.61539 0.0518799Z" fill="#6E5216"/>
<path fill-rule="evenodd" clip-rule="evenodd" d="M2.54443 0.0519409C16.2504 0.0519409 29.9564 0.0519409 43.6624 0.0519409C36.4002 0.76667 29.0395 1.0945 21.5805 1.03543C15.1313 1.1321 8.78598 0.804266 2.54443 0.0519409Z" fill="#9D893A"/>
<path fill-rule="evenodd" clip-rule="evenodd" d="M2.90771 1.64035C10.8911 1.497 18.8603 1.65585 26.8154 2.1169C22.8308 2.16985 18.8462 2.22279 14.8616 2.27574C10.7632 2.27546 6.77863 2.06366 2.90771 1.64035Z" fill="#A79441"/>
<path fill-rule="evenodd" clip-rule="evenodd" d="M55.5692 1.64038C57.1846 1.85218 58.8 2.06398 60.4154 2.27578C51.6916 2.32872 42.9686 2.27577 34.2461 2.11693C41.3325 1.6507 48.4402 1.49185 55.5692 1.64038Z" fill="#A79441"/>
<path fill-rule="evenodd" clip-rule="evenodd" d="M60.3137 2.59351C60.621 3.04422 60.7285 3.57371 60.6367 4.18201C60.1225 4.53198 59.8533 4.32021 59.829 3.54661C59.5867 3.34781 59.3173 3.18896 59.0213 3.07006C40.606 2.85826 22.1906 2.85826 3.77522 3.07006C3.47922 3.18896 3.20997 3.34781 2.96753 3.54661C2.89968 4.04162 2.73814 4.46524 2.48291 4.81741C2.48291 4.07612 2.48291 3.33481 2.48291 2.59351C21.7598 2.59351 41.0366 2.59351 60.3137 2.59351Z" fill="#1C1B1A"/>
<path fill-rule="evenodd" clip-rule="evenodd" d="M62.3538 7.0413C62.3538 6.4059 62.0307 6.08821 62.0307 5.45281C61.506 5.40836 61.4524 5.30244 61.223 5.77051C60.854 8.19309 60.6925 10.6288 60.7384 13.0776C61.2873 13.0689 61.7183 12.8571 62.0307 12.4422C62.2414 13.7321 60.7384 18.7519 60.4153 14.3484C60.4153 13.1834 60.4153 12.0186 60.4153 10.8537C60.4994 9.05171 60.6069 7.2514 60.7384 5.45281C61.0977 4.78583 61.3132 4.04454 61.3846 3.22891C61.7787 1.25196 61.8296 0.751964 62.6769 3.22891C62.7793 4.56376 62.6714 5.83455 62.3538 7.0413Z" fill="#A18E3D"/>
<path fill-rule="evenodd" clip-rule="evenodd" d="M24.8769 7.04131C24.5539 6.61772 24.2309 6.61772 23.9077 7.04131C23.5847 6.1941 23.2615 6.1941 22.9385 7.04131C22.3551 6.13962 22.032 6.24554 21.9693 7.35901C21.8616 7.35901 21.7539 7.35901 21.6462 7.35901C21.6462 6.8295 21.6462 6.30002 21.6462 5.77051C22.7231 5.77051 23.8 5.77051 24.8769 5.77051C24.8769 6.1941 24.8769 6.61772 24.8769 7.04131Z" fill="#977521"/>
<path fill-rule="evenodd" clip-rule="evenodd" d="M34.8922 7.67669C34.8728 7.50415 34.7652 7.39826 34.5691 7.35899C34.3488 7.59495 34.1333 7.80676 33.9229 7.99439C33.7075 7.14718 33.4923 7.14718 33.2767 7.99439C33.0613 7.78258 32.8461 7.5708 32.6307 7.35899C32.9854 7.07402 32.9854 6.80928 32.6307 6.56475C32.2054 6.39697 31.9901 6.55582 31.9845 7.04129C31.7691 7.04129 31.5538 7.04129 31.3383 7.04129C30.9934 7.33818 30.5627 7.44407 30.046 7.35899C29.5936 7.54964 29.2706 7.86734 29.0768 8.31209C28.9691 8.31209 28.8614 8.31209 28.7537 8.31209C28.7854 7.43918 28.4624 7.22737 27.7844 7.67669C27.4189 7.40528 26.9881 7.40528 26.4922 7.67669C28.4313 5.02028 30.9083 4.43785 33.9229 5.92935C34.5691 6.35195 34.7568 6.64602 35.0537 7.04129C35.2773 7.33891 35.2233 7.55069 34.8922 7.67669Z" fill="#9A7926"/>
<path fill-rule="evenodd" clip-rule="evenodd" d="M41.3215 9.8519C41.211 9.5856 42.3204 6.98674 41.9999 7.04126C41.8962 6.54943 41.5732 6.33762 41.0307 6.40586C40.7077 6.40586 39.8125 7.5519 39.4895 7.5519C39.6422 7.21254 40.1511 5.7519 40.3037 5.4519C41.3215 5.4519 42.5428 5.4519 43.6624 5.4519C43.1496 6.405 41.8288 9.04484 41.3215 9.8519Z" fill="#8A681B"/>
<path fill-rule="evenodd" clip-rule="evenodd" d="M48.6494 8.00191C47.9369 7.65191 47.1601 6.40805 46.8461 7.04126C46.6647 7.60191 46.6647 8.25191 46.1999 7.04126C45.9879 6.79415 45.7188 6.58237 45.3922 6.40586C45.1451 6.42807 44.9835 6.53399 44.9075 6.72356C44.6801 6.30191 44.4256 5.70277 44.2729 5.45277C45.1381 5.45276 45.2969 5.46754 46.0384 5.45276C46.7156 5.45277 47.3771 5.45277 47.9878 5.45276C48.1383 6.05191 48.5476 7.55191 48.6494 8.00191Z" fill="#83631A"/>
<path fill-rule="evenodd" clip-rule="evenodd" d="M10.3384 5.45276C11.4153 5.45276 12.4923 5.45276 13.5692 5.45276C13.5692 6.08816 13.5692 6.72356 13.5692 7.35896C13.3567 7.07354 13.1413 6.75584 12.923 6.40586C12.7028 6.64182 12.4873 6.85363 12.2768 7.04126C12.1731 6.54943 11.85 6.33762 11.3076 6.40586C10.8948 6.49552 10.5718 6.70733 10.3384 7.04126C10.3384 6.51175 10.3384 5.98227 10.3384 5.45276Z" fill="#84651D"/>
<path fill-rule="evenodd" clip-rule="evenodd" d="M16.4878 5.75195C17.5395 5.75195 18.6421 5.75195 19.6938 5.75195C19.6938 6.28529 19.6938 6.8186 19.6938 7.35195C19.3433 7.35195 18.9417 7.35195 18.5912 7.35195C18.7269 7.03195 18.7778 6.75195 18.4216 6.50195C17.833 6.43321 17.5164 6.60656 17.4038 7.10195C17.1508 6.96835 17.0434 6.795 16.9458 6.50195C16.8482 6.795 16.7408 6.89835 16.4878 7.03195C16.4878 6.60529 16.4878 6.1786 16.4878 5.75195Z" fill="#A07E25"/>
<path fill-rule="evenodd" clip-rule="evenodd" d="M39.4154 6.40586C38.8665 6.41447 38.4355 6.62628 38.123 7.04126C38.1654 6.76283 38.0578 6.55102 37.8 6.40586C37.5138 6.66796 37.4062 6.98566 37.4769 7.35896C36.8857 6.05391 36.5626 6.1598 36.5077 7.67666C36.5633 7.99169 36.4553 8.2035 36.1846 8.31206C36.1846 7.35896 36.1846 6.40586 36.1846 5.45276C37.2614 5.45276 38.3386 5.45276 39.4154 5.45276C39.4154 5.77046 39.4154 6.08816 39.4154 6.40586Z" fill="#836720"/>
<path fill-rule="evenodd" clip-rule="evenodd" d="M52.9846 6.72358C52.6188 6.50195 52.7472 6.42809 52.5001 6.40589C52.1733 6.5824 51.9043 6.79418 51.6924 7.04128C51.1431 7.60195 50.6342 7.60195 50.7231 6.40589C50.4 6.40589 50.0769 6.40589 49.7539 6.40589C49.82 6.15195 49.9217 5.75195 49.9726 5.50195C51.1431 5.55193 52.3644 5.55195 53.6875 5.55195C53.433 5.95195 53.2295 6.30195 52.9846 6.72358Z" fill="#8B6A1C"/>
<path fill-rule="evenodd" clip-rule="evenodd" d="M31.3111 6.52396C31.4072 6.80868 31.1077 7.04481 30.8092 6.98193C30.3464 6.88445 30.2874 6.68113 30.632 6.37196C30.8401 6.18542 31.1853 6.213 31.2907 6.46957C31.2981 6.48752 31.3049 6.50565 31.3111 6.52396Z" fill="#221B10"/>
<path fill-rule="evenodd" clip-rule="evenodd" d="M23.835 6.5842C24.0336 6.90458 23.9889 7.37614 23.6379 7.52377C23.4947 7.58401 23.3514 7.58401 23.2082 7.52377C22.8573 7.37614 22.8125 6.90458 23.0112 6.5842C23.2858 6.14121 23.5604 6.14121 23.835 6.5842Z" fill="#231E12"/>
<path fill-rule="evenodd" clip-rule="evenodd" d="M29.8642 6.88478C29.9678 7.11286 29.7845 7.359 29.5303 7.359C29.2954 7.359 29.1153 7.14626 29.182 6.92494C29.3684 6.30694 29.5959 6.29355 29.8642 6.88478Z" fill="#1D190E"/>
<path fill-rule="evenodd" clip-rule="evenodd" d="M32.6913 7.30736C32.6527 7.3424 32.6035 7.36474 32.5512 7.36945C32.2962 7.39236 32.1159 7.30134 32.0101 7.09644C31.9917 7.06082 31.9844 7.0205 31.9864 6.98061C32.0084 6.55479 32.2122 6.412 32.5977 6.55224C32.6197 6.56023 32.6405 6.57135 32.6594 6.58511C32.9648 6.80906 32.9755 7.0498 32.6913 7.30736Z" fill="#19150C"/>
<path fill-rule="evenodd" clip-rule="evenodd" d="M11.6534 6.31653C11.7078 7.12711 11.5196 7.43892 12.1114 7.05193C12.3219 6.8643 12.7028 6.64184 12.923 6.40588C13.1413 6.75586 13.3567 7.07356 13.5692 7.35898C13.5692 9.15928 13.5692 10.9596 13.5692 12.7599C13.2499 11.1267 13.1422 9.43235 13.246 7.67668C12.829 7.60129 12.5059 7.70718 12.2768 7.99438C11.9538 7.99438 11.6307 7.99438 11.3076 7.99438C11.0786 7.70718 10.7555 7.60129 10.3384 7.67668C10.3384 7.46487 10.3384 7.16374 10.3384 6.95193C10.5718 6.61799 11.2406 6.40618 11.6534 6.31653Z" fill="#BCAA50"/>
<path fill-rule="evenodd" clip-rule="evenodd" d="M11.4143 7.09296C10.9825 6.65243 11.688 5.89937 12.1546 6.30419C12.5188 6.62009 12.258 7.27136 11.7727 7.2514C11.6316 7.2456 11.5121 7.19279 11.4143 7.09296Z" fill="#1F1B0F"/>
<path fill-rule="evenodd" clip-rule="evenodd" d="M22.9386 7.04128C23.2616 7.46487 23.5846 7.46487 23.9078 7.04128C24.2308 6.61769 24.5539 6.61769 24.877 7.04128C24.877 7.46487 24.877 7.88849 24.877 8.31208C24.5539 7.88849 24.2308 7.88849 23.9078 8.31208C23.804 7.82025 23.6967 7.8337 23.1543 7.90194C23.1543 8.21964 23.0526 8.48424 23.0526 8.80194C22.6075 8.46991 22.1703 7.87416 21.9692 7.35898C22.032 6.24551 22.3551 6.13959 22.9386 7.04128Z" fill="#D0B94F"/>
<path fill-rule="evenodd" clip-rule="evenodd" d="M38.123 6.55196C38.4435 6.60648 38.1067 7.01826 38.2172 6.75196C38.5297 6.33699 38.8664 6.41453 39.4152 6.40592C39.4385 6.65197 39.4529 7.21261 39.5403 7.45197C39.6301 7.16102 39.8281 6.53856 40.0614 6.40592C40.3845 6.40592 40.7076 6.40592 41.0306 6.40592C41.5759 6.40592 41.9999 6.40592 41.9999 7.04132C41.6254 7.43536 41.3024 7.85895 41.0306 8.31212C40.8634 8.85195 40.8634 8.90196 40.3845 8.31212C39.8631 7.81187 39.2169 7.60006 38.446 7.67672C38.5227 8.08687 38.4151 8.40457 38.123 8.62981C38.1663 8.15197 37.3269 8.28573 37.4768 8.62981C37.283 8.18497 36.9599 7.86727 36.5076 7.67672C36.5625 6.15986 36.8432 5.40196 38.123 6.55196Z" fill="#B49D41"/>
<path fill-rule="evenodd" clip-rule="evenodd" d="M46.2001 7.04128C46.4155 7.46487 46.6307 7.46487 46.8463 7.04128C47.1602 6.40808 47.5909 6.30219 48.1385 6.72358C48.3356 7.00665 48.4431 7.32435 48.4616 7.67668C48.1411 7.62216 47.9259 7.72808 47.8155 7.99438C47.1377 7.54506 46.8145 7.75687 46.8463 8.62978C46.6359 8.44214 46.4204 8.23033 46.2001 7.99438C46.004 8.03365 45.8964 8.13954 45.8769 8.31208C45.4436 7.60193 45.3418 7.45193 44.9077 6.72358C44.9836 6.53401 45.1453 6.42809 45.3924 6.40588C45.719 6.5824 45.9881 6.79418 46.2001 7.04128Z" fill="#C7AF4A"/>
<path fill-rule="evenodd" clip-rule="evenodd" d="M49.7538 6.40588C50.0769 6.40588 50.3999 6.40588 50.7231 6.40588C50.7773 7.21646 51.1004 7.42827 51.6923 7.04128C51.9042 6.79418 52.1733 6.5824 52.5 6.40588C52.7471 6.42809 52.9086 6.53401 52.9846 6.72358C52.5 7.50193 52.1099 8.15193 51.6923 8.94748C51.3466 8.55193 51.4768 8.31208 51.0461 8.31208C50.7231 7.46487 50.3999 7.46487 50.0769 8.31208C49.7891 8.11835 49.4659 8.01246 49.1077 7.99438C49.3619 7.45193 49.5655 6.95193 49.7538 6.40588Z" fill="#C8B14C"/>
<path fill-rule="evenodd" clip-rule="evenodd" d="M28.8227 7.68438C29.1492 8.14304 28.4677 8.71838 27.9753 8.43702C27.5008 8.16589 27.755 7.47708 28.3034 7.45279C28.5325 7.44265 28.7056 7.51984 28.8227 7.68438Z" fill="#1C1A10"/>
<path fill-rule="evenodd" clip-rule="evenodd" d="M31.3385 7.04126C31.5539 7.04126 31.7692 7.04126 31.9847 7.04126C32.095 7.30756 32.3105 7.41348 32.6308 7.35896C32.8463 7.57077 33.0615 7.78255 33.2769 7.99436C33.4924 8.41795 33.7076 8.41795 33.9231 7.99436C34.1334 7.80673 34.349 7.59492 34.5692 7.35896C34.7653 7.39823 35.1955 7.27937 35.2149 7.45191C34.706 7.90191 33.8918 8.65191 33.2769 9.26516C32.416 7.45191 30.5331 7.55191 29.4 8.62976C29.4 8.41795 29.2924 8.31206 29.0769 8.31206C29.2707 7.86731 29.5938 7.54961 30.0461 7.35896C30.5627 7.44404 30.9936 7.33815 31.3385 7.04126Z" fill="#DFD063"/>
<path fill-rule="evenodd" clip-rule="evenodd" d="M34.0068 7.64217C34.1463 7.86151 34.1095 8.17303 33.8755 8.29159C33.7168 8.37204 33.558 8.37204 33.3994 8.29159C33.1654 8.17303 33.1285 7.86151 33.2681 7.64217C33.5144 7.25518 33.7605 7.25518 34.0068 7.64217Z" fill="#1B1A12"/>
<path fill-rule="evenodd" clip-rule="evenodd" d="M2.59541 6.08818C2.59541 6.61769 2.59541 7.14717 2.59541 7.67667C2.59541 9.90057 2.55521 12.1245 2.55521 14.3484C2.50432 15.1019 1.84277 15.1019 1.30311 14.3484C1.07944 14.0019 1.02856 14.0519 0.980032 13.3953C0.980032 12.9717 0.980032 10.3242 0.980032 9.90057C1.27209 10.1258 1.30311 12.6019 1.63922 12.9519C1.94455 13.0019 1.86517 13.0519 2.18825 13.0519C2.24198 10.8255 1.80063 8.82331 1.63922 6.60193C1.31249 6.33614 1.65924 6.35187 1.23211 6.40588C1.23211 7.67667 0.980032 8.62977 0.980032 9.90057C0.659802 7.73596 0.552107 5.51206 0.656956 3.22889C1.08408 3.17489 1.46101 3.28079 1.78772 3.54659C2.09232 4.42048 2.36155 5.26769 2.59541 6.08818Z" fill="#A3913F"/>
<path fill-rule="evenodd" clip-rule="evenodd" d="M48.4616 7.67668C48.677 7.78257 48.8922 7.88849 49.1077 7.99438C49.466 8.01246 49.769 7.35899 50.0769 7.99439C50.685 6.83426 50.5832 6.90194 51.0462 8.31208C51.4768 8.31208 51.6923 8.52389 51.6923 8.94748C51.4483 9.26518 51.3466 9.40195 51.0462 9.90058C50.7722 9.54317 50.5323 9.75195 50.0769 9.90058C50.0769 9.47699 49.9452 9.50195 49.5146 9.50195C49.1915 9.50195 48.7846 9.50195 48.4616 9.50195C48.0445 9.42656 48.0135 9.29568 47.7844 9.58288C47.4613 9.58288 46.8462 9.58288 46.5231 9.58288C46.3086 9.10195 46.1559 8.85195 45.877 8.31208C45.8963 8.13954 46.0039 8.03365 46.2 7.99438C46.4203 8.23034 46.658 7.36432 46.8684 7.55195C47.4108 7.62019 47.4771 8.04378 47.5808 7.55195C47.6913 7.28565 48.1411 7.62217 48.4616 7.67668Z" fill="#EFEB80"/>
<path fill-rule="evenodd" clip-rule="evenodd" d="M1.17051 12.2519C1.03041 11.5019 0.969238 10.6418 0.969238 9.90057C0.969238 8.62978 1.17051 5.52275 1.17051 4.25195C1.32088 3.70195 1.51322 5.748 1.78117 6.75195C1.94259 8.97333 2.31527 10.8511 2.26155 13.0775C2.13739 13.5019 2.10425 13.9519 1.78117 13.9519C1.47584 13.6019 1.37177 13.3294 1.17051 12.2519Z" fill="#E3E47F"/>
<path fill-rule="evenodd" clip-rule="evenodd" d="M17.4461 7.04128C17.6752 7.32848 17.9983 7.43437 18.4154 7.35898C18.7384 7.35898 19.0615 7.35898 19.3846 7.35898C19.4923 7.35898 19.5999 7.35898 19.7076 7.35898C19.7076 9.05337 19.7076 10.7478 19.7076 12.4422C20.0501 12.9519 21.4743 12.9519 21.7294 12.4422C22.2007 12.4208 22.2251 12.5266 22.6154 12.7599C23.0286 13.1459 23.3517 13.04 23.5846 12.4422C24.127 12.3739 24.45 12.5857 24.5538 13.0776C24.5538 13.1835 24.5538 13.2894 24.5538 13.3953C23.8867 13.4007 23.2406 13.5066 22.6154 13.713C22.3863 13.4258 22.0633 13.3199 21.6462 13.3953C21.4307 13.5012 21.2154 13.6071 21 13.713C20.6551 13.4161 20.2242 13.3102 19.7076 13.3953C19.2905 13.3199 18.9675 13.4258 18.7384 13.713C18.3482 13.9462 17.9174 14.0521 17.4461 14.0307C17.0294 13.8535 16.7602 13.5358 16.6384 13.0776C16.477 11.0682 16.4232 9.05616 16.4769 7.04128C16.7101 6.90864 16.8716 6.69683 16.9615 6.40588C17.0515 6.69683 17.213 6.90864 17.4461 7.04128Z" fill="#E1D972"/>
<path fill-rule="evenodd" clip-rule="evenodd" d="M17.5388 8.53269C17.2261 8.27311 17.5627 7.79785 17.9553 7.91164C18.3627 8.02974 18.3373 8.62028 17.9135 8.65033C17.7704 8.66049 17.6454 8.62127 17.5388 8.53269Z" fill="#1A1910"/>
<path fill-rule="evenodd" clip-rule="evenodd" d="M17.9222 9.2978C18.1919 9.2074 18.4153 9.47487 18.4153 9.75484C18.4153 10.0233 18.2135 10.2773 17.9468 10.2189C17.8729 10.2028 17.8035 10.178 17.7386 10.1447C17.5212 10.0331 17.4505 9.74923 17.5875 9.54941C17.6702 9.42874 17.7818 9.34487 17.9222 9.2978Z" fill="#353520"/>
<path fill-rule="evenodd" clip-rule="evenodd" d="M10.3384 7.67665C10.7555 7.60126 11.0786 7.70715 11.3076 7.99435C11.6307 8.84156 11.9538 8.84156 12.2768 7.99435C12.5059 7.70715 12.829 7.60126 13.246 7.67665C13.1422 9.43232 13.2499 11.1267 13.5692 12.7598C14.1482 13.0169 14.7943 13.1757 15.5076 13.2364C14.2273 13.5975 13.1503 13.3328 12.2768 12.4422C11.8636 12.0561 11.5406 12.162 11.3076 12.7598C11.2162 13.0105 11.0547 13.2224 10.823 13.3952C10.759 12.7974 10.5975 12.2679 10.3384 11.8068C10.3384 10.4301 10.3384 9.05334 10.3384 7.67665Z" fill="#EFED96"/>
<path fill-rule="evenodd" clip-rule="evenodd" d="M11.3475 9.5232C11.4628 9.26303 11.805 9.16595 12.0521 9.31291C12.2819 9.44961 12.361 9.63818 12.2894 9.87861C12.1946 10.1967 11.7745 10.3167 11.5089 10.1122C11.2989 9.95052 11.245 9.75416 11.3475 9.5232Z" fill="#262518"/>
<path fill-rule="evenodd" clip-rule="evenodd" d="M11.3316 8.47839C11.122 8.14849 11.4103 7.75195 11.8061 7.75195C12.2019 7.75195 12.4901 8.14849 12.2805 8.47839C11.9642 8.97647 11.6479 8.97647 11.3316 8.47839Z" fill="#1A1810"/>
<path fill-rule="evenodd" clip-rule="evenodd" d="M18.4154 9.26514C18.7385 9.26514 19.0615 9.26514 19.3846 9.26514C19.5638 10.381 19.3484 11.3341 18.7385 12.1245C18.4154 12.1245 18.0923 12.1245 17.7692 12.1245C17.4462 12.1245 17.123 12.1245 16.8 12.1245C16.747 11.2707 16.8008 10.4235 16.9615 9.58284C17.0852 9.75948 17.2467 9.86537 17.4462 9.90054C17.6752 10.1878 17.9983 10.2936 18.4154 10.2183C18.4154 9.90054 18.4154 9.58284 18.4154 9.26514Z" fill="#F8F8A9"/>
<path fill-rule="evenodd" clip-rule="evenodd" d="M27.7847 7.6767C27.9375 8.12348 28.2606 8.33529 28.7539 8.3121C28.8616 8.3121 28.9692 8.3121 29.0769 8.3121C29.2924 8.3121 29.542 8.3121 29.3627 8.80195C28.3233 11.6418 30.2787 13.0776 32.3077 12.4422C32.9539 12.2519 33.0233 12.8619 32.9539 13.3953C32.8463 13.3953 32.7383 13.3953 32.6308 13.3953C31.3723 13.165 30.08 12.9532 28.7539 12.7599C28.3407 12.3738 28.0176 12.4797 27.7847 13.0776C27.4191 13.349 26.9882 13.349 26.4923 13.0776C26.1567 12.6519 26.0042 12.3019 25.9024 11.7519C25.6987 10.1519 25.9024 8.95195 26.4923 7.6767C26.9882 7.40529 27.4191 7.40529 27.7847 7.6767Z" fill="#EBE88C"/>
<path fill-rule="evenodd" clip-rule="evenodd" d="M27.2135 9.13176C26.9898 8.81633 27.299 8.38969 27.6679 8.51768C27.7062 8.53096 27.7439 8.54625 27.781 8.56355C28.1198 8.72143 28.1017 9.22648 27.7417 9.32962C27.5268 9.39121 27.3507 9.32526 27.2135 9.13176Z" fill="#1F1E13"/>
<path fill-rule="evenodd" clip-rule="evenodd" d="M26.9047 10.4475C26.7683 10.1638 26.9976 9.85193 27.3169 9.85193C27.6114 9.85193 27.8369 10.1199 27.7487 10.3959C27.5172 11.1196 27.2358 11.1368 26.9047 10.4475Z" fill="#2B2B1C"/>
<path fill-rule="evenodd" clip-rule="evenodd" d="M40.3845 8.94745C40.7749 9.18067 41.2205 9.18869 41.6777 9.30192C41.3539 9.90192 41.1874 10.3356 41.0671 10.6519C41.6777 11.6519 42.0848 12.4422 42.6461 13.3952C42.5356 13.6615 42.3204 13.7675 42 13.7129C41.7845 13.5011 41.5693 13.2894 41.3539 13.0775C41.201 12.6308 40.878 12.419 40.3845 12.4422C39.5088 12.342 39.1546 13.4282 38.5226 13.9519C38.3072 12.6811 38.1155 13.7129 37.4769 13.0775C36.7568 11.9393 36.4337 10.6685 36.5077 9.26515C36.8308 9.26515 37.1538 9.26515 37.4769 9.26515C37.8611 8.94745 37.7593 9.17811 38.1155 9.15192C38.6944 9.10935 39.1949 9.24754 39.6931 9.50192C40.1237 9.50192 40.3845 9.37104 40.3845 8.94745Z" fill="#EAE997"/>
<path fill-rule="evenodd" clip-rule="evenodd" d="M21.6462 7.35901C21.7539 7.35901 21.8616 7.35901 21.9693 7.35901C22.1704 7.8742 22.4935 8.29778 22.9386 8.62981C23.3557 8.7052 23.6787 8.59931 23.9078 8.31211C24.2309 7.88852 24.5539 7.88852 24.877 8.31211C24.9806 9.96243 24.8473 11.8753 24.5284 13.4019C24.4245 12.9101 24.1271 12.3739 23.5847 12.4422C23.1171 12.0021 22.7941 12.108 22.6155 12.7599C22.2252 12.5266 22.1366 12.7019 21.7295 12.4422C21.7295 10.8019 21.7295 9.10196 21.6462 7.35901Z" fill="#EFEF99"/>
<path fill-rule="evenodd" clip-rule="evenodd" d="M22.9385 9.74169C22.9385 9.47872 23.1555 9.26514 23.423 9.26514C23.6907 9.26514 23.9077 9.47872 23.9077 9.74169C23.9077 10.0047 23.6907 10.2183 23.423 10.2183C23.1555 10.2183 22.9385 10.0047 22.9385 9.74169Z" fill="#46462B"/>
<path fill-rule="evenodd" clip-rule="evenodd" d="M38.9067 10.3099C38.9977 10.0451 39.3661 9.9802 39.5829 10.1611C39.7708 10.3177 39.7832 10.486 39.6204 10.666C39.4681 10.8343 39.1928 10.8618 39.0225 10.7112C38.8929 10.5966 38.8542 10.4628 38.9067 10.3099Z" fill="#252518"/>
<path fill-rule="evenodd" clip-rule="evenodd" d="M48.4615 9.26514C48.7845 9.26514 49.2423 9.35191 49.5654 9.35191C49.5654 9.7755 49.5419 9.58284 49.9725 9.58284C50.3447 9.22543 51.4482 9.40191 51.046 9.90054C50.9643 10.0019 50.7867 10.5019 50.723 10.8537C50.5831 11.3519 50.3796 11.8019 50.3796 12.5019C50.0565 12.5019 49.7357 12.5519 49.4127 12.5519C48.9452 12.1119 48.4718 12.2501 48.2932 12.9019C48.0053 12.7082 47.7354 12.57 47.3772 12.5519C47.469 11.9436 47.4764 11.3044 47.1691 10.8537C46.9701 10.4519 46.7665 10.0519 46.5229 9.58284C46.8461 9.58284 47.1691 9.58284 47.4922 9.58284C47.9597 10.0229 48.2828 9.917 48.4615 9.26514Z" fill="#EEEEA2"/>
<path fill-rule="evenodd" clip-rule="evenodd" d="M11.4126 11.2368C11.2229 10.9044 11.5148 10.4935 11.8856 10.6051C11.9728 10.6314 12.0574 10.6673 12.1392 10.713C12.4579 10.891 12.4381 11.3628 12.0996 11.501C11.8096 11.6194 11.5806 11.5313 11.4126 11.2368Z" fill="#1C1C15"/>
<path fill-rule="evenodd" clip-rule="evenodd" d="M23.0348 11.4327C22.7222 11.1731 23.0588 10.6979 23.4514 10.8117C23.8588 10.9298 23.8334 11.5203 23.4096 11.5504C23.2665 11.5605 23.1415 11.5213 23.0348 11.4327Z" fill="#1F1F14"/>
<path fill-rule="evenodd" clip-rule="evenodd" d="M37.3831 11.2954C37.1672 10.915 37.6394 10.5171 38.0298 10.7233C38.2443 10.8366 38.3139 11.001 38.239 11.2167C38.1126 11.5801 37.5735 11.6308 37.3831 11.2954Z" fill="black"/>
<path fill-rule="evenodd" clip-rule="evenodd" d="M17.5112 11.2624C17.3327 11.0341 17.5521 10.7199 17.8393 10.7771C17.9162 10.7924 17.9907 10.8146 18.0628 10.8439C18.3417 10.9571 18.3262 11.3491 18.0357 11.4289C17.8193 11.4883 17.6444 11.4328 17.5112 11.2624Z" fill="#2A2A19"/>
<path fill-rule="evenodd" clip-rule="evenodd" d="M27.2183 11.4834C27.3229 11.267 27.6187 11.2148 27.8165 11.3549C28.0686 11.5335 28.0867 11.7277 27.8708 11.9374C27.7313 12.0731 27.5046 12.0956 27.3489 11.9782C27.1683 11.842 27.1247 11.6771 27.2183 11.4834Z" fill="#262619"/>
<path fill-rule="evenodd" clip-rule="evenodd" d="M39.5727 11.7212C39.4143 11.2622 39.9889 10.8699 40.3372 11.2131C40.4697 11.3437 40.5248 11.4996 40.5024 11.6807C40.443 12.1624 39.7312 12.1807 39.5727 11.7212Z" fill="#1A1A11"/>
<path fill-rule="evenodd" clip-rule="evenodd" d="M11.699 12.056C12.2316 11.9877 12.4882 12.7671 12.1562 13.1819C12.0944 13.2592 12.0233 13.3101 11.9428 13.3347C11.2996 13.5312 11.0312 12.1415 11.699 12.056Z" fill="#1F1F15"/>
<path fill-rule="evenodd" clip-rule="evenodd" d="M17.9089 12.6025C17.7954 12.3354 18.0088 12.0519 18.3033 12.0519C18.5765 12.0519 18.7861 12.2975 18.7135 12.5561C18.4946 13.3348 18.2265 13.3502 17.9089 12.6025Z" fill="#242317"/>
<path fill-rule="evenodd" clip-rule="evenodd" d="M23.0642 11.9525C23.5933 11.9262 23.78 12.7574 23.3454 13.0551C23.2593 13.114 23.1683 13.1461 23.0724 13.1512C22.5903 13.177 22.3939 12.4746 22.7202 12.1249C22.8215 12.0164 22.9361 11.9589 23.0642 11.9525Z" fill="#252417"/>
<path fill-rule="evenodd" clip-rule="evenodd" d="M28.7536 12.7599C28.6554 13.4892 28.3324 13.5951 27.7844 13.0776C28.0174 12.4797 28.3404 12.3738 28.7536 12.7599Z" fill="#222014"/>
<path fill-rule="evenodd" clip-rule="evenodd" d="M10.3384 11.8068C10.5975 12.2679 10.759 12.7974 10.823 13.3953C11.0547 13.2224 11.2162 13.0106 11.3076 12.7599C11.8556 13.2774 12.1786 13.1715 12.2768 12.4422C13.1503 13.3328 14.2273 13.5975 15.5076 13.2364C14.7943 13.1758 14.1482 13.0169 13.5692 12.7599C14.323 12.7599 15.0768 12.7599 15.8307 12.7599C15.8307 13.2894 15.8307 13.8188 15.8307 14.3484C15.6153 14.2425 15.4 14.1365 15.1845 14.0307C15.0742 13.7644 14.8587 13.6584 14.5384 13.713C14.2903 13.9552 14.1288 14.2729 14.0538 14.6661C13.9249 14.5935 13.8711 14.4876 13.8922 14.3484C13.7884 13.8565 13.4654 13.6447 12.923 13.713C12.7076 13.713 12.4923 13.713 12.2768 13.713C11.8597 13.6376 11.5367 13.7435 11.3076 14.0307C10.9493 14.0126 10.6262 13.9067 10.3384 13.713C10.3384 13.0776 10.3384 12.4422 10.3384 11.8068Z" fill="#CBBB56"/>
<path fill-rule="evenodd" clip-rule="evenodd" d="M47.4282 12.4519C47.7919 12.4713 48.2047 11.9446 48.4969 12.1519C48.9379 12.3119 49.1595 12.3417 49.3959 11.7019C49.7239 11.7019 50.0518 12.4519 50.3798 12.4519C50.3798 13.0186 50.3798 13.5852 50.3798 14.1519C50.0518 14.1519 49.6899 14.7019 49.362 14.7019C49.362 14.4753 48.8174 14.7519 48.5987 14.7519C48.1333 14.4286 48.0563 13.3752 47.4282 13.4719C47.4282 13.1319 47.4282 12.7919 47.4282 12.4519Z" fill="#EFE06A"/>
<path fill-rule="evenodd" clip-rule="evenodd" d="M42 7.04125C42.3205 6.98673 42.899 7.00192 42.6955 7.35192C42.3901 7.87692 42.1611 8.35192 41.8812 8.90191C41.7795 9.10191 41.7552 9.16518 41.6777 9.30192C41.3732 9.83869 40.7749 9.18067 40.3846 8.94744C40.3653 8.7749 40.151 8.75192 39.9475 8.75192C39.4386 8.94744 39.6677 9.20954 39.7384 9.58284C39.2402 9.32846 38.702 9.22257 38.123 9.26514C37.9076 9.26514 37.6924 9.26514 37.4769 9.26514C37.1538 9.26514 36.8308 9.26514 36.5077 9.26514C36.4337 10.6685 36.7568 11.9393 37.4769 13.0775C37.6924 13.0775 37.9076 13.0775 38.123 13.0775C38.7551 12.5538 39.5087 12.342 40.3846 12.4421C41.0308 11.9519 41.0308 12.3019 41.3538 13.0775C41.5693 13.2894 41.7844 13.5011 42 13.7129C41.4575 13.6447 41.1345 13.8565 41.0308 14.3483C40.7076 14.3483 40.3846 14.3483 40.0616 14.3483C39.2859 10.8519 39.3368 14.3019 39.3368 15.3519C39.0138 15.3519 38.693 15.3519 38.3699 15.3519C38.4465 14.9418 38.4151 13.9382 38.123 13.7129C37.9076 13.7129 37.6924 13.7129 37.4769 13.7129C37.1629 14.3461 36.7322 14.452 36.1846 14.0306C36.1846 12.1244 36.1846 10.2182 36.1846 8.31204C36.4553 8.20349 36.5633 7.99168 36.5077 7.67665C36.96 7.8672 37.283 8.1849 37.4769 8.62974C37.6575 8.94744 37.9628 8.85192 38.123 8.62974C38.4151 8.40449 38.5227 8.0868 38.4462 7.67665C39.217 7.59999 39.8632 7.8118 40.3846 8.31204C40.6001 8.31204 40.8152 8.31204 41.0308 8.31204C41.3024 7.85888 41.6256 7.43529 42 7.04125Z" fill="#DBCE64"/>
<path fill-rule="evenodd" clip-rule="evenodd" d="M28.7537 12.7599C30.0798 12.9532 31.3722 13.165 32.6307 13.3953C32.3103 13.3407 32.0949 13.4467 31.9845 13.713C31.7691 13.713 31.5538 13.713 31.3383 13.713C31.1229 13.713 30.9076 13.713 30.6922 13.713C30.4001 13.9382 30.2924 14.2559 30.3691 14.6661C29.7229 14.6661 29.6017 15.1519 28.9555 15.1519C28.119 14.8598 26.9479 13.8445 26.4922 13.0776C26.9881 13.349 27.4189 13.349 27.7844 13.0776C28.3324 13.5951 28.6555 13.4892 28.7537 12.7599Z" fill="#C5AF48"/>
<path fill-rule="evenodd" clip-rule="evenodd" d="M29.1135 13.9384C29.0027 13.6402 29.3222 13.389 29.6368 13.4613C30.0626 13.5592 30.1181 13.7542 29.8035 14.0462C29.5869 14.2472 29.2158 14.2134 29.1135 13.9384Z" fill="#201C10"/>
<path fill-rule="evenodd" clip-rule="evenodd" d="M33.6372 14.9519C33.2066 14.9519 33.3844 14.3484 32.9537 14.3484C32.9537 14.0307 32.9537 13.713 32.9537 13.3953C33.0232 12.8619 32.8076 12.5442 32.3076 12.4422C32.823 12.1519 33.0775 11.6519 33.2768 11.1714C34.0305 11.7538 34.7846 12.3363 35.5383 12.9187C35.2709 13.5517 34.2314 14.6318 33.6372 14.9519Z" fill="#C9BA5A"/>
<path fill-rule="evenodd" clip-rule="evenodd" d="M33.0174 13.0069C32.9338 12.7027 33.246 12.4566 33.5562 12.5364C34.1017 12.6768 34.2332 12.9613 33.9508 13.3901C33.7985 13.6212 33.4638 13.667 33.2749 13.4637C33.1499 13.329 33.064 13.1767 33.0174 13.0069Z" fill="#020205"/>
<path fill-rule="evenodd" clip-rule="evenodd" d="M62.3537 7.04127C62.2222 8.83986 62.1147 10.6402 62.0306 12.4421C61.3715 16.6019 60.7706 14.8019 60.7383 13.0775C60.6924 10.6288 60.8539 8.19305 61.2229 5.77047C62.0306 1.45192 61.9136 3.61878 62.2366 5.05194C62.4095 5.81878 62.3537 6.40587 62.3537 7.04127Z" fill="#E2E17D"/>
<path fill-rule="evenodd" clip-rule="evenodd" d="M37.4769 13.713C37.7593 13.3519 37.9143 13.5519 38.123 13.713C38.4151 13.9382 38.5227 14.2559 38.4462 14.6661C38.7692 14.6661 38.8102 15.3519 39.1333 15.3519C38.0646 15.3519 37.4769 15.3519 36.1846 15.3519C36.1846 14.9284 36.1846 14.4543 36.1846 14.0307C36.7322 14.4521 37.1629 14.3462 37.4769 13.713Z" fill="#8C6A1A"/>
<path fill-rule="evenodd" clip-rule="evenodd" d="M42.6462 13.3953C42.8991 14.0019 43.2553 14.6019 43.6115 15.3519C42.5391 15.3519 41.5639 15.3519 40.4564 15.3519C40.3038 15.0019 40.1898 14.7019 40.0493 14.3484C40.3724 14.3484 40.7077 14.3484 41.0308 14.3484C40.8126 13.1019 41.2198 13.3953 42 13.713C42.3205 13.7675 42.5356 13.6616 42.6462 13.3953Z" fill="#9A771E"/>
<path fill-rule="evenodd" clip-rule="evenodd" d="M47.1692 10.8537C47.4765 11.3044 47.584 11.8339 47.4922 12.4422C47.4922 12.7599 47.4922 13.0776 47.4922 13.3953C48.1109 13.3049 48.0384 13.3498 48.4968 13.6519C48.1746 13.6424 48.9616 13.8247 48.853 14.1519C49.2187 14.721 49.4886 14.7056 49.769 14.0307C50.092 14.0307 50.0769 14.0307 50.4 14.0307C50.4 14.4542 50.4 14.9283 50.4 15.3519C49.4308 15.3519 48.1384 15.3519 47.1692 15.3519C47.1692 14.7019 47.1692 14.1895 47.1692 13.713C47.1692 12.7599 47.1692 11.8068 47.1692 10.8537Z" fill="#A28329"/>
<path fill-rule="evenodd" clip-rule="evenodd" d="M10.3384 13.713C10.6262 13.9067 10.9493 14.0126 11.3076 14.0307C11.8911 14.9324 12.2141 14.8264 12.2768 13.713C12.4923 13.713 12.7076 13.713 12.923 13.713C12.8913 14.5859 13.2143 14.7977 13.8922 14.3484C13.8711 14.4876 13.9249 14.5935 14.0538 14.6661C14.1288 14.2729 14.2903 13.9552 14.5384 13.713C14.4677 14.0863 14.5754 14.404 14.8615 14.6661C15.1192 14.5209 15.2268 14.3091 15.1845 14.0307C15.4 14.1366 15.6153 14.2425 15.8307 14.3484C15.8307 14.6661 15.8307 14.9838 15.8307 15.3015C13.9999 15.3015 12.1691 15.3015 10.3384 15.3015C10.3384 14.772 10.3384 14.2425 10.3384 13.713Z" fill="#926E19"/>
<path fill-rule="evenodd" clip-rule="evenodd" d="M12.8766 14.4184C12.5742 13.9334 13.2383 13.2935 13.6822 13.6586C14.0501 13.9612 13.8036 14.5928 13.3259 14.6357C13.1277 14.6534 12.9779 14.581 12.8766 14.4184Z" fill="#1F1A0F"/>
<path fill-rule="evenodd" clip-rule="evenodd" d="M11.6651 13.5219C12.1059 13.3839 12.5349 13.8412 12.388 14.2722C12.2355 14.7195 11.9646 14.7716 11.5754 14.4287C11.2574 14.1486 11.2583 13.6493 11.6651 13.5219Z" fill="#1F1A0F"/>
<path fill-rule="evenodd" clip-rule="evenodd" d="M19.7078 13.3952C20.2243 13.3102 20.6551 13.4161 21 13.7129C21.2154 13.6071 21.4308 13.5011 21.6462 13.3952C21.7089 14.5087 22.032 14.6146 22.6154 13.7129C23.2407 13.5066 23.8868 13.4007 24.5539 13.3952C24.4462 13.6071 24.3248 13.843 24.1721 14.0019C23.4768 14.7257 22.674 15.178 21.6462 15.3014C20.671 15.3537 19.7018 15.3601 18.7385 15.2019C18.1493 14.9922 16.6915 14.5519 16.6406 13.0519C17.1119 13.0733 18.3482 13.9462 18.7385 13.7129C19.2061 14.153 19.5292 14.0471 19.7078 13.3952Z" fill="#997923"/>
<path fill-rule="evenodd" clip-rule="evenodd" d="M20.7058 13.5017C21.0126 13.4072 21.2701 13.7188 21.1773 14.0212C21.0454 14.4504 20.796 14.5589 20.4292 14.3465C20.1849 14.2051 20.1385 13.8656 20.3573 13.6884C20.4625 13.6031 20.5787 13.5409 20.7058 13.5017Z" fill="#010106"/>
<path fill-rule="evenodd" clip-rule="evenodd" d="M19.2834 13.2682C19.6388 13.2199 19.8871 13.5979 19.6973 13.8971C19.465 14.2634 19.156 14.3461 18.7704 14.1452C18.489 13.9986 18.4661 13.6082 18.7408 13.4498C18.9039 13.3557 19.0847 13.2952 19.2834 13.2682Z" fill="#14120B"/>
<path fill-rule="evenodd" clip-rule="evenodd" d="M22.1706 14.3765C21.7013 14.3701 21.3446 13.8629 21.63 13.4968C21.8694 13.1899 22.3242 13.3063 22.5432 13.6276C22.8894 14.135 22.7651 14.3847 22.1706 14.3765Z" fill="#231F11"/>
<path fill-rule="evenodd" clip-rule="evenodd" d="M30.6924 13.713C30.9079 14.5602 31.1232 14.5602 31.3386 13.713C31.5539 13.713 31.7693 13.713 31.9848 13.713C32.0885 14.2048 32.4116 14.4166 32.954 14.3484C33.3846 14.3484 33.8156 14.3484 34.2462 14.3484C34.0308 14.5602 33.8529 14.7401 33.6374 14.9519C32.0599 15.5519 30.5332 15.5519 28.9557 15.1519C28.776 15.0304 28.4666 14.8622 28.4309 14.6661C29.077 14.6661 29.7232 14.6661 30.3694 14.6661C30.2927 14.2559 30.4004 13.9382 30.6924 13.713Z" fill="#8C6A18"/>
<path fill-rule="evenodd" clip-rule="evenodd" d="M30.6044 14.0249C30.5002 13.7677 30.7093 13.5019 30.991 13.5019C31.2727 13.5019 31.4819 13.7677 31.3777 14.0249C31.1199 14.6609 30.8622 14.6609 30.6044 14.0249Z" fill="#030305"/>
<path opacity="0.64" fill-rule="evenodd" clip-rule="evenodd" d="M35.2153 0.0519067C43.9384 0.0519067 61.2189 0.00192868 61.3715 0.00192797C61.5242 0.00192727 63 -0.118867 63 1.55193C63 3.22273 62.9432 7.58965 62.6768 10.8537C62.1833 16.9019 61.7661 22.4423 61.3846 28.3271C61.0615 27.2519 60.71 26.1519 61.0615 24.8324C61.0615 23.4558 61.0615 22.079 61.0615 20.7023C60.4825 20.6598 59.9443 20.7657 59.4461 21.02C59.5556 17.5645 59.8787 14.1758 60.4153 10.8537C60.4153 12.0186 60.4153 13.1835 60.4153 14.3484C60.7384 18.1519 62.2413 13.7321 62.0307 12.4422C62.1147 10.6402 62.2223 8.83988 62.3538 7.04129C62.6713 5.83454 62.7793 4.56374 62.6768 3.2289C62.0307 1.6404 61.9313 0.851929 61.3846 3.2289C61.3131 4.04453 61.0976 4.78581 60.7384 5.45279C60.7384 5.0292 60.7384 4.60558 60.7384 4.182C60.8302 3.5737 60.7226 3.04421 60.4153 2.5935C60.4153 2.4876 60.4153 2.3817 60.4153 2.2758C58.7999 2.064 57.1845 1.8522 55.5692 1.6404C57.6265 1.74514 59.6729 1.63924 61.7076 1.3227C61.6401 1.13652 61.5322 0.977666 61.3846 0.846154C53.4152 0.740255 45.4462 0.634354 37.4768 0.528455C36.6575 0.469307 35.9038 0.310458 35.2153 0.0519067Z" fill="#846A23"/>
<path fill-rule="evenodd" clip-rule="evenodd" d="M14.4137 14.2448C14.2783 13.7971 14.7745 13.3169 15.1281 13.629C15.1921 13.6855 15.2477 13.7556 15.2945 13.8393C15.3402 13.9209 15.3646 14.0128 15.3678 14.1059C15.3699 14.1696 15.3666 14.2307 15.3577 14.2894C15.2832 14.7854 14.5592 14.7254 14.4137 14.2448Z" fill="#17130B"/>
<path fill-rule="evenodd" clip-rule="evenodd" d="M11.9587 17.6519C13.0783 17.3384 14.1228 17.6184 15.1845 17.843C15.1845 18.6019 15.1845 19.6369 15.1845 20.5019C13.4012 19.7323 12.3782 19.8268 12.7615 21.6554C13.3327 22.9019 15.4192 23.4519 15.7754 24.8519C16.2612 28.8222 14.2114 30.257 10.2794 29.2519C10.2794 28.4236 10.2794 27.2652 10.2794 26.4019C10.975 27.0195 12.0031 27.515 12.923 27.2152C13.7398 26.6019 13.4342 25.6766 12.923 25.0019C10.4339 23.4836 9.51853 21.5138 10.4999 18.7961C10.8901 18.1519 11.1495 17.8785 11.9587 17.6519Z" fill="#F5F5F5"/>
<path fill-rule="evenodd" clip-rule="evenodd" d="M22.2924 20.4019C21.6463 20.4019 21.0001 20.4019 20.3539 20.4019C20.3539 23.6848 20.3539 26.315 20.3539 29.5979C19.4924 29.5979 18.6309 29.5979 17.7694 29.5979C17.7694 26.315 17.7694 23.6848 17.7694 20.4019C17.2309 20.4019 16.4667 20.4019 15.9282 20.4019C15.9282 19.7665 15.9282 18.4784 15.9282 17.843C17.9743 17.843 20.2462 17.843 22.2924 17.843C22.2924 18.4784 22.2924 19.7665 22.2924 20.4019Z" fill="#F4F4F4"/>
<path fill-rule="evenodd" clip-rule="evenodd" d="M26.5377 17.8519C27.6488 17.8801 28.8083 18.543 29.3117 19.5019C29.9102 21.5957 29.3976 22.9639 27.83 24.3648C28.521 26.0855 29.2584 27.9387 30.0751 29.6068C29.1082 29.6068 28.1413 29.6068 27.1744 29.6068C24.7318 23.9519 25.5685 24.2519 25.5685 29.6068C24.8146 29.6068 24.0607 29.6068 23.3069 29.6068C23.3069 25.6885 23.3069 21.7702 23.3069 17.8519C24.3838 17.8519 25.4607 17.8519 26.5377 17.8519Z" fill="#F6F6F6"/>
<path fill-rule="evenodd" clip-rule="evenodd" d="M32.9537 20.0669C32.9537 20.8082 32.9537 21.5495 32.9537 22.2908C33.8154 22.2908 34.6767 22.2908 35.5384 22.2908C35.5384 23.0321 35.5384 23.7734 35.5384 24.5147C34.6767 24.5147 33.8154 24.5147 32.9537 24.5147C32.9537 25.3619 32.9537 26.5268 32.9537 27.374C34.0444 27.374 34.6041 27.374 35.5384 27.374C35.5384 28.1153 35.5384 28.8566 35.5384 29.5979C33.9229 29.5979 32.3075 29.5979 30.6921 29.5979C30.6921 25.6796 30.6921 21.7613 30.6921 17.843C32.3075 17.843 33.9229 17.843 35.5384 17.843C35.5384 18.4784 35.5384 19.4315 35.5384 20.0669C34.6063 19.9696 33.7899 20.0669 32.9537 20.0669Z" fill="#FBFBFB"/>
<path fill-rule="evenodd" clip-rule="evenodd" d="M36.0801 29.5979C36.131 29.3519 36.1325 29.2019 36.1847 28.9625C36.9714 25.3596 37.8976 21.4413 38.7263 17.843C39.7441 17.8431 40.6092 17.843 41.677 17.843C42.4712 21.7477 43.2249 25.666 43.9386 29.5979C43.1848 29.5979 42.4308 29.5979 41.677 29.5979C41.6269 28.9625 41.4743 28.2019 41.3725 27.6917C40.5583 27.6917 39.7519 27.6917 38.8789 27.6917C38.7772 28.2519 38.6754 29.1519 38.6078 29.5979C37.8103 29.5979 36.8914 29.5979 36.0801 29.5979Z" fill="#F4F4F4"/>
<path fill-rule="evenodd" clip-rule="evenodd" d="M47.1738 17.843C47.1738 19.3019 47.1738 20.6519 47.1738 22.2019C47.3995 22.0519 47.4923 22.0519 47.6827 21.8019C48.2933 20.5019 48.8531 19.1019 49.4308 17.843C50.2271 17.8431 51.2958 17.843 52.0589 17.8431C51.2131 19.4352 49.9731 21.8111 49.3111 23.5019C50.0387 25.6213 50.9395 27.5019 51.7029 29.5777C50.7869 29.5777 50.176 29.6236 49.1584 29.6236C48.7125 28.0053 48.1234 26.3911 47.4923 24.8324C47.4009 24.5817 47.3264 24.4019 47.1738 24.2019C47.1738 25.9019 47.1738 28.0711 47.1738 29.5777C46.5276 29.5777 45.5539 29.6236 44.9077 29.6236C44.9077 25.8113 44.9077 21.6554 44.9077 17.843C45.5539 17.843 46.5276 17.843 47.1738 17.843Z" fill="#F9F9F9"/>
<path fill-rule="evenodd" clip-rule="evenodd" d="M2.5847 7.67664C3.35791 15.9806 3.95022 24.3466 4.36163 32.7749C4.38979 33.3519 5.94624 33.5777 6.76827 33.4519C6.76827 33.6638 6.46163 33.8338 6.46163 34.0457C5.36369 33.944 4.28677 34.0498 3.23086 34.3634C4.15514 35.1513 5.23206 35.469 6.46163 35.3165C6.35395 35.5284 6.24623 35.74 6.13854 35.9519C5.49239 35.9519 4.84624 35.9519 4.20009 35.9519C2.88282 35.448 2.07513 34.4949 1.77701 33.0926C1.35403 27.3755 0.977103 21.6569 0.64624 15.9368C0.960617 15.1591 1.01508 12.4686 0.916089 11.5519C0.941647 11.8586 1.06875 13.9519 1.2924 14.3483C2.03564 15.1519 2.35167 15.0019 2.54452 14.3483C2.50434 12.1019 2.5847 9.90053 2.5847 7.67664Z" fill="#7F6621"/>
<path fill-rule="evenodd" clip-rule="evenodd" d="M25.5229 19.7492C26.7313 19.5083 27.1384 19.9519 27.1384 21.1789C27.1384 22.4058 26.7313 22.8495 25.5229 22.6085C25.5229 21.6554 25.5229 20.7023 25.5229 19.7492Z" fill="#222121"/>
<path fill-rule="evenodd" clip-rule="evenodd" d="M61.0749 24.7998C60.9671 24.7998 60.8589 24.7998 60.7511 24.7998C60.7511 24.163 60.7511 23.5263 60.7511 22.8896C60.4274 22.8896 60.1036 22.8896 59.7799 22.8896C59.4043 25.2083 59.1884 27.5429 59.1324 29.8935C59.564 29.8935 59.9958 29.8935 60.4274 29.8935C60.4799 30.5389 60.4257 31.1756 60.2655 31.8037C59.8265 32.0838 59.3409 32.1901 58.8086 32.122C58.8304 32.5865 58.7225 33.0109 58.485 33.3954C58.2295 33.4855 58.0135 33.6447 57.8374 33.873C56.4385 34.0318 55.0357 34.085 53.6287 34.0322C53.6287 33.8198 53.6287 33.6078 53.6287 33.3954C55.0357 33.4483 56.4385 33.3951 57.8374 33.2363C57.9993 33.0771 58.1612 32.9179 58.323 32.7587C58.5549 28.7702 58.9797 24.7998 59.4561 20.9795C60.2519 16.2519 60.5572 15.6519 61.0749 20.6611C61.0749 22.0406 61.0749 23.4202 61.0749 24.7998Z" fill="#A29242"/>
<path fill-rule="evenodd" clip-rule="evenodd" d="M39.8966 20.7519C40.096 20.7871 40.196 21.0519 40.223 21.3377C40.3635 22.8258 40.5251 24.3085 40.7076 25.7855C40.277 25.7855 39.846 25.7855 39.4153 25.7855C39.5497 24.1992 39.8155 22.3426 39.8966 20.7519Z" fill="#393838"/>
<path opacity="0.834" fill-rule="evenodd" clip-rule="evenodd" d="M60.8628 24.5519C60.9703 24.5519 60.9539 24.8324 61.0615 24.8324C60.9598 26.0624 61.0673 27.2273 61.3847 28.3271C61.2409 30.253 60.9718 32.1592 60.577 34.0457C60.2521 35.2019 60.2538 35.9519 58.4769 35.9519C57.5077 35.9519 56.5385 35.9519 55.5692 35.9519C54.3845 35.74 53.2002 35.5284 52.0154 35.3165C54.0644 35.3692 56.1104 35.3165 58.1539 35.1576C59.065 34.9238 59.7111 34.3945 60.0923 33.5691C59.5644 33.4122 59.0259 33.3595 58.4769 33.4103C58.714 33.0265 58.8217 32.603 58.8 32.1395C59.3311 32.2075 59.8158 32.1014 60.2538 31.8218C60.4138 31.1951 60.4678 30.5597 60.4154 29.9156C60.6397 28.2302 60.8718 26.2553 60.8628 24.5519Z" fill="#8D762C"/>
<path fill-rule="evenodd" clip-rule="evenodd" d="M2.0354 21.7019C2.23895 19.0519 2.64606 19.7519 3.0691 21.9731C3.50613 24.9199 3.66766 27.8851 3.55372 30.8687C3.20584 33.6019 2.90051 32.9019 2.42295 30.551C2.12542 27.5921 2.06095 24.6735 2.0354 21.7019Z" fill="#D5D271"/>
<path fill-rule="evenodd" clip-rule="evenodd" d="M6.46156 33.5103C13.0307 33.5103 19.6 33.5103 26.1692 33.5103C25.9229 33.7543 25.5998 33.9131 25.2 33.9869C18.9548 34.1457 12.7086 34.1988 6.46156 34.1457C4.42726 33.9019 2.49359 33.7019 6.46156 33.5103Z" fill="#AFA350"/>
<path fill-rule="evenodd" clip-rule="evenodd" d="M26.108 33.4702C30.4567 33.4702 34.8054 33.4702 39.154 33.4702C40.0688 33.7243 41.0473 33.8794 42.0893 33.9355C46.0015 34.0906 49.9153 34.1424 53.8307 34.0906C55.2481 34.1421 56.6613 34.0903 58.0706 33.9355C57.5548 33.6253 58.3662 33.2397 58.6235 33.1519C59.1776 33.1023 59.8208 33.4721 60.3537 33.6253C59.9689 34.4312 59.3166 34.9481 58.3968 35.1764C56.3339 35.3315 54.2684 35.383 52.1999 35.3315C49.0471 35.3315 45.8945 35.3315 42.7417 35.3315C40.7817 35.28 38.8249 35.3318 36.871 35.4866C36.3628 35.5517 35.928 35.7069 35.5664 35.9519C31.9787 35.9519 28.3911 35.9519 24.8035 35.9519C23.9983 35.6985 23.1285 35.5434 22.1942 35.4866C16.8682 35.3315 11.5411 35.2797 6.21291 35.3315C4.97165 35.4804 3.8845 35.1702 2.95142 34.4008C4.01737 34.0947 4.94723 33.8362 6.05562 33.9355C12.3621 33.9873 18.825 34.0906 25.1296 33.9355C25.5332 33.8635 25.8593 33.7084 26.108 33.4702Z" fill="#725412"/>
<path fill-rule="evenodd" clip-rule="evenodd" d="M6.20838 33.4519C23.6721 33.4519 39.8129 33.4519 57.2766 33.4519C58.6045 33.5519 58.7252 34.0019 57.2766 34.1307C43.2997 34.1873 29.3287 34.1307 15.3636 33.961C11.6438 33.8996 6.05574 33.8519 6.20838 33.4519Z" fill="#BCB35B"/>
<path fill-rule="evenodd" clip-rule="evenodd" d="M5.81184 35.2732C20.9482 35.2165 36.0814 35.2732 51.2114 35.4429C53.8656 35.505 56.3364 35.6747 58.6236 35.9519C40.7108 35.9519 22.7981 35.9519 4.88532 35.9519C3.96928 35.5019 3.86755 35.2732 5.81184 35.2732Z" fill="#CCC668"/>
<path fill-rule="evenodd" clip-rule="evenodd" d="M60.8621 23.7328C60.8733 25.7939 60.7402 27.844 60.4637 29.8833C59.8261 34.5855 59.709 33.3151 59.1325 29.8833C59.0307 26.9019 59.2343 24.0519 59.8857 21.276C60.3343 19.3649 60.7016 19.0981 60.8621 21.4264C60.8621 22.1952 60.8621 22.964 60.8621 23.7328Z" fill="#E3E37F"/>
<path opacity="0.604" fill-rule="evenodd" clip-rule="evenodd" d="M42.6463 35.3165C42.0001 35.5284 41.3539 35.74 40.7077 35.9519C38.9848 35.9519 37.2616 35.9519 35.5386 35.9519C35.8968 35.7009 36.3275 35.5421 36.8308 35.4753C38.7664 35.3168 40.7049 35.2638 42.6463 35.3165Z" fill="#A99A47"/>
<path opacity="0.604" fill-rule="evenodd" clip-rule="evenodd" d="M42.6462 35.3165C45.7693 35.3165 48.8923 35.3165 52.0154 35.3165C53.2002 35.5284 54.3846 35.74 55.5693 35.9519C50.6156 35.9519 45.6615 35.9519 40.7078 35.9519C41.3538 35.74 42 35.5284 42.6462 35.3165Z" fill="#DEDD7A"/>
<path fill-rule="evenodd" clip-rule="evenodd" d="M23.8454 7.91534C24.014 8.16123 23.927 8.51059 23.6595 8.64785C23.5795 8.68887 23.4941 8.71933 23.4032 8.73923C23.075 8.81106 22.8267 8.49852 22.8267 8.16814C22.8267 7.8236 23.1016 7.49446 23.4335 7.6057C23.6063 7.66362 23.7436 7.76683 23.8454 7.91534Z" fill="#2E2A19"/>
<path fill-rule="evenodd" clip-rule="evenodd" d="M40.4054 9.01862C40.4054 9.34932 40.27 9.56818 39.9994 9.67519C39.7338 9.78023 39.4488 9.54783 39.5171 9.27457C39.5567 9.11602 39.6388 8.96861 39.7635 8.83234C39.8787 8.70645 40.0687 8.65026 40.2166 8.73719C40.326 8.80151 40.3889 8.89532 40.4054 9.01862Z" fill="#1D1C13"/>
<path fill-rule="evenodd" clip-rule="evenodd" d="M37.3831 13.9954C37.1672 13.615 37.6394 13.2171 38.0298 13.4233C38.2443 13.5366 38.3139 13.701 38.239 13.9167C38.1126 14.2801 37.5735 14.3308 37.3831 13.9954Z" fill="black"/>
<path fill-rule="evenodd" clip-rule="evenodd" d="M37.3831 12.5954C37.1672 12.215 37.6394 11.8171 38.0298 12.0233C38.2443 12.1366 38.3139 12.301 38.239 12.5167C38.1126 12.8801 37.5735 12.9308 37.3831 12.5954Z" fill="black"/>
<path fill-rule="evenodd" clip-rule="evenodd" d="M40.3348 12.7954C40.1188 12.415 40.5911 12.0171 40.9815 12.2233C41.1959 12.3366 41.2656 12.501 41.1906 12.7167C41.0642 13.0801 40.5251 13.1308 40.3348 12.7954Z" fill="black"/>
<path fill-rule="evenodd" clip-rule="evenodd" d="M37.3831 6.89541C37.1672 6.51504 37.6394 6.11713 38.0298 6.32336C38.2443 6.43663 38.3139 6.60106 38.239 6.81667C38.1126 7.18008 37.5735 7.2308 37.3831 6.89541Z" fill="black"/>
<path fill-rule="evenodd" clip-rule="evenodd" d="M41.149 6.89541C40.933 6.51504 41.4053 6.11713 41.7957 6.32336C42.0101 6.43663 42.0798 6.60106 42.0049 6.81667C41.8784 7.18008 41.3393 7.2308 41.149 6.89541Z" fill="black"/>
<path fill-rule="evenodd" clip-rule="evenodd" d="M46.2379 6.89541C46.0219 6.51504 46.4942 6.11713 46.8846 6.32336C47.099 6.43663 47.1686 6.60106 47.0937 6.81667C46.9673 7.18008 46.4282 7.2308 46.2379 6.89541Z" fill="black"/>
<path fill-rule="evenodd" clip-rule="evenodd" d="M50.9195 6.89541C50.7035 6.51504 51.1758 6.11713 51.5662 6.32336C51.7807 6.43663 51.8503 6.60106 51.7754 6.81667C51.649 7.18008 51.1098 7.2308 50.9195 6.89541Z" fill="black"/>
<path fill-rule="evenodd" clip-rule="evenodd" d="M50.0035 8.49538C49.7875 8.11501 50.2598 7.7171 50.6502 7.92333C50.8646 8.0366 50.9343 8.20103 50.8593 8.41664C50.7329 8.78005 50.1938 8.83077 50.0035 8.49538Z" fill="black"/>
<path fill-rule="evenodd" clip-rule="evenodd" d="M46.9503 8.49538C46.7343 8.11501 47.2066 7.7171 47.597 7.92333C47.8114 8.0366 47.881 8.20103 47.8061 8.41664C47.6797 8.78005 47.1406 8.83077 46.9503 8.49538Z" fill="black"/>
<path fill-rule="evenodd" clip-rule="evenodd" d="M49.3929 9.69539C49.1769 9.31502 49.6492 8.91711 50.0396 9.12334C50.254 9.23661 50.3237 9.40104 50.2488 9.61665C50.1223 9.98006 49.5832 10.0308 49.3929 9.69539Z" fill="black"/>
<path fill-rule="evenodd" clip-rule="evenodd" d="M48.4769 11.2954C48.2609 10.915 48.7332 10.5171 49.1236 10.7233C49.338 10.8366 49.4076 11.001 49.3327 11.2167C49.2063 11.5801 48.6672 11.6308 48.4769 11.2954Z" fill="black"/>
<path fill-rule="evenodd" clip-rule="evenodd" d="M48.4769 12.6954C48.2609 12.315 48.7332 11.9171 49.1236 12.1233C49.338 12.2366 49.4076 12.401 49.3327 12.6167C49.2063 12.9801 48.6672 13.0308 48.4769 12.6954Z" fill="black"/>
<path fill-rule="evenodd" clip-rule="evenodd" d="M48.4769 14.2954C48.2609 13.915 48.7332 13.5171 49.1236 13.7233C49.338 13.8366 49.4076 14.001 49.3327 14.2167C49.2063 14.5801 48.6672 14.6308 48.4769 14.2954Z" fill="black"/>
<path fill-rule="evenodd" clip-rule="evenodd" d="M47.5609 9.79537C47.3449 9.415 47.8172 9.01709 48.2076 9.22332C48.422 9.33659 48.4916 9.50102 48.4167 9.71663C48.2903 10.0801 47.7512 10.1308 47.5609 9.79537Z" fill="black"/>
<path fill-rule="evenodd" clip-rule="evenodd" d="M37.3831 9.69539C37.1672 9.31502 37.6394 8.91711 38.0298 9.12334C38.2443 9.23661 38.3139 9.40104 38.239 9.61665C38.1126 9.98006 37.5735 10.0308 37.3831 9.69539Z" fill="black"/>
<path fill-rule="evenodd" clip-rule="evenodd" d="M37.3831 8.59542C37.1672 8.21505 37.6394 7.81714 38.0298 8.02337C38.2443 8.13664 38.3139 8.30107 38.239 8.51668C38.1126 8.88009 37.5735 8.93081 37.3831 8.59542Z" fill="black"/>
<path fill-rule="evenodd" clip-rule="evenodd" d="M40.233 8.39541C40.017 8.01504 40.4893 7.61713 40.8797 7.82336C41.0941 7.93663 41.1637 8.10106 41.0888 8.31667C40.9624 8.68008 40.4233 8.7308 40.233 8.39541Z" fill="black"/>
<path fill-rule="evenodd" clip-rule="evenodd" d="M40.9454 14.0954C40.7294 13.715 41.2017 13.3171 41.5921 13.5233C41.8065 13.6366 41.8761 13.801 41.8012 14.0167C41.6748 14.3801 41.1357 14.4308 40.9454 14.0954Z" fill="black"/>
</g>
<defs>
<clipPath id="clip0_6482_530569">
<rect width="63" height="36" fill="white"/>
</clipPath>
</defs>
</svg>
