<svg width="86" height="36" viewBox="0 0 86 36" fill="none" xmlns="http://www.w3.org/2000/svg">
<g clip-path="url(#clip0_481_12716)">
<path d="M30 7.20001H32.7692L35.7231 12.5539H35.8154L38.7692 7.20001H41.5385V17.7231H39.7846V9.5077H39.6923L36.6462 14.7692H34.9846L31.9385 9.60001H31.8462V17.7231H30.0923L30 7.20001Z" fill="white"/>
<path d="M41.6308 17.8154H39.6923V9.60001L36.6462 14.8616H34.8923L31.9385 9.60001V17.7231H30V7.20001H32.8615L35.8154 12.5539L38.7692 7.20001H41.6308V17.8154ZM39.8769 17.6308H41.5385V7.29232H38.8615L35.9077 12.6462H35.7231L32.7692 7.29232H30.0923V17.6308H31.7538V9.5077H31.9385L34.9846 14.7692H36.5538L39.6 9.5077H39.7846L39.8769 17.6308Z" fill="white"/>
<path d="M45.323 17.8154C44.5846 17.8154 44.123 17.6308 43.7538 17.2615C43.3846 16.8 43.2 16.2462 43.2 15.6923C43.2 14.9538 43.4769 14.4 43.9384 13.9385C44.4 13.5692 45.1384 13.2923 46.1538 13.2L47.9076 13.1077V12.8308C47.9076 12.5538 47.9076 12.3692 47.8153 12.0923C47.8153 11.9077 47.723 11.7231 47.5384 11.6308C47.3538 11.5385 47.1692 11.4462 46.9846 11.3538C46.7076 11.2615 46.4307 11.2615 46.1538 11.2615C45.7846 11.2615 45.4153 11.2615 45.0461 11.3538C44.6769 11.4462 44.2153 11.4462 43.7538 11.5385L43.6615 10.1538C44.5846 9.96923 45.5076 9.87692 46.523 9.87692C47.6307 9.87692 48.4615 10.0615 49.0153 10.5231C49.5692 10.8923 49.8461 11.6308 49.8461 12.4615V17.6308H48.2769L48.0923 16.7077H48C47.1692 17.4462 46.2461 17.8154 45.323 17.8154ZM46.1538 16.4308C46.4307 16.4308 46.8 16.3385 47.0769 16.2462C47.3538 16.1538 47.6307 15.9692 47.9076 15.7846V14.2154L46.7076 14.3077C46.1538 14.4 45.7846 14.4923 45.5076 14.6769C45.2307 14.8615 45.1384 15.2308 45.1384 15.5077C45.1384 16.0615 45.4153 16.4308 46.1538 16.4308Z" fill="white"/>
<path d="M45.323 17.9077C44.5846 17.9077 44.0307 17.7231 43.6615 17.3539C43.2923 16.9846 43.1077 16.4308 43.1077 15.6923C43.1077 14.9539 43.3846 14.3077 43.8461 13.9385C44.3077 13.5692 45.0461 13.2923 46.0615 13.2L47.8154 13.1077V12.9231C47.8154 12.7385 47.8154 12.4616 47.723 12.2769C47.723 12.0923 47.6307 12 47.4461 11.9077C47.2615 11.8154 47.1692 11.7231 46.9846 11.7231C46.3384 11.6308 45.6923 11.6308 45.0461 11.7231C44.6769 11.7231 44.2154 11.8154 43.7538 11.9077H43.6615L43.5692 10.3385H43.6615C44.5846 10.1539 45.6 10.0616 46.5231 10.0616C47.6307 10.0616 48.5538 10.2462 49.1077 10.7077C49.6615 11.1692 49.9384 11.8154 49.9384 12.7385V18H48.1846L48 17.0769C47.1692 17.5385 46.2461 17.8154 45.323 17.9077ZM46.1538 11.3539C46.4307 11.3539 46.7077 11.3539 46.9846 11.4462C47.1692 11.4462 47.3538 11.5385 47.5384 11.7231C47.723 11.8154 47.8154 12 47.8154 12.1846C47.9077 12.4616 47.9077 12.6462 47.9077 12.9231V13.2L46.0615 13.2923C45.0461 13.3846 44.3077 13.5692 43.9384 13.9385C43.4769 14.3077 43.2923 14.8616 43.2923 15.6C43.2923 16.1539 43.4769 16.7077 43.8461 17.1692C44.2154 17.5385 44.6769 17.7231 45.4154 17.7231C46.3384 17.7231 47.2615 17.3539 48 16.7077H48.1846L48.3692 17.6308H49.8461V12.4616C49.8461 11.6308 49.5692 10.9846 49.0154 10.6154C48.4615 10.2462 47.6307 10.0616 46.4307 10.0616C45.5077 10.0616 44.5846 10.1539 43.6615 10.3385L43.7538 11.6308C44.1231 11.5385 44.5846 11.5385 44.9538 11.4462C45.4154 11.3539 45.7846 11.3539 46.1538 11.3539ZM46.1538 16.5231C45.5077 16.5231 45.1384 16.1539 45.1384 15.5077C45.1384 15.1385 45.2307 14.8616 45.5077 14.6769C45.6923 14.4923 46.1538 14.4 46.7077 14.3077L48 14.2154V15.8769C47.723 16.0616 47.4461 16.2462 47.1692 16.3385C46.7077 16.4308 46.4307 16.4308 46.1538 16.5231ZM47.8154 14.3077L46.7077 14.4C46.1538 14.4 45.7846 14.5846 45.6 14.6769C45.4154 14.8616 45.2307 15.1385 45.323 15.4154C45.323 15.9692 45.6 16.3385 46.2461 16.3385C46.523 16.3385 46.8 16.2462 47.0769 16.1539C47.3538 16.0616 47.6307 15.8769 47.9077 15.6923L47.8154 14.3077Z" fill="white"/>
<path d="M51.6924 10.0615H53.3539L53.4462 10.9846H53.5385C54.0924 10.7077 54.7385 10.4308 55.3847 10.2462C55.8462 10.0615 56.3078 9.96924 56.7693 9.96924C57.3231 9.96924 57.877 10.1539 58.3385 10.5231C58.7078 10.8923 58.8924 11.4462 58.8924 12.0923V17.7231H56.8616V12.7385C56.8616 12.3692 56.8616 12.0923 56.677 11.8154C56.4924 11.6308 56.2155 11.5385 55.9385 11.5385C55.5693 11.5385 55.2001 11.6308 54.9231 11.7231C54.4616 11.8154 54.0924 12 53.7232 12.1846V17.7231H51.7847L51.6924 10.0615Z" fill="white"/>
<path d="M58.8924 17.8154H56.8616V12.7385C56.8616 12.4615 56.7693 12.0923 56.677 11.8154C56.4924 11.6308 56.2155 11.5385 55.9386 11.5385C55.5693 11.5385 55.2924 11.6308 54.9232 11.7231C54.5539 11.8154 54.0924 12 53.7232 12.1846V17.8154H51.6001V9.96923H53.3539L53.4463 10.8923C54.0001 10.6154 54.6462 10.3385 55.2924 10.1538C55.7539 9.96923 56.2155 9.87692 56.7693 9.87692C57.3232 9.87692 57.9693 10.0615 58.3386 10.4308C58.7078 10.8 58.8924 11.3538 58.8924 12.0923V17.8154ZM56.9539 17.6308H58.8001V12C58.8001 11.3538 58.6155 10.8 58.2462 10.4308C57.877 10.0615 57.3232 9.87692 56.7693 9.87692C56.3078 9.87692 55.8462 9.96923 55.3847 10.0615C54.7386 10.2462 54.0924 10.5231 53.5386 10.8H53.3539L53.2616 9.87692H51.7847V17.3538H53.6309V11.8154C54.0001 11.6308 54.4616 11.4462 54.8309 11.3538C55.2001 11.2615 55.5693 11.1692 55.8462 11.1692C56.1232 11.1692 56.4001 11.2615 56.677 11.4462C56.8616 11.7231 56.9539 12.0923 56.9539 12.4615V17.6308Z" fill="white"/>
<path d="M64.1538 17.8154C61.5691 17.8154 60.3691 16.5231 60.3691 13.8462C60.3691 11.1692 61.6614 9.87692 64.1538 9.87692C64.523 9.87692 64.8922 9.87692 65.2615 9.96923C65.6307 9.96923 65.9076 10.0615 66.2768 10.1538V11.7231C65.9076 11.6308 65.6307 11.6308 65.2615 11.6308C64.9845 11.6308 64.6153 11.5385 64.3384 11.5385C63.5999 11.5385 63.1384 11.7231 62.7691 12.0923C62.4922 12.4615 62.3076 13.0154 62.3076 13.8462C62.3076 14.6769 62.4922 15.3231 62.7691 15.6C63.0461 15.9692 63.5999 16.1538 64.3384 16.1538C64.7076 16.1538 65.0768 16.1538 65.3538 16.1538C65.6307 16.1538 65.9999 16.0615 66.2768 16.0615V17.6308C65.9999 17.7231 65.6307 17.8154 65.2615 17.8154C64.8922 17.8154 64.523 17.8154 64.1538 17.8154Z" fill="white"/>
<path d="M64.1538 17.9077C61.5692 17.9077 60.2769 16.5231 60.2769 13.8462C60.2769 11.1692 61.5692 9.87692 64.1538 9.87692C64.523 9.87692 64.8922 9.87692 65.2615 9.96923C65.6307 9.96923 65.9999 10.0615 66.2768 10.1538H66.3692V11.8154H66.2768C65.9076 11.7231 65.6307 11.7231 65.2615 11.7231C64.9845 11.7231 64.6153 11.6308 64.3384 11.6308C63.5999 11.6308 63.1384 11.8154 62.8615 12.1846C62.5845 12.5538 62.3999 13.1077 62.3999 13.9385C62.3999 14.7692 62.5845 15.3231 62.8615 15.6923C63.1384 16.0615 63.6922 16.2462 64.3384 16.2462C64.7076 16.2462 65.0769 16.2462 65.3538 16.2462C65.6307 16.2462 65.9999 16.1538 66.2768 16.1538H66.3692V17.8154H66.2768C65.9076 17.9077 65.6307 18 65.2615 18C64.8922 17.9077 64.523 17.9077 64.1538 17.9077ZM64.1538 9.96923C61.6615 9.96923 60.3692 11.2615 60.3692 13.8462C60.3692 16.4308 61.5692 17.7231 64.1538 17.7231C64.523 17.7231 64.8922 17.7231 65.2615 17.6308C65.5384 17.6308 65.9076 17.5385 66.1845 17.4462V16.0615C65.9076 16.1538 65.6307 16.1538 65.3538 16.1538C65.0769 16.1538 64.7076 16.1538 64.3384 16.1538C63.5999 16.1538 63.0461 15.9692 62.7692 15.6C62.3999 15.2308 62.3076 14.5846 62.3076 13.7538C62.3076 12.9231 62.4922 12.2769 62.7692 11.9077C63.0461 11.5385 63.5999 11.3538 64.3384 11.3538C64.6153 11.3538 64.9845 11.3538 65.2615 11.4462C65.6307 11.4462 65.9076 11.5385 66.1845 11.5385V10.2462C65.9076 10.1538 65.5384 10.1538 65.2615 10.0615C64.8922 10.0615 64.523 9.96923 64.1538 9.96923Z" fill="white"/>
<path d="M69.5076 17.8154C68.7691 17.8154 68.3076 17.6308 67.9384 17.2615C67.5691 16.8923 67.3845 16.3385 67.3845 15.6923C67.3845 14.9538 67.6614 14.4 68.123 13.9385C68.5845 13.5692 69.323 13.2923 70.3384 13.2L72.0922 13.1077V12.8308C72.0922 12.5538 72.0922 12.3692 71.9999 12.0923C71.9999 11.9077 71.9076 11.7231 71.723 11.6308C71.5384 11.5385 71.3537 11.4462 71.1691 11.3538C70.8922 11.2615 70.6153 11.2615 70.3384 11.2615C69.9691 11.2615 69.5999 11.2615 69.2307 11.3538C68.7691 11.3538 68.3999 11.4462 67.9384 11.5385L67.8461 10.1538C68.7691 9.96923 69.6922 9.87692 70.7076 9.87692C71.8153 9.87692 72.6461 10.0615 73.1999 10.5231C73.7538 10.8923 74.0307 11.6308 74.0307 12.4615V17.6308H72.3691L72.1845 16.7077H72.0922C71.3537 17.4462 70.4307 17.8154 69.5076 17.8154ZM70.3384 16.4308C70.6153 16.4308 70.9845 16.3385 71.2614 16.2462C71.5384 16.1538 71.8153 15.9692 72.0922 15.7846V14.2154L70.8922 14.3077C70.3384 14.4 69.9691 14.4923 69.6922 14.6769C69.4153 14.8615 69.323 15.2308 69.323 15.5077C69.323 16.0615 69.6922 16.4308 70.3384 16.4308Z" fill="white"/>
<path d="M69.5076 17.9077C68.7692 17.9077 68.2153 17.7231 67.8461 17.3538C67.4769 16.9846 67.2922 16.4308 67.2922 15.6923C67.2922 14.9538 67.5692 14.3077 68.0307 13.9385C68.4922 13.5692 69.2307 13.2923 70.2461 13.2L71.9999 13.1077V12.9231C71.9999 12.7385 71.9999 12.4615 71.9076 12.2769C71.9076 12.0923 71.8153 12 71.6307 11.9077C71.4461 11.8154 71.3538 11.7231 71.1692 11.7231C70.523 11.6308 69.8769 11.6308 69.2307 11.7231C68.8615 11.7231 68.3999 11.8154 67.9384 11.9077V11.7231L67.8461 10.1538H67.9384C68.8615 9.96923 69.8768 9.87692 70.7999 9.87692C71.9076 9.87692 72.8307 10.0615 73.3845 10.5231C73.9384 10.9846 74.2153 11.6308 74.2153 12.5538V17.8154H72.4615L72.2769 16.8923C71.3538 17.5385 70.4307 17.8154 69.5076 17.9077ZM70.3384 11.3538C70.6153 11.3538 70.8922 11.3538 71.1692 11.4462C71.3538 11.4462 71.5384 11.5385 71.723 11.7231C71.9076 11.8154 71.9999 12 71.9999 12.1846C72.0922 12.4615 72.0922 12.6462 72.0922 12.9231V13.2L70.2461 13.2923C69.2307 13.3846 68.4922 13.5692 68.123 13.9385C67.6615 14.3077 67.4768 14.8615 67.4768 15.6C67.4768 16.1538 67.6615 16.7077 68.0307 17.0769C68.3999 17.4462 68.8615 17.6308 69.5999 17.6308C70.523 17.6308 71.4461 17.2615 72.1845 16.6154H72.3692L72.5538 17.5385H74.0307V12.3692C74.0307 11.5385 73.7538 10.8923 73.1999 10.5231C72.6461 10.1538 71.8153 9.87692 70.7076 9.87692C69.7845 9.87692 68.8615 9.96923 67.9384 10.1538L68.0307 11.4462C68.3999 11.3538 68.8615 11.3538 69.2307 11.2615C69.5999 11.3538 69.9692 11.3538 70.3384 11.3538ZM70.3384 16.5231C69.6922 16.5231 69.323 16.1538 69.323 15.5077C69.323 15.1385 69.4153 14.8615 69.6922 14.6769C69.8769 14.4923 70.3384 14.4 70.8922 14.3077L72.1845 14.2154V15.8769C71.9076 16.0615 71.6307 16.2462 71.3538 16.3385C70.8922 16.4308 70.6153 16.4308 70.3384 16.5231ZM71.9999 14.3077L70.8922 14.4C70.3384 14.4 69.9692 14.5846 69.7845 14.6769C69.5999 14.8615 69.4153 15.1385 69.5076 15.4154C69.5076 15.9692 69.7845 16.3385 70.4307 16.3385C70.7076 16.3385 70.9845 16.2462 71.2615 16.1538C71.5384 16.0615 71.8153 15.8769 72.0922 15.6923L71.9999 14.3077Z" fill="white"/>
<path d="M75.877 6.27695H77.8154V17.7231H75.877V6.27695Z" fill="white"/>
<path d="M77.9078 17.8154H75.7847V6.18463H77.9078V17.8154ZM75.9693 17.6308H77.8155V6.36925H75.9693V17.6308Z" fill="white"/>
<path d="M81.4153 17.8154C80.6768 17.8154 80.2153 17.6308 79.8461 17.2615C79.4769 16.8 79.2922 16.2462 79.2922 15.6923C79.2922 14.9538 79.4768 14.4 80.0307 13.9385C80.4922 13.5692 81.2307 13.2923 82.2461 13.2L84.0922 13.1077V12.8308C84.0922 12.5538 84.0922 12.3692 83.9999 12.0923C83.9999 11.9077 83.9076 11.7231 83.723 11.6308C83.5384 11.5385 83.3538 11.4462 83.1692 11.3538C82.8922 11.2615 82.6153 11.2615 82.3384 11.2615C81.9692 11.2615 81.5999 11.2615 81.2307 11.3538C80.8615 11.4462 80.3999 11.4462 79.9384 11.5385L79.8461 10.1538C80.7692 9.96923 81.6922 9.87692 82.7076 9.87692C83.8153 9.87692 84.6461 10.0615 85.1999 10.5231C85.7538 10.8923 86.0307 11.6308 86.0307 12.4615V17.6308H84.4615L84.2769 16.7077H84.1845C83.2615 17.4462 82.3384 17.8154 81.4153 17.8154ZM82.2461 16.4308C82.523 16.4308 82.8922 16.3385 83.1692 16.2462C83.4461 16.1538 83.723 15.9692 83.9999 15.7846V14.2154L82.7999 14.3077C82.2461 14.4 81.8769 14.4923 81.5999 14.6769C81.323 14.8615 81.2307 15.2308 81.2307 15.5077C81.2307 16.0615 81.5999 16.4308 82.2461 16.4308Z" fill="white"/>
<path d="M81.4153 17.9077C80.6769 17.9077 80.123 17.7231 79.7538 17.3539C79.3846 16.9846 79.2 16.4308 79.2 15.6923C79.2 14.9539 79.4769 14.3077 79.9384 13.9385C80.3999 13.5692 81.1384 13.2923 82.1538 13.2L83.9076 13.1077V12.9231C83.9076 12.7385 83.9076 12.4615 83.8153 12.2769C83.8153 12.0923 83.723 12 83.5384 11.9077C83.3538 11.8154 83.2615 11.7231 83.0769 11.7231C82.4307 11.6308 81.7846 11.6308 81.1384 11.7231C80.7692 11.7231 80.3076 11.8154 79.8461 11.9077H79.7538L79.6615 10.3385H79.7538C80.6769 10.1539 81.6923 10.0615 82.6153 10.0615C83.723 10.0615 84.6461 10.2462 85.2 10.7077C85.7538 11.1692 86.0307 11.8154 86.0307 12.7385V18H84.2769L84.0923 17.0769C83.3538 17.4462 82.3384 17.8154 81.4153 17.9077ZM82.2461 11.3539C82.523 11.3539 82.7999 11.3539 83.0769 11.4462C83.2615 11.4462 83.4461 11.5385 83.6307 11.7231C83.8153 11.8154 83.9076 12 83.9076 12.1846C84 12.4615 83.9999 12.6462 83.9999 12.9231V13.2L82.1538 13.2923C81.1384 13.3846 80.3999 13.5692 80.0307 13.9385C79.5692 14.3077 79.3846 14.8615 79.3846 15.6C79.3846 16.1539 79.5692 16.7077 79.9384 17.1692C80.3076 17.5385 80.7692 17.7231 81.5076 17.7231C82.4307 17.7231 83.3538 17.3539 84.0923 16.7077H84.2769L84.4615 17.6308H85.9384V12.4615C85.9384 11.6308 85.6615 10.9846 85.1076 10.6154C84.5538 10.2462 83.723 9.96924 82.6153 9.96924C81.6923 9.96924 80.7692 10.0615 79.8461 10.2462L79.9384 11.5385C80.3076 11.4462 80.7692 11.4462 81.1384 11.3539C81.5076 11.3539 81.8769 11.3539 82.2461 11.3539ZM82.2461 16.5231C81.5999 16.5231 81.2307 16.1539 81.2307 15.5077C81.2307 15.1385 81.323 14.8615 81.6 14.6769C81.7846 14.4923 82.2461 14.4 82.7999 14.3077L84.0923 14.2154V15.8769C83.8153 16.0615 83.5384 16.2462 83.2615 16.3385C82.7999 16.4308 82.523 16.4308 82.2461 16.5231ZM83.9076 14.3077L82.7999 14.4C82.2461 14.4 81.8769 14.5846 81.6923 14.6769C81.5076 14.8615 81.323 15.1385 81.4153 15.4154C81.4153 15.9692 81.6923 16.3385 82.3384 16.3385C82.6153 16.3385 82.8923 16.2462 83.1692 16.1539C83.4461 16.0615 83.723 15.8769 83.9999 15.6923L83.9076 14.3077Z" fill="white"/>
<path d="M19.9385 22.6154C16.9846 22.4308 15.1385 20.5846 15.1385 17.6308C15.1385 14.6769 16.9846 12.8308 19.9385 12.6462C21.8769 12.5538 23.3538 11.0769 23.2615 9.23077C23.1692 7.47692 21.7846 6 19.9385 6C18.0923 6 16.5231 7.38462 16.6154 9.23077C16.7077 11.5385 15.6923 12.9231 13.6615 13.6615C11.5385 14.4923 9.69231 14.0308 7.93846 12.6462C7.10769 12 6.73846 11.0769 6.73846 9.96923C6.73846 9.32308 6.64615 8.67692 6.46154 8.12308C5.90769 6.55385 4.24615 5.72308 2.58462 6.09231C0.830769 6.55385 -0.276923 8.30769 0.0923077 10.1538C0.461538 11.5385 1.75385 12.6462 3.23077 12.6462C5.26154 12.7385 6.83077 13.5692 7.75385 15.4154C8.49231 16.8 8.49231 18.4615 7.75385 19.8462C6.83077 21.6923 5.16923 22.5231 3.23077 22.6154C1.38462 22.7077 0 24.1846 0 26.0308C0.0923077 27.5077 1.10769 28.8 2.58462 29.1692C4.24615 29.6308 5.90769 28.7077 6.46154 27.1385C6.64615 26.4923 6.73846 25.9385 6.73846 25.2923C6.73846 24.1846 7.10769 23.2615 7.93846 22.6154C9.69231 21.2308 11.5385 20.7692 13.6615 21.6C15.6923 22.3385 16.7077 23.7231 16.6154 26.0308C16.5231 27.9692 18.0923 29.3538 19.9385 29.2615C21.6923 29.2615 23.1692 27.7846 23.2615 26.0308C23.2615 24.1846 21.8769 22.7077 19.9385 22.6154Z" fill="url(#paint0_linear_481_12716)"/>
<path d="M11.6307 22.6154C9.78454 22.6154 8.30762 24.1846 8.30762 25.9385C8.30762 27.7846 9.87685 29.2615 11.6307 29.2615C13.3845 29.2615 14.9538 27.6923 14.9538 25.9385C14.9538 24.0923 13.4768 22.6154 11.6307 22.6154Z" fill="white"/>
<path d="M3.41536 14.3077C1.56921 14.3077 0.0922852 15.7846 0.0922852 17.6308C0.0922852 19.4769 1.56921 20.9539 3.41536 20.9539C5.26152 20.9539 6.73844 19.4769 6.73844 17.6308V17.5385C6.73844 15.7846 5.26152 14.3077 3.41536 14.3077Z" fill="white"/>
<path d="M23.2616 17.5385C23.1693 15.6923 21.6924 14.3077 19.8462 14.3077C18 14.4 16.5231 15.9692 16.6154 17.8154C16.7077 19.5692 18.0924 20.9539 19.8462 21.0462C21.6924 21.0462 23.1693 19.6616 23.2616 17.8154V17.5385Z" fill="white"/>
<path d="M11.6309 12.6462C13.477 12.6462 14.954 11.0769 14.954 9.32309C14.954 7.56924 13.477 6.09232 11.7232 6.00001C9.87705 5.90771 8.30781 7.38463 8.30781 9.23078C8.21551 11.0769 9.69243 12.6462 11.5386 12.6462H11.6309Z" fill="white"/>
<path d="M35.1691 26.9539C34.8922 27.3231 34.523 27.6 34.0614 27.6923C33.5076 27.8769 33.046 27.9692 32.4922 27.9692C31.9384 27.9692 31.3845 27.8769 30.923 27.6C30.4614 27.3231 30.0922 26.9539 29.8153 26.4C29.5384 25.8462 29.446 25.2 29.446 24.6462V24.0923C29.446 22.9846 29.723 22.1539 30.2768 21.5077C30.8307 20.8615 31.5691 20.5846 32.4922 20.5846C33.323 20.5846 33.9691 20.7692 34.4307 21.1385C34.8922 21.6 35.2614 22.1539 35.2614 22.8923H34.0614C33.8768 22.0615 33.4153 21.6 32.5845 21.6C32.123 21.6 31.5691 21.7846 31.2922 22.2462C31.0153 22.6154 30.8307 23.2615 30.8307 24V24.5539C30.8307 25.2923 31.0153 25.9385 31.2922 26.4C31.6614 26.8615 32.123 27.0462 32.6768 27.0462C33.323 27.0462 33.7845 26.8615 34.0614 26.5846V25.2H32.5845V24.2769H35.3537L35.1691 26.9539Z" fill="white"/>
<path d="M39.7845 27.8769C39.6922 27.6923 39.6922 27.5077 39.5999 27.4154C39.2307 27.7846 38.7691 28.0616 38.2153 28.0616C37.7538 28.0616 37.2922 27.8769 36.923 27.6C36.5538 27.3231 36.3691 26.8616 36.3691 26.4923C36.3691 25.9385 36.5538 25.4769 37.0153 25.2C37.4768 24.9231 38.0307 24.7385 38.8614 24.7385H39.5999V24.3692C39.5999 24.0923 39.5076 23.9077 39.4153 23.7231C39.2307 23.5385 38.9538 23.4462 38.6768 23.4462C38.3999 23.4462 38.2153 23.5385 38.0307 23.6308C37.8461 23.7231 37.7538 23.9077 37.7538 24.1846H36.5538C36.5538 23.9077 36.6461 23.6308 36.8307 23.3539C37.0153 23.0769 37.2922 22.8923 37.6614 22.7077C38.0307 22.5231 38.3999 22.4308 38.7691 22.5231C39.323 22.5231 39.8768 22.7077 40.2461 22.9846C40.6153 23.3539 40.7999 23.8154 40.7999 24.2769V26.6769C40.7999 27.0462 40.8922 27.5077 40.9845 27.8769V27.9692L39.7845 27.8769ZM38.4922 26.9539C38.7691 26.9539 38.9538 26.8616 39.1384 26.7692C39.323 26.6769 39.5076 26.4923 39.5999 26.3077V25.2923H38.9538C38.5845 25.2923 38.2153 25.3846 37.9384 25.4769C37.7538 25.6616 37.5691 25.8462 37.5691 26.1231C37.5691 26.3077 37.6614 26.4923 37.7538 26.6769C38.0307 26.9539 38.2153 27.0462 38.4922 26.9539Z" fill="white"/>
<path d="M43.2922 22.5231V23.0769C43.6615 22.6154 44.2153 22.4308 44.8615 22.4308C45.5999 22.4308 46.0615 22.7077 46.3384 23.2616C46.7076 22.7077 47.3538 22.4308 47.9999 22.4308C48.5538 22.4308 49.0153 22.6154 49.2922 22.8923C49.5692 23.2616 49.7538 23.7231 49.7538 24.3692V27.8769H48.5538V24.3692C48.5538 24.0923 48.4615 23.8154 48.3692 23.6308C48.1845 23.4462 47.9076 23.3539 47.6307 23.3539C47.3538 23.3539 47.1692 23.4462 46.9845 23.5385C46.7999 23.7231 46.7076 23.9077 46.6153 24.0923V27.7846H45.4153V24.2769C45.4153 23.6308 45.0461 23.3539 44.4922 23.3539C44.0307 23.3539 43.6615 23.5385 43.4769 23.9077V27.7846H42.2769V22.4308L43.2922 22.5231Z" fill="white"/>
<path d="M51.1384 21.0462C51.1384 20.8616 51.2307 20.6769 51.323 20.5846C51.4153 20.4923 51.6 20.4 51.7846 20.4C51.9692 20.4 52.1538 20.4923 52.3384 20.5846C52.4307 20.6769 52.523 20.8616 52.523 21.0462C52.523 21.2308 52.4307 21.4154 52.3384 21.5077C52.2461 21.6 52.0615 21.6923 51.7846 21.6923C51.6 21.6923 51.4153 21.6 51.323 21.5077C51.2307 21.4154 51.1384 21.2308 51.1384 21.0462ZM52.4307 27.8769H51.2307V22.5231H52.4307V27.8769Z" fill="white"/>
<path d="M55.0154 22.5231V23.1692C55.3846 22.7077 55.9385 22.4308 56.5846 22.4308C57.6923 22.4308 58.2462 23.0769 58.3385 24.3692V27.9692H57.1385V24.4616C57.1385 24.1846 57.0462 23.9077 56.9539 23.7231C56.7693 23.5385 56.4923 23.4462 56.2154 23.4462C55.7539 23.4462 55.2923 23.7231 55.1077 24.0923V27.8769H53.9077V22.5231C53.9077 22.5231 55.0154 22.5231 55.0154 22.5231Z" fill="white"/>
<path d="M59.446 25.1077C59.446 24.2769 59.6307 23.6308 59.9999 23.0769C60.3691 22.6154 60.923 22.3385 61.5691 22.3385C62.123 22.3385 62.6768 22.5231 63.046 22.9846L63.1384 22.4308H64.246V27.6923C64.246 28.3385 64.0614 28.8923 63.5999 29.3539C63.1384 29.8154 62.4922 30 61.846 30C61.4768 30 61.0153 29.9077 60.646 29.7231C60.2768 29.6308 59.9999 29.3539 59.8153 29.0769L60.3691 28.3385C60.7384 28.8 61.1999 28.9846 61.7537 28.9846C62.123 28.9846 62.3999 28.8923 62.6768 28.6154C62.9537 28.3385 63.046 27.9692 63.046 27.6923V27.4154C62.6768 27.7846 62.2153 28.0615 61.6614 27.9692C61.0153 27.9692 60.4614 27.6923 60.0922 27.2308C59.6307 26.6769 59.446 26.0308 59.446 25.1077ZM60.646 25.2C60.646 25.6615 60.7383 26.1231 61.0153 26.4923C61.1999 26.7692 61.5691 26.9539 61.9383 26.9539C62.3999 26.9539 62.7691 26.7692 63.046 26.3077V24C62.8614 23.6308 62.3999 23.3539 61.9383 23.3539C61.5691 23.3539 61.1999 23.5385 61.0153 23.8154C60.646 24.2769 60.5537 24.7385 60.646 25.2Z" fill="white"/>
</g>
<defs>
<linearGradient id="paint0_linear_481_12716" x1="1.01622" y1="7.00431" x2="22.2967" y2="28.2848" gradientUnits="userSpaceOnUse">
<stop offset="0.02" stop-color="#FFCE00"/>
<stop offset="0.44" stop-color="#FF1C03"/>
<stop offset="1" stop-color="#DE0021"/>
</linearGradient>
<clipPath id="clip0_481_12716">
<rect width="86" height="36" fill="white"/>
</clipPath>
</defs>
</svg>
