<svg width="43" height="36" viewBox="0 0 43 36" fill="none" xmlns="http://www.w3.org/2000/svg">
<g clip-path="url(#clip0_6482_530846)">
<g filter="url(#filter0_d_6482_530846)">
<path d="M38.1391 10.9063L38.6176 5.34797L37.3585 3.07408L29.0986 3.79415L23.1178 4.32472L18.8368 4.7037C19.5419 3.45307 19.1768 1.92451 18.3835 0.977063C18.0939 0.62335 17.7288 0.345428 17.3006 0.143306C16.7844 -0.0967149 16.18 -0.0335518 15.7393 0.320163C15.6008 0.421224 15.4875 0.560184 15.3994 0.699143C15.286 0.749672 15.1727 0.825471 15.072 0.913902C15.0216 0.951799 14.9713 1.00233 14.9209 1.04022C14.6691 0.787574 14.3795 0.585448 14.0395 0.421224C13.5233 0.181204 12.9189 0.244367 12.4782 0.598086C12.3397 0.699143 12.2264 0.838103 12.1382 0.977063C12.0249 1.02759 11.9116 1.10339 11.8109 1.19182C11.3198 1.6087 10.9547 2.12663 10.728 2.69511C10.4258 3.4657 10.3251 4.5521 10.8287 5.38586L2.16596 6.14382L1.00757 19.8629L2.26669 22.1368L12.0879 21.2778L12.1256 20.8103C12.6671 21.063 13.3218 21.1767 14.1402 21.1767C14.4298 21.1767 14.732 21.164 15.0594 21.1388C16.0541 21.0503 16.86 20.8609 17.5147 20.5577L17.4895 20.7977L25.359 20.1029L28.8846 19.7997L37.4214 19.0544L37.8999 13.496L37.5725 12.9023L37.7362 10.9442L38.1391 10.9063Z" fill="white"/>
<path d="M6.64841 17.7153L6.98839 13.6981L5.80482 13.7991L5.46486 17.8163L2.80811 18.0564L3.68949 7.68491L6.35885 7.44491L6.01888 11.3989L7.20245 11.2979L7.54243 7.34382L10.2118 7.10382L9.33034 17.4753L6.64841 17.7153Z" fill="#161616"/>
<path d="M11.3827 16.9448C10.9547 16.6668 10.7154 16.1994 10.665 15.5425C10.6147 14.8856 10.665 13.7739 10.791 12.1949C10.9295 10.6158 11.068 9.49147 11.2316 8.82199C11.3953 8.15245 11.7101 7.63452 12.2012 7.28078C12.6922 6.92704 13.4729 6.69969 14.5558 6.59859C15.6386 6.49756 16.3941 6.59859 16.8348 6.87653C17.2628 7.15446 17.5021 7.62187 17.5651 8.27877C17.6154 8.93567 17.5777 10.0473 17.4392 11.6138C17.3006 13.1802 17.1495 14.3045 16.9859 14.9741C16.8222 15.6436 16.4948 16.1615 16.0038 16.5279C15.5127 16.8942 14.732 17.1216 13.6492 17.21C12.5789 17.3111 11.8109 17.2227 11.3827 16.9448ZM14.3417 14.8099C14.4299 14.7088 14.4928 14.4688 14.5432 14.1024C14.5935 13.7361 14.6691 12.9907 14.7698 11.8664C14.8705 10.7421 14.9209 9.99682 14.9335 9.63044C14.9461 9.26412 14.9209 9.0367 14.8453 8.94831C14.7698 8.85986 14.6187 8.82199 14.3794 8.84722C14.1402 8.87251 13.9891 8.93567 13.901 9.0367C13.8129 9.13779 13.7499 9.37779 13.6996 9.74417C13.6492 10.1105 13.5736 10.8558 13.4729 11.9802C13.3722 13.1044 13.3218 13.8498 13.3092 14.2161C13.2966 14.5825 13.3218 14.8099 13.3848 14.8983C13.4477 14.9867 13.5988 15.0246 13.8381 14.9994C14.0899 14.9741 14.2535 14.9109 14.3417 14.8099Z" fill="#161616"/>
<path d="M18.0435 16.7174L18.9248 6.3459L21.5941 6.1059L20.9016 14.1782L23.1555 13.976L22.954 16.2878L18.0435 16.7174Z" fill="#161616"/>
<path d="M23.7349 16.212L24.6163 5.84059L27.2856 5.60059L26.5931 13.6728L28.847 13.4707L28.6455 15.7825L23.7349 16.212Z" fill="#161616"/>
<path d="M29.4387 15.7194L30.3201 5.34797L35.5454 4.89319L35.3566 7.12918L32.8005 7.35654L32.6495 9.13775L34.8277 8.94826L34.6389 11.159L32.4606 11.3484L32.2969 13.2434L34.8529 13.016L34.6641 15.252L29.4387 15.7194Z" fill="#161616"/>
<path d="M12.7803 2.34142C12.6166 2.48038 12.3018 2.78357 12.1256 3.25098C11.9493 3.69312 11.836 4.46371 12.2892 4.84269C12.6041 5.10797 13.0321 5.04481 13.1328 5.01955C13.1706 5.00692 13.8002 4.91849 14.178 4.40055C14.7067 3.69312 14.3794 2.7204 13.9765 2.22773C13.775 1.98771 13.561 1.86138 13.3973 1.78558C13.4225 1.92454 13.4602 2.20246 13.3218 2.50565C13.284 2.60671 13.1328 2.93516 12.9062 2.97306C12.7803 2.99832 12.7048 2.90989 12.7048 2.90989C12.6041 2.78357 12.6166 2.55618 12.7803 2.34142Z" fill="#161616"/>
<path d="M16.0288 2.0509C15.8652 2.18986 15.5503 2.49304 15.3741 2.96045C15.1978 3.40259 15.0845 4.17318 15.5378 4.55216C15.8526 4.81745 16.2806 4.75429 16.3814 4.72902C16.4192 4.71639 17.0488 4.62796 17.4265 4.11002C17.9553 3.40259 17.6279 2.42987 17.225 1.9372C17.0235 1.69718 16.8095 1.57086 16.6458 1.49506C16.671 1.63402 16.7088 1.91194 16.5703 2.21512C16.5325 2.31618 16.3814 2.64463 16.1547 2.68253C16.0288 2.70779 15.9533 2.61937 15.9533 2.61937C15.8526 2.50567 15.8777 2.26565 16.0288 2.0509Z" fill="#161616"/>
<path d="M42.3447 25.257C42.244 24.9412 42.1181 24.6633 41.967 24.4232L42.3825 24.4359L42.8232 19.2944L41.5641 17.0205L40.0657 16.7805C39.7635 16.7299 39.3732 16.6921 38.8822 16.6668C38.3785 16.6416 37.8245 16.6542 37.2453 16.7047C36.4521 16.7805 35.7721 16.9195 35.1803 17.1595L35.1929 17.0079L28.7965 17.5637L15.9535 18.688L9.80897 19.2312L9.69567 19.6734L8.88981 19.5471C8.44914 19.4839 7.94545 19.4333 7.39146 19.4207C6.83742 19.4081 6.32119 19.4081 5.86791 19.4586C4.57101 19.5723 3.57631 19.8629 2.80824 20.3555C1.95204 20.8987 1.33507 21.7325 0.944737 22.8441C0.642553 23.7411 0.415908 24.9538 0.277404 26.5708C0.1389 28.2004 0.1389 29.4132 0.289995 30.2722C0.390725 30.8407 0.554412 31.2954 0.768461 31.6617L2.02758 33.9483C2.38014 34.5799 2.84602 34.9463 3.23635 35.161C3.82813 35.4895 4.57101 35.6537 5.49018 35.6537C5.742 35.6537 6.01902 35.6411 6.30859 35.6158C6.82482 35.5653 7.39146 35.4895 7.99586 35.3631C8.05881 35.3505 8.10916 35.3379 8.17211 35.3253L19.0132 34.3778L28.8343 33.5188L35.281 32.9503L35.2936 32.8745C35.5454 32.8872 35.8099 32.8998 36.0995 32.9124C36.2002 32.9124 36.3135 32.9124 36.4142 32.9124C36.8675 32.9124 37.3083 32.8998 37.7237 32.8619C38.5799 32.7861 39.285 32.6219 39.8894 32.3566C40.6449 32.0281 41.2745 31.4344 41.7403 30.588C42.1559 29.8553 42.4077 28.87 42.521 27.6067C42.5966 26.6592 42.5588 25.8886 42.3825 25.2697L42.3447 25.257Z" fill="white"/>
<path d="M5.1501 27.5183L5.32638 25.396L8.32311 25.1307L7.80688 31.1438C7.42909 31.2828 6.96327 31.3965 6.42183 31.5102C5.88039 31.6239 5.37675 31.6871 4.91087 31.7376C3.94134 31.826 3.23623 31.7376 2.77036 31.4849C2.31707 31.2323 2.01489 30.7396 1.90156 30.0195C1.77565 29.2995 1.77565 28.2004 1.90156 26.735C2.02748 25.2696 2.21635 24.158 2.48076 23.4C2.74518 22.642 3.13551 22.0988 3.67693 21.7578C4.20576 21.4167 4.98641 21.2019 6.0063 21.1135C6.39663 21.0756 6.83736 21.0756 7.32839 21.0883C7.83202 21.1009 8.26015 21.1388 8.63788 21.2019L8.44902 23.2484C7.50465 23.2358 6.87511 23.2358 6.53514 23.2611C5.9182 23.3116 5.50266 23.4 5.2886 23.5137C5.06196 23.6274 4.91087 23.88 4.81014 24.2843C4.70941 24.6885 4.60868 25.4212 4.52054 26.495C4.4324 27.5056 4.39463 28.213 4.39463 28.6173C4.39463 29.0215 4.45758 29.2868 4.57091 29.4132C4.68422 29.5395 4.88569 29.59 5.20047 29.5648L5.61598 29.5142L5.79226 27.4677L5.1501 27.5183Z" fill="#161616"/>
<path d="M13.2843 30.8786L13.1962 29.1353L11.3452 29.2995L10.9549 31.0807L8.33594 31.3081L11.0808 20.7725L14.9715 20.4314L15.9536 30.6386L13.2843 30.8786ZM12.8562 22.9958L12.7554 23.0085L11.8615 27.114L13.0577 27.013L12.8562 22.9958Z" fill="#161616"/>
<path d="M23.5459 29.9817L24.1503 22.9326L24.0118 22.9453L22.4253 30.0701L20.1589 30.2722L19.7937 23.3116L19.6426 23.3243L19.0382 30.3733L16.5452 30.588L17.4266 20.2166L21.3676 19.8755L21.6321 26.1035L21.7454 26.0908L23.0675 19.724L26.9581 19.3829L26.0768 29.7543L23.5459 29.9817Z" fill="#161616"/>
<path d="M27.2732 29.6532L28.1545 19.2818L33.3799 18.827L33.191 21.063L30.635 21.2904L30.484 23.0842L32.6622 22.8947L32.4733 25.1054L30.295 25.2949L30.1314 27.1899L32.6874 26.9624L32.4985 29.1984L27.2732 29.6532Z" fill="#161616"/>
<path d="M34.8529 29.0216C34.3367 29.009 33.896 28.9837 33.5435 28.9332L33.7198 26.8867C34.6263 26.874 35.3062 26.8487 35.7344 26.8109C36.0365 26.7856 36.2632 26.7604 36.4017 26.7224C36.5402 26.6846 36.6409 26.634 36.7039 26.5582C36.7668 26.4951 36.8172 26.4066 36.8424 26.2929C36.8676 26.1793 36.8927 26.0277 36.9179 25.8255C36.9431 25.5224 36.9431 25.3076 36.9179 25.1939C36.8927 25.0676 36.8172 24.9918 36.7039 24.9412C36.5906 24.8907 36.3891 24.8528 36.0869 24.8275L34.8529 24.7012C34.45 24.6633 34.1731 24.3981 34.0471 23.9054C33.9212 23.4254 33.896 22.7305 33.9716 21.821C34.0471 20.9367 34.236 20.2545 34.5382 19.7618C34.8404 19.2692 35.2181 18.9281 35.684 18.7386C36.1499 18.5491 36.7165 18.4102 37.3964 18.3597C37.9127 18.3091 38.3785 18.3091 38.8066 18.3217C39.2347 18.347 39.5747 18.3722 39.8139 18.4102L39.6376 20.4819C39.0458 20.4693 38.4415 20.4819 37.8245 20.5324C37.5349 20.5577 37.3335 20.583 37.195 20.6082C37.0564 20.6335 36.9557 20.684 36.8801 20.7472C36.8046 20.8103 36.7542 20.8988 36.7165 21.0125C36.6787 21.1262 36.6535 21.2904 36.6409 21.4925C36.6157 21.7325 36.6157 21.9094 36.6283 22.0231C36.6409 22.1368 36.6913 22.2126 36.7668 22.2505C36.8424 22.2884 36.9683 22.3263 37.1571 22.3516L38.2148 22.4652C38.5422 22.5032 38.8192 22.5916 39.0333 22.7179C39.2473 22.8442 39.4236 23.0968 39.5369 23.4632C39.6628 23.8927 39.688 24.4739 39.6251 25.2191C39.5369 26.2298 39.348 27.0004 39.0584 27.5309C38.7689 28.0615 38.4037 28.4152 37.9756 28.6047C37.5475 28.7942 36.9935 28.9205 36.3261 28.971C35.8603 29.0216 35.3692 29.0342 34.8529 29.0216Z" fill="#161616"/>
</g>
</g>
<defs>
<filter id="filter0_d_6482_530846" x="-2.74883" y="0" width="48.496" height="41.5014" filterUnits="userSpaceOnUse" color-interpolation-filters="sRGB">
<feFlood flood-opacity="0" result="BackgroundImageFix"/>
<feColorMatrix in="SourceAlpha" type="matrix" values="0 0 0 0 0 0 0 0 0 0 0 0 0 0 0 0 0 0 127 0" result="hardAlpha"/>
<feOffset dy="2.92388"/>
<feGaussianBlur stdDeviation="1.46194"/>
<feColorMatrix type="matrix" values="0 0 0 0 0 0 0 0 0 0 0 0 0 0 0 0 0 0 0.25 0"/>
<feBlend mode="normal" in2="BackgroundImageFix" result="effect1_dropShadow_6482_530846"/>
<feBlend mode="normal" in="SourceGraphic" in2="effect1_dropShadow_6482_530846" result="shape"/>
</filter>
<clipPath id="clip0_6482_530846">
<rect width="43" height="36" fill="white"/>
</clipPath>
</defs>
</svg>
