<svg width="85" height="36" viewBox="0 0 85 36" fill="none" xmlns="http://www.w3.org/2000/svg">
<path d="M5.59395 15.6927H8.00857V17.6675L11.8317 17.7683V6.70531C11.8317 6.58439 11.7713 6.48364 11.6708 6.48364H8.16955C8.06891 6.48364 8.00857 6.56425 8.00857 6.70531V11.9446H5.59395V6.70531C5.59395 6.58439 5.53356 6.48364 5.43297 6.48364H1.97201C1.8714 6.48364 1.81104 6.56425 1.81104 6.70531V17.5264L5.59395 17.6272V15.6927Z" fill="#B3B3B3"/>
<path d="M20.6852 6.66501C20.6449 6.54409 20.5846 6.50378 20.5041 6.50378H16.7413C16.6608 6.50378 16.6004 6.54409 16.5602 6.66501L13.3608 17.8086L23.8845 18.0907L20.6852 6.66501ZM17.6065 16.0353L18.5925 9.72798L19.5583 16.0353H17.6065Z" fill="#B3B3B3"/>
<path d="M38.6742 17.9294L40.3443 15.4912L41.6119 18.534L45.5357 18.6348L42.6382 12.1662L46.3606 6.72541C46.4611 6.58435 46.4009 6.46344 46.2601 6.46344H42.3163C42.2358 6.46344 42.1552 6.52392 42.1352 6.58435L38.6943 12.1259V6.6851C38.6943 6.56423 38.6339 6.46344 38.5333 6.46344H35.3139C35.2132 6.46344 35.1528 6.54405 35.1528 6.6851V18.3526L38.6943 18.4534L38.6742 17.9294Z" fill="#B3B3B3"/>
<path d="M57.2665 16.5793C57.2665 10.7758 50.7468 12.8514 50.7468 10.5542C50.7468 9.88918 51.3106 9.60704 52.0548 9.60704C52.9402 9.60704 53.8257 10.0101 54.6909 10.9169C54.7315 10.9773 54.8114 10.9975 54.8723 10.9572C54.8922 10.937 54.9125 10.9169 54.9125 10.8967L56.683 8.43829C56.7435 8.35768 56.7435 8.21663 56.6627 8.13601C55.4356 6.66499 53.9665 6 52.1956 6C49.781 6 47.1857 7.18892 47.1857 10.9975C47.1857 17.0831 53.7856 14.665 53.7856 17.1637C53.7856 17.9295 53.1618 18.3123 52.2764 18.3123C51.1698 18.3123 50.0627 17.7481 48.9565 16.2368C48.8956 16.1562 48.7954 16.136 48.7349 16.2368L47.0046 18.6952L56.8035 18.9572C57.1257 18.1914 57.2665 17.3854 57.2665 16.5793Z" fill="#B3B3B3"/>
<path d="M65.2949 6.66501C65.2547 6.54409 65.1942 6.50378 65.1139 6.50378H61.3315C61.2507 6.50378 61.1902 6.54409 61.15 6.66501L57.6289 18.9572L68.8165 19.2393L65.2949 6.66501ZM62.2165 16.0353L63.2225 9.72798L64.1883 16.0353H62.2165Z" fill="#B3B3B3"/>
<path d="M75.8188 13.1537L76.8049 19.461L80.8893 19.5617L84.4714 6.72544C84.5116 6.58439 84.4511 6.48364 84.3505 6.48364H80.9904C80.8893 6.48364 80.8293 6.54408 80.8095 6.68514L79.0182 14.141L77.5695 6.68514C77.5496 6.58439 77.4891 6.48364 77.3885 6.48364H74.2496C74.149 6.48364 74.0885 6.56425 74.0686 6.68514L72.6194 14.141L70.8286 6.68514C70.8083 6.56425 70.7483 6.48364 70.6476 6.48364H67.2871C67.1865 6.48364 67.1265 6.56425 67.1667 6.72544L70.6675 19.2998L74.8327 19.4005L75.8188 13.1537Z" fill="#B3B3B3"/>
<path d="M33.5029 17.1435C33.5029 17.1234 33.4828 17.0831 33.4626 17.0831C33.4426 17.0831 33.4224 17.0831 33.4023 17.1032C32.9193 17.8085 32.1346 18.2317 31.2693 18.2116C29.4181 18.2116 28.5328 16.3576 28.5328 13.8992C28.5328 11.6625 29.2572 9.68763 31.3096 9.68763C32.1547 9.64733 32.9395 10.0705 33.4023 10.7556C33.4224 10.7758 33.4626 10.7959 33.4828 10.7758C33.5029 10.7556 33.5029 10.7556 33.5029 10.7355V6.62466C33.5029 6.52392 33.4426 6.4433 33.362 6.403C32.6578 6.1612 31.8932 6.04028 31.1486 6.04028C27.0438 6.04028 24.4078 9.64733 24.4078 14.2015C24.3876 15.5516 24.6492 16.8816 25.1724 18.1108L33.5029 18.3325V17.1435Z" fill="#B3B3B3"/>
<path d="M6.19757 21.8589C6.19757 21.9798 6.25796 22.0605 6.35855 22.0605H9.83967C9.94026 22.0605 10.0006 21.9798 10.0006 21.8589V18.3728L6.17749 18.272L6.19757 21.8589Z" fill="#B3B3B3"/>
<path d="M0.160974 22.0604H3.62192C3.72253 22.0604 3.80302 21.9798 3.80302 21.8589V18.1914L0 18.1108V21.8589C0 21.9798 0.0603653 22.0604 0.160974 22.0604Z" fill="#B3B3B3"/>
<path d="M10.7048 22.0604H14.1859C14.2865 22.0604 14.3469 21.9798 14.367 21.8992L14.8097 19.9647H18.7133L19.1559 21.8992C19.1761 21.9999 19.2565 22.0604 19.337 22.0604H22.8181C22.9388 22.0604 22.9791 21.9597 22.9388 21.7985L22.0535 18.6549L11.5298 18.3728L10.5439 21.7783C10.5237 21.9597 10.5841 22.0604 10.7048 22.0604Z" fill="#B3B3B3"/>
<path d="M40.9476 21.9194C40.9679 22 41.0485 22.0604 41.1287 22.0604H44.7708C44.8917 22.0604 44.9519 21.9597 44.8917 21.7985L43.7246 19.2192L39.8008 19.1184L40.9476 21.9194Z" fill="#B3B3B3"/>
<path d="M33.4828 22.0605H36.7022C36.8029 22.0605 36.8632 21.9799 36.8632 21.8589V19.058L33.3218 18.9572V21.8388C33.3218 21.9799 33.3822 22.0605 33.4828 22.0605Z" fill="#B3B3B3"/>
<path d="M44.9322 19.9648C46.1795 21.597 48.1114 22.5642 50.1635 22.5642C52.2364 22.5642 54.1681 21.5567 55.0134 19.5416L45.2138 19.2796L44.9322 19.6826C44.8716 19.7632 44.8716 19.8842 44.9322 19.9648Z" fill="#B3B3B3"/>
<path d="M55.3147 22.0605H58.7956C58.8968 22.0605 58.9766 21.9798 58.9969 21.8992L59.4397 19.9648H63.3435L63.7862 21.8992C63.8061 22 63.8864 22.0605 63.9871 22.0605H67.4482C67.5691 22.0605 67.6093 21.9597 67.5691 21.7985L67.0054 19.8237L55.8179 19.5416L55.1739 21.7985C55.1337 21.9597 55.2141 22.0605 55.3147 22.0605Z" fill="#B3B3B3"/>
<path d="M75.2955 21.8791C75.3158 21.9798 75.3758 22.0604 75.477 22.0604H78.4344C78.535 22.0604 78.5955 22 78.6159 21.8791L79.0988 20.1461L75.0139 20.0453L75.2955 21.8791Z" fill="#B3B3B3"/>
<path d="M69.6016 22.0605H72.5595C72.6596 22.0605 72.7206 21.9799 72.7404 21.8791L73.0424 20.005L68.8772 19.9043L69.4404 21.8992C69.4404 22 69.5004 22.0605 69.6016 22.0605Z" fill="#B3B3B3"/>
<path d="M29.3979 22.6448C30.1223 22.6448 30.8467 22.5441 31.5308 22.3224C31.6314 22.2821 31.6918 22.2015 31.6918 22.1008V18.9169L23.3613 18.6952C24.4278 21.1133 26.5406 22.6448 29.3979 22.6448Z" fill="#B3B3B3"/>
<path d="M5.23175 26.9169H3.92385V26.3124C3.92385 26.2116 3.86348 26.1511 3.74274 26.1511H3.48116C3.36043 26.1511 3.30007 26.2116 3.30007 26.3124V28.9924C3.30007 29.0932 3.36043 29.1537 3.48116 29.1537H3.76287C3.8836 29.1537 3.94395 29.0932 3.94395 28.9924V28.2065H3.56165V27.4005H5.23175V29.0932C5.23175 29.6977 4.86957 30 4.12505 30H3.0586C2.3141 30 1.9519 29.6977 1.9519 29.0932V26.2116C1.9519 25.607 2.3141 25.3047 3.0586 25.3047H4.12505C4.86957 25.3047 5.23175 25.607 5.23175 26.2116V26.9169Z" fill="white"/>
<path d="M19.2767 29.9798L19.1157 29.2745H17.9486L17.7876 29.9798H16.4797L17.7273 25.3047H19.337L20.5846 29.9798H19.2767ZM18.1699 28.3677H18.9346L18.5724 26.6751L18.1699 28.3677Z" fill="white"/>
<path d="M33.1406 29.9798H31.9534V25.3047H33.382L34.1869 27.8035L34.9717 25.3047H36.4003V29.9798H35.2332V27.0176L34.6296 28.9924H33.7241L33.1204 27.0378L33.1406 29.9798Z" fill="white"/>
<path d="M48.071 25.3047H49.399V29.9798H48.071V25.3047Z" fill="white"/>
<path d="M63.2628 25.3047H64.4701V29.9798H63.3436L62.2568 27.5214V29.9798H61.0496V25.3047H62.1765L63.2628 27.8035V25.3047Z" fill="white"/>
<path d="M79.3805 26.9169H78.0726V26.3124C78.0726 26.2116 78.0121 26.1511 77.8916 26.1511H77.61C77.4891 26.1511 77.4286 26.2116 77.4286 26.3124V28.9924C77.4286 29.0932 77.4891 29.1537 77.61 29.1537H77.8713C77.9918 29.1537 78.0528 29.0932 78.0528 28.9924V28.2065H77.67V27.4005H79.3805V29.0932C79.3805 29.6977 79.0181 30 78.2739 30H77.2074C76.4628 30 76.1003 29.6977 76.1003 29.0932V26.2116C76.1003 25.607 76.4628 25.3047 77.2074 25.3047H78.2739C79.0181 25.3047 79.3805 25.607 79.3805 26.2116V26.9169Z" fill="white"/>
</svg>
