<svg width="2035" height="442" viewBox="0 0 2035 442" fill="none" xmlns="http://www.w3.org/2000/svg">
<path d="M50.4176 293.116C71.8342 292.767 93.26 292.951 114.677 293.006C118.89 293.042 123.361 292.602 127.235 294.612C133.504 297.495 138.058 304.609 136.479 311.595C128.602 347.424 120.543 383.225 112.547 419.036C109.839 431.208 97.5653 439.847 85.3194 439.645C62.6819 439.59 40.0351 439.672 17.3976 439.599C9.17246 439.617 0.28636 433.329 0.864691 424.406V422.469C1.25943 416.392 2.87508 410.517 4.17862 404.596C10.8799 374.862 17.5537 345.129 24.1907 315.386C26.0909 302.938 37.9421 293.18 50.4176 293.116ZM1859.4 1.36152C1868.32 -0.134794 1877.4 0.406818 1886.41 0.342559C1932.31 0.333379 1978.21 0.379278 2024.11 0.30584C2028.54 0.25076 2032.93 3.03226 2034.63 7.15401C2035.3 9.79781 2034.94 12.5793 2034.54 15.2415C2014.9 103.019 1994.83 190.724 1974.91 278.437C1973.07 285.9 1965.93 292.244 1958.03 291.766C1949.14 291.776 1940.26 291.84 1931.38 291.739C1925.49 291.748 1920.92 285.414 1922.01 279.805C1928.36 251.99 1934.35 224.083 1941.02 196.333C1941.99 191.761 1942.76 186.363 1939.79 182.352C1937.52 179.065 1933.33 177.964 1929.54 178.01C1910.26 177.918 1890.97 178.267 1871.68 177.899C1864.19 177.78 1859.74 168.72 1862.57 162.239C1869.56 145.54 1882.5 131.312 1898.68 123.132C1913.82 115.238 1931.21 114.118 1947.95 113.962C1954.62 114.118 1960.87 108.977 1962.26 102.487C1966.02 85.0727 1970.63 67.8237 1973.6 50.2351C1975.03 43.8092 1968.77 37.9065 1962.55 38.1452C1937.78 38.0259 1912.99 38.136 1888.22 38.0993C1881.75 37.8606 1875.41 41.4775 1872.22 47.068C1870.6 49.7302 1870.17 52.8697 1869.5 55.8532C1853.24 128.732 1836.41 201.492 1819.99 274.334C1819.21 280.172 1816.47 285.937 1811.36 289.168C1807.84 291.72 1803.38 291.996 1799.2 291.794C1784.21 291.739 1769.23 291.785 1754.25 291.757C1748.77 292.06 1743.97 286.901 1744.06 281.558C1744.2 279.429 1744.8 277.372 1745.27 275.307C1758.95 213.93 1773.22 152.682 1787.04 91.3333C1791.3 74.0201 1793.42 55.6879 1802.71 40.0913C1814.04 19.1429 1835.84 4.50103 1859.4 1.36152ZM1609.64 38.8796C1603.47 40.2933 1598.12 45.177 1596.45 51.3275C1583.98 107.756 1571.03 164.084 1558.3 220.457C1556.32 228.783 1553.74 237.109 1553.75 245.739C1554.15 250.898 1559.36 254.487 1564.25 254.652C1588.09 254.781 1611.93 254.615 1635.77 254.735C1638.81 254.716 1641.97 255.038 1644.91 254.019C1650.69 252.21 1655.47 247.226 1656.63 241.231C1660.18 224.698 1664.22 208.276 1667.59 191.706C1668.64 186.06 1665.1 178.799 1658.78 178.588C1638.26 178.111 1617.72 178.579 1597.21 178.441C1591.15 178.588 1585.05 173.163 1585.8 166.874C1587.28 157.116 1593.24 148.836 1599.46 141.474C1613.59 124.335 1635.92 115.495 1657.78 114.825C1665.54 114.65 1673.87 115.651 1681 111.887C1684.38 110.115 1686.91 106.838 1687.63 103.065C1691.21 87.946 1694.7 72.79 1698.1 57.6249C1698.92 52.9982 1700.72 47.6005 1697.72 43.3777C1694.64 38.7786 1688.57 38.1085 1683.51 38.2737C1658.89 38.7878 1634.22 37.5761 1609.64 38.8796ZM1585.27 2.04083C1597.46 0.315019 1609.81 0.92089 1622.08 0.489437C1664.89 0.443538 1707.69 0.526156 1750.48 0.443537C1755.82 0.608775 1760.88 5.30886 1760.85 10.7709C1760.63 13.2586 1759.82 15.6362 1759.28 18.0597C1754.21 39.1091 1749.89 60.3238 1745.03 81.4191C1742.48 92.2421 1739.39 103.028 1734.44 113.016C1727.74 127.585 1714.46 138.178 1700.01 144.494C1711.64 152.719 1718.28 166.608 1719.4 180.607C1720.36 189.595 1718.36 198.508 1716.72 207.293C1713.25 224.625 1708.67 242.012 1699.89 257.48C1687.78 278.713 1663.63 291.619 1639.48 292.354C1586.54 292.363 1533.6 292.354 1480.66 292.363C1475.64 292.335 1470.99 288.306 1470.26 283.358C1469.94 279.888 1471.29 276.583 1471.98 273.251C1485.8 211.13 1500.31 149.176 1514.13 87.0555C1517 75.8285 1518.53 64.2436 1522.45 53.292C1527.78 39.2652 1536.67 26.4317 1548.63 17.2427C1559.16 8.96244 1572.03 3.90434 1585.27 2.04083ZM1311.24 1.31562C1320.22 -0.0521749 1329.32 0.333379 1338.38 0.25076C1383.95 0.158962 1429.52 0.232401 1475.09 0.25076C1479.65 0.204861 1484.45 2.68342 1486.36 6.97042C1487.46 9.32964 1486.96 12.0102 1486.63 14.4887C1467.65 99.6227 1448.29 184.683 1428.99 269.753C1427.63 276.629 1426.41 284.661 1420.03 288.801C1415.69 292.464 1409.72 291.932 1404.43 291.886C1396.8 291.601 1389.14 292.345 1381.54 291.528C1376.48 290.399 1373.38 284.615 1374.33 279.695C1390.54 206.559 1407.68 133.625 1423.9 60.489C1424.88 55.9266 1426.21 51.3091 1425.84 46.5999C1425.6 44.0111 1424.47 41.248 1422.11 39.9353C1414.49 35.4188 1402.93 39.7792 1400.95 48.6194C1391.93 87.3309 1383.48 126.171 1374.51 164.892C1372.4 173.383 1363.2 178.294 1354.89 177.964C1346.93 177.459 1338.93 178.202 1330.98 177.45C1325.17 176.871 1320.64 170.528 1322.25 164.836C1330.59 126.841 1339.08 88.8731 1347.92 50.9878C1348.94 46.9946 1347.76 42.0926 1344.09 39.8435C1337.22 36.2358 1327.46 38.5308 1323.57 45.4432C1321.19 49.4823 1320.37 54.1641 1319.35 58.6714C1303.04 131.881 1286.19 204.971 1269.77 278.153C1268.17 285.818 1260.86 292.014 1252.97 291.922C1236.74 291.73 1220.5 291.932 1204.27 291.849C1198.5 291.61 1193.65 285.432 1195.1 279.768C1211.23 207 1228.25 134.424 1244.44 61.6732C1249 43.3777 1259.67 26.4134 1275.05 15.3333C1285.61 7.56711 1298.32 3.1057 1311.24 1.31562ZM1036.52 0.847451C1047.76 -0.125614 1059.08 0.581235 1070.35 0.379279C1112.85 0.397638 1155.34 0.388458 1197.83 0.360919C1202.1 0.507796 1206.26 3.29847 1207.82 7.31007C1208.88 12.5242 1207.08 17.7292 1205.97 22.769C1187.16 107.123 1167.79 191.348 1148.74 275.647C1147.81 283.358 1141.75 290.784 1133.78 291.574C1124.26 292.051 1114.72 291.684 1105.2 291.748C1098.72 292.207 1093.64 285.028 1095.34 278.988C1100.88 254.753 1106.24 230.491 1111.77 206.256C1113.3 199.977 1115.48 193.661 1114.9 187.107C1114.42 181.975 1109.42 178.019 1104.38 178.037C1084.46 177.817 1064.52 178.312 1044.59 177.844C1037.67 177.505 1033.11 169.353 1035.56 163.101C1043.81 141.868 1062.18 124.757 1084.06 118.313C1096.22 114.439 1109.12 114.301 1121.77 113.971C1128.2 113.824 1134.08 108.812 1135.43 102.56C1139.23 85.0818 1143.83 67.7686 1146.83 50.1341C1148.12 43.9928 1142.38 38.237 1136.42 38.1544C1111.33 37.9524 1086.25 38.0993 1061.18 38.081C1053.3 37.8147 1045.59 43.4604 1043.71 51.1439C1026.8 126.777 1009.39 202.299 992.354 277.905C990.72 285.451 983.679 291.968 975.747 291.776C959.82 291.748 943.902 291.803 927.984 291.757C921.357 292.464 915.592 285.258 917.593 278.951C932.831 210.938 948.621 143.043 963.924 75.0483C966.007 65.2258 968.266 55.3483 972.7 46.2786C978.575 33.7664 987.406 22.4844 998.807 14.5713C1009.87 6.73174 1023.12 2.39885 1036.52 0.847451ZM809.849 0.93925C812.777 0.2783 815.825 0.489437 818.808 0.324199C833.166 0.195681 847.532 0.397638 861.89 0.26912C868.15 0.00290432 874.255 6.40127 872.437 12.7262C858.135 77.9032 842.997 142.897 828.438 208.018C827.226 212.507 826.18 217.391 828.016 221.88C829.154 225.323 832.477 227.994 836.195 227.819C856.079 228.058 875.981 227.728 895.864 227.976C902.942 227.801 909.423 235.264 907.091 242.241C901.721 256.277 892.027 268.615 879.809 277.354C866.415 286.947 849.836 291.362 833.505 291.831C805.048 292.051 776.59 292.069 748.133 291.996C741.78 292.391 735.96 285.855 737.475 279.585C757.487 190.916 778.087 102.368 797.722 13.6075C799.265 7.68645 804.139 2.9221 809.849 0.93925ZM576.001 1.3248C583.428 0.0488036 590.992 0.415998 598.492 0.370099C645.924 0.406818 693.357 0.379279 740.78 0.370099C745.516 0.498617 750.529 3.9686 751.079 8.90737C751.566 12.7813 750.4 16.5817 749.546 20.3088C730.893 103.717 711.845 187.024 692.943 270.368C691.741 275.922 690.942 282.072 686.848 286.369C683.497 289.967 678.641 291.977 673.73 291.849C664.862 291.739 655.976 292.023 647.118 291.711C640.939 291.261 636.772 284.542 638.397 278.713C644.951 250.338 651.074 221.853 657.821 193.524C659.602 187.171 655.967 178.542 648.669 178.193C628.262 177.615 607.846 178.432 587.439 177.835C580.637 177.385 576.203 169.362 578.553 163.175C583.767 149.625 593.158 137.774 604.899 129.274C615.153 121.783 627.39 117.221 639.939 115.476C648.109 114.329 656.371 114.219 664.605 113.98C671.141 113.916 677.154 108.821 678.485 102.459C682.074 86.6332 685.774 70.8347 689.115 54.9535C689.758 51.2082 690.722 46.9762 688.666 43.4879C686.233 39.3111 681.083 37.7964 676.511 38.0442C651.726 38.1452 626.949 37.9157 602.173 38.1728C594.701 38.7603 587.926 44.6537 586.521 52.0527C569.722 127.337 552.363 202.501 535.417 277.758C533.829 285.432 526.65 292.042 518.609 291.776C502.37 291.739 486.121 291.831 469.873 291.739C464.044 291.748 459.178 285.515 460.445 279.86C475.693 211.241 491.804 142.823 507.079 74.2129C509.199 64.7209 511.513 55.1739 515.634 46.3153C520.5 36.2174 527.008 26.7714 535.61 19.4826C546.929 9.66012 561.157 3.32601 576.001 1.3248ZM381.223 1.10449C383.518 0.516976 385.886 0.30584 388.246 0.333379C411.498 0.507796 434.742 0.223221 457.985 0.480257C466.632 0.388458 474.334 8.52181 473.756 17.1509C473.462 19.8222 472.719 22.4201 472.168 25.0456C465.54 55.128 458.701 85.1736 451.981 115.238C448.071 132.872 437.899 148.845 424.276 160.605C404.402 177.22 380.599 188.52 355.942 196.066C335.985 202.281 315.477 206.467 294.997 210.506C293.05 210.974 290.948 211.525 289.553 213.058C288.617 214.857 290.094 216.95 291.967 217.244C297.622 218.713 303.497 218.961 309.244 219.861C327.548 222.78 345.587 228.269 361.835 237.302C370.951 242.471 379.8 248.437 386.703 256.415C399.766 271.213 407.009 291.601 404.127 311.338C398.545 347.433 388.934 382.739 381.526 418.476C379.681 427.334 372.86 434.77 364.488 437.983C359.228 440.195 353.436 439.562 347.882 439.626C326.768 439.599 305.645 439.691 284.522 439.571C275.177 439.874 266.851 430.29 268.935 421.065C273.883 397.729 279.455 374.523 284.467 351.206C287.129 338.253 289.314 324.952 287.937 311.705C285.835 299.936 282.393 287.415 273.222 279.116C262.096 269.799 249.262 262.198 235.153 258.443C222.182 254.707 208.403 253.707 196.019 248.043C190.869 245.573 185.664 242.627 182.231 237.917C174.777 227.856 174.309 213.288 180.689 202.575C183.929 196.902 189.63 193.239 195.386 190.513C206.053 185.601 217.849 184.224 229.324 182.306C251.925 178.79 275.196 175.816 295.896 165.433C309.813 158.906 323.417 150.195 331.964 137.095C334.819 132.67 337.013 127.796 338.261 122.673C346.11 88.7446 353.481 54.7149 361.238 20.7677C363.432 11.0922 371.731 3.47289 381.223 1.10449ZM112.299 1.16875C116.393 0.140602 120.643 0.388458 124.82 0.360919C146.512 0.516976 168.204 0.204861 189.906 0.507797C199.067 0.461897 206.842 10.0089 204.85 18.9777C196.928 54.8342 188.795 90.6448 180.854 126.492C177.981 138.334 166.093 146.78 154.095 146.807C131.788 146.871 109.49 146.78 87.1829 146.853C81.014 146.89 74.3586 144.365 71.0723 138.876C68.4652 134.901 68.557 129.852 69.5576 125.372C77.0759 91.93 84.5391 58.4786 92.0115 25.0272C92.7367 21.8326 93.2783 18.5554 94.7471 15.5903C98.1712 8.55853 104.827 3.30765 112.299 1.16875Z" fill="#661054"/>
<path d="M1549.47 337.473C1572.94 337.252 1596.43 337.445 1619.9 337.353C1618.93 342.861 1617.68 348.314 1616.63 353.803C1599.49 353.703 1582.35 353.813 1565.21 353.739C1563.46 362.368 1561.74 371.007 1560.01 379.636C1576.34 379.626 1592.67 379.636 1609 379.636C1607.85 385.254 1606.77 390.89 1605.72 396.527C1589.28 396.499 1572.84 396.435 1556.41 396.572C1554.68 405.615 1552.8 414.629 1551.04 423.662C1568.58 423.671 1586.13 423.644 1603.68 423.681C1602.55 429.143 1601.47 434.614 1600.42 440.085C1576.64 440.278 1552.87 440.168 1529.1 440.14C1535.82 405.899 1542.9 371.741 1549.47 337.473ZM1150.36 440.149C1157.15 405.872 1164.02 371.603 1170.87 337.335C1177.46 337.445 1184.05 337.326 1190.64 337.381C1197.05 363.396 1203.54 389.403 1209.87 415.437C1226.33 389.375 1243.06 363.488 1259.47 337.399C1265.88 337.381 1272.28 337.353 1278.69 337.39C1271.71 371.622 1264.97 405.908 1258.11 440.168C1252.23 440.177 1246.35 440.177 1240.49 440.168C1245.25 416.3 1250.06 392.432 1254.77 368.546C1240.65 392.423 1226.76 416.428 1212.5 440.213C1207.13 440.177 1201.76 440.177 1196.39 440.158C1191.67 416.309 1186.91 392.469 1182.24 368.611C1177.44 392.441 1172.7 416.3 1167.94 440.14C1162.08 440.213 1156.21 440.149 1150.36 440.149ZM778.619 440.232C799.907 405.908 821.36 371.686 842.685 337.381C849.543 337.381 856.4 337.399 863.267 337.335C871.244 371.622 879.258 405.89 887.235 440.177C880.644 440.168 874.062 440.177 867.48 440.168C865.47 430.841 863.395 421.523 861.412 412.197C850.038 412.086 838.655 412.206 827.281 412.132C830.458 406.661 833.808 401.291 836.856 395.746C843.833 395.508 850.819 395.746 857.804 395.581C854.931 382.931 852.425 370.19 849.276 357.604C844.016 365.15 839.582 373.274 834.68 381.068C822.765 400.74 810.831 420.403 798.98 440.113C792.196 440.287 785.403 440.094 778.619 440.232ZM1896.34 342.898C1916.48 333.856 1939.76 335.214 1960.53 341.383C1959.48 347.176 1958.32 352.95 1957.18 358.724C1941.84 353.289 1924.8 351.022 1908.91 355.318C1902.35 357.494 1896.51 363.341 1896.46 370.584C1895.8 374.219 1897.95 378.479 1901.83 379.076C1912.75 380.627 1923.96 378.415 1934.8 380.893C1940.12 382.087 1945.62 384.455 1948.6 389.274C1951.69 393.736 1952.07 399.409 1951.39 404.642C1950.48 413.445 1947 422.221 1940.59 428.454C1933.53 435.44 1923.71 438.91 1914.02 440.113C1898.59 442.398 1882.78 440.351 1867.87 436.092C1868.88 430.299 1869.97 424.525 1871.21 418.779C1882.5 422.818 1894.57 424.654 1906.56 424.185C1912.07 423.91 1917.91 423.717 1922.78 420.761C1928.31 417.741 1932.2 411.765 1932.19 405.394C1932.07 402.016 1929.8 398.564 1926.35 397.913C1915.03 395.388 1903.25 398.601 1891.97 395.765C1885.55 394.415 1879.44 389.972 1877.71 383.418C1874.15 367.858 1881.8 349.994 1896.34 342.898ZM493.364 337.849C508.538 335.288 524.438 336.196 538.951 341.502C537.703 347.203 536.583 352.941 535.481 358.687C522.437 353.363 507.758 351.288 493.942 354.63C486.553 356.429 479.218 359.715 474.141 365.572C465.678 375.156 462.648 388.393 462.804 400.915C462.951 408.304 465.962 416.291 472.691 420.064C481.99 425.48 493.346 424.644 503.554 422.928C505.638 412.812 507.611 402.677 509.677 392.561C516.011 392.542 522.345 392.561 528.679 392.579C525.76 406.955 523.061 421.367 519.94 435.688C502.057 441.691 482.192 443.362 464.099 437.267C450.347 433.154 441.755 418.549 442.618 404.568C442.535 387.815 446.987 370.548 457.498 357.246C466.247 346.294 479.732 340.052 493.364 337.849ZM95.0684 178.569C108.223 176.182 122.14 181.011 131.696 190.191C139.425 197.406 143.869 207.734 144.548 218.217C145.245 231.142 139.6 244.15 129.97 252.752C123.765 258.379 115.723 261.748 107.48 262.969C91.121 265.126 73.8629 256.717 65.6378 242.388C59.983 233.373 58.8814 222.164 60.6256 211.837C63.8477 195.065 78.2876 181.397 95.0684 178.569Z" fill="#FE7A1C"/>
</svg>
