<svg width="130" height="28" viewBox="0 0 1309 288" fill="none" xmlns="http://www.w3.org/2000/svg">
<path d="M303.983 0H327.095C344.973 1.63523 363.288 7.41304 376.479 20.1678C390.105 34.0128 394.357 54.1806 395.011 72.9313C395.12 112.722 395.011 152.621 395.011 192.412H352.495C352.495 183.582 352.604 174.752 352.495 165.921C349.334 170.391 346.063 174.861 342.139 178.676C332.654 188.269 319.573 193.611 306.382 195.901C288.176 198.844 268.88 196.446 252.31 188.051C237.484 180.311 225.601 165.921 223.53 149.133C222.113 135.833 223.421 121.552 230.834 109.996C239.446 95.9335 254.708 87.3213 270.298 82.8516C296.897 74.6755 325.023 75.1116 352.604 75.3296C352.931 67.1534 352.168 58.5412 347.48 51.5642C341.594 43.0611 331.564 38.1554 321.535 36.5201C299.514 32.4866 276.184 40.0086 259.832 55.0527L234.868 30.0882C243.916 20.9309 254.817 13.2999 266.918 8.61221C278.692 3.81554 291.338 1.4172 303.983 0ZM286.541 116.21C279.891 119.263 272.696 123.732 270.952 131.363C268.226 140.194 272.369 149.896 279.891 154.911C289.157 161.561 301.04 161.779 311.941 160.798C317.937 160.253 323.933 158.726 329.384 156.11C338.105 151.749 344.755 143.573 347.48 134.198C350.424 125.913 349.225 117.082 349.443 108.47C328.403 108.579 306.382 107.816 286.541 116.21ZM517.435 0H535.532C549.05 1.4172 563.004 5.88683 572.815 15.8072C578.157 20.8219 581.863 27.3628 585.025 33.9038C590.149 25.0735 596.58 16.7884 605.193 11.2286C617.402 2.72538 632.665 -0.654092 647.382 0.109015C661.99 -0.545077 677.143 3.27046 688.698 12.4277C701.562 22.2391 708.866 37.7193 711.701 53.3085C715.189 69.4428 714.099 86.1221 714.317 102.474V192.412H666.677V79.5812C665.914 69.2247 663.734 57.8871 655.667 50.5831C648.145 42.843 636.371 41.5348 626.124 42.843C615.004 44.0422 604.866 51.1282 599.415 60.8305C593.637 71.078 592.22 83.1787 592.438 94.8433V192.412H545.343V90.4827C545.125 78.9271 545.561 66.6084 539.784 56.2519C536.404 49.711 530.081 44.8053 522.777 43.4971C509.041 40.6627 493.016 43.4971 483.205 54.0716C473.72 63.1199 470.886 76.8558 470.559 89.3926C470.559 123.732 470.45 158.072 470.559 192.412H423.464V4.57864H468.597C468.597 14.172 468.706 23.8744 468.487 33.4677C474.156 22.4572 482.878 12.9728 493.67 6.86797C501.083 2.72538 509.368 1.09015 517.435 0ZM26.1033 26.2727C41.6925 10.2474 63.6046 0.545077 86.0617 0.109015C93.2568 0.327046 100.561 -0.327046 107.756 0.981138C121.492 3.27046 135.228 8.5032 145.584 17.9875C150.381 22.3481 153.978 27.7989 157.685 33.0316C157.685 23.5473 157.576 14.063 157.685 4.57864C172.511 4.68766 187.337 4.57864 202.163 4.57864V186.416C200.746 209.418 195.295 233.293 180.687 251.716C169.022 266.76 151.689 276.681 133.483 281.696C118.875 285.511 103.613 286.492 88.4601 286.056C65.1308 284.639 41.1474 280.714 20.9796 268.287C14.5477 264.471 8.66087 259.784 2.88306 255.096C12.6944 242.341 21.9607 229.15 31.6631 216.286C41.9105 225.771 53.5752 233.729 66.657 238.744C81.2651 243.758 97.1813 244.63 112.334 242.123C126.724 239.725 140.678 231.658 147.546 218.358C155.832 202.659 155.286 184.345 155.177 167.011C144.167 182.601 125.525 190.886 107.102 193.611C100.234 195.028 93.1477 194.374 86.1708 194.483C60.2251 193.175 35.1516 180.093 19.3444 159.598C7.78874 144.445 1.24783 125.804 0.0486573 106.835C0.157673 97.6777 -0.496419 88.5204 1.0298 79.3632C3.97321 59.7404 12.1494 40.5537 26.1033 26.2727ZM95.8731 42.734C78.7577 44.1512 62.0784 53.8536 54.0112 69.3337C45.8351 84.5959 44.5269 103.783 51.5039 119.699C57.0637 132.454 67.7472 142.81 80.72 147.934C103.068 157.2 131.739 150.877 146.674 131.363C155.723 119.263 158.884 103.238 156.813 88.4114C155.614 76.7468 150.599 65.5182 142.096 57.3421C130.431 44.9143 112.225 41.3168 95.8731 42.734ZM758.359 34.5579C777.873 11.1196 809.16 -1.09015 839.358 0.109015C860.507 -0.654092 881.874 7.08599 897.354 21.585C911.853 35.321 920.247 54.5077 923.953 73.9124C926.679 87.5393 926.352 101.384 926.352 115.229H783.324C785.068 127.657 790.301 140.194 800.548 148.043C814.175 159.271 833.362 161.343 850.041 157.2C863.777 153.712 874.788 143.9 883.836 133.544C895.282 142.156 906.511 150.877 917.958 159.271C908.582 170.718 897.354 180.965 883.836 187.288C847.861 203.859 802.51 199.607 771.223 174.97C746.804 155.674 733.831 123.514 736.338 92.772C736.774 71.514 744.841 50.8011 758.359 34.5579ZM817.446 37.0652C806.435 39.5726 797.06 47.0946 791.282 56.688C786.921 63.4469 785.177 71.405 783.324 79.1451C815.156 79.5812 846.989 79.2541 878.821 79.3632C879.257 64.21 871.626 48.7298 858.108 41.4258C845.68 34.8849 830.854 33.9038 817.446 37.0652ZM924.39 4.68766C941.723 4.46963 959.056 4.57864 976.281 4.57864C986.528 31.7235 996.994 58.8683 1007.24 86.0131C1013.67 102.474 1019.56 119.263 1026.32 135.615C1043.11 92.0089 1059.9 48.2938 1076.57 4.57864H1159.64L1211.97 134.743C1227.67 91.3548 1243.15 47.9667 1258.96 4.57864H1308.01V7.8491V5.6688C1279.13 79.9082 1250.24 154.148 1221.24 228.387C1216.11 242.123 1210.12 256.077 1200.09 267.088C1192.35 275.591 1181.88 281.478 1170.66 283.767C1151.25 287.909 1130.97 286.274 1111.79 281.26C1113.64 266.979 1115.71 252.698 1117.67 238.417C1130.21 243.213 1144.27 244.957 1157.36 241.251C1164.11 239.289 1169.78 234.274 1172.84 227.842C1178.29 216.831 1182.65 205.276 1187.23 193.829C1186.57 190.45 1184.83 187.397 1183.52 184.236C1172.73 158.617 1161.82 133.108 1151.03 107.489C1139.37 80.5623 1128.47 53.4175 1116.58 26.5997C1094.89 81.7615 1073.09 137.032 1051.39 192.194H1001.03C975.518 129.837 950.226 67.1534 924.39 4.68766ZM306.6 247.247H314.558V286.928H306.6L288.721 259.456V286.928H280.763V247.247H288.721L306.6 274.719V247.247ZM341.158 287.364C335.489 287.364 330.692 285.402 326.768 281.587C322.843 277.771 320.881 272.974 320.881 267.088C320.881 261.201 322.843 256.404 326.768 252.588C330.692 248.773 335.489 246.811 341.158 246.811C346.826 246.811 351.623 248.773 355.548 252.588C359.472 256.404 361.434 261.201 361.434 267.088C361.434 272.974 359.472 277.771 355.548 281.587C351.623 285.402 346.826 287.364 341.158 287.364ZM349.879 276.463C352.059 274.065 353.258 270.903 353.258 266.979C353.258 263.054 352.168 259.893 349.879 257.603C347.699 255.314 344.755 254.115 341.158 254.115C337.56 254.115 334.617 255.314 332.436 257.712C330.147 260.111 329.057 263.163 329.057 267.088C329.057 271.012 330.147 274.174 332.436 276.463C334.726 278.861 337.56 280.06 341.158 280.06C344.755 280.06 347.699 278.861 349.879 276.463ZM384.655 247.356H400.68C404.714 247.356 407.875 248.337 410.273 250.299C412.672 252.261 413.762 254.769 413.762 257.821C413.762 262.291 411.145 265.234 406.022 266.76C408.638 267.088 410.709 268.287 412.236 270.14C413.762 271.993 414.634 274.174 414.634 276.681C414.634 279.733 413.435 282.241 411.145 284.203C408.747 286.165 405.586 287.037 401.661 287.037H384.764V247.356H384.655ZM392.722 253.461V263.708H399.917C401.661 263.708 403.078 263.272 404.168 262.4C405.259 261.528 405.695 260.22 405.695 258.584C405.695 256.949 405.15 255.641 404.168 254.769C403.187 253.897 401.77 253.461 399.917 253.461H392.722ZM392.722 280.823H400.789C402.533 280.823 403.95 280.387 405.041 279.406C406.131 278.425 406.676 277.117 406.676 275.373C406.676 273.628 406.131 272.32 405.041 271.339C403.95 270.358 402.533 269.813 400.68 269.813H392.722V280.823ZM439.598 287.364C433.93 287.364 429.133 285.402 425.208 281.587C421.284 277.771 419.322 272.974 419.322 267.088C419.322 261.201 421.284 256.404 425.208 252.588C429.133 248.773 433.93 246.811 439.598 246.811C445.267 246.811 450.064 248.773 453.988 252.588C457.913 256.404 459.875 261.201 459.875 267.088C459.875 272.974 457.913 277.771 453.988 281.587C450.064 285.402 445.267 287.364 439.598 287.364ZM448.32 276.463C450.5 274.065 451.699 270.903 451.699 266.979C451.699 263.054 450.609 259.893 448.32 257.603C446.139 255.314 443.196 254.115 439.598 254.115C436.001 254.115 433.058 255.314 430.877 257.712C428.588 260.111 427.498 263.163 427.498 267.088C427.498 271.012 428.588 274.174 430.877 276.463C433.167 278.861 436.001 280.06 439.598 280.06C443.196 280.06 446.03 278.861 448.32 276.463ZM478.953 253.243C477.318 253.243 476.119 253.679 475.028 254.442C474.047 255.205 473.502 256.404 473.502 257.821C473.502 259.238 473.829 260.329 474.592 261.201C475.355 261.964 476.337 262.618 477.536 263.054C478.735 263.49 480.043 263.926 481.46 264.253C482.878 264.58 484.295 265.016 485.821 265.452C487.238 265.997 488.546 266.542 489.745 267.306C490.945 268.069 491.926 269.05 492.689 270.467C493.452 271.884 493.779 273.519 493.779 275.482C493.779 278.752 492.471 281.478 489.854 283.876C487.238 286.274 483.859 287.364 479.498 287.364C475.137 287.364 471.758 286.383 469.142 284.312C466.525 282.241 465.217 279.406 465.217 275.809H473.72C474.047 279.297 476.01 281.041 479.716 281.041C481.569 281.041 482.987 280.605 484.077 279.624C485.167 278.643 485.712 277.444 485.712 275.809C485.712 274.174 485.058 272.974 483.641 272.102C482.223 271.23 480.588 270.467 478.517 270.031C476.555 269.595 474.592 269.05 472.521 268.396C470.559 267.742 468.815 266.651 467.397 265.016C465.98 263.381 465.326 261.31 465.326 258.584C465.326 254.987 466.634 252.152 469.251 249.972C471.867 247.792 475.246 246.702 479.28 246.702C483.423 246.702 486.693 247.683 489.2 249.536C491.708 251.389 493.016 254.224 493.234 258.039H484.513C484.404 256.513 483.75 255.314 482.769 254.442C481.787 253.679 480.479 253.243 478.953 253.243ZM514.274 253.243C512.639 253.243 511.44 253.679 510.349 254.442C509.368 255.205 508.823 256.404 508.823 257.821C508.823 259.238 509.15 260.329 509.913 261.201C510.676 261.964 511.658 262.618 512.857 263.054C514.056 263.49 515.364 263.926 516.781 264.253C518.198 264.58 519.616 265.016 521.142 265.452C522.559 265.997 523.867 266.542 525.066 267.306C526.266 268.069 527.247 269.05 528.01 270.467C528.773 271.884 529.1 273.519 529.1 275.482C529.1 278.752 527.792 281.478 525.175 283.876C522.559 286.274 519.18 287.364 514.819 287.364C510.458 287.364 507.079 286.383 504.463 284.312C501.846 282.241 500.538 279.406 500.538 275.809H509.041C509.368 279.297 511.331 281.041 515.037 281.041C516.89 281.041 518.308 280.605 519.398 279.624C520.488 278.643 521.033 277.444 521.033 275.809C521.033 274.174 520.379 272.974 518.962 272.102C517.544 271.23 515.909 270.467 513.838 270.031C511.876 269.595 509.913 269.05 507.842 268.396C505.88 267.742 504.135 266.651 502.718 265.016C501.301 263.381 500.647 261.31 500.647 258.584C500.647 254.987 501.955 252.152 504.572 249.972C507.188 247.792 510.567 246.702 514.601 246.702C518.744 246.702 522.014 247.683 524.521 249.536C527.029 251.389 528.337 254.224 528.555 258.039H519.834C519.725 256.513 519.071 255.314 518.089 254.442C517.108 253.679 515.909 253.243 514.274 253.243ZM559.624 247.247V253.352H544.798V263.708H557.989V269.813H544.798V280.714H559.624V286.819H536.731V247.138L559.624 247.247ZM580.664 253.243C579.029 253.243 577.83 253.679 576.74 254.442C575.759 255.205 575.213 256.404 575.213 257.821C575.213 259.238 575.54 260.329 576.304 261.201C577.067 261.964 578.048 262.618 579.247 263.054C580.446 263.49 581.754 263.926 583.172 264.253C584.589 264.58 586.006 265.016 587.532 265.452C588.949 265.997 590.258 266.542 591.457 267.306C592.656 268.069 593.637 269.05 594.4 270.467C595.163 271.884 595.49 273.519 595.49 275.482C595.49 278.752 594.182 281.478 591.566 283.876C588.949 286.274 585.57 287.364 581.209 287.364C576.849 287.364 573.469 286.383 570.853 284.312C568.236 282.241 566.928 279.406 566.928 275.809H575.431C575.759 279.297 577.721 281.041 581.427 281.041C583.281 281.041 584.698 280.605 585.788 279.624C586.878 278.643 587.423 277.444 587.423 275.809C587.423 274.174 586.769 272.974 585.352 272.102C583.935 271.23 582.299 270.467 580.228 270.031C578.157 269.595 576.304 269.05 574.232 268.396C572.27 267.742 570.526 266.651 569.109 265.016C567.691 263.381 567.037 261.31 567.037 258.584C567.037 254.987 568.346 252.152 570.962 249.972C573.578 247.792 576.958 246.702 580.991 246.702C585.134 246.702 588.404 247.683 590.912 249.536C593.419 251.389 594.727 254.224 594.945 258.039H586.224C586.115 256.513 585.461 255.314 584.48 254.442C583.499 253.679 582.19 253.243 580.664 253.243ZM610.425 282.459C610.425 283.767 609.989 284.857 609.117 285.729C608.245 286.601 607.155 287.037 605.847 287.037C604.539 287.037 603.557 286.601 602.685 285.729C601.813 284.857 601.377 283.767 601.377 282.459C601.377 281.151 601.813 280.06 602.685 279.188C603.557 278.316 604.648 277.88 605.847 277.88C607.155 277.88 608.136 278.316 609.117 279.188C609.989 280.06 610.425 281.151 610.425 282.459ZM634.082 247.356H642.04V280.823H654.686V286.928H633.973V247.356H634.082ZM678.233 287.364C672.564 287.364 667.767 285.402 663.843 281.587C659.918 277.771 657.956 272.974 657.956 267.088C657.956 261.201 659.918 256.404 663.843 252.588C667.767 248.773 672.564 246.811 678.233 246.811C683.902 246.811 688.698 248.773 692.623 252.588C696.548 256.404 698.51 261.201 698.51 267.088C698.51 272.974 696.548 277.771 692.623 281.587C688.698 285.402 683.902 287.364 678.233 287.364ZM686.954 276.463C689.134 274.065 690.334 270.903 690.334 266.979C690.334 263.054 689.243 259.893 686.954 257.603C684.774 255.314 681.83 254.115 678.233 254.115C674.635 254.115 671.692 255.314 669.512 257.712C667.222 260.111 666.132 263.163 666.132 267.088C666.132 271.012 667.222 274.174 669.512 276.463C671.801 278.861 674.635 280.06 678.233 280.06C681.83 280.06 684.665 278.861 686.954 276.463ZM702.434 253.461V247.356H731.759V253.461H721.076V286.928H713.118V253.461H702.434ZM750.619 253.243C748.984 253.243 747.785 253.679 746.695 254.442C745.713 255.205 745.168 256.404 745.168 257.821C745.168 259.238 745.495 260.329 746.259 261.201C747.022 261.964 748.003 262.618 749.202 263.054C750.401 263.49 751.709 263.926 753.126 264.253C754.544 264.58 755.961 265.016 757.487 265.452C758.904 265.997 760.212 266.542 761.412 267.306C762.611 268.069 763.592 269.05 764.355 270.467C765.118 271.884 765.445 273.519 765.445 275.482C765.445 278.752 764.137 281.478 761.521 283.876C758.904 286.274 755.525 287.364 751.164 287.364C746.804 287.364 743.424 286.383 740.808 284.312C738.191 282.241 736.883 279.406 736.883 275.809H745.386C745.713 279.297 747.676 281.041 751.382 281.041C753.236 281.041 754.653 280.605 755.743 279.624C756.833 278.643 757.378 277.444 757.378 275.809C757.378 274.174 756.724 272.974 755.307 272.102C753.89 271.23 752.254 270.467 750.183 270.031C748.112 269.595 746.258 269.05 744.187 268.396C742.225 267.742 740.481 266.651 739.063 265.016C737.646 263.381 736.992 261.31 736.992 258.584C736.992 254.987 738.3 252.152 740.917 249.972C743.533 247.792 746.913 246.702 750.946 246.702C755.089 246.702 758.359 247.683 760.867 249.536C763.374 251.389 764.682 254.224 764.9 258.039H756.179C756.07 256.513 755.416 255.314 754.435 254.442C753.563 253.679 752.254 253.243 750.619 253.243ZM808.288 287.364C802.619 287.364 797.823 285.402 793.898 281.587C789.974 277.771 788.011 272.974 788.011 267.088C788.011 261.201 789.974 256.404 793.898 252.588C797.823 248.773 802.619 246.811 808.288 246.811C813.957 246.811 818.754 248.773 822.678 252.588C826.603 256.404 828.565 261.201 828.565 267.088C828.565 272.974 826.603 277.771 822.678 281.587C818.754 285.402 813.957 287.364 808.288 287.364ZM817.009 276.463C819.19 274.065 820.389 270.903 820.389 266.979C820.389 263.054 819.299 259.893 817.009 257.603C814.829 255.314 811.886 254.115 808.288 254.115C804.691 254.115 801.747 255.314 799.567 257.712C797.278 260.111 796.188 263.163 796.188 267.088C796.188 271.012 797.278 274.174 799.567 276.463C801.856 278.861 804.691 280.06 808.288 280.06C811.886 280.06 814.72 278.861 817.009 276.463ZM834.779 286.928V247.356H859.307V253.461H842.846V263.817H855.383V269.922H842.846V286.819L834.779 286.928ZM908.364 267.088C907.383 268.287 905.857 269.377 903.895 270.031C901.932 270.794 899.643 271.121 897.027 271.121H890.486V286.928H882.528V247.356H897.136C901.714 247.356 905.203 248.446 907.71 250.735C910.218 253.025 911.417 255.75 911.417 258.802C911.417 261.964 910.436 264.689 908.364 267.088ZM890.595 265.125H897.136C899.098 265.125 900.624 264.58 901.714 263.599C902.804 262.509 903.35 261.201 903.35 259.347C903.35 257.603 902.804 256.186 901.714 255.096C900.624 254.006 899.098 253.57 897.136 253.57H890.595V265.125ZM917.413 247.356H925.371V280.823H938.125V286.928H917.413V247.356ZM969.522 286.928L967.015 279.515H951.643L949.136 286.928H940.742L954.696 247.247H964.18L978.134 286.928H969.522ZM953.606 273.41H964.834L959.165 256.949L953.606 273.41ZM1001.46 286.928H993.505V273.301L980.096 247.356H989.036L997.43 265.997L1005.82 247.356H1014.76L1001.35 273.301L1001.46 286.928ZM1027.19 282.459C1027.19 283.767 1026.75 284.857 1025.88 285.729C1025.01 286.601 1023.92 287.037 1022.61 287.037C1021.3 287.037 1020.32 286.601 1019.45 285.729C1018.58 284.857 1018.14 283.767 1018.14 282.459C1018.14 281.151 1018.58 280.06 1019.45 279.188C1020.32 278.316 1021.41 277.88 1022.61 277.88C1023.92 277.88 1024.9 278.316 1025.88 279.188C1026.75 280.06 1027.19 281.151 1027.19 282.459Z" fill="white"/>
</svg>
