<svg width="77" height="36" viewBox="0 0 77 36" fill="none" xmlns="http://www.w3.org/2000/svg">
<g clip-path="url(#clip0_481_13753)">
<path d="M9.67742 17.3853H4.44619L3.66116 19.8511C3.40026 20.3698 3.26942 20.8885 3.26942 21.1487C3.26942 21.4072 3.40026 21.6674 3.5311 21.7974C3.792 21.9275 4.18452 22.056 4.83871 22.1861V22.5763H0.654194V22.1861C1.17755 22.056 1.56929 21.9275 1.70013 21.6674C2.09265 21.2787 2.48516 20.6284 2.87768 19.4609L7.45394 6.74478H7.84645L12.4235 19.591C12.6852 20.6284 13.0777 21.2772 13.3386 21.6674C13.7311 21.9259 14.1236 22.056 14.6462 22.1861V22.5755H9.41497V22.1861C9.93832 22.056 10.3308 22.056 10.4617 21.7974C10.7234 21.6674 10.7234 21.4072 10.7234 21.1487C10.7234 20.8885 10.5925 20.3698 10.3308 19.591L9.67742 17.3853ZM9.2849 16.6065L7.06219 10.3781L4.83871 16.6065H9.2849ZM20.9241 10.8976L24.0627 19.4609L27.0705 10.8976H30.3399V11.2862C29.9481 11.2862 29.6865 11.4155 29.5556 11.4155C29.2939 11.5456 29.1631 11.6748 29.0323 11.9342C28.9014 12.0643 28.9014 12.3236 28.9014 12.583V20.7569C28.9014 21.017 28.9014 21.2772 29.0323 21.4057C29.1631 21.6658 29.2939 21.7959 29.4248 21.9259C29.6865 22.0545 29.9481 22.0545 30.3399 22.0545V22.5747H25.7628V22.0545C26.1554 22.0545 26.417 22.0545 26.5479 21.9259C26.6787 21.7959 26.8095 21.5357 26.9404 21.4057C27.0712 21.1471 27.0712 20.887 27.0712 20.6268V12.5837L23.671 22.5747H23.2785L20.009 13.1032H19.8782V20.1097C19.8782 20.6284 19.8782 20.8885 20.009 21.1487C20.009 21.4072 20.1399 21.6674 20.2707 21.7974C20.4016 21.9275 20.5324 21.9275 20.7933 22.056H21.5783V22.5763H17.7863V22.056C18.1781 22.056 18.4397 22.056 18.7014 21.9275L19.0939 21.5373C19.2248 21.2787 19.2248 21.1487 19.2248 20.8885V14.0121V12.8431C19.2248 12.4537 19.2248 12.1943 19.0939 11.935C18.9631 11.8057 18.8323 11.5463 18.7014 11.4163C18.4397 11.4163 18.1781 11.287 17.7863 11.287V10.8976H20.9241ZM33.871 22.5747V22.0552H34.2635C34.3943 22.0552 34.5252 21.9252 34.656 21.7967C34.7868 21.6666 34.9177 21.4065 35.0485 21.1479C35.1786 20.8877 35.4403 20.4976 35.5711 19.9788L38.8405 10.5066H39.1022L42.7634 20.6276C42.8934 21.0178 43.025 21.2764 43.1559 21.4065C43.2867 21.6666 43.4175 21.7967 43.5484 21.9252C43.6792 21.9252 43.8101 22.0552 43.9409 22.0552H44.3334V22.5747H40.2797V22.0552H40.8039L41.0655 21.7967C41.0655 21.7967 41.1956 21.6666 41.1956 21.5365C41.1956 21.4065 41.1956 21.1479 41.0655 21.0178C41.0655 20.8877 40.9339 20.6276 40.9339 20.4976L40.2797 18.9407H36.7486L36.2253 20.4976C36.2253 20.6276 36.0945 20.7577 36.0945 20.8877V21.2764C36.0945 21.4065 36.0945 21.5365 36.2253 21.6666C36.2253 21.7967 36.3561 21.9252 36.487 21.9252C36.487 21.9252 36.6178 22.0552 36.7486 22.0552H37.0103V22.5747H33.871ZM37.0096 18.1634H40.0173L38.448 13.8813L37.0096 18.1634ZM54.6635 10.8976L54.7951 13.6227H54.4026C54.4026 13.2333 54.2725 12.8439 54.2725 12.5845C54.1409 12.3252 54.0108 12.1951 53.8792 11.9357C53.6176 11.8065 53.4867 11.8065 53.3559 11.6764H51.1324V20.1112C51.1324 20.3714 51.1324 20.6299 51.264 20.8901C51.264 21.1502 51.264 21.4088 51.3941 21.5388C51.5265 21.6689 51.6565 21.799 51.9182 21.9275C52.0483 22.0576 52.3099 22.0576 52.7032 22.0576V22.577H47.8645V22.0568C48.257 22.0568 48.5187 22.0568 48.7804 21.9267L49.1729 21.5381C49.3045 21.408 49.3045 21.1494 49.3045 20.8893C49.4346 20.6292 49.4346 20.3706 49.4346 20.1105V11.6756H47.9969C47.6036 11.6756 47.3419 11.6756 47.0803 11.8049C46.8186 11.8049 46.6885 11.9342 46.5569 12.1943C46.4268 12.3236 46.2952 12.5837 46.2952 12.8431C46.1652 13.1025 46.1652 13.3618 46.1652 13.6219H45.7719L45.9035 10.8968L54.6635 10.8976ZM63.4266 22.5747H58.7195V22.0552C59.1112 22.0552 59.3729 22.0552 59.503 21.9252C59.7646 21.9252 59.897 21.7967 59.897 21.5365C60.0271 21.4065 60.1587 21.2764 60.1587 21.0178V13.2325V12.5837C60.1587 12.3244 60.1587 12.065 60.0271 11.935C59.897 11.6756 59.7646 11.5463 59.6346 11.4163C59.3729 11.4163 59.1112 11.287 58.7195 11.287V10.8976H63.4266V11.2862C63.0341 11.2862 62.7724 11.4155 62.5107 11.4155C62.3799 11.5456 62.2483 11.6748 62.1182 11.9342C61.9866 12.0643 61.9866 12.3236 61.9866 12.583V21.017C61.9866 21.2772 62.1182 21.4057 62.1182 21.5357C62.2483 21.7959 62.3799 21.9259 62.6416 21.9259C62.7724 22.0545 63.0341 22.0545 63.4266 22.0545V22.5747ZM77.1577 14.6601H76.7644C76.7644 14.5301 76.6343 14.4008 76.6343 14.1407C76.6343 14.0114 76.5027 13.8813 76.3727 13.6219C76.3727 13.4919 76.241 13.3626 76.111 13.1032C76.111 12.9732 75.9809 12.8439 75.8493 12.5845C75.5868 12.4545 75.4568 12.1951 75.1951 12.0658C74.9334 11.9357 74.8018 11.6764 74.5401 11.6764L73.7574 11.287H72.9716C72.5791 11.287 72.0557 11.4163 71.6648 11.6764C71.2715 11.9357 70.8797 12.1951 70.6181 12.7146C70.2248 13.2333 69.9631 13.7528 69.833 14.4016C69.7014 15.0503 69.5714 15.8292 69.5714 16.6072C69.5714 17.3861 69.7014 18.0348 69.833 18.6828C69.833 19.2023 70.0947 19.7226 70.2248 20.1112C70.4865 20.4999 70.6181 20.76 70.8797 21.0201C71.1414 21.2787 71.4031 21.5388 71.6648 21.6689C71.9265 21.799 72.1881 21.9275 72.4498 21.9275C72.7115 22.0576 72.9732 22.0576 73.2348 22.0576C73.6281 22.0576 74.0199 22.0576 74.4124 21.799C74.8041 21.6689 75.3275 21.4088 75.72 21.0201C75.8501 20.8901 75.9817 20.6299 76.1117 20.4999C76.2418 20.3714 76.2418 20.2413 76.3734 20.1112C76.5035 19.8511 76.6351 19.7226 76.6351 19.5925C76.7652 19.3324 76.7652 19.2023 76.8968 18.9437L77.2893 19.2023C77.1585 19.3324 77.1585 19.5925 77.0276 19.7226L76.6351 20.4999C76.5035 20.76 76.3734 21.0201 76.1117 21.2787C75.8501 21.6689 75.5876 21.799 75.3259 22.0576C74.9342 22.3177 74.5409 22.4477 74.1484 22.577C73.7567 22.8364 73.3634 22.8364 72.8416 22.8364C72.0565 22.8364 71.5347 22.7063 70.8813 22.4477C70.2256 22.0576 69.7037 21.6689 69.1804 21.1502C68.7887 20.6299 68.3954 19.9812 68.0028 19.3324C67.7412 18.5536 67.6103 17.7747 67.6103 16.8666C67.6103 15.9585 67.7412 15.1796 68.0028 14.4016C68.2645 13.6235 68.657 12.9739 69.1804 12.3252C69.5737 11.8065 70.2271 11.417 70.7489 11.0276C71.4031 10.7683 72.0565 10.5089 72.8416 10.5089C73.3657 10.5089 73.7574 10.6382 74.1484 10.7683L74.9342 11.1577C75.0643 11.1577 75.1959 11.287 75.3259 11.287C75.4576 11.4163 75.5876 11.4163 75.5876 11.4163H75.72L75.8501 11.5463C75.8501 11.5463 75.8501 11.4163 75.9817 11.4163C75.9817 11.4163 76.1117 11.4163 76.1117 11.287C76.2418 11.287 76.2418 11.1577 76.2418 11.0276C76.3734 10.8983 76.3734 10.7683 76.3734 10.5089H76.7652L77.1577 14.6601ZM0.130839 26.0795H0.785032V29.8413H0.130839V26.0795ZM7.84645 26.0795H8.23897L9.15407 28.6746V28.4152V28.1551V27.8957V26.0795H9.67742V29.8413H9.15407L8.23897 27.5048V27.895C8.36981 28.0235 8.36981 28.1536 8.36981 28.2836V29.8413H7.84645V26.0795ZM16.7396 26.0795H17.263C17.3938 26.0795 17.5246 26.0795 17.6555 26.208H17.9172C17.9172 26.208 18.048 26.208 18.1781 26.3381C18.1781 26.3381 18.3089 26.4681 18.3089 26.5982C18.4397 26.5982 18.4397 26.7283 18.5706 26.8568V29.064C18.4397 29.3241 18.4397 29.4534 18.3089 29.4534C18.3089 29.5827 18.1781 29.7128 18.1781 29.7128C18.048 29.7128 17.9172 29.8428 17.9172 29.8428H16.7396V26.0795ZM17.393 29.4519H17.6547C17.7855 29.4519 17.7855 29.3226 17.9164 29.3226V29.0625V27.5048V26.9861V26.7259C17.7855 26.7259 17.7855 26.5974 17.6547 26.5974H17.2622V29.4519H17.393ZM25.5012 26.0795H26.0245V29.1925C26.0245 29.3226 26.1554 29.3226 26.1554 29.3226C26.1554 29.4519 26.1554 29.4519 26.2862 29.4519H26.5479L26.6787 29.3226V29.1925V26.0795H27.3329V28.8047C27.3329 28.9339 27.2021 29.064 27.2021 29.1941C27.2021 29.3241 27.2021 29.4534 27.0712 29.5827C27.0712 29.5827 27.0712 29.7128 26.9404 29.7128C26.9404 29.8428 26.8096 29.8428 26.8096 29.8428C26.6787 29.8428 26.6787 29.9729 26.5479 29.9729H26.1554L26.0245 29.8428C25.8937 29.8428 25.8937 29.8428 25.7628 29.7128L25.632 29.5827C25.632 29.4534 25.5012 29.3241 25.5012 29.1941V26.0795ZM34.1326 29.1925V28.9324C34.1326 28.8031 34.2635 28.8031 34.2635 28.673H34.656V29.1925L34.7868 29.3226C34.7868 29.4519 34.7868 29.4519 34.9177 29.4519H35.3094C35.3094 29.3226 35.4403 29.3226 35.4403 29.1925C35.4403 29.0625 35.4403 29.0625 35.3094 28.9324V28.8031V28.673C35.1786 28.673 35.1786 28.5437 35.1786 28.5437L34.5252 27.7649C34.3943 27.6348 34.3943 27.5048 34.2635 27.3747C34.2635 27.2462 34.1326 27.1161 34.1326 26.9861C34.1326 26.856 34.2635 26.7259 34.2635 26.5974C34.2635 26.4674 34.3943 26.4674 34.3943 26.3373C34.5252 26.2072 34.5252 26.2072 34.656 26.2072C34.7868 26.0772 34.9177 26.0772 35.0485 26.0772C35.1786 26.0772 35.3094 26.0772 35.4403 26.2072C35.5711 26.2072 35.7019 26.3373 35.7019 26.3373C35.8328 26.4674 35.8328 26.4674 35.8328 26.5974C35.9636 26.7259 35.9636 26.856 35.9636 26.856V27.1161C35.8328 27.2462 35.8328 27.2462 35.8328 27.3747H35.4403V27.1161C35.4403 26.9861 35.4403 26.856 35.3094 26.7259C35.3094 26.5974 35.1786 26.5974 35.0485 26.5974H34.7868V27.2462C34.9177 27.2462 34.9177 27.3747 34.9177 27.3747L35.5711 28.1536C35.7019 28.2836 35.8328 28.4137 35.8328 28.5437C35.9636 28.8031 35.9636 28.9324 35.9636 29.0625C35.9636 29.1925 35.9636 29.3226 35.8328 29.4519C35.8328 29.5812 35.8328 29.5812 35.7019 29.7112C35.5711 29.7112 35.5711 29.8413 35.4403 29.8413C35.3094 29.9714 35.1786 29.9714 35.0485 29.9714C34.9177 29.9714 34.7868 29.9714 34.656 29.8413C34.5252 29.8413 34.3943 29.7112 34.3943 29.7112C34.2635 29.5812 34.2635 29.5812 34.2635 29.4519C34.1326 29.3226 34.1326 29.1925 34.1326 29.1925ZM43.1559 26.5974H42.6317V26.0772H44.3326V26.5974H43.8085V29.8397H43.1543L43.1559 26.5974ZM51.1332 26.0795H51.7881C51.9182 26.0795 51.9182 26.0795 52.0498 26.208H52.3115C52.3115 26.208 52.4415 26.208 52.5732 26.3381C52.5732 26.3381 52.704 26.3381 52.704 26.4681C52.8348 26.5982 52.8348 26.5982 52.8348 26.7283C52.9657 26.8568 52.9657 26.9868 52.9657 27.247C52.9657 27.6356 52.9657 27.7657 52.8348 28.0258L52.4416 28.4152L53.0965 29.8428H52.4416L51.9182 28.5453H51.7881V29.8428H51.1332V26.0795ZM51.7881 28.0235H52.0498C52.1799 28.0235 52.1799 28.0235 52.3115 27.895V27.7649V27.1161V26.856V26.7259C52.1799 26.5974 52.1799 26.5974 52.0498 26.5974H51.7881V28.0235ZM59.8955 26.0795H60.4188V29.8413H59.8955V26.0795ZM67.4803 26.0795H68.9179V26.5982H68.1329V27.7657H68.7879V28.1551H68.1329V29.4534H68.9179V29.8428H67.4803V26.0795ZM75.5884 29.1925C75.5884 29.0625 75.5884 28.9324 75.72 28.9324V28.673H76.1117V29.1925L76.2434 29.3226C76.2434 29.4519 76.2434 29.4519 76.3734 29.4519H76.7667C76.7667 29.3226 76.8976 29.3226 76.8976 29.1925V28.9324C76.8976 28.9324 76.7667 28.9324 76.7667 28.8031V28.673C76.6351 28.673 76.6351 28.5437 76.6351 28.5437L75.9817 27.7649C75.8501 27.6348 75.8501 27.5048 75.72 27.3747V26.9861V26.5974C75.72 26.4674 75.8501 26.4674 75.8501 26.3373C75.9817 26.2072 76.1117 26.2072 76.1117 26.2072C76.2434 26.0772 76.3734 26.0772 76.505 26.0772C76.6351 26.0772 76.8976 26.0772 76.8976 26.2072C77.0284 26.2072 77.1592 26.3373 77.1592 26.3373L77.4194 26.5974V27.1161C77.4194 27.2462 77.2885 27.2462 77.2885 27.3747H76.896V27.1161C76.896 26.9861 76.896 26.856 76.7644 26.7259C76.7644 26.5974 76.6343 26.5974 76.5027 26.5974H76.241V27.2462C76.3726 27.2462 76.3727 27.3747 76.3727 27.3747L77.0268 28.1536C77.1577 28.2836 77.2885 28.4137 77.2885 28.5437C77.4194 28.8031 77.4194 28.9324 77.4194 29.0625V29.4519L77.1577 29.7112C77.1577 29.7112 77.0268 29.8413 76.896 29.8413C76.7644 29.9714 76.6343 29.9714 76.5027 29.9714C76.3727 29.9714 76.241 29.9714 76.111 29.8413C75.9809 29.8413 75.8493 29.7112 75.8493 29.7112C75.7192 29.5812 75.7192 29.5812 75.7192 29.4519C75.7192 29.3226 75.5884 29.1925 75.5884 29.1925ZM0 24.0023H77.4194V24.5218H0V24.0023Z" fill="white"/>
</g>
<defs>
<clipPath id="clip0_481_13753">
<rect width="77" height="36" fill="white"/>
</clipPath>
</defs>
</svg>
