<svg width="157" height="63" viewBox="0 0 1456 585" fill="none" xmlns="http://www.w3.org/2000/svg">
<path d="M450.139 0H225.069L113.204 193.699L113.929 194.898L168.83 289.991V290.019H168.858L225.097 387.454V387.482L216.454 374.909L163.923 298.55L158.095 290.047V290.019H57.6336L0 389.824L112.563 584.722H337.66L450.195 389.824L450.167 389.768L451.505 387.482H451.394L395.126 290.047L395.154 290.019H395.182L338.943 192.584L405.945 289.991V290.019H506.434H507.689L507.745 290.103L562.701 194.898L450.139 0Z" fill="#DC4F23"/>
<path d="M742.825 280.707C724.087 275.132 706.884 269.835 706.884 252.857C706.884 238.416 720.044 231.586 734.739 231.586C748.15 231.586 763.095 237.663 771.962 249.038L792.205 227.265C778.04 210.064 757.017 201.449 736.272 201.449C704.625 201.449 675.265 220.936 675.265 256.37C675.265 291.05 703.12 301.17 727.656 308.502C747.397 314.58 765.633 319.124 765.633 335.07C765.633 347.727 754.229 356.342 737.778 356.342C722.08 356.342 704.374 348.508 692.97 333.816L671.194 356.592C688.147 377.334 712.711 386.701 735.491 386.701C768.142 386.701 797.503 367.214 797.503 331.53C797.531 296.152 768.142 288.067 742.825 280.707Z" fill="white"/>
<path d="M946.871 341.204L918.263 254.14H887.62L858.761 341.204L830.154 254.14H797.252L844.597 382.715H872.954L902.816 297.156L932.678 382.715H961.286L1008.63 254.14H974.196L946.871 341.204Z" fill="white"/>
<path d="M1056.9 254.14H1026V382.715H1056.9V254.14Z" fill="white"/>
<path d="M1041.45 195.177C1029.79 195.177 1020.7 203.791 1020.7 215.166C1020.7 226.289 1029.82 234.903 1041.45 234.903C1053.1 234.903 1062.19 226.289 1062.19 215.166C1062.19 203.763 1053.08 195.177 1041.45 195.177Z" fill="white"/>
<path d="M1151.75 251.101C1134.02 251.101 1118.6 259.185 1110.74 272.623V254.139H1080.88V382.714H1111.52V313.632C1111.52 289.852 1127.22 278.449 1142.41 278.449C1156.33 278.449 1167.48 287.566 1167.48 305.268V382.714H1198.09V300.194C1198.09 267.8 1177.57 251.101 1151.75 251.101Z" fill="white"/>
<path d="M1284.45 356.648C1272.79 356.648 1263.7 349.818 1263.7 335.628V281.488H1307.81L1292 254.167H1263.7V201.505H1232.81V254.167H1197.06L1212.87 281.488H1232.81V340.2C1232.81 369.054 1253.3 384.248 1277.11 384.248C1288.77 384.248 1301.43 380.456 1312.55 372.595L1304.44 350.069C1298.11 354.362 1290.78 356.648 1284.45 356.648Z" fill="white"/>
<path d="M1395.34 356.648C1383.68 356.648 1374.59 349.818 1374.59 335.628V281.488H1418.7L1402.89 254.167H1374.59V201.505H1343.7V254.167H1307.95L1323.76 281.488H1343.7V340.2C1343.7 369.054 1364.19 384.248 1388 384.248C1399.66 384.248 1412.32 380.456 1423.44 372.595L1415.33 350.069C1409 354.362 1401.67 356.648 1395.34 356.648Z" fill="white"/>
<path d="M1442.43 254.111C1434.62 254.111 1428.91 259.91 1428.91 267.8C1428.91 275.689 1434.62 281.46 1442.43 281.46C1450.24 281.46 1455.95 275.661 1455.95 267.8C1455.98 259.91 1450.24 254.111 1442.43 254.111ZM1442.43 279.453C1435.96 279.453 1431.08 274.658 1431.08 267.8C1431.08 260.914 1435.99 256.146 1442.43 256.146C1448.9 256.146 1453.75 260.942 1453.75 267.8C1453.78 274.686 1448.9 279.453 1442.43 279.453Z" fill="white"/>
<path d="M1448.9 264.817C1448.9 262.001 1446.7 260.021 1443.55 260.021H1437.05V274.435H1440.25V269.89H1442.79L1445.52 274.435H1449.37L1446.11 269.138C1447.81 268.274 1448.9 266.657 1448.9 264.817ZM1443.41 267.214H1440.25V263.172H1443.35C1444.69 263.172 1445.58 264.064 1445.58 265.179C1445.61 266.266 1444.72 267.214 1443.41 267.214Z" fill="white"/>
</svg>
