<svg width="200" height="40" viewBox="0 0 1655 268" fill="none" xmlns="http://www.w3.org/2000/svg">
<path d="M603.312 173.232C607.116 169.054 609.199 163.596 609.146 157.95C609.257 152.524 607.344 147.25 603.778 143.153C601.833 140.983 599.426 139.274 596.734 138.151C594.042 137.029 591.132 136.522 588.218 136.668H580.789L547.335 32.198C545.316 25.8909 541.082 20.5252 535.412 17.0906C529.731 13.5011 523.132 11.6265 516.409 11.6924C509.86 11.6389 503.452 13.5907 498.049 17.2848C492.37 21.2916 488.189 27.0713 486.165 33.7126L422.408 219.933L420.288 232.574C420.146 235.872 420.729 239.161 421.996 242.211C423.263 245.26 425.182 247.995 427.621 250.225C432.184 254.358 438.148 256.606 444.309 256.517L458.235 252.439C462.681 249.582 465.909 245.182 467.298 240.089L483.208 194.107L567.465 251.119C567.66 251.235 582.889 256.497 582.889 256.497C586.341 256.517 589.748 255.719 592.832 254.17C595.915 252.621 598.587 250.364 600.627 247.584C605.101 241.953 607.26 237.157 607.279 232.943C607.279 232.186 599.869 203.175 599.869 203.175C595.687 191.155 591.467 185.31 586.137 184.184L582.247 183.368L581.392 180.514H579.68L577.968 180.223H586.643C589.767 180.367 592.884 179.815 595.768 178.606C598.651 177.396 601.228 175.561 603.312 173.232ZM502.503 136.668L515.729 98.6664L527.399 136.668H502.503ZM552.217 188.398L539.496 180.009H565.462C562.806 180.458 560.267 181.43 557.993 182.871C555.718 184.311 553.755 186.19 552.217 188.398ZM352.213 206.476H293.864C281.435 206.476 281.435 201.117 281.435 198.223V162.572C281.435 153.678 285.325 151.833 291.316 151.833H335.661C339.34 151.844 342.983 151.123 346.379 149.713C349.776 148.303 352.856 146.231 355.442 143.619C358.171 141.101 360.345 138.043 361.825 134.639C363.305 131.236 364.059 127.562 364.039 123.852C364.039 115.075 359.799 107.21 351.435 100.433L303.433 59.4805H339.999C349.432 59.4805 356.998 57.0726 362.463 52.2958C365.149 50.1257 367.314 47.3823 368.798 44.2672C370.283 41.1522 371.049 37.7447 371.041 34.2951C371.077 31.2071 370.442 28.148 369.179 25.3286C367.917 22.5093 366.057 19.9969 363.728 17.9644C358.962 13.6536 352.272 11.4593 343.889 11.4593H254.478C244.753 11.4593 236.973 13.6536 231.624 17.9644C228.913 20.0169 226.722 22.6765 225.229 25.7289C223.736 28.7813 222.982 32.1412 223.027 35.5379C223.027 45.3635 228.026 54.5871 237.906 62.9369L286.084 103.113H256.092C252.673 102.987 249.273 103.677 246.174 105.126C243.076 106.575 240.368 108.741 238.276 111.444C234.532 116.159 232.478 121.99 232.441 128.007V226.535C232.254 233.218 233.584 239.856 236.331 245.953C239.482 252.381 246.406 255.662 256.889 255.662H353.108C356.51 255.79 359.899 255.173 363.038 253.855C366.176 252.537 368.987 250.549 371.274 248.031C375.649 243.342 378.057 237.157 378.004 230.749C378.048 227.605 377.47 224.484 376.301 221.565C375.133 218.646 373.398 215.986 371.196 213.739C366.528 208.981 360.168 206.573 352.213 206.573V206.476ZM133.071 160.397C130.757 156.513 125.739 151.717 115.002 151.717H114.458C118.953 149.879 123.259 147.61 127.314 144.94C138.277 137.698 147.069 127.626 152.755 115.793C157.951 104.868 160.674 92.9347 160.729 80.8405C160.729 63.7525 156.353 50.0433 147.756 40.0623C140.83 31.6025 132.485 24.408 123.094 18.7994C113.546 13.7667 102.926 11.1025 92.1293 11.0321H47.1611C38.1299 10.6837 29.3136 13.8357 22.557 19.8286C19.4536 22.5708 16.9786 25.9485 15.3004 29.7316C13.6223 33.5147 12.7804 37.6145 12.832 41.7517C12.8533 47.923 14.576 53.9694 17.8112 59.2281L48.367 112.084H41.754L25.2994 113.541L15.0688 121.308L12.4819 135.58V231.506C12.3335 234.602 12.8502 237.694 13.9975 240.575C15.1448 243.455 16.8961 246.057 19.1338 248.206C23.3466 252.137 28.9279 254.276 34.6937 254.167C40.8885 254.212 46.9154 252.158 51.7902 248.342C54.3295 246.491 56.3924 244.065 57.8092 241.263C59.2259 238.461 59.9562 235.363 59.9397 232.225L59.2006 172.65C59.2006 168.086 60.212 164.979 62.2153 163.465L71.6874 160.164L83.3574 159.523C89.0816 158.933 94.7561 157.933 100.337 156.533C97.5752 158.976 95.6501 162.222 94.8328 165.814L94.3855 167.756L96.8167 172.048L91.4291 173.601L92.8489 188.398L128.15 247.041C130.582 251.196 135.658 256.206 145.908 256.206C152.359 256.195 158.622 254.036 163.705 250.07C166.447 248.159 168.684 245.614 170.225 242.651C171.766 239.689 172.566 236.398 172.555 233.06L168.217 219.467L133.071 160.397ZM111.676 92.0254C109.615 99.2295 106.075 103.676 101.387 106.434L86.5472 80.5298C78.0864 66.5487 77.6974 63.0534 77.678 62.7233L79.623 61.2281L87.7336 59.7135C94.2399 59.6806 100.552 61.9277 105.569 66.0633C110.568 70.0634 112.999 75.5976 112.999 83.0153L111.676 92.0254ZM1054.2 110.725L1038.85 105.094L1023.7 99.3849L1011.6 93.2487C1003.1 88.5301 999.234 82.4328 999.234 73.9276C999.18 71.6078 999.64 69.3048 1000.58 67.1832C1001.52 65.0616 1002.92 63.174 1004.68 61.6553C1008.47 58.2377 1014.4 56.5095 1022.4 56.5095C1024.85 56.7425 1031.52 58.5873 1046.87 65.9079C1047.2 66.0633 1055.21 67.5196 1055.21 67.5196C1061.47 67.4984 1067.52 65.2623 1072.29 61.2087C1074.82 59.3226 1076.88 56.8739 1078.3 54.0563C1079.72 51.2388 1080.47 48.1297 1080.48 44.9751C1080.48 35.8486 1074.37 27.4988 1062.35 20.45C1050.53 13.656 1037.08 10.2241 1023.45 10.5273C1010.25 10.4664 997.215 13.5273 985.424 19.4596C973.704 25.1718 964.152 34.5183 958.194 46.1014C953.506 55.4352 951.081 65.7385 951.115 76.1801C950.922 84.5425 952.64 92.8387 956.138 100.439C959.636 108.04 964.823 114.745 971.304 120.046C972.006 120.256 972.694 120.509 973.365 120.803C969.475 122.046 965.722 122.279 961.267 125.308C952.034 131.74 944.72 140.551 940.106 150.804C935.421 160.989 932.999 172.064 933.007 183.271C932.951 195.038 935.509 206.67 940.495 217.331C944.928 227.409 952.321 235.907 961.695 241.701C977.404 251.516 995.582 256.674 1014.11 256.575C1027.63 256.613 1041 253.739 1053.3 248.148C1065.35 242.817 1076.01 234.775 1084.42 224.652C1092.65 214.889 1098.12 203.111 1100.26 190.534C1100.26 190.534 1101.44 176.009 1101.44 176.009C1101.4 144.92 1085.49 122.959 1054.2 110.725ZM1066.12 51.0724L1065.11 51.888C1065.01 51.888 1065.01 51.7521 1064.9 51.7521C1065.24 51.4641 1065.62 51.2403 1066.04 51.0918L1066.12 51.0724ZM998.631 127.91L1001.1 128.978C1000.01 129.654 999.188 130.682 998.767 131.891C997.931 129.347 997.619 128.376 997.016 126.629C997.639 126.978 998.008 127.58 998.631 127.91ZM990.442 121.23C988.794 120.091 986.947 119.268 984.996 118.803L983.713 115.716C985.85 117.679 988.097 119.52 990.442 121.23ZM983.46 215.583C983.46 215.583 983.596 215.816 983.732 215.875L983.46 215.583ZM1043.13 201.991C1036.52 207.406 1028.34 210.552 1019.79 210.962C1010.5 210.993 1001.36 208.539 993.34 203.855C989.838 202.086 986.925 199.342 984.954 195.954C982.982 192.566 982.038 188.68 982.234 184.767C982.552 178.726 984.115 172.817 986.825 167.407C986.825 167.154 992.348 158.183 992.348 158.183L998.825 146.726C998.825 146.493 999.992 140.454 1000.32 138.687C1001.28 139.736 1001.22 141.483 1002.72 141.969L1020.53 148.086L1033.82 153.911L1046.42 162.921C1049.46 165.792 1051.56 169.515 1052.45 173.601C1052.45 173.931 1053.21 180.961 1053.21 180.961C1053.34 185.018 1052.5 189.048 1050.74 192.709C1048.98 196.37 1046.36 199.554 1043.11 201.991H1043.13ZM1365.11 10.6049C1361.77 10.5922 1358.47 11.2768 1355.41 12.6145C1352.36 13.9522 1349.62 15.9135 1347.37 18.3722C1342.43 23.4986 1339.92 30.4892 1339.92 39.1497V223.933C1339.92 233.642 1342.21 241.409 1346.71 246.982C1348.75 249.756 1351.41 252.015 1354.48 253.579C1357.55 255.144 1360.94 255.97 1364.39 255.992C1367.78 255.947 1371.12 255.164 1374.17 253.698C1377.23 252.233 1379.93 250.12 1382.09 247.507C1387.19 241.629 1389.86 234.034 1389.55 226.263V39.2079C1389.55 30.3338 1387.2 23.3044 1382.53 18.314C1380.35 15.8535 1377.67 13.8911 1374.66 12.5607C1371.65 11.2303 1368.39 10.5632 1365.11 10.6049ZM756.616 208.748H719.661C716.977 208.748 713.554 208.34 712.542 206.36L710.442 199.447V39.6934C710.442 31.0523 708.108 24.1588 703.517 19.1684C701.41 16.7582 698.808 14.828 695.889 13.5081C692.97 12.1881 689.801 11.5094 686.596 11.5176C683.314 11.5188 680.068 12.2112 677.072 13.5496C674.076 14.888 671.396 16.8423 669.208 19.2849C664.443 24.3142 662.011 31.1882 662.011 39.7322V227.234C662.011 235.642 663.528 242.206 666.621 247.293C670.2 253.255 677.669 256.148 689.416 256.148H755.546C758.95 256.299 762.347 255.727 765.513 254.468C768.678 253.209 771.539 251.293 773.907 248.847C778.284 244.21 780.678 238.052 780.578 231.681C780.683 225.752 778.488 220.011 774.451 215.661C770.231 211.059 764.24 208.748 756.616 208.748ZM1618.38 194.922L1605.31 198.418C1592.95 204.89 1579.21 208.294 1565.25 208.34C1552.3 208.449 1539.57 205.032 1528.43 198.456C1517.5 192.014 1508.4 182.893 1502 171.958C1495.59 161.022 1492.09 148.634 1491.82 135.969C1491.9 122.799 1495.34 109.866 1501.82 98.3945C1508.35 86.471 1517.86 76.4367 1529.42 69.2673C1541.08 62.0045 1554.57 58.2121 1568.32 58.3348C1582.19 58.3348 1596.83 62.2185 1611.83 69.9857C1611.67 69.9857 1621.71 72.5295 1621.71 72.5295C1624.64 72.5505 1627.54 71.908 1630.2 70.6503C1632.85 69.3926 1635.18 67.5522 1637.02 65.2671C1640.92 60.8463 1643.05 55.1416 1643.01 49.2471C1643.01 40.5866 1639.23 28.7804 1621.32 21.7704C1604.49 14.9016 1586.48 11.3412 1568.3 11.2846C1551.21 11.1792 1534.3 14.6866 1518.66 21.5762C1503.58 28.2316 1489.97 37.816 1478.63 49.7714C1467.39 61.6876 1458.48 75.6054 1452.38 90.802C1446.18 106.083 1443.01 122.416 1443.02 138.901C1443.35 155.006 1447.13 170.853 1454.13 185.369C1461.03 199.535 1470.59 212.25 1482.29 222.826C1493.97 233.48 1507.49 241.94 1522.18 247.798C1536.48 253.591 1551.75 256.603 1567.17 256.672C1589.15 256.823 1610.63 250.19 1628.69 237.681C1636.98 231.992 1641.16 224.982 1641.16 216.865C1641.18 213.963 1640.61 211.087 1639.47 208.415C1638.34 205.743 1636.67 203.332 1634.56 201.33C1632.43 199.237 1629.9 197.592 1627.12 196.492C1624.34 195.391 1621.37 194.857 1618.38 194.922ZM1628.67 41.6352C1628.67 41.7517 1628.52 41.7711 1628.48 41.8682C1628.01 41.2663 1628.17 40.0817 1627.58 39.5963L1628.67 41.6352ZM853.457 10.5661C850.121 10.557 846.821 11.2431 843.766 12.5806C840.712 13.9181 837.971 15.8775 835.718 18.3334C830.798 23.4598 828.269 30.4503 828.269 39.1302V223.933C828.269 233.642 830.545 241.409 835.018 246.982C837.051 249.767 839.714 252.035 842.789 253.6C845.864 255.166 849.266 255.985 852.718 255.992C856.108 255.947 859.448 255.164 862.505 253.698C865.561 252.233 868.261 250.12 870.417 247.507C875.534 241.637 878.212 234.038 877.905 226.263V39.2079C877.905 30.3144 875.532 23.285 870.884 18.2945C868.696 15.8411 866.007 13.885 862.997 12.5584C859.987 11.2318 856.727 10.5657 853.437 10.6049L853.457 10.5661ZM1261.07 11.6924H1150.32C1147.27 11.773 1144.28 12.4963 1141.53 13.8149C1138.78 15.1334 1136.34 17.0174 1134.37 19.3431C1129.83 24.0755 1127.32 30.3842 1127.35 36.936C1127.35 46.082 1131.67 54.1017 1140.17 60.7815L1155.63 73.3645L1168.7 84.1222L1178.68 93.7342C1182.45 97.4819 1184.3 103.191 1184.3 110.764V230.089C1184.19 233.588 1184.88 237.066 1186.29 240.268C1187.71 243.47 1189.83 246.315 1192.49 248.594C1197.5 253.045 1203.99 255.481 1210.69 255.429C1213.67 255.493 1216.63 254.968 1219.41 253.885C1222.18 252.801 1224.71 251.182 1226.86 249.118C1231.33 244.885 1233.6 238.73 1233.6 230.846V95.8119C1233.88 89.5036 1231.75 83.3259 1227.63 78.5297L1211.74 64.7623L1206.73 60.2378H1265.07C1273.13 60.2378 1279.55 58.0047 1284.17 53.5774C1286.45 51.4787 1288.25 48.9268 1289.48 46.0869C1290.7 43.247 1291.31 40.1823 1291.27 37.0913C1291.25 33.6857 1290.5 30.3243 1289.06 27.2352C1287.63 24.1461 1285.54 21.4016 1282.95 19.1878C1277.52 14.1779 1270.09 11.6924 1261.07 11.6924Z" fill="#EF5BA1" stroke="#EF5BA1" stroke-width="5.62508" stroke-linecap="round" stroke-linejoin="round"/>
<path d="M35.7823 238.885C42.1813 236.05 45.3906 232.807 45.3906 229.176V162.824C45.2789 159.952 45.9025 157.098 47.2025 154.533C48.5025 151.967 50.436 149.775 52.8204 148.164C57.6114 144.741 63.3644 142.919 69.2556 142.96C86.4234 142.96 100.414 140.273 111.228 134.901C121.289 130.225 129.736 122.677 135.502 113.211C141.234 103.114 145.126 92.0817 146.997 80.6272C147.386 77.7727 148.3 76.3358 149.759 76.3358C151.217 76.3358 151.704 77.5008 151.704 79.8504C151.315 101.301 143.638 118.26 128.675 130.726C113.712 143.193 93.944 149.432 69.3723 149.445C64.8916 149.544 60.5167 150.823 56.691 153.154C52.3731 155.62 50.2141 158.669 50.2141 162.261V230.691C50.2141 234.756 46.1621 239.287 38.0579 244.284C35.4906 243.39 34.168 242.225 34.168 240.769C34.175 240.316 34.3401 239.88 34.6349 239.536C34.9297 239.193 35.3355 238.962 35.7823 238.885ZM66.1436 48.5872C72.5787 44.6616 79.9982 42.6414 87.5385 42.7617C102.489 42.7617 113.977 48.4642 122.004 59.8691C122.522 60.6942 122.785 61.6531 122.762 62.6265C122.787 63.3345 122.56 64.0284 122.122 64.586C121.685 65.1437 121.064 65.5293 120.37 65.6752C119.92 65.7275 119.464 65.6469 119.06 65.4432C118.655 65.2395 118.32 64.9218 118.094 64.5295C114.231 59.8984 109.509 56.0546 104.188 53.2087C98.9005 50.1646 92.9555 48.4393 86.8577 48.1794C81.4617 48.0517 76.1508 49.5396 71.609 52.4514C70.4149 53.1199 69.0854 53.5114 67.719 53.5971C65.7741 53.2281 64.9183 52.4514 64.9183 51.3251C64.9572 49.94 65.3656 49.0273 66.1436 48.5872ZM259.534 239.177L352.193 239.915C354.162 239.826 356.06 239.15 357.639 237.973C358.556 237.391 359.336 236.618 359.924 235.706C360.511 234.794 360.893 233.765 361.043 232.691C361.099 231.62 361.566 230.612 362.346 229.875C362.701 229.449 363.144 229.104 363.644 228.863C364.143 228.622 364.689 228.49 365.244 228.477C366.489 228.477 367.189 230.128 367.189 233.409C366.355 237.051 364.236 240.27 361.218 242.478C358.746 244.692 355.604 246.018 352.291 246.245H259.534C256.733 246.245 255.352 245.08 255.352 242.711C255.352 240.342 256.753 239.177 259.534 239.177ZM282.037 55.9467C282.76 56.4731 283.343 57.1673 283.736 57.9691C284.129 58.771 284.32 59.6564 284.294 60.5488C284.294 62.1216 283.671 62.8984 282.349 62.8984C280.738 62.5354 279.262 61.728 278.089 60.5682L267.178 51.3445C266.267 50.4116 265.739 49.1712 265.7 47.8687C265.7 45.2861 267.645 43.9851 271.749 43.9851H344.549C346.801 43.8909 348.966 43.089 350.735 41.6937C352.657 40.4418 354.113 38.5923 354.877 36.4314C355.247 34.1595 356.142 33.0332 357.581 33.0332C357.913 33.0558 358.238 33.1448 358.535 33.2949C358.833 33.445 359.097 33.6531 359.312 33.907C359.576 34.1313 359.792 34.4072 359.946 34.7178C360.1 35.0283 360.189 35.3669 360.207 35.7129C360.237 37.6859 359.786 39.6367 358.891 41.3962C357.996 43.1557 356.685 44.6708 355.072 45.8104C351.61 48.4042 347.38 49.7709 343.052 49.694H274.977L282.037 55.9467ZM271.749 203.933C271.749 209.253 270.718 211.933 268.675 211.933C266.633 211.933 265.68 209.253 265.68 203.913V155.97C265.629 153.258 266.168 150.567 267.259 148.083C268.35 145.599 269.968 143.38 272.001 141.581C275.693 137.917 280.665 135.829 285.869 135.755L336.439 134.998C338.916 134.784 341.212 133.613 342.838 131.736C344.831 129.969 346.196 127.605 346.728 124.998C347.486 122.687 348.498 121.541 349.801 121.541C351.863 121.541 352.874 123.211 352.874 126.59C352.844 128.552 352.346 130.478 351.423 132.21C350.5 133.943 349.177 135.431 347.564 136.552C344.696 139.073 341.054 140.545 337.236 140.726H288.884C284.743 140.807 280.728 142.164 277.389 144.61C275.517 145.92 274.015 147.689 273.027 149.746C272.039 151.804 271.599 154.081 271.749 156.358V203.933ZM305.377 96.7443C305.714 97.036 305.987 97.3931 306.181 97.7936C306.375 98.1942 306.485 98.63 306.505 99.0744C306.505 100.803 305.591 101.676 303.802 101.676C302.353 101.392 301.009 100.721 299.912 99.7347L275.152 79.6563C274.488 79.234 273.932 78.6632 273.527 77.9892C273.121 77.3152 272.879 76.5563 272.818 75.7726C272.818 73.9667 273.81 73.0541 275.833 73.0541C276.416 73.0946 276.984 73.2573 277.501 73.5316C278.017 73.806 278.469 74.1858 278.828 74.6464L305.377 96.7443ZM591.583 156.649C591.583 153.911 592.322 152.533 593.819 152.533C595.317 152.533 596.192 153.426 596.873 155.251C597.318 156.5 597.568 157.81 597.612 159.135C597.617 160.481 597.347 161.814 596.819 163.053C596.291 164.292 595.515 165.41 594.539 166.339C593.74 167.258 592.763 168.005 591.666 168.536C590.57 169.067 589.377 169.37 588.159 169.427H518.257C514.503 169.427 512.616 168.359 512.616 166.223C512.616 164.533 514.269 163.485 517.537 163.077H587.401C590.182 163.019 591.583 160.902 591.583 156.649ZM690.038 240.652H757.393C759.459 240.751 761.484 240.056 763.053 238.711C763.752 238.089 764.306 237.321 764.676 236.462C765.045 235.603 765.222 234.674 765.192 233.74C765.29 233.186 765.583 232.686 766.018 232.33C766.454 231.973 767.003 231.785 767.565 231.798C769.646 231.798 770.697 232.982 770.697 235.312C770.136 238.605 768.333 241.558 765.659 243.565C763.059 245.534 759.878 246.586 756.615 246.556H689.279C686.42 246.556 685 245.779 685 244.187C685 241.798 686.595 240.652 690.038 240.652ZM693.52 43.5579C693.52 39.3765 694.738 37.2858 697.176 37.2858C699.53 37.2858 700.716 39.6354 700.716 44.3346V208.01C700.716 211.409 699.53 213.137 697.176 213.137C694.823 213.137 693.52 211.195 693.52 207.311V43.5579ZM861.119 42.2568C861.119 37.6936 862.442 35.4022 865.009 35.4022C867.11 35.4022 868.141 37.4411 868.141 41.519V226.264C868.141 232.633 866.915 237.312 864.465 240.322C863.541 241.644 862.326 242.738 860.913 243.518C859.501 244.299 857.928 244.747 856.315 244.827C852.698 244.827 850.928 243.313 850.928 240.264C850.928 238.775 851.933 238.031 853.942 238.031C855.119 238.086 856.284 237.771 857.271 237.13C858.259 236.489 859.02 235.554 859.447 234.458C860.538 232.116 861.102 229.565 861.1 226.982L861.119 42.2568ZM986.474 211.525C987.039 211.991 987.503 212.567 987.837 213.218C988.172 213.869 988.37 214.582 988.419 215.312C988.419 217.04 987.621 217.914 986.046 217.914C984.649 217.66 983.346 217.036 982.273 216.108C977.016 211.764 972.797 206.305 969.922 200.127C967.513 193.521 966.41 186.511 966.674 179.485C966.944 175.977 967.778 172.534 969.144 169.291C971.035 164.789 973.171 160.394 975.543 156.125C978.324 150.979 980.425 146.882 981.786 143.872C983.061 141.307 983.77 138.5 983.868 135.639C983.868 132.299 984.471 130.629 985.813 130.629C988.244 130.629 990.053 132.299 991.22 135.639C991.14 138.928 990.329 142.158 988.847 145.096C987.239 148.423 984.983 152.539 982.078 157.445C979.615 161.446 977.431 165.611 975.543 169.912C973.933 174.321 973.142 178.987 973.209 183.679C973.118 196.651 977.54 205.933 986.474 211.525ZM989.469 71.6365C989.1 76.4134 988.244 78.7824 986.863 78.7824C985.994 78.7824 985.138 78.0834 984.296 76.6853C983.415 75.1372 982.978 73.3772 983.031 71.5977C984.082 61.4355 987.972 53.5647 994.701 47.9852C1001.38 42.4313 1009.84 39.4607 1018.53 39.616C1022.94 39.6221 1027.31 40.384 1031.46 41.8685C1033.41 42.5481 1036.77 43.8103 1041.54 45.7521C1046.3 47.6939 1049.98 49.1309 1052.53 50.0047C1054.34 50.7178 1056.26 51.1563 1058.21 51.3057C1059.39 51.4012 1060.57 51.0806 1061.53 50.3996C1062.5 49.7186 1063.21 48.7202 1063.51 47.5774C1063.65 47.3034 1063.86 47.0762 1064.12 46.9268C1064.39 46.7774 1064.69 46.713 1064.99 46.7424C1066.8 46.7424 1067.7 48.2376 1067.7 51.228C1066.7 53.1027 1065.21 54.6676 1063.39 55.7504C1061.56 56.8331 1059.47 57.3915 1057.35 57.3642C1052.43 56.7651 1047.63 55.457 1043.09 53.4806C1037.06 51.1115 1032.36 49.4027 1028.93 48.3541C1024.4 47.1665 1019.73 46.6368 1015.05 46.7813C1008.39 46.7813 1002.47 49.7652 997.269 55.7331C992.069 61.7009 989.469 67.0021 989.469 71.6365ZM997.794 238.245C1003.68 239.706 1009.72 240.456 1015.78 240.478C1027.41 240.535 1038.89 237.875 1049.3 232.71C1059.25 228.013 1067.75 220.712 1073.88 211.583C1080.86 200.938 1084.56 188.481 1084.52 175.757C1084.52 158.164 1078.13 144.811 1065.36 135.697C1064.94 135.468 1064.58 135.136 1064.33 134.732C1064.07 134.328 1063.92 133.865 1063.88 133.386C1063.88 132.571 1064.55 131.852 1065.83 131.25C1066.86 130.711 1067.99 130.393 1069.16 130.318C1084.35 141.853 1091.95 156.604 1091.95 174.572C1091.88 188.273 1087.9 201.671 1080.48 213.195C1074.28 223.961 1064.94 232.584 1053.71 237.914C1041.49 243.956 1028 247.024 1014.37 246.866C1008.32 246.929 1002.27 246.382 996.335 245.235C992.815 244.769 991.064 243.293 991.064 240.478C991.064 238.885 993.34 238.245 997.794 238.245ZM1189.41 89.579L1153.51 59.3254C1152.17 57.8691 1151.56 56.8205 1151.56 56.1991C1151.56 54.3738 1152.61 53.4611 1154.7 53.4611C1155.06 53.4527 1155.41 53.5172 1155.75 53.6507C1156.08 53.7842 1156.39 53.9839 1156.64 54.2379L1193.6 86.0837C1195.39 87.5983 1196.28 88.8993 1196.28 89.9673C1196.28 91.0353 1195.52 91.579 1194.02 91.579C1192.36 91.2612 1190.78 90.5781 1189.41 89.579ZM1189.41 43.7909H1265.04C1271.51 43.7909 1274.76 41.3442 1274.76 36.4508C1274.81 35.8962 1275.08 35.3842 1275.51 35.0222C1275.93 34.6601 1276.48 34.4762 1277.04 34.509C1279.12 34.509 1280.17 35.4022 1280.17 37.1499C1279.95 40.6917 1278.64 44.0809 1276.43 46.859C1274.45 49.0856 1270.39 50.1989 1264.26 50.1989H1188.62C1186.01 50.1989 1184.73 49.2668 1184.73 47.4027C1184.75 45.0336 1186.3 43.7909 1189.41 43.7909ZM1217.85 95.8316C1217.85 90.8994 1218.78 88.4333 1220.65 88.4333C1222.21 88.4333 1222.98 90.1227 1222.98 93.4626V230.128C1222.97 233.975 1221.81 237.731 1219.66 240.924C1218.79 242.474 1217.53 243.765 1216 244.666C1214.47 245.567 1212.72 246.045 1210.95 246.051C1209.1 246.051 1208.2 244.983 1208.2 242.924C1208.2 241.351 1208.61 240.555 1209.43 240.555C1215.04 239.416 1217.86 236.18 1217.87 230.846L1217.85 95.8316ZM1372.79 42.2568C1372.79 37.6871 1374.08 35.4022 1376.68 35.4022C1378.75 35.4022 1379.79 37.4411 1379.79 41.519V226.264C1379.79 232.633 1378.58 237.312 1376.11 240.322C1375.19 241.645 1373.98 242.739 1372.56 243.52C1371.15 244.301 1369.58 244.748 1367.96 244.827C1364.37 244.827 1362.58 243.313 1362.58 240.264C1362.58 238.769 1363.59 238.031 1365.61 238.031C1366.79 238.086 1367.95 237.771 1368.94 237.13C1369.93 236.489 1370.69 235.554 1371.12 234.458C1372.21 232.116 1372.77 229.564 1372.77 226.982L1372.79 42.2568ZM1511.93 198.923C1512.83 199.419 1513.6 200.121 1514.18 200.972C1514.76 201.822 1515.13 202.797 1515.26 203.816C1515.26 205.35 1514.52 206.127 1513.02 206.127C1512.3 206.162 1511.57 206.038 1510.9 205.763C1510.23 205.487 1509.62 205.068 1509.13 204.535C1486.8 184.495 1475.65 161.892 1475.66 136.726C1475.66 120.493 1480.35 103.955 1489.74 87.1128C1494.74 78.2179 1501.56 70.4813 1509.77 64.413C1518.82 57.4308 1528.93 51.9494 1539.73 48.1794C1549.84 44.4452 1560.51 42.4747 1571.29 42.3539C1577.44 42.424 1583.55 43.3388 1589.44 45.0725C1593.02 45.4608 1594.79 46.5871 1594.79 48.4901C1594.79 49.9659 1593.64 50.7037 1591.37 50.7037C1590.08 50.5827 1588.81 50.3421 1587.57 49.9853C1581.91 48.2095 1576 47.3187 1570.07 47.3444C1555.48 47.3444 1540.86 51.5064 1526.21 59.8303C1511.56 68.1542 1500.81 78.2646 1493.96 90.1615C1485.6 105.334 1481.43 120.37 1481.45 135.27C1481.44 158.779 1491.6 179.996 1511.93 198.923ZM1525.53 237.934C1523 236.827 1521.75 235.545 1521.75 234.05C1521.75 232.555 1522.9 232.108 1525.16 232.108C1527.03 232.096 1528.86 232.636 1530.43 233.662C1540.41 238.944 1552.69 241.591 1567.25 241.604C1575.77 241.619 1584.26 240.608 1592.53 238.594C1599.82 236.984 1606.77 234.133 1613.09 230.167C1618.62 226.535 1621.88 222.555 1622.95 218.186C1624.37 213.894 1625.87 211.739 1627.48 211.739C1629.43 211.739 1630.52 213.894 1630.52 218.205C1630.35 223.293 1627.18 228.082 1621.01 232.574C1613.68 237.622 1605.5 241.287 1596.85 243.39C1586.93 246.015 1576.7 247.321 1566.43 247.274C1550.75 247.339 1537.12 244.225 1525.53 237.934ZM1618.75 55.2476C1619.68 55.7015 1620.68 55.9906 1621.71 56.102C1625.03 56.102 1626.69 54.0631 1626.69 49.9853C1626.82 48.8032 1626.68 47.607 1626.29 46.4847C1625.89 45.3624 1625.25 44.3423 1624.41 43.4996C1624.06 42.9276 1623.81 42.3052 1623.65 41.6549C1623.65 39.8684 1624.92 38.9558 1627.54 38.9558C1628.34 38.9234 1629.12 39.1278 1629.8 39.5429C1630.47 39.958 1631.01 40.5649 1631.34 41.2859C1632.63 43.615 1633.3 46.2361 1633.28 48.8979C1633.34 50.6092 1633.05 52.3149 1632.43 53.9107C1631.81 55.5066 1630.87 56.9592 1629.66 58.1798C1628.57 59.3287 1627.26 60.2433 1625.8 60.8677C1624.34 61.492 1622.77 61.813 1621.18 61.8109C1619.6 61.8086 1618.05 61.422 1616.65 60.6847C1614.84 59.306 1613.93 58.0244 1613.93 56.8011C1613.93 55.5777 1615.41 55.2476 1618.75 55.2476Z" fill="white"/>
<path d="M58.2464 110.201L27.2433 55.7133C26.8916 54.7099 26.7332 53.6492 26.7765 52.587C26.7765 51.3248 27.185 50.6452 28.0019 50.6452C28.8268 50.7098 29.6202 50.9896 30.3029 51.4564C30.9855 51.9233 31.5334 52.5609 31.8918 53.3055L65.3651 110.201M99.7331 166.921C105.451 176.475 112.233 188.352 120.078 202.554C127.922 216.755 133.757 226.613 137.583 232.128C141.473 237.629 144.857 240.38 147.735 240.38C148.577 240.296 149.391 240.038 150.128 239.623C151.917 239.623 152.792 240.303 152.792 241.565C152.77 242.151 152.573 242.717 152.226 243.191C151.88 243.665 151.4 244.025 150.847 244.225C149.408 244.993 147.811 245.418 146.179 245.468C142.289 245.468 138.84 243.345 135.832 239.099C132.824 234.853 127.456 225.668 119.728 211.544C111.974 197.408 104.291 184.76 96.6794 173.601M485.638 135.969L506.489 74.5684C507.17 72.2965 508.434 71.1508 510.379 71.1508C512.324 71.1508 513.063 72.8207 513.063 76.1607L492.504 135.969M475.758 191.854C475.145 191.392 474.495 190.983 473.813 190.631L457.533 236.943C456.584 239.411 454.803 241.471 452.496 242.769C450.043 244.327 447.196 245.155 444.288 245.157C441.15 244.859 439.581 243.927 439.581 242.361C439.581 239.837 441.623 238.574 445.708 238.574C447.249 238.363 448.688 237.686 449.831 236.633C451.206 235.714 452.286 234.419 452.943 232.904L468.503 187.155M561.921 135.969L531.618 38.8778C531.618 34.5669 532.474 32.3921 534.205 32.3921C535.936 32.3921 536.889 33.5378 537.628 35.8097L569.526 135.969M585.086 189L596.872 226.826C597.283 228.303 597.531 229.82 597.612 231.351C597.617 233.22 597.251 235.073 596.533 236.8C595.815 238.526 594.76 240.093 593.43 241.409C592.192 242.784 590.677 243.882 588.984 244.632C587.291 245.381 585.459 245.765 583.608 245.759C580.61 245.764 577.689 244.819 575.264 243.06L473.132 175.776C469.865 173.834 468.211 172.028 468.211 170.417C468.211 169.193 469.203 168.475 471.187 168.475C472.967 168.429 474.717 168.946 476.186 169.95L577.5 238.458C579.489 239.536 581.737 240.046 583.997 239.934C588.807 239.934 591.213 237.662 591.213 233.118C591.139 230.939 590.733 228.785 590.007 226.729L577.5 184.767M978.849 116.201C978.618 115.343 978.2 114.547 977.624 113.871C977.065 113 976.413 112.192 975.679 111.463C974.972 110.807 974.321 110.092 973.734 109.327C973.734 106.298 974.648 104.764 976.418 104.764C976.917 104.754 977.414 104.848 977.875 105.038C978.337 105.228 978.755 105.512 979.102 105.87C985.397 112.906 992.801 118.869 1001.02 123.522C1010.75 128.707 1020.91 133.022 1031.4 136.415C1033.21 136.765 1034.13 137.522 1034.13 138.648C1034.19 139.116 1034.15 139.594 1034 140.042C1033.85 140.491 1033.6 140.9 1033.27 141.235C1032.93 141.57 1032.53 141.823 1032.08 141.974C1031.63 142.125 1031.15 142.17 1030.68 142.105C1027.67 141.547 1024.71 140.768 1021.81 139.775C1019.38 138.907 1016.06 137.613 1011.87 135.891C1007.67 134.182 1004.89 133.075 1003.55 132.59L978.849 116.201Z" fill="white"/>
<path d="M30.3173 101.249L5.44086 59.2476C1.70059 53.173 -0.185149 46.1416 0.0143387 39.0138C-0.0891981 28.8098 3.87057 18.9824 11.023 11.6925C18.3491 3.92519 29.3707 0.0415574 44.0878 0.0415574H97.5945C112.009 -0.238078 126.174 3.82177 138.245 11.6925C149.762 19.2672 158.983 29.8436 164.911 42.2761C171.022 54.8492 174.169 68.652 174.11 82.6271C174.158 95.7419 171.303 108.705 165.747 120.59C160.12 132.627 151.511 143.033 140.734 150.824L175.978 207.816C181.462 216.878 184.205 225.474 184.205 233.603C184.366 238.269 183.423 242.907 181.453 247.141C179.482 251.375 176.541 255.086 172.866 257.973C165.491 263.993 156.231 267.231 146.705 267.119C133.48 267.119 123.969 262.045 118.172 251.895C91.4094 207.247 76.1866 181.653 72.5041 175.116V230.671C72.5041 241.856 68.7957 250.543 61.3788 256.731C54.0151 262.925 44.6516 266.243 35.0242 266.071C26.2545 266.24 17.7135 263.271 10.9452 257.701C4.16365 252.083 0.772885 244.335 0.772885 234.458V134.027C0.772885 124.538 3.11336 116.706 7.7943 110.531C12.4752 104.356 19.9829 101.262 30.3173 101.249ZM65.3271 110.201C79.6552 110.201 89.808 109.159 95.7856 107.075C93.0627 101.754 88.5244 93.799 82.1707 83.2096C75.8171 72.6202 72.5949 65.798 72.5041 62.7429C72.475 61.2739 72.9633 59.8413 73.884 58.6951C74.8046 57.5488 76.0991 56.7616 77.5416 56.4708C80.7435 55.1593 84.1754 54.4992 87.6361 54.529C95.3316 54.4847 102.802 57.1217 108.759 61.9856C115.009 66.9696 118.134 73.9601 118.134 82.9572C118.166 86.5087 117.688 90.0465 116.714 93.4624C113.926 103.223 108.869 109.625 101.543 112.667C92.6585 115.984 83.2099 117.535 73.7295 117.23H41.7538C36.6448 117.067 31.5341 117.497 26.5246 118.512C25.0677 118.809 23.6926 119.417 22.4939 120.295C21.2952 121.174 20.3014 122.301 19.5809 123.599C18.0373 127.362 17.3722 131.426 17.6359 135.483V231.409C17.4974 233.79 17.8719 236.173 18.7342 238.397C19.5965 240.622 20.9265 242.635 22.6346 244.303C25.8681 247.35 30.1699 249.01 34.6157 248.924C39.6638 248.984 44.582 247.327 48.5613 244.225C50.4862 242.866 52.0514 241.06 53.1221 238.963C54.1928 236.865 54.7368 234.54 54.7075 232.186L53.9878 172.689C53.9878 166.345 55.667 161.892 59.0253 159.329C62.5845 156.681 66.8632 155.172 71.2982 154.999C76.1218 154.688 80.0507 154.455 82.9682 154.338C99.734 152.668 113.53 148.138 124.358 140.746C134.588 134.003 142.785 124.605 148.067 113.56C152.979 103.326 155.557 92.131 155.614 80.7824C155.614 64.8724 151.724 52.4189 143.944 43.4218C137.392 35.4247 129.494 28.6301 120.604 23.3434C111.774 18.677 101.945 16.2121 91.954 16.1586H47.2192C38.5316 16.1586 31.4972 18.6312 26.1161 23.5764C23.5391 25.8385 21.4832 28.631 20.0898 31.7617C18.6965 34.8925 17.9987 38.2874 18.0444 41.713C18.0697 46.9343 19.5369 52.0475 22.2845 56.4902L53.2293 110.201H65.366H65.3271ZM90.398 69.3062C91.9929 71.9859 93.4906 74.5297 94.8909 76.9764C96.2913 79.4231 97.6917 81.8504 99.131 84.297C100.57 86.7437 102.068 89.3069 103.663 91.9478C104.868 89.7951 105.536 87.3837 105.608 84.9184C105.609 82.8781 105.192 80.8591 104.383 78.9856C103.573 77.1121 102.388 75.4239 100.901 74.0248C99.5634 72.5669 97.9422 71.3966 96.1364 70.5853C94.3306 69.774 92.378 69.3387 90.398 69.3062ZM96.6803 173.601C96.6803 180.825 96.9332 184.941 97.4778 186.029L132.488 244.283C135.074 248.711 139.548 250.944 145.83 250.944C151.164 250.937 156.341 249.146 160.534 245.856C162.636 244.443 164.36 242.538 165.557 240.308C166.753 238.078 167.386 235.59 167.4 233.06C167.235 229.196 166.004 225.452 163.841 222.244L128.637 163.038C126.225 158.921 121.686 156.863 115.022 156.863C106.373 156.863 101.283 160.216 99.7534 166.921L96.6803 173.601ZM253.019 90.2196L223.844 64.7429C219.718 61.2435 216.439 56.8584 214.249 51.9155C212.06 46.9726 211.018 41.5997 211.201 36.1982C211.158 29.9915 212.626 23.8672 215.48 18.3529C218.425 12.7468 222.948 8.12316 228.492 5.05145C235.053 1.51619 242.436 -0.2192 249.887 0.0221392H347.584C358.165 0.0221392 366.671 3.49152 373.102 10.4303C379.447 17.0582 382.939 25.9044 382.827 35.072C382.859 39.9383 381.847 44.755 379.861 49.1992C377.876 53.6434 374.961 57.6123 371.313 60.8399C363.624 68.0246 352.317 71.617 337.392 71.617L367.092 99.0743C373.991 105.547 377.446 114.065 377.459 124.629C377.625 134.419 374.114 143.916 367.617 151.251C361.03 158.798 351.85 162.578 340.076 162.591H293.961V195.835L356.434 196.592C360.88 196.426 365.304 197.295 369.355 199.132C373.407 200.969 376.974 203.723 379.774 207.175C385.518 214.087 388.607 222.817 388.487 231.798C388.674 241.017 385.255 249.947 378.957 256.692C372.616 263.579 363.41 267.022 351.338 267.022H252.863C230.975 267.022 220.025 255.061 220.012 231.137V126.59C219.948 118.105 222.682 109.835 227.792 103.055C232.836 96.0645 241.245 91.786 253.019 90.2196ZM256.753 250.536H352.972C355.665 250.652 358.352 250.18 360.844 249.154C363.336 248.128 365.575 246.572 367.403 244.594C370.92 240.82 372.855 235.845 372.811 230.691C372.854 228.197 372.4 225.719 371.476 223.402C370.551 221.085 369.173 218.975 367.423 217.195C363.805 213.454 358.709 211.59 352.135 211.603H293.786C282.116 211.603 276.281 207.175 276.281 198.321V162.572C276.281 152.047 281.26 146.785 291.218 146.785H335.564C338.594 146.793 341.596 146.196 344.392 145.029C347.188 143.862 349.721 142.148 351.844 139.988C354.078 137.936 355.858 135.441 357.07 132.662C358.283 129.884 358.901 126.883 358.884 123.852C358.884 116.641 355.312 110.169 348.168 104.434L289.701 54.4125H339.999C348.206 54.4125 354.586 52.4318 359.137 48.4705C361.272 46.7689 362.996 44.6095 364.181 42.1522C365.366 39.695 365.982 37.0031 365.984 34.2758C366.006 31.8816 365.505 29.5114 364.513 27.3312C363.522 25.1509 362.066 23.2133 360.246 21.654C356.356 18.1846 350.871 16.4499 343.791 16.4499H254.477C245.829 16.4499 239.268 18.2493 234.794 21.8482C232.685 23.4283 230.978 25.4824 229.812 27.844C228.646 30.2056 228.054 32.8082 228.084 35.4409C228.084 43.7389 232.447 51.5968 241.174 59.0146L300.01 108.084H256.092C253.452 107.947 250.818 108.451 248.416 109.554C246.014 110.656 243.916 112.324 242.302 114.415C239.195 118.269 237.488 123.06 237.459 128.007V226.535C237.256 232.449 238.4 238.331 240.804 243.74C243.041 248.284 248.39 250.536 256.753 250.536ZM411.594 218.049L476.926 27.227C479.807 18.8218 485.611 11.7259 493.283 7.22628C501.043 2.46538 509.986 -0.0240557 519.093 0.0415574C527.568 -0.0455936 535.865 2.46928 542.861 7.2457C550.046 12.2094 555.198 19.5932 557.371 28.0426L589.346 126.881C593.376 126.794 597.376 127.583 601.071 129.192C604.765 130.802 608.064 133.193 610.741 136.202C616.259 142.08 619.296 149.855 619.221 157.911C619.221 168.591 614.398 177.33 604.77 184.087L617.646 222.36C618.464 225.313 618.87 228.365 618.852 231.429C618.861 237.73 617 243.892 613.503 249.138C609.963 254.584 605.124 259.067 599.421 262.187C593.989 265.3 587.849 266.972 581.586 267.042C575.93 267.183 570.366 265.598 565.637 262.498L490.093 212.01L477.937 243.08C475.476 249.971 470.753 255.829 464.536 259.701C457.657 263.921 449.621 265.87 441.57 265.27C433.518 264.67 425.861 261.553 419.685 256.362C416.193 253.448 413.414 249.776 411.56 245.627C409.706 241.477 408.826 236.96 408.987 232.419C409.031 227.516 409.912 222.656 411.594 218.049ZM575.265 135.969L542.55 33.7321C540.871 28.5691 537.374 24.1885 532.708 21.4016C527.849 18.2826 522.186 16.6431 516.409 16.6829C510.86 16.618 505.425 18.2659 500.849 21.4016C496.074 24.7852 492.569 29.6653 490.891 35.2661L427.154 221.409C425.873 224.939 425.215 228.664 425.209 232.419C425.069 235.012 425.504 237.604 426.482 240.011C427.461 242.417 428.958 244.579 430.869 246.342C434.509 249.662 439.281 251.468 444.211 251.391C448.193 251.414 452.094 250.274 455.434 248.109C458.864 245.908 461.347 242.508 462.397 238.574L477.957 193.544L475.681 191.835C475.068 191.373 474.418 190.964 473.736 190.612L468.465 187.097L459.032 179.543C455.934 177.467 453.416 174.638 451.715 171.323C450.014 168.007 449.185 164.314 449.307 160.591C449.214 154.222 451.566 148.059 455.881 143.367C458.037 140.946 460.7 139.028 463.682 137.749C466.663 136.471 469.89 135.863 473.133 135.969H497.426L516.04 82.4523L532.358 135.969H575.265ZM577.501 184.825C575.196 183.945 572.729 183.567 570.266 183.718C561.799 183.718 556.113 187.511 553.208 195.097C542.096 188.197 531.963 181.511 522.808 175.038H586.662C589.057 175.18 591.454 174.791 593.681 173.898C595.907 173.005 597.907 171.63 599.538 169.873C602.52 166.599 604.146 162.317 604.089 157.892C604.196 153.675 602.726 149.57 599.966 146.377C598.477 144.756 596.645 143.487 594.602 142.664C592.56 141.841 590.358 141.484 588.16 141.62H473.872C471.462 141.669 469.091 142.23 466.914 143.264C464.738 144.299 462.807 145.783 461.249 147.62C457.679 151.134 455.644 155.915 455.589 160.921C455.589 166.773 458.397 171.452 464.011 174.961L570.227 246.808C575.167 249.818 579.369 251.332 582.85 251.332C585.544 251.343 588.202 250.712 590.603 249.493C593.005 248.274 595.081 246.502 596.659 244.322C600.355 239.662 602.222 235.798 602.222 232.788C600.728 223.261 598.372 213.889 595.181 204.787C591.771 194.987 588.432 189.738 585.165 189.039L577.501 184.825ZM514.464 116.687L509.913 136.105H520.571L514.464 116.687ZM650.283 42.1208C650.049 34.1429 651.835 26.2352 655.476 19.1296C658.557 13.1988 663.239 8.24793 668.994 4.83785C674.326 1.69559 680.404 0.0392383 686.596 0.0415574C691.245 0.00228996 695.853 0.908276 700.14 2.70433C704.426 4.50038 708.302 7.14889 711.531 10.4885C718.571 17.4661 722.092 27.227 722.092 39.7712V189.621C722.092 195.097 725.068 197.796 731.039 197.796H754.67C766.522 197.796 775.715 201.292 782.25 208.282C788.639 215.008 792.131 223.967 791.975 233.234C792.129 242 788.953 250.498 783.087 257.022C777.148 263.689 768.823 267.022 758.113 267.022H685.37C674.582 267.022 666.037 263.19 659.735 255.527C653.599 248.312 650.246 239.146 650.283 229.681V42.1208ZM667.146 39.6546V227.234C667.146 234.587 668.443 240.413 671.036 244.711C673.629 249.009 679.756 251.125 689.416 251.06H755.546C758.24 251.209 760.935 250.782 763.45 249.807C765.966 248.833 768.244 247.333 770.133 245.41C773.604 241.742 775.496 236.862 775.404 231.817C775.505 227.183 773.796 222.691 770.639 219.292C767.462 215.836 762.8 214.101 756.654 214.088H719.661C713.631 214.088 709.722 212.36 707.991 208.865C706.397 206.039 705.485 202.881 705.326 199.641V39.6935C705.326 32.3534 703.478 26.6768 699.783 22.6637C698.15 20.7706 696.126 19.2537 693.849 18.2178C691.573 17.1819 689.098 16.6516 686.596 16.6635C684.026 16.6632 681.485 17.2044 679.139 18.2518C676.793 19.2991 674.694 20.829 672.981 22.7414C669.091 26.8063 667.146 32.444 667.146 39.6546ZM817.571 37.7322C817.571 25.9778 821.273 16.7606 828.677 10.0808C835.69 3.55574 844.941 -0.0371708 854.526 0.0415574C859.047 -0.0256003 863.536 0.797311 867.738 2.46325C871.939 4.1292 875.771 6.60551 879.014 9.75065C885.847 16.2234 889.264 25.3176 889.264 37.0332V226.419C889.474 234.104 887.777 241.722 884.323 248.594C881.418 254.378 876.899 259.2 871.312 262.478C866.101 265.499 860.182 267.087 854.157 267.08C849.371 267.088 844.635 266.121 840.237 264.238C835.839 262.355 831.873 259.595 828.58 256.129C821.28 248.853 817.636 238.93 817.649 226.36L817.571 37.7322ZM833.326 39.208V223.933C833.326 232.477 835.212 239.112 838.986 243.837C840.549 246.021 842.608 247.804 844.995 249.04C847.382 250.275 850.029 250.928 852.717 250.944C855.398 250.887 858.035 250.248 860.443 249.071C862.851 247.894 864.974 246.207 866.663 244.128C870.937 239.174 873.15 232.775 872.848 226.244V39.208C872.848 31.5961 870.903 25.7706 867.188 21.7317C865.476 19.777 863.36 18.215 860.987 17.1525C858.613 16.0901 856.038 15.5523 853.437 15.5761C850.778 15.5771 848.148 16.136 845.719 17.2165C843.29 18.2969 841.115 19.8749 839.336 21.8482C835.329 26.0554 833.326 31.8421 833.326 39.208ZM954.382 117.696C944.631 103.987 939.749 90.0125 939.736 75.7725C939.736 62.4516 943.931 49.0789 952.32 35.6545C959.721 23.726 970.689 14.4202 983.674 9.05159C997.058 3.12999 1011.53 0.0612639 1026.17 0.0415574C1032.43 0.0631804 1038.68 0.628437 1044.84 1.73094C1061.04 5.61458 1073.07 11.4983 1080.94 19.3821C1088.81 27.2658 1092.74 35.5833 1092.73 44.3344C1092.75 48.5886 1091.84 52.7962 1090.08 56.6679C1088.31 60.5395 1085.72 63.9833 1082.5 66.7624C1075.47 73.1171 1066.24 76.4944 1056.77 76.1802C1047.07 76.0382 1037.57 73.4103 1029.19 68.5489C1026.38 66.9813 1023.22 66.1777 1020.01 66.2187C1013.68 66.5812 1010.51 69.1314 1010.51 73.8695C1010.51 77.7531 1012.63 80.8989 1016.93 83.4426C1022.28 86.9346 1028.03 89.7829 1034.05 91.9284L1055.77 100.065C1062.59 102.542 1069.16 105.643 1075.4 109.327C1088.37 116.913 1097.91 126.434 1104.03 137.891C1110.1 149.336 1113.25 162.105 1113.17 175.058C1113.2 186.896 1110.93 198.628 1106.48 209.603C1102.38 220.076 1096.19 229.604 1088.28 237.604C1078.72 247.334 1067.14 254.857 1054.35 259.643C1041.47 264.568 1027.79 267.082 1014 267.061C994.924 267.271 976.122 262.548 959.42 253.352C942.926 244.212 931.995 232.089 926.627 216.981C923.058 206.929 921.223 196.345 921.2 185.679C921.213 159.012 932.274 136.351 954.382 117.696ZM1001.06 123.522L1002.09 134.085C1002.04 134.778 1002.24 135.465 1002.65 136.026C1003.06 136.587 1003.65 136.986 1004.33 137.153C1012.11 139.814 1018.14 141.853 1022.26 143.309C1027.05 145.02 1031.71 147.071 1036.21 149.445C1041.22 152.036 1045.81 155.376 1049.82 159.348C1053.59 162.917 1056.19 167.541 1057.27 172.611C1057.91 175.347 1058.2 178.152 1058.13 180.961C1058.28 185.79 1057.27 190.584 1055.18 194.942C1053.09 199.301 1049.99 203.096 1046.13 206.01C1038.69 212.07 1029.5 215.588 1019.91 216.049C1009.67 216.091 999.596 213.41 990.734 208.282C986.466 206.053 982.921 202.659 980.51 198.496C978.1 194.333 976.924 189.571 977.119 184.767C977.432 178.018 979.14 171.406 982.137 165.349C983.77 161.798 985.778 158.433 988.128 155.309C990.511 152.194 992.472 148.78 993.963 145.154C994.959 142.733 995.467 140.14 995.46 137.522C995.583 133.693 994.358 129.941 991.998 126.92C990.795 125.481 989.271 124.343 987.549 123.598C985.826 122.853 983.953 122.521 982.079 122.629C976.892 122.629 970.869 124.926 964.01 129.522C955.514 135.425 948.79 143.528 944.56 152.96C940.17 162.483 937.906 172.846 937.927 183.33C937.861 194.364 940.253 205.275 944.929 215.273C948.923 224.435 955.619 232.164 964.126 237.429C979.046 246.794 996.334 251.711 1013.96 251.604C1026.76 251.656 1039.42 248.933 1051.07 243.623C1062.47 238.6 1072.53 230.994 1080.48 221.409C1088.15 212.334 1093.25 201.371 1095.24 189.66C1095.97 185.166 1096.34 180.62 1096.35 176.067C1096.35 147.057 1081.66 126.849 1052.27 115.444C1048.15 113.774 1043.11 111.91 1037.14 109.871C1031.17 107.832 1026.02 105.871 1021.58 104.045C1017.17 102.196 1012.91 100.001 1008.84 97.482C999.052 92.0708 994.164 84.187 994.177 73.8306C994.119 70.8033 994.726 67.8 995.956 65.0322C997.186 62.2644 999.008 59.7994 1001.3 57.8106C1006.05 53.4998 1013.09 51.3444 1022.4 51.3444C1027.23 51.7845 1036.11 55.0856 1049.03 61.2477C1050.99 61.9978 1053.08 62.3733 1055.19 62.3545C1060.28 62.3348 1065.2 60.5034 1069.06 57.1893C1071 55.7686 1072.59 53.9137 1073.68 51.7726C1074.78 49.6316 1075.36 47.2638 1075.38 44.8587C1075.38 37.5963 1070.16 30.8647 1059.72 24.6638C1048.7 18.3783 1036.16 15.2348 1023.47 15.5761C1011.05 15.4992 998.799 18.3748 987.719 23.9648C976.983 29.1864 968.233 37.7446 962.784 48.354C958.443 56.9868 956.204 66.5206 956.249 76.1802C956.057 83.812 957.617 91.3866 960.809 98.3235C964.002 105.26 968.743 111.376 974.668 116.201C975.004 116.554 975.408 116.834 975.856 117.024C976.305 117.215 976.787 117.311 977.275 117.308C977.275 117.308 988.945 115.366 996.005 121.852C999.575 124.945 1001.78 129.321 1002.13 134.027L1001.06 123.522ZM1004.8 145.29C997.703 154.235 994.157 162.857 994.157 171.155C994.036 173.985 994.682 176.796 996.028 179.291C997.373 181.786 999.367 183.872 1001.8 185.33C1006.72 188.177 1012.32 189.626 1018 189.519C1023.68 189.413 1029.22 187.756 1034.03 184.728C1036.27 183.108 1038.07 180.948 1039.25 178.449C1040.43 175.951 1040.97 173.195 1040.8 170.436C1040.68 167.17 1039.67 163.998 1037.88 161.261C1036.09 158.524 1033.59 156.325 1030.65 154.902C1022.38 154.31 1014.07 154.623 1005.87 155.834L1004.8 145.29ZM1173.35 230.108V123.658C1173.35 114.939 1172.45 108.589 1170.68 104.647C1168.91 100.705 1164.21 95.6178 1156.62 89.404L1147.79 82.5882C1145.56 80.8794 1142.46 78.3551 1138.44 74.9957C1134.41 71.6364 1131.42 68.9955 1129.45 67.0149C1127.47 65.0262 1125.63 62.9046 1123.95 60.6651C1118.76 53.5685 1116.03 44.9807 1116.17 36.1982C1115.96 26.8481 1119.23 17.7538 1125.37 10.6827C1131.51 3.58861 1140.37 0.0415574 1151.95 0.0415574H1262.7C1270.36 -0.177764 1277.94 1.68118 1284.62 5.42039C1290.43 8.74371 1295.21 13.6015 1298.43 19.4597C1301.52 25.0776 1303.15 31.3812 1303.16 37.7905C1303.28 46.8454 1299.87 55.5932 1293.65 62.1797C1287.31 69.0408 1278.54 72.4649 1267.35 72.452H1237.03C1238.7 73.3075 1240.16 74.52 1241.31 76.0033C1242.46 77.4866 1243.27 79.2044 1243.68 81.0348C1244.87 87.1668 1245.38 93.4131 1245.18 99.6568V232.38C1245.18 243.565 1241.94 252.128 1235.45 258.07C1229.01 264.017 1220.51 267.234 1211.74 267.042C1205.3 267.042 1198.95 265.532 1193.21 262.634C1187.36 259.747 1182.39 255.34 1178.83 249.876C1175.07 243.98 1173.16 237.096 1173.35 230.108ZM1189.41 110.725V230.05C1189.32 232.819 1189.85 235.575 1190.96 238.113C1192.07 240.651 1193.75 242.906 1195.85 244.711C1199.94 248.335 1205.23 250.314 1210.69 250.264C1213.02 250.318 1215.33 249.913 1217.49 249.073C1219.66 248.234 1221.64 246.975 1223.32 245.371C1226.75 242.109 1228.46 237.261 1228.45 230.827V95.812C1228.73 90.779 1227.07 85.83 1223.8 81.9863C1219.13 77.1719 1214.04 72.7792 1208.59 68.8596C1203.03 64.927 1198 60.2929 1193.64 55.0727H1265C1271.7 55.0727 1276.89 53.3315 1280.56 49.8492C1282.32 48.2274 1283.73 46.2501 1284.67 44.0477C1285.62 41.8453 1286.08 39.4678 1286.04 37.072C1286.01 34.3772 1285.41 31.7198 1284.26 29.2806C1283.11 26.8413 1281.45 24.6773 1279.39 22.9356C1274.96 18.8319 1268.85 16.7865 1261.07 16.7994H1150.32C1147.98 16.8879 1145.68 17.4699 1143.58 18.5073C1141.48 19.5447 1139.62 21.0141 1138.13 22.8191C1134.45 26.6195 1132.42 31.7125 1132.48 36.9944C1132.48 44.5286 1136.1 51.1308 1143.34 56.8009C1148.3 60.8658 1153.49 65.073 1158.9 69.4227C1164.3 73.7724 1168.69 77.3906 1172.05 80.2775C1175.67 83.4089 1179.14 86.7207 1182.43 90.2002C1187.09 94.8217 1189.41 101.663 1189.41 110.725ZM1329.24 37.7322C1329.24 25.9778 1332.95 16.7606 1340.37 10.0808C1347.37 3.54546 1356.63 -0.0491134 1366.21 0.0415574C1375.34 -0.0846306 1384.14 3.40712 1390.68 9.75065C1397.52 16.2234 1400.93 25.3176 1400.93 37.0332V226.419C1401.14 234.104 1399.45 241.722 1395.99 248.594C1393.09 254.391 1388.55 259.216 1382.94 262.478C1377.75 265.5 1371.84 267.088 1365.83 267.08C1361.02 267.109 1356.25 266.152 1351.83 264.268C1347.41 262.384 1343.42 259.614 1340.11 256.129C1332.83 248.853 1329.18 238.93 1329.18 226.36L1329.24 37.7322ZM1344.97 39.208V223.933C1344.97 232.477 1346.87 239.112 1350.65 243.837C1352.22 246.019 1354.28 247.8 1356.67 249.036C1359.05 250.271 1361.7 250.925 1364.39 250.944C1367.07 250.886 1369.71 250.247 1372.12 249.07C1374.53 247.893 1376.66 246.207 1378.35 244.128C1382.61 239.168 1384.82 232.772 1384.52 226.244V39.208C1384.52 31.5961 1382.63 25.7706 1378.86 21.7317C1377.14 19.778 1375.03 18.2167 1372.65 17.1543C1370.28 16.092 1367.71 15.5536 1365.11 15.5761C1362.45 15.5759 1359.82 16.1342 1357.39 17.2148C1354.96 18.2953 1352.78 19.874 1351 21.8482C1346.98 26.0554 1344.97 31.8421 1344.97 39.208ZM1635.75 245.468C1614.93 259.571 1590.34 267.088 1565.19 267.042C1548.16 267.044 1531.31 263.643 1515.63 257.041C1499.8 250.469 1485.3 241.072 1472.84 229.312C1460.55 217.805 1450.5 204.124 1443.2 188.961C1436.04 174.194 1432.14 158.061 1431.78 141.658C1431.64 116.994 1437.9 92.7146 1449.97 71.1898C1461.68 49.8443 1478.79 31.9401 1499.6 19.2656C1520.12 6.59069 1543.79 -0.0707654 1567.91 0.0415574C1587.88 0.251611 1607.6 4.53352 1625.85 12.6245C1635.3 16.6506 1642.36 22.0424 1647.01 28.7999C1651.52 35.0173 1653.98 42.484 1654.03 50.1599C1654.17 58.5013 1651.11 66.579 1645.48 72.7432C1642.72 75.8662 1639.31 78.3449 1635.49 80.0029C1631.67 81.6609 1627.53 82.4574 1623.36 82.3358C1616.62 82.2418 1609.99 80.5585 1604.03 77.423C1591.32 71.4034 1579.57 68.3871 1568.78 68.3741C1556.78 68.2322 1545 71.6739 1534.96 78.258C1525.19 84.5886 1517.16 93.2687 1511.62 103.502C1506.26 112.948 1503.37 123.596 1503.24 134.454C1503.25 145.312 1506.23 155.961 1511.86 165.251C1517.58 174.935 1525.68 183.006 1535.39 188.709C1545.27 194.626 1556.59 197.71 1568.1 197.622C1580.72 197.561 1593.1 194.278 1604.09 188.087C1609.35 184.947 1615.35 183.258 1621.47 183.194C1625.62 183.114 1629.74 183.976 1633.5 185.715C1637.27 187.455 1640.59 190.025 1643.22 193.233C1648.86 199.679 1651.92 207.976 1651.82 216.535C1651.74 228.729 1646.38 238.374 1635.75 245.468ZM1608.09 202.748C1594.92 209.739 1580.23 213.412 1565.3 213.447C1551.46 213.569 1537.84 209.895 1525.94 202.826C1514.23 195.956 1504.47 186.203 1497.62 174.498C1490.76 162.793 1487.02 149.527 1486.76 135.969C1486.79 121.916 1490.44 108.106 1497.36 95.8703C1504.3 83.2187 1514.41 72.5805 1526.7 64.9954C1539.16 57.2222 1553.6 53.1789 1568.3 53.3445C1583.04 53.3445 1598.31 57.4352 1614.1 65.6168C1616.42 66.9122 1619.03 67.5816 1621.69 67.5586C1623.89 67.5863 1626.07 67.117 1628.07 66.1857C1630.07 65.2543 1631.83 63.885 1633.22 62.1797C1636.34 58.6643 1638.04 54.1174 1637.99 49.422C1637.99 39.0656 1631.82 31.4602 1619.49 26.6056C1603.25 19.9495 1585.86 16.507 1568.3 16.4693C1551.91 16.3475 1535.69 19.7033 1520.7 26.3144C1506.23 32.6908 1493.17 41.8944 1482.31 53.3833C1471.47 64.8316 1462.89 78.2182 1457.03 92.841C1451.07 107.528 1448.01 123.229 1448.04 139.076C1448.39 154.392 1452.05 169.453 1458.76 183.233C1465.37 196.832 1474.54 209.035 1485.77 219.176C1497 229.434 1510.01 237.573 1524.15 243.196C1537.84 248.767 1552.48 251.655 1567.27 251.701C1588.23 251.884 1608.73 245.567 1625.95 233.623C1632.81 228.898 1636.24 223.331 1636.26 216.923C1636.28 214.681 1635.84 212.458 1634.96 210.393C1634.08 208.328 1632.79 206.466 1631.16 204.923C1629.49 203.289 1627.51 202.006 1625.34 201.148C1623.16 200.291 1620.84 199.878 1618.5 199.932C1614.85 199.899 1611.27 200.845 1608.11 202.67L1608.09 202.748Z" fill="#D60080"/>
</svg>
