<svg width="71" height="36" viewBox="0 0 71 36" fill="none" xmlns="http://www.w3.org/2000/svg">
<g clip-path="url(#clip0_481_13049)">
<path d="M3.8117 31.2C3.67052 31.1294 3.52935 31.0588 3.31758 31.0588C3.10582 31.0588 2.96464 30.9883 2.82347 31.0588C2.6117 31.0588 2.54111 31.0588 2.39994 31.0588C2.11758 31.0588 1.83523 31.2 1.76464 31.4824H1.69405C1.48229 31.4118 1.34111 31.4824 1.27052 31.5537C0.988172 31.7647 0.776407 32.0471 0.494054 32.5412C0.211702 33.0353 0.141113 33.5294 0.141113 34.0242C0.141113 34.589 0.211702 34.9419 0.423466 35.2242C0.635231 35.436 0.917584 35.5772 1.19994 35.6478C1.34111 35.6478 1.48229 35.7184 1.62347 35.7184C1.76464 35.7184 1.97641 35.7184 2.11758 35.7184C2.25876 35.7184 2.54111 35.7184 2.75288 35.6478C2.96464 35.5772 3.17641 35.5066 3.38817 35.2948C3.8117 34.8713 4.16464 34.3772 4.37641 33.7419C4.58817 33.1772 4.58817 32.6125 4.447 32.1184C4.37641 31.6941 4.16464 31.4118 3.8117 31.2ZM2.68229 34.0941C2.6117 34.2353 2.54111 34.3059 2.47052 34.4471C2.32935 34.5177 2.25876 34.5882 2.11758 34.6588C1.97641 34.6588 1.83523 34.7301 1.62347 34.6588C1.55288 34.5184 1.55288 34.3772 1.62347 34.2353C1.69405 34.0941 1.76464 33.953 1.83523 33.8118C1.83523 33.8118 1.90582 33.8118 1.97641 33.7405C2.047 33.6699 2.11758 33.5993 2.18817 33.5287C2.25876 33.4581 2.25876 33.3875 2.32935 33.317C2.47052 33.317 2.6117 33.317 2.75288 33.2457C2.75288 33.6 2.75288 33.8824 2.68229 34.0941Z" fill="#D0C7AC"/>
<path d="M19.2705 30.9882C19.1999 30.9169 19.0588 30.847 18.847 30.847C18.6352 30.847 18.4235 30.847 18.2117 30.9176C17.9999 30.9889 17.7176 30.9889 17.5058 31.1294C17.2941 31.2007 17.0823 31.2706 16.9411 31.4118C16.7999 31.4823 16.7293 31.5529 16.6588 31.6235C16.3764 31.9059 16.2352 32.1176 16.2352 32.3294C16.2352 32.4007 16.1646 32.5412 16.1646 32.6118C16.1646 32.6823 16.1646 32.8235 16.2352 32.8934C16.3058 33.1059 16.3764 33.2463 16.5176 33.3176C16.5882 33.4588 16.7999 33.5993 17.0117 33.6706C17.0823 33.7412 17.2235 33.7412 17.2941 33.8118C17.3646 33.8823 17.5058 33.8823 17.5764 33.9522C17.5058 34.1647 17.0117 34.2346 15.9529 34.2346C15.8823 34.2346 15.8117 34.2346 15.8117 34.3052C15.8117 34.3765 15.7411 34.3765 15.7411 34.4463C15.7411 34.5176 15.6705 34.5176 15.6705 34.5875C15.6705 34.6574 15.5999 34.6581 15.5293 34.6581C15.4588 34.6581 15.3176 34.6581 15.247 34.6581C15.1764 34.7294 15.1058 34.7993 15.1058 34.8706C15.0352 35.0823 15.1058 35.2941 15.3176 35.4353C15.4588 35.5765 15.6705 35.7169 15.9529 35.7882C16.2352 35.8588 16.5176 35.9294 16.7999 35.9294C17.0823 35.9294 17.4352 35.8581 17.7176 35.7882C17.9999 35.7169 18.2823 35.5765 18.4941 35.364C18.5646 35.2934 18.6352 35.2934 18.7058 35.2235C19.0588 35.0118 19.1999 34.8 19.1293 34.5882C19.2705 34.0941 19.2705 33.6706 19.0588 33.247C18.9176 32.9654 18.5646 32.6823 18.1411 32.3294C18.2117 32.3294 18.2117 32.3294 18.2117 32.2588C18.2117 32.1875 18.4235 32.1176 18.9176 32.047C19.2705 31.9758 19.4823 31.7647 19.5529 31.4816C19.5529 31.3412 19.5529 31.2699 19.4823 31.1287C19.4823 31.2 19.4117 31.0588 19.2705 30.9882Z" fill="#D0C7AC"/>
<path d="M8.18829 28.6588C8.1177 28.5882 8.1177 28.5184 8.04711 28.4471C7.97652 28.3765 7.97652 28.3059 7.97652 28.2353C7.69417 28.1647 7.41182 28.1647 7.20005 28.3765C7.12947 28.4471 7.05888 28.5177 6.98829 28.5882C6.9177 28.6588 6.9177 28.7294 6.84711 28.8C6.21182 29.8588 5.7177 31.0588 5.29417 32.3294C5.22358 32.9647 5.08241 33.4588 4.94123 33.8824C4.80005 34.3059 4.72947 34.7294 4.65888 35.0118C4.58829 35.2242 4.65888 35.3647 4.72947 35.436C4.80005 35.436 4.80005 35.5066 4.87064 35.5066C4.94123 35.5066 4.94123 35.5765 5.01182 35.5765C5.01182 35.7882 5.15299 35.8581 5.43535 35.7882C5.57652 35.7882 5.64711 35.717 5.78829 35.6471C5.92947 35.5765 6.00005 35.5059 6.14123 35.4353C6.21182 35.3647 6.28241 35.2941 6.353 35.2235C6.42358 35.153 6.42358 35.0118 6.49417 34.8706C6.56476 34.7294 6.56476 34.5882 6.63535 34.4471C6.63535 34.3059 6.70594 34.0941 6.77652 33.8824C7.27064 32.1177 7.83535 30.4941 8.47064 29.0824C8.40005 28.9412 8.32947 28.8 8.18829 28.6588Z" fill="#D0C7AC"/>
<path d="M13.0588 29.0824C13.0588 29.0111 13.0588 28.9412 13.0588 28.8706C13.0588 28.7993 13.0588 28.7294 12.9882 28.6581C12.9177 28.5875 12.8471 28.5177 12.7059 28.4464C12.4235 28.3052 12.1412 28.3758 11.8588 28.5177C11.7882 28.5882 11.6471 28.7294 11.5765 28.9412C11.2941 29.5765 11.0118 30.4235 10.7294 31.6235C10.7294 31.7647 10.6588 31.8353 10.6588 31.9765C10.6588 31.7647 10.4471 31.6948 10.1647 31.6235C9.88236 31.5529 9.67059 31.6235 9.45883 31.7647C8.96471 31.9765 8.47059 32.4 8.11765 33.0353C7.8353 33.6 7.62354 34.0941 7.62354 34.5184C7.62354 34.9419 7.69412 35.2242 7.90589 35.3647C8.11765 35.5772 8.54118 35.6471 9.10589 35.6471C9.24706 35.6471 9.31765 35.6471 9.45883 35.5765C9.6 35.5052 9.67059 35.4353 9.81177 35.2235C9.81177 35.364 9.81177 35.4353 9.88236 35.5052C9.88236 35.5052 9.88236 35.5052 9.95295 35.5052C9.95295 35.5052 10.0235 35.5052 10.0941 35.5052V35.5765C10.3765 35.7169 10.6588 35.7882 11.0118 35.6471C11.1529 35.5765 11.2941 35.5059 11.3647 35.4353C11.4353 35.364 11.5059 35.2235 11.5059 35.1529C11.5765 34.7294 11.6471 34.3059 11.8588 33.8125C12.0706 33.3184 12.2118 32.8941 12.4235 32.4007C12.6353 31.9066 12.8471 31.4125 12.9882 30.9177C13.2 30.4235 13.3412 29.9301 13.4824 29.5059C13.4824 29.4353 13.4824 29.3647 13.3412 29.2242C13.0588 29.2235 13.0588 29.1529 13.0588 29.0824ZM9.95295 33.6706C9.88236 33.8118 9.88236 33.9529 9.81177 34.0941C9.74118 34.2353 9.74118 34.3059 9.67059 34.3765C9.60001 34.5177 9.45883 34.5882 9.31765 34.5177C9.24706 34.4471 9.17648 34.3059 9.24706 34.1647C9.24706 34.0235 9.31765 33.8824 9.38824 33.7405C9.45883 33.5993 9.52942 33.5287 9.67059 33.4588C9.81177 33.3875 9.88236 33.3875 10.0235 33.4588L9.95295 33.6706Z" fill="#D0C7AC"/>
<path d="M30.2118 18.0706C29.2941 17.4353 28.3765 17.3647 27.5294 17.8588C27.5294 16.8 26.9647 16.2353 25.8353 16.2353C25.7647 18.9882 29.2235 24.1412 34.9412 24.1412C40.5882 24.1412 43.6235 19.5529 43.9765 16.4471C42.847 16.1647 42.2831 16.5882 42.2831 17.8588C41.436 17.4353 40.6588 17.5059 39.883 18.0706C39.1066 18.5647 38.7536 19.5529 38.8242 20.8941C38.1889 20.2595 37.4831 20.1176 36.8478 20.3294C36.2125 20.6118 35.7889 21.1066 35.5772 22.0235C35.3654 21.1059 34.8713 20.6823 34.1654 20.6823C33.4595 20.6823 32.9654 20.9647 32.6831 21.4595C32.6831 21.1066 32.4713 20.8242 32.0478 20.6823C31.6242 20.5405 31.3419 20.6118 31.0595 20.8941C31.3412 19.6235 31.1294 18.6353 30.2118 18.0706Z" fill="#88171A"/>
<path d="M37.4824 14.5412C37.8353 14.8941 38.1883 15.4588 37.7647 17.0118C39.6706 15.4588 40.0942 14.1176 40.0942 12.7059C40.0942 11.2941 39.5294 10.5882 38.4 10.4471L36.9883 14.1176C37.2 14.2588 37.3412 14.4706 37.4824 14.5412Z" fill="#D0C7AC"/>
<path d="M29.5764 12.7059C29.5764 14.1176 29.9999 15.4588 31.9058 17.0118C31.4823 15.4588 31.7646 14.8941 32.1882 14.5412C32.3294 14.4 32.4705 14.2588 32.6823 14.1176L31.2705 10.4471C30.1411 10.5882 29.5764 11.3647 29.5764 12.7059Z" fill="#D0C7AC"/>
<path d="M34.7294 18.3529C34.5176 18.3529 33.7411 17.5765 33.6 16.6588C33.5294 16.2353 33.6 15.8824 33.6705 15.7412C33.1058 16.2353 32.8235 16.8 32.8235 17.5765C32.8235 18.3529 33.4588 19.2 34.8 20.0471C36.0705 19.0588 36.6353 18.2118 36.6353 17.5765C36.6353 16.9412 36.3529 16.3059 35.7882 15.7412C35.7882 16.0235 35.7882 16.4471 35.7882 16.8706C35.8588 17.7177 34.9411 18.3529 34.7294 18.3529Z" fill="#88171A"/>
<path d="M34.8707 2.82353C35.6471 2.75294 36.4942 2.61176 37.2001 2.47059C36.5648 1.62353 35.7883 0.776471 34.8707 0C33.8824 0.776471 33.106 1.62353 32.5413 2.47059C33.1766 2.68235 34.0236 2.89412 34.8707 2.82353Z" fill="#D0C7AC"/>
<path d="M30.9883 9.24707C31.0589 9.6706 31.1295 10.0941 31.2706 10.5177L30.9883 9.24707Z" fill="#D0C7AC"/>
<path d="M53.9293 31.2C53.8588 31.1294 53.7882 31.0588 53.7176 30.9882C53.647 30.9176 53.5058 30.9176 53.3646 30.8471C53.2242 30.7758 53.1529 30.8471 53.083 30.9176C53.0117 30.9882 52.8705 30.9882 52.7999 30.9882C52.7293 30.9882 52.5882 30.9882 52.5183 30.9882C52.447 30.9882 52.3058 30.9882 52.2359 31.0588C52.1653 31.0588 52.0948 31.1294 52.0242 31.2706L51.7411 31.6941L51.5999 31.9059C51.4595 32.1176 51.3882 32.3294 51.247 32.4706C50.8941 33.1059 50.4705 33.6 49.9065 33.9529C49.9771 33.6 50.1183 33.2471 50.2595 32.9654C50.4006 32.6125 50.5411 32.3301 50.7536 32.0478C50.8242 31.8353 50.8242 31.6948 50.7536 31.5536C50.6823 31.4125 50.5411 31.2713 50.4006 31.2007C50.2588 31.1294 50.047 31.1294 49.8352 31.1294C49.6235 31.1294 49.4823 31.2706 49.2705 31.4118C48.4941 32.6118 48.1411 33.6706 48.2117 34.5882C48.2117 34.8706 48.283 35.0824 48.4941 35.2235C48.6352 35.364 48.847 35.5052 49.0588 35.5052C49.2705 35.5052 49.5529 35.5765 49.7646 35.5052C49.9764 35.5052 50.1882 35.364 50.3999 35.2934C50.6117 35.2228 50.7529 35.0816 50.8933 34.9405C50.8235 35.0824 50.8235 35.2235 50.9646 35.3647C51.1058 35.5059 51.2463 35.5059 51.4588 35.5772C51.6705 35.5772 51.8823 35.5772 52.0933 35.5059C52.3051 35.4353 52.5176 35.2941 52.658 35.1529C52.7293 34.9412 52.8705 34.6588 52.9404 34.3765C53.3639 32.9647 53.7169 31.9765 53.9286 31.4816C53.9999 31.4118 53.9999 31.3412 53.9293 31.2Z" fill="#D0C7AC"/>
<path d="M23.9294 31.8353C23.8588 31.8353 23.7176 31.7647 23.5764 31.7647C23.4352 31.7647 23.1529 31.8353 22.7294 31.9059C22.6588 31.9059 22.5882 31.9059 22.5176 31.9765C22.447 31.9765 22.3764 31.9765 22.3058 32.0478C22.3764 31.8353 22.5176 31.6235 22.6588 31.4125C22.7999 31.1301 22.9411 30.9184 23.0823 30.7066C23.4352 30.1419 23.5764 29.8595 23.5058 29.7184C23.5058 29.6478 23.5058 29.5779 23.4352 29.5066C23.3647 29.436 23.3647 29.3654 23.2941 29.2948L23.3647 29.0125C23.3647 28.8007 23.2941 28.6595 23.1529 28.5191C23.0117 28.3779 22.8705 28.2367 22.7294 28.1661C22.5882 28.0941 22.3764 28.0941 22.2352 28.0941C22.0235 28.0941 21.8823 28.1654 21.7411 28.3765C21.5999 28.8 21.4588 29.2235 21.3176 29.6471C21.1764 30.0706 21.0352 30.4235 20.9647 30.7765C20.8941 31.1294 20.7529 31.4824 20.6117 31.9765C20.5411 32.2588 20.4705 32.4706 20.4705 32.6824C20.3999 32.6824 20.2588 32.7536 20.047 32.8235C19.9058 32.9647 19.8352 33.1765 19.9058 33.3882C19.9058 33.6 20.047 33.7412 20.1882 33.8824C20.1882 33.8824 20.1882 34.0235 20.1176 34.2353C20.047 34.4471 19.9764 34.7294 19.8352 35.0118C19.8352 35.0831 19.7646 35.1529 19.7646 35.2242C19.7646 35.2948 19.7646 35.3647 19.8352 35.5059C19.8352 35.5772 19.9058 35.6471 20.047 35.7176C20.1882 35.7889 20.2588 35.7889 20.3999 35.7889C20.7529 35.7889 20.8941 35.7176 21.0352 35.5066C21.1058 35.2948 21.1764 35.0831 21.247 34.9419C21.3176 34.8007 21.3882 34.5184 21.3882 34.3772C21.8823 34.9419 22.3058 35.2948 22.6588 35.436C22.9411 35.5066 23.0823 35.5772 23.2235 35.5066C23.3647 35.436 23.4352 35.3654 23.5058 35.2948C23.5764 35.2242 23.5764 35.0831 23.5764 34.9419C23.5764 34.8007 23.5058 34.7301 23.4352 34.6595C23.2235 34.4478 23.0823 34.3066 22.7999 34.236C22.7294 34.1654 22.5882 34.1654 22.447 34.0948C22.3058 34.0242 22.2352 34.0242 22.2352 33.9536C22.2352 33.8831 22.3058 33.8132 22.3058 33.7419L23.0823 33.1772C23.1529 33.1066 23.2235 33.036 23.3647 32.9654C23.8588 32.6125 24.2117 32.3301 24.2823 32.1882C24.3529 32.1176 24.2117 31.9765 23.9294 31.8353Z" fill="#D0C7AC"/>
<path d="M70.5177 31.2706C70.4472 31.1294 70.3766 31.0588 70.306 30.9882C70.2354 30.9169 70.0942 30.847 69.8825 30.847C69.6707 30.847 69.4589 30.847 69.2472 30.9176C69.0354 30.9889 68.7537 30.9889 68.5413 31.1294C68.3295 31.2007 68.1177 31.2706 67.9766 31.4118C67.8354 31.5529 67.7648 31.5529 67.6942 31.6235C67.4119 31.9059 67.27 32.1176 67.27 32.3294C67.27 32.4007 67.1994 32.5412 67.1994 32.6118C67.1994 32.6823 67.1994 32.8235 67.27 32.8934C67.3413 33.1059 67.4112 33.2463 67.5523 33.3176C67.6229 33.4588 67.834 33.5993 68.0465 33.6706C68.117 33.7412 68.2582 33.7412 68.3281 33.8118C68.4001 33.8823 68.5413 33.8823 68.6119 33.9529C68.5406 34.1654 68.0472 34.2353 66.9883 34.2353C66.917 34.2353 66.8472 34.2353 66.8472 34.3059C66.8472 34.3772 66.7759 34.3772 66.7759 34.447C66.7759 34.5183 66.7053 34.5183 66.7053 34.5882C66.7053 34.6581 66.6347 34.6588 66.5641 34.6588C66.4935 34.6588 66.3523 34.6588 66.2824 34.6588C66.2119 34.7294 66.1413 34.8 66.1413 34.8706C66.07 35.0823 66.1413 35.2941 66.353 35.4353C66.4942 35.5765 66.706 35.7169 66.9883 35.7882C67.27 35.8588 67.553 35.9294 67.8347 35.9294C68.117 35.9294 68.47 35.8581 68.753 35.7882C69.0347 35.7169 69.3177 35.5765 69.5295 35.364C69.6001 35.2934 69.6707 35.2934 69.7413 35.2235C70.0942 35.0118 70.2354 34.8 70.1648 34.5882C70.3053 34.0941 70.3053 33.6706 70.0935 33.247C69.9523 32.9654 69.5994 32.6823 69.1759 32.3294C69.2465 32.3294 69.2464 32.3294 69.2464 32.2588C69.2464 32.1875 69.4589 32.1176 69.9523 32.047C70.306 31.9765 70.5177 31.7647 70.5883 31.4823C70.5883 31.5529 70.5883 31.4118 70.5177 31.2706Z" fill="#D0C7AC"/>
<path d="M66.1411 32.0471C66.0698 31.6941 65.8587 31.4118 65.5058 31.2699C65.3646 31.1294 65.1528 31.0588 64.9411 31.0588C64.7293 31.0588 64.5881 30.9883 64.447 31.0588C64.3058 31.0588 64.1653 31.1294 64.094 31.1294C63.8117 31.1294 63.5293 31.2706 63.4587 31.553H63.3881C63.1764 31.4817 63.0352 31.553 62.9646 31.6235C62.6822 31.8353 62.4705 32.1177 62.1874 32.6118C61.9756 33.1059 61.8345 33.5993 61.8345 34.0941C61.8345 34.6588 61.9058 35.0118 62.1168 35.2941C62.3286 35.5059 62.6109 35.6471 62.8933 35.7177C63.0345 35.7177 63.1757 35.789 63.3175 35.789C63.4594 35.789 63.6705 35.789 63.8117 35.789C63.9521 35.789 64.2352 35.789 64.4462 35.7177C64.658 35.6471 64.8705 35.5772 65.0815 35.3647C65.5051 34.9412 65.858 34.4471 66.0691 33.8125C66.2117 33.1059 66.2822 32.5412 66.1411 32.0471ZM64.3058 34.0941C64.2352 34.2353 64.1653 34.3059 64.094 34.4471C64.0234 34.5177 63.8822 34.5882 63.8117 34.6588C63.6705 34.6588 63.5293 34.7301 63.3175 34.6588C63.2469 34.5177 63.2469 34.3765 63.3175 34.2353C63.3881 34.0941 63.4587 33.953 63.5293 33.8118C63.5293 33.8118 63.5999 33.8118 63.6705 33.7405C63.7411 33.6699 63.8117 33.5993 63.8822 33.5287C63.9528 33.4581 63.9528 33.3875 64.0234 33.317C64.1646 33.317 64.3051 33.317 64.447 33.2457C64.447 33.6 64.4469 33.8824 64.3058 34.0941Z" fill="#D0C7AC"/>
<path d="M61.9765 29.7882C62.0478 29.647 62.0478 29.5059 61.9765 29.364C61.9059 29.2235 61.7647 29.1522 61.6236 29.0823C61.553 29.0823 61.4824 29.0823 61.4118 29.0823C61.3412 29.0823 61.2706 29.0823 61.1295 29.0823C60.8478 29.1529 60.7059 29.2235 60.5648 29.4353C60.4236 29.5765 60.4236 29.7169 60.4236 29.8588C60.4236 30.0007 60.5648 30.0706 60.7059 30.2117C60.8471 30.3529 61.1295 30.3529 61.4118 30.283C61.7647 30.0706 61.9059 29.9294 61.9765 29.7882Z" fill="#D0C7AC"/>
<path d="M61.0587 31.1294C60.847 31.0588 60.5646 31.0588 60.2823 31.1294C59.9999 31.2 59.7881 31.3412 59.7176 31.4824C59.5764 31.7647 59.3646 32.1177 59.2234 32.5412C58.8705 33.5294 58.5881 34.3059 58.5176 34.9412C58.447 35.2941 58.447 35.5059 58.5881 35.7177C58.6587 35.789 58.7293 35.8588 58.8705 35.9301C58.9411 36 59.0823 36 59.1529 36C59.2241 36 59.3646 36 59.4352 35.9294C59.5058 35.9294 59.5764 35.8581 59.5764 35.7882C59.5764 35.717 59.7168 35.717 59.7881 35.717C59.8587 35.717 59.9293 35.717 59.9293 35.717C60.1411 35.6464 60.2823 35.364 60.3528 34.8706C60.3528 34.5177 60.494 34.0235 60.7764 33.2464C60.847 32.9647 60.9881 32.6118 61.0587 32.3294C61.1293 32.0478 61.1999 31.7647 61.2705 31.6235C61.4117 31.3412 61.3411 31.2 61.0587 31.1294Z" fill="#D0C7AC"/>
<path d="M59.4352 29.5059C59.4352 29.4353 59.4352 29.3647 59.294 29.2242C59.294 29.153 59.2234 29.153 59.2234 29.0831C59.2234 29.0118 59.2234 28.9419 59.2234 28.8713C59.2234 28.8 59.2234 28.7301 59.1521 28.6588C59.0815 28.5882 59.0109 28.5184 58.8705 28.4471C58.5881 28.3059 58.3058 28.3765 58.0234 28.5177C57.9521 28.5882 57.8116 28.7294 57.7411 28.9412C57.4594 29.5765 57.1763 30.4235 56.894 31.6235C56.894 31.7647 56.8234 31.8353 56.8234 31.9765C56.8234 31.7647 56.6116 31.6948 56.3293 31.6235C56.0476 31.553 55.8352 31.6235 55.6234 31.7647C55.1293 31.9765 54.6359 32.4 54.2829 33.0353C54.0006 33.6 53.7888 34.0941 53.7888 34.5184C53.7888 34.9419 53.8594 35.2242 54.0705 35.3647C54.2829 35.5772 54.7058 35.6471 55.2705 35.6471C55.4116 35.6471 55.4822 35.6471 55.6234 35.5765C55.7646 35.5052 55.8352 35.4353 55.9764 35.2235C55.9764 35.364 55.9763 35.4353 56.0476 35.5052C56.0476 35.5052 56.0476 35.5052 56.1182 35.5052C56.1182 35.5052 56.1888 35.5052 56.2594 35.5052V35.5765C56.5411 35.717 56.8241 35.7882 57.1771 35.6471C57.3182 35.5765 57.4594 35.5059 57.53 35.4353C57.6006 35.364 57.6712 35.2235 57.6712 35.153C57.7418 34.7294 57.8123 34.3059 58.0241 33.8125C58.2359 33.3184 58.3771 32.8941 58.5888 32.4007C58.8006 31.9066 59.0123 31.4125 59.1535 30.9177C59.1528 30.4235 59.294 30 59.4352 29.5059ZM56.1175 33.6706C56.0469 33.8118 56.0469 33.9522 55.9764 34.0941C55.9058 34.2353 55.9058 34.3059 55.8352 34.3765C55.7646 34.5177 55.6234 34.5882 55.4822 34.5177C55.4116 34.4471 55.3411 34.3059 55.4116 34.1647C55.4116 34.0235 55.4822 33.8824 55.5528 33.7405C55.6234 33.5993 55.694 33.5287 55.8345 33.4588C55.9756 33.3875 56.0469 33.3875 56.1874 33.4588L56.1175 33.6706Z" fill="#D0C7AC"/>
<path d="M32.9648 31.2C32.8236 31.1294 32.6824 31.0588 32.4707 31.0588C32.2589 31.0588 32.1177 30.9883 31.9765 31.0588C31.7648 31.0588 31.6942 31.0588 31.553 31.0588C31.2707 31.0588 30.9883 31.2 30.9177 31.4824H30.8471C30.6354 31.4118 30.4942 31.4824 30.4236 31.5537C30.1412 31.7647 29.9295 32.0471 29.6471 32.5412C29.4354 33.0353 29.2942 33.5294 29.2942 34.0242C29.2942 34.589 29.3648 34.9419 29.5765 35.2242C29.7883 35.436 30.0707 35.5772 30.353 35.6478C30.4942 35.6478 30.6354 35.7184 30.7765 35.7184C30.9177 35.7184 31.1295 35.7184 31.2707 35.7184C31.4118 35.7184 31.6942 35.7184 31.906 35.6478C32.1177 35.5772 32.3295 35.5066 32.5412 35.2948C32.9648 34.8713 33.3177 34.3772 33.5295 33.7419C33.7412 33.1772 33.7412 32.6125 33.6001 32.1184C33.5295 31.6941 33.3177 31.4118 32.9648 31.2ZM31.7648 34.0941C31.6942 34.2353 31.6236 34.3059 31.553 34.4471C31.4824 34.5184 31.3412 34.5882 31.2707 34.6588C31.1295 34.6588 30.9883 34.7301 30.7765 34.6588C30.706 34.5184 30.706 34.3772 30.7765 34.2353C30.8471 34.0934 30.9177 33.953 30.9883 33.8118C30.9883 33.8118 31.0589 33.8118 31.1295 33.7405C31.2001 33.6699 31.2707 33.5993 31.3412 33.5287C31.4118 33.4581 31.4118 33.3875 31.4824 33.317C31.6236 33.317 31.7648 33.317 31.906 33.2457C31.906 33.6 31.906 33.8824 31.7648 34.0941Z" fill="#D0C7AC"/>
<path d="M28.2353 31.2C28.0941 31.1287 27.8823 31.0588 27.6706 30.9882C27.4588 30.9882 27.3176 30.9169 27.1765 30.9882C27.0353 31.0588 26.8941 31.0588 26.8235 31.0588C26.5412 31.0588 26.2588 31.2 26.1882 31.4823H26.1176C25.9059 31.4118 25.7647 31.4823 25.6941 31.5536C25.4118 31.7647 25.2 32.0471 24.9176 32.5412C24.7059 33.0353 24.5647 33.5294 24.5647 34.0242C24.5647 34.5889 24.6353 34.9419 24.8471 35.2242C25.0588 35.436 25.3412 35.5772 25.6235 35.6478C25.7647 35.6478 25.9059 35.7184 26.0471 35.7184C26.1882 35.7184 26.4 35.7184 26.5412 35.7184C26.6823 35.7184 26.9647 35.7184 27.1765 35.6478C27.3882 35.5772 27.6 35.5066 27.8118 35.2948C28.2353 34.8713 28.5882 34.3772 28.8 33.7419C29.0118 33.1772 29.0118 32.6125 28.8706 32.1183C28.7294 31.6941 28.5882 31.4118 28.2353 31.2ZM27.0353 34.0941C26.9647 34.2353 26.8941 34.3059 26.8235 34.4471C26.7529 34.5184 26.6118 34.5882 26.5412 34.6588C26.4 34.6588 26.2588 34.7301 26.0471 34.6588C25.9765 34.5184 25.9765 34.3772 26.0471 34.2353C26.1176 34.0934 26.1882 33.9529 26.2588 33.8118C26.2588 33.8118 26.3294 33.8118 26.4 33.7405C26.4706 33.6699 26.5412 33.5993 26.6118 33.5287C26.6823 33.4581 26.6823 33.3875 26.7529 33.3169C26.8941 33.3169 27.0353 33.3169 27.1765 33.2456C27.1765 33.6 27.1059 33.8824 27.0353 34.0941Z" fill="#D0C7AC"/>
<path d="M37.2 28.5177C37.1294 28.4471 37.1294 28.3765 37.1294 28.3059C36.847 28.2353 36.5647 28.2353 36.3529 28.4471C36.2823 28.5184 36.2117 28.5882 36.1412 28.6588C36.0706 28.7294 36.0706 28.8 36 28.8706C35.3647 29.9294 34.8706 31.1287 34.447 32.4C34.3059 32.9647 34.1647 33.4588 34.0235 33.8824C33.8823 34.3059 33.8117 34.7294 33.7412 35.0118C33.6706 35.2242 33.7412 35.3647 33.8117 35.436C33.8823 35.436 33.8823 35.5066 33.9529 35.5066C34.0235 35.5066 34.0235 35.5779 34.0941 35.5779C34.0941 35.7897 34.2353 35.8595 34.5176 35.7897C34.6588 35.7897 34.7294 35.7184 34.8706 35.6485C35.0117 35.5779 35.0823 35.5073 35.2235 35.4367C35.2941 35.3654 35.3647 35.2955 35.4353 35.1544C35.5059 35.0132 35.5059 34.9426 35.5764 34.8014C35.647 34.6602 35.647 34.5198 35.7176 34.3779C35.7889 34.2367 35.7889 34.0249 35.8588 33.8132C36.3529 32.0485 36.9176 30.4242 37.5529 29.0125C37.5529 28.872 37.4816 28.7308 37.3412 28.5889C37.2706 28.5882 37.2706 28.5882 37.2 28.5177Z" fill="#D0C7AC"/>
<path d="M50.047 22.0235C50.8934 22.0235 51.5993 21.3176 51.5993 20.4706C51.5993 19.6235 50.8934 18.9176 50.047 18.9176H47.1529C47.3647 18.2824 47.5059 17.6471 47.5772 17.0118H56.9654C57.8125 17.0118 58.5183 16.3059 58.5183 15.4588C58.5183 14.6118 57.8125 13.9059 56.9654 13.9059H47.647C47.5765 13.3412 47.5059 12.7765 47.3647 12.2118H62.1176C62.9647 12.2118 63.6706 11.5059 63.6706 10.6588C63.6706 9.81176 62.9647 9.10588 62.1176 9.10588H46.3059C46.0242 8.47058 45.6 7.90588 45.247 7.41176H68.1882C69.0353 7.41176 69.7412 6.70588 69.7412 5.85882C69.7412 5.01176 69.0353 4.30588 68.1882 4.30588H42L41.9294 4.23529V4.30588C41.8581 4.30588 41.7882 4.30588 41.7169 4.30588C40.8706 4.30588 40.1647 5.01176 40.1647 5.85882C40.1647 6.49411 40.5882 7.05882 41.1522 7.27059C43.411 9.10588 44.8228 11.8588 44.8228 14.9647C44.8228 20.4 40.3758 24.8471 34.9405 24.8471H34.7287C29.2934 24.8471 24.8463 20.4 24.8463 14.9647C24.8463 11.8588 26.2581 9.10588 28.5169 7.27059C29.0816 7.05882 29.5052 6.49411 29.5052 5.85882C29.5052 5.01176 28.7993 4.30588 27.9522 4.30588C27.8816 4.30588 27.8111 4.30588 27.7405 4.30588V4.37647L27.6699 4.44706H1.55223C0.705882 4.44706 0 5.08235 0 5.92941C0 6.77647 0.705882 7.48235 1.55294 7.48235H24.4941C24.0706 8.04706 23.7176 8.61176 23.4353 9.17647H7.55294C6.70588 9.17647 6 9.88235 6 10.7294C6 11.5765 6.70588 12.2823 7.55294 12.2823H22.3059C22.1647 12.8471 22.0941 13.4118 22.0235 13.9765H12.7765C11.9294 13.9765 11.2235 14.6824 11.2235 15.5294C11.2235 16.3765 11.9294 17.0824 12.7765 17.0824H22.1647C22.2353 17.7176 22.4471 18.3529 22.5882 18.9882H19.6941C18.8471 18.9882 18.1412 19.6941 18.1412 20.5405C18.1412 21.3875 18.8471 22.0934 19.6941 22.0934H24.0706C26.3294 25.5522 30.2823 27.8118 34.7294 27.8118H34.9412C39.3882 27.8118 43.2706 25.5529 45.6 22.0934H50.047V22.0235Z" fill="#D0C7AC"/>
<path d="M48.5646 31.4118C48.6359 31.3412 48.7058 31.2706 48.7058 31.1294C48.7058 31.0588 48.7058 30.9176 48.7058 30.8478C48.7058 30.7765 48.6352 30.7066 48.4941 30.636C48.3529 30.5647 48.2823 30.5647 48.2117 30.5647H48.0705C47.9999 30.5647 47.9999 30.5647 47.9301 30.5647C47.8588 30.5647 47.7176 30.5647 47.6477 30.5647H47.5771C47.5771 30.5647 47.5058 30.5647 47.4359 30.5647L47.5065 30.4941C47.5065 30.4941 47.5778 30.4228 47.5778 30.3529L47.8595 29.7882C47.9293 29.6471 47.9293 29.5765 47.9999 29.5059C48.0705 29.4353 48.0705 29.3647 48.0705 29.2941C48.0705 29.2235 48.1418 29.1529 48.1418 29.0824C48.1418 29.0111 48.2124 28.9412 48.2124 28.8C48.2837 28.6588 48.2124 28.5184 48.1418 28.3765C48.0705 28.2353 47.9301 28.1647 47.8595 28.0941C47.7183 28.0235 47.5778 27.9529 47.5065 27.9529C47.4359 27.9529 47.2948 27.9529 47.2249 28.0941C47.1529 28.1647 47.0117 28.2353 46.9411 28.2353C46.8705 28.2353 46.7999 28.2353 46.7999 28.3059C46.7293 28.3059 46.6588 28.4471 46.5882 28.5882V28.7294C46.3764 29.0111 46.2352 29.364 46.0941 29.7882C46.0235 30 46.0235 30.1412 45.9529 30.2824C45.9529 30.4228 45.8823 30.6353 45.8823 30.7758C45.8117 30.7758 45.7411 30.7758 45.7411 30.7758C45.7411 30.7758 45.6705 30.7758 45.5293 30.8471C45.3882 30.8471 45.247 30.9177 45.1058 30.9882C45.0352 30.9882 44.8941 31.0588 44.6823 31.1294C44.5411 31.2 44.3999 31.2706 44.3999 31.4118C44.3293 31.5529 44.3293 31.6235 44.3293 31.7647C44.3293 31.8353 44.4006 31.9765 44.4705 32.0471C44.5411 32.1177 44.6117 32.1875 44.7529 32.1875C44.8933 32.1875 44.9646 32.1875 45.0345 32.1169C45.1058 32.1169 45.1757 32.1169 45.2463 32.1169C44.8933 33.3169 44.6816 34.3758 44.6117 35.364C44.6117 35.4353 44.6117 35.5052 44.6117 35.5765C44.6117 35.6471 44.7529 35.7169 44.8933 35.7882C45.0345 35.8588 45.1757 35.9294 45.3875 35.9294C45.3875 35.9294 45.3875 35.9294 45.4588 35.9294C45.5293 35.9294 45.5293 35.9294 45.5992 35.8581C45.7404 35.7875 45.9522 35.364 46.2345 34.5177C46.3051 34.3052 46.3757 34.0235 46.5169 33.7405C46.5875 33.4588 46.6573 33.2464 46.7286 32.964C46.7992 32.7522 46.8698 32.4699 46.9404 32.2581C47.011 32.0464 47.0816 31.9052 47.1522 31.764L47.2235 31.6934C47.4352 31.6934 47.7882 31.6221 48.2823 31.4809C48.4235 31.5529 48.4941 31.4824 48.5646 31.4118Z" fill="#D0C7AC"/>
<path d="M43.553 30.9882C43.4824 30.9176 43.3413 30.847 43.1295 30.847C42.9177 30.847 42.706 30.847 42.4949 30.9176C42.2831 30.9889 42.0008 30.9889 41.789 31.1294C41.5773 31.2007 41.3648 31.2706 41.2243 31.4118C41.0831 31.4823 41.0118 31.5529 40.942 31.6235C40.6596 31.9059 40.5184 32.1176 40.5184 32.3294C40.5184 32.4007 40.4471 32.5412 40.4471 32.6118C40.4471 32.6823 40.4471 32.8235 40.5184 32.8934C40.5883 33.1059 40.6589 33.247 40.8001 33.3176C40.8714 33.4588 41.0824 33.5993 41.2942 33.6706C41.3648 33.7412 41.506 33.7412 41.5766 33.8118C41.6471 33.8823 41.7883 33.8823 41.8589 33.9529C41.7883 34.1654 41.2942 34.2353 40.2354 34.2353C40.1648 34.2353 40.0942 34.2353 40.0942 34.3059C40.0942 34.3772 40.0236 34.3772 40.0236 34.447C40.0236 34.5176 39.953 34.5176 39.953 34.5882C39.953 34.6588 39.8824 34.6588 39.8126 34.6588C39.7413 34.6588 39.6001 34.6588 39.5302 34.6588C39.4596 34.7301 39.389 34.8 39.389 34.8713C39.3184 35.0831 39.389 35.2948 39.6008 35.436C39.742 35.5772 39.9537 35.7176 40.2361 35.7889C40.5184 35.8595 40.8008 35.9301 41.0831 35.9301C41.3648 35.9301 41.7177 35.8588 42.0008 35.7889C42.2831 35.7176 42.5655 35.5772 42.7773 35.3647C42.8471 35.2941 42.9177 35.2941 42.9883 35.2235C43.3413 35.0118 43.4824 34.8 43.4118 34.5882C43.553 34.0941 43.553 33.6706 43.3413 33.247C43.2001 32.9654 42.8471 32.6823 42.4229 32.3294C42.4942 32.3294 42.4942 32.3294 42.4942 32.2588C42.4942 32.1875 42.706 32.1176 43.2001 32.047C43.553 31.9765 43.7648 31.7647 43.8354 31.4823C43.8354 31.3419 43.8354 31.2706 43.7648 31.1294C43.6942 31.2 43.6236 31.0588 43.553 30.9882Z" fill="#D0C7AC"/>
<path d="M34.7294 6.70588C35.5058 6.70588 36.0698 6.14118 36.0698 5.36471C36.0698 4.58823 35.5058 4.02353 34.7294 4.02353C34.0235 4.02353 33.3882 4.58823 33.3882 5.36471C33.3882 6.14118 34.0235 6.70588 34.7294 6.70588Z" fill="#D0C7AC"/>
<path d="M34.7999 8.04706C34.3058 8.04706 33.9529 8.4 33.9529 8.89412C33.9529 9.38823 34.3058 9.74117 34.7999 9.74117C35.2941 9.74117 35.647 9.38823 35.647 8.89412C35.647 8.4 35.2941 8.04706 34.7999 8.04706Z" fill="#D0C7AC"/>
<path d="M32.6117 14.1176C32.8234 14.5412 33.0352 14.9647 33.3175 15.4588H36.1411C36.4227 15.0353 36.7058 14.5412 36.9175 14.1176L38.3293 10.4471C38.6117 9.31764 38.7535 8.25882 38.7535 7.19999C38.7535 5.50588 38.1881 3.95293 37.1293 2.47058C36.3528 2.68235 35.5058 2.82352 34.7999 2.82352C33.9528 2.89411 33.1058 2.68235 32.4705 2.47058C31.3411 4.02352 30.7764 5.57646 30.7764 7.19999C30.7764 7.83529 30.847 8.54117 30.9175 9.24705L31.1999 10.5176L32.6117 14.1176ZM34.7999 9.74117C34.3058 9.74117 33.9528 9.38823 33.9528 8.89411C33.9528 8.39999 34.3058 8.04705 34.7999 8.04705C35.294 8.04705 35.647 8.39999 35.647 8.89411C35.647 9.38823 35.294 9.74117 34.7999 9.74117ZM34.7293 4.02352C35.5058 4.02352 36.0698 4.58823 36.0698 5.3647C36.0698 6.14117 35.5058 6.70588 34.7293 6.70588C34.0234 6.70588 33.3881 6.14117 33.3881 5.3647C33.3881 4.58823 34.0234 4.02352 34.7293 4.02352Z" fill="#88171A"/>
<path d="M34.0942 5.3647C34.0942 4.94117 34.3059 4.51764 34.6589 4.30588C34.0942 4.30588 33.6707 4.8 33.6707 5.3647C33.6707 5.92941 34.0942 6.42352 34.6589 6.42352C34.3059 6.21176 34.0942 5.78823 34.0942 5.3647Z" fill="#3D4747"/>
<path d="M34.4471 8.89411C34.4471 8.68235 34.5177 8.54117 34.6589 8.39999C34.3766 8.39999 34.1648 8.61176 34.1648 8.89411C34.1648 9.17646 34.3766 9.38823 34.6589 9.38823C34.5883 9.31764 34.4471 9.10588 34.4471 8.89411Z" fill="#3D4747"/>
</g>
<defs>
<clipPath id="clip0_481_13049">
<rect width="70.5882" height="36" fill="white"/>
</clipPath>
</defs>
</svg>
