<svg width="76" height="36" viewBox="0 0 76 36" fill="none" xmlns="http://www.w3.org/2000/svg">
<path d="M0.0757098 13.7382C0.0757098 11.6183 0.0757098 9.57414 0.0757098 7.45426C0.0757098 7.07571 0.15142 7.07571 0.454259 7.07571C2.64984 7.07571 4.84543 7.07571 7.04101 7.07571C7.79811 7.07571 8.5552 7.22713 9.23659 7.37855C10.4479 7.68139 11.205 8.5142 11.5079 9.80127C11.735 10.7855 11.735 11.694 11.4322 12.6782C11.0536 13.8139 10.2965 14.4953 9.23659 14.7981C9.00946 14.8738 9.00946 14.9495 9.08517 15.1767C9.61514 16.0852 10.1451 16.918 10.6751 17.8265C11.1293 18.5836 11.5079 19.265 11.9621 20.0221C12.1136 20.3249 12.0379 20.4763 11.735 20.4763C11.0536 20.4763 10.3722 20.4763 9.61514 20.4763C9.23659 20.4763 9.00946 20.3249 8.85804 20.0221C8.4795 19.3407 8.10095 18.735 7.7224 18.0536C7.19243 17.1451 6.73817 16.2366 6.2082 15.4038C6.13249 15.3281 5.98107 15.1767 5.90536 15.1767C4.99685 15.1767 4.01262 15.1767 3.1041 15.1767C2.87697 15.1767 2.80126 15.2524 2.80126 15.4795C2.80126 16.9937 2.80126 18.5079 2.80126 20.0221C2.80126 20.3249 2.64984 20.4763 2.42271 20.4763C1.74132 20.4763 1.05994 20.4763 0.378549 20.4763C0.15142 20.4763 0 20.4006 0 20.0978C0.0757098 17.9779 0.0757098 15.858 0.0757098 13.7382ZM5.22397 9.49843C4.54259 9.42272 3.8612 9.42272 3.17981 9.42272C3.02839 9.42272 2.80126 9.42272 2.87697 9.64985C2.87697 10.5584 2.87697 11.5426 2.87697 12.4511C2.87697 12.6782 2.95268 12.7539 3.17981 12.7539C4.23975 12.7539 5.37539 12.7539 6.43533 12.7539C6.9653 12.7539 7.49527 12.6782 8.02524 12.5268C8.78233 12.2997 9.00946 11.6183 8.85804 10.6341C8.78233 9.95269 8.25237 9.49843 7.57098 9.49843C6.73817 9.49843 5.98107 9.49843 5.22397 9.49843Z" fill="white"/>
<path d="M23.0158 14.7981C21.8045 14.7981 20.5931 14.7981 19.4575 14.7981C19.3061 14.7981 19.1546 14.7981 19.1546 15.0252C19.2303 16.0095 19.3818 17.0694 20.2903 17.6751C20.8203 18.0536 21.4259 18.1293 22.0316 18.1293C23.5458 18.1293 25.06 18.1293 26.5742 18.1293C26.9527 18.1293 27.0285 18.2051 27.0285 18.5836C27.0285 19.0379 27.0285 19.5678 27.0285 20.0221C27.0285 20.2492 26.9527 20.4006 26.6499 20.4006C24.6057 20.4006 22.4859 20.5521 20.4417 20.2492C18.6247 20.0221 17.4133 18.9622 16.6562 17.3722C16.1262 16.3123 16.0505 15.101 16.0505 13.8896C16.0505 12.9811 16.1262 11.9969 16.3534 11.0883C16.8076 9.04417 18.0947 7.60569 20.2146 7.22714C21.0474 7.15143 21.8802 7.07572 22.713 7.07572C24.0001 7.00001 25.2871 7.07572 26.5742 7.07572C26.877 7.07572 26.9527 7.15143 26.9527 7.45427C26.9527 7.98423 26.9527 8.5142 26.9527 8.96846C26.9527 9.34701 26.877 9.34701 26.4985 9.34701C25.2114 9.34701 23.8486 9.34701 22.5616 9.34701C22.0316 9.34701 21.5774 9.42272 21.0474 9.49843C20.1389 9.72556 19.6089 10.2555 19.3061 11.164C19.1546 11.4669 19.1546 11.8454 19.0789 12.1483C19.0032 12.3754 19.0789 12.4511 19.3061 12.4511C19.5332 12.4511 19.7603 12.4511 19.9874 12.4511C21.9559 12.4511 23.9244 12.4511 25.8928 12.4511C25.9685 12.4511 26.0442 12.4511 26.0442 12.4511C26.9527 12.3754 26.877 12.2997 26.877 13.2839C26.877 13.6625 26.877 13.9653 26.877 14.3439C26.877 14.7224 26.8013 14.7981 26.4228 14.7981C25.3628 14.8738 24.1515 14.7981 23.0158 14.7981Z" fill="white"/>
<path d="M51.2556 17.2965C50.347 17.2965 49.5142 17.2965 48.6057 17.2965C48.3786 17.2965 48.3029 17.3722 48.2272 17.5994C47.9243 18.4322 47.6215 19.265 47.3187 20.0221C47.1672 20.3249 47.0158 20.4763 46.6373 20.4763C45.9559 20.4763 45.3502 20.4763 44.6688 20.4763C44.2145 20.4763 44.1388 20.3249 44.366 19.9464C45.0474 18.3565 45.7287 16.8423 46.4101 15.2524C47.2429 13.3596 48.0757 11.3912 48.8328 9.49842C49.1357 8.81703 49.4385 8.13565 49.7414 7.37855C49.8171 7.15142 50.0442 7 50.2713 7C50.9527 7 51.6341 7 52.3912 7C52.694 7 52.8455 7.15142 52.9969 7.37855C53.6026 8.89274 54.284 10.4069 54.8896 11.9211C55.571 13.511 56.2524 15.1767 57.0095 16.7666C57.4638 17.8265 57.918 18.9621 58.3723 20.0221C58.5237 20.3249 58.3723 20.4763 58.0694 20.4763C57.3123 20.4763 56.5552 20.4763 55.8739 20.4763C55.571 20.4763 55.4196 20.3249 55.3439 20.0978C55.041 19.265 54.7382 18.4322 54.4354 17.5994C54.3597 17.3722 54.2082 17.2965 53.9811 17.2965C52.9969 17.2965 52.0884 17.2965 51.2556 17.2965ZM51.2556 14.8738C51.7098 14.8738 52.2398 14.8738 52.694 14.8738C53.2997 14.8738 53.2997 14.8738 52.9969 14.3438C52.9969 14.2681 52.9969 14.2681 52.9212 14.1924C52.3912 12.8297 51.8612 11.3912 51.3313 10.0284C51.3313 9.95268 51.2556 9.87697 51.1798 9.87697C51.1798 9.87697 51.1041 9.95268 51.0284 10.0284C50.7256 10.8612 50.4228 11.694 50.1199 12.6025C49.8928 13.2839 49.5899 13.8896 49.3628 14.571C49.2114 14.8738 49.2871 14.9495 49.5899 14.9495C50.1199 14.8738 50.7256 14.8738 51.2556 14.8738Z" fill="white"/>
<path d="M34.3723 11.8454C34.3723 13.2082 34.3723 14.571 34.3723 15.9338C34.3723 17.1451 35.0537 17.9779 36.2651 18.1293C36.6436 18.2051 36.9464 18.2051 37.325 18.2051C38.3092 18.2051 39.3692 18.2051 40.3534 18.2051C40.5805 18.2051 40.7319 18.2808 40.7319 18.5079C40.7319 19.0379 40.7319 19.5678 40.7319 20.0978C40.7319 20.3249 40.5805 20.4763 40.3534 20.4763C38.5363 20.4763 36.7193 20.5521 34.9023 20.3249C33.7666 20.1735 32.9338 19.4921 32.3281 18.5836C31.7982 17.8265 31.6468 17.0694 31.571 16.1609C31.571 14.571 31.571 12.9054 31.571 11.3155C31.571 10.1041 31.571 8.81704 31.571 7.60568C31.571 7.07571 31.6468 7.07571 32.101 7.07571C32.7067 7.07571 33.3881 7.07571 33.9938 7.07571C34.3723 7.07571 34.448 7.15142 34.448 7.52997C34.3723 8.96846 34.3723 10.4069 34.3723 11.8454Z" fill="white"/>
<path d="M61.4763 18.5836C61.4006 17.448 62.3848 16.6151 63.2933 16.6151C64.429 16.6151 65.3375 17.448 65.3375 18.5079C65.3375 19.5678 64.5047 20.4763 63.5204 20.5521C62.5362 20.6278 61.4763 19.7192 61.4763 18.5836Z" fill="white"/>
<path d="M71.7729 18.5836C71.6972 17.448 72.7571 16.6151 73.6656 16.6151C74.8013 16.6151 75.7098 17.448 75.7098 18.5836C75.7098 19.6435 74.877 20.5521 73.817 20.5521C72.7571 20.5521 71.6972 19.6435 71.7729 18.5836Z" fill="white"/>
<path d="M61.4763 8.96845C61.4763 7.90852 62.3848 7 63.4448 7C64.5047 7 65.4132 7.90852 65.4132 8.96845C65.4132 10.0284 64.5047 10.9369 63.4448 10.9369C62.4605 11.0126 61.4763 10.1798 61.4763 8.96845Z" fill="white"/>
<path d="M73.7414 11.0126C72.9086 11.0126 71.7729 10.2555 71.7729 8.96846C71.7729 7.90852 72.6815 7.07571 73.7414 7.07571C74.8013 7.07571 75.7099 7.98423 75.7099 9.04417C75.7099 10.1041 74.8013 11.0126 73.7414 11.0126Z" fill="white"/>
<path d="M68.5173 11.7697C69.5772 11.7697 70.4857 12.6025 70.4857 13.7382C70.4857 14.7981 69.5772 15.7066 68.5173 15.7066C67.3816 15.7066 66.5488 14.7981 66.5488 13.7382C66.5488 12.6782 67.4573 11.7697 68.5173 11.7697Z" fill="white"/>
<path d="M31.7981 29.5615C31.8738 29.4101 31.8738 29.3344 31.9496 29.183C32.2524 28.1987 32.4795 27.2902 32.7824 26.306C32.8581 26.0789 33.0095 25.8517 33.3123 25.9274C33.6152 25.9274 33.6909 26.1546 33.6909 26.3817C33.918 27.7445 34.1451 29.0315 34.3723 30.3943C34.3723 30.6215 34.3723 30.7729 34.0694 30.8486C33.8423 30.8486 33.7666 30.6972 33.7666 30.47C33.6152 29.4101 33.4637 28.2745 33.3123 27.2145C33.3123 27.1388 33.2366 27.0631 33.1609 26.9874C33.0852 27.0631 33.0095 27.1388 33.0095 27.2145C32.7066 28.2745 32.4038 29.4101 32.0253 30.5457C32.0253 30.6972 31.7981 30.7729 31.7224 30.8486C31.6467 30.8486 31.4953 30.6972 31.4196 30.6215C31.1167 29.5615 30.7382 28.4259 30.4354 27.3659C30.4354 27.2902 30.4354 27.2145 30.3596 27.2145C30.2839 27.1388 30.2839 27.1388 30.2082 27.0631C30.2082 27.1388 30.1325 27.1388 30.1325 27.2145C30.0568 27.9716 29.9054 28.7287 29.8297 29.4858C29.754 29.8644 29.754 30.2429 29.6783 30.6215C29.6783 30.8486 29.5268 31 29.2997 31C29.0726 30.9243 28.9969 30.7729 29.0726 30.5457C29.2997 29.2587 29.5268 28.0473 29.754 26.7603C29.8297 26.306 29.9811 26.0789 30.2082 26.0789C30.4354 26.0789 30.5868 26.306 30.7382 26.6845C30.9653 27.5931 31.2682 28.5773 31.571 29.4858C31.571 29.5615 31.6467 29.6372 31.7224 29.7129C31.7224 29.5615 31.7981 29.5615 31.7981 29.5615Z" fill="white"/>
<path d="M56.7065 28.3502C56.7065 27.6688 56.7065 27.0631 56.7065 26.3817C56.7065 26.2303 56.7823 26.0789 56.858 25.9275C57.0094 26.0032 57.1608 26.0789 57.3122 26.1546C57.8422 26.836 58.2964 27.5931 58.8264 28.3502C59.0535 28.7287 59.2807 29.1073 59.5835 29.4101C59.6592 29.4858 59.7349 29.4858 59.8106 29.5615C59.8106 29.4858 59.8864 29.4101 59.8864 29.3344C59.8864 28.3502 59.8864 27.3659 59.8864 26.3817C59.8864 26.2303 59.8864 26.0789 59.9621 26.0032C60.1135 25.8517 60.3406 25.9275 60.4163 26.0789C60.4163 26.1546 60.4163 26.2303 60.4163 26.3817C60.4163 27.6688 60.4163 29.0316 60.4163 30.3186C60.4163 30.47 60.3406 30.6972 60.2649 30.7729C60.0378 30.9243 59.9621 30.6972 59.8106 30.5457C59.0535 29.4858 58.2964 28.4259 57.6151 27.3659C57.5393 27.2902 57.4636 27.2145 57.3879 27.1388C57.3879 27.2145 57.3122 27.3659 57.3122 27.4416C57.3122 28.4259 57.3122 29.4101 57.3122 30.3943C57.3122 30.5457 57.2365 30.7729 57.0094 30.7729C56.7823 30.7729 56.7065 30.6215 56.7065 30.3943C56.7065 29.7887 56.7065 29.0316 56.7065 28.3502Z" fill="white"/>
<path d="M74.4228 28.0473C75.1042 27.9716 75.4071 27.9716 75.3313 28.9558C75.2556 29.7129 75.0285 30.3186 74.2714 30.6215C73.5143 31 72.6815 30.9243 72.0001 30.3943C71.6973 30.1672 71.4701 29.7887 71.3187 29.4101C70.9402 28.4259 71.0916 26.836 72.303 26.2303C72.9843 25.8517 74.1957 25.9275 74.7257 26.3817C74.8771 26.5331 75.0285 26.6846 74.8771 26.836C74.7257 27.0631 74.5742 26.9117 74.3471 26.836C74.12 26.6846 73.8172 26.5331 73.5143 26.4574C72.9086 26.306 72.3787 26.6088 72.0001 27.0631C71.6216 27.5931 71.6216 29.2587 72.1515 29.7887C72.6058 30.2429 73.1358 30.47 73.6657 30.2429C74.2714 30.0158 74.65 29.4858 74.65 28.8801C74.65 28.653 74.4985 28.5773 74.2714 28.5773C74.12 28.5773 73.9686 28.653 73.8172 28.5773C73.6657 28.5773 73.59 28.4259 73.5143 28.3502C73.59 28.2745 73.7414 28.123 73.8929 28.0473C74.0443 27.9716 74.2714 28.0473 74.4228 28.0473Z" fill="white"/>
<path d="M3.40685 28.0473C4.46679 27.9716 4.31537 28.3502 4.31537 28.9558C4.23966 29.5615 4.01253 30.1672 3.48256 30.5457C2.80117 31.0757 1.4384 30.9243 0.832717 30.3186C-0.0758003 29.3344 -9.04799e-05 27.7445 0.605588 26.9117C0.908427 26.4574 1.36269 26.1546 1.89265 26.0789C2.49833 26.0032 3.0283 26.0032 3.55827 26.3817C3.63398 26.4574 3.7854 26.5331 3.86111 26.6088C3.93682 26.6088 3.93682 26.7603 3.86111 26.836C3.7854 26.9117 3.63398 26.9117 3.48256 26.9117C3.25543 26.836 3.10401 26.6845 2.87688 26.5331C2.11978 26.1546 1.36269 26.4574 0.984137 27.1388C0.529878 27.9716 0.529878 28.8044 0.984137 29.6372C1.28698 30.2429 1.89265 30.47 2.49833 30.3186C3.17972 30.1672 3.63398 29.6372 3.63398 28.9558C3.63398 28.653 3.55827 28.5773 3.25543 28.5773C3.10401 28.5773 2.87688 28.5773 2.72546 28.5773C2.64975 28.5773 2.49833 28.4259 2.49833 28.3502C2.49833 28.2745 2.64975 28.123 2.72546 28.123C3.0283 27.9716 3.17972 28.0473 3.40685 28.0473Z" fill="white"/>
<path d="M14.6121 30.5457C14.6878 30.2429 14.8392 30.0915 14.9149 29.8644C15.3692 28.653 15.8234 27.5173 16.2777 26.306C16.3534 26.1546 16.5048 25.9274 16.6562 25.9274C16.8076 25.9274 17.0348 26.0789 17.1105 26.2303C17.4133 27.0631 17.7162 27.8202 18.019 28.653C18.2461 29.2587 18.4733 29.7886 18.7004 30.3943C18.7004 30.47 18.6247 30.6214 18.6247 30.7729C18.4733 30.6972 18.3218 30.6972 18.2461 30.6214C18.0947 30.3943 18.019 30.1672 17.9433 29.9401C17.8676 29.7129 17.7162 29.6372 17.4133 29.6372C16.8834 29.6372 16.4291 29.6372 15.8991 29.6372C15.672 29.6372 15.5206 29.7129 15.4449 29.9401C15.3692 30.1672 15.2934 30.3943 15.2177 30.6214C15.142 30.6972 14.9906 30.7729 14.9149 30.7729C14.7635 30.7729 14.6878 30.6214 14.6121 30.5457ZM16.6562 29.2587C16.8834 29.2587 17.1105 29.2587 17.3376 29.2587C17.5647 29.2587 17.6405 29.183 17.5647 28.9558C17.3376 28.2744 17.1105 27.5931 16.8076 26.9874C16.8076 26.9117 16.7319 26.836 16.6562 26.836C16.5805 26.9117 16.5048 26.9117 16.5048 26.9874C16.2777 27.6688 16.0505 28.3502 15.8234 28.9558C15.7477 29.183 15.8234 29.2587 16.0505 29.2587C16.2777 29.2587 16.4291 29.2587 16.6562 29.2587Z" fill="white"/>
<path d="M45.1986 28.3502C45.1986 27.6688 45.1986 26.9874 45.1986 26.306C45.1986 26.1546 45.1986 25.9274 45.4258 25.9274C45.6529 25.9274 45.7286 26.0789 45.7286 26.306C45.7286 27.6688 45.7286 29.0315 45.7286 30.3943C45.7286 30.6214 45.7286 30.7729 45.4258 30.7729C45.1986 30.7729 45.1986 30.5457 45.1986 30.3943C45.1229 29.7129 45.1229 29.0315 45.1986 28.3502Z" fill="white"/>
</svg>
