<svg width="148" height="48" viewBox="0 0 1486 488" fill="none" xmlns="http://www.w3.org/2000/svg">
<path d="M250.447 9.23337C253.761 10.0976 257.076 10.9588 260.391 11.8171C269.09 14.0782 277.779 16.3804 286.465 18.6919C295.068 20.9734 303.682 23.2147 312.295 25.4597C327.478 29.4228 342.647 33.4337 357.812 37.4672C367.6 40.0667 377.398 42.629 387.205 45.1558C393.386 46.7498 399.563 48.3587 405.739 49.9697C408.602 50.7126 411.467 51.4486 414.334 52.1772C454.978 62.5155 454.978 62.5155 465.047 76.8867C469.266 85.5215 470.102 93.7106 470.053 103.219C470.057 104.474 470.061 105.729 470.065 107.023C470.071 111.278 470.052 115.534 470.03 119.789C470.027 121.284 470.023 122.779 470.02 124.318C469.941 157.327 469.102 190.324 468.256 223.32C468.223 224.588 468.191 225.857 468.158 227.163C467.505 252.499 466.804 277.834 465.893 303.162C465.837 304.742 465.781 306.322 465.724 307.951C464.817 332.017 463.732 354.4 448.745 374.462C445.58 377.214 442.486 379.728 439.129 382.21C437.246 383.644 435.365 385.082 433.487 386.522C432.54 387.247 431.593 387.972 430.617 388.718C426.344 392.056 422.234 395.572 418.124 399.108C410.681 405.486 403.056 411.578 395.316 417.592C389.352 422.247 383.541 427.048 377.795 431.969C370.411 438.286 362.884 444.378 355.204 450.332C350.574 453.923 346.003 457.564 341.503 461.317C322.885 476.769 305.509 487.014 280.706 487.048C279.373 487.085 278.041 487.121 276.668 487.159C251.147 487.267 225.95 475.456 202.287 467.07C199.487 466.083 196.687 465.095 193.887 464.108C166.481 454.444 139.137 444.607 111.826 434.676C110.163 434.071 108.5 433.467 106.787 432.843C97.3504 429.408 87.9224 425.951 78.5001 422.478C73.6284 420.692 68.7475 418.932 63.8657 417.174C60.6387 415.997 57.4118 414.82 54.1852 413.642C52.7093 413.117 51.2334 412.592 49.7127 412.051C35.3483 406.764 25.864 400.124 18.5644 386.411C14.0098 375.823 11.1294 365.74 10.5194 354.214C10.3844 351.735 10.3844 351.735 10.2466 349.206C10.1542 347.406 10.0618 345.606 9.96662 343.752C9.86442 341.844 9.76222 339.936 9.65692 337.97C9.37691 332.733 9.1041 327.497 8.83323 322.26C8.66253 318.966 8.49028 315.672 8.31752 312.378C7.71132 300.82 7.11106 289.261 6.51612 277.702C5.96763 267.048 5.40628 256.394 4.8386 245.741C4.34784 236.52 3.86671 227.298 3.39242 218.076C3.11082 212.604 2.82583 207.132 2.53094 201.66C1.3781 180.193 0.396431 158.717 0.164351 137.219C0.128456 134.311 0.0652153 131.404 0.000911521 128.496C-0.0766231 110.045 4.78572 96.9105 17.0707 83.194C17.8871 82.2563 18.7035 81.3186 19.5446 80.3525C29.8276 69.2691 43.7135 62.8643 57.2134 56.4944C58.6514 55.8117 60.0893 55.129 61.5708 54.4256C84.3878 43.685 107.494 33.5687 130.591 23.4467C131.637 22.9873 132.684 22.5279 133.763 22.0546C140.477 19.1089 147.2 16.1838 153.929 13.271C155.59 12.5462 157.251 11.8214 158.963 11.0746C163.423 9.15838 167.905 7.32028 172.414 5.52251C173.557 5.03657 174.7 4.55064 175.878 4.04997C200.047 -4.88972 226.717 2.85035 250.447 9.23337Z" fill="#D4342C"/>
<path d="M58.7398 109.223C60.913 109.911 63.0867 110.598 65.2608 111.283C71.0858 113.125 76.9039 114.988 82.7205 116.856C87.5707 118.411 92.4246 119.954 97.2786 121.496C113.374 126.613 129.453 131.779 145.525 136.967C146.684 137.341 147.843 137.715 149.037 138.1C163.954 142.916 178.862 147.757 193.762 152.629C195.703 153.263 197.644 153.898 199.586 154.532C205.942 156.607 212.295 158.693 218.645 160.784C220.192 161.29 221.739 161.796 223.332 162.317C231.262 164.94 239.135 167.696 246.966 170.603C248.511 171.177 250.057 171.75 251.649 172.341C266.411 178.931 275.333 190.282 282.276 204.428C285.899 214.3 285.074 224.936 285.041 235.305C285.05 237.7 285.06 240.096 285.072 242.492C285.099 248.973 285.097 255.453 285.089 261.934C285.084 267.354 285.093 272.773 285.102 278.193C285.123 290.98 285.121 303.768 285.104 316.556C285.087 329.731 285.108 342.906 285.148 356.081C285.181 367.412 285.191 378.742 285.182 390.073C285.177 396.832 285.18 403.591 285.206 410.35C285.229 416.706 285.223 423.061 285.195 429.417C285.19 431.744 285.194 434.07 285.21 436.397C285.295 450.107 284.979 460.527 276.012 471.587C265.737 480.216 256.013 481.267 242.978 480.144C228.281 477.964 214.116 471.661 200.231 466.604C196.681 465.33 193.131 464.058 189.579 462.789C181.207 459.788 172.843 456.765 164.483 453.727C157.912 451.34 151.337 448.961 144.761 446.587C122.663 438.61 100.575 430.609 78.5298 422.489C73.6407 420.698 68.7426 418.932 63.8437 417.168C60.6174 415.991 57.3913 414.814 54.1654 413.636C51.9532 412.849 51.9532 412.849 49.6963 412.047C35.3384 406.762 25.8582 400.118 18.5621 386.412C14.0041 375.815 11.1259 365.729 10.5171 354.194C10.3821 351.709 10.3821 351.709 10.2443 349.173C10.1519 347.368 10.0595 345.564 9.96432 343.705C9.81102 340.835 9.81102 340.835 9.65463 337.908C9.37464 332.66 9.10184 327.411 8.83093 322.162C8.66026 318.862 8.48802 315.562 8.31523 312.262C7.70913 300.688 7.10879 289.113 6.51383 277.538C5.96484 266.86 5.40361 256.183 4.83631 245.506C4.34611 236.27 3.86489 227.033 3.39012 217.795C3.10813 212.311 2.82296 206.828 2.52864 201.344C1.34528 179.227 0.408252 157.118 0.218193 134.968C0.189055 133.126 0.159919 131.284 0.129898 129.386C0.127213 127.696 0.124527 126.007 0.121761 124.267C0.112518 122.783 0.103273 121.3 0.09375 119.772C0.733981 115.399 1.78439 114.332 5.11897 111.574C6.01238 110.311 6.90579 109.048 7.82627 107.747C20.2964 93.8513 43.779 104.392 58.7398 109.223Z" fill="#DA3D32"/>
<path d="M463.365 84.8276C466.667 86.1813 466.667 86.1813 469.655 90.6623C469.954 94.706 470.072 98.5903 470.051 102.635C470.055 103.899 470.059 105.163 470.063 106.465C470.069 110.782 470.05 115.099 470.028 119.416C470.025 120.925 470.022 122.435 470.018 123.99C469.94 157.109 469.104 190.214 468.254 223.32C468.222 224.588 468.189 225.856 468.156 227.162C467.504 252.499 466.802 277.833 465.891 303.162C465.835 304.742 465.78 306.322 465.722 307.95C464.816 332.017 463.731 354.4 448.743 374.462C445.578 377.214 442.485 379.728 439.127 382.21C437.244 383.644 435.364 385.082 433.485 386.522C432.538 387.247 431.591 387.972 430.615 388.718C426.342 392.055 422.232 395.572 418.123 399.108C410.679 405.485 403.054 411.578 395.315 417.592C389.35 422.247 383.54 427.048 377.793 431.969C368.669 439.771 359.298 447.217 349.806 454.566C347.106 456.666 344.425 458.788 341.746 460.914C340.008 462.282 338.269 463.649 336.53 465.016C334.986 466.237 333.442 467.458 331.851 468.716C324.661 473.693 316.913 474.266 308.337 473.045C302.535 470.036 300.471 468.023 297.834 462.14C295.023 452.938 294.657 443.985 294.751 434.463C294.758 433.172 294.764 431.882 294.771 430.552C294.882 413.521 295.19 396.491 295.495 379.462C295.558 375.824 295.622 372.187 295.685 368.549C295.818 360.963 295.952 353.377 296.088 345.791C296.226 338.105 296.36 330.419 296.492 322.733C296.889 299.602 297.315 276.473 297.793 253.345C297.874 249.358 297.95 245.371 298.025 241.384C298.14 235.329 298.288 229.275 298.447 223.221C298.488 220.855 298.488 220.855 298.531 218.442C299.108 199.771 302.71 181.834 315.993 168.019C324.903 159.822 333.888 153.924 344.652 148.449C347.843 146.774 351.033 145.095 354.221 143.414C355.804 142.584 357.386 141.755 359.017 140.9C365.767 137.309 372.39 133.513 379.007 129.685C392.857 121.703 406.807 113.906 420.803 106.183C428.221 102.087 435.619 97.9787 442.914 93.6672C444.565 92.7002 444.565 92.7002 446.25 91.7136C448.21 90.5594 450.16 89.3882 452.097 88.196C456.095 85.8538 458.684 84.6703 463.365 84.8276Z" fill="#8A0103"/>
<path d="M174.711 199.376C181.591 199.471 187.414 201.164 193.871 203.412C195.008 203.796 196.144 204.179 197.315 204.575C199.695 205.384 202.073 206.203 204.447 207.031C208.085 208.294 211.736 209.513 215.39 210.729C217.709 211.524 220.027 212.321 222.345 213.121C223.435 213.482 224.526 213.844 225.65 214.216C233.153 216.884 233.153 216.884 235.853 220.894C236.112 221.787 236.372 222.68 236.64 223.6C230.698 231.448 224.533 239.072 218.155 246.566C211.936 253.878 205.736 261.199 199.718 268.679C197.235 271.748 194.72 274.759 192.156 277.758C190.77 279.433 189.385 281.11 188.002 282.787C186.737 284.285 185.472 285.783 184.168 287.327C180.544 293.788 180.092 298.597 181.373 305.753C184.398 313.655 188.24 321.089 192.115 328.601C193.231 330.812 194.344 333.023 195.456 335.236C198.382 341.046 201.341 346.838 204.306 352.628C207.287 358.464 210.235 364.317 213.187 370.168C217.545 378.789 221.913 387.406 226.31 396.008C226.799 396.969 227.288 397.93 227.792 398.92C230.188 403.597 232.642 408.224 235.238 412.794C236.197 414.495 237.156 416.197 238.145 417.949C239.006 419.434 239.867 420.919 240.754 422.449C242.818 427.21 242.979 430.569 242.614 435.703C234.868 436.06 229.205 435.079 221.977 432.319C220.589 431.793 220.589 431.793 219.173 431.257C217.23 430.517 215.291 429.768 213.355 429.011C210.417 427.865 207.468 426.75 204.517 425.638C182.777 417.305 174.634 408.452 165.13 387.812C159.048 374.838 152.763 361.99 146.304 349.202C142.023 340.713 137.795 332.197 133.576 323.677C132.887 322.288 132.887 322.288 132.184 320.872C129.112 314.673 126.103 308.447 123.12 302.205C122.339 300.627 121.559 299.048 120.754 297.422C116.5 288.385 114.341 282.643 117.145 272.892C119.549 268.422 119.549 268.422 122.746 264.116C123.334 263.309 123.922 262.502 124.527 261.67C125.826 259.889 127.135 258.116 128.452 256.349C131.536 252.199 134.549 247.998 137.569 243.802C140.03 240.387 142.5 236.979 144.971 233.572C150.859 225.43 156.645 217.217 162.413 208.989C168.912 199.733 168.912 199.733 174.711 199.376Z" fill="#FDFCFC"/>
<path d="M403.932 166.84C409.265 171.763 409.772 178.223 410.835 185.068C411.15 186.955 411.15 186.955 411.473 188.88C411.934 191.645 412.388 194.411 412.836 197.177C414.076 204.83 415.369 212.474 416.664 220.117C416.944 221.779 417.225 223.44 417.514 225.152C419.905 239.163 422.515 253.126 425.182 267.086C425.598 269.269 426.014 271.451 426.43 273.633C428.285 283.36 430.151 293.085 432.041 302.805C432.638 305.887 433.229 308.97 433.817 312.054C434.543 315.856 435.28 319.657 436.029 323.454C436.349 325.148 436.67 326.842 437.001 328.587C437.429 330.799 437.429 330.799 437.867 333.055C438.406 338.271 438.281 342.721 434.936 346.921C434.168 347.561 433.401 348.2 432.61 348.86C431.766 349.57 430.921 350.281 430.051 351.013C429.165 351.727 428.278 352.441 427.364 353.177C426.495 353.915 425.626 354.652 424.73 355.412C416.94 361.852 416.94 361.852 411.401 362.513C407.561 358.673 407.636 356.338 406.867 351.001C406.614 349.292 406.361 347.583 406.1 345.823C405.847 344.029 405.593 342.236 405.333 340.388C404.818 336.861 404.303 333.335 403.786 329.809C403.563 328.24 403.339 326.672 403.109 325.055C402.499 321.08 401.769 317.157 400.945 313.221C400.109 313.839 399.272 314.457 398.411 315.093C394.62 317.894 390.827 320.692 387.035 323.49C385.719 324.463 384.403 325.435 383.047 326.437C381.148 327.838 381.148 327.838 379.211 329.267C378.045 330.127 376.88 330.988 375.679 331.874C373.188 333.681 370.644 335.413 368.084 337.12C367.022 340.039 367.022 340.039 366.573 343.487C366.354 344.804 366.134 346.12 365.908 347.477C365.688 348.904 365.469 350.33 365.242 351.8C364.74 354.813 364.237 357.826 363.734 360.838C362.965 365.593 362.203 370.35 361.444 375.106C360.706 379.695 359.941 384.278 359.174 388.862C358.958 390.277 358.741 391.692 358.518 393.149C356.828 403.212 353.859 411.01 345.486 417.441C344.65 418.086 343.813 418.731 342.951 419.395C342.095 420.033 341.239 420.67 340.357 421.326C339.496 421.998 338.634 422.67 337.746 423.363C331.327 428.235 331.327 428.235 326.261 428.235C324.86 420.735 324.902 415.027 326.541 407.592C326.746 406.631 326.952 405.67 327.164 404.68C327.61 402.603 328.063 400.527 328.524 398.453C329.786 392.762 330.985 387.056 332.195 381.353C332.448 380.166 332.701 378.979 332.962 377.756C335.616 365.273 338.008 352.744 340.357 340.201C340.568 339.081 340.779 337.96 340.996 336.806C343.35 324.289 345.673 311.766 347.99 299.241C348.783 294.95 349.578 290.658 350.373 286.367C351.382 280.919 352.386 275.471 353.386 270.022C355.922 256.264 358.624 242.559 361.552 228.879C362.904 222.536 364.174 216.193 365.283 209.801C365.507 208.518 365.73 207.235 365.96 205.912C366.393 203.378 366.812 200.842 367.22 198.304C369.411 185.965 374.435 178.932 384.514 171.322C385.685 170.428 386.856 169.535 388.062 168.614C393.821 166.009 397.623 166.128 403.932 166.84Z" fill="#E7E5E5"/>
<path d="M57.088 158.775C64.7362 160.16 71.9661 162.963 79.2438 165.627C80.9151 166.205 82.5864 166.784 84.3083 167.38C101.924 173.739 101.924 173.739 106.69 183.271C106.901 186.92 107.026 190.532 107.087 194.185C107.111 195.313 107.136 196.441 107.161 197.603C107.214 200.067 107.263 202.53 107.31 204.994C107.386 208.949 107.47 212.903 107.558 216.858C107.804 228.109 108.032 239.36 108.258 250.611C108.424 258.832 108.6 267.052 108.785 275.272C108.83 277.303 108.83 277.303 108.877 279.375C109.354 300.054 110.255 320.676 111.683 341.311C112.058 346.883 112.379 352.454 112.665 358.032C112.724 359.04 112.783 360.049 112.844 361.088C113.011 364.152 113.122 367.214 113.219 370.282C113.293 372.087 113.367 373.892 113.443 375.751C112.665 380.437 112.665 380.437 109.172 384.025C104.319 386.939 101.818 387.083 96.2344 386.412C91.9973 385.249 91.9973 385.249 87.6749 383.628C85.3225 382.749 85.3225 382.749 82.9226 381.852C81.3081 381.231 79.6936 380.61 78.0302 379.97C75.5824 379.065 75.5824 379.065 73.0853 378.141C58.1986 372.5 58.1986 372.5 54.3303 365.732C52.8614 362.384 52.4601 360.022 52.2849 356.391C52.2201 355.184 52.1554 353.977 52.0886 352.733C52.0319 351.421 51.9751 350.109 51.9166 348.758C51.8103 346.669 51.8103 346.669 51.7018 344.537C51.4701 339.92 51.2574 335.302 51.0447 330.684C50.8863 327.453 50.7267 324.221 50.5659 320.989C50.1446 312.454 49.7394 303.918 49.3375 295.382C48.9312 286.81 48.5097 278.239 48.0894 269.668C47.2621 252.74 46.4523 235.812 45.6506 218.882C45.4444 214.537 45.2372 210.191 45.0296 205.845C44.9618 204.427 44.8941 203.009 44.8244 201.548C44.6972 198.885 44.5699 196.221 44.4424 193.558C43.1521 166.519 43.1521 166.519 46.3186 161.898C50.1254 159.235 52.4554 158.492 57.088 158.775Z" fill="#F7F6F6"/>
<path d="M1435.82 199.357C1437.2 199.357 1438.57 199.358 1439.99 199.359C1442.87 199.363 1445.75 199.375 1448.64 199.394C1453.07 199.421 1457.51 199.424 1461.94 199.424C1464.75 199.431 1467.56 199.44 1470.36 199.45C1472.36 199.453 1472.36 199.453 1474.4 199.455C1483.69 199.528 1483.69 199.528 1485.36 201.195C1485.71 204.45 1485.71 204.45 1485.82 208.476C1485.91 210.458 1485.91 210.458 1485.99 212.479C1485.36 216.132 1485.36 216.132 1482.34 218.85C1481.37 219.432 1480.39 220.013 1479.38 220.613C1480.12 222.091 1480.12 222.091 1480.88 223.6C1482.85 248.209 1482.85 248.209 1475.81 257.144C1463.54 268.935 1449.29 270.384 1432.86 270.108C1427.38 269.846 1422.07 269.244 1416.65 268.41C1416.16 270.382 1415.66 272.354 1415.15 274.385C1416.84 274.747 1418.52 275.109 1420.25 275.482C1471.94 286.716 1471.94 286.716 1480.04 296.884C1484.74 305.732 1485.22 314.341 1482.37 323.863C1479.41 330.929 1474.18 335.202 1467.43 338.613C1457.55 341.807 1448.18 342.148 1437.84 342.161C1436.32 342.197 1434.8 342.234 1433.24 342.272C1420.5 342.32 1409.59 339.614 1398.72 332.825C1390.73 324.336 1390.51 315.82 1390.69 304.685C1391.22 300.099 1391.68 298.024 1394.43 294.456C1395.35 293.255 1396.28 292.053 1397.23 290.816C1396.38 286.761 1396.38 286.761 1394.24 283.347C1392.1 276.907 1392.07 270.667 1392.75 263.929C1394 261.896 1394 261.896 1395.27 259.822C1395.92 258.713 1396.56 257.604 1397.23 256.461C1396.21 254.526 1396.21 254.526 1395.16 252.552C1392.23 246.405 1391.94 241.701 1392 234.989C1392.01 233.862 1392.02 232.736 1392.03 231.574C1392.31 222.794 1393.73 216.462 1400.22 210.157C1410.78 200.472 1422 199.244 1435.82 199.357ZM1421.13 223.6C1417.46 229.561 1416.47 232.691 1417.4 239.657C1420.03 245.356 1421.51 246.385 1427.1 248.993C1432.19 249.754 1432.19 249.754 1437.56 249.646C1440.24 249.689 1440.24 249.689 1442.97 249.734C1448.89 248.864 1451.33 247.237 1455.48 243.018C1457.71 236.204 1456.87 231.58 1453.99 225.094C1451.03 221.365 1449.67 220.666 1445.03 219.119C1436.27 218.335 1428.4 218.105 1421.13 223.6ZM1419.64 296.79C1418.86 298.937 1418.1 301.089 1417.35 303.243C1416.92 304.441 1416.5 305.639 1416.06 306.873C1414.87 310.363 1414.87 310.363 1415.9 314.528C1418.77 318.594 1421.1 320.026 1425.61 322.183C1429.74 322.614 1433.45 322.811 1437.56 322.743C1438.6 322.76 1439.65 322.778 1440.72 322.796C1447.35 322.758 1451.8 321.929 1456.98 317.702C1458.22 313.221 1458.22 313.221 1456.98 308.74C1450.37 303.44 1442.17 302.131 1434.11 300.244C1432.71 299.908 1431.32 299.572 1429.89 299.226C1426.47 298.403 1423.06 297.591 1419.64 296.79Z" fill="white"/>
<path d="M1128.56 197.554C1129.57 197.54 1130.59 197.525 1131.64 197.51C1138.62 197.626 1143.22 199.361 1149.28 202.689C1153.66 202.352 1157.24 201.033 1161.42 199.655C1167.8 198.058 1173.45 197.712 1179.99 197.741C1181.08 197.717 1182.17 197.693 1183.29 197.668C1190.48 197.661 1195.32 198.782 1201.56 202.689C1209.45 210.753 1212.41 218.099 1212.35 229.309C1212.35 230.983 1212.35 232.657 1212.35 234.381C1212.34 236.165 1212.32 237.948 1212.31 239.786C1212.3 241.629 1212.3 243.473 1212.29 245.373C1212.28 251.248 1212.24 257.122 1212.2 262.996C1212.19 266.985 1212.17 270.974 1212.16 274.963C1212.13 284.728 1212.08 294.494 1212.02 304.259C1208.06 304.299 1204.11 304.329 1200.16 304.352C1199.03 304.365 1197.9 304.377 1196.74 304.39C1193.87 304.403 1190.99 304.337 1188.12 304.259C1185.68 301.818 1186.4 299.042 1186.36 295.674C1186.34 294.163 1186.32 292.653 1186.3 291.096C1186.28 288.63 1186.28 288.63 1186.26 286.113C1186.21 282.667 1186.16 279.22 1186.11 275.774C1186.04 270.313 1185.97 264.851 1185.91 259.39C1185.85 254.139 1185.77 248.888 1185.7 243.636C1185.68 241.998 1185.67 240.359 1185.66 238.671C1185.63 237.151 1185.61 235.631 1185.58 234.065C1185.56 232.057 1185.56 232.057 1185.54 230.008C1185.34 226.174 1185.34 226.174 1182.14 222.106C1178.47 221.503 1178.47 221.503 1174.3 221.733C1172.84 221.771 1171.37 221.81 1169.86 221.85C1165.41 222.125 1161.11 222.657 1156.75 223.6C1157.49 225.079 1157.49 225.079 1158.24 226.587C1158.39 229.02 1158.43 231.459 1158.44 233.896C1158.44 235.416 1158.45 236.936 1158.45 238.502C1158.45 240.148 1158.44 241.794 1158.44 243.491C1158.44 245.174 1158.44 246.857 1158.45 248.591C1158.45 252.153 1158.44 255.715 1158.44 259.277C1158.43 264.752 1158.44 270.226 1158.45 275.701C1158.45 279.154 1158.44 282.607 1158.44 286.06C1158.44 287.71 1158.45 289.359 1158.45 291.058C1158.44 293.331 1158.44 293.331 1158.44 295.65C1158.44 296.991 1158.43 298.332 1158.43 299.714C1158.24 302.765 1158.24 302.765 1156.75 304.259C1152.72 304.368 1148.73 304.397 1144.71 304.352C1143.57 304.346 1142.44 304.339 1141.27 304.332C1138.47 304.314 1135.66 304.287 1132.85 304.259C1132.81 302.301 1132.78 300.343 1132.74 298.326C1132.6 291.004 1132.45 283.683 1132.29 276.362C1132.23 273.204 1132.17 270.046 1132.11 266.888C1132.02 262.327 1131.93 257.766 1131.83 253.205C1131.8 251.812 1131.78 250.419 1131.75 248.984C1131.55 239.962 1130.89 231.071 1129.86 222.106C1127.31 222.025 1124.76 221.967 1122.21 221.92C1120.79 221.885 1119.37 221.85 1117.9 221.815C1113 222.135 1109.09 223.471 1104.47 225.094C1104.47 226.064 1104.48 227.033 1104.48 228.032C1104.51 238.087 1104.54 248.142 1104.55 258.197C1104.56 261.954 1104.57 265.711 1104.58 269.468C1104.6 274.855 1104.61 280.242 1104.62 285.629C1104.62 287.32 1104.63 289.011 1104.64 290.754C1104.64 293.086 1104.64 293.086 1104.64 295.466C1104.64 296.842 1104.65 298.219 1104.65 299.637C1104.47 302.765 1104.47 302.765 1102.98 304.259C1095.09 304.259 1087.2 304.259 1079.08 304.259C1079.08 269.755 1079.08 235.251 1079.08 199.701C1086.96 199.701 1094.85 199.701 1102.98 199.701C1103.47 201.18 1103.96 202.659 1104.47 204.182C1105.95 203.196 1107.43 202.211 1108.95 201.195C1115.36 197.97 1121.5 197.586 1128.56 197.554Z" fill="white"/>
<path d="M577.199 166.84C585.579 166.84 593.958 166.84 602.592 166.84C605.664 169.912 604.47 176.333 604.558 180.569C604.589 181.793 604.62 183.018 604.652 184.28C604.75 188.206 604.838 192.133 604.926 196.06C604.99 198.716 605.055 201.371 605.121 204.027C605.281 210.551 605.433 217.075 605.579 223.6C606.51 222.284 607.441 220.968 608.4 219.613C616.47 208.241 624.705 197.028 633.212 185.977C635.283 183.281 637.352 180.583 639.42 177.885C640.311 176.727 641.201 175.57 642.119 174.377C643.962 171.924 645.7 169.393 647.402 166.84C650.484 166.331 650.484 166.331 654.229 166.402C655.567 166.417 656.905 166.431 658.284 166.446C660.384 166.502 660.384 166.502 662.526 166.56C663.937 166.58 665.348 166.6 666.803 166.621C670.295 166.674 673.785 166.748 677.276 166.84C676.549 173.781 673.434 178.015 669.154 183.27C667.786 184.997 666.419 186.724 665.052 188.451C664.352 189.327 663.651 190.204 662.929 191.106C659.692 195.176 656.537 199.306 653.377 203.435C652.152 205.028 650.927 206.621 649.701 208.214C649.087 209.011 648.474 209.809 647.841 210.631C639.407 221.596 639.407 221.596 630.972 232.562C637.12 242.712 643.782 252.38 650.763 261.969C657.334 271.009 663.878 280.063 670.274 289.228C670.982 290.226 671.69 291.224 672.42 292.252C677.276 299.258 677.276 299.258 677.276 304.258C666.383 306.14 655.151 307.484 644.415 304.258C634.439 297.215 628.832 285.53 622.943 275.132C621.233 272.318 619.512 269.512 617.78 266.712C613.585 259.88 609.531 252.979 605.579 246.005C605.542 247.716 605.504 249.428 605.466 251.191C605.325 257.519 605.176 263.846 605.023 270.173C604.958 272.916 604.896 275.659 604.836 278.402C604.75 282.335 604.655 286.269 604.558 290.203C604.521 292.053 604.521 292.053 604.482 293.942C604.256 302.595 604.256 302.595 602.592 304.258C594.212 304.258 585.833 304.258 577.199 304.258C577.199 258.91 577.199 213.562 577.199 166.84Z" fill="white"/>
<path d="M741.413 164.693C742.959 164.648 742.959 164.648 744.537 164.603C752.257 164.61 756.699 166.172 762.418 171.321C769.45 182.871 772.148 196.044 775.511 209.007C776.171 211.518 776.832 214.028 777.494 216.538C778.873 221.777 780.243 227.019 781.606 232.263C783.352 238.977 785.118 245.686 786.89 252.393C788.256 257.567 789.612 262.743 790.965 267.92C791.613 270.395 792.263 272.869 792.916 275.343C793.826 278.797 794.724 282.254 795.618 285.711C795.888 286.727 796.158 287.743 796.436 288.79C797.84 294.274 798.266 298.483 798.266 304.259C789.393 304.259 780.521 304.259 771.38 304.259C766.96 291.842 762.418 278.694 762.418 265.423C748.616 265.423 734.814 265.423 720.594 265.423C720.102 269.366 719.609 273.31 719.101 277.373C718.572 279.737 717.989 282.092 717.321 284.421C716.872 286.014 716.872 286.014 716.414 287.639C715.849 289.581 715.849 289.581 715.273 291.563C714.072 295.752 712.87 299.942 711.632 304.259C702.76 304.259 693.887 304.259 684.746 304.259C685.673 291.156 689.049 278.735 692.331 266.071C692.948 263.674 693.564 261.277 694.18 258.88C695.469 253.876 696.766 248.873 698.067 243.872C699.727 237.49 701.358 231.103 702.983 224.713C704.245 219.766 705.526 214.825 706.812 209.885C707.422 207.533 708.024 205.179 708.62 202.823C715.579 175.371 715.579 175.371 725.548 166.881C730.859 164.848 735.806 164.636 741.413 164.693ZM740.012 187.752C736.13 201.355 732.352 214.967 729.09 228.735C728.834 229.802 728.579 230.87 728.315 231.97C727.316 236.261 726.569 240.089 726.569 244.512C736.427 244.512 746.286 244.512 756.443 244.512C754.353 232.408 751.778 220.504 748.881 208.57C748.48 206.888 748.078 205.206 747.665 203.473C745.923 195.406 745.923 195.406 743 187.752C742.014 187.752 741.028 187.752 740.012 187.752Z" fill="#B11219"/>
<path d="M927.283 165.16C929.037 165.297 930.791 165.434 932.598 165.575C945.496 166.626 945.496 166.626 950.621 168.334C950.621 175.235 950.621 182.136 950.621 189.246C947.4 189.194 944.179 189.142 940.86 189.088C937.711 189.053 934.562 189.026 931.412 189C929.238 188.977 927.064 188.947 924.889 188.908C921.748 188.853 918.609 188.828 915.467 188.808C913.582 188.785 911.697 188.761 909.755 188.737C903.352 189.336 899.54 190.751 893.861 193.727C881.339 209.633 883.689 235.154 885.366 254.332C886.613 263.206 888.272 270.274 893.861 277.373C900.971 282.164 906.648 282.037 915.158 281.953C917.986 281.932 917.986 281.932 920.871 281.91C923.028 281.882 923.028 281.882 925.229 281.854C925.221 280.369 925.213 278.883 925.205 277.353C925.178 271.861 925.161 266.369 925.147 260.877C925.139 258.496 925.129 256.115 925.116 253.735C925.098 250.32 925.09 246.906 925.083 243.491C925.075 242.421 925.067 241.35 925.06 240.247C925.059 237.685 925.136 235.123 925.229 232.563C927.851 229.94 931.257 230.871 934.745 230.865C935.795 230.871 936.844 230.876 937.925 230.882C938.974 230.876 940.024 230.871 941.105 230.865C948.939 230.88 948.939 230.88 950.621 232.563C950.76 234.764 950.797 236.971 950.791 239.177C950.791 240.582 950.791 241.987 950.791 243.435C950.783 244.963 950.775 246.491 950.767 248.065C950.765 249.622 950.763 251.178 950.761 252.781C950.752 257.773 950.734 262.765 950.715 267.758C950.707 271.133 950.7 274.508 950.694 277.884C950.678 286.178 950.653 294.472 950.621 302.766C938.89 305.636 927.883 306.401 915.8 306.5C913.945 306.562 912.09 306.623 910.178 306.687C895.335 306.811 883.593 303.464 872.251 293.578C857.347 278.643 856.219 259.193 856.161 239.201C856.146 236.248 856.1 233.295 856.053 230.343C855.972 210.162 858.495 193.03 872.11 177.67C888.848 162.973 906.185 163.341 927.283 165.16Z" fill="white"/>
<path d="M1010.93 197.834C1012.57 197.803 1014.21 197.772 1015.9 197.74C1027.51 197.685 1035.81 199.052 1045.84 205.209C1054.55 214.153 1055.86 222.689 1055.86 234.719C1055.82 236.487 1055.79 238.255 1055.76 240.077C1055.75 241.917 1055.75 243.756 1055.74 245.652C1055.7 251.496 1055.63 257.339 1055.55 263.182C1055.52 267.158 1055.49 271.133 1055.47 275.108C1055.4 284.826 1055.3 294.542 1055.18 304.259C1051.51 304.339 1047.84 304.398 1044.16 304.445C1043.12 304.47 1042.08 304.495 1041 304.521C1038.26 304.548 1035.51 304.412 1032.77 304.259C1031.29 302.78 1031.29 302.78 1029.79 301.271C1028.34 302.011 1026.89 302.75 1025.4 303.512C1014.38 307.611 999.424 308.23 988.301 304.282C981.204 300.007 977.136 295.322 974.24 287.548C971.781 276.013 972.285 265.703 977.507 254.967C983.864 247.064 991.437 242.975 1001.41 241.524C1006.29 241.35 1011.17 241.383 1016.06 241.431C1017.38 241.437 1018.7 241.444 1020.06 241.451C1023.3 241.469 1026.54 241.495 1029.79 241.524C1029.62 239.127 1029.42 236.731 1029.23 234.336C1029.07 232.334 1029.07 232.334 1028.91 230.292C1028.49 226.223 1028.49 226.223 1025.3 222.106C1020.38 220.464 1016.8 220.465 1011.62 220.519C1009.82 220.531 1008.02 220.542 1006.17 220.554C1003.35 220.583 1003.35 220.583 1000.47 220.612C996.75 220.65 993.027 220.682 989.305 220.706C987.652 220.723 985.998 220.74 984.295 220.758C980.494 220.612 980.494 220.612 979.001 219.119C978.775 216.418 978.67 213.707 978.627 210.997C978.589 209.52 978.55 208.043 978.511 206.522C978.672 205.257 978.834 203.992 979.001 202.688C988.313 196.48 1000.1 197.884 1010.93 197.834ZM1001.8 262.774C999.157 266.485 999.316 269.219 999.352 273.731C999.341 275.181 999.329 276.631 999.317 278.125C999.514 279.355 999.71 280.586 999.912 281.853C1004.84 285.138 1006.58 285.284 1012.33 285.307C1013.71 285.333 1015.09 285.358 1016.51 285.383C1021.83 284.956 1021.83 284.956 1029.79 280.36C1029.79 272.966 1029.79 265.572 1029.79 257.954C1020.56 257.619 1009.66 257.228 1001.8 262.774Z" fill="white"/>
<path d="M1337.77 197.554C1338.92 197.54 1340.07 197.525 1341.26 197.51C1348.54 197.617 1353.59 198.716 1359.89 202.689C1372.36 215.726 1372.07 229.479 1372.04 246.554C1372.04 248.16 1372.04 249.766 1372.04 251.421C1372.04 254.798 1372.04 258.175 1372.04 261.552C1372.03 266.744 1372.04 271.936 1372.04 277.128C1372.04 280.411 1372.04 283.694 1372.04 286.977C1372.04 288.537 1372.04 290.097 1372.05 291.705C1372.04 293.852 1372.04 293.852 1372.03 296.043C1372.03 297.308 1372.03 298.574 1372.03 299.877C1371.84 302.765 1371.84 302.765 1370.35 304.259C1366.32 304.368 1362.33 304.397 1358.3 304.352C1357.17 304.346 1356.04 304.339 1354.87 304.332C1352.06 304.314 1349.26 304.287 1346.45 304.259C1346.4 301.39 1346.4 301.39 1346.36 298.463C1346.24 291.308 1346.11 284.154 1345.97 277C1345.92 273.914 1345.86 270.829 1345.82 267.743C1345.75 263.286 1345.66 258.829 1345.57 254.372C1345.56 253.012 1345.54 251.651 1345.52 250.25C1345.32 241.251 1344.69 232.234 1341.97 223.6C1337.5 219.942 1333.4 220.502 1327.87 220.893C1321.88 221.526 1317.43 223.851 1312.09 226.587C1312.08 227.538 1312.06 228.49 1312.05 229.469C1311.89 239.33 1311.71 249.191 1311.54 259.052C1311.47 262.737 1311.41 266.421 1311.35 270.106C1311.26 275.389 1311.17 280.672 1311.07 285.955C1311.05 287.614 1311.02 289.273 1311 290.981C1310.97 292.507 1310.94 294.032 1310.91 295.603C1310.88 296.953 1310.86 298.303 1310.84 299.694C1310.6 302.765 1310.6 302.765 1309.11 304.259C1301.22 304.259 1293.33 304.259 1285.21 304.259C1285.21 269.755 1285.21 235.251 1285.21 199.701C1293.09 199.701 1300.98 199.701 1309.11 199.701C1309.6 201.18 1310.09 202.659 1310.6 204.182C1312.26 203.196 1313.93 202.211 1315.64 201.195C1323.01 197.891 1329.82 197.586 1337.77 197.554Z" fill="white"/>
<path d="M1235.91 199.701C1243.8 199.701 1251.69 199.701 1259.81 199.701C1259.81 234.205 1259.81 268.71 1259.81 304.259C1251.93 304.259 1244.04 304.259 1235.91 304.259C1233.15 301.499 1234.23 296.988 1234.23 293.296C1234.22 291.813 1234.22 291.813 1234.22 290.3C1234.21 287.018 1234.22 283.736 1234.22 280.454C1234.22 278.182 1234.22 275.911 1234.22 273.639C1234.22 268.872 1234.22 264.106 1234.23 259.339C1234.23 253.216 1234.23 247.093 1234.22 240.97C1234.22 236.277 1234.22 231.585 1234.22 226.893C1234.22 224.635 1234.22 222.376 1234.22 220.118C1234.21 216.967 1234.22 213.816 1234.23 210.665C1234.23 208.868 1234.23 207.072 1234.23 205.221C1234.42 201.195 1234.42 201.195 1235.91 199.701Z" fill="white"/>
<path d="M155.253 66.1917C157.476 68.2572 157.476 68.2572 159.623 72.6449C158.904 77.6724 158.297 78.5859 154.768 81.9804C143.065 90.5519 129.837 91.4147 115.746 91.3159C114.241 91.3458 112.736 91.3756 111.186 91.4064C99.2457 91.3987 87.2847 89.695 77.8615 81.8138C75.323 78.713 75.323 78.713 75.043 73.5785C77.4048 66.4931 80.8177 64.1826 87.2725 60.7888C107.921 52.1851 136.574 53.2752 155.253 66.1917Z" fill="#F8F6F5"/>
<path d="M273.309 66.1916C275.479 68.2571 275.479 68.2571 277.626 72.6448C276.748 78.7911 274.182 80.6503 269.358 84.3083C254.3 94.234 228.755 93.0047 211.682 89.5362C207.811 88.184 204.366 86.6914 200.795 84.6876C199.193 83.7942 197.591 82.9008 195.94 81.9803C193.327 78.7129 193.327 78.7129 192.953 73.5783C195.386 66.6459 198.888 63.8975 205.276 60.7887C225.771 52.2975 254.83 53.2259 273.309 66.1916Z" fill="#F8F6F6"/>
<path d="M350.999 57.4284C352.564 57.3976 354.128 57.3668 355.74 57.335C367.883 57.2747 379.89 58.3766 389.928 65.8303C393.476 69.7513 393.476 69.7513 394.596 73.4855C392.924 79.0594 389.231 81.6682 384.514 84.6881C377.125 88.5194 370.35 90.2337 362.109 90.6628C359.414 90.8072 359.414 90.8072 356.665 90.9545C341.608 91.4954 328.603 89.9067 315.524 81.7007C311.197 76.9252 311.197 76.9252 311.323 72.7386C319.64 58.2745 336.132 57.4997 350.999 57.4284Z" fill="#F8F6F6"/>
<path d="M175.775 198.768C181.377 199.701 181.377 199.701 184.364 202.688C182.793 204.121 182.793 204.121 181.19 205.583C176.839 209.922 173.73 214.809 170.407 219.953C167.859 223.71 165.115 227.185 162.239 230.695C152.704 242.463 143.659 254.314 137.99 268.434C135.946 272.689 133.063 275.851 129.885 279.304C126.246 283.371 123.245 287.829 120.136 292.309C116.49 288.664 116.024 285.706 115.512 280.658C115.939 270.842 123.839 262.022 129.658 254.594C137.804 243.977 145.536 233.114 153.151 222.111C154.786 219.752 156.429 217.397 158.079 215.049C159.687 212.758 161.278 210.456 162.852 208.142C163.616 207.055 164.38 205.967 165.168 204.847C165.837 203.877 166.506 202.907 167.195 201.907C170.071 199.065 171.779 198.874 175.775 198.768Z" fill="#D6D5D6"/>
<path d="M55.9047 154.891C62.2182 156.489 68.3326 158.544 74.4824 160.679C76.1258 161.224 77.7691 161.769 79.4623 162.33C91.5514 166.437 91.5514 166.437 93.2468 169.828C83.2206 169.226 74.873 166.144 65.5611 162.447C59.9681 160.738 55.7419 160.259 49.93 160.866C47.2735 162.601 47.2735 162.601 45.4489 165.347C44.8385 168.603 44.8385 168.603 45.07 172.418C45.1111 174.028 45.1522 175.638 45.1944 177.296C45.2764 179.288 45.3616 181.279 45.4489 183.271C45.4957 184.445 45.5425 185.618 45.5906 186.828C46.009 197.223 46.5172 207.614 47.0301 218.005C47.1944 221.394 47.3582 224.783 47.5217 228.172C47.952 237.068 48.3874 245.963 48.8239 254.858C49.1763 262.055 49.5249 269.252 49.8734 276.449C51.3349 306.633 52.7967 336.817 54.411 366.994C48.2381 361.358 48.1755 356.066 47.7485 347.965C47.693 346.943 47.6375 345.922 47.5803 344.87C47.3967 341.466 47.2222 338.062 47.0476 334.658C46.9194 332.243 46.7907 329.828 46.6615 327.414C46.3893 322.305 46.1211 317.196 45.8561 312.087C45.4604 304.461 45.0549 296.835 44.6481 289.21C44.0429 277.836 43.4503 266.461 42.8669 255.085C42.5363 248.639 42.2028 242.194 41.8628 235.748C41.5239 229.323 41.1919 222.898 40.8646 216.473C40.7419 214.085 40.617 211.698 40.4894 209.311C39.817 196.692 39.312 184.071 39.119 171.436C39.086 170.293 39.053 169.151 39.0189 167.974C38.9592 160.155 38.9592 160.155 41.4186 156.418C46.0528 153.629 50.7582 154.165 55.9047 154.891Z" fill="#E30617"/>
<path d="M351 57.4284C352.565 57.3976 354.129 57.3668 355.741 57.335C367.883 57.2747 379.89 58.3766 389.929 65.8303C393.477 69.7513 393.477 69.7513 394.037 73.9522C393.76 75.5696 393.76 75.5696 393.477 77.2197C392.042 76.2513 390.608 75.2829 389.13 74.2852C382.437 70.4809 376.486 70.3543 368.918 70.3989C367.595 70.3897 366.272 70.3804 364.909 70.3709C362.126 70.3603 359.342 70.3649 356.56 70.384C352.313 70.4047 348.072 70.3537 343.826 70.2968C341.112 70.2954 338.398 70.2982 335.684 70.3056C334.424 70.2858 333.163 70.266 331.864 70.2455C322.974 70.3852 319.061 72.3603 312.818 78.7134C311.698 76.1928 311.698 76.1928 311.324 72.7386C319.641 58.2745 336.132 57.4997 351 57.4284Z" fill="#CDC8C8"/>
<path d="M273.347 65.9061C276.454 69.3364 276.505 72.7207 276.97 77.2196C275.836 76.59 274.702 75.9604 273.534 75.3117C272.049 74.4934 270.565 73.675 269.035 72.8319C267.562 72.0175 266.089 71.203 264.572 70.3639C255.289 65.5142 246.061 66.3755 235.801 66.2971C233.951 66.2538 232.102 66.2104 230.197 66.1658C217.054 66.0753 205.644 67.2999 195.378 76.0994C194.7 76.962 194.023 77.8246 193.324 78.7133C193.418 73.9522 193.418 73.9522 194.818 68.2575C214.59 49.3454 251.388 52.9489 273.347 65.9061Z" fill="#CDC7C7"/>
<path d="M155.295 65.9058C158.469 69.3265 158.508 72.685 158.97 77.2193C157.836 76.5897 156.702 75.96 155.534 75.3113C154.049 74.493 152.565 73.6747 151.035 72.8316C149.562 72.0171 148.089 71.2027 146.572 70.3635C137.289 65.5139 128.061 66.3751 117.801 66.2967C115.951 66.2534 114.102 66.2101 112.197 66.1654C99.0536 66.075 87.644 67.2996 77.378 76.099C76.7003 76.9616 76.0225 77.8242 75.3242 78.713C75.5017 69.6606 75.5017 69.6606 78.9301 66.005C100.303 50.2811 133.273 53.0976 155.295 65.9058Z" fill="#CDC7C8"/>
<path d="M387.502 219.119C391.789 226.703 392.416 235.083 393.757 243.578C394.041 245.257 394.325 246.936 394.617 248.666C394.878 250.295 395.139 251.924 395.408 253.602C395.647 255.081 395.886 256.561 396.132 258.085C396.496 262.861 396.118 266.751 394.97 271.398C391.662 274.56 391.662 274.56 387.595 277.186C386.257 278.075 384.919 278.965 383.54 279.881C380.033 281.854 380.033 281.854 377.046 281.854C376.902 274.883 377.339 268.453 378.575 261.595C378.898 259.789 379.222 257.983 379.555 256.123C380.069 253.333 380.069 253.333 380.593 250.486C381.09 247.696 381.09 247.696 381.597 244.85C383.178 236.126 384.81 227.571 387.502 219.119Z" fill="#890D0E"/>
<path d="M1234.42 162.359C1238.62 162.319 1242.82 162.29 1247.02 162.266C1248.22 162.254 1249.42 162.241 1250.65 162.228C1253.71 162.215 1256.76 162.281 1259.81 162.359C1261.3 163.853 1261.3 163.853 1261.5 168.521C1261.5 170.431 1261.5 172.341 1261.49 174.309C1261.5 177.174 1261.5 177.174 1261.5 180.097C1261.3 184.765 1261.3 184.765 1259.81 186.258C1255.81 186.407 1251.86 186.466 1247.86 186.445C1246.18 186.454 1246.18 186.454 1244.47 186.463C1236.1 186.447 1236.1 186.447 1234.42 184.765C1234.31 180.985 1234.28 177.247 1234.32 173.469C1234.33 172.407 1234.34 171.345 1234.35 170.251C1234.36 167.62 1234.39 164.99 1234.42 162.359Z" fill="white"/>
<path d="M52.9157 159.372C52.4228 206.692 51.9299 254.012 51.422 302.765C50.9291 302.765 50.4362 302.765 49.9284 302.765C49.144 287.495 48.3646 272.224 47.5913 256.954C47.2321 249.861 46.8711 242.769 46.5063 235.677C46.1537 228.82 45.8055 221.963 45.4604 215.106C45.3285 212.502 45.1952 209.899 45.0601 207.296C44.6977 200.298 44.3617 193.301 44.0811 186.299C43.9614 183.454 43.8133 180.61 43.6634 177.767C43.609 176.173 43.5546 174.58 43.4985 172.939C43.4122 170.925 43.4122 170.925 43.3242 168.87C44.2572 163.647 47.308 159.372 52.9157 159.372Z" fill="#C8BBBD"/>
<path d="M181.373 195.22C185.284 196.091 188.934 197.025 192.733 198.225C193.759 198.539 194.786 198.853 195.843 199.176C197.993 199.839 200.141 200.511 202.285 201.192C205.551 202.221 208.827 203.207 212.107 204.191C214.207 204.845 216.307 205.501 218.406 206.16C219.86 206.592 219.86 206.592 221.343 207.033C228.083 209.225 231.991 212.335 236.639 217.625C236.146 218.611 235.653 219.597 235.145 220.613C234.41 220.264 233.675 219.915 232.917 219.555C222.663 214.832 212.137 211.14 201.444 207.543C199.681 206.929 197.919 206.315 196.103 205.682C182.994 200.953 182.994 200.953 169.423 201.195C165.769 204.362 163.444 208.113 160.928 212.211C159.39 214.548 157.85 216.884 156.307 219.218C155.521 220.433 154.736 221.649 153.926 222.901C149.975 228.902 145.743 234.693 141.51 240.497C140.703 241.614 139.895 242.73 139.063 243.88C132.364 253.135 125.545 262.296 118.638 271.398C118.145 270.412 117.652 269.426 117.145 268.411C123.035 259.444 129.125 250.661 135.442 241.991C137.148 239.64 138.854 237.289 140.559 234.937C141.396 233.783 142.233 232.63 143.095 231.441C146.001 227.421 148.885 223.386 151.758 219.343C153 217.6 154.247 215.861 155.5 214.126C158.084 210.546 160.594 206.959 162.953 203.225C164.03 201.573 164.03 201.573 165.129 199.888C165.687 198.968 166.246 198.047 166.821 197.099C171.153 193.971 176.247 194.829 181.373 195.22Z" fill="#E30C1D"/>
<path d="M172.187 199.556C175.25 199.604 178.314 199.653 181.377 199.702C181.377 200.194 181.377 200.687 181.377 201.195C178.912 201.195 176.448 201.195 173.908 201.195C173.6 202.428 173.292 203.66 172.975 204.929C170.775 210.529 168.005 214.314 164.316 218.997C162.023 222.022 160.071 225.102 158.131 228.362C155.012 233.486 151.39 237.386 147.022 241.525C144.573 244.539 142.538 247.505 140.581 250.86C131.449 265.742 131.449 265.742 126.111 268.411C125.464 270.213 125.464 270.213 124.804 272.052C122.799 276.619 121.45 276.785 117.148 278.867C115.946 281.929 115.946 281.929 115.655 284.841C115.422 272.967 121.636 265.495 128.455 256.349C131.539 252.199 134.552 247.998 137.573 243.802C140.033 240.387 142.503 236.979 144.974 233.572C150.862 225.43 156.649 217.217 162.416 208.989C168.919 199.728 168.919 199.728 172.187 199.556Z" fill="#B9B5B6"/>
<path d="M173.905 201.195C177.355 201.195 180.805 201.195 184.36 201.195C183.313 202.396 182.265 203.598 181.186 204.836C178.064 208.571 175.339 212.421 172.691 216.505C169.446 221.472 165.992 226.103 162.235 230.695C153.926 240.91 145.059 251.925 139.55 263.929C138.564 263.929 137.578 263.929 136.562 263.929C138.455 255.938 142.6 250.395 147.333 243.87C149.71 240.455 151.71 237.077 153.646 233.402C157.335 226.49 161.894 220.379 166.635 214.154C169.535 209.997 171.746 205.774 173.905 201.195Z" fill="#D3D2D2"/>
<path d="M406.921 162.359C411.781 167.219 412.111 173.615 412.896 180.283C412.734 183.957 412.187 187.129 411.402 190.739C410.909 190.739 410.416 190.739 409.908 190.739C409.727 189.497 409.546 188.255 409.36 186.975C409.11 185.352 408.859 183.729 408.601 182.057C408.238 179.639 408.238 179.639 407.866 177.173C407.143 172.556 407.143 172.556 403.934 168.334C395.88 167.062 391.683 168.02 384.889 172.535C382.751 174.092 380.634 175.679 378.541 177.296C376.55 178.789 374.558 180.283 372.566 181.777C374.549 173.352 380.571 169.737 387.503 165.346C394.184 161.483 399.32 160.061 406.921 162.359Z" fill="#C22334"/>
<path d="M381.529 68.2575C381.529 68.7504 381.529 69.2433 381.529 69.7512C362.799 69.7512 344.068 69.7512 324.77 69.7512C335.944 58.5768 368.392 63.3106 381.529 68.2575Z" fill="#DFDFE0"/>
<path d="M234.96 64.9901C236.853 64.9718 238.746 64.9535 240.696 64.9347C242.527 64.9318 244.358 64.9289 246.245 64.9259C247.912 64.9198 249.579 64.9136 251.297 64.9073C256.301 65.2886 260.346 66.4781 265.021 68.2575C265.021 68.7504 265.021 69.2434 265.021 69.7512C245.304 69.7512 225.588 69.7512 205.273 69.7512C212.599 62.426 225.346 64.995 234.96 64.9901Z" fill="#E1E1E1"/>
<path d="M116.96 64.9901C118.853 64.9718 120.746 64.9535 122.696 64.9347C124.527 64.9318 126.358 64.9289 128.245 64.9259C129.912 64.9198 131.579 64.9136 133.297 64.9073C138.301 65.2886 142.346 66.4781 147.021 68.2575C147.021 68.7504 147.021 69.2434 147.021 69.7512C127.304 69.7512 107.588 69.7512 87.2734 69.7512C94.5987 62.426 107.346 64.995 116.96 64.9901Z" fill="#E1E1E1"/>
<path d="M173.905 210.157C174.89 210.65 175.876 211.143 176.892 211.651C175.367 213.611 173.842 215.572 172.318 217.532C171.357 218.77 170.396 220.008 169.406 221.284C167.577 223.63 165.739 225.969 163.886 228.297C150.286 245.213 150.286 245.213 139.55 263.93C138.564 263.93 137.578 263.93 136.562 263.93C139.601 251.1 148.973 240.967 157.608 231.407C163.421 224.631 168.62 217.347 173.905 210.157Z" fill="#D9D9D9"/>
<path d="M139.553 241.524C140.046 242.51 140.539 243.496 141.047 244.512C140.452 245.253 139.857 245.994 139.244 246.758C134.198 253.229 130.6 259.212 127.604 266.917C124.802 273.373 123.434 275.933 117.148 278.866C115.945 281.929 115.945 281.929 115.655 284.841C115.401 271.889 123.159 263.347 130.591 253.474C131.542 252.186 132.494 250.898 133.474 249.57C135.478 246.87 137.501 244.188 139.553 241.524Z" fill="#AAA0A2"/>
<path d="M151.5 234.056C151.992 235.535 152.485 237.013 152.993 238.537C149.528 243.542 145.418 247.762 141.044 251.98C141.528 243.987 146.267 239.608 151.5 234.056ZM139.55 251.98C140.043 252.966 140.536 253.952 141.044 254.967C139.048 260.754 134.942 264.264 130.588 268.411C129.448 269.55 128.308 270.69 127.134 271.865C125.886 273.112 125.886 273.112 124.613 274.385C125.24 267.075 128.326 264.331 133.575 259.448C135.6 256.986 137.603 254.504 139.55 251.98Z" fill="#C8C8C8"/>
<path d="M176.052 198.86C177.808 199.138 179.564 199.415 181.373 199.7C181.373 200.193 181.373 200.686 181.373 201.194C178.908 201.194 176.444 201.194 173.905 201.194C173.504 202.064 173.104 202.935 172.691 203.831C170.895 207.21 168.918 209.866 166.436 212.77C165.666 213.687 164.896 214.603 164.102 215.547C161.955 217.625 161.955 217.625 158.968 217.625C158.968 218.61 158.968 219.596 158.968 220.612C157.982 220.612 156.996 220.612 155.98 220.612C159.397 211.274 164.72 198.78 176.052 198.86Z" fill="#B8A3A5"/>
<path d="M61.8804 157.878C72.712 160.597 82.9769 163.945 93.2477 168.334C93.2477 168.827 93.2477 169.32 93.2477 169.828C81.5374 169.125 71.2597 165.004 60.3867 160.866C60.8796 159.88 61.3725 158.894 61.8804 157.878Z" fill="#E71B2B"/>
<path d="M408.415 165.346C410.986 169.888 411.991 173.702 412.522 178.883C412.669 180.163 412.815 181.444 412.966 182.763C412.896 186.258 412.896 186.258 409.908 190.739C409.637 188.902 409.637 188.902 409.36 187.028C409.11 185.418 408.859 183.809 408.601 182.15C408.359 180.556 408.116 178.962 407.866 177.319C407.022 173.297 405.974 170.372 403.934 166.84C405.412 166.347 406.891 165.854 408.415 165.346Z" fill="#B6303F"/>
<path d="M436.795 317.702C437.288 317.702 437.781 317.702 438.288 317.702C440.264 325.112 439.915 332.506 439.782 340.107C435.957 336.282 436.194 334.219 435.768 328.905C435.639 327.441 435.51 325.978 435.377 324.47C435.301 320.69 435.301 320.69 436.795 317.702Z" fill="#BB3443"/>
<path d="M144.031 235.549C144.524 235.549 145.017 235.549 145.525 235.549C146.085 238.63 146.085 238.63 145.525 243.018C142.848 246.805 139.785 250.145 136.562 253.473C136.562 248.743 137.328 246.937 139.457 242.831C139.994 241.78 140.531 240.728 141.084 239.645C142.537 237.043 142.537 237.043 144.031 235.549Z" fill="#B0AAAC"/>
<path d="M123.121 263.929C123.614 264.915 124.107 265.901 124.614 266.917C123.558 269.612 123.558 269.612 121.907 272.705C121.374 273.718 120.84 274.73 120.291 275.774C119.746 276.794 119.201 277.815 118.64 278.866C117.638 280.855 116.641 282.846 115.652 284.841C116.27 275.889 117.623 271.024 123.121 263.929Z" fill="#AB9496"/>
<path d="M135.069 256.461C135.562 257.94 136.055 259.419 136.563 260.942C134.421 264.321 134.421 264.321 131.428 267.944C130.444 269.151 129.46 270.358 128.447 271.602C127.675 272.521 126.902 273.439 126.107 274.385C125.144 271.637 125.144 271.637 124.613 268.411C128.067 264.583 128.067 264.583 132.082 260.942C133.068 259.463 134.053 257.985 135.069 256.461Z" fill="#C1C1C2"/>
<path d="M123.122 274.385C123.122 280.161 121.002 284.107 118.641 289.322C118.148 289.322 117.655 289.322 117.147 289.322C116.774 284.374 116.774 284.374 117.147 278.866C120.135 275.972 120.135 275.972 123.122 274.385Z" fill="#C2C0C0"/>
<path d="M399.451 162.359C401.915 162.359 404.38 162.359 406.919 162.359C407.412 164.331 407.905 166.302 408.413 168.334C404.962 167.348 401.512 166.362 397.957 165.346C398.45 164.361 398.943 163.375 399.451 162.359Z" fill="#C4061C"/>
</svg>
