<svg width="120" height="140" viewBox="0 0 452 534" fill="none" xmlns="http://www.w3.org/2000/svg">
<mask id="path-1-outside-1_2_3406" maskUnits="userSpaceOnUse" x="0" y="0" width="452" height="534" fill="black">
<rect fill="white" width="452" height="534"/>
<path d="M67.8633 523.003H72.1646V524.035C72.1646 525.282 72.5087 526.056 73.1969 526.356C73.7991 526.657 75.1325 526.786 77.2401 526.786C78.9607 526.786 80.036 526.657 80.5521 526.356C81.3263 525.927 81.6705 524.981 81.6705 523.476C81.6705 522.573 81.4984 521.885 81.1973 521.412C80.8962 520.982 80.2941 520.724 79.4338 520.638C78.8316 520.595 77.8853 520.553 76.5949 520.51C74.3153 520.381 72.8528 520.252 72.2076 520.123C70.5731 519.822 69.4548 519.091 68.8096 517.973C68.2505 517.027 67.9494 515.651 67.9494 513.846C67.9494 511.051 68.8096 509.203 70.5732 508.343C71.7345 507.784 73.9712 507.483 77.2401 507.483C80.122 507.483 82.0576 507.741 83.1329 508.3C84.7674 509.16 85.5846 510.879 85.5846 513.545V514.276H81.2833V513.545C81.2833 512.427 80.9823 511.696 80.4231 511.395C79.9499 511.137 78.9176 511.051 77.2832 511.051C75.4336 511.051 74.3153 511.137 73.8851 511.266C72.8528 511.61 72.3367 512.513 72.3367 513.889C72.3367 515.221 72.6378 516.038 73.1969 516.382C73.7131 516.683 75.0465 516.855 77.2832 517.027C81.0253 517.242 83.348 517.672 84.2942 518.274C85.4986 519.048 86.1008 520.81 86.1008 523.519C86.1008 526.442 85.3696 528.377 83.8641 529.323C82.7458 530.011 80.5951 530.355 77.2832 530.355C74.0142 530.355 71.8205 530.097 70.7022 529.624C68.8096 528.764 67.8633 526.915 67.8633 524.035V523.003ZM128.942 511.395V530.183H124.64V511.395H118.059V507.698H135.566V511.395H128.942ZM182.794 507.698H187.095V523.691C187.095 526.528 186.235 528.463 184.471 529.366C183.224 530.011 180.987 530.355 177.718 530.355C174.535 530.355 172.341 530.011 171.094 529.366C169.288 528.42 168.384 526.528 168.384 523.691V507.698H172.686V523.691C172.686 525.067 173.202 525.97 174.277 526.356C174.836 526.571 175.998 526.7 177.675 526.7C179.396 526.7 180.557 526.571 181.116 526.356C182.191 525.97 182.751 525.067 182.751 523.691V507.698H182.794ZM221.763 530.183V507.698H232.516C235.613 507.698 237.85 508.3 239.183 509.546C240.603 510.836 241.334 513.029 241.334 516.038V521.326C241.334 524.25 240.732 526.442 239.528 527.818C238.237 529.366 236.13 530.14 233.205 530.14H221.763V530.183ZM226.108 526.485H233.248C234.624 526.485 235.613 525.927 236.259 524.852C236.818 523.949 237.076 522.788 237.076 521.326V516.038C237.076 514.276 236.775 513.072 236.13 512.384C235.484 511.696 234.28 511.352 232.559 511.352H226.151V526.485H226.108ZM279.701 507.698V530.183H275.4V507.698H279.701ZM323.23 507.526C326.758 507.526 329.166 507.999 330.457 508.945C332.048 510.062 332.822 512.341 332.822 515.737V521.799C332.822 525.239 332.091 527.603 330.586 528.764C329.252 529.839 326.801 530.355 323.23 530.355C319.574 530.355 317.123 529.839 315.875 528.807C314.456 527.646 313.725 525.282 313.725 521.756V515.694C313.725 512.298 314.456 510.019 315.961 508.902C317.252 507.999 319.66 507.526 323.23 507.526ZM323.23 511.18C320.994 511.18 319.531 511.481 318.886 512.126C318.327 512.685 318.026 513.846 318.026 515.737V521.799C318.026 523.949 318.37 525.325 319.015 525.927C319.617 526.442 320.994 526.7 323.23 526.7C325.295 526.7 326.672 526.442 327.317 525.884C328.091 525.239 328.478 523.906 328.478 521.799V515.737C328.478 513.76 328.091 512.47 327.274 511.911C326.672 511.438 325.338 511.18 323.23 511.18ZM365.899 523.003H370.2V524.035C370.2 525.282 370.545 526.056 371.233 526.356C371.835 526.657 373.168 526.786 375.276 526.786C376.997 526.786 378.072 526.657 378.588 526.356C379.362 525.927 379.706 524.981 379.706 523.476C379.706 522.573 379.534 521.885 379.233 521.412C378.932 520.982 378.33 520.724 377.47 520.638C376.867 520.595 375.921 520.553 374.631 520.51C372.351 520.381 370.889 520.252 370.244 520.123C368.609 519.822 367.491 519.091 366.845 517.973C366.286 517.027 365.985 515.651 365.985 513.846C365.985 511.051 366.845 509.203 368.609 508.343C369.77 507.784 372.007 507.483 375.276 507.483C378.158 507.483 380.093 507.741 381.169 508.3C382.803 509.16 383.62 510.879 383.62 513.545V514.276H379.319V513.545C379.319 512.427 379.018 511.696 378.459 511.395C377.986 511.137 376.953 511.051 375.319 511.051C373.469 511.051 372.351 511.137 371.921 511.266C370.889 511.61 370.373 512.513 370.373 513.889C370.373 515.221 370.631 516.038 371.19 516.382C371.706 516.683 373.039 516.855 375.319 517.027C379.061 517.242 381.384 517.672 382.33 518.274C383.534 519.048 384.137 520.81 384.137 523.519C384.137 526.442 383.405 528.377 381.9 529.323C380.782 530.011 378.631 530.355 375.319 530.355C372.05 530.355 369.856 530.097 368.738 529.624C366.846 528.764 365.899 526.915 365.899 524.035V523.003ZM423.02 429.925H419.665L409.342 437.835V422.057H449V437.835L438.763 429.925H435.623V480.312L440.741 489.125H417.902L423.02 480.312V429.925ZM55.5617 480.355L50.4431 489.168H73.283L68.1644 480.355V429.968H71.3044L81.5414 437.878V422.1H41.8836V437.878L52.2067 429.968H55.5617V480.355ZM164.642 459.976L154.749 453.399L164.642 445.875V429.753C164.642 425.153 160.298 422.143 156.298 422.143H126.619L130.791 430.011V489.254H142.921V457.612L152.556 464.233V489.254H164.599L164.642 459.976ZM142.964 450.174V429.968H152.599V443.682L142.964 450.174ZM316.606 459.976L306.714 453.399L316.606 445.875V429.753C316.606 425.153 312.262 422.143 308.262 422.143H278.583L282.755 430.011V489.254H294.885V457.612L304.52 464.233V489.254H316.563L316.606 459.976ZM294.928 450.174V429.968H304.563V443.682L294.928 450.174ZM36.8081 460.062L15.5598 444.972V429.968H24.4204V439.168L36.8081 448.024V422.1H3V448.712L24.2483 463.846V480.312H15.5598V469.564L3 460.535V489.125H27.8184C32.7649 489.125 36.8511 484.525 36.8511 480.957V460.062H36.8081ZM120.64 429.968C120.64 424.938 118.145 422.1 110.317 422.1H86.6599V480.957C86.6599 484.525 90.7462 489.211 95.6926 489.211H120.64V429.968ZM99.2197 480.312V429.925H108.252V480.312H99.2197ZM195.568 422.057H170.32L174.836 429.968V489.168H186.88V429.968H195.568V489.168H208.687V429.968H217.118V489.168H229.161V429.968C229.161 424.508 227.355 422.057 222.236 422.057H195.568ZM360.609 429.022C360.609 423.476 356.436 422.1 351.49 422.1H326.758V489.168H339.317V463.158L348.092 456.494V489.168H360.566V429.022H360.609ZM339.36 451.55V429.968H348.135V444.542L339.36 451.55ZM370.76 480.355L366.759 489.168H387.32L383.319 480.355V463.889L395.105 453.828L383.319 444.026V429.968H391.836V438.91L404.224 447.767V422.1H366.759L370.76 429.022V480.355ZM272.432 447.595V422.1H235.054L239.312 429.796L239.398 489.211H272.518L272.432 473.562L263.658 479.796H251.786V429.968H260.647V438.738L272.432 447.595ZM304.477 290.802V201.679L319.359 184.783H398.804L444.527 105.634L416.396 57.0525H317.897L225.849 4L134.146 57.0955H35.6037L7.47333 105.72L53.153 184.826H132.598L147.48 201.722V290.845L158.964 297.465V309.804L149.244 304.258L128.813 338.222L226.021 394.198L323.23 338.222L302.756 304.172L293.035 309.718V297.379L304.477 290.802ZM324.779 65.522H411.364L423.235 86.0723H324.822V65.522H324.779ZM324.779 95.3586H428.612L434.548 105.634L428.612 115.866H346.156V125.195H423.235L411.02 146.305H324.779V95.3586ZM324.779 155.634H405.643L393.772 176.184H324.736V155.634H324.779ZM305.294 59.632L315.488 65.522V176.184L305.294 187.835V59.632ZM127.178 176.184H58.1424L46.2709 155.634H127.135V176.184H127.178ZM127.178 146.348H40.9373L28.7217 125.238H105.801V115.909H23.3451L17.4093 105.634L23.3451 95.3586H127.135V146.348H127.178ZM127.178 86.0723H28.7217L40.5932 65.522H127.178V86.0723ZM146.663 187.835L136.469 176.184V65.522L146.663 59.632V187.835ZM185.848 37.0181L206.408 25.1522V78.0757L215.741 72.6587V19.7782L226.021 13.8452L236.302 19.7782V72.6587L245.635 78.0757V25.1522L266.195 37.0181V95.3586H185.848V37.0181ZM155.997 54.258L176.557 42.3921V105.591H275.443V42.3921L296.003 54.258V188.05L275.443 176.227V115.909H176.514V176.227L155.954 188.093V54.258H155.997ZM225.978 336.975L284.519 303.183V313.846L225.978 347.637L167.438 313.846V303.183L225.978 336.975ZM185.848 303.054V275.668L206.408 263.803V314.877L185.848 303.054ZM236.259 320.294L230.151 323.82L226.021 326.227L221.892 323.82L215.784 320.294V196.992H236.345L236.259 320.294ZM245.549 314.92V263.845L266.109 275.711V303.054L245.549 314.92ZM266.195 181.601V264.92L245.635 253.054V191.661L226.021 180.311L206.408 191.661V253.054L185.848 264.92V181.558L185.977 181.515L214.365 165.135L226.021 171.842L237.678 165.135L266.066 181.515L266.195 181.601ZM185.848 158.514V131.214L206.408 143.08V158.944L196.128 164.877L185.848 158.514ZM215.698 155.204V131.257L225.978 125.238L236.259 131.257V155.204L225.978 161.18L215.698 155.204ZM245.549 158.987V143.123L266.109 131.257V158.557L255.829 164.92L245.549 158.987ZM155.997 285.858V198.884L176.557 186.932V297.68L155.997 285.858ZM299.745 315.866L311.316 335.127L225.978 384.353L140.641 335.17L152.211 315.909L226.021 358.386L299.745 315.866ZM275.443 297.68V186.932L296.003 198.884V285.858L275.443 297.68Z"/>
</mask>
<path d="M67.8633 523.003H72.1646V524.035C72.1646 525.282 72.5087 526.056 73.1969 526.356C73.7991 526.657 75.1325 526.786 77.2401 526.786C78.9607 526.786 80.036 526.657 80.5521 526.356C81.3263 525.927 81.6705 524.981 81.6705 523.476C81.6705 522.573 81.4984 521.885 81.1973 521.412C80.8962 520.982 80.2941 520.724 79.4338 520.638C78.8316 520.595 77.8853 520.553 76.5949 520.51C74.3153 520.381 72.8528 520.252 72.2076 520.123C70.5731 519.822 69.4548 519.091 68.8096 517.973C68.2505 517.027 67.9494 515.651 67.9494 513.846C67.9494 511.051 68.8096 509.203 70.5732 508.343C71.7345 507.784 73.9712 507.483 77.2401 507.483C80.122 507.483 82.0576 507.741 83.1329 508.3C84.7674 509.16 85.5846 510.879 85.5846 513.545V514.276H81.2833V513.545C81.2833 512.427 80.9823 511.696 80.4231 511.395C79.9499 511.137 78.9176 511.051 77.2832 511.051C75.4336 511.051 74.3153 511.137 73.8851 511.266C72.8528 511.61 72.3367 512.513 72.3367 513.889C72.3367 515.221 72.6378 516.038 73.1969 516.382C73.7131 516.683 75.0465 516.855 77.2832 517.027C81.0253 517.242 83.348 517.672 84.2942 518.274C85.4986 519.048 86.1008 520.81 86.1008 523.519C86.1008 526.442 85.3696 528.377 83.8641 529.323C82.7458 530.011 80.5951 530.355 77.2832 530.355C74.0142 530.355 71.8205 530.097 70.7022 529.624C68.8096 528.764 67.8633 526.915 67.8633 524.035V523.003ZM128.942 511.395V530.183H124.64V511.395H118.059V507.698H135.566V511.395H128.942ZM182.794 507.698H187.095V523.691C187.095 526.528 186.235 528.463 184.471 529.366C183.224 530.011 180.987 530.355 177.718 530.355C174.535 530.355 172.341 530.011 171.094 529.366C169.288 528.42 168.384 526.528 168.384 523.691V507.698H172.686V523.691C172.686 525.067 173.202 525.97 174.277 526.356C174.836 526.571 175.998 526.7 177.675 526.7C179.396 526.7 180.557 526.571 181.116 526.356C182.191 525.97 182.751 525.067 182.751 523.691V507.698H182.794ZM221.763 530.183V507.698H232.516C235.613 507.698 237.85 508.3 239.183 509.546C240.603 510.836 241.334 513.029 241.334 516.038V521.326C241.334 524.25 240.732 526.442 239.528 527.818C238.237 529.366 236.13 530.14 233.205 530.14H221.763V530.183ZM226.108 526.485H233.248C234.624 526.485 235.613 525.927 236.259 524.852C236.818 523.949 237.076 522.788 237.076 521.326V516.038C237.076 514.276 236.775 513.072 236.13 512.384C235.484 511.696 234.28 511.352 232.559 511.352H226.151V526.485H226.108ZM279.701 507.698V530.183H275.4V507.698H279.701ZM323.23 507.526C326.758 507.526 329.166 507.999 330.457 508.945C332.048 510.062 332.822 512.341 332.822 515.737V521.799C332.822 525.239 332.091 527.603 330.586 528.764C329.252 529.839 326.801 530.355 323.23 530.355C319.574 530.355 317.123 529.839 315.875 528.807C314.456 527.646 313.725 525.282 313.725 521.756V515.694C313.725 512.298 314.456 510.019 315.961 508.902C317.252 507.999 319.66 507.526 323.23 507.526ZM323.23 511.18C320.994 511.18 319.531 511.481 318.886 512.126C318.327 512.685 318.026 513.846 318.026 515.737V521.799C318.026 523.949 318.37 525.325 319.015 525.927C319.617 526.442 320.994 526.7 323.23 526.7C325.295 526.7 326.672 526.442 327.317 525.884C328.091 525.239 328.478 523.906 328.478 521.799V515.737C328.478 513.76 328.091 512.47 327.274 511.911C326.672 511.438 325.338 511.18 323.23 511.18ZM365.899 523.003H370.2V524.035C370.2 525.282 370.545 526.056 371.233 526.356C371.835 526.657 373.168 526.786 375.276 526.786C376.997 526.786 378.072 526.657 378.588 526.356C379.362 525.927 379.706 524.981 379.706 523.476C379.706 522.573 379.534 521.885 379.233 521.412C378.932 520.982 378.33 520.724 377.47 520.638C376.867 520.595 375.921 520.553 374.631 520.51C372.351 520.381 370.889 520.252 370.244 520.123C368.609 519.822 367.491 519.091 366.845 517.973C366.286 517.027 365.985 515.651 365.985 513.846C365.985 511.051 366.845 509.203 368.609 508.343C369.77 507.784 372.007 507.483 375.276 507.483C378.158 507.483 380.093 507.741 381.169 508.3C382.803 509.16 383.62 510.879 383.62 513.545V514.276H379.319V513.545C379.319 512.427 379.018 511.696 378.459 511.395C377.986 511.137 376.953 511.051 375.319 511.051C373.469 511.051 372.351 511.137 371.921 511.266C370.889 511.61 370.373 512.513 370.373 513.889C370.373 515.221 370.631 516.038 371.19 516.382C371.706 516.683 373.039 516.855 375.319 517.027C379.061 517.242 381.384 517.672 382.33 518.274C383.534 519.048 384.137 520.81 384.137 523.519C384.137 526.442 383.405 528.377 381.9 529.323C380.782 530.011 378.631 530.355 375.319 530.355C372.05 530.355 369.856 530.097 368.738 529.624C366.846 528.764 365.899 526.915 365.899 524.035V523.003ZM423.02 429.925H419.665L409.342 437.835V422.057H449V437.835L438.763 429.925H435.623V480.312L440.741 489.125H417.902L423.02 480.312V429.925ZM55.5617 480.355L50.4431 489.168H73.283L68.1644 480.355V429.968H71.3044L81.5414 437.878V422.1H41.8836V437.878L52.2067 429.968H55.5617V480.355ZM164.642 459.976L154.749 453.399L164.642 445.875V429.753C164.642 425.153 160.298 422.143 156.298 422.143H126.619L130.791 430.011V489.254H142.921V457.612L152.556 464.233V489.254H164.599L164.642 459.976ZM142.964 450.174V429.968H152.599V443.682L142.964 450.174ZM316.606 459.976L306.714 453.399L316.606 445.875V429.753C316.606 425.153 312.262 422.143 308.262 422.143H278.583L282.755 430.011V489.254H294.885V457.612L304.52 464.233V489.254H316.563L316.606 459.976ZM294.928 450.174V429.968H304.563V443.682L294.928 450.174ZM36.8081 460.062L15.5598 444.972V429.968H24.4204V439.168L36.8081 448.024V422.1H3V448.712L24.2483 463.846V480.312H15.5598V469.564L3 460.535V489.125H27.8184C32.7649 489.125 36.8511 484.525 36.8511 480.957V460.062H36.8081ZM120.64 429.968C120.64 424.938 118.145 422.1 110.317 422.1H86.6599V480.957C86.6599 484.525 90.7462 489.211 95.6926 489.211H120.64V429.968ZM99.2197 480.312V429.925H108.252V480.312H99.2197ZM195.568 422.057H170.32L174.836 429.968V489.168H186.88V429.968H195.568V489.168H208.687V429.968H217.118V489.168H229.161V429.968C229.161 424.508 227.355 422.057 222.236 422.057H195.568ZM360.609 429.022C360.609 423.476 356.436 422.1 351.49 422.1H326.758V489.168H339.317V463.158L348.092 456.494V489.168H360.566V429.022H360.609ZM339.36 451.55V429.968H348.135V444.542L339.36 451.55ZM370.76 480.355L366.759 489.168H387.32L383.319 480.355V463.889L395.105 453.828L383.319 444.026V429.968H391.836V438.91L404.224 447.767V422.1H366.759L370.76 429.022V480.355ZM272.432 447.595V422.1H235.054L239.312 429.796L239.398 489.211H272.518L272.432 473.562L263.658 479.796H251.786V429.968H260.647V438.738L272.432 447.595ZM304.477 290.802V201.679L319.359 184.783H398.804L444.527 105.634L416.396 57.0525H317.897L225.849 4L134.146 57.0955H35.6037L7.47333 105.72L53.153 184.826H132.598L147.48 201.722V290.845L158.964 297.465V309.804L149.244 304.258L128.813 338.222L226.021 394.198L323.23 338.222L302.756 304.172L293.035 309.718V297.379L304.477 290.802ZM324.779 65.522H411.364L423.235 86.0723H324.822V65.522H324.779ZM324.779 95.3586H428.612L434.548 105.634L428.612 115.866H346.156V125.195H423.235L411.02 146.305H324.779V95.3586ZM324.779 155.634H405.643L393.772 176.184H324.736V155.634H324.779ZM305.294 59.632L315.488 65.522V176.184L305.294 187.835V59.632ZM127.178 176.184H58.1424L46.2709 155.634H127.135V176.184H127.178ZM127.178 146.348H40.9373L28.7217 125.238H105.801V115.909H23.3451L17.4093 105.634L23.3451 95.3586H127.135V146.348H127.178ZM127.178 86.0723H28.7217L40.5932 65.522H127.178V86.0723ZM146.663 187.835L136.469 176.184V65.522L146.663 59.632V187.835ZM185.848 37.0181L206.408 25.1522V78.0757L215.741 72.6587V19.7782L226.021 13.8452L236.302 19.7782V72.6587L245.635 78.0757V25.1522L266.195 37.0181V95.3586H185.848V37.0181ZM155.997 54.258L176.557 42.3921V105.591H275.443V42.3921L296.003 54.258V188.05L275.443 176.227V115.909H176.514V176.227L155.954 188.093V54.258H155.997ZM225.978 336.975L284.519 303.183V313.846L225.978 347.637L167.438 313.846V303.183L225.978 336.975ZM185.848 303.054V275.668L206.408 263.803V314.877L185.848 303.054ZM236.259 320.294L230.151 323.82L226.021 326.227L221.892 323.82L215.784 320.294V196.992H236.345L236.259 320.294ZM245.549 314.92V263.845L266.109 275.711V303.054L245.549 314.92ZM266.195 181.601V264.92L245.635 253.054V191.661L226.021 180.311L206.408 191.661V253.054L185.848 264.92V181.558L185.977 181.515L214.365 165.135L226.021 171.842L237.678 165.135L266.066 181.515L266.195 181.601ZM185.848 158.514V131.214L206.408 143.08V158.944L196.128 164.877L185.848 158.514ZM215.698 155.204V131.257L225.978 125.238L236.259 131.257V155.204L225.978 161.18L215.698 155.204ZM245.549 158.987V143.123L266.109 131.257V158.557L255.829 164.92L245.549 158.987ZM155.997 285.858V198.884L176.557 186.932V297.68L155.997 285.858ZM299.745 315.866L311.316 335.127L225.978 384.353L140.641 335.17L152.211 315.909L226.021 358.386L299.745 315.866ZM275.443 297.68V186.932L296.003 198.884V285.858L275.443 297.68Z" fill="black"/>
<path d="M67.8633 523.003H72.1646V524.035C72.1646 525.282 72.5087 526.056 73.1969 526.356C73.7991 526.657 75.1325 526.786 77.2401 526.786C78.9607 526.786 80.036 526.657 80.5521 526.356C81.3263 525.927 81.6705 524.981 81.6705 523.476C81.6705 522.573 81.4984 521.885 81.1973 521.412C80.8962 520.982 80.2941 520.724 79.4338 520.638C78.8316 520.595 77.8853 520.553 76.5949 520.51C74.3153 520.381 72.8528 520.252 72.2076 520.123C70.5731 519.822 69.4548 519.091 68.8096 517.973C68.2505 517.027 67.9494 515.651 67.9494 513.846C67.9494 511.051 68.8096 509.203 70.5732 508.343C71.7345 507.784 73.9712 507.483 77.2401 507.483C80.122 507.483 82.0576 507.741 83.1329 508.3C84.7674 509.16 85.5846 510.879 85.5846 513.545V514.276H81.2833V513.545C81.2833 512.427 80.9823 511.696 80.4231 511.395C79.9499 511.137 78.9176 511.051 77.2832 511.051C75.4336 511.051 74.3153 511.137 73.8851 511.266C72.8528 511.61 72.3367 512.513 72.3367 513.889C72.3367 515.221 72.6378 516.038 73.1969 516.382C73.7131 516.683 75.0465 516.855 77.2832 517.027C81.0253 517.242 83.348 517.672 84.2942 518.274C85.4986 519.048 86.1008 520.81 86.1008 523.519C86.1008 526.442 85.3696 528.377 83.8641 529.323C82.7458 530.011 80.5951 530.355 77.2832 530.355C74.0142 530.355 71.8205 530.097 70.7022 529.624C68.8096 528.764 67.8633 526.915 67.8633 524.035V523.003ZM128.942 511.395V530.183H124.64V511.395H118.059V507.698H135.566V511.395H128.942ZM182.794 507.698H187.095V523.691C187.095 526.528 186.235 528.463 184.471 529.366C183.224 530.011 180.987 530.355 177.718 530.355C174.535 530.355 172.341 530.011 171.094 529.366C169.288 528.42 168.384 526.528 168.384 523.691V507.698H172.686V523.691C172.686 525.067 173.202 525.97 174.277 526.356C174.836 526.571 175.998 526.7 177.675 526.7C179.396 526.7 180.557 526.571 181.116 526.356C182.191 525.97 182.751 525.067 182.751 523.691V507.698H182.794ZM221.763 530.183V507.698H232.516C235.613 507.698 237.85 508.3 239.183 509.546C240.603 510.836 241.334 513.029 241.334 516.038V521.326C241.334 524.25 240.732 526.442 239.528 527.818C238.237 529.366 236.13 530.14 233.205 530.14H221.763V530.183ZM226.108 526.485H233.248C234.624 526.485 235.613 525.927 236.259 524.852C236.818 523.949 237.076 522.788 237.076 521.326V516.038C237.076 514.276 236.775 513.072 236.13 512.384C235.484 511.696 234.28 511.352 232.559 511.352H226.151V526.485H226.108ZM279.701 507.698V530.183H275.4V507.698H279.701ZM323.23 507.526C326.758 507.526 329.166 507.999 330.457 508.945C332.048 510.062 332.822 512.341 332.822 515.737V521.799C332.822 525.239 332.091 527.603 330.586 528.764C329.252 529.839 326.801 530.355 323.23 530.355C319.574 530.355 317.123 529.839 315.875 528.807C314.456 527.646 313.725 525.282 313.725 521.756V515.694C313.725 512.298 314.456 510.019 315.961 508.902C317.252 507.999 319.66 507.526 323.23 507.526ZM323.23 511.18C320.994 511.18 319.531 511.481 318.886 512.126C318.327 512.685 318.026 513.846 318.026 515.737V521.799C318.026 523.949 318.37 525.325 319.015 525.927C319.617 526.442 320.994 526.7 323.23 526.7C325.295 526.7 326.672 526.442 327.317 525.884C328.091 525.239 328.478 523.906 328.478 521.799V515.737C328.478 513.76 328.091 512.47 327.274 511.911C326.672 511.438 325.338 511.18 323.23 511.18ZM365.899 523.003H370.2V524.035C370.2 525.282 370.545 526.056 371.233 526.356C371.835 526.657 373.168 526.786 375.276 526.786C376.997 526.786 378.072 526.657 378.588 526.356C379.362 525.927 379.706 524.981 379.706 523.476C379.706 522.573 379.534 521.885 379.233 521.412C378.932 520.982 378.33 520.724 377.47 520.638C376.867 520.595 375.921 520.553 374.631 520.51C372.351 520.381 370.889 520.252 370.244 520.123C368.609 519.822 367.491 519.091 366.845 517.973C366.286 517.027 365.985 515.651 365.985 513.846C365.985 511.051 366.845 509.203 368.609 508.343C369.77 507.784 372.007 507.483 375.276 507.483C378.158 507.483 380.093 507.741 381.169 508.3C382.803 509.16 383.62 510.879 383.62 513.545V514.276H379.319V513.545C379.319 512.427 379.018 511.696 378.459 511.395C377.986 511.137 376.953 511.051 375.319 511.051C373.469 511.051 372.351 511.137 371.921 511.266C370.889 511.61 370.373 512.513 370.373 513.889C370.373 515.221 370.631 516.038 371.19 516.382C371.706 516.683 373.039 516.855 375.319 517.027C379.061 517.242 381.384 517.672 382.33 518.274C383.534 519.048 384.137 520.81 384.137 523.519C384.137 526.442 383.405 528.377 381.9 529.323C380.782 530.011 378.631 530.355 375.319 530.355C372.05 530.355 369.856 530.097 368.738 529.624C366.846 528.764 365.899 526.915 365.899 524.035V523.003ZM423.02 429.925H419.665L409.342 437.835V422.057H449V437.835L438.763 429.925H435.623V480.312L440.741 489.125H417.902L423.02 480.312V429.925ZM55.5617 480.355L50.4431 489.168H73.283L68.1644 480.355V429.968H71.3044L81.5414 437.878V422.1H41.8836V437.878L52.2067 429.968H55.5617V480.355ZM164.642 459.976L154.749 453.399L164.642 445.875V429.753C164.642 425.153 160.298 422.143 156.298 422.143H126.619L130.791 430.011V489.254H142.921V457.612L152.556 464.233V489.254H164.599L164.642 459.976ZM142.964 450.174V429.968H152.599V443.682L142.964 450.174ZM316.606 459.976L306.714 453.399L316.606 445.875V429.753C316.606 425.153 312.262 422.143 308.262 422.143H278.583L282.755 430.011V489.254H294.885V457.612L304.52 464.233V489.254H316.563L316.606 459.976ZM294.928 450.174V429.968H304.563V443.682L294.928 450.174ZM36.8081 460.062L15.5598 444.972V429.968H24.4204V439.168L36.8081 448.024V422.1H3V448.712L24.2483 463.846V480.312H15.5598V469.564L3 460.535V489.125H27.8184C32.7649 489.125 36.8511 484.525 36.8511 480.957V460.062H36.8081ZM120.64 429.968C120.64 424.938 118.145 422.1 110.317 422.1H86.6599V480.957C86.6599 484.525 90.7462 489.211 95.6926 489.211H120.64V429.968ZM99.2197 480.312V429.925H108.252V480.312H99.2197ZM195.568 422.057H170.32L174.836 429.968V489.168H186.88V429.968H195.568V489.168H208.687V429.968H217.118V489.168H229.161V429.968C229.161 424.508 227.355 422.057 222.236 422.057H195.568ZM360.609 429.022C360.609 423.476 356.436 422.1 351.49 422.1H326.758V489.168H339.317V463.158L348.092 456.494V489.168H360.566V429.022H360.609ZM339.36 451.55V429.968H348.135V444.542L339.36 451.55ZM370.76 480.355L366.759 489.168H387.32L383.319 480.355V463.889L395.105 453.828L383.319 444.026V429.968H391.836V438.91L404.224 447.767V422.1H366.759L370.76 429.022V480.355ZM272.432 447.595V422.1H235.054L239.312 429.796L239.398 489.211H272.518L272.432 473.562L263.658 479.796H251.786V429.968H260.647V438.738L272.432 447.595ZM304.477 290.802V201.679L319.359 184.783H398.804L444.527 105.634L416.396 57.0525H317.897L225.849 4L134.146 57.0955H35.6037L7.47333 105.72L53.153 184.826H132.598L147.48 201.722V290.845L158.964 297.465V309.804L149.244 304.258L128.813 338.222L226.021 394.198L323.23 338.222L302.756 304.172L293.035 309.718V297.379L304.477 290.802ZM324.779 65.522H411.364L423.235 86.0723H324.822V65.522H324.779ZM324.779 95.3586H428.612L434.548 105.634L428.612 115.866H346.156V125.195H423.235L411.02 146.305H324.779V95.3586ZM324.779 155.634H405.643L393.772 176.184H324.736V155.634H324.779ZM305.294 59.632L315.488 65.522V176.184L305.294 187.835V59.632ZM127.178 176.184H58.1424L46.2709 155.634H127.135V176.184H127.178ZM127.178 146.348H40.9373L28.7217 125.238H105.801V115.909H23.3451L17.4093 105.634L23.3451 95.3586H127.135V146.348H127.178ZM127.178 86.0723H28.7217L40.5932 65.522H127.178V86.0723ZM146.663 187.835L136.469 176.184V65.522L146.663 59.632V187.835ZM185.848 37.0181L206.408 25.1522V78.0757L215.741 72.6587V19.7782L226.021 13.8452L236.302 19.7782V72.6587L245.635 78.0757V25.1522L266.195 37.0181V95.3586H185.848V37.0181ZM155.997 54.258L176.557 42.3921V105.591H275.443V42.3921L296.003 54.258V188.05L275.443 176.227V115.909H176.514V176.227L155.954 188.093V54.258H155.997ZM225.978 336.975L284.519 303.183V313.846L225.978 347.637L167.438 313.846V303.183L225.978 336.975ZM185.848 303.054V275.668L206.408 263.803V314.877L185.848 303.054ZM236.259 320.294L230.151 323.82L226.021 326.227L221.892 323.82L215.784 320.294V196.992H236.345L236.259 320.294ZM245.549 314.92V263.845L266.109 275.711V303.054L245.549 314.92ZM266.195 181.601V264.92L245.635 253.054V191.661L226.021 180.311L206.408 191.661V253.054L185.848 264.92V181.558L185.977 181.515L214.365 165.135L226.021 171.842L237.678 165.135L266.066 181.515L266.195 181.601ZM185.848 158.514V131.214L206.408 143.08V158.944L196.128 164.877L185.848 158.514ZM215.698 155.204V131.257L225.978 125.238L236.259 131.257V155.204L225.978 161.18L215.698 155.204ZM245.549 158.987V143.123L266.109 131.257V158.557L255.829 164.92L245.549 158.987ZM155.997 285.858V198.884L176.557 186.932V297.68L155.997 285.858ZM299.745 315.866L311.316 335.127L225.978 384.353L140.641 335.17L152.211 315.909L226.021 358.386L299.745 315.866ZM275.443 297.68V186.932L296.003 198.884V285.858L275.443 297.68Z" stroke="white" stroke-width="6" mask="url(#path-1-outside-1_2_3406)"/>
</svg>
