<svg width="98" height="36" viewBox="0 0 98 36" fill="none" xmlns="http://www.w3.org/2000/svg">
<path d="M93.3752 6H77.9176L76.7912 13.0296L77.0104 14.0208L78.2304 7.4248L80.5144 17.056L78.1048 28.7304L76.8216 21.3288L76.5712 22.784L77.7608 30H93.5008L97.6 17.0552L93.3752 6ZM84.0192 7.548L89.0888 10.8304L87.9 7.548H91.2792L94.0016 14.9496H91.0288L85.8656 11.512L86.8672 14.9184H83.3L81.2352 7.548H84.0192ZM93.0936 29.4424H78.6056L81.14 17.0864H97.0048L93.0936 29.4424Z" fill="url(#paint0_linear_481_13706)"/>
<path d="M90.528 19.0688L89.4016 22.94L86.3664 19.0688H83.3L81.36 27.5232H84.8024L85.7728 23.8072L88.808 27.5232H91.624L94.1896 19.0688H90.528Z" fill="url(#paint1_linear_481_13706)"/>
<path d="M75.1008 6.12399H59.5808L59.3304 14.7328L59.8616 9.03439L60.2688 17.024L59.9872 25.6328L59.3304 20.8328L59.7992 30H75.132L77.416 17.0552L75.1008 6.12399ZM69.4056 7.61039L70.5008 14.9192H66.9024L65.932 7.64159L69.4056 7.61039ZM74.6632 29.4112H60.488L60.8952 17.0552H76.8232L74.6632 29.4112Z" fill="url(#paint2_linear_481_13706)"/>
<path d="M66.12 27.7704H69.5936L70.6264 19.2232H66.9648L66.12 27.7704Z" fill="url(#paint3_linear_481_13706)"/>
<path d="M41.2744 6.12399L39.7408 17.1176L41.3992 30H56.764L56.8896 16.8384L56.764 6.12399H41.2744ZM44.4976 7.67199H50.2552C50.2552 7.67199 53.9792 7.95039 54.0104 10.304C54.0416 12.6576 49.692 13.06 49.692 13.06H47.5016L47.3136 14.9488H43.6216L44.4976 7.67199ZM56.1384 29.4424H41.8688L40.304 17.1792L56.2633 17.2104L56.1384 29.4424Z" fill="url(#paint4_linear_481_13706)"/>
<path d="M50.4112 10.2424C50.4112 9.43759 49.4096 9.43759 49.4096 9.43759H47.752L47.6272 11.2024H49.3792C49.3792 11.172 50.4112 11.0168 50.4112 10.2424Z" fill="url(#paint5_linear_481_13706)"/>
<path d="M44.8416 27.6464H47.7208L48.816 24.24L50.224 27.6464H53.04L55.5744 19.192H52.4456L51.444 23.032L49.8168 19.192H47.3448L46.0616 22.9392L44.8416 19.192H41.4304H41.3992L44.8416 27.6464Z" fill="url(#paint6_linear_481_13706)"/>
<path d="M36.1736 19.0688L37.8632 8.66319L39.428 15.7856L38.1768 6.12399H22.468L19.3704 19.0688L23.188 29.7528L38.6152 29.5976L39.7104 19.316L38.208 28.4208L36.1736 19.0688ZM26.8176 12.8752C26.1296 12.6584 24.9712 12.1008 24.9712 11.048C24.9712 9.99519 25.816 9.09679 26.3168 8.78719C26.8176 8.47759 28.1008 7.76559 30.3848 7.76559C32.6688 7.76559 34.2648 8.50879 34.2648 8.50879L32.8568 10.5216C32.8568 10.5216 32.6064 10.4288 32.3248 10.3048C32.0432 10.212 31.1672 9.90239 29.9776 9.87119C28.7576 9.83919 28.5384 10.3352 28.5384 10.428C28.5072 10.5208 28.4448 10.8304 29.884 11.016C31.292 11.2016 32.3248 11.5112 32.7944 11.6976C33.264 11.9144 33.8896 12.5648 33.8896 13.2456C33.8896 13.9272 33.7336 14.4536 33.0136 15.1656C32.2936 15.8776 31.0424 16.528 28.2256 16.5592C25.4096 16.5904 23.7824 15.7544 23.7824 15.7544C23.7824 15.7544 25.4096 13.6176 25.4408 13.6176C25.4408 13.6176 25.7848 13.8032 26.3792 14.0512C26.9736 14.2992 28.288 14.4848 28.6944 14.4848C29.1016 14.4848 30.1024 14.4536 30.2904 13.8968C30.4472 13.3392 27.5056 13.092 26.8176 12.8752ZM23.6256 29.1952L19.996 19.1304L35.548 19.0688L37.7384 29.04L23.6256 29.1952Z" fill="url(#paint7_linear_481_13706)"/>
<path d="M34.9537 24.8592H33.6393L33.3265 23.7752H29.9785L30.1977 24.8592L28.8833 24.828L31.7937 20.8328H28.0385L24.7841 25.2304L25.2849 26.7168L30.6673 26.748L31.0113 27.9248H34.3913L34.1097 26.7168H35.4553L34.9537 24.8592Z" fill="url(#paint8_linear_481_13706)"/>
<path d="M21.9672 26.9344L21.6544 28.3896L16.6472 23.3416L18.8688 7.70321L21.0592 11.1408L21.2472 10.3664L18.9 6.68161L2.5976 6.83601L0 23.3112L6.9152 28.7616L22.1232 28.9168L22.3424 27.9568L21.9672 26.9344ZM7.4472 9.22081L7.4784 9.18961H12.8608L11.4208 20.152H7.7288L8.856 12.008H7.04L7.4472 9.22081ZM7.1344 28.1424L0.9696 23.3112H15.8024L20.7776 28.328L7.1344 28.1424Z" fill="url(#paint9_linear_481_13706)"/>
<path d="M12.736 25.324L9.26241 24.0544L8.66801 25.324L5.16321 25.572L9.01201 26.6248L9.98241 27.8944L12.8296 27.3056L16.8976 27.9248L15.0824 26.5928L16.8664 25.5712L12.736 25.324Z" fill="url(#paint10_linear_481_13706)"/>
<defs>
<linearGradient id="paint0_linear_481_13706" x1="86.3503" y1="30.3315" x2="87.6469" y2="6.87536" gradientUnits="userSpaceOnUse">
<stop stop-color="white"/>
<stop offset="0.5045" stop-color="#D6DADD"/>
<stop offset="1" stop-color="white"/>
</linearGradient>
<linearGradient id="paint1_linear_481_13706" x1="86.6745" y1="28.9364" x2="88.3093" y2="20.5517" gradientUnits="userSpaceOnUse">
<stop stop-color="#FEFE00"/>
<stop offset="1" stop-color="#F8AD00"/>
</linearGradient>
<linearGradient id="paint2_linear_481_13706" x1="68.4628" y1="29.8666" x2="68.2712" y2="6.46407" gradientUnits="userSpaceOnUse">
<stop stop-color="white"/>
<stop offset="0.5045" stop-color="#D6DADD"/>
<stop offset="1" stop-color="white"/>
</linearGradient>
<linearGradient id="paint3_linear_481_13706" x1="67.8661" y1="28.8666" x2="68.6601" y2="20.462" gradientUnits="userSpaceOnUse">
<stop stop-color="#FEFE00"/>
<stop offset="1" stop-color="#F8AD00"/>
</linearGradient>
<linearGradient id="paint4_linear_481_13706" x1="48.0992" y1="30.2144" x2="48.689" y2="4.60759" gradientUnits="userSpaceOnUse">
<stop stop-color="white"/>
<stop offset="0.5045" stop-color="#D6DADD"/>
<stop offset="1" stop-color="white"/>
</linearGradient>
<linearGradient id="paint5_linear_481_13706" x1="48.9466" y1="30.4327" x2="49.0387" y2="5.32655" gradientUnits="userSpaceOnUse">
<stop stop-color="white"/>
<stop offset="0.5045" stop-color="#D6DADD"/>
<stop offset="1" stop-color="white"/>
</linearGradient>
<linearGradient id="paint6_linear_481_13706" x1="48.7259" y1="29.3105" x2="48.5193" y2="20.585" gradientUnits="userSpaceOnUse">
<stop stop-color="#FEFE00"/>
<stop offset="1" stop-color="#F8AD00"/>
</linearGradient>
<linearGradient id="paint7_linear_481_13706" x1="29.4748" y1="30.3702" x2="29.6188" y2="5.78847" gradientUnits="userSpaceOnUse">
<stop stop-color="white"/>
<stop offset="0.5045" stop-color="#D6DADD"/>
<stop offset="1" stop-color="white"/>
</linearGradient>
<linearGradient id="paint8_linear_481_13706" x1="31.2117" y1="30.0248" x2="29.1688" y2="22.4401" gradientUnits="userSpaceOnUse">
<stop stop-color="#FEFE00"/>
<stop offset="1" stop-color="#F8AD00"/>
</linearGradient>
<linearGradient id="paint9_linear_481_13706" x1="11.1014" y1="29.3182" x2="11.521" y2="7.18713" gradientUnits="userSpaceOnUse">
<stop stop-color="#FEFE00"/>
<stop offset="0.2698" stop-color="#F8AD00"/>
<stop offset="0.799" stop-color="#F9BE00"/>
<stop offset="1" stop-color="#FDF400"/>
</linearGradient>
<linearGradient id="paint10_linear_481_13706" x1="11.3256" y1="28.8549" x2="9.19433" y2="6.36361" gradientUnits="userSpaceOnUse">
<stop stop-color="#FEFE00"/>
<stop offset="0.3763" stop-color="#F8AD00"/>
<stop offset="0.799" stop-color="#F9BE00"/>
<stop offset="1" stop-color="#FDF400"/>
</linearGradient>
</defs>
</svg>
