<svg width="147" height="49" viewBox="0 0 1471 490" fill="none" xmlns="http://www.w3.org/2000/svg">
<path d="M648.229 294.863H624.463L613.611 276.131L587.682 231.154L561.719 276.131L550.867 294.863H527.136L537.988 276.131L587.682 189.95L637.342 276.131L648.229 294.863Z" fill="white"/>
<path d="M736.387 189.95L725.534 208.682L675.84 294.863L626.181 208.682L615.294 189.95H639.059L649.911 208.682L675.84 253.66L701.804 208.682L712.656 189.95H736.387Z" fill="white"/>
<path d="M824.923 294.863H801.192L790.34 276.131L764.376 231.154L738.413 276.131L727.561 294.863H703.83L714.682 276.131L764.376 189.95L814.071 276.131L824.923 294.863Z" fill="white"/>
<path d="M920.052 190.087V208.819H871.389V295.035H850.199V208.819H801.535V190.087H920.052Z" fill="white"/>
<path d="M1018.1 294.863H994.336L983.484 276.131L957.555 231.154L931.592 276.131L920.739 294.863H897.008L907.861 276.131L957.555 189.95L1007.25 276.131L1018.1 294.863Z" fill="white"/>
<path d="M0.660156 427.531L193.701 62.4971L282.478 0.0571289L470.367 443.415L247.723 168.542L0.660156 427.531Z" fill="white"/>
<path d="M155.993 362.518L233.642 430.138L520.267 157.461L238.106 489.628L155.993 362.518Z" fill="#7FD4F7"/>
<path d="M1130.4 276.268L1141.25 295H1117.52L1106.67 276.268L1095.3 256.644L1094.79 255.752C1092.74 252.917 1090.04 250.618 1086.91 249.053C1083.79 247.488 1080.33 246.702 1076.83 246.764H1055.6V295H1034.41V190.087H1109.38C1117.66 190.001 1125.69 192.942 1131.95 198.355C1134.83 200.858 1137.14 203.939 1138.75 207.397C1140.35 210.856 1141.21 214.614 1141.25 218.425C1141.07 224.088 1139.2 229.567 1135.88 234.158C1132.55 238.75 1127.93 242.243 1122.61 244.19C1119.68 245.401 1116.59 246.165 1113.44 246.455L1130.4 276.268ZM1109.38 228.032C1110.9 228.04 1112.4 227.724 1113.78 227.105C1115.61 226.486 1117.21 225.323 1118.36 223.772C1119.52 222.221 1120.17 220.356 1120.24 218.425C1120.21 217.12 1119.9 215.836 1119.35 214.655C1118.79 213.474 1117.99 212.421 1117.01 211.564C1114.89 209.751 1112.17 208.786 1109.38 208.854H1055.6V228.203L1109.38 228.032Z" fill="white"/>
<path d="M1310.87 190.293V271.328C1310.87 284.536 1301.16 295.172 1289.44 295.172H1195C1183.08 295.172 1173.54 284.536 1173.54 271.328V190.293H1182.19V271.328C1182.05 274.901 1183.31 278.387 1185.7 281.047C1188.09 283.706 1191.43 285.327 1195 285.566H1289.44C1293.01 285.319 1296.34 283.694 1298.72 281.035C1301.11 278.377 1302.36 274.895 1302.22 271.328V190.293H1310.87Z" fill="#7FD4F7"/>
<path d="M1409.68 242.715L1470.95 295.138H1456.9L1402.64 248.719L1348.58 295.138H1334.33L1395.63 242.715L1334.33 190.293H1348.58L1402.64 236.712L1456.9 190.293H1470.95L1409.68 242.715Z" fill="#7FD4F7"/>
</svg>
