<svg width="120" height="130" viewBox="0 0 539 591" fill="none" xmlns="http://www.w3.org/2000/svg">
<path d="M15.9679 538.522V484.36H0V471.891H44.4538V484.36H29.9151V538.522H15.9679ZM52.9306 538.522V471.94H81.9093C93.9838 471.94 100.933 479.185 100.933 486.972V501.116C100.933 506.34 97.6801 511.367 91.7168 514.028L102.461 538.522H87.8234L77.8681 515.901H67.0257V538.522H52.9306ZM67.0257 484.458V503.482H80.4308C84.0285 503.482 86.9855 501.658 86.9855 497.962V489.978C86.9855 486.183 83.93 484.458 80.2337 484.458H67.0257ZM112.416 538.522V471.94H126.462V538.522H112.416ZM137.896 538.522V471.94H166.579C178.653 471.94 185.602 479.185 185.602 486.972V501.116C185.602 508.804 178.752 516.147 166.776 516.147H151.941V538.572H137.896V538.522ZM151.941 484.458V503.629H165.149C168.648 503.629 171.606 501.707 171.606 497.913V489.929C171.606 486.134 168.648 484.409 164.952 484.409H151.941V484.458ZM235.576 538.522H195.656V471.94H209.702V526.103H235.526V538.522H235.576ZM286.091 538.522H244.003V471.94H285.155V484.409H258.098V498.652H281.853V511.121H258.098V526.152H286.141V538.522H286.091ZM366.966 538.522H324.877V471.94H366.029V484.409H338.973V498.652H362.727V511.121H338.973V526.152H367.015V538.522H366.966ZM378.153 472.039H408.462C420.438 472.039 427.289 479.333 427.289 487.169V523.441C427.289 531.228 420.438 538.572 408.462 538.572H378.153V472.039ZM392.248 484.458V526.053H406.787C410.385 526.053 413.342 524.131 413.342 520.337V490.126C413.342 486.331 410.385 484.409 406.787 484.409H392.248V484.458ZM471.644 494.709V489.584C471.644 485.789 468.687 483.867 465.089 483.867H457.007C453.508 483.867 450.551 485.789 450.551 489.584V520.928C450.551 524.723 453.508 526.645 457.007 526.645H465.089C468.687 526.645 471.644 524.723 471.644 520.928V514.373H460.703V501.855H485.591V523.984C485.591 531.77 478.741 539.114 466.765 539.114H456.12C443.75 539.114 436.456 531.82 436.456 523.984V486.528C436.456 478.741 443.75 471.398 456.12 471.398H466.765C478.741 471.398 485.591 478.692 485.591 486.528V494.709H471.644ZM538.177 538.522H496.089V471.94H537.241V484.409H510.184V498.652H533.938V511.121H510.184V526.152H538.226V538.522H538.177Z" fill="white"/>
<path d="M308.318 202.95L434.534 169.979V221.776L308.318 256.62V202.95ZM308.318 355.532L434.534 320.688V268.842L308.318 301.813V355.532ZM308.318 104.58V158.249L434.534 123.406V71.6089L308.318 104.58Z" fill="url(#paint0_linear_2_3459)"/>
<path d="M156.722 123.653V71.8555L282.001 104.58V0C233.112 31.6401 104.925 31.6894 104.925 31.6894C161.453 148.639 102.066 232.027 102.066 232.027C161.502 364.255 282.001 444.489 282.001 444.489V158.25L156.722 123.653Z" fill="url(#paint1_linear_2_3459)"/>
<path d="M18.1853 581.251V582.631C18.1853 584.75 20.058 586.081 22.4236 586.081H25.7749C28.1898 586.081 30.0626 584.947 30.0626 582.779V581.497C30.0626 577.9 14.3904 577.062 14.3904 568.733V565.973C14.3904 562.72 17.2982 559.665 22.0294 559.665H25.8242C30.8512 559.665 34.0053 562.769 34.0053 566.219V569.521H29.1755V567.254C29.1755 565.184 27.4013 563.952 25.2328 563.952H22.7686C20.7973 563.952 19.1709 565.135 19.1709 567.008V568.338C19.1709 572.774 34.7938 573.612 34.7938 580.758V583.814C34.7938 587.461 31.5411 590.368 26.3171 590.368H22.0787C16.756 590.368 13.3555 587.165 13.3555 583.666V581.3H18.1853V581.251ZM105.91 590.073V564.199H98.1725V559.911H117.837V564.199H110.691V590.073H105.91ZM195.655 590.368H190.481C185.503 590.368 182.25 587.165 182.25 583.666V559.911H187.129V582.631C187.129 584.75 188.756 586.081 190.776 586.081H195.113C197.134 586.081 198.76 584.75 198.76 582.631V559.911H203.59V583.666C203.639 587.165 200.584 590.368 195.655 590.368ZM270.123 559.911H283.627C288.506 559.911 291.561 563.114 291.561 566.614V583.321C291.561 586.869 288.506 590.023 283.627 590.023H270.123V559.911ZM274.953 564.199V585.834H283.085C285.155 585.834 286.781 584.503 286.781 582.384V567.649C286.781 565.529 285.155 564.199 283.085 564.199H274.953ZM357.799 590.073V559.862H362.628V590.073H357.799ZM436.997 590.368C431.97 590.368 428.767 587.165 428.767 583.666V566.416C428.767 562.868 431.97 559.714 436.997 559.714H442.32C447.199 559.714 450.255 562.917 450.255 566.416V583.666C450.255 587.214 447.199 590.368 442.32 590.368H436.997ZM441.728 586.081C443.798 586.081 445.425 584.75 445.425 582.631V567.402C445.425 565.283 443.798 563.952 441.728 563.952H437.244C435.272 563.952 433.597 565.283 433.597 567.402V582.631C433.597 584.75 435.272 586.081 437.244 586.081H441.728ZM520.287 581.251V582.631C520.287 584.75 522.159 586.081 524.525 586.081H527.876C530.291 586.081 532.164 584.947 532.164 582.779V581.497C532.164 577.9 516.492 577.062 516.492 568.733V565.973C516.492 562.72 519.399 559.665 524.131 559.665H527.925C532.952 559.665 536.107 562.769 536.107 566.219V569.521H531.326V567.254C531.326 565.184 529.552 563.952 527.383 563.952H524.87C522.899 563.952 521.272 565.135 521.272 567.008V568.338C521.272 572.774 536.895 573.612 536.895 580.758V583.814C536.895 587.461 533.642 590.368 528.418 590.368H524.18C518.857 590.368 515.457 587.165 515.457 583.666V581.3H520.287V581.251Z" fill="white"/>
<defs>
<linearGradient id="paint0_linear_2_3459" x1="308.342" y1="213.57" x2="434.548" y2="213.57" gradientUnits="userSpaceOnUse">
<stop stop-color="#5CC3DC"/>
<stop offset="1" stop-color="#037FC3"/>
</linearGradient>
<linearGradient id="paint1_linear_2_3459" x1="102.065" y1="222.253" x2="282.021" y2="222.253" gradientUnits="userSpaceOnUse">
<stop offset="0.03" stop-color="#68C6DE"/>
<stop offset="1" stop-color="#037FC3"/>
</linearGradient>
</defs>
</svg>
