<svg width="126" height="116" viewBox="0 0 1260 1164" fill="none" xmlns="http://www.w3.org/2000/svg">
<path d="M203.554 1160.46H213.651V1100.72L273.67 1163.82V1080.53H263.573V1139.7L203.554 1076.6V1160.46ZM134.279 1160.46H177.19V1151.2H144.096V1120.91H176.069V1111.66H144.096V1089.22H177.19V1079.96H134.279V1160.46ZM343.225 1089.5H324.154V1160.46H314.057V1089.5H294.985V1080.25H342.945V1089.5H343.225ZM366.223 1160.46H409.135V1151.2H376.04V1120.91H408.013V1111.66H376.04V1089.22H409.135V1079.96H366.223V1160.46ZM484.299 1103.24C484.58 1114.46 476.446 1124.28 464.947 1125.68L490.189 1160.46H478.129L454.57 1126.52H450.363V1160.46H440.266V1080.25H452.326C459.338 1080.25 467.191 1080.24 473.361 1083.89C480.372 1088.1 484.58 1095.39 484.299 1103.24ZM453.167 1089.22H450.643V1118.11H453.728C463.825 1118.11 475.044 1116.14 475.044 1103.52C475.044 1091.18 463.264 1089.22 453.167 1089.22ZM534.783 1089.5H553.854V1080.25H505.895V1089.5H524.966V1160.46H535.063L534.783 1089.5ZM636.872 1160.46L627.616 1140.26H590.876L581.62 1160.46H570.963L609.106 1076.88L647.249 1160.46H636.872ZM609.386 1099.04L595.083 1131.57H623.69L609.386 1099.04ZM678.941 1080.53H668.845V1160.74H678.941V1080.53ZM714.841 1160.46H704.744V1076.6L764.764 1139.7V1080.53H774.86V1163.82L714.841 1100.72V1160.46ZM842.733 1162.14L866.853 1107.45H867.133L876.388 1160.46H886.766L870.499 1076.88L843.013 1139.98L815.528 1076.88L799.261 1160.46H809.638L818.893 1107.45H819.174L842.733 1162.14ZM958.564 1160.46H915.653V1080.25H958.564V1089.5H925.47V1111.94H957.723V1121.19H925.75V1151.48H958.845L958.564 1160.46ZM986.05 1160.46H996.147V1100.72L1056.17 1163.82V1080.53H1046.07V1139.7L986.05 1076.6V1160.46ZM1126 1089.5H1106.93V1160.46H1096.83V1089.5H1077.76V1080.25H1126V1089.5Z" fill="url(#paint0_radial_1205_3)"/>
<path d="M0.216797 973.388H24.0563V830.912L167.654 981.241V782.111H143.815V923.465L0.216797 773.136V973.388ZM209.443 973.388H312.093V951.512H233.283V879.152H309.85V857.276H233.283V803.707H312.093V781.831H209.443V973.388ZM458.776 803.987H413.341V973.388H389.501V803.987H344.066V782.111H458.776V803.987ZM592.277 876.908V898.785H641.639C640.517 929.916 608.544 955.719 579.096 955.719C537.867 955.719 504.772 917.576 504.772 877.469C504.772 834.558 538.148 799.78 581.059 799.78C604.898 800.341 627.055 811.84 641.078 830.912L657.906 814.926C623.409 772.015 560.585 765.564 517.954 800.061C494.395 819.133 480.652 847.74 480.933 878.311C480.933 931.318 524.124 977.595 577.693 977.595C631.262 977.595 668.283 937.208 668.283 884.761V877.189L592.277 876.908ZM848.902 973.388L827.026 925.429H739.241L717.364 973.388H691.842L783.274 773.978L874.705 973.388H848.902ZM783.274 826.144L749.338 903.552H817.21L783.274 826.144ZM1005.68 977.315L1062.9 846.899H1063.46L1085.89 973.108H1110.58L1071.59 773.697L1005.96 924.307L940.334 773.697L901.349 973.108H926.03L948.467 846.899H949.028L1005.68 977.315ZM1259.78 973.388H1157.13V782.111H1259.78V803.987H1180.97V857.556H1257.54V879.432H1180.97V951.792H1259.78V973.388Z" fill="white"/>
<path d="M635.75 553.252L766.166 685.071H505.614L635.75 553.252Z" fill="#73C15D"/>
<path d="M635.749 553.252V685.071H505.333L635.749 553.252Z" fill="#34B778"/>
<path d="M855.634 327.478L1030.64 504.451L855.634 681.425L680.624 504.451L855.634 327.478Z" fill="#73C15D"/>
<path d="M855.634 504.451H1030.64L855.634 681.425L680.624 504.451H855.634Z" fill="#27B575"/>
<path d="M855.634 327.478V681.705L680.624 504.732L855.634 327.478Z" fill="#34B778"/>
<path d="M773.738 504.451H855.914V681.425L680.904 504.451H773.738Z" fill="#00926A"/>
<path d="M812.442 504.452C832.075 496.318 847.5 480.893 855.634 461.26C863.767 480.893 879.193 496.318 898.825 504.452C888.729 507.817 879.754 513.707 873.023 521.84C865.731 529.413 859.841 538.107 855.634 547.643C855.634 547.643 853.39 538.949 840.489 523.804C833.197 515.109 823.38 508.378 812.442 504.452Z" fill="white"/>
<path d="M855.633 387.778L972.306 504.451L855.633 621.125L738.96 504.451L855.633 387.778ZM855.633 431.25L782.151 504.732L855.633 578.214L929.115 504.732L855.633 431.25Z" fill="#010101"/>
<path d="M404.366 327.478L579.376 504.451L404.366 681.425L229.356 504.451L404.366 327.478Z" fill="#73C15D"/>
<path d="M404.366 504.451H579.376L404.366 681.425L229.356 504.451H404.366Z" fill="#27B575"/>
<path d="M404.366 327.478V681.705L229.356 504.732L404.366 327.478Z" fill="#34B778"/>
<path d="M322.19 504.451H404.366V681.425L229.356 504.451H322.19Z" fill="#00926A"/>
<path d="M361.175 504.452C380.807 496.318 396.233 480.893 404.366 461.26C412.5 480.893 427.925 496.318 447.558 504.452C437.461 507.817 428.486 513.707 421.755 521.84C414.463 529.413 408.573 538.107 404.366 547.643C404.366 547.643 402.123 538.949 389.221 523.804C381.649 515.109 372.113 508.378 361.175 504.452Z" fill="white"/>
<path d="M404.367 387.778L521.04 504.451L404.367 621.125L287.693 504.451L404.367 387.778ZM404.367 431.25L330.885 504.732L404.367 578.214L477.848 504.732L404.367 431.25Z" fill="#010101"/>
<path d="M632.945 0.17627L861.523 231.559L632.945 462.943L404.366 231.559L632.945 0.17627Z" fill="#73C15D"/>
<path d="M632.945 231.56H861.523L632.945 462.943L404.366 231.56H632.945Z" fill="#27B575"/>
<path d="M632.945 0.17627V462.943L404.366 231.559L632.945 0.17627Z" fill="#34B778"/>
<path d="M525.527 231.56H632.665V462.943L404.086 231.56H525.527Z" fill="#00926A"/>
<path d="M576.291 231.559C601.813 220.902 622.287 200.708 632.664 175.186C643.322 200.708 663.516 221.182 689.038 231.559C689.038 231.559 672.21 235.766 655.102 253.997C638.274 272.227 632.664 287.933 632.664 287.933C632.664 287.933 629.86 276.714 613.032 256.801C603.496 245.302 590.595 236.608 576.291 231.559Z" fill="white"/>
<path d="M632.945 85.718L778.787 231.56L632.945 377.401L487.104 231.56L632.945 85.718ZM632.945 128.91L530.576 231.279L632.945 333.649L735.315 231.279L632.945 128.91Z" fill="#010101"/>
<defs>
<radialGradient id="paint0_radial_1205_3" cx="0" cy="0" r="1" gradientUnits="userSpaceOnUse" gradientTransform="translate(635.458 1160.54) rotate(-90) scale(81.0917 571.136)">
<stop stop-color="#9A4D50"/>
<stop offset="1" stop-color="#BC7F6E"/>
</radialGradient>
</defs>
</svg>
