<svg width="100" height="36" viewBox="0 0 100 36" fill="none" xmlns="http://www.w3.org/2000/svg">
<path d="M62.846 18.8C62.846 19 62.846 19.101 62.846 19.2C62.846 20.4 62.846 21.6 62.846 22.7C62.846 23.6 62.045 24.3 61.346 24.2C60.946 24.2 60.646 24.2 60.246 24.2C60.146 24.2 60.046 24.2 60.046 24C60.046 20.7 60.046 17.4 60.046 14.101C60.046 13.401 60.046 12.601 60.347 11.901C60.646 11 61.146 10.3 61.946 9.8C63.546 9.1 65.146 8.7 66.846 9.1C67.446 9.2 68.046 9.50001 68.646 9.90001C69.346 10.4 69.747 11.1 70.045 11.9C70.545 13.2 70.646 14.6 70.445 16C70.345 17 70.045 17.9 69.445 18.7C68.246 20.5 66.246 20.8 64.545 20.2C63.946 20 63.446 19.6 63.146 19C62.946 18.9 62.946 18.9 62.846 18.8ZM67.546 14.7C67.646 14.7 67.646 14.7 67.546 14.7C67.546 14.2 67.446 13.7 67.347 13.3C67.247 12.7 66.947 12.2 66.447 11.8C65.146 10.9 63.446 11.6 63.046 13.1C62.846 13.9 62.846 14.8 62.946 15.7C63.046 16.4 63.247 17 63.747 17.4C64.847 18.4 66.646 18 67.247 16.6C67.546 16 67.646 15.4 67.546 14.7Z" fill="white"/>
<path d="M84.546 16.5C84.546 17.7 84.546 18.8 84.546 20C84.546 20.2 84.546 20.2 84.347 20.2C83.546 20.2 82.747 20.2 81.947 20.2C81.647 20.2 81.647 20.2 81.647 19.9C81.647 17.9 81.647 15.799 81.647 13.799C81.647 13.199 81.748 12.6 81.847 12.1C82.046 10.9 82.847 10.1 83.947 9.60002C85.847 8.70002 87.847 8.79902 89.647 9.90002C90.447 10.299 90.847 11 90.947 11.9C91.046 12.4 91.146 13 91.146 13.6C91.146 15.799 91.146 17.9 91.146 20.1C91.146 20.2 91.146 20.299 90.946 20.299C90.546 20.299 90.146 20.299 89.747 20.299C88.847 20.299 88.347 19.699 88.347 18.9C88.347 17.1 88.347 15.299 88.347 13.4C88.347 13 88.347 12.7 88.147 12.299C87.846 11.8 87.446 11.6 86.946 11.4C86.546 11.299 86.146 11.299 85.846 11.4C84.946 11.7 84.546 12.2 84.546 13.1C84.546 14.2 84.546 15.4 84.546 16.5Z" fill="white"/>
<path d="M92.0459 12.3C92.0459 10.3 92.0459 8.40101 92.0459 6.40101C92.0459 6.10101 92.0459 6.10101 92.4459 6.10101C92.8459 6.10101 93.1459 6.10101 93.5459 6.10101C94.2469 6.10101 94.9459 6.70101 94.9459 7.50001C94.9459 8.10101 94.9459 8.60101 94.9459 9.20001C94.9459 9.40001 94.9459 9.40001 95.1459 9.40001C95.5449 9.40001 96.0449 9.40001 96.4459 9.40001C96.5459 9.40001 96.6459 9.50001 96.6459 9.50001C96.6459 9.80001 96.6459 10.101 96.6459 10.3C96.4459 10.901 95.9459 11.3 95.2469 11.3C94.9459 11.3 94.9459 11.3 94.9459 11.6C94.9459 13.499 94.9459 15.4 94.9459 17.299C94.9459 17.799 95.1459 18.1 95.7469 18.1C96.0459 18.1 96.2469 18.1 96.5459 18.1C96.6469 18.1 96.7469 18.1 96.7469 18.299C96.7469 18.9 96.7469 19.499 96.7469 20.1C96.7469 20.2 96.7469 20.299 96.5459 20.299C95.5459 20.299 94.5459 20.299 93.6469 20.199C92.8469 20.199 92.3469 19.599 92.2479 18.899C92.2479 18.599 92.1469 18.399 92.1469 18.099C92.0459 16.1 92.0459 14.2 92.0459 12.3Z" fill="white"/>
<path d="M70.946 17.1C70.946 16.299 70.946 15.4 70.946 14.6C70.946 13.8 71.046 13 71.446 12.2C71.946 11 72.846 10.1 74.146 9.69999C74.946 9.39999 75.747 9.29999 76.545 9.29999C76.746 9.29999 76.846 9.29999 77.045 9.29999C77.246 9.29999 77.246 9.29999 77.246 9.49999C77.246 10.4 77.246 11.2 77.246 12.101C77.246 12.201 77.246 12.3 77.045 12.3C76.646 12.3 76.146 12.3 75.746 12.3C74.646 12.4 74.046 13 73.946 14.1C73.946 14.299 73.946 14.4 73.946 14.6C73.946 16.4 73.946 18.299 73.946 20.1C73.946 20.2 73.946 20.299 73.747 20.299C72.946 20.299 72.046 20.299 71.247 20.299C71.146 20.3 71.046 20.3 71.046 20.1C70.946 19 70.946 18.1 70.946 17.1Z" fill="white"/>
<path d="M78.046 14.7C78.046 12.9 78.046 11.2 78.046 9.40001C78.046 9.29901 78.046 9.20001 78.247 9.20001C78.646 9.20001 79.146 9.20001 79.546 9.20001C80.347 9.20001 80.946 9.80001 80.946 10.6C80.946 13.7 80.946 16.799 80.946 19.999C80.946 20.1 80.946 20.199 80.747 20.199C79.946 20.199 79.046 20.199 78.247 20.199C78.146 20.2 78.046 20.2 78.046 20C78.046 18.3 78.046 16.5 78.046 14.7Z" fill="white"/>
<path d="M81.346 25C81.246 25.2 81.146 25.5 81.146 25.7C80.747 26.9 80.346 28 79.946 29.2C79.946 29.3 79.8459 29.3 79.7469 29.3C79.5459 29.3 79.347 29.3 79.146 29.3C79.045 29.3 78.946 29.2 78.946 29.101C78.546 28 78.146 26.9 77.846 25.8C77.746 25.5 77.646 25.3 77.545 25C77.545 24.9 77.545 24.9 77.445 24.9V25C77.445 26.3 77.445 27.7 77.545 29C77.545 29.101 77.545 29.2 77.346 29.2C77.045 29.2 76.746 29.2 76.446 29.2C76.346 29.2 76.2469 29.1 76.2469 29C76.2469 27.101 76.2469 25.101 76.2469 23.2C76.2469 23 76.347 23 76.446 23C76.846 23 77.247 23 77.646 23C77.747 23 77.846 23 77.946 23.2C78.247 24 78.4459 24.8 78.7469 25.5C78.9459 26.101 79.146 26.7 79.347 27.4C79.347 27.4 79.347 27.4 79.447 27.5C79.447 27.4 79.547 27.4 79.547 27.3C80.047 25.901 80.547 24.601 80.947 23.2C80.947 23.1 81.0469 23 81.1469 23C81.5459 23 81.947 23 82.447 23C82.547 23 82.6469 23.101 82.6469 23.2C82.6469 25.2 82.6469 27.1 82.6469 29.1C82.6469 29.2 82.647 29.299 82.447 29.299C82.147 29.299 81.847 29.299 81.547 29.299C81.447 29.299 81.348 29.299 81.348 29.199C81.348 27.999 81.348 26.799 81.348 25.599C81.346 25.4 81.346 25.2 81.346 25Z" fill="white"/>
<path d="M70.2471 24.9C69.9461 24.9 69.7471 24.9 69.4461 24.9H69.3461C69.0451 24.9 68.7461 24.799 68.5451 24.6C67.6461 23.8 66.1461 24.2 65.6461 25.4C65.1461 26.5 65.7471 27.799 66.8461 28.1C67.6461 28.4 68.6461 28 69.0461 27.2V27.1C68.9461 27.1 68.9461 27.1 68.8471 27.1C68.1471 27.1 67.4471 27.1 66.7471 27.1C66.6461 27.1 66.5461 27.1 66.5461 26.9C66.5461 26.7 66.5461 26.5 66.5461 26.2C66.5461 26 66.5461 26 66.7471 26C67.9461 26 69.1461 26 70.2471 26C70.3471 26 70.4461 26.101 70.4461 26.2C70.5461 27.9 69.0461 29.4 67.4461 29.4C65.7471 29.5 64.5461 28.299 64.1461 27C63.6461 25.1 65.0461 23.1 67.0461 22.9C68.0461 22.799 68.9461 23.1 69.5461 23.799C69.9461 24.2 70.0461 24.5 70.2471 24.9Z" fill="white"/>
<path d="M96.247 24.9C95.747 24.9 95.347 24.9 94.847 24.9C94.747 24.9 94.747 24.799 94.647 24.799C94.046 24.2 93.346 24.1 92.646 24.4C91.946 24.7 91.446 25.3 91.446 26C91.346 27 91.946 27.8 92.846 28.101C93.746 28.401 94.646 28 95.045 27.201V27.101C94.945 27.101 94.945 27.101 94.945 27.101C94.246 27.101 93.545 27.101 92.845 27.101C92.745 27.101 92.645 27.101 92.645 26.901C92.645 26.701 92.645 26.501 92.645 26.201C92.645 26.101 92.645 26.001 92.845 26.001C94.044 26.001 95.245 26.001 96.345 26.001C96.445 26.001 96.544 26.102 96.544 26.201C96.645 27.801 95.345 29.301 93.745 29.401C92.346 29.5 91.146 28.8 90.546 27.6C89.747 25.9 90.446 23.9 92.147 23.2C93.748 22.5 95.546 23.2 96.248 24.7C96.247 24.8 96.247 24.9 96.247 24.9Z" fill="white"/>
<path d="M86.146 25.3C86.146 25.7 86.146 26 86.146 26.401C86.146 27.3 86.146 28.201 86.146 29.101C86.146 29.3 86.146 29.3 85.946 29.3C85.646 29.3 85.446 29.3 85.146 29.3C85.045 29.3 84.946 29.3 84.946 29.101C84.946 27.201 84.946 25.201 84.946 23.3C84.946 23.101 84.946 23.101 85.146 23.101C85.346 23.101 85.646 23.101 85.846 23.101C86.045 23.101 86.146 23.201 86.246 23.3C86.746 24 87.145 24.7 87.645 25.401C87.945 25.901 88.246 26.401 88.645 26.901C88.645 26.901 88.746 26.901 88.746 27.001C88.746 26.901 88.746 26.801 88.746 26.701C88.746 25.601 88.746 24.401 88.746 23.301C88.746 23.201 88.746 23.102 88.945 23.102C89.246 23.102 89.545 23.102 89.746 23.102C89.945 23.102 89.945 23.202 89.945 23.301C89.945 24.701 89.945 26.201 89.945 27.602C89.945 28.102 89.945 28.602 89.945 29.102C89.945 29.202 89.945 29.301 89.746 29.301C89.445 29.301 89.246 29.301 88.945 29.301C88.845 29.301 88.746 29.201 88.746 29.201C87.946 28 87.146 26.7 86.346 25.5C86.247 25.4 86.247 25.4 86.146 25.3Z" fill="white"/>
<path d="M70.046 29.3C70.247 28.8 70.446 28.3 70.647 27.8C71.248 26.3 71.847 24.8 72.347 23.3C72.447 23.101 72.546 23 72.747 23.101C72.946 23.101 73.146 23.101 73.347 23.101C73.447 23.101 73.546 23.101 73.546 23.3C73.946 24.4 74.346 25.5 74.846 26.6C75.146 27.499 75.545 28.299 75.846 29.2V29.3C75.746 29.3 75.746 29.3 75.746 29.3C75.445 29.3 75.045 29.3 74.746 29.3C74.645 29.3 74.545 29.3 74.545 29.101C74.446 28.8 74.346 28.5 74.146 28.1C74.146 27.999 74.045 27.9 73.946 27.9C73.346 27.9 72.646 27.9 72.046 27.9C71.946 27.9 71.847 28 71.847 28.1C71.747 28.4 71.647 28.7 71.546 28.999C71.446 29.1 71.446 29.199 71.247 29.199C70.747 29.3 70.346 29.3 70.046 29.3ZM72.946 25C72.646 25.601 72.446 26.3 72.146 26.9C72.646 26.9 73.146 26.9 73.646 26.9C73.446 26.2 73.146 25.6 72.946 25Z" fill="white"/>
<path d="M83.146 26.2C83.146 25.2 83.146 24.2 83.146 23.3C83.146 23.101 83.247 23.101 83.346 23.101C83.646 23.101 83.846 23.101 84.146 23.101C84.446 23.101 84.446 23.101 84.446 23.3C84.446 24.5 84.446 25.7 84.446 26.8C84.446 27.5 84.446 28.3 84.446 29C84.446 29.101 84.446 29.2 84.247 29.2C83.946 29.2 83.646 29.2 83.446 29.2C83.346 29.2 83.247 29.2 83.247 29C83.146 28.2 83.146 27.2 83.146 26.2Z" fill="white"/>
<path d="M79.446 8.3C79.046 8.3 78.646 8.3 78.146 8.3C77.946 8.3 77.946 8.3 77.946 8.101C77.946 7.5 77.946 6.8 77.946 6.201C77.946 6.101 77.946 6.001 78.146 6.001C78.546 6 79.046 6 79.446 6C80.247 6 80.846 6.601 80.846 7.4C80.846 7.6 80.846 7.799 80.846 8.1C80.846 8.2 80.846 8.299 80.646 8.299C80.247 8.3 79.846 8.3 79.446 8.3Z" fill="white"/>
<path d="M98.146 21.7C98.146 21.9 98.146 22 98.146 22.2C98.146 22.5 98.146 22.8 98.146 23.1C98.146 23.2 98.046 23.2 98.046 23.3C98.046 23.2 97.946 23.2 97.946 23.101C97.946 22.601 97.946 22 97.946 21.5C97.946 21.4 97.946 21.3 98.046 21.3C98.147 21.3 98.247 21.3 98.247 21.401C98.446 21.901 98.646 22.3 98.747 22.8L98.847 22.901L98.947 22.8C99.147 22.3 99.347 21.901 99.547 21.401C99.547 21.3 99.648 21.3 99.748 21.3L99.848 21.401C99.848 22.001 99.848 22.501 99.848 23.101L99.748 23.201C99.748 23.101 99.647 23.101 99.647 23.001C99.647 22.602 99.647 22.102 99.647 21.701C99.647 21.701 99.647 21.601 99.647 21.501C99.647 21.602 99.546 21.602 99.546 21.701C99.346 22.1 99.247 22.6 99.046 23C99.046 23.101 98.946 23.101 98.946 23.2C98.846 23.1 98.846 23.1 98.747 23C98.546 22.6 98.446 22.1 98.146 21.7Z" fill="white"/>
<path d="M97.446 22.4C97.446 22.6 97.446 22.9 97.446 23.1C97.446 23.2 97.346 23.2 97.346 23.299C97.346 23.199 97.246 23.199 97.246 23.1C97.246 22.6 97.246 22.2 97.246 21.7C97.246 21.6 97.246 21.5 97.045 21.5H96.945L96.845 21.4L96.945 21.299C97.246 21.299 97.445 21.299 97.746 21.299L97.846 21.4C97.846 21.4 97.846 21.5 97.746 21.5C97.746 21.5 97.645 21.5 97.545 21.5C97.445 21.5 97.346 21.5 97.346 21.7C97.446 21.9 97.446 22.1 97.446 22.4Z" fill="white"/>
<path d="M11.8461 24.2C15.1598 24.2 17.8461 21.5137 17.8461 18.2C17.8461 14.8863 15.1598 12.2 11.8461 12.2C8.53236 12.2 5.84607 14.8863 5.84607 18.2C5.84607 21.5137 8.53236 24.2 11.8461 24.2Z" fill="url(#paint0_linear_6482_530440)"/>
<path d="M23.246 15.7C21.446 15.6 19.646 15.5 17.746 15.4C18.946 13.799 20.046 12.4 21.146 10.9C19.346 11.6 17.646 12.4 15.846 13.2C16.246 11.6 16.646 10 17.046 8.4C16.046 9.299 15.146 10.2 14.046 11.1C13.946 9.5 13.846 8 13.746 6.5C13.646 6.5 13.646 6.5 13.646 6.5C12.746 8.101 11.746 9.8 10.846 11.4C9.84602 10 8.94602 8.6 8.04602 7.2C7.94602 7.2 7.94602 7.2 7.94602 7.2C8.04602 8.9 8.24602 10.6 8.34602 12.4C6.94602 11.4 5.34602 10.2 3.84602 9.1C4.54602 10.7 5.14602 12.3 5.94602 13.9C4.44602 13.6 3.04602 13.3 1.64602 13C2.94602 14.2 4.14602 15.5 5.54602 16.7C3.64602 17 1.84602 17.4 0.0460205 17.7C0.0460205 17.8 0.0460205 17.8 0.0460205 17.8C1.64602 18.3 3.14602 18.9 4.74602 19.4C3.34602 20.2 2.04602 21 0.74602 21.8C0.74602 21.901 0.74602 21.901 0.74602 21.901C2.44602 21.701 4.24602 21.501 6.14602 21.3C5.04602 22.8 3.94602 24.2 2.74602 25.6C4.34602 24.8 6.14602 24 7.84602 23.1C7.54602 25 7.24602 26.8 6.94602 28.7C7.04602 28.7 7.04602 28.7 7.04602 28.7C8.04602 27.5 9.04602 26.2 10.146 25C10.546 26.3 10.946 27.5 11.446 28.8C11.546 28.8 11.546 28.8 11.546 28.8C11.946 27.5 12.446 26.3 12.846 25C13.846 26.3 15.046 27.7 16.046 29C15.946 27.101 15.746 25.101 15.546 23.2C17.146 24.2 18.646 25.1 20.146 26.1C19.446 24.4 18.746 22.6 18.046 20.9C19.646 20.9 21.246 20.799 22.846 20.799C22.846 20.699 22.846 20.699 22.846 20.699C21.346 19.999 19.846 19.399 18.246 18.799C19.846 18 21.546 16.8 23.246 15.7ZM11.746 24.1C8.64602 24 5.74602 21.4 5.94602 17.8C6.04602 14.8 8.54602 12.2 11.846 12.2C15.146 12.2 17.746 14.9 17.746 18.1C17.746 21.3 15.146 24 11.746 24.1Z" fill="#FFCC00"/>
<path d="M15.746 19.6C15.646 19.4 15.546 19.1 15.346 18.9C15.246 18.8 15.246 18.8 15.246 18.8C15.246 18.901 15.246 18.901 15.246 18.901C15.346 19.001 15.346 19.201 15.346 19.3C14.046 19.8 9.74597 19.7 8.04597 19.2C8.14597 19.1 8.34597 18.8 8.24597 18.6C7.94597 18.999 7.64597 19.4 7.24597 19.7C7.54597 19.7 7.64597 19.5 7.84597 19.4C8.24597 19.9 8.54597 20.4 9.04597 20.9C9.94597 21.799 10.946 22.2 12.146 22.1C12.946 21.999 13.646 21.7 14.246 21.1C14.746 20.7 15.246 20.1 15.546 19.499C15.646 19.6 15.746 19.699 15.946 19.899H16.046C15.946 19.8 15.946 19.8 15.946 19.8C15.846 19.8 15.746 19.7 15.746 19.6ZM14.746 20.4C14.246 21 13.646 21.5 12.846 21.799C11.646 22.199 10.646 21.999 9.54597 21.299C9.04597 20.9 8.34597 20.1 8.14597 19.6C10.546 20.1 12.846 20.1 15.146 19.7C15.046 19.9 14.846 20.1 14.746 20.4Z" fill="#242422"/>
<path d="M14.3461 17.4C14.4461 17.299 14.5461 17.299 14.5461 17.299C14.5461 17.1 14.5461 16.9 14.6461 16.699C14.4461 16.7 14.2461 17.1 14.3461 17.4Z" fill="white"/>
<path d="M15.046 16.8C14.946 16.6 14.946 16.4 14.646 16.4C14.546 16.4 14.346 16.5 14.246 16.7C13.846 17.4 14.046 18 14.146 18C14.246 18.3 14.546 18.4 14.746 18.101C15.146 17.8 15.146 17.3 15.046 16.8ZM14.546 17.3C14.546 17.401 14.446 17.401 14.346 17.401C14.246 17.001 14.446 16.701 14.646 16.701C14.546 16.8 14.546 17.1 14.546 17.3Z" fill="#242422"/>
<path d="M8.246 16.1C8.146 16 7.846 16.2 7.846 16.3C7.746 16.6 7.646 16.9 7.646 17.2C7.646 17.3 7.646 17.3 7.646 17.3C7.646 17.5 7.746 17.8 8.046 17.8C8.146 17.8 8.446 17.7 8.446 17.401C8.546 17.101 8.646 16.701 8.546 16.401C8.546 16.3 8.446 16.2 8.246 16.1ZM7.946 17C7.946 17.1 7.846 17.1 7.746 17.1C7.646 16.7 7.846 16.4 8.146 16.4C8.046 16.6 8.046 16.8 7.946 17Z" fill="#242422"/>
<path d="M10.946 18C11.246 18 11.446 18 11.746 18C11.746 18.101 11.746 18.101 11.746 18.2C11.746 18.299 11.746 18.3 11.746 18.3C11.846 18.3 11.846 18.3 11.846 18.3C11.846 18.2 11.946 18.2 11.946 18.2C12.046 18 11.946 17.8 11.746 17.8C11.446 17.8 11.246 17.8 10.946 17.8C10.546 17.8 10.246 17.601 10.246 17.2C10.146 16.8 10.246 16.4 10.546 16.1C10.846 15.7 11.246 15.499 11.746 15.4C11.846 15.4 11.846 15.299 11.946 15.299C11.846 15.199 11.746 15.199 11.646 15.199C11.246 15.299 10.846 15.499 10.546 15.799C10.246 16.1 10.046 16.4 10.046 16.8C9.84601 17.6 10.346 18 10.946 18Z" fill="#242422"/>
<path d="M8.34602 15.4C8.94602 15.5 9.04602 16 9.14602 16.5C9.24602 15.8 8.84602 15.2 8.34602 15.2C7.64602 15.1 7.24602 15.6 7.04602 16.2C7.34602 15.7 7.64602 15.3 8.34602 15.4Z" fill="#242422"/>
<path d="M14.846 15.7C15.446 15.8 15.746 16.3 15.846 16.9C15.846 16.2 15.446 15.6 14.846 15.5C14.146 15.4 13.846 15.9 13.646 16.5C13.946 16 14.246 15.6 14.846 15.7Z" fill="#242422"/>
<path d="M11.8461 24.2C15.1598 24.2 17.8461 21.5137 17.8461 18.2C17.8461 14.8863 15.1598 12.2 11.8461 12.2C8.53236 12.2 5.84607 14.8863 5.84607 18.2C5.84607 21.5137 8.53236 24.2 11.8461 24.2Z" fill="url(#paint1_linear_6482_530440)"/>
<path d="M23.246 15.7C21.446 15.6 19.646 15.5 17.746 15.4C18.946 13.799 20.046 12.4 21.146 10.9C19.346 11.6 17.646 12.4 15.846 13.2C16.246 11.6 16.646 10 17.046 8.4C16.046 9.299 15.146 10.2 14.046 11.1C13.946 9.5 13.846 8 13.746 6.5C13.646 6.5 13.646 6.5 13.646 6.5C12.746 8.101 11.746 9.8 10.846 11.4C9.84602 10 8.94602 8.6 8.04602 7.2C7.94602 7.2 7.94602 7.2 7.94602 7.2C8.04602 8.9 8.24602 10.6 8.34602 12.4C6.94602 11.4 5.34602 10.2 3.84602 9.1C4.54602 10.7 5.14602 12.3 5.94602 13.9C4.44602 13.6 3.04602 13.3 1.64602 13C2.94602 14.2 4.14602 15.5 5.54602 16.7C3.64602 17 1.84602 17.4 0.0460205 17.7C0.0460205 17.8 0.0460205 17.8 0.0460205 17.8C1.64602 18.3 3.14602 18.9 4.74602 19.4C3.34602 20.2 2.04602 21 0.74602 21.8C0.74602 21.901 0.74602 21.901 0.74602 21.901C2.44602 21.701 4.24602 21.501 6.14602 21.3C5.04602 22.8 3.94602 24.2 2.74602 25.6C4.34602 24.8 6.14602 24 7.84602 23.1C7.54602 25 7.24602 26.8 6.94602 28.7C7.04602 28.7 7.04602 28.7 7.04602 28.7C8.04602 27.5 9.04602 26.2 10.146 25C10.546 26.3 10.946 27.5 11.446 28.8C11.546 28.8 11.546 28.8 11.546 28.8C11.946 27.5 12.446 26.3 12.846 25C13.846 26.3 15.046 27.7 16.046 29C15.946 27.101 15.746 25.101 15.546 23.2C17.146 24.2 18.646 25.1 20.146 26.1C19.446 24.4 18.746 22.6 18.046 20.9C19.646 20.9 21.246 20.799 22.846 20.799C22.846 20.699 22.846 20.699 22.846 20.699C21.346 19.999 19.846 19.399 18.246 18.799C19.846 18 21.546 16.8 23.246 15.7ZM11.746 24.1C8.64602 24 5.74602 21.4 5.94602 17.8C6.04602 14.8 8.54602 12.2 11.846 12.2C15.146 12.2 17.746 14.9 17.746 18.1C17.746 21.3 15.146 24 11.746 24.1Z" fill="#FFCC00"/>
<path d="M15.746 19.6C15.646 19.4 15.546 19.1 15.346 18.9C15.246 18.8 15.246 18.8 15.246 18.8C15.246 18.901 15.246 18.901 15.246 18.901C15.346 19.001 15.346 19.201 15.346 19.3C14.046 19.8 9.74597 19.7 8.04597 19.2C8.14597 19.1 8.34597 18.8 8.24597 18.6C7.94597 18.999 7.64597 19.4 7.24597 19.7C7.54597 19.7 7.64597 19.5 7.84597 19.4C8.24597 19.9 8.54597 20.4 9.04597 20.9C9.94597 21.799 10.946 22.2 12.146 22.1C12.946 21.999 13.646 21.7 14.246 21.1C14.746 20.7 15.246 20.1 15.546 19.499C15.646 19.6 15.746 19.699 15.946 19.899H16.046C15.946 19.8 15.946 19.8 15.946 19.8C15.846 19.8 15.746 19.7 15.746 19.6ZM14.746 20.4C14.246 21 13.646 21.5 12.846 21.799C11.646 22.199 10.646 21.999 9.54597 21.299C9.04597 20.9 8.34597 20.1 8.14597 19.6C10.546 20.1 12.846 20.1 15.146 19.7C15.046 19.9 14.846 20.1 14.746 20.4Z" fill="#242422"/>
<path d="M14.3461 17.4C14.4461 17.299 14.5461 17.299 14.5461 17.299C14.5461 17.1 14.5461 16.9 14.6461 16.699C14.4461 16.7 14.2461 17.1 14.3461 17.4Z" fill="white"/>
<path d="M15.046 16.8C14.946 16.6 14.946 16.4 14.646 16.4C14.546 16.4 14.346 16.5 14.246 16.7C13.846 17.4 14.046 18 14.146 18C14.246 18.3 14.546 18.4 14.746 18.101C15.146 17.8 15.146 17.3 15.046 16.8ZM14.546 17.3C14.546 17.401 14.446 17.401 14.346 17.401C14.246 17.001 14.446 16.701 14.646 16.701C14.546 16.8 14.546 17.1 14.546 17.3Z" fill="#242422"/>
<path d="M8.246 16.1C8.146 16 7.846 16.2 7.846 16.3C7.746 16.6 7.646 16.9 7.646 17.2C7.646 17.3 7.646 17.3 7.646 17.3C7.646 17.5 7.746 17.8 8.046 17.8C8.146 17.8 8.446 17.7 8.446 17.401C8.546 17.101 8.646 16.701 8.546 16.401C8.546 16.3 8.446 16.2 8.246 16.1ZM7.946 17C7.946 17.1 7.846 17.1 7.746 17.1C7.646 16.7 7.846 16.4 8.146 16.4C8.046 16.6 8.046 16.8 7.946 17Z" fill="#242422"/>
<path d="M10.946 18C11.246 18 11.446 18 11.746 18C11.746 18.101 11.746 18.101 11.746 18.2C11.746 18.299 11.746 18.3 11.746 18.3C11.846 18.3 11.846 18.3 11.846 18.3C11.846 18.2 11.946 18.2 11.946 18.2C12.046 18 11.946 17.8 11.746 17.8C11.446 17.8 11.246 17.8 10.946 17.8C10.546 17.8 10.246 17.601 10.246 17.2C10.146 16.8 10.246 16.4 10.546 16.1C10.846 15.7 11.246 15.499 11.746 15.4C11.846 15.4 11.846 15.299 11.946 15.299C11.846 15.199 11.746 15.199 11.646 15.199C11.246 15.299 10.846 15.499 10.546 15.799C10.246 16.1 10.046 16.4 10.046 16.8C9.84601 17.6 10.346 18 10.946 18Z" fill="#242422"/>
<path d="M8.34602 15.4C8.94602 15.5 9.04602 16 9.14602 16.5C9.24602 15.8 8.84602 15.2 8.34602 15.2C7.64602 15.1 7.24602 15.6 7.04602 16.2C7.34602 15.7 7.64602 15.3 8.34602 15.4Z" fill="#242422"/>
<path d="M14.846 15.7C15.446 15.8 15.746 16.3 15.846 16.9C15.846 16.2 15.446 15.6 14.846 15.5C14.146 15.4 13.846 15.9 13.646 16.5C13.946 16 14.246 15.6 14.846 15.7Z" fill="#242422"/>
<path d="M38.446 20.2C38.646 20.2 38.646 20.1 38.646 20C38.646 15.7 38.646 11.5 38.646 7.3C38.646 6.6 38.046 6 37.346 6C36.946 6 36.446 6 35.946 6C35.746 6 35.746 6.101 35.746 6.2C35.746 8.5 35.746 10.8 35.746 13.1C35.746 15.4 35.746 17.7 35.646 19.999C35.646 20.199 35.746 20.199 35.846 20.199C36.746 20.2 37.546 20.2 38.446 20.2Z" fill="url(#paint2_linear_6482_530440)"/>
<path d="M42.4459 9.60002C42.4459 9.40002 42.3459 9.40002 42.2459 9.40002C41.3459 9.40002 40.5459 9.40002 39.6459 9.40002C39.4459 9.40002 39.4459 9.50002 39.4459 9.60002C39.4459 11.7 39.4459 13.7 39.4459 15.799C39.4459 16.299 39.4459 16.9 39.5459 17.4C39.7459 18.4 40.2459 19.299 41.2459 19.799C42.9459 20.699 44.7459 20.799 46.6459 20.1C47.4459 19.799 48.1459 19.299 48.5459 18.4C48.8459 17.799 48.9459 17.2 48.9459 16.5C48.9459 14.2 48.9459 11.9 48.9459 9.60102C48.9459 9.40102 48.8459 9.40102 48.7459 9.40102C48.3459 9.40102 47.8459 9.40102 47.4459 9.40102C47.2459 9.40102 47.0459 9.50102 46.9459 9.50102C46.4459 9.60002 46.0459 10.2 46.0459 10.8C46.0459 12.601 46.0459 14.401 46.0459 16.2C46.0459 16.3 46.0459 16.5 46.0459 16.7C46.0459 17.1 45.8459 17.5 45.4459 17.8C44.7459 18.3 44.0459 18.4 43.3459 18.1C42.8459 17.9 42.4459 17.6 42.3459 16.999C42.2459 16.699 42.2459 16.499 42.2459 16.199C42.2459 15.099 42.2459 13.999 42.2459 12.899C42.2459 11.7 42.2459 10.6 42.4459 9.60002Z" fill="url(#paint3_linear_6482_530440)"/>
<path d="M26.246 6.09998C25.846 6.09998 25.346 6.09998 24.946 6.09998C24.746 6.09998 24.746 6.19998 24.746 6.29898C24.746 9.39998 24.746 12.499 24.746 15.6C24.746 16.2 24.846 16.799 24.946 17.4C25.146 18.299 25.646 19 26.446 19.5C28.146 20.601 30.046 20.8 31.946 20.3C32.646 20.101 33.146 19.901 33.646 19.401C34.146 18.8 34.546 18.101 34.746 17.401C35.146 16.401 35.246 15.3 35.146 14.3C35.046 13.2 34.846 12.2 34.346 11.3C33.446 9.79998 32.246 8.89998 30.546 8.99998C29.346 8.99998 28.446 9.49998 27.646 10.601C27.546 9.40098 27.646 8.40098 27.546 7.49998C27.546 6.69998 26.946 6.09998 26.246 6.09998ZM27.846 12.9C28.146 12 28.846 11.5 29.846 11.5C30.846 11.4 31.546 11.9 31.946 12.8C32.146 13.4 32.246 14 32.246 14.7C32.246 15.3 32.246 16 31.946 16.6C31.646 17.5 30.846 18 29.846 18C28.846 18 28.146 17.5 27.846 16.601C27.446 15.3 27.446 14.1 27.846 12.9Z" fill="url(#paint4_linear_6482_530440)"/>
<path d="M56.446 9.29998C55.446 8.99998 54.446 8.90098 53.446 9.10098C51.747 9.29998 50.646 10.3 50.046 11.9C49.346 13.7 49.446 15.4 49.946 17.2C50.346 18.6 51.247 19.6 52.646 20.1C53.646 20.499 54.646 20.499 55.646 20.299C56.946 20.1 58.045 19.499 58.846 18.299C59.146 17.799 59.346 17.299 59.446 16.799C59.346 16.799 59.346 16.799 59.346 16.799C58.746 16.799 58.246 16.799 57.646 16.799C57.146 16.799 56.646 16.999 56.346 17.4C56.146 17.7 55.746 17.9 55.346 18C54.446 18.1 53.646 18.1 53.046 17.3C52.747 16.901 52.546 16.401 52.546 15.8C52.446 15.5 52.446 15.5 52.747 15.5C54.946 15.5 57.247 15.5 59.446 15.5C59.546 15.5 59.646 15.4 59.646 15.3C59.646 14.901 59.646 14.601 59.646 14.2C59.646 13.3 59.446 12.5 59.146 11.7C58.546 10.5 57.747 9.69998 56.446 9.29998ZM56.346 13.6C55.746 13.6 55.146 13.6 54.545 13.6C53.846 13.6 53.246 13.6 52.646 13.6C52.446 13.6 52.446 13.6 52.446 13.4C52.546 12.7 52.747 12.1 53.346 11.7C54.045 11.2 55.246 11.2 55.946 11.8C56.446 12.2 56.546 12.7 56.646 13.2C56.747 13.6 56.747 13.6 56.346 13.6Z" fill="url(#paint5_linear_6482_530440)"/>
<defs>
<linearGradient id="paint0_linear_6482_530440" x1="7.52657" y1="13.8791" x2="16.0431" y2="22.3958" gradientUnits="userSpaceOnUse">
<stop stop-color="white"/>
<stop offset="1" stop-color="#FFF2A9"/>
</linearGradient>
<linearGradient id="paint1_linear_6482_530440" x1="7.52657" y1="13.8791" x2="16.0431" y2="22.3958" gradientUnits="userSpaceOnUse">
<stop stop-color="white"/>
<stop offset="1" stop-color="#FFF2A9"/>
</linearGradient>
<linearGradient id="paint2_linear_6482_530440" x1="37.1461" y1="21.3718" x2="37.1461" y2="4.9999" gradientUnits="userSpaceOnUse">
<stop stop-color="#40C6F3"/>
<stop offset="1" stop-color="#4098D3"/>
</linearGradient>
<linearGradient id="paint3_linear_6482_530440" x1="44.1958" y1="21.3718" x2="44.1958" y2="5.00162" gradientUnits="userSpaceOnUse">
<stop stop-color="#40C6F3"/>
<stop offset="1" stop-color="#4098D3"/>
</linearGradient>
<linearGradient id="paint4_linear_6482_530440" x1="29.9645" y1="21.3718" x2="29.9645" y2="4.99868" gradientUnits="userSpaceOnUse">
<stop stop-color="#40C6F3"/>
<stop offset="1" stop-color="#4098D3"/>
</linearGradient>
<linearGradient id="paint5_linear_6482_530440" x1="54.5958" y1="21.3728" x2="54.5958" y2="4.99968" gradientUnits="userSpaceOnUse">
<stop stop-color="#40C6F3"/>
<stop offset="1" stop-color="#4098D3"/>
</linearGradient>
</defs>
</svg>
