<svg width="60" height="36" viewBox="0 0 60 36" fill="none" xmlns="http://www.w3.org/2000/svg">
<g clip-path="url(#clip0_481_13426)">
<path d="M3.15952 30.4444C2.42632 30.4444 1.87792 30.1654 1.52692 29.773L1.84612 29.3674C2.17972 29.7532 2.66632 29.9758 3.17812 29.9752C3.93712 29.9752 4.17892 29.5702 4.17892 29.2402C4.17892 28.1506 1.66072 28.759 1.66072 27.2512C1.66072 26.5546 2.28592 26.0728 3.12712 26.0728C3.77152 26.0728 4.27492 26.2948 4.63132 26.6686L4.31272 27.055C3.99412 26.7004 3.54772 26.548 3.08272 26.548C2.57932 26.548 2.20912 26.8204 2.20912 27.2194C2.20912 28.1698 4.72792 27.625 4.72792 29.2024C4.72792 29.8108 4.30672 30.4444 3.15952 30.4444ZM12.1601 30.3682H11.6309V26.611H10.2857V26.1424H13.5113V26.611H12.1601V30.3682ZM21.0467 30.4444C19.8995 30.4444 19.3127 29.7658 19.3127 28.7272V26.1424H19.8479V28.7146C19.8479 29.4868 20.2625 29.9752 21.0467 29.9752C21.8309 29.9752 22.2515 29.4874 22.2515 28.7146V26.1424H22.7867V28.7206C22.7867 29.773 22.2005 30.4444 21.0467 30.4444ZM30.3341 29.8996C31.3679 29.8996 31.9667 29.1646 31.9667 28.2592C31.9667 27.3466 31.3865 26.6116 30.3341 26.6116H29.4101V29.8996H30.3341ZM30.3341 30.3682H28.8815V26.1424H30.3341C31.6607 26.1424 32.5151 27.061 32.5151 28.2586C32.5145 29.4628 31.6607 30.3682 30.3341 30.3682ZM38.4431 30.3682V26.1424H38.9717V30.3682H38.4431ZM47.0039 29.9752C47.9543 29.9752 48.5723 29.2402 48.5723 28.2592C48.5723 27.2704 47.9543 26.5426 47.0039 26.5426C46.0475 26.5426 45.4421 27.2704 45.4421 28.2592C45.4421 29.2402 46.0475 29.9752 47.0039 29.9752ZM47.0039 30.4444C45.7481 30.4444 44.8943 29.5066 44.8943 28.2586C44.8943 27.0094 45.7481 26.0722 47.0039 26.0722C48.2603 26.0722 49.1201 27.0094 49.1201 28.2586C49.1201 29.5072 48.2603 30.4444 47.0039 30.4444ZM56.4197 30.4444C55.6859 30.4444 55.1375 30.1654 54.7871 29.773L55.1057 29.3674C55.4399 29.7532 55.9259 29.9758 56.4383 29.9752C57.1973 29.9752 57.4391 29.5702 57.4391 29.2402C57.4391 28.1506 54.9209 28.759 54.9209 27.2512C54.9209 26.5546 55.5455 26.0728 56.3873 26.0728C57.0311 26.0728 57.5351 26.2948 57.8915 26.6686L57.5729 27.055C57.2543 26.7004 56.8085 26.548 56.3423 26.548C55.8395 26.548 55.4693 26.8204 55.4693 27.2194C55.4693 28.1698 57.9875 27.625 57.9875 29.2024C57.9875 29.8108 57.5669 30.4444 56.4197 30.4444ZM43.4873 17.3086L49.1105 21.9892H57.4061L48.9455 14.9326L57.3185 8.05299H49.2923L43.4645 12.2032L43.4843 8.05299H37.4129V16.8514H25.3715V7.98219L4.89712 8.00139C4.47052 8.00139 3.00412 8.07999 2.06692 9.09099C0.92872 10.3192 0.93292 11.8102 0.94732 12.1126L0.94552 18.0802C0.94252 18.2956 0.96952 19.7098 2.07832 20.875C3.07912 21.9262 4.47832 22.0396 5.03212 22.0396C5.08552 22.0396 5.13952 22.0384 5.19292 22.036H20.0993V22.0354L38.4995 21.9886H43.4795L43.4873 17.3086ZM50.4203 14.938L59.9999 22.927H48.7673L44.4269 19.3144L44.4203 22.927H39.4427L21.0419 22.9744V22.975L5.03152 22.9786C4.35532 22.9786 2.64472 22.837 1.39192 21.5206C0.0533202 20.1136 -0.00247977 18.4186 0.00112023 18.0748L0.00292023 12.1324C-0.0174798 11.6068 0.0329201 9.90039 1.37212 8.45559C2.56972 7.16379 4.37272 7.06299 4.89712 7.06299L26.3159 7.04379V15.913H36.4697V7.11519H44.4335L44.4179 10.3702L48.9893 7.11519H59.9417L50.4203 14.938ZM19.1543 8.94459V12.2296H6.96892C6.96892 12.2296 6.60352 12.2068 6.38212 12.451C6.17272 12.6814 6.19012 12.9988 6.19012 12.9988L6.18952 13.4494H19.1303V16.6642H6.18472L6.18832 17.1046C6.18832 17.1046 6.19972 17.4298 6.39472 17.6014C6.66472 17.839 6.91252 17.8138 6.91252 17.8138H19.1543V21.0988H5.16532C5.16532 21.0988 3.69232 21.2074 2.76292 20.2306C1.86172 19.2838 1.88812 18.088 1.88812 18.088L1.89052 12.088C1.89052 12.088 1.80052 10.7632 2.76052 9.72699C3.53272 8.89419 4.93612 8.93979 4.93612 8.93979L19.1543 8.94459ZM20.1545 8.91999H24.4277V17.7898H37.5545V21.0976H20.1545V8.91999ZM49.5959 8.99079H54.6953L47.4707 14.9272L54.8129 21.0514H49.4537L42.5465 15.3022L42.5357 21.0514H38.3579V8.99079H42.5369L42.5123 14.0356L49.5959 8.99079Z" fill="#249CFF"/>
</g>
<defs>
<clipPath id="clip0_481_13426">
<rect width="60" height="36" fill="white"/>
</clipPath>
</defs>
</svg>
