<svg width="1832" height="402" viewBox="0 0 1832 402" fill="none" xmlns="http://www.w3.org/2000/svg">
<g clip-path="url(#clip0_1431_22)">
<path d="M252.083 8.40527H335.256L204.818 389.94H129.339L0 8.40527H85.3712L168.544 297.845L252.083 8.40527Z" fill="#23A6CE"/>
<path d="M596.865 355.221C573.049 384.458 536.776 399.441 488.044 399.441C439.313 399.441 403.04 384.823 379.224 355.221C355.408 325.985 343.316 290.536 343.316 248.874C343.316 207.212 355.408 172.86 379.224 143.258C403.04 113.291 439.313 98.6724 488.044 98.6724C536.776 98.6724 573.049 113.656 596.865 143.258C620.681 172.86 632.772 208.309 632.772 248.874C632.772 289.44 620.681 325.62 596.865 355.221ZM537.508 314.291C549.233 298.941 554.729 277.014 554.729 248.874C554.729 220.734 548.867 198.807 537.508 183.823C526.15 168.84 509.296 160.8 487.678 160.8C466.06 160.8 449.572 168.474 437.848 183.823C426.123 199.172 420.26 220.734 420.26 248.874C420.26 277.014 426.123 298.941 437.848 314.291C449.572 329.64 466.06 337.314 487.678 337.314C509.296 337.314 525.784 329.64 537.508 314.291Z" fill="#23A6CE"/>
<path d="M763.577 389.94H689.564V8.40527H763.577V389.94Z" fill="#23A6CE"/>
<path d="M818.537 162.627V110.001H858.108V31.4287H931.388V110.001H977.188V162.627H931.388V311.732C931.388 323.427 932.854 330.371 935.785 333.294C938.716 336.218 947.876 337.68 962.899 337.68C977.921 337.68 967.662 337.68 970.227 337.68C972.791 337.68 975.356 337.68 977.555 337.314V392.498L942.38 393.594C907.572 394.691 883.39 388.843 870.932 375.321C862.505 366.916 858.475 353.76 858.475 336.218V162.627H818.904H818.537Z" fill="#23A6CE"/>
<path d="M1337.73 397.98H1035.45V0H1328.2V84.0545H1129.98V148.375H1311.71V231.333H1129.98V312.829H1337.36V397.98H1337.73ZM1051.94 381.535H1320.87V329.64H1113.49V214.887H1295.22V165.185H1113.49V67.6091H1311.71V16.4455H1051.94V381.535Z" fill="#1EB3E1"/>
<path d="M1638.18 397.98H1545.84V218.177C1545.84 204.655 1544.01 194.422 1540.71 187.844C1534.85 176.149 1523.86 170.668 1507 170.668C1490.15 170.668 1471.1 179.438 1463.4 197.346C1459.01 207.578 1456.81 220.735 1456.81 237.18V397.98H1366.31V99.7693H1454.61V124.255C1459.01 119.138 1463.77 114.753 1468.17 111.464C1484.65 99.0384 1505.91 92.8257 1530.82 92.8257C1555.74 92.8257 1587.61 101.231 1607.4 117.677C1627.92 134.488 1638.18 162.262 1638.18 199.904V397.98ZM1562.33 381.535H1621.32V199.904C1621.32 167.378 1612.89 143.989 1596.41 130.468C1579.55 116.58 1557.2 109.271 1530.45 109.271C1503.71 109.271 1491.62 114.387 1477.69 124.62C1470.36 130.102 1462.67 138.873 1454.61 151.298C1452.41 154.588 1448.01 156.049 1444.35 154.953C1440.32 153.857 1437.75 150.202 1437.75 146.182V116.58H1382.79V381.535H1439.95V237.18C1439.95 218.907 1442.52 203.193 1447.65 190.768C1458.27 166.282 1478.06 153.857 1506.64 153.857C1535.22 153.857 1546.58 162.627 1555.37 180.169C1559.77 189.306 1562.33 201.731 1562.33 217.811V381.169V381.535Z" fill="#1EB3E1"/>
<path d="M1779.97 402C1747 402 1724.28 395.056 1711.09 381.169C1701.2 371.302 1696.43 355.953 1696.43 336.218V170.667H1656.86V101.596H1696.43V23.3892H1786.2V101.962H1832V171.033H1786.2V311.733C1786.2 324.524 1788.03 327.447 1788.4 327.447C1788.4 327.447 1792.06 329.275 1809.65 329.275C1827.24 329.275 1814.05 329.275 1816.61 329.275C1819.18 329.275 1821.37 329.275 1823.57 329.275L1832.37 328.544V400.538L1789.5 402C1786.57 402 1783.64 402 1780.7 402H1779.97ZM1673.35 154.587H1712.92V336.584C1712.92 351.933 1716.22 362.896 1723.18 369.84C1734.17 381.535 1756.16 386.651 1788.77 385.555L1815.88 384.458V346.086C1793.53 346.816 1782.17 344.624 1777.04 339.507C1772.28 334.756 1770.08 326.351 1770.08 312.098V154.587H1815.88V118.773H1770.08V39.8346H1713.65V118.407H1674.08V154.222L1673.35 154.587Z" fill="#1EB3E1"/>
</g>
<defs>
<clipPath id="clip0_1431_22">
<rect width="1832" height="402" fill="white"/>
</clipPath>
</defs>
</svg>
