<svg width="122" height="36" viewBox="0 0 122 36" fill="none" xmlns="http://www.w3.org/2000/svg">
<path d="M0 28H12.2421L14.0176 23.7447H0V28Z" fill="#00B8FF"/>
<path d="M0 22.8936L15.0923 20.7659L16.9146 16.2269L0 18.6383V22.8936Z" fill="#00B8FF"/>
<path d="M0 17.7872L18.3164 13.0591L20.3723 8L0 13.3901V17.7872Z" fill="#00B8FF"/>
<path d="M29.2968 20.0095H33.3151L34.6702 16.8416H29.2968V14.6194H35.558L37.0064 11.2624V11.2151H25.3718V25.7778H37.0064V22.3263H29.2968V20.0095Z" fill="white"/>
<path d="M79.48 12.5863C78.4053 11.688 76.9568 11.2151 75.1345 11.2151H68.9668V25.7305H72.9385V21.5698H74.9009C76.7699 21.5698 78.2184 21.0969 79.3866 20.1986C80.508 19.3003 81.0687 17.9764 81.0687 16.3215C81.1154 14.7612 80.5547 13.4847 79.48 12.5863ZM76.4896 17.9291C76.0691 18.2601 75.5084 18.4492 74.8075 18.4492H72.9385V14.6194H74.8075C75.5551 14.6194 76.1158 14.7612 76.4896 15.0922C76.9101 15.4232 77.097 15.896 77.097 16.5107C77.097 17.1253 76.9101 17.5981 76.4896 17.9291Z" fill="white"/>
<path d="M86.4419 11.2151H82.4702V25.7778H91.3013L92.7498 22.2317H86.4419V11.2151Z" fill="white"/>
<path d="M99.5717 11.1206L94.4319 23.4137L93.4507 25.7305H94.8057H97.656L98.6839 23.13H104.198L105.225 25.7305H109.477L103.356 11.0733H99.5717V11.1206ZM99.8053 20.0095L101.441 15.896L103.029 20.0095H99.8053Z" fill="white"/>
<path d="M117.561 11.2151L114.571 16.5107L111.627 11.2151H107.094L112.561 20.2932V25.7778H116.533V20.2459L122 11.2151H117.561Z" fill="white"/>
<path d="M48.7812 11.2151L45.5105 20.435L42.2397 11.2151H37.8008L43.6415 25.8724H47.3328L53.1734 11.2151H48.7812Z" fill="white"/>
<path d="M59.9018 10.9787C55.79 10.9787 52.4258 14.383 52.4258 18.5437C52.4258 22.7045 55.79 26.1087 59.9018 26.1087C64.0137 26.1087 67.3779 22.7045 67.3779 18.5437C67.3312 14.3357 64.0137 10.9787 59.9018 10.9787ZM59.9018 22.4681C57.7525 22.4681 55.9769 20.6714 55.9769 18.4964C55.9769 16.3215 57.7525 14.5248 59.9018 14.5248C62.0512 14.5248 63.8268 16.3215 63.8268 18.4964C63.8268 20.6714 62.0512 22.4681 59.9018 22.4681Z" fill="white"/>
</svg>
