<svg width="71" height="36" viewBox="0 0 71 36" fill="none" xmlns="http://www.w3.org/2000/svg">
<path d="M27.8119 19.4117C27.8119 20.047 28.306 20.6117 29.0119 20.6117C29.1531 20.6117 29.2942 20.6117 29.6472 20.4706L30.1413 21.6706C29.6472 21.8823 29.3648 21.9529 29.0119 21.9529C27.6001 21.9529 26.4707 20.8235 26.4707 19.4117V11.3647H27.8119V13.4117H30.1413V14.7529H27.8119V19.4117Z" fill="white"/>
<path d="M30.9177 19.4118V15.3882C30.9177 13.9765 32.0471 12.847 33.4589 12.847C34.8707 12.847 36.0001 13.9765 36.0001 15.3882V19.4118C36.0001 20.8235 34.8707 21.9529 33.4589 21.9529C32.0471 21.9529 30.9177 20.8235 30.9177 19.4118ZM33.4589 14.2588C32.8236 14.2588 32.2589 14.8235 32.2589 15.4588V19.4823C32.2589 20.1176 32.8236 20.6823 33.4589 20.6823C34.0942 20.6823 34.6589 20.1882 34.6589 19.4823V15.4588C34.5883 14.7529 34.0942 14.2588 33.4589 14.2588Z" fill="white"/>
<path d="M43.4118 15.1765C43.4118 14.6823 42.9882 14.2588 42.4941 14.2588C42 14.2588 41.5765 14.6823 41.5765 15.1765V21.7412H40.2353V15.1765C40.2353 14.6823 39.8118 14.2588 39.3177 14.2588C38.8235 14.2588 38.4 14.6823 38.4 15.1765V21.7412H37.0588V15.1765C37.0588 13.9059 38.0471 12.9176 39.3177 12.9176C39.953 12.9176 40.5177 13.1294 40.8706 13.5529C41.2941 13.1294 41.7882 12.9176 42.4235 12.9176C43.6941 12.9176 44.6824 13.9059 44.6824 15.1765V21.7412H43.3412L43.4118 15.1765Z" fill="white"/>
<path d="M51.7412 15.3882C51.7412 14.7529 51.2471 14.1882 50.5412 14.1882C49.9059 14.1882 49.3412 14.6823 49.3412 15.3882V21.7411H48V9.81174H49.4118V13.2706C49.7647 13.0588 50.1882 12.9882 50.6118 12.9882C52.0235 12.9882 53.1529 14.1176 53.1529 15.5294V21.8823H51.8118L51.7412 15.3882Z" fill="white"/>
<path d="M54.2117 19.4118V15.3882C54.2117 13.9765 55.3411 12.847 56.7528 12.847C58.1646 12.847 59.294 13.9765 59.294 15.3882V19.4118C59.294 20.8235 58.1646 21.9529 56.7528 21.9529C55.3411 21.9529 54.2117 20.8235 54.2117 19.4118ZM56.7528 14.2588C56.1176 14.2588 55.5528 14.8235 55.5528 15.4588V19.4823C55.5528 20.1176 56.1176 20.6823 56.7528 20.6823C57.3881 20.6823 57.9528 20.1882 57.9528 19.4823V15.4588C57.8823 14.7529 57.3881 14.2588 56.7528 14.2588Z" fill="white"/>
<path d="M62.8236 14.2588C62.1884 14.2588 61.6236 14.8235 61.6236 15.4588V21.8118H60.2825V15.4588C60.2825 14.047 61.4119 12.9176 62.7531 12.9176C63.6001 12.9176 64.4472 13.4118 65.0119 14.3294L63.8825 14.9647C63.6707 14.4706 63.2472 14.2588 62.8236 14.2588Z" fill="white"/>
<path d="M69.0354 15.3882C69.0354 14.7529 68.4707 14.1882 67.8354 14.1882C67.2001 14.1882 66.6354 14.6823 66.6354 15.3882V21.7412H65.2942V15.3882C65.2942 13.9765 66.4236 12.847 67.8354 12.847C69.2471 12.847 70.306 13.9765 70.306 15.3882V21.7412H68.9648L69.0354 15.3882Z" fill="white"/>
<path d="M37.4824 28.0235V25.6941C37.4824 25.1294 37.906 24.7059 38.4707 24.7059C38.8942 24.7059 39.2471 24.9176 39.3883 25.3412L38.9648 25.5529C38.8942 25.2706 38.6824 25.2 38.4707 25.2C38.1883 25.2 37.9765 25.4118 37.9765 25.6941V28.0235C37.9765 28.3059 38.1883 28.5176 38.4707 28.5176C38.753 28.5176 38.9648 28.3059 38.9648 28.0235V27.5294H38.2589V27.0353H39.4589V28.0235C39.4589 28.5882 39.0354 29.0118 38.4707 29.0118C37.9765 28.9412 37.4824 28.5176 37.4824 28.0235Z" fill="#21B3E8"/>
<path d="M42.9882 27.6H42V28.8706H41.5059V25.6235C41.5059 25.0588 41.9294 24.6353 42.4941 24.6353C43.0588 24.6353 43.4823 25.0588 43.4823 25.6235V28.8706H42.9882V27.6ZM42.4235 25.2706C42.1412 25.2706 41.9294 25.4823 41.9294 25.7647V27.1765H42.9176V25.6941C42.9882 25.4823 42.7059 25.2706 42.4235 25.2706Z" fill="#21B3E8"/>
<path d="M47.506 26.1882L46.8707 28.0235H46.5884L45.9531 26.1882V28.9412H45.5295V24.847H45.9531L46.7295 26.9647L47.506 24.847H48.0001V28.9412H47.506V26.1882Z" fill="#21B3E8"/>
<path d="M50.9648 24.847H50.4707V28.9412H50.9648V24.847Z" fill="#21B3E8"/>
<path d="M53.7883 26.1176V28.9412H53.3647V24.847H53.7883L54.8471 27.5294V24.847H55.2706V28.9412H54.8471L53.7883 26.1176Z" fill="#21B3E8"/>
<path d="M57.4587 28.0235V25.6941C57.4587 25.1294 57.8823 24.7059 58.447 24.7059C58.8705 24.7059 59.2234 24.9176 59.3646 25.3412L58.9411 25.5529C58.8705 25.2706 58.6587 25.2 58.447 25.2C58.1646 25.2 57.9529 25.4118 57.9529 25.6941V28.0235C57.9529 28.3059 58.1646 28.5176 58.447 28.5176C58.7293 28.5176 58.9411 28.3059 58.9411 28.0235V27.5294H58.1646V27.0353H59.3646V28.0235C59.3646 28.5882 58.9411 29.0118 58.3764 29.0118C57.8823 28.9412 57.4587 28.5176 57.4587 28.0235Z" fill="#21B3E8"/>
<path d="M20.6045 10.9692C20.5339 11.6751 20.3221 12.3104 19.828 12.8045C19.7574 12.8751 19.6868 12.9457 19.6162 13.0163C19.475 13.0869 19.4045 13.1575 19.2633 13.2987C19.2633 13.2987 19.1927 13.2987 19.1927 13.3692C18.7692 13.581 18.3456 13.6516 17.9221 13.6516C17.7103 13.6516 17.5692 13.6516 17.3574 13.581C18.9103 16.2634 18.5574 19.6516 16.2986 21.981C13.6162 24.6634 9.23975 24.6634 6.5574 21.981C6.41622 21.7692 6.41622 21.6987 6.34563 21.6987C6.27504 21.6281 6.20446 21.6281 6.20446 21.5575C6.13387 21.5575 6.06328 21.4869 6.06328 21.4869C5.49857 21.2045 4.7221 21.2045 4.1574 21.4869C4.08681 21.5575 3.94563 21.6281 3.87504 21.6987C3.80445 21.7692 3.73387 21.7692 3.73387 21.8398C2.9574 22.6163 2.88681 23.9575 3.73387 24.7339C7.96916 28.9692 14.8868 29.0398 19.1927 24.8045C22.8633 20.9928 23.3574 15.2751 20.6045 10.9692Z" fill="url(#paint0_linear_481_12669)"/>
<path d="M19.334 9.41628C17.1458 7.22804 14.3928 6.16922 11.5693 6.16922C8.74577 6.16922 5.99283 7.22804 3.87518 9.34569C0.0634172 13.0869 -0.4307 18.8751 2.39283 23.1104C2.46342 22.4045 2.67518 21.7692 3.1693 21.2751C3.23989 21.2045 3.31048 21.1339 3.38106 21.0633C3.52224 20.9928 3.59283 20.9222 3.73401 20.781C3.73401 20.781 3.80459 20.781 3.80459 20.7104C4.22812 20.4986 4.65165 20.428 5.07518 20.428C5.28695 20.428 5.42812 20.428 5.63989 20.4986C4.08695 17.8163 4.43989 14.428 6.69871 12.0986C8.03989 10.7575 9.80459 10.0516 11.4987 10.0516C13.1928 10.0516 15.0281 10.7575 16.3693 12.0986C16.4399 12.1692 16.4399 12.1692 16.5105 12.2398C16.5811 12.3104 16.6517 12.3104 16.6517 12.381C16.7222 12.381 16.7928 12.4516 16.7928 12.4516C17.0752 12.5928 17.4281 12.6633 17.7105 12.6633C17.9928 12.6633 18.3458 12.5928 18.6281 12.4516H18.6987C18.7693 12.381 18.9105 12.3104 18.9811 12.2398C19.0517 12.1692 19.1222 12.1692 19.1222 12.0986C20.1105 11.4633 20.1105 10.1222 19.334 9.41628Z" fill="url(#paint1_linear_481_12669)"/>
<defs>
<linearGradient id="paint0_linear_481_12669" x1="8.03236" y1="22.0632" x2="16.5917" y2="16.0142" gradientUnits="userSpaceOnUse">
<stop stop-color="#C7E3F8"/>
<stop offset="0.28" stop-color="#26B1E7"/>
<stop offset="1" stop-color="#223B86"/>
</linearGradient>
<linearGradient id="paint1_linear_481_12669" x1="15.1995" y1="11.904" x2="6.40876" y2="18.1388" gradientUnits="userSpaceOnUse">
<stop stop-color="#C7E3F8"/>
<stop offset="0.28" stop-color="#26B1E7"/>
<stop offset="1" stop-color="#223B86"/>
</linearGradient>
</defs>
</svg>
