<svg width="86" height="36" viewBox="0 0 86 36" fill="none" xmlns="http://www.w3.org/2000/svg">
<g clip-path="url(#clip0_481_13822)">
<path d="M77.1452 24.2452C74.3577 24.2452 71.9405 24.2452 68.9977 24.2452C63.9096 24.2452 53.7335 24.2452 48.6445 24.2452C45.7372 24.2452 44.7118 24.2452 43.0035 24.2452H3.41258C1.52475 24.2452 0.566578 23.315 0.182963 22.2415C-0.0529076 21.5836 -0.0529076 20.8677 0.138036 20.1953L1.55413 15.2434C1.95243 13.9122 3.13178 11.6943 6.02272 11.6943H46.7325C49.5718 11.6943 51.4836 11.6943 54.2501 11.6943H75.3403C78.9717 11.7763 79.8979 11.6943 80.9701 11.6943H82.9219C85.5761 11.6943 86.7407 13.4684 86.3139 15.4439C86.0184 16.8749 84.8088 20.6671 84.8088 20.6671C84.3379 22.7851 82.5089 24.2452 79.8979 24.2452H77.1452ZM39.0144 21.3967L41.05 21.3831L42.1706 17.8767C42.4212 16.8604 41.876 15.9875 40.7994 15.9875C40.7994 15.9875 39.3531 15.9875 38.8675 15.9875C37.5249 15.973 36.5218 16.8749 36.1831 17.8051L35.0478 21.3967L37.1275 21.3831L38.1599 17.9339L40.0322 17.9484L39.0144 21.3967ZM36.5218 16.2307L37.3184 13.9412H34.6348L33.7942 16.2307H36.5218ZM30.1956 17.5764H28.3812L29.6046 13.7551H27.5259L26.2566 17.7052C26.0216 18.7207 26.5521 19.5937 27.6287 19.5937C27.6287 19.5937 27.6287 19.5937 27.6442 19.5937L27.0688 21.3967H29.1035L29.6945 19.5937C30.9767 19.551 31.9357 18.6925 32.2606 17.7914L33.573 13.756H31.5383L30.1956 17.5764ZM24.7688 13.7551C24.7688 13.7551 23.3225 13.7551 22.8369 13.7551C21.4943 13.7406 20.4765 14.6281 20.1525 15.5727L18.1912 21.4121H20.2553L20.8895 19.5228L22.7186 19.5373L22.1725 21.4121H24.1632L26.1547 15.6444C26.3906 14.6281 25.8601 13.7551 24.7688 13.7551ZM13.8695 13.7551L11.3622 21.3967H17.3799L18.6621 17.5764H16.6421L16.0226 19.4648H14.1495L15.9785 13.7551H13.8695ZM11.0676 13.7551H7.17356L4.63687 21.4121H6.70182L7.33513 19.5228H9.14952C9.14952 19.5228 11.0382 19.609 11.7908 17.7334C12.0258 17.1463 12.4837 15.6871 12.4837 15.6871C12.8362 14.5283 12.158 13.7551 11.0676 13.7551ZM23.3666 17.5764H21.4209L22.0844 15.6871H24.0016L23.3666 17.5764ZM9.81307 17.5764H7.88117L8.54559 15.6871H10.4628L9.81307 17.5764Z" fill="#2185C7"/>
<path d="M75.6807 8.16012C75.6807 8.16012 72.3181 8.17463 71.0929 8.16012C67.7605 8.11746 64.9724 10.3353 64.1473 12.8825L61.8015 20.0803C59.1914 26.3344 62.5247 27.3934 64.8255 27.3789C66.2113 27.3789 67.5825 27.3789 68.6599 27.3789C71.4912 27.3789 74.6042 25.3906 75.4302 22.8434L78.6157 12.9968C79.4702 10.7073 78.0688 8.16012 75.6807 8.16012ZM53.4406 20.2519H55.903L55.1073 22.6711H50.2991L50.9635 20.6384L51.0819 20.2809L52.6596 15.5295L53.4415 13.1402H62.6439L62.6888 12.9968L64.0306 8.44599C64.0306 8.44599 56.3912 8.4605 55.166 8.44599C51.8336 8.40332 49.1042 10.8643 48.5158 12.8825L46.1701 20.0803C43.2359 26.779 47.0997 27.3789 49.1941 27.3789C50.5799 27.3789 51.9511 27.3789 53.0285 27.3789C56.4948 27.3789 58.9719 25.2473 59.7988 22.7001L61.9371 15.5167H55.0027L53.4406 20.2519ZM70.5331 22.6856H66.0792L69.1757 13.1257H73.6296L70.5331 22.6856Z" fill="#040707"/>
<path d="M46.6102 12.7137C47.7941 8.9719 51.2663 6.42871 55.1909 6.42871L75.7923 6.42871C79.173 6.42871 81.5792 9.71388 80.5594 12.937L77.3173 23.1837C76.1334 26.9255 72.6612 29.4687 68.7366 29.4687H48.1352C44.7545 29.4687 42.3483 26.1835 43.3681 22.9604L46.6102 12.7137Z" fill="black"/>
<path d="M75.6808 8.15979C75.6808 8.15979 72.3181 8.17429 71.093 8.15979C67.7606 8.11712 64.9724 10.3349 64.1473 12.8821L61.8016 20.08C59.1914 26.3341 62.5247 27.3931 64.8256 27.3786C66.2114 27.3786 67.5826 27.3786 68.66 27.3786C71.4913 27.3786 74.6043 25.3903 75.4303 22.8431L78.6158 12.9965C79.4703 10.707 78.0689 8.15979 75.6808 8.15979ZM53.4407 20.2515H55.9031L55.1073 22.6707H50.2992L50.9636 20.6381L51.082 20.2805L52.6596 15.5292L53.4416 13.1398H62.644L62.6889 12.9965L64.0307 8.44565C64.0307 8.44565 56.3912 8.46016 55.1661 8.44565C51.8337 8.40299 49.1043 10.864 48.5159 12.8821L46.1702 20.08C43.236 26.7787 47.0998 27.3786 49.1941 27.3786C50.58 27.3786 51.9512 27.3786 53.0286 27.3786C56.4949 27.3786 58.972 25.2469 59.7988 22.6997L61.9372 15.5164H55.0028L53.4407 20.2515ZM70.5331 22.6852H66.0792L69.1758 13.1253H73.6297L70.5331 22.6852Z" fill="#ED1F24"/>
</g>
<defs>
<clipPath id="clip0_481_13822">
<rect width="86" height="36" fill="white"/>
</clipPath>
</defs>
</svg>
