<svg width="120" height="30" viewBox="0 0 1292 305" fill="none" xmlns="http://www.w3.org/2000/svg">
<path d="M349.737 0.610048L381.954 0C387.456 23.433 392.547 49.3182 411.909 65.4186C428.214 82.7392 451.446 90.8911 474.278 94.5574C474.278 105.766 473.871 116.974 473.464 128.188C430.248 128.588 390.71 154.474 366.246 189.115C347.087 213.361 335.878 242.506 328.132 272.261C327.522 281.429 326.912 290.598 326.499 299.773C315.087 299.773 303.47 299.569 292.058 299.569C294.301 238.026 320.996 177.5 367.466 136.74C380.309 126.142 394.371 117.177 408.439 108.212C394.371 97.811 381.732 85.7895 370.116 72.7452C342.398 144.48 274.329 200.12 196.671 206.842C194.841 237.823 197.688 269.204 193.208 299.976H162.224C161.62 268.995 162.224 238.02 161.41 207.045C109.85 199.51 63.3798 169.342 33.6219 126.956C19.1587 104.545 4.07937 81.5191 0 54.8206C54.4195 40.7596 116.376 55.4306 155.303 97.0036C176.095 116.98 187.711 144.079 194.231 171.794C244.577 169.145 288.798 136.95 318.149 97.6136C339.15 69.695 349.534 35.2572 349.737 0.610048ZM46.6795 83.5526C47.6963 85.3887 49.9394 88.8517 50.9562 90.6878C74.8044 130.425 113.122 162.422 159.185 171.591C146.343 122.069 97.4324 85.1854 46.6795 83.5526Z" fill="#FC8407"/>
<path d="M554.783 111.268C565.986 99.4496 582.495 95.9867 597.987 93.5405L598.597 123.086C580.659 128.588 565.783 141.226 563.743 160.789L598.597 162.015C598.394 172.41 597.987 183.008 597.58 193.397C587.185 193.194 576.789 193.194 566.393 192.99C566.19 228.451 566.393 263.708 566.393 299.163C556.003 299.163 545.398 299.372 535.008 299.575C535.008 264.725 535.211 193.804 535.211 193.804H520.539V161.405C520.539 161.405 530.319 161.609 533.579 161.609C535.008 143.062 539.907 123.499 554.783 111.268ZM652.197 160.383C693.165 144.079 744.934 172.613 750.234 217.039C759.81 259.629 724.143 304.061 680.532 304.258C647.107 306.501 614.293 283.475 606.14 250.867C594.721 214.796 615.92 172.207 652.197 160.383ZM662.39 189.928C631.615 200.532 624.479 246.591 652.197 264.521C677.266 285.514 720.273 264.928 719.866 232.32C723.532 202.362 689.701 179.533 662.39 189.928ZM1103.24 207.458C1104.25 180.149 1128.1 157.326 1155.01 155.903C1170.09 154.27 1183.13 163.235 1196.38 168.941C1209.43 165.275 1221.04 155.694 1235.31 155.694C1263.84 154.474 1291.56 178.319 1291.76 207.458C1292.38 238.026 1291.56 268.594 1291.97 299.372C1281.57 299.372 1271.18 299.575 1260.78 299.575C1260.78 273.69 1260.99 248.014 1260.99 222.135C1260.99 211.334 1260.17 198.899 1250.6 191.974C1237.35 181.579 1214.73 190.341 1213.5 207.661C1211.66 238.23 1213.5 268.804 1212.69 299.575C1202.49 299.575 1192.3 299.372 1182.11 299.575C1181.5 268.188 1184.15 236.399 1180.89 205.215C1175.18 181.985 1137.68 183.206 1134.42 207.255C1131.16 237.823 1134.22 269.007 1132.79 299.779C1122.6 299.575 1112.41 299.575 1102.22 299.372C1103.64 268.594 1102.02 238.026 1103.24 207.458Z" fill="#E4E4E4"/>
<path d="M741.063 161.202C754.312 161.406 767.555 160.79 780.601 162.219C794.257 174.444 803.635 190.341 815.455 203.995C826.868 189.934 836.24 173.834 850.1 162.01C862.942 160.79 875.987 161.609 889.027 161.4C871.501 185.042 852.139 207.255 835.63 231.507C854.382 253.313 870.891 276.746 889.236 298.756C875.581 299.169 862.128 299.169 848.676 299.372C837.67 284.898 826.664 270.431 815.455 255.963C804.246 270.437 793.036 284.695 782.234 299.372C768.578 299.163 755.126 299.163 741.47 298.756C760.425 276.95 776.934 253.313 795.273 231.101C777.965 207.219 759.885 183.911 741.063 161.202ZM906.762 161.603H937.74C937.537 207.662 937.537 253.517 937.74 299.575H906.762V161.603ZM964.238 161.812C975.041 161.609 985.64 161.4 996.437 161.202C997.256 192.177 993.787 223.559 997.866 254.33C1003.57 278.583 1041.28 278.989 1048 255.144C1052.9 224.169 1049.02 192.584 1050.04 161.406C1060.64 161.609 1071.03 161.609 1081.63 161.609C1081.02 191.974 1082.65 222.339 1081.02 252.5C1078.37 282.046 1050.25 306.705 1020.28 304.055C991.956 304.055 966.685 280.012 965.052 251.681C963.012 221.926 964.848 191.764 964.238 161.812Z" fill="#E4E4E4"/>
</svg>
