<svg width="120" height="150" viewBox="0 0 454 631" fill="none" xmlns="http://www.w3.org/2000/svg">
<path d="M116.92 630.525H110.437V621.286H116.92C117.677 623.825 119.136 625.068 121.297 625.068C122.864 625.068 123.62 624.42 123.62 623.177C123.62 622.528 123.35 621.988 122.81 621.556C122.215 621.07 121.027 620.421 119.136 619.611C116.758 618.53 115.029 617.612 113.949 616.855C112.922 616.153 112.004 615.18 111.301 613.938C110.545 612.695 110.221 611.344 110.221 609.832C110.221 607.13 111.085 605.023 112.814 603.564C114.543 602.051 116.704 601.295 119.19 601.295C121.729 601.295 123.89 601.997 125.619 603.456V601.673H132.157V609.886H125.673C124.863 607.616 123.458 606.482 121.459 606.482C120.054 606.482 119.352 607.076 119.352 608.265C119.352 608.859 119.568 609.291 119.946 609.561C120.324 609.886 121.567 610.534 123.728 611.56C126.592 612.965 128.483 613.992 129.401 614.64C129.887 614.964 130.374 615.397 130.86 615.991C131.346 616.585 131.779 617.18 132.103 617.774C132.859 619.125 133.237 620.583 133.237 622.204C133.237 624.636 132.319 626.689 130.536 628.364C128.753 630.093 126.484 630.903 123.728 630.903C121.189 630.903 118.865 630.147 116.812 628.634V630.525H116.92ZM167.654 630.525H151.445V623.609H153.931V608.535H150.635V613.776H145.232V601.619H173.868V613.776H168.465V608.535H165.169V623.609H167.708V630.525H167.654ZM187.483 608.535H185.214V601.619H200.018V608.535H198.667V618.26C198.667 620.583 198.883 622.15 199.315 623.015C199.748 623.825 200.558 624.257 201.693 624.257C202.665 624.257 203.314 623.879 203.746 623.177C204.178 622.474 204.394 621.07 204.394 618.908V608.481H202.935V601.565H213.849V608.481H211.58V618.963C211.58 621.61 211.202 623.825 210.392 625.5C209.635 627.175 208.338 628.526 206.501 629.444C204.718 630.417 202.503 630.903 199.856 630.903C197.749 630.903 195.858 630.633 194.237 630.147C192.562 629.66 191.265 628.904 190.293 627.877C189.32 626.851 188.618 625.662 188.131 624.203C187.645 622.799 187.429 620.637 187.429 617.774V608.535H187.483ZM239.135 630.525H225.682V623.609H227.951V608.535H225.682V601.619H239.513C242.647 601.619 245.241 601.835 247.24 602.213C249.239 602.592 251.13 603.402 252.913 604.591C254.696 605.833 256.047 607.454 257.073 609.561C257.559 610.534 257.938 611.614 258.208 612.749C258.478 613.884 258.586 615.072 258.586 616.315C258.586 618.8 258.046 621.124 256.965 623.177C255.938 625.23 254.588 626.797 252.967 627.877C251.4 628.958 249.671 629.66 247.78 630.039C245.943 630.363 243.079 630.525 239.135 630.525ZM239.135 608.535V623.609H240.216C242.863 623.609 244.538 622.907 245.349 621.502C246.105 620.097 246.537 618.368 246.537 616.207C246.537 614.91 246.375 613.668 246.051 612.425C245.727 611.182 245.079 610.21 244.214 609.561C243.35 608.859 241.837 608.535 239.622 608.535H239.135ZM287.222 630.525H270.743V623.609H273.39V608.535H270.743V601.619H287.222V608.535H284.574V623.609H287.222V630.525ZM299.378 615.991C299.378 613.56 299.973 611.236 301.161 608.967C302.35 606.698 304.133 604.807 306.564 603.294C307.429 602.754 308.347 602.321 309.266 601.997C310.184 601.673 311.211 601.457 312.291 601.241C313.372 601.079 314.507 600.971 315.695 600.971C320.882 600.971 324.88 602.484 327.744 605.509C329.149 607.022 330.229 608.643 330.932 610.372C331.634 612.101 332.012 613.992 332.012 615.937C332.012 619.989 330.553 623.447 327.582 626.473C324.664 629.444 320.666 630.957 315.695 630.957C310.887 630.957 306.942 629.552 303.917 626.743C300.891 623.987 299.378 620.421 299.378 615.991ZM311.913 615.991C311.913 619.179 312.237 621.394 312.832 622.474C313.426 623.609 314.344 624.203 315.641 624.203C316.884 624.203 317.856 623.663 318.451 622.583C319.099 621.502 319.369 619.287 319.369 616.045C319.369 612.857 319.045 610.696 318.451 609.561C317.856 608.427 316.884 607.832 315.587 607.832C314.344 607.832 313.426 608.373 312.778 609.453C312.237 610.588 311.913 612.749 311.913 615.991ZM350.976 630.525H344.493V621.286H350.976C351.733 623.825 353.192 625.068 355.353 625.068C356.92 625.068 357.676 624.42 357.676 623.177C357.676 622.528 357.406 621.988 356.866 621.556C356.271 621.07 355.083 620.421 353.192 619.611C350.814 618.53 349.085 617.612 348.005 616.855C346.978 616.153 346.06 615.18 345.357 613.938C344.601 612.695 344.277 611.344 344.277 609.832C344.277 607.13 345.141 605.023 346.87 603.564C348.599 602.051 350.76 601.295 353.246 601.295C355.731 601.295 357.946 601.997 359.675 603.456V601.673H366.213V609.886H359.729C358.919 607.616 357.514 606.482 355.515 606.482C354.11 606.482 353.408 607.076 353.408 608.265C353.408 608.859 353.624 609.291 354.002 609.561C354.38 609.886 355.623 610.534 357.784 611.56C360.648 612.965 362.539 613.992 363.457 614.64C363.944 614.964 364.43 615.397 364.916 615.991C365.402 616.585 365.835 617.18 366.159 617.774C366.915 619.125 367.293 620.583 367.293 622.204C367.293 624.636 366.375 626.689 364.592 628.364C362.809 630.093 360.54 630.903 357.784 630.903C355.245 630.903 352.922 630.147 350.868 628.634V630.525H350.976Z" fill="#0047BA"/>
<path d="M116.92 627.013H110.437V617.774H116.92C117.677 620.313 119.136 621.556 121.297 621.556C122.864 621.556 123.62 620.908 123.62 619.665C123.62 619.017 123.35 618.476 122.81 618.044C122.215 617.558 121.027 616.91 119.136 616.099C116.758 615.019 115.029 614.1 113.949 613.344C112.922 612.641 112.004 611.669 111.301 610.426C110.545 609.183 110.221 607.833 110.221 606.32C110.221 603.618 111.085 601.511 112.814 599.998C114.543 598.486 116.704 597.729 119.19 597.729C121.675 597.729 123.89 598.432 125.619 599.89V598.107H132.157V606.32H125.673C124.863 604.051 123.458 602.916 121.459 602.916C120.054 602.916 119.352 603.51 119.352 604.699C119.352 605.293 119.568 605.725 119.946 605.996C120.324 606.32 121.567 606.968 123.728 607.995C126.592 609.4 128.483 610.426 129.401 611.074C129.887 611.399 130.374 611.831 130.86 612.425C131.346 613.019 131.779 613.614 132.103 614.208C132.859 615.559 133.237 617.018 133.237 618.639C133.237 621.07 132.319 623.123 130.536 624.798C128.753 626.527 126.484 627.337 123.728 627.337C121.189 627.337 118.865 626.581 116.812 625.068V627.013H116.92ZM167.654 627.013H151.445V620.097H153.931V605.023H150.635V610.264H145.232V598.107H173.868V610.264H168.465V605.023H165.169V620.097H167.708V627.013H167.654ZM187.483 605.023H185.214V598.107H200.018V605.023H198.667V614.748C198.667 617.072 198.883 618.639 199.315 619.503C199.748 620.313 200.558 620.746 201.693 620.746C202.665 620.746 203.314 620.368 203.746 619.665C204.178 618.963 204.394 617.558 204.394 615.397V604.969H202.935V598.053H213.849V604.969H211.58V615.451C211.58 618.098 211.202 620.314 210.392 621.988C209.635 623.663 208.338 625.014 206.501 625.933C204.718 626.905 202.503 627.391 199.856 627.391C197.749 627.391 195.858 627.121 194.237 626.635C192.562 626.149 191.265 625.392 190.293 624.366C189.32 623.339 188.618 622.15 188.131 620.692C187.645 619.287 187.429 617.126 187.429 614.262V605.023H187.483ZM239.135 627.013H225.682V620.097H227.951V605.023H225.682V598.107H239.513C242.647 598.107 245.241 598.323 247.24 598.702C249.239 599.08 251.13 599.89 252.913 601.079C254.696 602.322 256.047 603.943 257.073 606.05C257.559 607.022 257.938 608.103 258.208 609.237C258.478 610.372 258.586 611.561 258.586 612.803C258.586 615.289 258.046 617.612 256.965 619.665C255.938 621.718 254.588 623.285 252.967 624.366C251.4 625.446 249.671 626.149 247.78 626.527C245.943 626.851 243.079 627.013 239.135 627.013ZM239.135 605.023V620.097H240.216C242.863 620.097 244.538 619.395 245.349 617.99C246.105 616.585 246.537 614.856 246.537 612.695C246.537 611.399 246.375 610.156 246.051 608.913C245.727 607.671 245.079 606.698 244.214 606.05C243.35 605.347 241.837 605.023 239.622 605.023H239.135ZM287.222 627.013H270.743V620.097H273.39V605.023H270.743V598.107H287.222V605.023H284.574V620.097H287.222V627.013ZM299.378 612.479C299.378 610.048 299.973 607.725 301.161 605.455C302.35 603.186 304.133 601.295 306.564 599.782C307.429 599.242 308.347 598.81 309.266 598.486C310.184 598.161 311.211 597.945 312.291 597.729C313.372 597.567 314.507 597.459 315.695 597.459C320.882 597.459 324.88 598.972 327.744 601.997C329.149 603.51 330.229 605.131 330.932 606.86C331.634 608.589 332.012 610.48 332.012 612.425C332.012 616.477 330.553 619.935 327.582 622.961C324.664 625.933 320.666 627.445 315.695 627.445C310.887 627.445 306.942 626.041 303.917 623.231C300.891 620.53 299.378 616.91 299.378 612.479ZM311.913 612.479C311.913 615.667 312.237 617.882 312.832 618.963C313.426 620.097 314.344 620.692 315.641 620.692C316.884 620.692 317.856 620.151 318.451 619.071C319.099 617.936 319.369 615.775 319.369 612.479C319.369 609.291 319.045 607.13 318.451 605.996C317.856 604.861 316.884 604.267 315.587 604.267C314.344 604.267 313.426 604.807 312.778 605.888C312.237 607.076 311.913 609.237 311.913 612.479ZM350.976 627.013H344.493V617.774H350.976C351.733 620.313 353.192 621.556 355.353 621.556C356.92 621.556 357.676 620.908 357.676 619.665C357.676 619.017 357.406 618.476 356.866 618.044C356.271 617.558 355.083 616.91 353.192 616.099C350.814 615.019 349.085 614.1 348.005 613.344C346.978 612.641 346.06 611.669 345.357 610.426C344.601 609.183 344.277 607.833 344.277 606.32C344.277 603.618 345.141 601.511 346.87 599.998C348.599 598.486 350.76 597.729 353.246 597.729C355.731 597.729 357.946 598.432 359.675 599.89V598.107H366.213V606.32H359.729C358.919 604.051 357.514 602.916 355.515 602.916C354.11 602.916 353.408 603.51 353.408 604.699C353.408 605.293 353.624 605.725 354.002 605.996C354.38 606.32 355.623 606.968 357.784 607.995C360.648 609.4 362.539 610.426 363.457 611.074C363.944 611.399 364.43 611.831 364.916 612.425C365.402 613.019 365.835 613.614 366.159 614.208C366.915 615.559 367.293 617.018 367.293 618.639C367.293 621.07 366.375 623.123 364.592 624.798C362.809 626.527 360.54 627.337 357.784 627.337C355.245 627.337 352.922 626.581 350.868 625.068V627.013H350.976Z" fill="#C4CFDA"/>
<path d="M52.5714 511.119H20.0996V498.314H25.7187V470.435H19.9375V457.63H72.5623V475.244H58.3525V470.435H46.412V478.648H55.597V489.562H46.412V498.314H52.5714V511.119ZM210.77 498.314L203.368 486.104C205.691 485.077 207.582 483.402 209.041 481.187C210.5 478.918 211.202 476.432 211.202 473.677C211.202 470.003 210.013 466.761 207.69 464.06C205.367 461.412 202.341 459.683 198.559 458.873C197.209 458.603 195.75 458.387 194.183 458.224C192.616 458.062 190.671 457.954 188.456 457.846C186.241 457.738 183.809 457.738 181.216 457.738H152.148V470.543H156.47V498.422H152.148V511.228H181.216V498.422H177.164V489.4H183.755L195.426 511.228H214.66V498.422H210.77V498.314ZM188.51 477.729C187.699 478.594 186.727 479.08 185.592 479.242C184.512 479.404 182.458 479.512 179.433 479.512H177.11V469.355H179.001C182.134 469.355 184.295 469.463 185.43 469.625C186.673 469.787 187.645 470.327 188.456 471.138C189.266 471.948 189.644 473.083 189.644 474.433C189.644 475.784 189.32 476.973 188.51 477.729ZM258.478 511.119H228.492V498.314H233.084V470.435H226.979V480.161H216.929V457.63H269.932V480.161H259.883V470.435H253.777V498.314H258.478V511.119ZM279.387 470.435H275.281V457.63H302.62V470.435H300.081V488.481C300.081 492.803 300.513 495.721 301.324 497.288C302.134 498.801 303.593 499.611 305.754 499.611C307.537 499.611 308.78 498.963 309.59 497.666C310.4 496.369 310.779 493.776 310.779 489.778V470.489H308.077V457.684H328.176V470.489H323.962V489.832C323.962 494.802 323.259 498.801 321.801 501.988C320.342 505.122 317.965 507.554 314.669 509.336C311.319 511.119 307.213 511.984 302.35 511.984C298.406 511.984 294.948 511.498 291.922 510.579C288.843 509.661 286.411 508.256 284.628 506.365C282.845 504.474 281.495 502.205 280.684 499.557C279.82 496.964 279.387 493.02 279.387 487.617V470.435ZM355.461 511.119H333.525V498.314H338.226V470.435H333.525V457.63H358.865L378.316 485.563V470.435H373.939V457.63H395.497V470.435H390.85V511.768H373.237L350.761 479.458V498.314H355.461V511.119ZM452.12 511.119H401.116V498.314H405.276V470.435H401.008V457.63H452.12V474.758H438.072V470.435H425.916V478.648H436.505V489.562H425.916V498.314H438.072V493.992H452.12V511.119ZM150.635 487.4V481.079L144.638 479.458C144.26 476.919 143.611 474.487 142.693 472.164L147.069 467.788L143.935 462.331L137.992 463.898C136.425 461.898 134.642 460.116 132.643 458.549L128.753 449.472L124.377 453.794C122.053 452.876 119.568 452.227 117.029 451.849L115.408 445.906H109.086L107.465 451.849C104.926 452.227 102.441 452.876 100.117 453.794L95.741 449.472L91.8509 458.549C89.8518 460.116 88.0688 461.898 86.5019 463.898L80.5587 462.331L77.425 467.788L81.8014 472.164C80.8829 474.487 80.2345 476.919 79.8563 479.458L73.859 481.079V487.4L79.8563 489.021C80.2345 491.561 80.8829 493.938 81.8014 496.261L77.3709 500.692L80.5046 506.149L86.556 504.528C88.1228 506.473 89.9058 508.256 91.8509 509.769L90.23 515.82L95.6869 518.954L100.117 514.523C102.387 515.442 104.818 516.09 107.303 516.414L108.924 522.52H115.246L116.867 516.414C119.352 516.036 121.783 515.388 124.052 514.523L128.483 518.954L133.94 515.82L132.319 509.769C134.264 508.202 136.047 506.473 137.614 504.528L143.665 506.149L146.799 500.692L142.368 496.261C143.287 493.992 143.935 491.561 144.314 489.021L150.635 487.4ZM112.274 500.746C103.089 500.746 95.6869 493.29 95.6869 484.159C95.6869 474.974 103.143 467.572 112.274 467.572C121.459 467.572 128.861 475.028 128.861 484.159C128.861 493.344 121.459 500.746 112.274 500.746ZM56.5155 583.303H23.2333V570.228H28.9604V541.646H23.0172V528.517H76.9927V546.563H62.4047V541.646H50.1941V550.075H59.6492V561.205H50.1941V570.228H56.5155V583.303ZM127.943 570.228L117.461 541.646H121.891V528.517H82.5037V541.646H86.9341L76.6685 570.228H72.5083V583.357H94.2281V571.362H89.7437L92.121 564.447H106.169L108.276 571.362H103.467V583.357H132.049V570.228H127.943ZM94.1201 557.585L99.3069 542.403L103.953 557.585H94.1201ZM176.461 559.152L190.671 564.176C189.482 570.012 186.673 574.82 182.35 578.548C177.974 582.33 171.923 584.167 164.25 584.167C153.769 584.167 145.988 581.412 140.91 575.955C135.831 570.498 133.292 563.798 133.292 555.964C133.292 548.022 135.777 541.268 140.748 535.757C145.718 530.192 152.148 527.436 160.09 527.436C166.52 527.436 171.761 529.003 175.813 532.191V528.517H188.996V548.508H175.327C174.624 546.023 173.435 544.023 171.761 542.619C170.086 541.214 168.141 540.512 166.033 540.512C160.09 540.512 157.119 545.644 157.119 555.856C157.119 566.122 160.198 571.2 166.358 571.2C171.653 571.2 175.056 567.202 176.461 559.152ZM236.65 583.303H205.853V570.228H210.608V541.646H204.286V551.588H194.021V528.517H248.375V551.588H238.055V541.646H231.787V570.228H236.65V583.303ZM388.959 570.228L381.395 557.693C383.773 556.612 385.718 554.937 387.177 552.668C388.635 550.345 389.392 547.805 389.392 544.942C389.392 541.16 388.203 537.864 385.772 535.109C383.394 532.353 380.261 530.624 376.425 529.814C375.074 529.543 373.561 529.273 371.94 529.111C370.319 528.949 368.374 528.787 366.051 528.733C363.782 528.625 361.296 528.571 358.595 528.571H328.825V541.7H333.255V570.282H328.825V583.411H358.595V570.282H354.435V561.043H361.188L373.129 583.411H392.85V570.282H388.959V570.228ZM366.159 549.102C365.349 549.967 364.322 550.507 363.187 550.669C362.107 550.831 360 550.939 356.866 550.939H354.489V540.512H356.434C359.621 540.512 361.837 540.62 363.079 540.782C364.322 540.944 365.403 541.484 366.213 542.349C367.023 543.213 367.456 544.294 367.456 545.752C367.456 547.211 366.969 548.292 366.159 549.102ZM437.37 583.303H407.384V570.228H411.814V561.475L397.982 541.646H394.254V528.517H422.89V541.646H419.648L425.429 552.83L432.507 541.646H429.157V528.517H450.229V541.646H446.825L433.048 561.475V570.228H437.37V583.303ZM327.528 559.368V553.046L321.531 551.425C321.152 548.886 320.504 546.455 319.585 544.131L323.962 539.755L320.828 534.298L314.885 535.865C313.318 533.866 311.535 532.083 309.536 530.516L305.646 521.439L301.269 525.761C298.946 524.843 296.461 524.195 293.921 523.816L292.301 517.873H285.979L284.358 523.816C281.819 524.195 279.333 524.843 277.01 525.761L272.634 521.439L268.744 530.516C266.745 532.083 264.962 533.866 263.395 535.865L257.451 534.298L254.318 539.755L258.694 544.131C257.776 546.455 257.127 548.886 256.749 551.425L250.752 553.046V559.368L256.749 560.989C257.127 563.528 257.776 565.905 258.694 568.229L254.264 572.659L257.397 578.116L263.449 576.495C265.016 578.44 266.799 580.223 268.744 581.736L267.123 587.787L272.58 590.921L277.01 586.491C279.279 587.409 281.711 588.058 284.196 588.382L285.817 594.487H292.138L293.759 588.382C296.245 588.003 298.676 587.355 300.945 586.491L305.376 590.921L310.833 587.787L309.212 581.736C311.157 580.169 312.94 578.44 314.507 576.495L320.558 578.116L323.692 572.659L319.261 568.229C320.18 565.959 320.828 563.528 321.206 560.989L327.528 559.368ZM289.167 572.767C279.982 572.767 272.58 565.311 272.58 556.18C272.58 547.049 280.036 539.593 289.167 539.593C298.352 539.593 305.754 547.049 305.754 556.18C305.754 565.311 298.352 572.767 289.167 572.767Z" fill="#0047BA"/>
<path d="M52.5714 505.501H20.0996V492.696H25.7187V464.871H19.9375V452.066H72.5623V469.679H58.3525V464.871H46.412V473.083H55.597V483.943H46.412V492.696H52.5714V505.501ZM210.77 492.696L203.368 480.485C205.691 479.459 207.582 477.784 209.041 475.568C210.5 473.299 211.202 470.814 211.202 468.058C211.202 464.384 210.013 461.143 207.69 458.441C205.367 455.794 202.341 454.065 198.559 453.254C197.209 452.984 195.75 452.768 194.183 452.606C192.616 452.444 190.671 452.336 188.456 452.228C186.241 452.12 183.809 452.12 181.216 452.12H152.148V464.925H156.47V492.804H152.148V505.609H181.216V492.696H177.164V483.673H183.755L195.426 505.501H214.66V492.696H210.77ZM188.51 472.165C187.699 473.029 186.727 473.515 185.592 473.677C184.512 473.839 182.458 473.948 179.433 473.948H177.11V463.79H179.001C182.134 463.79 184.295 463.898 185.43 464.06C186.673 464.222 187.645 464.763 188.456 465.573C189.266 466.383 189.644 467.518 189.644 468.869C189.698 470.274 189.32 471.354 188.51 472.165ZM258.478 505.501H228.492V492.696H233.084V464.871H226.979V474.596H216.929V452.066H269.932V474.596H259.883V464.871H253.777V492.696H258.478V505.501ZM279.387 464.871H275.281V452.066H302.62V464.871H300.081V482.916C300.081 487.239 300.513 490.156 301.324 491.723C302.134 493.236 303.593 494.047 305.754 494.047C307.537 494.047 308.78 493.398 309.59 492.101C310.4 490.805 310.779 488.211 310.779 484.213V464.925H308.077V452.12H328.176V464.925H323.962V484.267C323.962 489.238 323.259 493.236 321.801 496.424C320.342 499.558 317.965 501.989 314.669 503.772C311.319 505.555 307.213 506.419 302.35 506.419C298.406 506.419 294.948 505.933 291.922 505.015C288.843 504.096 286.411 502.691 284.628 500.8C282.845 498.909 281.495 496.64 280.684 493.993C279.82 491.399 279.387 487.455 279.387 482.052V464.871ZM355.461 505.501H333.525V492.696H338.226V464.871H333.525V452.066H358.865L378.316 479.999V464.871H373.939V452.066H395.497V464.871H390.85V506.203H373.237L350.761 473.893V492.696H355.461V505.501ZM452.12 505.501H401.116V492.696H405.276V464.871H401.008V452.066H452.12V469.139H438.072V464.871H425.916V473.083H436.505V483.943H425.916V492.696H438.072V488.427H452.12V505.501ZM150.635 481.782V475.46L144.638 473.839C144.26 471.3 143.611 468.869 142.693 466.545L147.069 462.169L143.935 456.712L137.992 458.279C136.425 456.28 134.642 454.497 132.643 452.93L134.21 446.987L128.753 443.853L124.377 448.175C122.053 447.257 119.568 446.609 117.029 446.23L115.408 440.287H109.086L107.465 446.23C104.926 446.609 102.441 447.257 100.117 448.175L95.741 443.853L90.284 446.987L91.8509 452.93C89.8518 454.497 88.0688 456.28 86.5019 458.279L80.5587 456.712L77.425 462.169L81.8014 466.545C80.8829 468.869 80.2345 471.3 79.8563 473.839L73.859 475.46V481.782L79.8563 483.403C80.2345 485.942 80.8829 488.319 81.8014 490.643L77.3709 495.073L80.5046 500.53L86.556 498.909C88.1228 500.854 89.9058 502.637 91.8509 504.15L90.23 510.201L95.6869 513.335L100.117 508.905C102.387 509.823 104.818 510.472 107.303 510.796L108.924 516.901H115.246L116.867 510.796C119.352 510.417 121.783 509.769 124.052 508.905L128.483 513.335L133.94 510.201L132.319 504.15C134.264 502.583 136.047 500.854 137.614 498.909L143.665 500.53L146.799 495.073L142.368 490.643C143.287 488.373 143.935 485.942 144.314 483.403L150.635 481.782ZM112.274 495.181C103.089 495.181 95.6869 487.725 95.6869 478.594C95.6869 469.409 103.143 462.007 112.274 462.007C121.459 462.007 128.861 469.463 128.861 478.594C128.861 487.779 121.459 495.181 112.274 495.181ZM56.5155 577.738H23.2333V564.609H28.9604V536.027H23.0172V522.952H76.9927V540.998H62.4047V536.027H50.1941V544.51H59.6492V555.64H50.1941V564.609H56.5155V577.738ZM127.943 564.609L117.461 536.027H121.891V522.952H82.5037V536.082H86.9341L76.6685 564.663H72.5083V577.792H94.2281V565.798H89.7437L92.121 558.882H106.169L108.276 565.798H103.467V577.792H132.049V564.663H127.943V564.609ZM94.1201 552.02L99.3069 536.838L103.953 552.02H94.1201ZM176.461 553.587L190.671 558.612C189.482 564.447 186.673 569.256 182.35 572.984C177.974 576.766 171.923 578.603 164.25 578.603C153.769 578.603 145.988 575.847 140.91 570.39C135.831 564.933 133.292 558.234 133.292 550.399C133.292 542.457 135.777 535.703 140.748 530.192C145.718 524.627 152.148 521.872 160.09 521.872C166.52 521.872 171.761 523.439 175.813 526.626V522.952H188.996V542.943H175.327C174.624 540.458 173.435 538.459 171.761 537.054C170.086 535.649 168.141 534.947 166.033 534.947C160.09 534.947 157.119 540.08 157.119 550.291C157.119 560.557 160.198 565.636 166.358 565.636C171.653 565.582 175.056 561.583 176.461 553.587ZM236.65 577.738H205.853V564.609H210.608V536.027H204.286V546.023H194.021V522.952H248.375V546.023H238.055V536.027H231.787V564.609H236.65V577.738ZM388.959 564.609L381.395 552.074C383.773 550.994 385.718 549.319 387.177 547.05C388.635 544.726 389.392 542.187 389.392 539.323C389.392 535.541 388.203 532.245 385.772 529.49C383.394 526.734 380.261 525.005 376.425 524.195C375.074 523.925 373.561 523.655 371.94 523.493C370.319 523.331 368.374 523.168 366.051 523.114C363.782 523.006 361.296 522.952 358.595 522.952H328.825V536.082H333.255V564.663H328.825V577.792H358.595V564.663H354.435V555.37H361.188L373.129 577.738H392.85V564.609H388.959ZM366.159 543.538C365.349 544.402 364.322 544.942 363.187 545.104C362.107 545.267 360 545.375 356.866 545.375H354.489V534.947H356.434C359.621 534.947 361.837 535.055 363.079 535.217C364.322 535.379 365.403 535.919 366.213 536.784C367.023 537.648 367.456 538.729 367.456 540.188C367.456 541.647 366.969 542.727 366.159 543.538ZM437.37 577.738H407.384V564.609H411.814V555.91L397.982 536.027H394.254V522.952H422.89V536.027H419.648L425.429 547.266L432.507 536.027H429.157V522.952H450.229V536.027H446.825L433.048 555.91V564.609H437.37V577.738ZM327.528 553.803V547.482L321.531 545.861C321.152 543.322 320.504 540.89 319.585 538.567L323.962 534.191L320.828 528.733L314.885 530.3C313.318 528.301 311.535 526.518 309.536 524.951L311.103 519.008L305.646 515.874L301.269 520.197C298.946 519.278 296.461 518.63 293.921 518.252L292.301 512.309H285.979L284.358 518.252C281.819 518.63 279.333 519.278 277.01 520.197L272.634 515.874L267.177 519.008L268.744 524.951C266.745 526.518 264.962 528.301 263.395 530.3L257.451 528.733L254.318 534.191L258.694 538.567C257.776 540.89 257.127 543.322 256.749 545.861L250.752 547.482V553.803L256.749 555.424C257.127 557.963 257.776 560.341 258.694 562.664L254.264 567.094L257.397 572.552L263.449 570.931C265.016 572.876 266.799 574.659 268.744 576.171L267.123 582.223L272.58 585.356L277.01 580.926C279.279 581.845 281.711 582.493 284.196 582.817L285.817 588.922H292.138L293.759 582.817C296.245 582.439 298.676 581.791 300.945 580.926L305.376 585.356L310.833 582.223L309.212 576.171C311.157 574.605 312.94 572.876 314.507 570.931L320.558 572.552L323.692 567.094L319.261 562.664C320.18 560.395 320.828 557.963 321.206 555.424L327.528 553.803ZM289.167 567.203C279.982 567.203 272.58 559.746 272.58 550.615C272.58 541.43 280.036 534.028 289.167 534.028C298.352 534.028 305.754 541.484 305.754 550.615C305.754 559.746 298.352 567.203 289.167 567.203Z" fill="white"/>
<path d="M174.677 485.888C169.382 485.617 164.141 485.347 158.955 485.077V495.235H154.632V503.069H178.729V495.235H174.677V485.888ZM204.393 486.914C198.882 486.806 193.425 486.644 188.023 486.428L196.883 503.015H212.174V495.181H209.418L204.393 486.914ZM140.368 489.778C141.125 487.887 141.665 485.942 141.989 483.943C138.261 483.672 134.533 483.348 130.805 483.078C128.806 491.453 121.242 497.666 112.273 497.666C101.953 497.666 93.5248 489.454 93.2006 479.242C87.7977 478.594 82.5028 477.891 77.3159 477.189L76.3974 477.459V479.944L82.1246 481.511L82.3407 483.132C82.6649 485.401 83.3132 487.671 84.1237 489.832L84.718 491.345L80.5037 495.559L81.7464 497.72L87.5275 496.207L88.5541 497.45C90.0129 499.233 91.6338 500.908 93.4167 502.313L94.7135 503.339L93.1466 509.174L95.3078 510.417L99.5761 506.203L101.089 506.797C103.196 507.661 105.465 508.256 107.735 508.58L109.355 508.796L110.922 514.631H113.408L114.975 508.796L116.595 508.58C118.865 508.256 121.134 507.661 123.241 506.797L124.754 506.203L129.022 510.417L131.183 509.174L129.617 503.339L130.913 502.313C132.696 500.908 134.371 499.233 135.776 497.45L136.803 496.207L142.584 497.72L143.826 495.559L139.612 491.345L140.368 489.778ZM43.9257 471.732C38.5227 470.705 33.2818 469.679 28.2031 468.598V495.235H22.584V503.069H50.085V495.235H43.8716V481.511H53.1107V475.622H43.8716V471.732H43.9257ZM348.274 482.43C345.789 482.646 343.249 482.862 340.71 483.078V495.181H336.009V503.015H352.975V495.181H348.274V482.43ZM251.291 487.184C246.212 487.238 241.08 487.292 235.947 487.292H235.569V495.181H230.976V503.015H256.046V495.181H251.345V487.184H251.291ZM440.557 495.181H423.429V481.457H434.019V475.568H423.429V472.542C418.351 473.461 413.11 474.325 407.707 475.19V495.181H403.546V503.015H449.58V490.858H440.503V495.181H440.557ZM380.746 478.972V487.887L375.019 479.62C369.778 480.215 364.429 480.809 358.972 481.349L374.533 503.663H388.364V477.945C385.879 478.323 383.339 478.648 380.746 478.972ZM313.263 485.023C313.209 489.075 312.723 491.723 311.696 493.29C310.832 494.748 309.103 496.423 305.753 496.423C301.863 496.423 300.026 494.478 299.161 492.803C298.351 491.291 297.919 489.021 297.703 485.834C292.516 486.05 287.275 486.266 282.034 486.482C282.196 489.291 282.574 491.561 283.115 493.128C283.817 495.397 285.006 497.396 286.518 498.963C287.977 500.53 290.084 501.718 292.732 502.529C295.487 503.393 298.729 503.825 302.403 503.825C306.834 503.825 310.562 503.015 313.533 501.448C316.397 499.935 318.396 497.882 319.585 495.289C320.827 492.533 321.476 488.913 321.53 484.483C318.72 484.699 316.019 484.861 313.263 485.023ZM229.301 559.908C223.844 559.908 218.441 559.8 213.092 559.746V567.148H208.338V575.307H234.164V567.148H229.301V559.908ZM121.728 554.883C116.758 554.397 111.841 553.911 106.978 553.425L107.302 554.505H90.6612L91.6338 551.642C89.1484 551.317 86.663 551.047 84.2317 550.723L78.3425 567.094H74.8846V575.253H91.6338V568.175H86.1227L90.283 556.288H107.897L111.463 568.175H105.79V575.253H129.454V567.094H126.159L121.728 554.883ZM47.7077 545.05C42.1427 544.023 36.6857 542.997 31.4989 541.916V567.148H25.7717V575.307H54.0832V567.148H47.7618V553.208H57.1629V547.049H47.7077V545.05ZM177.703 558.665C175.055 566.338 170.193 568.121 166.249 568.121C161.926 568.121 156.956 566.067 155.173 557.477C148.797 557.099 142.476 556.612 136.262 556.126C137.181 560.881 139.288 565.041 142.692 568.715C147.23 573.632 154.47 576.171 164.195 576.171C171.273 576.171 176.784 574.496 180.674 571.146C184.078 568.229 186.402 564.609 187.644 560.232L184.024 558.936C181.971 558.828 179.864 558.719 177.703 558.665ZM317.207 561.745C317.802 560.34 318.234 558.828 318.558 557.315C314.614 557.585 310.67 557.801 306.671 558.017C303.754 564.825 297 569.633 289.112 569.633C281.764 569.633 275.388 565.473 272.201 559.368C268.256 559.476 264.312 559.584 260.314 559.638C260.53 560.34 260.746 561.043 261.016 561.691L261.611 563.204L257.396 567.418L258.639 569.579L264.42 568.067L265.447 569.309C266.906 571.092 268.527 572.767 270.31 574.172L271.606 575.198L270.039 581.034L272.201 582.276L276.469 578.062L277.982 578.656C280.089 579.521 282.358 580.115 284.627 580.439L286.248 580.655L287.815 586.491H290.3L291.867 580.655L293.488 580.439C295.757 580.115 298.027 579.521 300.134 578.656L301.647 578.062L305.915 582.276L308.076 581.034L306.509 575.198L307.806 574.172C309.589 572.767 311.264 571.092 312.669 569.309L313.695 568.067L319.476 569.579L320.719 567.418L316.505 563.204L317.207 561.745ZM378.369 551.858C373.344 552.452 368.265 553.046 363.078 553.587L374.641 575.253H390.417V567.094H387.554L378.369 551.858ZM430.561 555.153L439.638 542.078C436.667 542.673 433.641 543.321 430.507 543.915L425.266 552.29L421.754 545.536C417.594 546.293 413.38 546.995 409.057 547.643L414.298 555.153V567.148H409.868V575.307H434.83V567.148H430.507V555.153H430.561ZM352.002 554.721C346.653 555.208 341.25 555.694 335.793 556.126V567.094H331.363V575.253H356.163V567.094H352.002V554.721Z" fill="#C4CFDA"/>
<path d="M149.393 232.759L150.635 252.048L159.01 261.449L197.047 248.374L210.878 266.474L234.165 260.531L251.292 224.871L229.951 190.94L197.047 193.372L169.924 212.552L150.635 232.759H149.393Z" fill="#0047BA"/>
<path d="M267.5 152.472V132.048L248.104 126.808C246.915 118.595 244.808 110.707 241.836 103.197L255.992 88.9869L245.726 71.3192L226.384 76.452C221.305 70.0225 215.47 64.1873 209.04 59.1085L196.559 29.6084L182.458 43.6561C174.948 40.6304 166.951 38.4692 158.685 37.2806L153.498 18.1001H133.075L127.888 37.2806C119.621 38.4692 111.625 40.6304 104.115 43.6561L90.0131 29.6084L77.4782 59.1085C71.0487 64.1873 65.2675 70.0225 60.1347 76.452L40.7922 71.3192L30.5806 88.9869L44.7363 103.197C41.7647 110.707 39.6575 118.595 38.4689 126.808L19.0723 132.048V152.472L38.5769 157.767C39.7656 165.925 41.9268 173.759 44.8984 181.215L30.5806 195.533L40.7922 213.201L60.4589 208.014C65.4837 214.335 71.2108 220.063 77.5863 225.087L72.3454 244.754L90.0131 254.966L104.439 240.594C111.841 243.511 119.621 245.619 127.726 246.807L133.075 266.528H153.498L158.847 246.807C166.951 245.619 174.731 243.511 182.133 240.594L196.559 254.966L214.227 244.754L208.986 225.087C215.308 220.063 221.035 214.335 226.114 208.014L245.78 213.255L255.992 195.587L241.728 181.269C244.7 173.813 246.861 165.979 248.05 157.821L267.5 152.472ZM143.286 195.803C113.57 195.803 89.4728 171.706 89.4728 141.99C89.4728 112.274 113.57 88.1764 143.286 88.1764C173.003 88.1764 197.1 112.274 197.1 141.99C197.1 171.706 172.948 195.803 143.286 195.803Z" fill="#0047BA"/>
<path d="M453.199 297V276.577L433.803 271.336C432.614 263.124 430.507 255.236 427.535 247.725L441.691 233.516L431.48 215.848L412.137 220.981C407.058 214.551 401.223 208.716 394.793 203.637L382.259 174.137L368.157 188.185C360.647 185.159 352.65 182.998 344.384 181.809L339.197 162.629H318.774L313.587 181.809C305.32 182.998 297.324 185.159 289.814 188.185L275.712 174.137L263.177 203.637C256.748 208.716 250.967 214.551 245.834 220.981L226.491 215.848L216.28 233.516L230.436 247.725C227.464 255.236 225.357 263.124 224.168 271.336L204.771 276.577V297L224.276 302.295C225.465 310.454 227.626 318.288 230.598 325.744L216.334 340.062L226.545 357.73L246.212 352.543C251.237 358.864 256.964 364.591 263.34 369.616L258.099 389.283L275.766 399.495L290.192 385.123C297.594 388.04 305.375 390.147 313.479 391.336L318.828 411.057H339.251L344.6 391.336C352.704 390.147 360.485 388.04 367.887 385.123L382.313 399.495L399.98 389.283L394.739 369.616C401.061 364.591 406.788 358.864 411.867 352.543L431.534 357.784L441.745 340.116L427.481 325.798C430.453 318.342 432.614 310.508 433.803 302.349L453.199 297ZM328.931 340.332C299.215 340.332 275.118 316.235 275.118 286.519C275.118 256.802 299.215 232.705 328.931 232.705C358.648 232.705 382.745 256.802 382.745 286.519C382.745 316.235 358.648 340.332 328.931 340.332Z" fill="#0047BA"/>
<path d="M328.932 143.88L372.48 95.0378L300.621 145.123L386.96 12.0483L286.249 137.181L296.622 66.7803L265.447 148.743L215.2 70.6164L246.645 154.686L191.913 141.719L233.354 176.298L228.977 177.865L210.013 179.162L103.034 214.875L166.195 232.219L80.342 267.122L163.007 248.86L0 373.452L156.848 274.632L112.544 350.598L166.195 282.25L136.1 396.469L193.534 264.15L203.8 342.493L218.766 247.347L244.322 270.904L272.309 193.912L275.929 193.372L292.354 188.077L447.419 93.8491L328.932 143.88Z" fill="#0047BA"/>
<path d="M173.218 268.203L138.585 312.291L166.14 265.069L57.541 333.471L176.352 242.647L116.433 255.884L176.082 231.625L113.948 214.605L210.607 182.296L229.625 180.999L239.621 177.433L204.339 147.933L251.723 159.171L228.545 97.2532L266.203 155.767L289.22 95.1461L281.44 148.257L350.435 62.5122L289.112 157.01L352.11 113.138L317.153 152.309L408.679 113.678L291.003 185.159L275.442 190.238L269.985 191.049L242.971 265.339L216.55 240.972L204.069 320.179L195.208 252.372L149.824 356.865L173.218 268.203Z" fill="#0047BA"/>
<path d="M344.277 70.9951L290.14 154.417L287.168 159.009L291.653 155.876L348.708 116.11L318.343 150.148L315.155 153.714L319.532 151.877L402.143 116.974L290.788 184.673L275.282 189.698L270.203 190.454L269.554 190.562L269.338 191.157L242.702 264.421L217.632 241.242L216.173 239.891L215.849 241.891L204.125 316.451L195.966 254.209L195.48 250.373L193.967 253.939L152.148 350.22L173.058 270.85L174.354 265.826L171.167 269.878L142.963 305.808L165.493 267.176L167.709 263.394L164.035 265.718L67.2137 326.717L174.733 244.538L178.569 241.62L173.868 242.647L122.486 253.993L174.787 232.76L177.704 231.571L174.678 230.76L115.786 214.606L210.716 182.89L229.573 181.648H229.735L229.897 181.594L238.974 178.352L240.703 177.703L239.298 176.515L206.448 149.068L250.644 159.55L252.589 160.036L251.887 158.145L230.815 101.792L265.178 155.227L266.313 157.01L267.069 155.011L287.978 99.9009L281.171 146.258L280.576 150.148L283.062 147.069L344.277 70.9951ZM356.596 54.0298L282.251 146.42L290.464 90.3917L266.097 154.579L226.331 92.769L250.86 158.415L202.234 146.853L238.541 177.217L229.464 180.459L210.446 181.702L112.058 214.606L174.408 231.733L110.383 257.775L174.138 243.674L47.8711 340.17L164.629 266.69L134.21 318.721L172.031 270.58L147.502 363.565L194.94 254.317L204.071 323.907L216.984 241.999L243.242 266.258L270.419 191.481L275.606 190.725L291.328 185.646L415.272 110.329L319.208 150.905L355.624 110.058L291.058 155.011L356.596 54.0298Z" fill="#C4CFDA"/>
<path d="M267.502 134.372V113.948L248.105 108.707C246.916 100.495 244.809 92.6067 241.837 85.0966L255.993 70.8868L245.728 53.2191L226.385 58.3519C221.306 51.9224 215.471 46.0872 209.042 41.0084L214.174 21.7199L196.561 11.5083L182.459 25.556C174.949 22.5303 166.952 20.3691 158.686 19.1805L153.499 0H133.076L127.889 19.1805C119.623 20.3691 111.626 22.5303 104.116 25.556L90.0144 11.5083L72.2927 21.6659L77.4255 40.9544C70.996 46.0332 65.2148 51.8684 60.082 58.2979L40.7394 53.1651L30.5278 70.8328L44.6836 85.0425C41.7119 92.5526 39.6048 100.441 38.4161 108.653L19.0195 113.894V134.318L38.5242 139.612C39.7129 147.771 41.874 155.605 44.8457 163.061L30.5819 177.379L40.7935 195.047L60.4602 189.86C65.485 196.181 71.2121 201.908 77.5876 206.933L72.3467 226.6L90.0144 236.812L104.44 222.44C111.842 225.357 119.623 227.464 127.727 228.653L133.076 248.374H153.499L158.848 228.653C166.952 227.464 174.733 225.357 182.135 222.44L196.561 236.812L214.228 226.6L208.987 206.933C215.309 201.908 221.036 196.181 226.115 189.86L245.782 195.101L255.993 177.433L241.675 163.115C244.647 155.659 246.808 147.825 247.997 139.666L267.502 134.372ZM143.288 177.703C113.571 177.703 89.4741 153.606 89.4741 123.89C89.4741 94.1735 113.571 70.0763 143.288 70.0763C173.004 70.0763 197.101 94.1735 197.101 123.89C197.101 153.606 172.95 177.703 143.288 177.703Z" fill="white"/>
<path d="M453.199 278.901V258.478L433.803 253.237C432.614 245.024 430.507 237.136 427.535 229.626L441.691 215.416L431.48 197.748L412.137 202.881C407.058 196.452 401.223 190.617 394.793 185.538L399.926 166.249L382.259 156.038L368.157 170.085C360.647 167.06 352.65 164.898 344.384 163.71L339.197 144.529H318.774L313.587 163.71C305.32 164.898 297.324 167.06 289.814 170.085L275.712 156.038L258.045 166.249L263.177 185.538C256.748 190.617 250.967 196.452 245.834 202.881L226.491 197.748L216.28 215.416L230.436 229.626C227.464 237.136 225.357 245.024 224.168 253.237L204.771 258.478V278.901L224.276 284.196C225.465 292.354 227.626 300.188 230.598 307.645L216.28 321.962L226.491 339.63L246.158 334.443C251.183 340.765 256.91 346.492 263.285 351.517L258.045 371.183L275.712 381.395L290.138 367.023C297.54 369.941 305.32 372.048 313.425 373.236L318.774 392.957H339.197L344.546 373.236C352.65 372.048 360.431 369.941 367.833 367.023L382.259 381.395L399.926 371.183L394.685 351.517C401.007 346.492 406.734 340.765 411.813 334.443L431.48 339.684L441.691 322.016L427.427 307.699C430.399 300.242 432.56 292.408 433.749 284.25L453.199 278.901ZM328.931 322.233C299.215 322.233 275.118 298.135 275.118 268.419C275.118 238.703 299.215 214.606 328.931 214.606C358.648 214.606 382.745 238.703 382.745 268.419C382.745 298.135 358.648 322.233 328.931 322.233Z" fill="white"/>
<path d="M234.218 160.144C236.65 154.092 238.379 147.771 239.567 141.287C227.411 140.369 215.362 139.45 203.422 138.424C196.884 165.547 172.409 185.754 143.341 185.754C109.95 185.754 82.6654 159.117 81.5308 125.997C64.0793 123.89 46.9519 121.621 30.1487 119.297L27.123 120.108V128.212L45.7632 133.237L46.5197 138.424C47.6002 145.826 49.5994 153.12 52.3549 160.09L54.2999 165.006L40.6304 178.73L44.6827 185.754L63.4309 180.783L66.7267 184.889C71.3733 190.724 76.7222 196.019 82.5574 200.666L86.6636 203.962L81.6929 222.764L88.7168 226.816L102.548 213.093L107.465 215.038C114.381 217.739 121.621 219.684 128.969 220.765L134.21 221.521L139.288 240.378H147.393L152.472 221.521L157.712 220.765C165.115 219.684 172.355 217.739 179.216 215.038L184.133 213.093L197.965 226.816L204.988 222.764L199.964 203.908L204.07 200.612C209.905 195.965 215.254 190.67 219.901 184.835L223.196 180.729L241.945 185.7L245.997 178.676L232.219 165.006L234.218 160.144ZM419.918 304.619C421.755 299.972 423.214 295.164 424.348 290.301C411.651 291.111 398.846 291.868 385.933 292.57C376.532 314.722 354.542 330.229 328.986 330.229C305.213 330.229 284.574 316.775 274.2 297.055C261.449 297.379 248.59 297.703 235.677 297.919C236.38 300.188 237.136 302.404 238 304.565L239.946 309.481L226.276 323.205L230.328 330.229L249.077 325.258L252.372 329.364C257.019 335.2 262.368 340.494 268.203 345.141L272.309 348.437L267.339 367.239L274.362 371.291L288.194 357.568L293.111 359.513C300.026 362.214 307.266 364.159 314.614 365.24L319.855 365.996L324.934 384.853H333.038L338.117 365.996L343.358 365.24C350.76 364.159 358 362.214 364.862 359.513L369.779 357.568L383.61 371.291L390.634 367.239L385.663 348.383L389.769 345.087C395.605 340.44 400.9 335.145 405.6 329.31L408.896 325.204L427.644 330.175L431.696 323.151L418.027 309.427L419.918 304.619ZM399.495 134.858L402.412 146.15L390.688 149.662L402.737 148.311L401.062 159.387L404.466 147.717L417.054 151.121L405.87 145.448L408.788 136.263L403.871 145.88L399.495 134.858Z" fill="#C4CFDA"/>
<path d="M409.112 135.236L403.493 145.34L392.849 139.126L402.304 147.123L393.552 153.66L403.871 147.987L410.409 159.711L406.411 147.447L414.677 143.124L404.736 146.258L409.112 135.236ZM329.094 34.8491L326.393 46.8437L313.588 44.5744L325.637 49.0589L318.667 58.7302L327.528 49.329L337.793 58.6221L330.013 47.9243L337.145 40.6303L327.906 47.33L329.094 34.8491Z" fill="#C4CFDA"/>
<path d="M337.955 39.874L327.797 46.6817L320.719 35.6597L325.798 47.7623L314.344 49.7074L326.879 49.3291L327.365 63.5389L329.526 50.0315L339.413 49.9775L328.5 48.0865L337.955 39.874Z" fill="#C4CFDA"/>
<path d="M389.5 17.884L414.192 34.5251L392.093 60.4593L418.028 37.0645L449.689 48.843L421.377 31.9317L431.535 1.94531L417.649 29.1762L389.5 17.884Z" fill="#0047BA"/>
<path d="M391.877 35.3891L415.758 36.5778L411.328 63.5925L419.486 36.6858L446.177 31.6611L419.648 31.8232L414.137 6.91553L415.92 31.445L391.877 35.3891Z" fill="#0047BA"/>
<path d="M418.784 82.9892L399.063 81.9626L402.791 59.6484L395.983 81.8546L373.939 85.9608L395.821 85.9068L400.36 106.492L398.901 86.231L418.784 82.9892Z" fill="white"/>
<path d="M411.49 73.8582L397.442 81.3683L390.742 64.457L395.281 82.5569L381.828 94.5515L396.848 85.4205L408.518 97.6852L399.117 84.3399L411.49 73.8582ZM66.1328 345.519L92.9855 362.268L70.4552 390.688L97.1458 364.807L131.292 376.1L100.55 359.242L110.167 326.933L96.4974 356.433L66.1328 345.519Z" fill="white"/>
<path d="M69.3203 363.997L94.7682 364.375L91.0402 393.281L98.7124 364.375L126.916 357.946L98.7124 359.134L91.9047 332.876L94.7142 358.864L69.3203 363.997Z" fill="white"/>
<path d="M107.248 389.607L116.811 395.767L111.3 406.951L118.432 397.117L124.808 406.519L119.243 395.389L129.994 388.689L118.648 392.687L114.434 383.826L117.568 394.47L107.248 389.607Z" fill="#C4CFDA"/>
<path d="M114.004 382.854L117.03 394.362L105.684 397.658L117.354 396.577L115.895 407.815L119.029 396.037L131.294 399.819L120.38 393.767L123.027 384.528L118.435 394.146L114.004 382.854Z" fill="#C4CFDA"/>
<path d="M208.662 351.895L188.131 363.943L177.055 339.036L184.998 365.834L165.547 384.637L187.537 370.049L205.691 387.716L190.779 368.32L208.662 351.895Z" fill="#0047BA"/>
<path d="M195.263 347.572L186.132 364.375L168.141 351.841L184.728 367.023L179.163 388.04L188.24 368.86L208.068 373.452L189.752 366.321L195.263 347.572Z" fill="#0047BA"/>
<path d="M47.5457 307.807L50.5173 285.492L75.4789 291.76L50.8955 282.035L48.248 256.641L46.357 281.494L22.584 284.736L45.7086 284.952L47.5457 307.807Z" fill="#C4CFDA"/>
<path d="M58.5689 300.296L51.3289 283.709L71.1577 277.658L50.1943 281.17L37.7675 264.799L46.7904 282.737L31.8242 294.785L47.817 285.33L58.5689 300.296Z" fill="#C4CFDA"/>
</svg>
