<svg width="1488" height="448" viewBox="0 0 1488 448" fill="none" xmlns="http://www.w3.org/2000/svg">
<mask id="mask0_1388_57" style="mask-type:luminance" maskUnits="userSpaceOnUse" x="0" y="0" width="1488" height="448">
<path d="M0 0H1488V448H0V0Z" fill="white"/>
</mask>
<g mask="url(#mask0_1388_57)">
<path d="M0 448H1488V-0.00244141H0V448Z" fill="#FFCD00"/>
<path d="M1310.28 293.726C1278.55 293.726 1261.21 275.39 1261.21 244.865V182.567H1234.93V153.875H1261.77L1271.27 114.954H1295.74V153.875H1356.41L1349.01 182.567H1295.74V238.851C1295.74 256.209 1301.05 264.467 1317.13 264.467H1349.01V293.726H1310.28ZM1170.58 223.727C1170.58 198.81 1151.42 180.611 1127.94 180.611C1105.01 180.611 1086.84 198.668 1086.84 223.727C1086.84 248.933 1105.01 266.99 1127.94 266.99C1151.42 266.99 1170.58 248.786 1170.58 223.727ZM1175.6 153.875H1204.97V293.726H1175.6L1171.97 273.43C1160.23 288.543 1142.62 297.227 1121.92 297.227C1083.62 297.227 1052.45 267.689 1052.45 223.727C1052.45 180.469 1083.48 150.232 1122.21 150.232C1142.9 150.232 1160.38 158.911 1171.97 174.029L1175.6 153.875ZM1004.32 182.567C983.486 182.567 972.03 195.309 972.03 215.753V265.308L1022.08 266.99V293.726H911.357V266.99L937.638 265.308V182.43L911.357 180.611V153.875H965.176L967.84 173.609C973.983 160.025 988.112 151.357 1006.7 151.357H1031.02V182.567H1004.32ZM839.457 223.727C839.457 198.81 820.303 180.611 796.815 180.611C773.888 180.611 755.708 198.668 755.708 223.727C755.708 248.933 773.888 266.99 796.815 266.99C820.303 266.99 839.457 248.786 839.457 223.727ZM844.491 153.875H873.839V293.726H844.491L840.848 273.43C829.109 288.543 811.496 297.227 790.806 297.227C752.503 297.227 721.331 267.689 721.331 223.727C721.331 180.469 752.358 150.232 791.084 150.232C811.774 150.232 829.253 158.911 840.848 174.029L844.491 153.875ZM578.823 223.727C578.823 248.786 598.121 266.99 621.465 266.99C644.387 266.99 662.562 248.933 662.562 223.727C662.562 198.668 644.387 180.611 621.465 180.611C598.121 180.611 578.823 198.81 578.823 223.727ZM578.823 275.243V325.782L629.715 327.606V354.489H518.995V327.606L544.436 325.924V153.875H573.789L577.431 174.172C589.17 159.053 606.784 150.232 627.613 150.232C666.339 150.232 696.954 180.469 696.954 223.727C696.954 267.689 665.365 297.227 627.195 297.227C607.346 297.227 590.423 289.248 578.823 275.243ZM392.705 223.727C392.705 248.786 411.861 266.99 435.205 266.99C458.129 266.99 476.444 248.933 476.444 223.727C476.444 198.668 458.129 180.611 435.205 180.611C411.861 180.611 392.705 198.81 392.705 223.727ZM392.705 275.39V325.782L443.588 327.606V354.489H332.873V327.606L358.175 325.924V182.43L331.891 180.611V153.875H387.535L391.304 174.172C403.047 158.911 420.664 150.232 441.357 150.232C480.082 150.232 510.834 180.469 510.834 223.727C510.834 267.689 479.237 297.227 440.937 297.227C421.084 297.227 404.307 289.248 392.705 275.39ZM275.229 293.726L266.42 255.646H184.781L175.978 293.726H137.951L170.944 162.975H206.031L191.774 224.989H259.428L239.722 139.598H137.951L145.642 108.935H267.822L313.954 293.726H275.229Z" fill="#0F0F0F"/>
</g>
</svg>
