<svg width="78" height="36" viewBox="0 0 78 36" fill="none" xmlns="http://www.w3.org/2000/svg">
<path d="M37.875 13.8482V14.2052C37.8825 14.7687 37.8081 15.3303 37.654 15.8721C37.4983 16.3401 37.2489 16.7709 36.921 17.138C36.5805 17.5344 36.1622 17.8557 35.6925 18.0818C35.2229 18.3079 34.7116 18.434 34.1912 18.452C34.1814 18.4548 34.1711 18.4548 34.1612 18.452C34.1107 18.452 34.0582 18.4569 34.0049 18.4569C33.9367 18.4569 33.8685 18.4569 33.8044 18.45C33.7742 18.45 33.747 18.45 33.719 18.4451C33.6317 18.4411 33.5436 18.4315 33.4583 18.4197C33.4281 18.4178 33.3983 18.4134 33.3689 18.4061C33.3054 18.3988 33.2422 18.3881 33.1799 18.3738C33.1614 18.3738 33.1409 18.3662 33.1218 18.3621C33.0461 18.3477 32.9703 18.3292 32.8959 18.3085L32.8851 18.3038C32.8108 18.2848 32.7378 18.2619 32.666 18.2352C32.638 18.2261 32.608 18.2165 32.5807 18.2049C32.5375 18.1911 32.4951 18.1747 32.4537 18.1561C32.4101 18.1403 32.3664 18.1218 32.3227 18.1033C32.2995 18.0916 32.2742 18.0827 32.2511 18.0703C32.1931 18.0449 32.1378 18.0175 32.0825 17.9872C32.0143 17.9502 31.9399 17.9111 31.8682 17.8692C31.2174 17.4891 30.6765 16.9449 30.2987 16.2902C30.2666 16.2346 30.2365 16.181 30.2092 16.1254C30.1819 16.0698 30.158 16.0258 30.1349 15.9771C30.1264 15.964 30.1195 15.95 30.1144 15.9352C30.0939 15.8913 30.0728 15.8474 30.0543 15.8028C29.9925 15.6559 29.9388 15.5058 29.8933 15.3531C29.8769 15.2975 29.8612 15.2419 29.8469 15.1862C29.8244 15.0956 29.806 15.0029 29.7869 14.9117C29.7759 14.8471 29.7664 14.7819 29.7595 14.7174C29.7527 14.6686 29.7459 14.6199 29.7411 14.5684C29.7363 14.5169 29.7295 14.4668 29.7274 14.4159V14.4015C29.7206 14.3089 29.7179 14.2162 29.7179 14.1214V14.1029C29.7179 14.0143 29.7179 13.9265 29.7274 13.8386C29.7264 13.8279 29.7264 13.8171 29.7274 13.8064C29.7274 13.7576 29.7343 13.7089 29.7411 13.6601C29.7479 13.6114 29.7506 13.5674 29.7575 13.5228C29.7581 13.5096 29.7596 13.4966 29.7623 13.4837C29.7807 13.358 29.8039 13.2331 29.8305 13.1102C29.8468 13.0457 29.8653 12.9777 29.8837 12.9111C29.9022 12.8445 29.9185 12.7951 29.939 12.7368C29.9416 12.7231 29.9463 12.71 29.9526 12.6976C29.9737 12.6393 29.9942 12.5796 30.0209 12.5191C30.0475 12.4587 30.0672 12.4031 30.0952 12.3475C30.1543 12.2117 30.2212 12.0795 30.2952 11.9514C30.6733 11.288 31.2166 10.735 31.8716 10.347C32.1556 10.1742 32.4589 10.036 32.7752 9.93502C32.8188 9.9213 32.8625 9.90757 32.9117 9.89594L33.0482 9.86091C33.0986 9.84922 33.1519 9.83826 33.2024 9.82866C33.2672 9.81494 33.3341 9.80324 33.401 9.79364H33.4214C33.5621 9.77511 33.7053 9.76133 33.8527 9.75382C33.9122 9.75382 33.9722 9.74969 34.0343 9.74969C34.0963 9.74969 34.1524 9.74969 34.2117 9.75382C34.3086 9.75862 34.4056 9.76551 34.4997 9.77511C34.6539 9.79042 34.807 9.81494 34.9584 9.84854C35.0067 9.85815 35.0573 9.87187 35.1085 9.8856C35.1303 9.88893 35.1518 9.89441 35.1726 9.90209C35.2231 9.91582 35.2743 9.93231 35.3247 9.94881C35.3641 9.95903 35.4027 9.97208 35.4401 9.98789C35.4634 9.99405 35.4862 10.0019 35.5084 10.0113C35.5617 10.0295 35.6139 10.051 35.6646 10.0758C35.6993 10.0887 35.7331 10.1033 35.7664 10.1197C35.9128 10.1849 36.055 10.2595 36.1922 10.3428C36.707 10.6491 37.1547 11.0571 37.5085 11.5422L36.5361 12.4814L36.2917 12.7093C36.0713 12.3066 35.7506 11.9685 35.361 11.7283C34.9621 11.4901 34.5068 11.3644 34.0428 11.3644C33.579 11.3644 33.1237 11.4901 32.7247 11.7283C32.3311 11.9711 32.0076 12.3133 31.7863 12.7209C31.5537 13.146 31.4348 13.6246 31.4411 14.1098C31.4375 14.5885 31.5581 15.0599 31.7911 15.4773C32.0174 15.8862 32.347 16.2277 32.7466 16.4673C33.1517 16.711 33.6161 16.837 34.0882 16.8312C34.5477 16.8365 34.9993 16.7103 35.3902 16.4673C35.7523 16.2435 36.0526 15.9319 36.2639 15.5611V15.5563C36.3056 15.4349 36.3356 15.3099 36.3539 15.1828H34.3264V13.8482H37.875Z" fill="white"/>
<path d="M44.462 15.4026L43.6737 13.4041L42.8548 15.4026H44.462ZM44.995 16.7646H42.2864L41.621 18.3725H40.0337L43.7189 9.83142H43.8076L47.4927 18.3725H45.6276L44.995 16.7646Z" fill="white"/>
<path d="M59.0204 9.82043V18.3725H57.4102V14.4538L54.7489 18.2605H54.7271L52.1611 14.7002V18.3731H50.6072V9.82043H50.6188L54.7584 15.7245L58.9975 9.82043H59.0204Z" fill="white"/>
<path d="M68.5731 10.1554V11.7179H64.6107V13.4713H68.1179V15.0345H64.6107V16.8091H68.7286V18.3724H63.0017V10.1554H68.5731Z" fill="white"/>
<path d="M75.4817 11.5512C75.1273 11.5512 74.8504 11.6198 74.6549 11.7626C74.4588 11.9054 74.3607 12.1169 74.3607 12.399C74.3607 12.6599 74.5033 12.8887 74.7886 13.0855C75.144 13.3183 75.5257 13.5075 75.9257 13.6492C76.2723 13.772 76.6043 13.9349 76.9135 14.1345C77.1971 14.3284 77.4311 14.5872 77.596 14.8897C77.7782 15.2101 77.869 15.6158 77.869 16.1069C77.8713 16.5225 77.7582 16.9304 77.5414 17.2843C77.3102 17.6575 76.9771 17.956 76.582 18.1445C76.1603 18.3569 75.6572 18.4628 75.0727 18.4624C74.5802 18.4616 74.0905 18.3883 73.6186 18.2448C73.1378 18.0995 72.6837 17.8749 72.2759 17.5802L72.9862 16.319C73.2821 16.5355 73.6074 16.7084 73.9518 16.8326C74.2632 16.9564 74.5936 17.0245 74.9284 17.0337C75.2382 17.0411 75.5441 16.9658 75.816 16.8154C76.0667 16.6703 76.1926 16.4341 76.1931 16.1069C76.1931 15.6822 75.797 15.3138 75.0048 15.0016C74.6064 14.8469 74.217 14.6679 73.8398 14.4655C73.52 14.2848 73.2459 14.0325 73.038 13.7281C72.8107 13.4078 72.6971 13.0057 72.6971 12.5219C72.6971 11.8157 72.9283 11.2464 73.3902 10.8139C73.8526 10.3813 74.4688 10.147 75.2382 10.1108C75.8449 10.1108 76.3514 10.1795 76.7586 10.3168C77.1776 10.4609 77.5765 10.6579 77.9465 10.9031L77.3375 12.143C76.6266 11.7484 76.0093 11.5512 75.4839 11.5512" fill="white"/>
<path d="M44.0621 24.1742V24.3499C44.0658 24.6285 44.029 24.906 43.9529 25.1737C43.8759 25.4047 43.7529 25.6174 43.5912 25.7986C43.423 25.9943 43.2164 26.153 42.9844 26.2647C42.7523 26.3763 42.4998 26.4385 42.2427 26.4472H42.2283C42.2031 26.4472 42.1771 26.4472 42.1506 26.4472C42.124 26.4472 42.0823 26.4472 42.0516 26.4472C42.0377 26.448 42.0238 26.448 42.01 26.4472C41.9663 26.4472 41.9232 26.4404 41.881 26.4349C41.866 26.4341 41.8512 26.4319 41.8367 26.428C41.8055 26.4246 41.7745 26.4193 41.7438 26.4123C41.7341 26.411 41.7246 26.4089 41.7151 26.4061C41.6777 26.3992 41.6402 26.3904 41.6039 26.38H41.5979C41.5616 26.3704 41.5248 26.3595 41.4899 26.3464C41.4764 26.3422 41.4613 26.3374 41.4477 26.3319C41.434 26.3265 41.4053 26.3168 41.3849 26.3079L41.32 26.2812L41.2853 26.2653C41.2565 26.253 41.2293 26.2385 41.202 26.2242C41.1747 26.2098 41.1338 26.1864 41.0962 26.1659C40.7744 25.978 40.5069 25.709 40.3202 25.3852C40.3046 25.3578 40.2895 25.3317 40.2759 25.3035C40.2626 25.2799 40.2505 25.2556 40.2398 25.2308L40.2296 25.2101C40.2193 25.1882 40.2091 25.167 40.2002 25.145C40.1691 25.0724 40.1422 24.9982 40.1197 24.9225C40.1119 24.896 40.1043 24.8686 40.0971 24.8402C40.0855 24.7962 40.0766 24.7502 40.0677 24.7029C40.0623 24.6706 40.0575 24.639 40.0541 24.6067C40.0507 24.5744 40.0472 24.5586 40.0453 24.5333C40.0432 24.5079 40.0391 24.4831 40.0378 24.4577V24.4509C40.035 24.4051 40.0337 24.3593 40.0337 24.3136V24.3039C40.0337 24.2607 40.0337 24.2167 40.0378 24.1735V24.1577C40.0378 24.1337 40.0378 24.1097 40.0446 24.0857C40.0515 24.0616 40.0493 24.0397 40.0528 24.017V23.9977C40.0623 23.936 40.0733 23.8742 40.0882 23.8132L40.1143 23.715C40.1224 23.6861 40.1312 23.6579 40.1415 23.6291L40.1483 23.6099C40.1585 23.5811 40.1687 23.5509 40.1817 23.5213C40.1947 23.4919 40.2043 23.4644 40.2178 23.4368C40.2474 23.3699 40.2804 23.3046 40.3169 23.2412C40.5035 22.9096 40.7738 22.6333 41.1003 22.44C41.2407 22.3557 41.3905 22.2881 41.5467 22.239L41.6149 22.219L41.6831 22.2018L41.7588 22.186C41.7909 22.1792 41.827 22.173 41.8572 22.1689H41.8674C41.9356 22.1599 42.0073 22.153 42.0803 22.1497C42.1097 22.1497 42.139 22.1497 42.1697 22.1497C42.2003 22.1497 42.2277 22.1497 42.2577 22.1497C42.3054 22.1497 42.3533 22.1552 42.3997 22.1599C42.4762 22.1678 42.552 22.1804 42.6269 22.1977C42.6514 22.2026 42.676 22.2087 42.7013 22.2162C42.712 22.2173 42.7226 22.2198 42.7327 22.2238C42.7579 22.2307 42.7832 22.239 42.8085 22.2471C42.8277 22.2522 42.8467 22.2586 42.8651 22.2664C42.8763 22.2695 42.8872 22.2734 42.8978 22.278C42.9244 22.2869 42.9504 22.2974 42.9756 22.3096C42.992 22.3157 43.0084 22.324 43.0254 22.3317C43.0979 22.3635 43.1681 22.4003 43.2356 22.4415C43.49 22.5922 43.7114 22.7929 43.8867 23.0318L43.409 23.4953L43.2841 23.6099C43.175 23.4122 43.0164 23.2465 42.8241 23.1293C42.6272 23.0116 42.4025 22.9494 42.1735 22.9494C41.9444 22.9494 41.7196 23.0116 41.5227 23.1293C41.3284 23.2487 41.1688 23.4176 41.06 23.6188C40.9447 23.8288 40.8857 24.0654 40.8888 24.3053C40.8873 24.5416 40.947 24.7741 41.0621 24.9801C41.174 25.1821 41.337 25.3507 41.5343 25.469C41.7343 25.5892 41.9634 25.6515 42.1962 25.6489C42.4232 25.6512 42.6461 25.5889 42.8392 25.469C43.0179 25.3584 43.1662 25.2045 43.2705 25.0214C43.2906 24.9612 43.3051 24.8995 43.3141 24.8367H42.3102V24.1742H44.0621Z" fill="white"/>
<path d="M46.5304 22.3474V25.6323H48.4255V26.404H45.7354V22.3474H46.5304Z" fill="white"/>
<path d="M51.0637 25.0317C51.1715 25.2264 51.3286 25.3889 51.5189 25.5026C51.7116 25.6188 51.9324 25.679 52.1571 25.6764C52.3755 25.6786 52.5901 25.6184 52.776 25.5026C52.9608 25.3886 53.1121 25.227 53.2141 25.0344C53.321 24.8336 53.3758 24.6087 53.3731 24.3808C53.376 24.1498 53.3193 23.9221 53.2087 23.7197C53.1034 23.5262 52.9496 23.3637 52.7623 23.2488C52.5725 23.1354 52.3559 23.0755 52.1352 23.0755C51.9144 23.0755 51.6977 23.1354 51.508 23.2488C51.3206 23.3637 51.1665 23.5262 51.061 23.7197C50.9496 23.9217 50.8918 24.1492 50.8931 24.3802C50.8914 24.6081 50.949 24.8324 51.0604 25.031L51.0637 25.0317ZM50.3486 23.3504C50.5286 23.0346 50.7874 22.7715 51.0993 22.587C51.41 22.4009 51.765 22.3027 52.1267 22.3027C52.4882 22.3027 52.8433 22.4009 53.154 22.587C53.4663 22.7726 53.7264 23.0354 53.9094 23.3504C54.094 23.6631 54.1913 24.02 54.1913 24.3836C54.1913 24.7473 54.094 25.1041 53.9094 25.4169C53.7259 25.7295 53.4656 25.9896 53.1534 26.172C52.8407 26.3541 52.4859 26.45 52.1246 26.45C51.7633 26.45 51.4085 26.3541 51.0958 26.172C50.7844 25.9903 50.5257 25.73 50.3452 25.4169C50.1637 25.1031 50.068 24.7466 50.068 24.3836C50.068 24.0206 50.1637 23.6641 50.3452 23.3504" fill="white"/>
<path d="M57.9946 25.5473C58.0509 25.5114 58.096 25.4611 58.1267 25.4016C58.1568 25.342 58.1707 25.2755 58.1674 25.2087C58.1674 24.9218 57.94 24.7784 57.4849 24.7784H57.0297V25.6605H57.5395C57.6977 25.6678 57.8548 25.6285 57.9913 25.5473H57.9946ZM57.033 24.0073H57.5155C57.579 24.0111 57.6425 24.0009 57.7016 23.9771C57.7606 23.9533 57.8136 23.9168 57.857 23.87C57.9378 23.7785 57.9813 23.6591 57.9774 23.5364C57.9813 23.4773 57.9707 23.4183 57.9467 23.3641C57.9233 23.3101 57.8871 23.2625 57.8409 23.2255C57.7306 23.1475 57.5974 23.1095 57.4631 23.1176H57.0358L57.033 24.0073ZM58.8075 24.6547C58.9262 24.8145 58.9886 25.0094 58.9852 25.2087C58.9852 25.6207 58.8515 25.9228 58.583 26.115C58.3144 26.3072 57.9796 26.4037 57.5779 26.4048H56.2385V22.3474H57.4219C57.8492 22.3474 58.1852 22.4348 58.4298 22.6097C58.6749 22.7845 58.7969 23.0361 58.7969 23.3648C58.8014 23.5498 58.7579 23.7329 58.6716 23.8962C58.5874 24.0481 58.4643 24.1747 58.3156 24.2628C58.51 24.3486 58.6805 24.4821 58.8109 24.6513" fill="white"/>
<path d="M62.7126 24.9383L62.3243 23.9511L61.9187 24.9383H62.7126ZM62.975 25.6105H61.6418L61.3125 26.404H60.5264L62.3454 22.1874H62.3922L64.2119 26.404H63.2876L62.975 25.6105Z" fill="white"/>
<path d="M66.8326 22.3474V25.6323H68.7286V26.404H66.0387V22.3474H66.8326Z" fill="white"/>
<path fill-rule="evenodd" clip-rule="evenodd" d="M0.0267334 4.0282H30.6874L26.0211 12.5682L22.6881 12.5825L24.4368 8.55924H6.50798L15.5348 24.1093L19.269 17.793H15.0393L12.5144 13.9484H25.2091L15.4994 30.9738L0.0267334 4.0282Z" fill="white"/>
</svg>
