<svg width="34" height="36" viewBox="0 0 34 36" fill="none" xmlns="http://www.w3.org/2000/svg">
<g clip-path="url(#clip0_481_13044)">
<path d="M6.80431 2.45826V12.7716H3.9167V0.27372V0.242437H8.75613C10.3504 0.242437 11.3436 0.785315 11.9439 1.34709C12.4692 1.85217 13.0317 2.76978 13.0317 4.15532C13.0317 4.94194 12.8634 5.91365 12.0568 6.70027C11.6255 7.11215 11.0068 7.48232 10.3132 7.65112L14.1568 12.7553H10.6316L7.24479 7.86749V5.84717H7.91302C8.43833 5.84717 9.15093 5.8198 9.6384 5.33297C9.84461 5.12703 10.1069 4.76272 10.1069 4.1449C10.1069 3.43323 9.76957 3.00831 9.52551 2.82127C9.05696 2.46543 8.30717 2.45826 7.93194 2.45826H6.80431ZM3.04357 0.252213V12.7716H0.155963V0.252213H3.04357ZM30.3261 0.246348H33.1432V12.771H30.6902L26.624 8.12165C26.3539 9.24521 25.7822 10.3231 24.8615 11.2173C23.6992 12.3408 22.1239 13.0525 20.024 13.0525C17.68 13.0525 16.0871 12.116 15.1493 11.2173C13.9493 10.0937 13.2001 8.40841 13.2001 6.57318C13.2001 4.7751 14.0086 2.95878 15.1337 1.83523C15.9774 0.99256 17.5377 0 20.0318 0C21.9823 0 23.5916 0.630859 24.8784 1.81633C25.5356 2.42242 30.3261 7.79971 30.3261 7.79971V0.246348ZM22.7615 9.32602C23.249 8.85809 23.8493 7.97762 23.8487 6.53603C23.8487 5.24434 23.3234 4.28893 22.7609 3.72715C22.1422 3.12757 21.1484 2.65964 20.0044 2.65964C18.9172 2.65964 17.9417 3.05328 17.2669 3.72715C16.7233 4.25178 16.1608 5.16939 16.1608 6.55493C16.1608 7.69739 16.536 8.615 17.3047 9.36382C18.1113 10.1315 19.0112 10.3935 19.9861 10.3935C21.2613 10.3935 22.1611 9.9256 22.7615 9.32602ZM27.4091 20.6411V20.6404H34V20.7812C34 22.3903 33.4473 24.8342 31.9751 26.3638C30.5029 27.8933 28.8362 28.1716 27.2649 28.1716C25.6733 28.1716 23.9629 27.9135 22.4111 26.324C22.2042 26.1122 21.9699 25.8424 21.7363 25.5113C21.735 25.5133 21.7337 25.5146 21.7324 25.5165L21.7318 25.5048C21.7272 25.4989 21.7233 25.4924 21.7187 25.4859C21.5282 25.7707 21.3206 26.0294 21.0975 26.2452C19.7649 27.5368 18.0343 28.1723 15.9657 28.1723C13.3202 28.1723 11.6698 27.1184 10.7739 26.2256C10.5298 25.9825 10.3027 25.7173 10.0932 25.4338C9.96338 25.5921 9.82699 25.744 9.68278 25.888C7.85298 27.7356 5.56508 27.8751 4.45115 27.8751H0.131818V14.6453H4.35262C6.1028 14.6453 7.95282 14.8917 9.58424 16.461C9.78066 16.6513 9.96468 16.8403 10.1357 17.054C10.135 17.0547 10.135 17.0553 10.1344 17.056L10.1357 17.0566L10.1624 17.1036C10.353 16.7745 10.5572 16.489 10.7745 16.2726C11.6705 15.3798 13.3208 14.326 15.9663 14.326C18.035 14.326 19.7656 14.962 21.0981 16.2531C21.3213 16.4688 21.5282 16.7269 21.7187 17.0117L21.7324 16.9921L21.7331 16.9804C21.7344 16.9823 21.7357 16.9837 21.737 16.9856C21.9706 16.6545 22.2049 16.3847 22.4117 16.1729C23.9635 14.5834 25.6739 14.3253 27.2655 14.3253C28.8369 14.3253 30.5199 14.6036 31.9921 16.1332C32.4743 16.6343 32.8587 17.2339 33.1588 17.87L30.5773 19.1213C30.2908 18.3268 29.8014 17.8987 29.712 17.8276C29.4138 17.5695 28.7175 17.1094 27.4045 17.1094C26.3904 17.1094 25.5147 17.3656 24.7192 18.1411C23.728 19.1076 23.3782 20.3067 23.2196 21.2491C23.3782 22.1921 23.728 23.3926 24.7192 24.3591C25.514 25.134 26.3898 25.3934 27.4045 25.3934C28.7175 25.3934 29.4138 24.9391 29.712 24.681C29.8112 24.6015 30.4083 24.0951 30.6667 23.1176H27.4091V20.6411ZM8.33784 22.14C8.38547 22.0058 8.4429 21.8168 8.50946 21.5867C8.48597 21.4518 8.46444 21.3162 8.44616 21.1794C8.24517 19.7893 7.77337 18.8456 7.25588 18.3288C6.26137 17.3356 4.96864 17.187 4.03351 17.187H3.19888V25.2682H4.03351C4.67042 25.2682 6.06364 25.2213 7.05685 24.3858C7.84841 23.7204 8.21254 22.4874 8.33784 22.14ZM19.5039 23.3633C19.6762 23.0791 20.0057 22.4887 20.1982 21.6766C20.2322 21.5339 20.2635 21.3912 20.2935 21.2485C20.2635 21.1057 20.2322 20.963 20.1982 20.8203C20.0057 20.0083 19.6762 19.4178 19.5039 19.1337C19.3173 18.7909 19.0967 18.5048 18.8703 18.2786C18.2138 17.6425 17.1592 17.1459 15.9461 17.1459C14.7917 17.1459 13.7574 17.5637 13.0415 18.2786C12.8999 18.4155 12.7577 18.5784 12.6226 18.7667L12.6285 18.768C12.6285 18.768 12.0124 19.6505 11.6144 21.2491C12.0124 22.8471 12.6285 23.7295 12.6285 23.7295L12.6226 23.7302C12.7577 23.9185 12.8999 24.0815 13.0415 24.2183C13.7581 24.9339 14.7924 25.351 15.9461 25.351C17.1592 25.351 18.2138 24.8537 18.8703 24.2183C19.0967 23.9928 19.3173 23.7061 19.5039 23.3633ZM3.02269 31.0581C2.94112 30.8951 2.80538 30.7146 2.66965 30.6064C2.55219 30.5158 2.33488 30.3985 1.99098 30.3985C1.39388 30.3985 0.977544 30.7687 0.977544 31.3292C0.977544 31.5638 1.04084 31.6993 1.20333 31.8531C1.38409 32.0337 1.61053 32.1334 1.83632 32.2324L2.41515 32.4853C2.76819 32.6391 3.09382 32.8014 3.34701 33.0543C3.65437 33.3612 3.78097 33.7138 3.78097 34.1472C3.78097 35.2584 2.95743 35.9993 1.87221 35.9993C1.47415 35.9993 0.976891 35.9179 0.560554 35.5112C0.261679 35.2219 0.0809182 34.8067 0 34.445L0.651261 34.2645C0.696288 34.5806 0.841158 34.8517 1.01278 35.0322C1.27511 35.2942 1.57334 35.3665 1.88135 35.3665C2.70489 35.3665 3.09382 34.7793 3.09382 34.1739C3.09382 33.9028 3.01225 33.6682 2.79494 33.4694C2.62332 33.3065 2.38774 33.1983 2.07124 33.0536L1.52831 32.8007C1.29339 32.6926 0.994511 32.5661 0.723043 32.3041C0.460712 32.0513 0.306706 31.771 0.306706 31.3194C0.306706 30.3887 1.02127 29.7657 1.99816 29.7657C2.36881 29.7657 2.66769 29.838 2.96591 30.0368C3.20997 30.1998 3.41814 30.4435 3.55388 30.7055L3.02269 31.0581ZM7.11167 30.4976V35.8912H6.44213V30.4976H4.97647V29.8654H8.57668V30.4976H7.11167ZM11.1465 33.56C11.1465 34.0657 11.1465 34.6171 11.6261 35.0237C11.8702 35.2316 12.2865 35.3672 12.6213 35.3672C12.956 35.3672 13.3724 35.2316 13.6164 35.0237C14.0961 34.6171 14.0961 34.0664 14.0961 33.56V29.8648H14.7656V33.7405C14.7656 34.2462 14.7115 34.7344 14.3858 35.186C14.0243 35.6826 13.3907 35.9993 12.6219 35.9993C11.8532 35.9993 11.2196 35.6833 10.858 35.186C10.5324 34.7344 10.4783 34.2462 10.4783 33.7405V29.8648H11.1478V33.56H11.1465ZM17.3158 29.8654H18.5459C19.1522 29.8654 20.0116 29.9286 20.7712 30.5699C21.3233 31.0307 21.8022 31.7984 21.8022 32.8829C21.8022 34.1478 21.1777 34.825 20.7438 35.1958C20.1917 35.6657 19.6129 35.8912 18.5368 35.8912H17.3158V29.8654ZM17.9854 35.259H18.5733C19.053 35.259 19.7134 35.2049 20.3013 34.7168C20.7536 34.3375 21.1157 33.7412 21.1157 32.8829C21.1157 31.4374 20.1023 30.4976 18.574 30.4976H17.986V35.259H17.9854ZM24.6977 29.8654V35.8912H24.0281V29.8654H24.6977ZM26.9229 32.8829C26.9229 31.0848 28.3253 29.7657 30.0618 29.7657C31.7982 29.7657 33.2006 31.0848 33.2006 32.8829C33.2006 34.6718 31.8074 36 30.0618 36C28.3161 36 26.9229 34.6718 26.9229 32.8829ZM27.6101 32.8829C27.6101 34.2651 28.7044 35.3672 30.0618 35.3672C31.4191 35.3672 32.5135 34.2651 32.5135 32.8829C32.5135 31.5006 31.4191 30.3985 30.0618 30.3985C28.7044 30.3985 27.6101 31.5006 27.6101 32.8829Z" fill="white"/>
</g>
<defs>
<clipPath id="clip0_481_13044">
<rect width="34" height="36" fill="white"/>
</clipPath>
</defs>
</svg>
