<svg width="71" height="36" viewBox="0 0 71 36" fill="none" xmlns="http://www.w3.org/2000/svg">
<path d="M55.4118 25.9052L55.3412 25.8346C55.3412 25.8346 55.2699 25.8346 55.2 25.8346C55.1287 25.8346 55.0589 25.9052 54.9883 25.9765L53.8589 27.8118L52.7294 25.9765C52.6589 25.9052 52.5883 25.8353 52.5177 25.8353C52.4464 25.8353 52.4464 25.8353 52.3765 25.8353C52.3765 25.8353 52.3052 25.8353 52.3052 25.9059C52.3052 25.9059 52.3052 25.9779 52.2346 25.9779C52.2346 25.9779 52.2346 25.9779 52.2346 26.0485L53.6464 28.2367V29.7191C53.6464 29.8609 53.717 29.9315 53.7876 29.9315H53.8582C53.9993 29.9315 54.0699 29.8609 54.0699 29.7191V28.2367L55.4817 26.0485C55.4824 26.0471 55.4824 26.0471 55.4118 25.9052C55.4118 25.9772 55.4118 25.9772 55.4118 25.9052Z" fill="white"/>
<path d="M33.1765 29.4346H31.2706V26.0471C31.2706 25.9052 31.2 25.8346 31.0588 25.8346C30.9176 25.8346 30.847 25.9052 30.847 26.0471V29.6471C30.847 29.7176 30.847 29.7875 30.9176 29.7875C30.9882 29.8595 30.9882 29.8595 31.0588 29.8595H33.1765C33.3176 29.8595 33.3882 29.7875 33.3882 29.7176V29.6471C33.3882 29.5066 33.3176 29.4346 33.1765 29.4346Z" fill="white"/>
<path d="M27.2471 20.8235H28.8V13.8353H32.3294V12.4941H28.8V7.48235H33.5294V6.14118H27.2471V20.8235Z" fill="white"/>
<path d="M28.0941 25.9052H27.1058C27.0353 25.9052 26.9647 25.9052 26.9647 25.9772C26.8235 25.9772 26.8235 26.0478 26.8235 26.1176V29.7176C26.8235 29.8595 26.8941 29.9301 27.0353 29.9301H27.1058C27.1764 29.9301 27.247 29.9301 27.247 29.8595C27.247 29.8595 27.3176 29.7875 27.3176 29.7176V28.3059H28.0941C28.5882 28.3059 28.9411 28.2353 29.2235 28.0235C29.5058 27.8125 29.5764 27.5301 29.5764 27.1066C29.5764 26.7536 29.4353 26.4007 29.2235 26.1882C28.8705 25.9772 28.5176 25.9052 28.0941 25.9052ZM28.8705 27.7419C28.7294 27.8824 28.447 27.9529 28.0941 27.9529H27.247V26.2588H28.0941C28.8 26.2588 29.1529 26.5412 29.1529 27.1066C29.0823 27.3889 29.0117 27.6 28.8705 27.7419Z" fill="white"/>
<path d="M37.4824 25.9052L37.4118 25.8353C37.4118 25.8353 37.3412 25.8353 37.2706 25.8353C37.2 25.8353 37.1294 25.9059 37.0589 25.9772L35.9294 27.8125L34.7993 25.9772C34.7294 25.9052 34.6589 25.8353 34.5883 25.8353C34.5177 25.8353 34.5177 25.8353 34.4471 25.8353C34.4471 25.8353 34.3765 25.8353 34.3765 25.9059C34.3765 25.9059 34.3765 25.9779 34.3059 25.9779C34.3059 25.9779 34.3059 25.9779 34.3059 26.0485L35.7177 28.2367V29.7191C35.7177 29.8609 35.789 29.9315 35.8589 29.9315H35.9294C36.0699 29.9315 36.1412 29.8609 36.1412 29.7191V28.2367L37.553 26.0485C37.553 26.0471 37.553 26.0471 37.4824 25.9052C37.4824 25.9772 37.4824 25.9772 37.4824 25.9052Z" fill="white"/>
<path d="M46.7293 29.4346H44.8235V26.0471C44.8235 25.9052 44.7529 25.8346 44.6117 25.8346H44.5411C44.4006 25.8346 44.3293 25.9052 44.3293 26.0471V29.6471C44.3293 29.7176 44.3293 29.7875 44.4006 29.7875C44.4712 29.8595 44.4712 29.8595 44.5411 29.8595H46.6588C46.7999 29.8595 46.8712 29.7875 46.8712 29.7176V29.6471C46.8705 29.5066 46.7999 29.4346 46.7293 29.4346Z" fill="white"/>
<path d="M41.647 25.9052H40.6588C40.5882 25.9052 40.5183 25.9052 40.5183 25.9772C40.447 26.0471 40.447 26.0471 40.447 26.1176V29.7176C40.447 29.8595 40.5183 29.9301 40.6588 29.9301H40.7294C40.8 29.9301 40.8706 29.9301 40.8706 29.8595C40.8706 29.8595 40.9411 29.7875 40.9411 29.7176V28.3059H41.7176C42.2117 28.3059 42.5647 28.2353 42.8477 28.0235C43.1294 27.8118 43.2 27.5294 43.2 27.1059C43.2 26.7529 43.0588 26.4 42.847 26.1875C42.4941 25.9772 42.1411 25.9052 41.647 25.9052ZM42.4235 27.7419C42.2823 27.8824 42 27.9529 41.647 27.9529H40.8V26.2588H41.647C42.3529 26.2588 42.7058 26.5412 42.7058 27.1066C42.7058 27.3889 42.5647 27.6 42.4235 27.7419Z" fill="white"/>
<path d="M49.8353 25.9052C49.7647 25.9052 49.6949 25.8346 49.6236 25.8346C49.553 25.8346 49.4824 25.8346 49.4118 25.9052C49.3412 25.9052 49.3412 25.9772 49.3412 26.0471L47.9294 29.7875C47.9294 29.7875 47.9294 29.8595 48 29.8595C48.0706 29.8595 48.0706 29.9301 48.1412 29.9301C48.2118 29.9301 48.2118 29.9301 48.2824 29.9301C48.353 29.9301 48.353 29.8595 48.4229 29.7882L48.8471 28.6588H50.5412L50.9654 29.7882C50.9654 29.8602 51.036 29.9301 51.1066 29.9301C51.1772 29.9301 51.1772 29.9301 51.2471 29.9301C51.3184 29.9301 51.3883 29.9301 51.3883 29.8595C51.4596 29.8595 51.4596 29.7875 51.4596 29.7875L50.0478 26.0471C49.9059 25.9772 49.9059 25.9052 49.8353 25.9052ZM48.9177 28.1647L49.6236 26.2581L50.3294 28.1647H48.9177Z" fill="white"/>
<path d="M24.9176 25.8353H24.847C24.7058 25.8353 24.6352 25.8353 24.6352 25.9059C24.5646 25.9779 24.5646 26.0478 24.4941 26.1184L23.4352 28.5184L22.3764 26.1882C22.3058 26.0478 22.3058 25.9772 22.2352 25.9772C22.1646 25.9052 22.0941 25.9052 22.0235 25.9052H21.9529C21.8823 25.9052 21.8117 25.9052 21.7411 25.9772C21.6705 26.0478 21.6705 26.1177 21.6705 26.1882V29.7882C21.6705 29.9294 21.7411 30 21.8117 30H21.8823C22.0235 30 22.0235 29.9294 22.0235 29.7875V26.4L23.0823 28.6581C23.0823 28.7287 23.1529 28.8 23.2235 28.8706C23.2941 28.9412 23.3646 28.9412 23.4352 28.9412C23.5058 28.9412 23.647 28.9412 23.647 28.8706C23.7176 28.8 23.7176 28.7287 23.7882 28.6581L24.847 26.4V29.7875C24.847 29.9294 24.9176 30 24.9882 30H25.0588C25.1999 30 25.1999 29.9294 25.1999 29.7875V26.1875C25.1999 26.1169 25.1999 26.0471 25.1294 25.9765C25.1294 25.9052 25.0588 25.8353 24.9176 25.8353Z" fill="white"/>
<path d="M42.9882 6.14118H35.4353V7.48235H38.4V20.8235H39.953V7.48235H42.9882V6.14118Z" fill="white"/>
<path d="M24.2824 17.8588C24.6353 16.7294 24.7765 15.3176 24.7765 13.4824C24.7765 11.6471 24.5647 10.2353 24.2824 9.10588C23.9294 7.97647 23.4353 7.2 22.8706 6.70588C22.2353 6.14118 21.5294 5.92941 20.6824 5.92941C19.8353 5.92941 19.1294 6.14118 18.4941 6.70588C17.8588 7.2 17.3647 7.97647 17.0824 9.10588C16.7294 10.2353 16.5883 11.6471 16.5883 13.4824C16.5883 15.3176 16.8 16.7294 17.0824 17.8588C17.4353 18.9889 17.9294 19.7647 18.4941 20.2581C19.1294 20.7529 19.8353 20.964 20.6824 20.964C21.5294 20.964 22.2353 20.7529 22.8706 20.2581C23.4353 19.7647 23.9294 18.9184 24.2824 17.8588ZM20.6824 19.6941C20.1883 19.6941 19.7647 19.5522 19.4118 19.1993C19.0588 18.8464 18.7059 18.2118 18.4941 17.2941C18.2824 16.3765 18.1412 15.1059 18.1412 13.4824C18.1412 11.8588 18.2824 10.5882 18.4941 9.67059C18.7059 8.75294 19.0588 8.11765 19.4118 7.76471C19.7647 7.41177 20.2588 7.27059 20.6824 7.27059C21.1765 7.27059 21.6 7.41177 21.953 7.76471C22.3059 8.11765 22.6588 8.75294 22.8706 9.67059C23.0824 10.5882 23.2236 11.8588 23.2236 13.4824C23.2236 15.1059 23.0824 16.3765 22.8706 17.2941C22.6588 18.2118 22.3765 18.8464 21.953 19.1993C21.6 19.4824 21.1765 19.6941 20.6824 19.6941Z" fill="white"/>
<path d="M63.0354 6.14118V7.48235H66.0001V20.8235H67.6236V7.48235H70.5883V6.14118H63.0354Z" fill="#EEB936"/>
<path d="M1.69409 12.0706V20.8235H3.24703V12.0706C2.96468 12.1412 2.75292 12.2118 2.47056 12.2118C2.18821 12.2118 1.90586 12.1412 1.69409 12.0706Z" fill="#EEB936"/>
<path d="M52.3059 16.7294C52.3059 15.8118 52.0942 15.0353 51.6713 14.4C51.2471 13.7647 50.6118 13.3412 49.7648 13.0588V12.9882C50.5412 12.7765 51.1059 12.3529 51.4589 11.7176C51.8118 11.1529 51.953 10.4471 51.953 9.74118C51.953 8.68235 51.6714 7.76471 51.0353 7.12941C50.4706 6.49412 49.6236 6.14118 48.4942 6.14118H44.6118V20.8235H47.5765C49.2001 20.8235 50.3288 20.4706 51.1059 19.8353C51.953 19.1294 52.3059 18.0706 52.3059 16.7294ZM46.2353 7.48235H47.7883C48.7059 7.48235 49.3412 7.62353 49.7648 7.97647C50.1883 8.32941 50.3295 8.89412 50.3295 9.74118C50.3295 10.7294 50.0478 11.4353 49.553 11.8588C48.9883 12.2824 48.2118 12.4941 47.0824 12.4941H46.1648V7.48235H46.2353ZM49.9765 18.7765C49.4824 19.2 48.7765 19.4118 47.7883 19.4118H46.2353V13.6941H47.7883C48.7758 13.6941 49.553 13.9765 50.0471 14.4706C50.4706 14.9647 50.753 15.6706 50.753 16.6588C50.753 17.6471 50.4706 18.3529 49.9765 18.7765Z" fill="#EEB936"/>
<path d="M4.23529 6.6353C3.74118 6.14118 3.17647 5.92941 2.47059 5.92941C1.83529 5.92941 1.27059 6.14118 0.77647 6.56471C0.564706 6.70588 0.423529 6.98824 0.211765 7.27059C0.0705882 7.62353 0 7.97647 0 8.47059C0 8.96471 0.0705882 9.31765 0.282353 9.6C0.423529 9.88235 0.635294 10.1647 0.77647 10.3059C1.27059 10.7294 1.83529 10.9412 2.47059 10.9412C3.10588 10.9412 3.67059 10.7294 4.16471 10.3059C4.37647 10.1647 4.51765 9.88235 4.72941 9.6C4.87059 9.31765 4.94118 8.89412 5.01176 8.47059C5.01176 7.97647 4.94118 7.62353 4.72941 7.34118C4.58823 6.98824 4.37647 6.77647 4.23529 6.6353ZM3.38823 9.38824C3.10588 9.6 2.82353 9.74118 2.47059 9.74118C2.11765 9.74118 1.83529 9.6 1.62353 9.38824C1.34118 9.17647 1.2 8.82353 1.2 8.47059C1.2 8.04706 1.34118 7.76471 1.55294 7.55294C1.76471 7.34118 2.11765 7.2 2.47059 7.2C2.82353 7.2 3.10588 7.34118 3.38823 7.55294C3.67059 7.76471 3.81176 8.04706 3.81176 8.47059C3.81176 8.82353 3.67059 9.17647 3.38823 9.38824Z" fill="#EEB936"/>
<path d="M19.8353 25.8353C19.6235 25.8353 19.6235 25.9059 19.6235 26.0478V29.7176C19.6235 29.8595 19.6941 29.9301 19.7647 29.9301H19.8353C19.9765 29.9301 20.0471 29.8595 20.0471 29.7176V26.0471C19.9765 25.9052 19.9765 25.8353 19.8353 25.8353Z" fill="white"/>
<path d="M56.3293 13.8353H60.0705V12.4941H56.3293V7.48235H61.4117V6.14118H54.7764V20.8235H61.694V19.4824H56.3293V13.8353Z" fill="#EEB936"/>
<path d="M12.2823 13.3412C11.7176 12.9176 11.1529 12.4941 10.5176 12.1412C9.9529 11.7882 9.45878 11.3647 9.03525 10.8706C8.68231 10.3765 8.47054 9.81177 8.47054 9.17647C8.47054 8.61177 8.68231 8.11765 9.03525 7.76471C9.38819 7.41177 9.88231 7.2 10.5176 7.2C11.2941 7.2 11.7882 7.48235 12.1411 7.97647C12.4941 8.47059 12.7058 9.10588 12.7764 9.88235H14.2588C14.1882 8.61177 13.8352 7.62353 13.2 6.91765C12.4941 6.28235 11.647 5.92941 10.5882 5.92941C9.52937 5.92941 8.68231 6.28235 8.04701 6.84706C7.41172 7.48235 7.12937 8.25882 7.05878 9.31765C7.05878 10.1647 7.27054 10.8706 7.69407 11.4353C8.1176 12 8.54113 12.4941 9.17643 12.9882C9.74113 13.4118 10.3058 13.8353 10.9411 14.2588C11.5058 14.6824 12 15.1059 12.4235 15.6C12.7764 16.0941 12.9882 16.6588 13.0588 17.2941C13.0588 18.0706 12.847 18.6353 12.4941 19.0588C12.1411 19.4824 11.5764 19.6941 10.9411 19.6941C10.1647 19.6941 9.59996 19.4118 9.17643 18.9176C8.7529 18.4235 8.54113 17.7176 8.54113 16.8706H6.9176C6.9176 17.7176 7.12937 18.4235 7.41172 19.0588C7.69407 19.6941 8.1176 20.1882 8.68231 20.5412C9.24701 20.8941 9.88231 21.036 10.6588 21.036C11.8588 21.036 12.7764 20.6831 13.4117 20.0478C14.047 19.4125 14.4 18.4941 14.4 17.2948C14.4 16.3772 14.1882 15.6007 13.7647 14.9654C13.3411 14.3294 12.847 13.7647 12.2823 13.3412Z" fill="white"/>
<path d="M17.7882 28.0228C17.647 27.8824 17.5059 27.8118 17.3647 27.8118C17.2235 27.7412 17.0823 27.7412 16.8706 27.6699C16.7294 27.6699 16.5882 27.5993 16.447 27.5993C16.3059 27.5287 16.2353 27.5287 16.0941 27.4588C16.0235 27.3882 15.9529 27.3169 15.8823 27.2464C15.8117 27.1758 15.8117 27.0353 15.8117 26.964C15.8117 26.7529 15.8823 26.5405 16.0941 26.4706C16.2353 26.3301 16.5176 26.2581 16.8 26.2581C17.0117 26.2581 17.2941 26.3301 17.4353 26.4C17.647 26.5405 17.7882 26.6111 17.8588 26.8235C17.8588 26.8235 17.8588 26.8235 17.9294 26.8235C17.9294 26.8235 18 26.8235 18 26.7529L18.0706 26.6824C18.0706 26.6824 18.1412 26.6104 18.1412 26.5405C18.1412 26.4706 18.1412 26.4 18.0706 26.3294C18 26.2574 17.9294 26.1875 17.7882 26.1169C17.647 26.0464 17.5059 25.9765 17.3647 25.9765C17.2235 25.9045 17.0117 25.9045 16.8 25.9045C16.5882 25.9045 16.447 25.9045 16.3059 25.9765C16.1647 26.0471 16.0235 26.1169 15.8823 26.1875C15.7412 26.2581 15.6706 26.4 15.6 26.5405C15.5294 26.6824 15.5294 26.8228 15.5294 26.964C15.5294 27.1765 15.6 27.3169 15.6706 27.4588C15.7412 27.5993 15.8117 27.6699 15.9529 27.8118C16.0941 27.8824 16.1647 27.9522 16.3059 28.0228C16.447 28.0948 16.5882 28.0948 16.7294 28.1647C16.8706 28.1647 17.0117 28.2353 17.1529 28.2353C17.2941 28.3059 17.3647 28.3059 17.5059 28.3758C17.5764 28.4478 17.7176 28.5176 17.7176 28.5882C17.7882 28.6588 17.7882 28.8007 17.7882 28.9412C17.7882 29.1536 17.7176 29.3647 17.5059 29.5066C17.3647 29.6471 17.0823 29.7176 16.8 29.7176C16.5176 29.7176 16.2353 29.6471 16.0941 29.5066C15.8823 29.3647 15.7412 29.2242 15.6 29.0118C15.6 29.0118 15.6 29.0118 15.5294 29.0118C15.5294 29.0118 15.4588 29.0118 15.4588 29.0824L15.3882 29.1544C15.3882 29.1544 15.3176 29.2249 15.3176 29.2948C15.3176 29.3647 15.3882 29.4353 15.4588 29.5073C15.5294 29.5779 15.6 29.6478 15.7412 29.7882C15.8823 29.8595 16.0235 29.9294 16.2353 30C16.447 30.0706 16.5882 30.0706 16.8 30.0706C17.0117 30.0706 17.2235 30.0706 17.3647 30C17.5059 29.9294 17.647 29.8595 17.7882 29.7875C17.9294 29.7169 18 29.5765 18.0706 29.4346C18.1412 29.2941 18.1412 29.1536 18.1412 28.9412C18.1412 28.7287 18.0706 28.5882 18 28.4478C18 28.1647 17.8588 28.0948 17.7882 28.0228Z" fill="white"/>
</svg>
