<svg width="67" height="36" viewBox="0 0 67 36" fill="none" xmlns="http://www.w3.org/2000/svg">
<g clip-path="url(#clip0_481_13308)">
<path d="M6.33716 30.191C6.33716 26.6854 6.33716 23.2472 6.33716 19.7416C6.47199 19.7416 6.53941 19.7416 6.67424 19.7416C8.62929 19.7416 10.5844 19.7416 12.5394 19.7416C12.8091 19.7416 12.9439 19.809 13.0113 20.0112C13.1461 20.4831 13.3484 21.0225 13.3484 21.4944C13.4158 23.2472 13.3484 24.9326 13.3484 26.6854C13.3484 28.6405 11.663 30.2584 9.84278 30.191C8.69671 30.191 7.55064 30.191 6.33716 30.191ZM8.69671 20.4832C8.69671 22.9775 8.69671 25.4045 8.69671 27.8315C9.1012 27.8315 9.43828 27.8315 9.77536 27.8315C10.5169 27.8315 10.9888 27.3596 10.9888 26.618C10.9888 25.7416 10.9888 24.8652 10.9888 23.9888C10.9888 23.1798 10.9888 22.4382 10.9888 21.6292C10.9888 20.9551 10.5844 20.4832 10.045 20.4157C9.64053 20.4832 9.16862 20.4832 8.69671 20.4832Z" fill="white"/>
<path d="M6.33719 8.34831C6.47202 8.34831 6.53944 8.34831 6.67427 8.34831C7.61809 8.34831 8.62933 8.34831 9.57315 8.34831C11.3934 8.34831 12.8091 9.5618 13.1462 11.382C13.1462 11.5169 13.1462 11.6517 13.1462 11.7865C13.1462 13.5393 13.1462 15.2921 13.1462 17.0449C13.1462 17.6517 12.9439 18.191 12.6743 18.7303C12.6069 18.7978 12.472 18.9326 12.4046 18.9326C10.3821 18.9326 8.42708 18.9326 6.40461 18.9326C6.40461 18.9326 6.33719 18.9326 6.26978 18.8652C6.33719 15.3595 6.33719 11.8539 6.33719 8.34831ZM8.69674 18.1236C9.10124 18.1236 9.50573 18.1236 9.91022 18.0562C10.3821 17.9888 10.7866 17.5169 10.7866 16.9775C10.7866 15.2921 10.7866 13.6067 10.7866 11.8539C10.7866 11.3146 10.4496 10.8427 9.91022 10.7079C9.64056 10.6404 9.3709 10.7079 9.10124 10.6404C8.83157 10.573 8.69674 10.7079 8.69674 11.0449C8.69674 13.2697 8.69674 15.4944 8.69674 17.6517C8.69674 17.8539 8.69674 17.9213 8.69674 18.1236Z" fill="white"/>
<path d="M46.7866 18.7978C45.9776 18.7978 45.3034 18.7978 44.4944 18.7978C44.4944 18.6629 44.4944 18.5281 44.4944 18.3933C44.4944 16.3034 44.4944 14.2135 44.4944 12.1236C44.4944 11.2472 44.0225 10.7079 43.2809 10.7079C42.6742 10.7079 42.1349 11.1798 42.1349 11.7865C42.1349 12.3933 42.1349 13 42.1349 13.5393C42.1349 15.1573 42.1349 16.7079 42.1349 18.3258C42.1349 18.4607 42.1349 18.5955 42.1349 18.7303C41.3259 18.7303 40.5843 18.7303 39.7753 18.7303C39.7753 18.5955 39.7753 18.4607 39.7753 18.3258C39.7753 16.1685 39.7079 14.0787 39.7753 11.9214C39.8427 10.3708 40.7191 9.02247 42.2697 8.55056C44.0225 8.01124 45.8427 8.88764 46.5169 10.573C46.7191 10.9775 46.7866 11.4494 46.7866 11.9214C46.7866 14.0787 46.7866 16.3034 46.7866 18.4607C46.854 18.5281 46.7866 18.6629 46.7866 18.7978Z" fill="#FFBD19"/>
<path d="M46.854 19.7416C46.854 21.1573 46.854 22.4382 46.854 23.7191C46.854 24.9326 46.9215 26.1461 46.7866 27.2921C46.6518 28.573 45.8428 29.5169 44.6967 29.9214C43.1462 30.5281 41.5282 30.191 40.4495 28.6405C39.9776 28.0337 39.7754 27.2921 39.7754 26.5506C39.7754 24.4607 39.7754 22.3034 39.7754 20.2135C39.7754 19.6742 39.7754 19.6742 40.3147 19.6742C40.7192 19.6742 41.1911 19.6742 41.5956 19.6742C42.0675 19.6742 42.0675 19.6742 42.0675 20.1461C42.0675 22.236 42.0675 24.3933 42.0675 26.4832C42.0675 26.8202 42.1349 27.1573 42.4046 27.4944C42.8091 27.8989 43.3484 27.8989 43.7529 27.6966C44.1574 27.5618 44.4271 27.1573 44.4271 26.6854C44.4271 26.1461 44.4271 25.6742 44.4271 25.1348C44.4271 23.4494 44.4271 21.7641 44.4271 20.0787C44.4271 19.7416 44.4945 19.6742 44.8316 19.6742C45.5057 19.7416 46.1799 19.7416 46.854 19.7416Z" fill="#FFBD19"/>
<path d="M33.5057 19.809C33.8428 19.809 34.045 19.7416 34.3147 19.7416C35.1911 19.7416 36.1349 19.7416 37.0113 19.7416C37.281 19.7416 37.4158 19.809 37.5506 20.0112C38.09 20.8202 38.3596 21.6966 38.427 22.6405C38.427 23.9888 38.427 25.3371 38.427 26.7528C38.4945 28.1685 37.2136 29.7191 35.9327 30.0562C35.1237 30.2584 34.3147 30.2584 33.5731 29.9888C32.8315 29.7191 32.2922 29.1798 31.8203 28.4382C31.4832 27.8315 31.3484 27.2247 31.3484 26.5506C31.3484 26.1461 31.3484 25.7416 31.3484 25.3371C31.3484 25.1348 31.4158 25 31.6181 25C32.2248 25 32.7641 25 33.3709 25C33.6405 25 33.7079 25.1348 33.7079 25.3371C33.7079 25.809 33.6405 26.2809 33.7079 26.7528C33.7754 27.4944 34.3147 27.8315 34.854 27.8315C35.663 27.8315 36.0675 27.3596 36.0675 26.6854C36.1349 25.5393 36.0675 24.4607 36.0001 23.3146C35.9327 22.1685 35.3259 21.2247 34.4495 20.5506C34.1798 20.2809 33.8428 20.0787 33.5057 19.809Z" fill="#FFBD19"/>
<path d="M36.1349 18.7978C35.7978 18.7978 35.4607 18.7978 35.1237 18.7978C34.3147 18.7978 33.4383 18.7978 32.6293 18.7978C32.4945 18.7978 32.3596 18.7303 32.2922 18.5955C31.6855 17.7191 31.3484 16.7079 31.3484 15.5618C31.3484 14.2135 31.3484 12.8652 31.3484 11.5169C31.3484 10.4382 32.2922 9.08989 33.3034 8.68539C34.045 8.34831 34.7866 8.21348 35.5956 8.34831C37.1461 8.75281 38.427 10.1011 38.427 11.6517C38.427 12.191 38.427 12.7303 38.427 13.2697C38.427 13.3371 38.2922 13.5393 38.1574 13.5393C37.5506 13.5393 36.8765 13.5393 36.2697 13.5393C36.2023 13.5393 36.1349 13.5393 36.0675 13.4719C36.0675 12.9326 36.0675 12.3933 36.0675 11.7865C36.0001 11.1124 35.5956 10.7079 34.854 10.7079C34.3147 10.7079 33.7079 11.1798 33.7079 11.7191C33.7079 12.5955 33.7079 13.4719 33.7079 14.3483C33.7079 14.9551 33.7754 15.6292 33.9776 16.1685C34.1799 16.9775 34.7866 17.5169 35.3933 18.0562C35.663 18.2584 35.9327 18.4607 36.1349 18.6629C36.2023 18.7978 36.1349 18.7978 36.1349 18.7978Z" fill="#FFBD19"/>
<path d="M15.1685 19.7416C17.1909 19.7416 19.2134 19.7416 21.3033 19.7416C21.3033 20.0112 21.3033 20.2135 21.3033 20.4832C20.0898 20.4832 18.8089 20.4832 17.5954 20.4832C17.5954 22.9775 17.5954 25.4045 17.5954 27.8315C18.8089 27.8315 20.0898 27.8315 21.3033 27.8315C21.3033 28.6405 21.3033 29.382 21.3033 30.191C19.2808 30.191 17.2583 30.191 15.1685 30.191C15.1685 26.7528 15.1685 23.2472 15.1685 19.7416Z" fill="white"/>
<path d="M54.6741 10.7079C53.4607 10.7079 52.382 10.7079 51.2359 10.7079C50.8989 10.7079 50.8314 10.7753 50.8314 11.1124C50.8314 13.3371 50.8314 15.5618 50.8314 17.7865C50.8314 18.0562 50.8989 18.1236 51.1685 18.1236C52.3146 18.1236 53.4607 18.1236 54.6067 18.1236C54.6067 18.191 54.6741 18.191 54.6741 18.191C54.7416 18.7978 54.7416 18.7978 54.1348 18.7978C52.2472 18.7978 50.4269 18.7978 48.5393 18.7978C48.5393 18.6629 48.5393 18.5281 48.5393 18.3933C48.5393 15.1573 48.5393 11.9213 48.5393 8.68539C48.5393 8.41573 48.6067 8.34831 48.8764 8.34831C50.6966 8.34831 52.5168 8.34831 54.3371 8.34831C54.7416 8.34831 54.7416 8.34831 54.7416 8.75281C54.6067 9.42696 54.6741 10.0337 54.6741 10.7079Z" fill="#FFBD19"/>
<path d="M15.1685 8.34831C17.191 8.34831 19.2134 8.34831 21.2359 8.34831C21.2359 9.1573 21.2359 9.89887 21.2359 10.7079C20.0224 10.7079 18.7415 10.7079 17.528 10.7079C17.528 13.1348 17.528 15.5618 17.528 18.0562C18.7415 18.0562 20.0224 18.0562 21.2359 18.0562C21.2359 18.3258 21.2359 18.5281 21.2359 18.7978C19.2134 18.7978 17.191 18.7978 15.1011 18.7978C15.1685 15.3595 15.1685 11.8539 15.1685 8.34831Z" fill="white"/>
<path d="M62.3596 8.34831C62.3596 9.08989 62.3596 9.89888 62.3596 10.7079C61.8202 10.7079 61.2809 10.7079 60.7416 10.7079C60.2023 10.7079 60.2023 10.7079 60.2023 11.2472C60.2023 13.4045 60.2023 15.5618 60.2023 17.7191C60.2023 18.0562 60.2023 18.4607 60.2023 18.7978C59.3933 18.7978 58.6517 18.7978 57.8427 18.7978C57.8427 16.1011 57.8427 13.4719 57.8427 10.7079C57.0337 10.7079 56.2921 10.7079 55.4832 10.7079C55.4832 10.4382 55.4832 10.1685 55.4832 9.89888C55.4832 9.49438 55.4832 9.08989 55.4832 8.68539C55.4832 8.41573 55.5506 8.2809 55.8202 8.2809C56.7641 8.2809 57.7079 8.2809 58.5843 8.2809C59.7303 8.2809 60.9438 8.2809 62.0899 8.2809C62.2247 8.34831 62.2921 8.34831 62.3596 8.34831Z" fill="#FFBD19"/>
<path d="M25.2809 18.7978C25.2809 18.6629 25.2809 18.5281 25.2809 18.3258C25.2809 15.8989 25.2809 13.4719 25.2809 11.0449C25.2809 10.7753 25.2135 10.7079 24.9438 10.7079C24.2697 10.7079 23.6629 10.7079 22.9888 10.7079C22.9888 9.89887 22.9888 9.1573 22.9888 8.34831C25.2135 8.34831 27.5056 8.34831 29.7303 8.34831C29.7303 9.08989 29.7303 9.89887 29.7303 10.7079C29.0562 10.7079 28.382 10.7079 27.6405 10.7079C27.6405 13.4045 27.6405 16.1011 27.6405 18.7978C26.8315 18.7978 26.0899 18.7978 25.2809 18.7978Z" fill="white"/>
<path d="M48.4719 19.809C50.5618 19.809 52.5843 19.809 54.6742 19.809C54.6742 20.0112 54.6742 20.2809 54.6742 20.5506C54.4045 20.5506 54.2023 20.5506 54 20.5506C53.0562 20.5506 52.1124 20.5506 51.236 20.5506C50.9663 20.5506 50.8989 20.618 50.8989 20.8876C50.8989 23.8539 50.8989 26.7528 50.8989 29.7191C50.8989 30.2584 50.8989 30.2584 50.3596 30.2584C49.8877 30.2584 49.4832 30.2584 49.0112 30.2584C48.8764 30.2584 48.7416 30.2584 48.5393 30.191C48.4719 26.6854 48.4719 23.2472 48.4719 19.809Z" fill="#FFBD19"/>
<path d="M25.281 19.7416C26.09 19.7416 26.8316 19.7416 27.5731 19.7416C27.5731 23.2472 27.5731 26.6854 27.5731 30.191C26.8316 30.191 26.0226 30.191 25.281 30.191C25.281 26.7528 25.281 23.2472 25.281 19.7416Z" fill="white"/>
<path d="M60.2023 30.191C59.7978 30.191 59.4607 30.191 59.1236 30.191C58.854 30.191 58.5169 30.191 58.2472 30.191C57.9776 30.191 57.9102 30.1236 57.9102 29.8539C57.9102 28.573 57.9102 27.2921 57.9102 26.0112C57.9102 24.0562 57.9102 22.1685 57.9102 20.2135C57.9102 19.8764 57.9776 19.7416 58.3146 19.809C58.854 19.809 59.3259 19.809 59.8652 19.809C60 19.809 60.0675 19.8764 60.2023 19.8764C60.2023 23.2472 60.2023 26.6854 60.2023 30.191Z" fill="#FFBD19"/>
<path d="M0 23.3146C0 20.618 0 17.9888 0 15.2247C0.269663 15.4944 0.539326 15.6966 0.808989 15.9663C1.88764 16.9775 2.89888 18.0562 3.97753 19.0674C4.11236 19.2022 4.24719 19.3371 4.04494 19.4719C2.76405 20.6854 1.48315 21.9663 0.202247 23.1798C0.134831 23.2472 0.0674157 23.2472 0 23.3146Z" fill="#FFBD19"/>
<path d="M67.4158 23.3146C66.472 22.4382 65.5956 21.5618 64.7192 20.6854C64.3147 20.2809 63.9102 19.8764 63.5057 19.5393C63.3035 19.3371 63.2361 19.2697 63.5057 19.0674C64.2473 18.3933 64.9215 17.7191 65.5956 17.045C66.0675 16.573 66.5394 16.1011 67.0114 15.6292C67.0788 15.5618 67.2136 15.4944 67.3484 15.3596C67.4158 17.9888 67.4158 20.618 67.4158 23.3146Z" fill="#FFBD19"/>
</g>
<defs>
<clipPath id="clip0_481_13308">
<rect width="67" height="36" fill="white"/>
</clipPath>
</defs>
</svg>
