<svg width="1740" height="403" viewBox="0 0 1740 403" fill="none" xmlns="http://www.w3.org/2000/svg">
<path d="M106.647 75.0295C110.389 78.2643 114.521 81.0569 118.864 83.4269C121.075 84.635 123.352 85.7375 125.662 86.7277C127.933 87.6916 130.513 89.5664 131.82 86.6221C133.285 83.3146 134.243 79.8091 135.827 76.5215C136.764 74.5806 137.78 72.6793 138.882 70.8243C139.543 69.7152 141.952 67.2593 141.028 65.972C140.566 65.3251 137.952 64.8101 137.16 64.4866C135.992 64.0245 134.837 63.536 133.668 63.0739C131.549 62.2034 129.663 60.8482 128.161 59.1171C126.66 57.386 125.584 55.327 125.022 53.1053C124.437 50.8537 124.314 48.5071 124.659 46.2066C124.831 45.0645 125.042 43.698 125.557 42.6549C130.936 31.6631 146.07 34.3764 154.347 39.9152C165.138 47.144 175.006 42.6615 181.995 33.0428C189.269 23.0215 187.988 11.079 178.609 3.63235C177.432 2.63858 176.145 1.7815 174.775 1.0775C172.946 0.233724 170.93 -0.123339 168.923 0.0408963C166.915 0.205132 164.984 0.8851 163.317 2.01494C160.677 3.85021 155.971 10.815 158.98 14.0564C161.779 17.0602 165.561 12.9473 168.353 13.3302C173.54 14.0564 176.062 21.3843 171.673 26.3025C165.29 33.4719 151.311 24.0051 144.961 20.8033C143.325 19.7804 141.6 18.9077 139.807 18.1957L139.16 17.8656L139.173 17.958C135.653 16.6452 131.927 15.9722 128.17 15.9709C110.145 15.9709 95.5254 31.1085 95.5254 49.7781C95.5254 59.3043 99.3139 68.6721 106.647 75.0295Z" fill="url(#paint0_linear_1401_16)"/>
<path d="M242.388 39.915C250.665 34.3696 265.799 31.6629 271.178 42.6547C271.693 43.6978 271.904 45.0644 272.076 46.2065C272.412 48.4972 272.3 50.8606 271.706 53.1052C271.143 55.3267 270.068 57.3854 268.567 59.1164C267.065 60.8475 265.179 62.2028 263.06 63.0737C261.898 63.5359 260.743 64.0178 259.575 64.4865C258.783 64.81 256.176 65.3249 255.707 65.9719C254.783 67.2592 257.192 69.715 257.852 70.8241C258.954 72.6726 259.971 74.5805 260.908 76.5214C262.492 79.809 263.449 83.3145 264.915 86.6219C266.221 89.5663 268.802 87.6914 271.066 86.721C273.389 85.7307 275.66 84.6348 277.871 83.4201C282.214 81.0567 286.346 78.2708 290.081 75.0294C297.408 68.672 301.209 59.3042 301.209 49.778C301.209 31.1084 286.59 15.9708 268.564 15.9708C264.697 15.9708 261.001 16.6771 257.562 17.9513C257.565 17.9247 257.57 17.8983 257.575 17.872L256.928 18.2021C255.126 18.9085 253.404 19.7865 251.773 20.8032C245.424 24.005 231.445 33.4718 225.062 26.3024C220.68 21.3841 223.194 14.0563 228.389 13.3301C231.174 12.9472 234.956 17.06 237.754 14.0563C240.764 10.8214 236.058 3.85007 233.418 2.0148C231.75 0.88378 229.818 0.203145 227.809 0.0388986C225.8 -0.125347 223.783 0.23237 221.953 1.07736C220.567 1.73753 219.327 2.67497 218.119 3.63221C208.74 11.0789 207.459 23.0213 214.733 33.0427C221.716 42.6613 231.59 47.1439 242.388 39.915Z" fill="url(#paint1_linear_1401_16)"/>
<path d="M256.407 377.987L256.367 378.086L256.374 378.1L256.413 377.987H256.407Z" fill="url(#paint2_linear_1401_16)"/>
<path d="M256.373 378.1C256.281 378.383 256.215 378.681 256.096 378.971C256.479 378.661 256.525 378.364 256.373 378.1Z" fill="url(#paint3_linear_1401_16)"/>
<path d="M394.419 239.556C393.24 234.357 391.175 229.399 388.313 224.901C385.68 220.887 381.462 218.088 377.093 216.266C369.186 212.978 360.408 212.225 351.979 213.163C347.834 213.625 343.663 214.067 339.597 215.077C337.056 215.711 334.541 216.417 332.013 217.111C326.977 218.497 321.915 219.87 316.727 220.583C314.043 220.951 311.337 221.132 308.628 221.124C299.639 220.669 290.689 218.041 283.66 212.509C282.538 211.625 281.541 210.086 280.782 208.878C279.013 206.079 278.762 202.541 279.323 199.273C279.858 196.15 281.125 193.628 282.749 191.351C282.901 191.153 283.052 190.955 283.191 190.743C285.435 187.766 288.273 185.172 290.847 182.128C292.22 180.517 293.402 178.458 294.563 176.669C302.875 163.833 305.893 148.276 302.985 133.263C301.546 125.955 300.061 116.719 308.899 111.609C312.292 109.642 315.856 109.266 319.572 108.935C324.72 108.473 329.954 110.203 333.927 112.731C341.617 117.603 347.907 123.413 348.778 132.827C349.144 137.253 348.122 141.684 345.854 145.502C343.412 149.661 339.049 152.19 334.68 154.236C323.538 159.458 312.549 165.472 306.351 176.266C302.602 182.802 303.196 191.397 305.889 198.19C308.681 205.274 315.083 212.648 322.958 213.532C329.848 214.305 337.274 211.578 342.316 206.832C346.989 202.422 349.458 195.787 345.326 190.136C343.742 187.984 339.458 186.135 336.878 186.934C336.614 187.02 336.336 187.139 336.198 187.383C335.947 187.812 336.264 188.34 336.567 188.723C337.934 190.407 339.663 192.189 339.445 194.335C339.181 196.85 336.356 198.289 333.835 198.481C328.779 198.87 318.027 193.133 322.278 187.383C326.436 181.759 338.924 178.557 345.3 176.319C353.325 173.5 361.695 170.721 368.334 165.598C376.222 159.524 383.033 154.19 385.805 144.67C387.926 137.45 388.415 129.849 387.238 122.416C386.198 115.862 383.767 109.606 380.109 104.07C370.05 88.9851 351.84 81.6243 334.435 79.789C328.901 79.2083 323.323 79.1817 317.783 79.7098C307.658 80.667 297.223 82.905 289.468 89.8104C283.217 95.369 278.907 102.994 277.112 111.253C276.222 115.455 275.889 119.757 276.122 124.047C276.34 128.556 275.825 132.893 275.317 137.408C273.495 153.411 266.466 168.681 256.024 180.947C253.846 183.501 251.609 186.135 249.213 188.486C247.642 190.03 245.913 191.417 244.091 192.645C243.424 193.107 239.141 196.461 237.299 196.474C236.837 196.474 236.521 196.276 236.461 195.767C236.342 194.777 237.207 193.853 237.827 193.193C243.49 187.212 245.464 177.864 245.497 169.849C245.504 167.473 245.761 165.063 246.309 162.739C244.368 164.522 242.118 166.02 239.537 167.162C238.251 167.759 236.912 168.234 235.537 168.582C235.867 167.921 235.88 167.941 236.382 167.591C239.458 165.452 242.368 162.865 244.599 159.834C245.946 158.019 246.698 156.137 247.325 153.992C247.853 152.163 247.853 151.199 247.761 149.285C245.847 150.288 242.144 150.328 240.712 152.058C240.468 152.348 240.435 152.757 240.382 153.134C239.755 158.085 234.158 163.01 229.161 160.858C227.214 160.019 225.94 157.993 225.399 155.999C225.069 158.158 224.766 160.33 224.482 162.495C223.954 166.614 224.911 170.958 226.244 174.82C226.97 176.946 228.534 178.524 229.491 180.465C227.049 179.837 224.502 177.078 223.115 175.078C220.342 171.173 219.076 166.396 219.551 161.63C219.947 157.081 222.079 153.47 225.274 150.493C229.551 146.499 234.91 144.631 240.54 143.462C245.147 142.505 252.051 142.789 255.147 138.531C257.919 134.722 258.48 129.552 258.942 125.017C259.602 118.58 259.582 112.078 259.028 105.628C258.46 98.5272 257.146 91.506 255.107 84.6809C253.767 80.2973 251.886 75.7422 249.352 71.8538C246.804 67.9522 243.662 64.4929 240.52 61.1129C236.877 57.1981 232.191 53.7586 227.821 50.6954C219.518 44.8661 210.245 39.4924 199.922 39.0566L199.744 39.0698C199.678 39.0698 199.625 39.0632 199.566 39.083C199.132 39.1013 198.698 39.13 198.266 39.1689C197.831 39.1298 197.395 39.1012 196.959 39.083C196.899 39.0632 196.84 39.0698 196.78 39.0698L196.602 39.0566C186.279 39.4924 177.006 44.8661 168.703 50.6954C164.334 53.7586 159.647 57.1981 156.004 61.1129C152.862 64.4929 149.721 67.9522 147.173 71.8538C144.638 75.7488 142.764 80.2973 141.424 84.6809C139.382 91.5056 138.066 98.5269 137.497 105.628C136.917 112.079 136.946 118.571 137.583 125.017C138.045 129.546 138.612 134.722 141.378 138.531C144.48 142.789 151.384 142.505 155.984 143.462C161.614 144.631 166.974 146.499 171.251 150.493C174.445 153.47 176.577 157.081 176.973 161.63C177.449 166.396 176.183 171.173 173.409 175.078C172.023 177.078 169.482 179.837 167.033 180.465C167.99 178.524 169.554 176.946 170.287 174.82C171.607 170.958 172.571 166.614 172.043 162.495C171.761 160.326 171.455 158.161 171.125 155.999C170.584 157.993 169.31 160.019 167.363 160.858C162.367 163.01 156.77 158.085 156.143 153.134C156.09 152.757 156.057 152.348 155.813 152.058C154.387 150.328 150.684 150.288 148.764 149.285C148.678 151.199 148.671 152.163 149.199 153.992C149.826 156.137 150.585 158.019 151.925 159.834C154.156 162.865 157.073 165.446 160.149 167.598C160.644 167.941 160.657 167.921 160.994 168.582C159.62 168.236 158.28 167.763 156.994 167.169C154.508 166.074 152.219 164.58 150.216 162.746C150.763 165.056 151.021 167.466 151.027 169.849C151.067 177.864 153.034 187.212 158.697 193.199C159.317 193.859 160.182 194.777 160.063 195.767C159.839 197.662 157.225 195.794 156.585 195.391C155.212 194.513 153.912 193.556 152.565 192.645C150.736 191.417 149.021 190.024 147.444 188.486C145.048 186.135 142.817 183.501 140.639 180.947C130.197 168.681 123.168 153.418 121.346 137.408C120.831 132.886 120.323 128.562 120.547 124.047C120.778 119.757 120.443 115.455 119.551 111.253C117.756 102.994 113.446 95.369 107.202 89.8104C99.4398 82.905 89.0048 80.667 78.8734 79.7098C73.336 79.1821 67.7597 79.2086 62.2276 79.789C44.8227 81.6243 26.6125 88.9851 16.5537 104.07C12.8958 109.606 10.4652 115.862 9.42546 122.416C8.24848 129.846 8.7377 137.446 10.8577 144.664C13.6298 154.19 20.4413 159.518 28.322 165.598C34.9685 170.721 43.3376 173.5 51.3569 176.319C57.7394 178.557 70.2337 181.759 74.3852 187.383C78.6358 193.127 67.8774 198.87 62.8216 198.481C60.3003 198.283 57.4754 196.85 57.2179 194.341C57.0001 192.189 58.736 190.407 60.0891 188.723C60.3993 188.34 60.7095 187.812 60.4653 187.383C60.3267 187.139 60.0495 187.02 59.7855 186.934C57.1982 186.135 52.9212 187.984 51.3371 190.136C47.2054 195.787 49.6739 202.422 54.3468 206.832C59.3894 211.585 66.8147 214.305 73.7054 213.532C81.5729 212.648 87.9818 205.274 90.7803 198.19C93.4666 191.39 94.0606 182.802 90.3117 176.273C84.1074 165.472 73.1246 159.458 61.9833 154.236C57.614 152.19 53.2446 149.655 50.8091 145.496C48.5412 141.677 47.5192 137.247 47.8852 132.82C48.7564 123.413 55.0465 117.603 62.7358 112.731C66.7091 110.203 71.9431 108.473 77.0913 108.935C80.8007 109.266 84.3714 109.642 87.764 111.603C96.5951 116.719 95.1166 125.955 93.6778 133.256C90.7665 148.272 93.7851 163.832 102.1 176.669C103.261 178.458 104.443 180.517 105.809 182.128C108.383 185.165 111.221 187.766 113.465 190.743C115.452 193.217 116.784 196.15 117.34 199.273C117.901 202.541 117.65 206.079 115.881 208.885C115.122 210.086 114.125 211.625 113.003 212.509C103.129 220.279 89.4734 222.346 77.2365 220.662C65.9501 219.104 55.3237 214.424 43.9712 213.163C31.8796 211.816 18.5008 214.041 10.1449 222.887C5.81512 227.469 3.20142 233.45 1.67016 239.563C-0.318493 247.735 -0.53394 256.239 1.03832 264.502C2.61058 272.764 5.93406 280.594 10.7851 287.465C20.4281 300.932 36.0839 309.897 52.5648 311.455C66.9335 312.815 81.4013 308.438 94.8724 303.975C108.819 299.354 122.726 293.895 137.398 292.04C142.259 291.393 147.176 291.267 152.064 291.663C157.179 292.112 162.4 293.624 165.951 297.585C171.323 303.593 173.416 313.792 168.881 320.836C165.205 326.547 158.717 329.722 152.79 332.567C152.46 332.732 152.09 332.937 152.011 333.294C151.945 333.61 152.136 333.921 152.321 334.185C157.159 341.118 163.957 346.447 171.845 349.487C176.376 347.962 180.465 345.349 183.752 341.876C196.094 328.943 197.005 306.603 189.481 291.267C188.275 288.819 186.822 286.501 185.144 284.349C185.009 284.152 184.866 283.96 184.715 283.774C184.113 283.03 183.495 282.3 182.861 281.583C181.536 280.08 180.109 278.67 178.59 277.364C174.313 273.74 169.389 271.687 164.36 269.442C159.083 267.093 153.471 265.585 147.727 264.973C126.521 262.702 106.528 269.535 87.5528 278.103C74.7482 283.887 58.8746 287.907 47.344 279.873C38.1894 273.489 31.8069 261.256 39.0474 250.786C46.3275 240.256 64.696 240.883 75.6129 242.89C84.3978 244.514 92.5557 248.455 100.925 251.618C110.502 255.235 119.788 256.78 129.94 256.793C140.487 256.806 151.146 256.972 161.515 259.117C167.106 260.272 172.604 262.259 177.448 265.316C179.758 266.775 182.497 268.505 184.313 270.564C185.481 271.891 186.504 275.555 188.339 273.165L192.167 268.181C194.061 265.719 196.648 262.979 199.685 263.6C201.486 263.976 202.82 265.461 204.001 266.874C210.865 275.06 219.274 282.784 226.666 290.7C234.673 299.268 241.042 308.636 247.193 318.691C249.094 321.78 250.381 325.292 250.738 328.903C250.758 330.827 250.416 332.738 249.728 334.535L249.675 334.686C248.355 338.093 245.952 341.011 243.358 343.658C240.329 346.748 236.415 348.722 232.778 350.999C229.92 352.782 227.109 354.881 224.568 357.271C219.703 361.839 215.868 367.47 214.786 373.98C213.664 380.793 215.274 387.975 220.04 393.151C224.31 397.792 230.666 400.631 237.181 401.944C241.609 402.842 246.725 403.384 250.79 400.974C253.619 399.336 255.945 396.955 257.516 394.088C259.351 390.642 257.278 384.892 252.302 388.391C250.54 389.632 249.49 391.573 247.675 392.755C238.666 398.63 238.725 386.067 241.583 381.862C245.523 376.066 253.378 372.64 259.615 369.187C273.376 361.549 283.528 348.497 285.145 332.66C285.669 329.108 285.714 325.502 285.277 321.939C285.224 321.496 285.138 321.061 285.072 320.618C284.976 319.928 284.859 319.242 284.722 318.559C284.59 317.898 284.439 317.245 284.28 316.598C284.234 316.413 284.201 316.235 284.148 316.057C281.937 307.686 277.218 300.147 272.551 292.693C269.317 287.524 265.865 282.48 261.885 277.853C258.757 274.222 254.625 269.64 255.186 264.319C255.503 261.289 257.569 258.629 260.532 257.823C262.875 257.189 265.298 256.998 267.727 256.826C277.455 257.262 286.749 255.011 295.738 251.611C304.101 248.455 312.265 244.514 321.057 242.89C325.404 242.09 329.817 241.696 334.237 241.715C343.095 241.893 352.256 244.065 356.903 250.786C364.143 261.249 357.754 273.496 348.6 279.873C348.258 280.106 347.91 280.33 347.557 280.546L347.002 280.889C346.6 281.118 346.193 281.339 345.781 281.55L345.227 281.814C344.408 282.208 343.566 282.552 342.706 282.844L342.448 282.936C341.915 283.115 341.375 283.275 340.831 283.418C339.21 283.835 337.556 284.113 335.888 284.25C326.832 284.996 316.965 281.952 308.437 278.103C301.514 274.913 294.411 272.126 287.164 269.759C283.429 268.571 279.726 267.25 275.891 266.392C274.386 266.049 267.812 264.319 267.08 266.346C266.803 267.105 267.997 268.307 268.321 268.861C269.205 270.399 270.281 271.746 271.363 273.179C273.792 276.413 276.036 279.787 278.181 283.213C279.845 285.887 281.515 288.547 283.079 291.274C283.884 292.673 284.749 294.047 285.699 295.347C288.273 298.859 292.293 301.625 296.359 303.051C301.758 304.946 307.295 306.445 312.833 307.91C318.509 309.409 324.271 310.683 330.112 311.303C334.323 311.759 338.574 311.878 342.798 311.528C359.51 310.141 375.443 301.097 385.205 287.465C385.97 286.395 386.696 285.293 387.383 284.17C392.677 275.465 395.632 265.538 395.963 255.354C396.149 250.043 395.632 244.731 394.425 239.556H394.419Z" fill="url(#paint4_linear_1401_16)"/>
<path d="M170.921 357.265C168.394 354.913 165.644 352.813 162.711 350.993C159.08 348.722 155.16 346.741 152.137 343.658C148.665 340.113 145.517 336.1 144.89 331.049C144.164 325.266 146.362 319.892 149.523 315.139C151.187 312.631 152.929 310.168 154.698 307.725C155.82 306.174 158.064 304.22 157.846 302.154C157.529 299.124 153.252 298.978 150.956 298.774C146.065 298.376 141.147 298.503 136.283 299.15C131.551 299.744 124.475 300.153 120.429 302.748C117.439 304.669 114.489 307.943 113.05 311.185C111.581 314.61 110.624 318.234 110.212 321.939C108.681 334.343 113.077 345.586 120.205 355.495C124.066 360.862 130.105 365.979 135.881 369.181C142.118 372.64 149.966 376.066 153.906 381.862C156.764 386.068 156.83 398.631 147.814 392.755C145.999 391.567 144.956 389.633 143.187 388.398C138.21 384.893 136.138 390.643 137.973 394.089C139.504 396.96 141.893 399.304 144.705 400.974C148.764 403.384 153.879 402.836 158.308 401.945C164.823 400.624 171.179 397.786 175.456 393.151C180.221 387.969 181.832 380.793 180.703 373.98C179.627 367.471 175.786 361.833 170.921 357.265Z" fill="url(#paint5_linear_1401_16)"/>
<path d="M121.582 368.771C120.031 367.319 118.79 365.477 117.463 363.787L117.219 363.483C116.374 362.434 115.708 361.325 114.922 360.262C113.721 358.638 112.691 357.865 110.592 357.925C108.19 357.991 105.939 359.04 103.596 359.47C99.0948 360.301 93.7618 360.09 90.1052 357.001C86.6863 354.116 85.6831 348.068 88.4552 344.391C89.6894 342.747 91.8015 341.704 93.8344 342.035C95.8673 342.365 97.6361 344.226 97.5701 346.286C97.524 347.254 97.1518 348.178 96.5141 348.907C96.0785 349.409 95.5042 349.957 95.6561 350.597C95.7264 350.832 95.8559 351.046 96.0323 351.217C99.3126 354.749 103.042 350.584 104.52 347.666C106.447 343.857 106.461 338.985 104.256 335.288C103.83 334.572 103.337 333.898 102.784 333.274C102.05 332.448 101.224 331.709 100.322 331.069C97.4975 329.062 94.039 328.178 90.6069 328.125C87.0266 328.052 83.5068 329.055 80.5019 331.003C79.0503 331.923 77.6987 332.991 76.4691 334.192C73.7973 336.769 71.888 340.033 70.9513 343.625L70.9051 343.824C68.859 352.604 72.9776 363.668 78.7594 369.458C85.1616 375.848 98.448 379.539 107.398 378.595C111.614 378.157 115.718 376.97 119.516 375.089C120.803 374.449 123.212 373.802 123.522 372.033C123.747 370.712 122.44 369.577 121.582 368.771Z" fill="url(#paint6_linear_1401_16)"/>
<path d="M273.793 369.22C275.344 367.761 276.585 365.919 277.918 364.236L278.156 363.926C279 362.876 279.674 361.767 280.452 360.704C281.654 359.08 282.683 358.314 284.782 358.367C287.185 358.433 289.442 359.489 291.779 359.912C296.28 360.744 301.613 360.532 305.269 357.443C308.688 354.564 309.692 348.511 306.926 344.84C305.685 343.19 303.573 342.153 301.54 342.477C299.507 342.807 297.745 344.668 297.805 346.735C297.85 347.703 298.222 348.627 298.861 349.356C299.296 349.851 299.87 350.399 299.719 351.039C299.648 351.275 299.519 351.488 299.342 351.66C296.062 355.192 292.333 351.032 290.855 348.108C288.927 344.305 288.914 339.427 291.119 335.73C291.548 335.017 292.043 334.343 292.597 333.716C293.33 332.891 294.153 332.151 295.052 331.511C297.877 329.511 301.336 328.62 304.774 328.567C308.352 328.496 311.87 329.499 314.873 331.445C316.325 332.37 317.685 333.432 318.912 334.634C321.585 337.21 323.494 340.475 324.43 344.068L324.47 344.266C326.516 353.046 322.404 364.117 316.615 369.9C310.213 376.291 296.927 379.981 287.977 379.043C283.761 378.604 279.657 377.414 275.859 375.531C274.578 374.891 272.163 374.251 271.859 372.481C271.628 371.154 272.935 370.026 273.793 369.22Z" fill="url(#paint7_linear_1401_16)"/>
<path d="M222.298 349.937C224.311 350.003 226.013 348.088 227.743 346.999C231.769 344.477 236.686 342.292 239.366 338.225C240.884 335.941 235.161 331.571 233.729 329.709C229.789 324.586 225.809 318.737 224.905 312.188C224.482 309.059 225.492 306.465 225.796 303.474C226.027 301.19 223.71 298.8 222.232 297.216C219.182 293.955 216.04 290.799 212.905 287.637C212.001 286.719 210.734 285.207 209.222 285.775C208.133 286.184 207.77 287.894 207.322 288.818C206.397 290.779 205.539 292.779 204.846 294.833C203.474 298.822 202.767 303.011 202.754 307.23C202.688 314.631 204.107 321.969 206.926 328.811C209.038 333.914 211.863 338.714 215.215 343.097C216.337 344.563 217.526 345.982 218.76 347.356C219.327 347.976 220.06 349.125 220.806 349.521C221.321 349.798 221.816 349.917 222.298 349.937Z" fill="url(#paint8_linear_1401_16)"/>
<path d="M593.316 256.997C583.571 257.092 573.961 254.65 565.434 249.901C557.111 245.233 550.181 238.408 545.349 230.144C540.45 221.609 538 212.029 538 201.432C538 190.834 540.45 181.309 545.349 172.882C550.181 164.605 557.111 157.78 565.434 153.112C573.961 148.363 583.571 145.921 593.316 146.002C603.426 146.002 612.683 148.377 621.061 153.112C629.399 157.699 636.288 164.551 640.971 172.869C645.884 181.309 648.333 190.834 648.333 201.432C648.333 212.029 645.884 221.609 640.971 230.144C636.233 238.421 629.344 245.26 621.061 249.901C612.683 254.636 603.426 256.997 593.316 256.997ZM593.316 232.926C601.896 232.926 608.745 230.035 613.847 224.282C619.072 218.515 621.67 210.903 621.67 201.432C621.67 191.852 619.072 184.253 613.847 178.581C608.745 172.828 601.896 169.938 593.316 169.938C584.64 169.938 577.697 172.76 572.472 178.419C567.37 184.09 564.812 191.757 564.812 201.432C564.812 211.012 567.37 218.665 572.472 224.431C577.697 230.09 584.64 232.912 593.316 232.912V232.926ZM712.094 201.581C712.094 190.875 714.395 181.363 718.997 173.018C723.396 164.782 730.041 157.983 738.162 153.411C746.431 148.689 755.784 146.314 766.192 146.314C778.968 146.314 789.891 149.72 799 156.504C808.081 163.303 814.172 172.557 817.23 184.294H788.416C786.467 179.993 783.259 176.383 779.226 173.954C775.341 171.58 770.888 170.399 765.894 170.399C757.814 170.399 751.29 173.235 746.283 178.894C741.275 184.552 738.757 192.123 738.757 201.581C738.757 211.052 741.275 218.61 746.283 224.282C751.29 229.927 757.814 232.763 765.894 232.763C770.902 232.763 775.341 231.582 779.226 229.208C783.205 226.847 786.277 223.4 788.416 218.882H817.23C814.172 230.605 808.081 239.873 799 246.658C789.891 253.347 778.968 256.685 766.192 256.685C755.784 256.685 746.431 254.378 738.162 249.751C730.095 245.124 723.463 238.34 718.997 230.144C714.395 221.813 712.108 212.287 712.108 201.581H712.094ZM964.31 147.562V168.703H935.793V255.925H909.59V168.703H881.086V147.562H964.31ZM1081.97 256.997C1072.22 257.092 1062.61 254.65 1054.08 249.901C1045.76 245.233 1038.83 238.408 1034 230.144C1029.1 221.609 1026.65 212.029 1026.65 201.432C1026.65 190.834 1029.1 181.309 1034 172.882C1038.83 164.605 1045.76 157.78 1054.08 153.112C1062.61 148.363 1072.22 145.921 1081.97 146.002C1092.08 146.002 1101.33 148.377 1109.7 153.112C1118.03 157.699 1124.94 164.537 1129.62 172.869C1134.53 181.309 1136.98 190.834 1136.98 201.432C1136.98 212.029 1134.53 221.609 1129.62 230.144C1124.88 238.421 1117.99 245.26 1109.7 249.901C1101.33 254.636 1092.08 256.997 1081.97 256.997ZM1081.97 232.926C1090.55 232.926 1097.39 230.035 1102.5 224.282C1107.71 218.515 1110.32 210.903 1110.32 201.432C1110.32 191.852 1107.71 184.253 1102.5 178.581C1097.39 172.828 1090.55 169.938 1081.97 169.938C1073.28 169.938 1066.33 172.76 1061.12 178.419C1056.02 184.09 1053.46 191.757 1053.46 201.432C1053.46 211.012 1056.02 218.665 1061.12 224.431C1066.33 230.09 1073.28 232.912 1081.97 232.912V232.926ZM1287.18 182.449C1287.18 188.718 1285.74 194.484 1282.89 199.736C1280.03 204.878 1275.63 209.044 1269.7 212.233C1263.79 215.422 1256.44 217.023 1247.64 217.023H1231.4V255.925H1205.18V147.562H1247.64C1256.22 147.562 1263.48 149.041 1269.4 152.027C1275.33 155.025 1279.77 159.137 1282.74 164.388C1285.69 169.626 1287.18 175.65 1287.18 182.449ZM1245.65 196.031C1250.66 196.031 1254.38 194.851 1256.84 192.476C1259.28 190.102 1260.51 186.764 1260.51 182.449C1260.51 178.12 1259.28 174.782 1256.84 172.407C1254.38 170.046 1250.66 168.852 1245.65 168.852H1231.4V196.031H1245.65ZM1380.66 235.545H1414.98V255.925H1354.46V147.562H1380.66V235.545ZM1548.09 236.779H1507.94L1501.49 255.925H1474.07L1513 147.562H1543.34L1582.27 255.925H1554.52L1548.09 236.779ZM1541.34 216.412L1528.02 176.736L1514.84 216.412H1541.34ZM1740 147.549L1702.77 220.116V255.925H1676.56V220.116L1639.32 147.562H1669.04L1689.88 192.938L1710.58 147.562L1740 147.549Z" fill="#CD5EEA"/>
<defs>
<linearGradient id="paint0_linear_1401_16" x1="42.0633" y1="10.3859" x2="361.672" y2="372.71" gradientUnits="userSpaceOnUse">
<stop stop-color="#8A83FE"/>
<stop offset="0.328" stop-color="#5D4CF8"/>
<stop offset="0.891" stop-color="#FA616E"/>
</linearGradient>
<linearGradient id="paint1_linear_1401_16" x1="42.0633" y1="10.3857" x2="361.672" y2="372.71" gradientUnits="userSpaceOnUse">
<stop stop-color="#8A83FE"/>
<stop offset="0.328" stop-color="#5D4CF8"/>
<stop offset="0.891" stop-color="#FA616E"/>
</linearGradient>
<linearGradient id="paint2_linear_1401_16" x1="42.0643" y1="10.4228" x2="361.638" y2="372.741" gradientUnits="userSpaceOnUse">
<stop stop-color="#8A83FE"/>
<stop offset="0.328" stop-color="#5D4CF8"/>
<stop offset="0.891" stop-color="#FA616E"/>
</linearGradient>
<linearGradient id="paint3_linear_1401_16" x1="42.063" y1="10.386" x2="361.672" y2="372.71" gradientUnits="userSpaceOnUse">
<stop stop-color="#8A83FE"/>
<stop offset="0.328" stop-color="#5D4CF8"/>
<stop offset="0.891" stop-color="#FA616E"/>
</linearGradient>
<linearGradient id="paint4_linear_1401_16" x1="42.0637" y1="10.3855" x2="361.673" y2="372.71" gradientUnits="userSpaceOnUse">
<stop stop-color="#8A83FE"/>
<stop offset="0.328" stop-color="#5D4CF8"/>
<stop offset="0.891" stop-color="#FA616E"/>
</linearGradient>
<linearGradient id="paint5_linear_1401_16" x1="42.0645" y1="10.3858" x2="361.674" y2="372.71" gradientUnits="userSpaceOnUse">
<stop stop-color="#8A83FE"/>
<stop offset="0.328" stop-color="#5D4CF8"/>
<stop offset="0.891" stop-color="#FA616E"/>
</linearGradient>
<linearGradient id="paint6_linear_1401_16" x1="42.062" y1="10.3858" x2="361.671" y2="372.71" gradientUnits="userSpaceOnUse">
<stop stop-color="#8A83FE"/>
<stop offset="0.328" stop-color="#5D4CF8"/>
<stop offset="0.891" stop-color="#FA616E"/>
</linearGradient>
<linearGradient id="paint7_linear_1401_16" x1="42.0644" y1="10.3857" x2="361.674" y2="372.71" gradientUnits="userSpaceOnUse">
<stop stop-color="#8A83FE"/>
<stop offset="0.328" stop-color="#5D4CF8"/>
<stop offset="0.891" stop-color="#FA616E"/>
</linearGradient>
<linearGradient id="paint8_linear_1401_16" x1="42.0642" y1="10.3858" x2="361.673" y2="372.71" gradientUnits="userSpaceOnUse">
<stop stop-color="#8A83FE"/>
<stop offset="0.328" stop-color="#5D4CF8"/>
<stop offset="0.891" stop-color="#FA616E"/>
</linearGradient>
</defs>
</svg>
