<svg width="1632" height="568" viewBox="0 0 1632 568" fill="none" xmlns="http://www.w3.org/2000/svg">
<path d="M91.79 533.401C91.79 556.64 70.8014 565.476 46.7786 565.476C30.4919 565.697 14.4094 561.835 0 554.241L9.45241 533.401C20.8553 538.803 34.9422 542.854 46.7786 542.854C62.0658 542.854 65.6667 537.602 65.6667 533.401C65.6667 514.964 2.31726 525.45 2.31726 485.723C2.31726 466.851 20.922 456.349 47.1453 456.349C61.674 456.131 76.0402 459.426 89.0227 465.951L80.1705 485.723C69.762 480.954 58.4911 478.356 47.0453 478.088C37.6096 478.088 28.3072 479.754 28.3072 486.79C28.3739 501.927 91.79 496.225 91.79 533.401Z" fill="#256E80"/>
<path d="M351.455 458.449V481.239H316.23V563.226H291.64V481.239H256.414V458.449H351.455Z" fill="#256E80"/>
<path d="M620.676 458.15V514.065C620.676 544.79 601.488 566.078 569.863 566.078C538.239 566.078 519.117 544.79 519.117 514.065V458.15H543.706V515.115C543.706 529.352 552.042 543.289 569.797 543.289C587.551 543.289 596.02 529.352 596.02 515.115V458.15H620.676Z" fill="#256E80"/>
<path d="M895.647 510.913C895.647 539.854 875.408 563.226 839.882 563.226H795.521V458.449H839.882C875.408 458.449 895.647 481.988 895.647 510.913ZM870.773 510.913C870.773 494.575 860.771 481.239 838.982 481.239H820.094V540.453H838.982C860.721 540.453 870.773 527.25 870.773 510.913Z" fill="#256E80"/>
<path d="M1065.48 563.226V458.449H1090.07V563.226H1065.48Z" fill="#256E80"/>
<path d="M1371.77 510.474C1371.89 521.587 1368.7 532.485 1362.61 541.783C1356.53 551.082 1347.81 558.36 1337.58 562.696C1327.35 567.032 1316.06 568.228 1305.14 566.134C1294.23 564.039 1284.18 558.747 1276.28 550.93C1268.38 543.114 1262.98 533.125 1260.77 522.234C1258.56 511.343 1259.63 500.039 1263.85 489.76C1268.08 479.48 1275.27 470.688 1284.49 464.502C1293.73 458.315 1304.6 455.011 1315.71 455.01C1323.05 454.91 1330.33 456.273 1337.14 459.017C1343.95 461.761 1350.14 465.834 1355.36 470.995C1360.57 476.158 1364.71 482.307 1367.54 489.085C1370.35 495.863 1371.79 503.133 1371.77 510.474ZM1347.33 510.474C1347.33 493.386 1334.14 477.799 1315.66 477.799C1297.17 477.799 1283.98 493.386 1283.98 510.474C1283.98 527.561 1297.17 543.148 1315.66 543.148C1334.14 543.148 1347.33 527.561 1347.33 510.474Z" fill="#256E80"/>
<path d="M1625.73 533.403C1625.73 556.642 1604.74 565.478 1580.71 565.478C1564.43 565.699 1548.35 561.835 1533.94 554.241L1543.39 533.403C1554.78 538.804 1568.87 542.855 1580.71 542.855C1596.01 542.855 1599.6 537.603 1599.6 533.403C1599.6 514.964 1536.26 525.45 1536.26 485.724C1536.26 466.852 1554.84 456.35 1581.08 456.35C1595.65 456.118 1610.05 459.412 1623.06 465.952L1614.21 485.724C1603.8 480.956 1592.53 478.358 1581.08 478.088C1571.63 478.088 1562.34 479.756 1562.34 486.791C1562.31 501.928 1625.73 496.226 1625.73 533.403Z" fill="#256E80"/>
<path d="M646.56 108.994C646.56 48.7792 600.347 0 529.514 0H380.658V296.442H450.209V64.0494H524.012C559.621 64.0494 577.008 84.4045 577.008 109.061C577.008 133.718 559.621 153.589 524.012 153.589H472.682L582.477 296.442H661.363L585.878 198.084C623.237 181.947 646.56 150.138 646.56 108.994Z" fill="#256E80"/>
<path d="M1253.91 0.0205078H1184.78V113.349L1253.91 201.355V0.0205078Z" fill="#256E80"/>
<path d="M154.582 0H10.3945V296.442H79.9456V63.1991H154.165C185.122 63.1991 205.844 84.8714 205.844 111.112C205.844 137.351 185.106 158.574 154.165 158.624H101.151L150.23 221.607L154.732 221.807C233.518 221.807 275.879 172.144 275.879 111.112C275.879 50.079 233.468 0 154.582 0Z" fill="#256E80"/>
<path d="M844.085 0H774.535V296.442H844.085V0Z" fill="#256E80"/>
<path d="M1362.23 0.0205078V64.4695H1461.89V207.773V296.445H1531.43V64.4695H1631.09V0.0205078H1362.23Z" fill="#256E80"/>
<path d="M977.387 0.0205078V296.445H1046.95V128.936L1177.99 296.445H1260.27L1032.81 0.0205078H977.387Z" fill="#256E80"/>
</svg>
