<svg width="120" height="130" viewBox="0 0 488 551" fill="none" xmlns="http://www.w3.org/2000/svg">
<path d="M383.753 315.25C383.119 314.148 381.698 313.766 380.597 314.404L368.587 321.343C367.486 321.977 367.104 323.399 367.742 324.501L374.397 336.035C375.031 337.137 374.512 338.039 373.24 338.039H359.93C358.658 338.039 357.619 339.078 357.619 340.351V354.226C357.619 355.498 358.658 356.538 359.93 356.538H373.24C374.512 356.538 375.031 357.44 374.397 358.542L367.742 370.079C367.108 371.181 367.486 372.602 368.587 373.237L380.597 380.177C381.698 380.811 383.119 380.432 383.753 379.33L390.409 367.796C391.043 366.694 392.085 366.694 392.719 367.796L399.375 379.33C400.009 380.432 401.43 380.814 402.531 380.177L414.541 373.237C415.642 372.602 416.023 371.181 415.386 370.079L408.731 358.542C408.097 357.44 408.617 356.538 409.887 356.538H423.198C424.47 356.538 425.509 355.498 425.509 354.226V340.351C425.509 339.078 424.47 338.039 423.198 338.039H409.887C408.617 338.039 408.097 337.137 408.731 336.035L415.386 324.501C416.02 323.399 415.642 321.977 414.541 321.343L402.531 314.404C401.43 313.769 400.009 314.148 399.375 315.25L392.719 326.784C392.085 327.885 391.043 327.885 390.409 326.784L383.753 315.25Z" fill="black"/>
<path d="M285.11 315.25C284.476 314.148 283.055 313.766 281.954 314.404L269.944 321.343C268.843 321.977 268.461 323.399 269.098 324.501L275.754 336.035C276.388 337.137 275.868 338.039 274.597 338.039H261.286C260.015 338.039 258.976 339.078 258.976 340.351V354.226C258.976 355.498 260.015 356.538 261.286 356.538H274.597C275.868 356.538 276.388 357.44 275.754 358.542L269.098 370.079C268.464 371.181 268.843 372.602 269.944 373.237L281.954 380.177C283.055 380.811 284.476 380.432 285.11 379.33L291.765 367.796C292.4 366.694 293.442 366.694 294.076 367.796L300.731 379.33C301.365 380.432 302.786 380.814 303.887 380.177L315.898 373.237C316.999 372.602 317.38 371.181 316.743 370.079L310.087 358.542C309.453 357.44 309.973 356.538 311.244 356.538H324.555C325.826 356.538 326.866 355.498 326.866 354.226V340.351C326.866 339.078 325.826 338.039 324.555 338.039H311.244C309.973 338.039 309.453 337.137 310.087 336.035L316.743 324.501C317.377 323.399 316.999 321.977 315.898 321.343L303.887 314.404C302.786 313.769 301.365 314.148 300.731 315.25L294.076 326.784C293.442 327.885 292.4 327.885 291.765 326.784L285.11 315.25Z" fill="black"/>
<path d="M235.789 400.153C235.155 399.051 233.734 398.669 232.634 399.307L220.623 406.246C219.522 406.881 219.141 408.303 219.778 409.404L226.433 420.939C227.067 422.04 226.548 422.942 225.276 422.942H211.965C210.695 422.942 209.655 423.982 209.655 425.254V439.13C209.655 440.402 210.695 441.441 211.965 441.441H225.276C226.548 441.441 227.067 442.344 226.433 443.446L219.778 454.983C219.143 456.084 219.522 457.506 220.623 458.141L232.634 465.08C233.734 465.714 235.155 465.335 235.789 464.234L242.445 452.699C243.079 451.598 244.121 451.598 244.755 452.699L251.411 464.234C252.045 465.335 253.466 465.717 254.566 465.08L266.577 458.141C267.678 457.506 268.059 456.084 267.423 454.983L260.767 443.446C260.133 442.344 260.653 441.441 261.924 441.441H275.235C276.506 441.441 277.545 440.402 277.545 439.13V425.254C277.545 423.982 276.506 422.942 275.235 422.942H261.924C260.653 422.942 260.133 422.04 260.767 420.939L267.423 409.404C268.057 408.303 267.678 406.881 266.577 406.246L254.566 399.307C253.466 398.673 252.045 399.051 251.411 400.153L244.755 411.687C244.121 412.789 243.079 412.789 242.445 411.687L235.789 400.153Z" fill="black"/>
<path d="M137.147 400.153C136.513 399.051 135.092 398.669 133.991 399.307L121.981 406.246C120.88 406.881 120.498 408.303 121.135 409.404L127.791 420.939C128.425 422.04 127.905 422.942 126.634 422.942H113.323C112.052 422.942 111.013 423.982 111.013 425.254V439.13C111.013 440.402 112.052 441.441 113.323 441.441H126.634C127.905 441.441 128.425 442.344 127.791 443.446L121.135 454.983C120.501 456.084 120.88 457.506 121.981 458.141L133.991 465.08C135.092 465.714 136.513 465.335 137.147 464.234L143.802 452.699C144.436 451.598 145.478 451.598 146.113 452.699L152.768 464.234C153.403 465.335 154.823 465.717 155.924 465.08L167.934 458.141C169.035 457.506 169.417 456.084 168.78 454.983L162.125 443.446C161.491 442.344 162.01 441.441 163.281 441.441H176.592C177.863 441.441 178.903 440.402 178.903 439.13V425.254C178.903 423.982 177.863 422.942 176.592 422.942H163.281C162.01 422.942 161.491 422.04 162.125 420.939L168.78 409.404C169.414 408.303 169.035 406.881 167.934 406.246L155.924 399.307C154.823 398.673 153.403 399.051 152.768 400.153L146.113 411.687C145.478 412.789 144.436 412.789 143.802 411.687L137.147 400.153Z" fill="black"/>
<path d="M334.433 400.153C333.799 399.051 332.378 398.669 331.277 399.307L319.267 406.246C318.166 406.881 317.784 408.303 318.421 409.404L325.076 420.939C325.711 422.04 325.191 422.942 323.92 422.942H310.609C309.338 422.942 308.299 423.982 308.299 425.254V439.13C308.299 440.402 309.338 441.441 310.609 441.441H323.92C325.191 441.441 325.711 442.344 325.076 443.446L318.421 454.983C317.787 456.084 318.166 457.506 319.267 458.141L331.277 465.08C332.378 465.714 333.799 465.335 334.433 464.234L341.088 452.699C341.722 451.598 342.765 451.598 343.399 452.699L350.054 464.234C350.688 465.335 352.109 465.717 353.21 465.08L365.22 458.141C366.321 457.506 366.703 456.084 366.066 454.983L359.411 443.446C358.776 442.344 359.296 441.441 360.567 441.441H373.878C375.149 441.441 376.188 440.402 376.188 439.13V425.254C376.188 423.982 375.149 422.942 373.878 422.942H360.567C359.296 422.942 358.776 422.04 359.411 420.939L366.066 409.404C366.7 408.303 366.321 406.881 365.22 406.246L353.21 399.307C352.109 398.673 350.688 399.051 350.054 400.153L343.399 411.687C342.765 412.789 341.722 412.789 341.088 411.687L334.433 400.153Z" fill="black"/>
<path d="M87.8265 485.059C87.1925 483.957 85.7715 483.575 84.6706 484.213L72.6602 491.152C71.5593 491.787 71.1777 493.209 71.8145 494.31L78.4699 505.844C79.104 506.946 78.5843 507.848 77.3135 507.848H64.0025C62.7312 507.848 61.6924 508.888 61.6924 510.16V524.035C61.6924 525.308 62.7312 526.347 64.0025 526.347H77.3135C78.5843 526.347 79.104 527.25 78.4699 528.351L71.8145 539.888C71.1804 540.99 71.5593 542.412 72.6602 543.046L84.6706 549.986C85.7715 550.619 87.1925 550.241 87.8265 549.139L94.482 537.605C95.116 536.503 96.1581 536.503 96.7921 537.605L103.448 549.139C104.082 550.241 105.503 550.624 106.604 549.986L118.614 543.046C119.715 542.412 120.096 540.99 119.459 539.888L112.804 528.351C112.17 527.25 112.689 526.347 113.961 526.347H127.272C128.542 526.347 129.582 525.308 129.582 524.035V510.16C129.582 508.888 128.542 507.848 127.272 507.848H113.961C112.689 507.848 112.17 506.946 112.804 505.844L119.459 494.31C120.093 493.209 119.715 491.787 118.614 491.152L106.604 484.213C105.503 483.578 104.082 483.957 103.448 485.059L96.7921 496.593C96.1581 497.695 95.116 497.695 94.482 496.593L87.8265 485.059Z" fill="black"/>
<path d="M186.468 485.059C185.833 483.957 184.412 483.575 183.311 484.213L171.301 491.152C170.2 491.787 169.819 493.209 170.456 494.31L177.111 505.844C177.745 506.946 177.225 507.848 175.955 507.848H162.644C161.372 507.848 160.333 508.888 160.333 510.16V524.035C160.333 525.308 161.372 526.347 162.644 526.347H175.955C177.225 526.347 177.745 527.25 177.111 528.351L170.456 539.888C169.822 540.99 170.2 542.412 171.301 543.046L183.311 549.986C184.412 550.619 185.833 550.241 186.468 549.139L193.123 537.605C193.757 536.503 194.799 536.503 195.433 537.605L202.089 549.139C202.723 550.241 204.144 550.624 205.245 549.986L217.255 543.046C218.356 542.412 218.738 540.99 218.1 539.888L211.445 528.351C210.811 527.25 211.33 526.347 212.602 526.347H225.913C227.184 526.347 228.223 525.308 228.223 524.035V510.16C228.223 508.888 227.184 507.848 225.913 507.848H212.602C211.33 507.848 210.811 506.946 211.445 505.844L218.1 494.31C218.734 493.209 218.356 491.787 217.255 491.152L205.245 484.213C204.144 483.578 202.723 483.957 202.089 485.059L195.433 496.593C194.799 497.695 193.757 497.695 193.123 496.593L186.468 485.059Z" fill="black"/>
<path d="M398.854 103.607C399.012 101.726 399.113 99.8283 399.113 97.9072C399.113 60.884 369.121 30.8711 332.124 30.8711C321.957 30.8711 312.328 33.1479 303.697 37.2021C289.015 14.798 263.7 0 234.926 0C193.386 0 159.046 30.8446 153.52 70.8933C147.103 67.3741 139.737 65.3733 131.901 65.3733C107.009 65.3733 86.8286 85.568 86.8286 110.478C86.8286 115.599 87.6947 120.517 89.2652 125.103C87.3274 124.968 85.3752 124.894 83.4022 124.894C37.3401 124.894 0 162.261 0 208.356C0 254.451 37.3401 291.818 83.4022 291.818H204.849H363.496H393.344C445.325 291.818 487.465 249.647 487.465 197.63C487.465 147.463 448.272 106.462 398.854 103.607Z" fill="black"/>
<path d="M102.596 222.741C102.537 224.566 102.281 226.273 101.827 227.868C101.371 229.463 100.831 230.914 100.203 232.225C98.6092 235.415 96.4305 237.822 93.6738 239.443C90.9116 241.068 87.5413 241.82 83.5572 241.708C81.7343 241.65 80.0285 241.394 78.4343 240.939C76.8402 240.483 75.3901 239.943 74.0808 239.314C70.8924 237.719 68.4882 235.557 66.8677 232.821C65.2438 230.086 64.4926 226.728 64.6037 222.741C64.7186 219.554 66.3128 217.959 69.3835 217.959H74.0775C77.037 217.959 78.6312 219.524 78.8572 222.656C79.1421 225.847 80.7065 227.442 83.5512 227.442H83.6364C85.2306 227.442 86.4107 227.031 87.18 226.202C87.9493 225.377 88.3309 224.225 88.3309 222.741C88.3309 221.205 87.6177 219.724 86.1968 218.299C84.6581 216.76 82.1539 214.797 78.684 212.406C74.0159 209.218 70.8864 206.739 69.2922 204.974C67.698 203.263 66.4888 201.427 65.6639 199.465C64.8385 197.499 64.4833 195.378 64.5982 193.101C64.6538 191.28 64.9095 189.555 65.367 187.934C65.8223 186.309 66.3623 184.846 66.9909 183.536C68.5817 180.348 70.7456 177.939 73.4786 176.318C76.2122 174.696 79.5677 173.941 83.5512 174.055C85.3714 174.111 87.0805 174.369 88.6741 174.825C90.2655 175.28 91.7189 175.821 93.0282 176.447C96.2721 178.042 98.706 180.222 100.327 182.98C101.95 185.745 102.702 189.118 102.59 193.104C102.531 196.236 100.937 197.802 97.8074 197.802H93.0282C90.1803 197.802 88.6185 196.207 88.3337 193.019C88.0488 189.832 86.4547 188.265 83.5545 188.322C80.425 188.492 78.86 190.087 78.86 193.104C78.86 194.244 79.7145 195.581 81.4203 197.12C81.8751 197.52 82.6851 198.16 83.8536 199.042C85.0194 199.926 86.5135 201.048 88.3337 202.417C92.943 205.834 96.1577 208.625 97.9806 210.79C99.5193 212.615 100.699 214.521 101.524 216.513C102.352 218.499 102.71 220.576 102.596 222.741Z" fill="white"/>
<path d="M144.851 179.429V236.408C144.851 238.004 144.434 239.185 143.606 239.954C142.776 240.724 141.616 241.109 140.127 241.109H135.319C133.314 241.109 131.884 240.254 131.024 238.544L121.121 213.002V236.323C121.121 237.918 120.695 239.114 119.841 239.91C118.987 240.709 117.822 241.106 116.342 241.106H111.647C110.168 241.106 109.002 240.709 108.148 239.91C107.294 239.114 106.868 237.918 106.868 236.323V179.429C106.868 177.833 107.294 176.638 108.148 175.841C109.002 175.045 110.168 174.646 111.647 174.646H116.342C118.332 174.646 119.812 175.586 120.781 177.466L130.598 202.752V179.431C130.598 177.836 131.012 176.64 131.843 175.844C132.673 175.048 133.833 174.648 135.322 174.648H140.13C141.619 174.648 142.778 175.048 143.606 175.844C144.434 176.64 144.851 177.836 144.851 179.429Z" fill="white"/>
<path d="M187.61 222.741C187.61 224.566 187.381 226.273 186.926 227.868C186.471 229.463 185.928 230.915 185.3 232.225C182.105 238.547 176.545 241.708 168.616 241.708C160.686 241.708 155.155 238.547 152.017 232.225C151.388 230.915 150.833 229.463 150.346 227.868C149.862 226.273 149.618 224.566 149.618 222.741V193.013C149.618 191.192 149.859 189.482 150.346 187.887C150.831 186.294 151.386 184.84 152.017 183.53C155.155 177.208 160.686 174.046 168.616 174.046C176.545 174.046 182.105 177.208 185.3 183.53C185.928 184.84 186.468 186.294 186.926 187.887C187.381 189.482 187.61 191.192 187.61 193.013V222.741ZM173.354 222.741V193.013C173.354 190.167 171.76 188.601 168.574 188.316C165.445 188.545 163.88 190.111 163.88 193.013V222.741C163.88 225.647 165.445 227.213 168.574 227.439C171.76 227.154 173.354 225.589 173.354 222.741Z" fill="white"/>
<path d="M253.803 222.142C253.803 223.966 253.575 225.673 253.119 227.268C252.665 228.864 252.095 230.315 251.411 231.625C248.22 237.947 242.689 241.109 234.827 241.109C230.895 241.109 226.932 239.858 222.946 237.348C219.07 239.854 215.11 241.109 211.064 241.109C203.141 241.109 197.613 237.947 194.48 231.625C193.852 230.315 193.3 228.864 192.813 227.268C192.329 225.673 192.085 223.966 192.085 222.142V179.429C192.085 177.833 192.511 176.638 193.365 175.841C194.219 175.045 195.384 174.646 196.864 174.646H201.559C203.038 174.646 204.206 175.045 205.058 175.841C205.912 176.64 206.338 177.836 206.338 179.429V222.142C206.338 225.047 207.903 226.614 211.032 226.84C214.217 226.555 215.812 224.989 215.812 222.142V179.429C215.812 177.833 216.226 176.638 217.057 175.841C217.888 175.045 219.047 174.646 220.535 174.646H225.344C226.833 174.646 227.992 175.045 228.82 175.841C229.651 176.64 230.065 177.836 230.065 179.429V222.142C230.065 224.992 231.644 226.555 234.803 226.84C237.962 226.555 239.542 224.989 239.542 222.142V179.429C239.542 177.833 239.956 176.638 240.786 175.841C241.617 175.045 242.777 174.646 244.265 174.646H249.074C250.562 174.646 251.722 175.045 252.55 175.841C253.381 176.64 253.795 177.836 253.795 179.429V222.142H253.803Z" fill="white"/>
<path d="M296.56 222.142C296.56 223.966 296.331 225.673 295.876 227.268C295.421 228.864 294.878 230.315 294.25 231.625C291.055 237.947 285.495 241.109 277.566 241.109H268.068C264.874 241.109 262.493 240.269 260.926 238.588C259.358 236.907 258.574 234.587 258.574 231.625V184.129C258.574 181.168 259.358 178.846 260.926 177.166C262.493 175.486 264.874 174.646 268.068 174.646H277.566C285.495 174.646 291.055 177.807 294.25 184.129C294.878 185.44 295.418 186.893 295.876 188.486C296.331 190.081 296.56 191.788 296.56 193.612V195.152C296.56 199.935 295.365 203.895 292.976 207.026C295.365 210.103 296.56 214.06 296.56 218.901V222.142ZM282.304 195.149V193.61C282.304 192.129 281.904 190.977 281.109 190.149C280.311 189.323 279.116 188.909 277.524 188.909H275.135C273.599 188.909 272.83 189.708 272.83 191.3V199.843H277.524C279.119 199.843 280.314 199.432 281.109 198.607C281.904 197.782 282.304 196.63 282.304 195.149ZM282.304 222.142V218.896C282.304 217.415 281.904 216.246 281.109 215.394C280.311 214.539 279.116 214.113 277.524 214.113H272.83V224.448C272.83 226.044 273.599 226.84 275.135 226.84H277.524C279.119 226.84 280.314 226.428 281.109 225.6C281.904 224.777 282.304 223.626 282.304 222.142Z" fill="white"/>
<path d="M338.733 222.741C338.733 224.566 338.504 226.273 338.049 227.868C337.594 229.463 337.051 230.915 336.423 232.225C333.229 238.547 327.668 241.708 319.739 241.708C311.809 241.708 306.278 238.547 303.14 232.225C302.512 230.915 301.957 229.463 301.469 227.868C300.985 226.273 300.741 224.566 300.741 222.741V193.013C300.741 191.192 300.982 189.482 301.469 187.887C301.954 186.294 302.509 184.84 303.14 183.53C306.278 177.208 311.809 174.046 319.739 174.046C327.668 174.046 333.229 177.208 336.423 183.53C337.051 184.84 337.591 186.294 338.049 187.887C338.504 189.482 338.733 191.192 338.733 193.013V222.741ZM324.477 222.741V193.013C324.477 190.167 322.883 188.601 319.697 188.316C316.568 188.545 315.004 190.111 315.004 193.013V222.741C315.004 225.647 316.568 227.213 319.697 227.439C322.883 227.154 324.477 225.589 324.477 222.741Z" fill="white"/>
<path d="M381.49 196.259C381.49 205.143 377.618 210.981 369.879 213.772L381.146 231.884C381.431 232.339 381.628 232.795 381.746 233.25C381.86 233.705 381.916 234.161 381.916 234.616C381.916 236.211 381.143 237.466 379.602 238.377L375.575 240.938C374.773 241.508 373.919 241.793 373.003 241.793C372.201 241.793 371.461 241.608 370.775 241.238C370.088 240.868 369.492 240.257 368.977 239.402L357.754 220.949V236.411C357.754 238.006 357.328 239.187 356.474 239.957C355.62 240.727 354.454 241.112 352.975 241.112H348.281C346.801 241.112 345.635 240.727 344.781 239.957C343.927 239.187 343.501 238.006 343.501 236.411V184.129C343.501 181.168 344.285 178.846 345.853 177.166C347.42 175.486 349.801 174.646 352.996 174.646H362.492C370.422 174.646 375.983 177.807 379.176 184.129C379.805 185.44 380.345 186.893 380.803 188.486C381.258 190.081 381.487 191.788 381.487 193.612L381.49 196.259ZM367.234 196.259V193.61C367.234 192.129 366.834 190.977 366.039 190.149C365.24 189.323 364.045 188.909 362.454 188.909H360.065C358.529 188.909 357.76 189.708 357.76 191.3V200.954H362.454C364.049 200.954 365.244 200.543 366.039 199.717C366.834 198.892 367.234 197.74 367.234 196.259Z" fill="white"/>
<path d="M424.676 179.429V236.408C424.676 238.004 424.259 239.185 423.432 239.954C422.601 240.724 421.441 241.109 419.953 241.109H415.144C413.139 241.109 411.709 240.254 410.849 238.544L400.947 213.002V236.323C400.947 237.918 400.521 239.114 399.667 239.91C398.812 240.709 397.647 241.106 396.167 241.106H391.473C389.993 241.106 388.828 240.709 387.974 239.91C387.119 239.114 386.693 237.918 386.693 236.323V179.429C386.693 177.833 387.119 176.638 387.974 175.841C388.828 175.045 389.993 174.646 391.473 174.646H396.167C398.158 174.646 399.638 175.586 400.606 177.466L410.423 202.752V179.431C410.423 177.836 410.837 176.64 411.668 175.844C412.499 175.048 413.658 174.648 415.147 174.648H419.956C421.444 174.648 422.604 175.048 423.432 175.844C424.259 176.64 424.676 177.836 424.676 179.429Z" fill="white"/>
</svg>
