<svg width="2218" height="555" viewBox="0 0 2218 555" fill="none" xmlns="http://www.w3.org/2000/svg">
<mask id="mask0_1390_27" style="mask-type:luminance" maskUnits="userSpaceOnUse" x="0" y="0" width="2218" height="555">
<path d="M2218 0H0V554.682H2218V0Z" fill="white"/>
</mask>
<g mask="url(#mask0_1390_27)">
<path d="M334.205 277.343H528.823C470.568 202.881 398.891 140.179 317.562 92.5273V247.279C328.658 256.135 334.205 266.857 334.205 277.343Z" fill="url(#paint0_linear_1390_27)"/>
<path d="M334.233 277.333C334.233 287.82 328.686 298.308 317.359 307.164V461.916C398.781 414.4 470.479 351.677 528.62 277.101L334.233 277.333Z" fill="url(#paint1_linear_1390_27)"/>
<path d="M150.718 383.851L52.9473 554.685C146.219 541.178 236.056 509.769 317.598 462.16L185.158 385.016C171.52 390.145 159.732 389.677 150.718 383.851Z" fill="#D61F2B"/>
<path d="M134.754 355.862L0.000377663 277.32C-0.0947763 372.308 17.7918 466.438 52.6999 554.662L150.472 383.829C142.381 378.469 136.834 368.914 134.754 355.862Z" fill="url(#paint2_linear_1390_27)"/>
<path d="M150.472 170.833L52.9313 0C17.8387 88.177 -0.130437 182.329 0.000712753 277.341L134.754 198.8C136.603 185.749 142.381 176.194 150.472 170.833Z" fill="url(#paint3_linear_1390_27)"/>
<path d="M184.916 169.667L317.359 92.525C235.83 44.882 145.984 13.4716 52.7051 0L150.477 170.833C159.722 165.006 171.51 164.307 184.916 169.667Z" fill="url(#paint4_linear_1390_27)"/>
<path d="M194.391 174.339L309.036 241.927C312.116 243.792 314.89 245.655 317.356 247.52V92.7676L184.914 169.91C188.199 171.096 191.371 172.577 194.391 174.339Z" fill="url(#paint5_linear_1390_27)"/>
<path d="M134.06 345.16V209.285C134.045 205.778 134.277 202.273 134.754 198.797L0 277.339L134.754 355.88C134.284 352.326 134.053 348.744 134.06 345.16Z" fill="#ED1B31"/>
<path d="M309.277 312.767L194.631 380.354C191.591 382.142 188.424 383.701 185.154 385.015L317.597 462.158V307.174C315.006 309.301 312.222 311.176 309.277 312.767Z" fill="url(#paint6_linear_1390_27)"/>
<path d="M692.707 299.486V381.057H654.338V172.468H717.439C729.599 172.298 741.729 173.788 753.496 176.897C762.481 179.288 770.894 183.49 778.228 189.249C784.471 194.258 789.391 200.742 792.558 208.126C795.662 215.822 797.233 224.058 797.181 232.365C797.198 239.103 796.102 245.797 793.946 252.175C791.921 258.321 788.872 264.076 784.931 269.188C780.847 274.386 776.016 278.941 770.6 282.706C764.602 286.734 758.063 289.873 751.184 292.028C756.217 295.025 760.553 299.082 763.898 303.914L815.673 380.824H781.002C778.107 381.039 775.216 380.405 772.673 379C770.131 377.592 768.046 375.474 766.671 372.9L722.986 306.245C721.71 304.017 719.877 302.169 717.67 300.885C714.924 299.605 711.903 299.046 708.886 299.253H692.707V299.486ZM692.707 271.519H716.745C723.173 271.661 729.578 270.716 735.699 268.723C740.668 267.171 745.242 264.545 749.105 261.031C752.507 257.839 755.186 253.943 756.964 249.611C758.778 244.938 759.643 239.944 759.506 234.928C759.506 224.208 756.038 216.284 749.105 210.457C742.171 204.631 731.538 201.835 717.439 201.835H692.938L692.707 271.519Z" fill="#C72031"/>
<path d="M919.482 349.58C926.282 349.625 933.029 348.36 939.36 345.852C945.009 343.518 950.064 339.934 954.153 335.364C958.384 330.586 961.54 324.941 963.399 318.817C965.703 311.832 966.799 304.5 966.634 297.142V172.456H1005V297.375C1005.06 309.143 1003.02 320.826 998.993 331.868C995.217 342.05 989.394 351.333 981.889 359.136C974.267 367.018 965.04 373.138 954.846 377.081C931.742 385.782 906.297 385.782 883.193 377.081C873.075 372.996 863.875 366.892 856.15 359.136C848.645 351.333 842.821 342.05 839.046 331.868C834.975 320.835 832.937 309.148 833.037 297.375V172.456H871.405V297.375C871.357 304.727 872.447 312.039 874.642 319.05C876.687 325.093 879.821 330.703 883.886 335.597C887.992 340.207 893.038 343.864 898.679 346.317C905.406 348.476 912.423 349.576 919.482 349.58Z" fill="#C72031"/>
<path d="M1048.67 380.828V172.474H1119.86C1131.54 172.278 1143.19 173.61 1154.53 176.435C1163.07 178.491 1171.09 182.3 1178.11 187.623C1184.03 192.207 1188.72 198.217 1191.74 205.103C1194.81 212.394 1196.31 220.257 1196.14 228.174C1196.2 232.937 1195.42 237.675 1193.83 242.157C1192.33 246.714 1190.07 250.972 1187.12 254.744C1183.84 258.893 1179.94 262.509 1175.57 265.464C1170.41 268.919 1164.81 271.661 1158.92 273.621C1187.36 280.147 1201.46 295.529 1201.46 320C1201.6 328.316 1199.92 336.559 1196.52 344.139C1193.12 351.715 1188.1 358.436 1181.8 363.815C1174.87 369.625 1166.85 373.984 1158.23 376.634C1147.82 379.848 1136.99 381.421 1126.11 381.294L1048.67 380.828ZM1087.27 262.667H1117.78C1130.95 262.667 1140.89 260.104 1147.6 255.443C1154.3 250.782 1157.76 242.858 1157.76 232.604C1157.76 221.65 1154.77 213.959 1148.52 209.298C1142.28 204.636 1132.8 202.306 1119.86 202.306H1087.05V262.667H1087.27ZM1087.27 289.469V350.764H1126.11C1132.21 350.883 1138.3 350.018 1144.13 348.2C1148.51 346.74 1152.53 344.357 1155.92 341.208C1158.83 338.477 1160.99 335.02 1162.16 331.187C1163.57 327.222 1164.26 323.043 1164.24 318.834C1164.37 314.672 1163.58 310.532 1161.93 306.715C1160.39 303.153 1158.11 299.971 1155.23 297.393C1151.75 294.631 1147.73 292.646 1143.44 291.566C1137.78 290.069 1131.95 289.362 1126.11 289.469H1087.27Z" fill="#C72031"/>
<path d="M1323.28 300.183V381.055H1284.91V300.183L1209.56 172.466H1243.54C1246.45 172.345 1249.31 173.252 1251.63 175.03C1253.74 176.746 1255.47 178.889 1256.71 181.321L1294.39 251.008C1296.7 255.203 1298.55 259.164 1300.17 262.893C1301.78 266.623 1303.4 270.118 1304.79 273.847C1306.18 270.118 1307.56 266.389 1309.19 262.893C1310.8 259.398 1312.65 255.203 1314.73 251.24L1352.41 181.554C1353.67 179.274 1355.31 177.227 1357.25 175.495C1359.51 173.581 1362.4 172.584 1365.34 172.699H1399.32L1323.28 300.183Z" fill="#C72031"/>
<path d="M1520.65 307.402V380.815H1482.28V172.461H1549.54C1561.67 172.207 1573.75 173.859 1585.37 177.355C1594.56 180.11 1603.07 184.796 1610.33 191.105C1616.88 196.775 1621.96 203.977 1625.13 212.081C1631.68 229.674 1631.6 249.081 1624.89 266.617C1621.58 274.897 1616.44 282.308 1609.87 288.291C1602.52 294.705 1593.94 299.542 1584.68 302.508C1573.32 306.156 1561.45 307.886 1549.54 307.635H1520.65V307.402ZM1520.65 277.105H1549.31C1555.59 277.233 1561.84 276.286 1567.8 274.308C1572.67 272.702 1577.17 270.083 1580.98 266.617C1584.45 263.21 1587.13 259.072 1588.84 254.497C1590.67 249.423 1591.53 244.047 1591.37 238.649C1591.41 233.489 1590.56 228.36 1588.84 223.5C1587.12 219.065 1584.43 215.081 1580.98 211.847C1577.24 208.499 1572.83 206.03 1568.03 204.623C1561.95 202.844 1555.64 201.979 1549.31 202.059H1520.65V277.105Z" fill="white"/>
<path d="M1700.69 348.881H1781.82L1767.96 380.81H1662.09V172.456H1700.47L1700.69 348.881Z" fill="white"/>
<path d="M1989.42 380.822H1959.6C1956.7 380.943 1953.83 380.037 1951.51 378.258C1949.41 376.595 1947.74 374.434 1946.65 371.967L1931.17 329.55H1845.42L1829.93 371.967C1828.98 374.316 1827.47 376.397 1825.54 378.026C1823.27 379.907 1820.39 380.9 1817.46 380.822H1787.4L1868.77 172.235H1907.83L1989.42 380.822ZM1855.59 302.282H1921.47L1896.5 232.831C1895 229.249 1893.7 225.593 1892.57 221.877C1891.18 217.682 1889.8 213.02 1888.41 208.127C1887.03 213.02 1885.64 217.682 1884.48 221.877C1883.33 226.072 1881.94 229.801 1880.56 233.063L1855.59 302.282Z" fill="white"/>
<path d="M2069.16 300.183V381.055H2030.78V300.183L1955.43 172.466H1989.41C1992.32 172.345 1995.18 173.252 1997.5 175.03C1999.62 176.746 2001.34 178.889 2002.59 181.321L2040.26 251.008C2042.57 255.203 2044.42 259.164 2046.04 262.893C2047.66 266.623 2049.28 270.118 2050.66 273.847C2052.05 270.118 2053.44 266.389 2055.06 262.893C2056.67 259.398 2058.52 255.203 2060.6 251.24L2098.28 181.554C2099.55 179.274 2101.18 177.227 2103.14 175.495C2105.4 173.581 2108.28 172.584 2111.23 172.699H2145.2L2069.16 300.183Z" fill="white"/>
<path d="M2216.84 193.438C2216.14 190.801 2215.05 188.287 2213.61 185.981C2212.25 183.691 2210.62 181.578 2208.75 179.688C2206.83 177.859 2204.73 176.22 2202.5 174.795C2200.19 173.376 2197.71 172.278 2195.11 171.531C2189.68 169.901 2183.9 169.901 2178.47 171.531C2175.85 172.234 2173.36 173.333 2171.07 174.795C2168.8 176.162 2166.71 177.806 2164.83 179.688C2163.02 181.623 2161.39 183.732 2159.98 185.981C2158.57 188.309 2157.48 190.818 2156.74 193.438C2156.02 196.177 2155.63 198.995 2155.59 201.829C2155.6 204.665 2155.99 207.487 2156.74 210.219C2157.44 212.856 2158.52 215.371 2159.98 217.677C2161.34 219.966 2162.96 222.08 2164.83 223.97C2166.75 225.799 2168.84 227.438 2171.07 228.865C2173.38 230.281 2175.87 231.379 2178.47 232.127C2181.19 232.856 2183.98 233.248 2186.79 233.292C2189.61 233.281 2192.4 232.889 2195.11 232.127C2197.73 231.425 2200.21 230.324 2202.5 228.865C2204.77 227.496 2206.87 225.852 2208.75 223.97C2210.56 222.034 2212.19 219.927 2213.61 217.677C2215.01 215.349 2216.1 212.841 2216.84 210.219C2217.56 207.481 2217.95 204.663 2217.99 201.829C2218.09 198.986 2217.7 196.146 2216.84 193.438ZM2163.22 194.837C2163.78 192.708 2164.63 190.669 2165.75 188.777C2166.8 186.878 2168.13 185.15 2169.69 183.65C2171.15 182.063 2172.88 180.725 2174.77 179.688C2176.6 178.461 2178.63 177.591 2180.78 177.125C2182.95 176.457 2185.21 176.142 2187.48 176.192C2189.74 176.257 2191.99 176.57 2194.19 177.125C2196.28 177.737 2198.29 178.598 2200.19 179.688C2201.99 180.878 2203.69 182.203 2205.28 183.65C2206.79 185.197 2208.1 186.917 2209.21 188.777C2210.29 190.689 2211.14 192.724 2211.76 194.837C2212.41 197.026 2212.72 199.308 2212.68 201.596C2212.67 205.022 2212.04 208.417 2210.83 211.618C2209.55 214.634 2207.75 217.396 2205.51 219.774C2203.3 222.103 2200.62 223.929 2197.66 225.135C2194.6 226.518 2191.29 227.233 2187.94 227.233C2184.6 227.233 2181.29 226.518 2178.24 225.135C2175.37 223.761 2172.72 221.953 2170.37 219.774C2168.04 217.377 2166.21 214.534 2164.98 211.413C2163.75 208.291 2163.15 204.954 2163.22 201.596C2162.63 199.38 2162.63 197.052 2163.22 194.837Z" fill="#424242"/>
<path d="M2195.33 205.543C2194.91 204.956 2194.35 204.477 2193.7 204.145C2196 203.484 2198.04 202.094 2199.48 200.182C2200.79 198.354 2201.44 196.137 2201.33 193.891C2201.43 192.386 2201.16 190.883 2200.55 189.505C2199.95 188.126 2199.03 186.913 2197.87 185.966C2194.58 183.827 2190.67 182.845 2186.77 183.169H2173.83V219.76H2182.61V206.476H2184.92C2185.5 206.489 2186.05 206.65 2186.55 206.941C2186.96 207.125 2187.29 207.457 2187.47 207.874L2193.24 218.594C2193.49 219.051 2193.86 219.426 2194.31 219.673C2194.76 219.921 2195.27 220.032 2195.79 219.993H2204.11L2196.71 207.408C2196.16 206.861 2195.7 206.233 2195.33 205.543ZM2192.55 197.386C2192.31 198.085 2191.92 198.722 2191.39 199.251C2190.82 199.821 2190.1 200.225 2189.32 200.416C2188.19 200.717 2187.02 200.874 2185.85 200.882H2182.15V190.394H2186.55C2187.56 190.378 2188.58 190.535 2189.54 190.86C2190.24 190.976 2190.89 191.3 2191.39 191.793C2191.83 192.248 2192.15 192.809 2192.32 193.424C2192.52 194.183 2192.6 194.971 2192.55 195.754C2192.78 195.754 2192.78 196.687 2192.55 197.386Z" fill="#424242"/>
</g>
<defs>
<linearGradient id="paint0_linear_1390_27" x1="428.07" y1="293.424" x2="394.056" y2="80.3093" gradientUnits="userSpaceOnUse">
<stop stop-color="#ED1B34"/>
<stop offset="1" stop-color="#D4202A"/>
</linearGradient>
<linearGradient id="paint1_linear_1390_27" x1="363.425" y1="476.996" x2="438.574" y2="247.61" gradientUnits="userSpaceOnUse">
<stop stop-color="#CF2029"/>
<stop offset="1" stop-color="#AA1F23"/>
</linearGradient>
<linearGradient id="paint2_linear_1390_27" x1="124.584" y1="523.899" x2="16.1035" y2="270.439" gradientUnits="userSpaceOnUse">
<stop stop-color="#951B1E"/>
<stop offset="1" stop-color="#CB2028"/>
</linearGradient>
<linearGradient id="paint3_linear_1390_27" x1="14.1463" y1="283.704" x2="126.658" y2="33.0876" gradientUnits="userSpaceOnUse">
<stop stop-color="#E11E2D"/>
<stop offset="1" stop-color="#B21F25"/>
</linearGradient>
<linearGradient id="paint4_linear_1390_27" x1="52.7051" y1="85.4169" x2="317.359" y2="85.4169" gradientUnits="userSpaceOnUse">
<stop stop-color="#A31E22"/>
<stop offset="1" stop-color="#931A1D"/>
</linearGradient>
<linearGradient id="paint5_linear_1390_27" x1="248.778" y1="242.696" x2="259.634" y2="88.7025" gradientUnits="userSpaceOnUse">
<stop stop-color="#DD1F2C"/>
<stop offset="1" stop-color="#AA1F23"/>
</linearGradient>
<linearGradient id="paint6_linear_1390_27" x1="300.655" y1="469.057" x2="246.498" y2="336.128" gradientUnits="userSpaceOnUse">
<stop stop-color="#ED1B35"/>
<stop offset="1" stop-color="#DB1F2B"/>
</linearGradient>
</defs>
</svg>
