<svg width="205" height="23" viewBox="0 0 2051 239" fill="none" xmlns="http://www.w3.org/2000/svg">
<path d="M94.3088 0H136.174V161.55C136.174 176.4 133.248 189.45 127.621 200.925C121.994 212.4 113.891 221.175 103.312 227.25C92.9583 233.55 81.0291 236.475 67.9744 236.475C46.3666 236.475 29.7107 230.175 17.5563 217.575C5.62702 204.975 0 187.2 0 164.25V147.375H41.4149V164.25C41.4149 175.725 43.8907 184.05 47.9422 189.675C52.2187 195.075 58.7461 197.775 67.7493 197.775C75.8522 197.775 82.1545 194.625 86.8812 188.325C91.6079 182.025 94.0838 173.025 94.0838 161.325V0H94.3088Z" fill="url(#paint0_linear_2_2693)"/>
<path d="M301.384 133.425H236.56V235.575H194.695V2.25H320.515V41.175H236.56V94.725H301.384V133.425Z" fill="#FE2002"/>
<path d="M485.049 41.175H433.956V235.8H392.091V41.175H344.148V2.25H485.274V41.175H485.049Z" fill="#E01602"/>
<path d="M681.32 170.775L708.555 4.5H750.42L705.179 238.05H662.863L629.777 81.9L596.69 238.05H554.6L509.358 4.5H551.223L578.683 170.325L612.22 4.5H647.783L681.32 170.775Z" fill="url(#paint1_linear_2_2693)"/>
<path d="M89.8077 184.5C89.1325 186.075 88.2322 187.425 87.3318 188.55C82.6051 194.85 76.3029 198 68.4251 198C50.1935 210.6 39.1646 221.625 32.8623 229.05C42.7659 234.225 54.4701 236.7 68.2 236.7C81.2547 236.7 93.1839 233.55 103.538 227.475C113.891 221.175 121.994 212.4 127.846 201.15C133.473 189.675 136.399 176.625 136.399 161.775C118.168 169.2 102.637 177.075 89.8077 184.5Z" fill="#024EA3"/>
<path d="M194.695 140.85V235.8H236.56V133.425H301.384V115.65C260.194 123.075 224.856 131.625 194.695 140.85ZM415.049 101.25C407.172 101.925 399.519 102.6 392.091 103.5V235.8H433.956V99.675C427.654 100.125 421.352 100.8 415.049 101.25ZM592.863 101.025L578.908 170.325L567.204 99.45C553.924 98.775 540.869 98.325 527.815 97.875L554.374 235.35L554.824 237.825H597.14L597.815 235.125L625.725 103.5C614.471 102.6 603.667 101.7 592.863 101.025ZM691.223 110.925L681.32 170.55L668.715 108C657.461 106.65 646.207 105.525 634.728 104.4L662.413 234.675L663.088 237.825H705.403L706.079 234.45L729.037 115.875C716.432 114.3 703.828 112.5 691.223 110.925Z" fill="#9C1202"/>
<path d="M826.497 5.4C824.021 5.4 821.995 6.525 820.419 8.325C818.844 10.125 818.169 12.375 818.169 14.85V84.375C818.169 92.925 816.818 98.775 814.342 101.7C811.866 104.625 808.49 105.975 804.214 105.975C800.387 105.975 796.561 104.85 792.96 102.825C791.834 102.15 790.709 101.925 789.358 101.925C787.107 101.925 785.307 103.05 783.731 104.85C782.606 106.65 781.931 108.45 781.931 110.7C781.931 114.075 783.281 116.775 785.757 118.575C791.384 122.4 797.911 124.425 804.889 124.425C813.442 124.425 820.645 121.275 826.272 114.975C831.899 108.675 834.6 98.325 834.6 83.7V15.075C834.6 12.6 833.924 10.35 832.349 8.325C830.998 6.525 828.747 5.4 826.497 5.4ZM932.285 5.4C929.809 5.4 927.783 6.525 926.207 8.325C924.632 10.125 923.957 12.375 923.957 14.85V78.75C923.957 84.825 922.831 90 920.58 94.05C918.33 98.1 915.404 101.25 911.802 103.275C904.6 107.325 895.596 107.325 888.394 103.275C884.793 101.25 881.866 98.1 879.616 94.05C877.365 90 876.239 84.825 876.239 78.75V15.075C876.239 12.6 875.564 10.35 873.989 8.325C872.413 6.3 870.162 5.4 867.912 5.4C865.436 5.4 863.41 6.525 861.834 8.325C860.259 10.125 859.584 12.375 859.584 14.85V78.3C859.584 88.2 861.609 96.75 865.436 103.5C869.487 110.475 874.439 115.65 880.741 119.025C887.043 122.4 893.571 124.2 900.098 124.2C906.85 124.2 913.378 122.4 919.455 119.025C925.757 115.65 930.934 110.475 934.76 103.5C938.587 96.525 940.613 88.2 940.613 78.3V15.075C940.613 12.6 939.937 10.35 938.362 8.325C936.786 6.525 934.76 5.4 932.285 5.4ZM1014.89 62.1C1010.39 60.075 1004.54 57.825 997.558 55.8C992.156 54.225 987.88 52.875 984.954 51.75C982.027 50.625 979.777 48.825 977.976 46.8C976.175 44.775 975.275 42.3 975.275 38.925C975.275 33.975 977.076 30.15 980.902 27.225C984.953 24.3 990.13 22.95 996.658 22.95C1003.64 22.95 1010.61 24.3 1017.14 27C1018.27 27.675 1019.39 27.9 1020.29 27.9C1022.54 27.9 1024.57 26.775 1025.92 24.75C1027.27 22.95 1027.72 20.925 1027.72 18.9C1027.72 13.725 1025.02 11.475 1022.54 10.35C1014.44 6.75 1004.99 4.95 995.082 4.95C987.429 4.95 980.677 6.525 975.275 9.675C969.648 12.825 965.371 17.1 962.67 22.5C959.744 27.675 958.394 33.75 958.394 40.275C958.394 47.7 960.195 53.775 963.571 58.275C966.947 62.775 971.224 66.15 975.95 68.4C980.452 70.425 986.529 72.675 993.732 74.925C999.134 76.5 1003.19 78.075 1006.11 79.2C1008.81 80.325 1011.06 81.9 1012.86 83.7C1014.44 85.5 1015.34 87.525 1015.34 90.225C1015.34 97.2 1013.09 106.425 994.182 106.425C985.179 106.425 976.626 104.4 968.973 100.125C967.847 99.45 966.722 99.225 965.371 99.225C963.121 99.225 961.095 100.125 959.744 102.15C958.394 103.95 957.719 105.975 957.719 108.225C957.719 110.025 958.169 111.825 959.069 113.175C959.97 114.75 961.32 115.875 962.67 116.775C972.799 121.95 983.828 124.65 995.532 124.65C1002.73 124.65 1009.04 123.3 1014.44 120.375C1020.07 117.45 1024.34 113.4 1027.27 108.45C1030.42 103.275 1031.77 97.65 1031.77 91.125C1031.77 83.475 1029.97 77.175 1026.82 72.45C1023.67 67.725 1019.62 64.125 1014.89 62.1ZM1108.97 6.3H1042.35C1040.1 6.3 1038.07 7.2 1036.5 9.225C1035.15 11.025 1034.47 13.05 1034.47 15.525C1034.47 18 1035.15 20.025 1036.5 21.825C1038.07 23.625 1039.87 24.525 1042.35 24.525H1067.33V114.3C1067.33 116.775 1068.01 119.025 1069.58 120.825C1071.16 122.625 1073.19 123.75 1075.66 123.75C1077.91 123.75 1080.16 122.85 1081.74 120.825C1083.31 119.025 1083.99 116.775 1083.99 114.3V24.3H1108.97C1111.22 24.3 1113.25 23.4 1114.83 21.6C1116.4 19.8 1117.08 17.775 1117.08 15.3C1117.08 12.825 1116.4 10.8 1114.83 9C1113.25 7.2 1111.22 6.3 1108.97 6.3ZM1226.92 6.3H1174.92C1172.45 6.3 1170.42 7.425 1168.84 9.225C1167.27 11.025 1166.59 13.275 1166.59 15.75V114.075C1166.59 116.55 1167.27 118.8 1168.84 120.6C1170.42 122.4 1172.45 123.525 1174.92 123.525C1177.17 123.525 1179.42 122.625 1181 120.6C1182.57 118.8 1183.25 116.55 1183.25 114.075V73.575H1222.19C1224.44 73.575 1226.47 72.675 1228.04 70.875C1229.62 69.075 1230.29 67.05 1230.29 64.575C1230.29 62.1 1229.62 60.075 1228.04 58.275C1226.47 56.475 1224.44 55.35 1222.19 55.35H1183.25V24.3H1226.92C1229.17 24.3 1231.19 23.4 1232.77 21.6C1234.34 19.8 1235.02 17.775 1235.02 15.3C1235.02 12.825 1234.34 10.8 1232.77 9C1231.19 7.2 1229.17 6.3 1226.92 6.3ZM1316.95 12.375C1309.52 7.2 1300.97 4.5 1291.06 4.5C1281.38 4.5 1272.61 7.2 1265.18 12.375C1257.75 17.55 1252.12 24.75 1248.07 33.75C1244.02 42.75 1242 53.1 1241.77 64.575C1242 76.05 1244.02 86.4 1248.07 95.4C1252.12 104.4 1257.75 111.6 1265.18 116.775C1272.61 121.95 1281.38 124.65 1291.06 124.65C1300.97 124.65 1309.52 121.95 1316.95 116.775C1324.15 111.6 1330 104.4 1334.05 95.4C1338.11 86.4 1340.13 76.05 1340.36 64.575C1340.13 53.1 1338.11 42.975 1334.05 33.975C1330 24.75 1324.15 17.55 1316.95 12.375ZM1291.06 106.2C1284.31 106.2 1278.46 104.4 1273.73 100.8C1268.78 97.2 1265.18 92.25 1262.48 85.95C1259.78 79.65 1258.43 72.45 1258.43 64.35C1258.43 56.25 1259.78 49.05 1262.48 42.75C1265.18 36.45 1268.78 31.5 1273.73 27.9C1278.46 24.3 1284.31 22.5 1291.06 22.5C1297.59 22.5 1303.44 24.3 1308.39 27.9C1313.35 31.5 1317.17 36.45 1319.65 42.75C1322.35 49.05 1323.7 56.25 1323.7 64.35C1323.7 72.45 1322.35 79.65 1319.65 85.95C1316.95 92.25 1313.35 97.2 1308.39 100.8C1303.44 104.4 1297.59 106.2 1291.06 106.2ZM1429.26 59.85C1432.41 54.225 1433.99 47.925 1433.99 41.175C1433.99 30.825 1430.61 22.275 1424.31 15.975C1417.78 9.675 1408.11 6.3 1395.5 6.3H1364.44C1361.96 6.3 1359.94 7.425 1358.36 9.225C1356.79 11.025 1356.11 13.275 1356.11 15.75V114.075C1356.11 116.55 1356.79 118.8 1358.36 120.6C1359.94 122.4 1361.96 123.525 1364.44 123.525C1366.69 123.525 1368.94 122.625 1370.52 120.6C1372.09 118.8 1372.77 116.55 1372.77 114.075V79.2H1398.2C1403.6 79.2 1407.66 80.775 1410.36 83.7C1413.06 87.075 1414.86 90.675 1415.53 94.95C1416.21 99.45 1416.66 104.175 1416.66 109.35V114.075C1416.66 116.775 1417.33 119.025 1418.91 120.825C1420.48 122.625 1422.51 123.75 1425.21 123.75C1427.46 123.75 1429.71 122.85 1431.29 120.825C1432.86 119.025 1433.54 116.775 1433.54 114.3V106.875C1433.54 99.45 1432.41 91.8 1429.94 83.925C1427.91 77.625 1424.54 72.9 1419.81 70.2C1423.64 67.5 1427.01 64.125 1429.26 59.85ZM1417.56 42.3C1417.56 48.375 1415.53 52.65 1411.71 56.025C1407.66 59.4 1402.03 60.975 1394.83 60.975H1372.77V24.525H1394.15C1402.93 24.525 1409.01 26.1 1412.61 29.025C1415.76 32.175 1417.56 36.45 1417.56 42.3ZM1546.98 6.3H1480.36C1478.11 6.3 1476.08 7.2 1474.5 9.225C1473.15 11.025 1472.48 13.05 1472.48 15.525C1472.48 18 1473.15 20.025 1474.5 21.825C1476.08 23.625 1477.88 24.525 1480.36 24.525H1505.34V114.3C1505.34 116.775 1506.02 119.025 1507.59 120.825C1509.17 122.625 1511.19 123.75 1513.67 123.75C1515.92 123.75 1518.17 122.85 1519.75 120.825C1521.32 119.025 1522 116.775 1522 114.3V24.3H1546.98C1549.23 24.3 1551.26 23.4 1552.83 21.6C1554.41 19.8 1555.08 17.775 1555.08 15.3C1555.08 12.825 1554.41 10.8 1552.83 9C1551.26 7.2 1549.46 6.3 1546.98 6.3ZM1634.31 5.4C1631.84 5.4 1629.81 6.525 1628.23 8.325C1626.66 10.125 1625.98 12.375 1625.98 14.85V55.35H1579.84V14.85C1579.84 12.375 1579.17 10.125 1577.59 8.1C1576.02 6.075 1573.76 5.175 1571.51 5.175C1569.04 5.175 1567.01 6.3 1565.44 8.1C1563.86 9.9 1563.19 12.15 1563.19 14.625V113.625C1563.19 116.1 1563.86 118.35 1565.44 120.15C1567.01 121.95 1569.04 123.075 1571.51 123.075C1573.76 123.075 1576.02 122.175 1577.59 120.15C1579.17 118.35 1579.84 116.1 1579.84 113.625V73.125H1625.98V113.625C1625.98 116.1 1626.66 118.35 1628.23 120.15C1629.81 121.95 1631.84 123.075 1634.31 123.075C1636.56 123.075 1638.81 122.175 1640.39 120.15C1641.96 118.35 1642.64 116.1 1642.64 113.625V14.625C1642.64 12.15 1641.96 9.9 1640.39 7.875C1638.59 6.525 1636.56 5.4 1634.31 5.4ZM1728.17 24.3C1730.42 24.3 1732.45 23.4 1734.02 21.6C1735.6 19.8 1736.27 17.775 1736.27 15.3C1736.27 12.825 1735.6 10.8 1734.02 9C1732.45 7.2 1730.42 6.075 1728.17 6.075H1674.6C1672.12 6.075 1670.1 7.2 1668.52 9C1666.95 10.8 1666.27 13.05 1666.27 15.525V112.95C1666.27 115.425 1666.95 117.675 1668.52 119.475C1670.1 121.275 1672.12 122.4 1674.6 122.4H1728.17C1730.42 122.4 1732.45 121.5 1734.02 119.7C1735.6 117.9 1736.27 115.875 1736.27 113.4C1736.27 110.925 1735.6 108.9 1734.02 107.1C1732.45 105.3 1730.42 104.175 1728.17 104.175H1682.93V73.575H1723.44C1725.69 73.575 1727.72 72.675 1729.3 70.875C1730.87 69.075 1731.55 67.05 1731.55 64.575C1731.55 62.1 1730.87 60.075 1729.3 58.275C1727.72 56.475 1725.69 55.35 1723.44 55.35H1682.93V24.3H1728.17ZM1901.48 5.4C1899.46 5.4 1897.66 6.075 1896.08 7.65C1894.73 9 1893.83 10.8 1893.15 12.825L1872.9 92.925L1852.41 13.275C1851.96 11.025 1850.84 9.225 1849.04 7.65C1845.66 4.725 1840.71 4.725 1837.33 7.65C1835.76 9 1834.63 11.025 1833.96 13.275L1813.48 92.925L1793.22 12.825C1792.77 10.8 1791.64 9 1790.29 7.65C1788.72 6.075 1786.92 5.4 1784.89 5.4C1782.41 5.4 1780.39 6.3 1778.81 8.325C1777.24 10.125 1776.56 12.375 1776.79 14.85C1776.79 15.75 1777.01 16.65 1777.24 18.225L1803.57 114.975C1804.47 117.675 1805.6 119.925 1807.4 121.275C1809.2 122.85 1811.22 123.75 1813.7 123.75C1815.95 123.75 1818.2 122.85 1820 121.05C1821.8 119.475 1822.93 117.225 1823.6 114.75L1842.96 41.175L1862.32 114.75C1862.99 117.225 1864.12 119.475 1865.92 121.05C1867.72 122.85 1869.97 123.75 1872.22 123.75C1874.47 123.75 1876.72 122.85 1878.52 121.275C1880.1 119.7 1881.45 117.675 1882.35 114.75L1908.68 18C1908.91 16.65 1909.13 15.525 1909.13 14.85C1909.13 12.15 1908.46 10.125 1907.11 8.325C1905.98 6.525 1903.96 5.4 1901.48 5.4ZM1932.32 5.4C1929.84 5.4 1927.82 6.525 1926.24 8.325C1924.67 10.125 1923.99 12.375 1923.99 14.85V113.85C1923.99 116.325 1924.67 118.575 1926.24 120.375C1927.82 122.175 1929.84 123.3 1932.32 123.3C1934.57 123.3 1936.82 122.4 1938.4 120.375C1939.97 118.575 1940.65 116.325 1940.65 113.85V14.85C1940.65 12.375 1939.97 10.125 1938.4 8.1C1936.59 6.525 1934.57 5.4 1932.32 5.4ZM2048.01 8.325C2046.43 6.3 2044.18 5.4 2041.93 5.4C2039.46 5.4 2037.43 6.525 2035.86 8.325C2034.28 10.125 2033.6 12.375 2033.6 14.85V93.15L1986.34 11.025C1983.86 7.2 1980.71 5.175 1977.11 5.175H1975.31C1972.16 5.175 1969.46 6.525 1967.43 9.225C1965.41 11.7 1964.28 14.625 1964.28 18V113.85C1964.28 116.325 1964.95 118.575 1966.53 120.375C1968.11 122.175 1970.13 123.3 1972.61 123.3C1974.86 123.3 1977.11 122.4 1978.68 120.375C1980.26 118.575 1980.94 116.325 1980.94 113.85V35.775L2028.65 118.35C2029.55 119.925 2030.9 121.275 2032.48 122.175C2034.05 123.3 2035.86 123.75 2037.66 123.75H2039.23C2042.38 123.75 2045.08 122.4 2047.11 119.925C2049.14 117.45 2050.26 114.525 2050.26 111.15V15.075C2050.26 12.6 2049.59 10.35 2048.01 8.325Z" fill="#FEC343"/>
<path d="M831.224 191.475H814.568C813.217 191.475 812.092 191.925 811.192 193.05C810.291 193.95 809.841 195.3 809.841 196.65C809.841 198 810.291 199.35 811.192 200.25C812.092 201.375 813.217 201.825 814.568 201.825H827.397V218.025C823.121 220.5 818.619 221.85 813.893 221.85C809.391 221.85 805.565 220.725 802.188 218.475C799.037 216.225 796.336 213.075 794.761 209.25C792.96 205.425 792.06 200.7 792.06 195.75C792.06 190.35 792.96 185.625 794.761 181.575C796.561 177.75 799.037 174.825 802.414 172.8C805.565 170.775 809.391 169.875 813.442 169.875C816.369 169.875 819.069 170.325 821.545 171.225C824.021 172.125 826.722 173.475 829.198 175.275C831.224 176.4 833.7 175.95 835.05 174.375C835.951 173.475 836.176 172.125 836.176 170.775C836.176 169.875 835.95 168.975 835.5 168.075C835.05 167.175 834.6 166.5 833.925 166.275C830.774 164.025 827.623 162.225 824.246 160.875C820.87 159.525 816.819 158.85 812.317 158.85C806.69 158.85 801.513 160.425 796.786 163.575C792.285 166.725 788.459 171 785.758 176.625C783.057 182.25 781.706 188.775 781.706 195.75C781.706 202.725 783.057 209.25 785.532 214.65C788.008 220.275 791.61 224.55 796.336 227.7C801.063 230.85 806.465 232.425 812.317 232.425C819.069 232.425 825.822 230.4 832.124 226.8C833.25 226.125 834.15 225.225 834.825 223.875C835.5 222.525 835.951 221.175 835.951 219.6V197.325C835.951 195.75 835.5 194.4 834.6 193.275C833.925 192.15 832.574 191.475 831.224 191.475ZM877.59 164.475C877.14 163.125 876.24 162 875.34 161.1C874.214 160.2 873.089 159.75 871.513 159.75H870.613C869.037 159.75 867.912 160.2 866.787 161.1C865.886 162 865.211 163.125 864.536 164.475L843.153 224.55C842.928 225.45 842.703 226.35 842.703 227.025C842.703 228.6 843.153 229.95 844.053 230.85C845.629 232.875 848.555 233.1 850.581 231.525C851.481 230.85 851.931 229.95 852.381 229.05L857.558 214.2H884.568L889.745 229.05C890.195 230.175 890.87 230.85 891.545 231.525C892.446 232.2 893.346 232.425 894.472 232.425C895.822 232.425 897.172 231.75 898.073 230.625C898.973 229.5 899.423 228.15 899.423 226.8C899.423 226.125 899.198 225.45 898.973 224.325L877.59 164.475ZM881.192 203.625H861.61L871.288 175.725L881.192 203.625ZM970.324 159.525H967.623C966.272 159.525 964.922 159.975 963.796 161.1C962.671 162 961.996 163.125 961.321 164.475L943.314 217.8L925.308 164.475C924.857 163.125 923.957 162 922.832 161.1C921.706 160.2 920.356 159.525 919.005 159.525H916.304C914.504 159.525 912.928 160.425 911.578 161.775C910.452 163.35 909.777 165.15 909.777 167.175V226.8C909.777 228.375 910.227 229.725 911.127 230.625C912.028 231.75 913.378 232.425 914.729 232.425C916.079 232.425 917.43 231.75 918.33 230.85C919.23 229.725 919.681 228.375 919.681 227.025V177.075L937.012 227.475C937.462 229.05 938.362 230.175 939.488 231.075C941.738 232.875 944.89 232.875 947.365 231.075C948.491 230.175 949.391 229.05 949.841 227.475L967.173 177.075V226.8C967.173 228.375 967.623 229.725 968.523 230.625C969.423 231.75 970.774 232.2 972.124 232.2C973.475 232.2 974.825 231.525 975.726 230.4C976.626 229.275 977.076 227.925 977.076 226.575V167.4C977.076 165.375 976.401 163.575 975.275 162C973.7 160.425 972.124 159.525 970.324 159.525ZM1029.52 170.775C1030.87 170.775 1032 170.325 1032.9 169.2C1033.8 168.3 1034.25 166.95 1034.25 165.375C1034.25 163.8 1033.8 162.675 1032.9 161.55C1032 160.425 1030.87 159.975 1029.52 159.975H995.758C994.407 159.975 993.057 160.65 992.157 161.775C991.256 162.9 990.806 164.25 990.806 165.825V226.35C990.806 227.925 991.256 229.275 992.157 230.175C993.057 231.3 994.407 231.975 995.758 231.975H1029.52C1030.87 231.975 1032 231.525 1032.9 230.4C1033.8 229.5 1034.25 228.15 1034.25 226.575C1034.25 225 1033.8 223.875 1032.9 222.75C1032 221.625 1030.87 221.175 1029.52 221.175H1000.71V201.375H1026.37C1027.72 201.375 1028.84 200.925 1029.75 199.8C1030.65 198.9 1031.1 197.55 1031.1 195.975C1031.1 194.625 1030.65 193.275 1029.75 192.15C1028.84 191.025 1027.72 190.575 1026.37 190.575H1000.71V170.775H1029.52ZM1105.15 165.375C1100.42 161.775 1094.79 160.2 1088.27 160.2H1071.38C1070.03 160.2 1068.68 160.875 1067.78 162C1066.88 163.125 1066.43 164.475 1066.43 166.05V226.575C1066.43 228.15 1066.88 229.5 1067.78 230.4C1068.68 231.525 1070.03 232.2 1071.38 232.2H1088.27C1094.79 232.2 1100.65 230.4 1105.15 227.025C1109.65 223.65 1113.25 218.925 1115.5 213.525C1117.75 208.125 1118.88 202.275 1118.88 196.425C1118.88 190.35 1117.75 184.725 1115.5 179.325C1113.25 173.475 1109.87 168.75 1105.15 165.375ZM1109.2 195.975C1109.2 200.925 1108.3 205.425 1106.5 209.25C1104.7 213.075 1102.22 216 1098.84 218.025C1095.47 220.05 1091.64 221.175 1087.37 221.175H1076.34V170.775H1087.37C1091.64 170.775 1095.69 171.9 1098.84 173.925C1102.22 175.95 1104.7 179.1 1106.5 182.7C1108.3 186.525 1109.2 191.025 1109.2 195.975ZM1170.42 170.775C1171.77 170.775 1172.9 170.325 1173.8 169.2C1174.7 168.3 1175.15 166.95 1175.15 165.375C1175.15 163.8 1174.7 162.675 1173.8 161.55C1172.9 160.425 1171.77 159.975 1170.42 159.975H1136.66C1135.31 159.975 1133.96 160.65 1133.06 161.775C1132.16 162.9 1131.71 164.25 1131.71 165.825V226.35C1131.71 227.925 1132.16 229.275 1133.06 230.175C1133.96 231.3 1135.31 231.975 1136.66 231.975H1170.42C1171.77 231.975 1172.9 231.525 1173.8 230.4C1174.7 229.5 1175.15 228.15 1175.15 226.575C1175.15 225 1174.7 223.875 1173.8 222.75C1172.9 221.625 1171.77 221.175 1170.42 221.175H1141.61V201.375H1167.27C1168.62 201.375 1169.75 200.925 1170.65 199.8C1171.55 198.9 1172 197.55 1172 195.975C1172 194.625 1171.55 193.275 1170.65 192.15C1169.75 191.025 1168.62 190.575 1167.27 190.575H1141.61V170.775H1170.42ZM1228.72 159.525C1227.59 159.525 1226.69 159.975 1225.79 160.65C1225.12 161.325 1224.44 162.225 1223.99 163.35L1205.31 218.7L1186.63 163.35C1186.18 162.225 1185.73 161.325 1184.83 160.65C1183.93 159.975 1183.03 159.525 1181.9 159.525C1180.32 159.525 1179.2 160.2 1178.3 161.1C1177.4 162.225 1176.95 163.575 1176.95 165.15C1176.95 165.825 1176.95 166.5 1177.17 167.175L1197.88 226.8C1199.23 230.4 1201.26 232.2 1204.18 232.2H1205.98C1208.68 232.2 1210.94 230.4 1212.29 226.8L1232.99 166.95C1233.22 166.275 1233.22 165.6 1233.22 164.925C1233.22 163.35 1232.77 162 1231.87 160.875C1231.64 160.2 1230.29 159.525 1228.72 159.525ZM1280.26 170.775C1281.61 170.775 1282.74 170.325 1283.64 169.2C1284.54 168.3 1284.99 166.95 1284.99 165.375C1284.99 163.8 1284.54 162.675 1283.64 161.55C1282.74 160.425 1281.61 159.975 1280.26 159.975H1246.5C1245.15 159.975 1243.8 160.65 1242.9 161.775C1242 162.9 1241.55 164.25 1241.55 165.825V226.35C1241.55 227.925 1242 229.275 1242.9 230.175C1243.8 231.3 1245.15 231.975 1246.5 231.975H1280.26C1281.61 231.975 1282.74 231.525 1283.64 230.4C1284.54 229.5 1284.99 228.15 1284.99 226.575C1284.99 225 1284.54 223.875 1283.64 222.75C1282.74 221.625 1281.61 221.175 1280.26 221.175H1251.45V201.375H1277.11C1278.46 201.375 1279.58 200.925 1280.48 199.8C1281.39 198.9 1281.84 197.55 1281.84 195.975C1281.84 194.625 1281.39 193.275 1280.48 192.15C1279.58 191.025 1278.46 190.575 1277.11 190.575H1251.45V170.775H1280.26ZM1331.58 220.725H1305.24V165.375C1305.24 163.8 1304.79 162.45 1303.89 161.325C1302.99 160.2 1301.64 159.525 1300.29 159.525C1298.94 159.525 1297.59 160.2 1296.69 161.325C1295.79 162.45 1295.34 163.8 1295.34 165.375V224.55C1295.34 226.575 1296.02 228.375 1297.14 229.725C1298.49 231.3 1299.84 231.975 1301.64 231.975H1331.58C1332.93 231.975 1334.28 231.3 1335.18 230.4C1336.08 229.275 1336.53 227.925 1336.53 226.575C1336.53 225 1336.08 223.65 1335.18 222.525C1334.28 221.175 1332.93 220.725 1331.58 220.725ZM1384.7 163.8C1380.2 160.65 1374.79 159.075 1368.72 159.075C1362.64 159.075 1357.24 160.65 1352.51 163.8C1348.01 166.95 1344.41 171.45 1341.93 176.85C1339.46 182.25 1338.11 188.775 1338.11 195.975C1338.33 203.175 1339.46 209.475 1341.93 214.875C1344.41 220.5 1348.01 224.775 1352.51 227.925C1357.01 231.075 1362.64 232.65 1368.72 232.65C1374.79 232.65 1380.2 231.075 1384.7 227.925C1389.2 224.775 1392.8 220.275 1395.28 214.65C1397.75 209.025 1399.1 202.725 1399.1 195.75C1398.88 188.775 1397.75 182.25 1395.28 176.85C1392.8 171.45 1389.2 167.175 1384.7 163.8ZM1368.49 222.3C1364.21 222.3 1360.39 221.175 1357.46 218.925C1354.31 216.675 1352.06 213.525 1350.26 209.7C1348.68 205.65 1347.78 201.15 1347.78 196.2C1347.78 191.25 1348.68 186.75 1350.26 182.7C1351.84 178.875 1354.31 175.725 1357.46 173.475C1360.61 171.225 1364.21 170.1 1368.49 170.1C1372.77 170.1 1376.37 171.225 1379.52 173.475C1382.67 175.725 1385.15 178.875 1386.72 182.7C1388.3 186.75 1389.2 191.25 1389.2 196.2C1389.2 201.15 1388.3 205.65 1386.72 209.7C1385.15 213.525 1382.67 216.675 1379.52 218.925C1376.59 221.175 1372.77 222.3 1368.49 222.3ZM1447.49 163.575C1443.89 161.325 1439.39 160.2 1433.76 160.2H1414.63C1413.28 160.2 1411.93 160.875 1411.03 162C1410.13 163.125 1409.68 164.475 1409.68 166.05V227.025C1409.68 228.6 1410.13 229.95 1411.03 230.85C1411.93 231.975 1413.28 232.65 1414.63 232.65C1415.98 232.65 1417.33 231.975 1418.23 231.075C1419.13 229.95 1419.58 228.6 1419.58 227.25V207H1433.76C1439.39 207 1443.89 205.875 1447.49 203.625C1451.1 201.375 1453.57 198.45 1455.15 194.85C1456.72 191.475 1457.4 187.65 1457.4 183.6C1457.4 179.55 1456.72 175.725 1455.15 172.35C1453.57 168.525 1451.1 165.825 1447.49 163.575ZM1447.49 183.375C1447.49 186.975 1446.37 189.9 1444.34 192.375C1442.32 194.625 1438.49 195.975 1433.09 195.975H1419.58V171H1433.09C1438.49 171 1442.32 172.125 1444.34 174.6C1446.37 176.85 1447.49 179.775 1447.49 183.375ZM1526.95 159.525H1524.25C1522.9 159.525 1521.55 159.975 1520.42 161.1C1519.3 162 1518.62 163.125 1517.95 164.475L1499.94 217.8L1481.93 164.475C1481.48 163.125 1480.58 162 1479.46 161.1C1478.33 160.2 1476.98 159.525 1475.63 159.525H1472.93C1471.13 159.525 1469.55 160.425 1468.2 161.775C1467.08 163.35 1466.4 165.15 1466.4 167.175V226.8C1466.4 228.375 1466.85 229.725 1467.75 230.625C1468.65 231.75 1470 232.425 1471.35 232.425C1472.7 232.425 1474.05 231.75 1474.95 230.85C1475.86 229.725 1476.31 228.375 1476.31 227.025V177.075L1493.64 227.475C1494.09 229.05 1494.99 230.175 1496.11 231.075C1498.36 232.875 1501.51 232.875 1503.99 231.075C1505.12 230.175 1506.02 229.05 1506.47 227.475L1523.8 177.075V226.8C1523.8 228.375 1524.25 229.725 1525.15 230.625C1526.05 231.75 1527.4 232.2 1528.75 232.2C1530.1 232.2 1531.45 231.525 1532.35 230.4C1533.25 229.275 1533.7 227.925 1533.7 226.575V167.4C1533.7 165.375 1533.03 163.575 1531.9 162C1530.32 160.425 1528.75 159.525 1526.95 159.525ZM1586.14 170.775C1587.5 170.775 1588.62 170.325 1589.52 169.2C1590.42 168.3 1590.87 166.95 1590.87 165.375C1590.87 163.8 1590.42 162.675 1589.52 161.55C1588.62 160.425 1587.5 159.975 1586.14 159.975H1552.38C1551.03 159.975 1549.68 160.65 1548.78 161.775C1547.88 162.9 1547.43 164.25 1547.43 165.825V226.35C1547.43 227.925 1547.88 229.275 1548.78 230.175C1549.68 231.3 1551.03 231.975 1552.38 231.975H1586.14C1587.5 231.975 1588.62 231.525 1589.52 230.4C1590.42 229.5 1590.87 228.15 1590.87 226.575C1590.87 225 1590.42 223.875 1589.52 222.75C1588.62 221.625 1587.5 221.175 1586.14 221.175H1557.33V201.375H1583.22C1584.57 201.375 1585.69 200.925 1586.59 199.8C1587.5 198.9 1587.95 197.55 1587.95 195.975C1587.95 194.625 1587.5 193.275 1586.59 192.15C1585.69 191.025 1584.57 190.575 1583.22 190.575H1557.56V170.775H1586.14ZM1647.37 159.525C1646.02 159.525 1644.67 160.2 1643.77 161.325C1642.86 162.45 1642.41 163.8 1642.41 165.375V215.1L1612.03 163.125C1610.45 160.875 1608.65 159.525 1606.4 159.525H1605.28C1603.48 159.525 1601.9 160.425 1600.55 161.775C1599.42 163.35 1598.75 165.15 1598.75 167.175V226.8C1598.75 228.375 1599.2 229.725 1600.1 230.625C1601 231.75 1602.35 232.425 1603.7 232.425C1605.05 232.425 1606.4 231.75 1607.3 230.85C1608.2 229.725 1608.65 228.375 1608.65 227.025V177.075L1639.04 229.275C1639.71 230.175 1640.39 231.075 1641.29 231.525C1642.19 232.2 1643.32 232.425 1644.44 232.425H1645.34C1647.14 232.425 1648.72 231.75 1650.07 230.175C1651.42 228.6 1652.09 227.025 1652.09 224.775V165.375C1652.09 163.8 1651.64 162.45 1650.74 161.325C1650.07 160.2 1648.72 159.525 1647.37 159.525ZM1703.64 160.2H1661.77C1660.42 160.2 1659.3 160.875 1658.4 161.775C1657.5 162.9 1657.04 164.025 1657.04 165.6C1657.04 167.175 1657.5 168.3 1658.4 169.425C1659.3 170.55 1660.42 171 1661.77 171H1677.75V227.025C1677.75 228.6 1678.2 229.95 1679.1 230.85C1680 231.975 1681.35 232.65 1682.7 232.65C1684.05 232.65 1685.41 231.975 1686.31 231.075C1687.21 229.95 1687.66 228.6 1687.66 227.25V170.775H1703.64C1704.99 170.775 1706.11 170.325 1707.01 169.2C1707.91 168.3 1708.36 166.95 1708.36 165.375C1708.36 163.8 1707.91 162.675 1707.01 161.55C1706.11 160.65 1704.99 160.2 1703.64 160.2ZM1773.41 194.625C1770.71 193.275 1766.88 192.15 1762.61 190.8C1759.23 189.9 1756.53 189 1754.73 188.1C1752.93 187.425 1751.35 186.3 1750.23 184.95C1749.1 183.6 1748.43 182.025 1748.43 179.775C1748.43 176.625 1749.55 174.15 1752.03 172.35C1754.5 170.55 1758.11 169.65 1762.16 169.65C1766.66 169.65 1771.16 170.55 1775.21 172.125C1775.89 172.575 1776.56 172.575 1777.01 172.575C1778.36 172.575 1779.49 171.9 1780.39 170.775C1781.06 169.65 1781.51 168.525 1781.51 167.175C1781.51 164.025 1779.94 162.675 1778.59 162.225C1773.41 159.975 1767.78 158.85 1761.48 158.85C1756.76 158.85 1752.48 159.75 1749.1 161.775C1745.73 163.8 1743.03 166.275 1741.23 169.65C1739.42 172.8 1738.52 176.625 1738.52 180.45C1738.52 184.95 1739.65 188.775 1741.9 191.475C1743.93 194.175 1746.63 196.2 1749.55 197.55C1752.48 198.9 1756.08 200.25 1760.81 201.6C1764.18 202.725 1766.88 203.625 1768.69 204.3C1770.49 204.975 1771.84 205.875 1772.96 207.225C1774.09 208.35 1774.54 209.7 1774.54 211.5C1774.54 218.475 1770.04 221.85 1761.03 221.85C1755.41 221.85 1750 220.5 1745.05 217.8C1743.25 216.9 1740.78 217.35 1739.65 218.925C1738.75 220.05 1738.52 221.175 1738.52 222.525C1738.52 223.65 1738.75 224.55 1739.42 225.45C1739.87 226.35 1740.78 227.025 1741.68 227.475C1747.98 230.625 1754.96 232.425 1762.16 232.425C1766.66 232.425 1770.49 231.525 1773.86 229.725C1777.24 227.925 1779.94 225.45 1781.96 222.3C1783.77 219.15 1784.89 215.55 1784.89 211.725C1784.89 207 1783.77 203.175 1781.74 200.25C1778.81 198.225 1776.34 195.975 1773.41 194.625ZM1829.91 160.2H1788.04C1786.69 160.2 1785.57 160.875 1784.67 161.775C1783.77 162.9 1783.32 164.025 1783.32 165.6C1783.32 167.175 1783.77 168.3 1784.67 169.425C1785.57 170.55 1786.69 171 1788.04 171H1804.02V227.025C1804.02 228.6 1804.47 229.95 1805.37 230.85C1806.27 231.975 1807.62 232.65 1808.97 232.65C1810.32 232.65 1811.68 231.975 1812.58 231.075C1813.48 229.95 1813.93 228.6 1813.93 227.25V170.775H1829.91C1831.26 170.775 1832.38 170.325 1833.28 169.2C1834.18 168.3 1834.63 166.95 1834.63 165.375C1834.63 163.8 1834.18 162.675 1833.28 161.55C1832.38 160.65 1831.26 160.2 1829.91 160.2ZM1886.85 159.525C1885.5 159.525 1884.15 160.2 1883.25 161.325C1882.35 162.45 1881.9 163.8 1881.9 165.375V204.975C1881.9 208.8 1881.23 211.95 1879.65 214.65C1878.3 217.35 1876.27 219.15 1874.02 220.5C1869.3 223.2 1863.67 223.2 1858.94 220.5C1856.69 219.15 1854.67 217.35 1853.32 214.65C1851.96 211.95 1851.06 208.8 1851.06 204.975V165.375C1851.06 163.8 1850.61 162.45 1849.71 161.325C1848.81 160.2 1847.46 159.525 1846.11 159.525C1844.76 159.525 1843.41 160.2 1842.51 161.325C1841.61 162.45 1841.16 163.8 1841.16 165.375V204.75C1841.16 210.825 1842.51 216 1844.76 220.275C1847.24 224.55 1850.39 227.7 1854.22 229.725C1858.04 231.75 1862.09 232.875 1866.37 232.875C1870.42 232.875 1874.47 231.75 1878.52 229.725C1882.35 227.7 1885.5 224.325 1887.98 220.275C1890.45 216 1891.58 210.825 1891.58 204.75V165.375C1891.58 163.8 1891.13 162.45 1890.23 161.325C1889.33 160.2 1888.2 159.525 1886.85 159.525ZM1942 165.375C1937.27 161.775 1931.64 160.2 1925.12 160.2H1908.24C1906.88 160.2 1905.53 160.875 1904.63 162C1903.73 163.125 1903.28 164.475 1903.28 166.05V226.575C1903.28 228.15 1903.73 229.5 1904.63 230.4C1905.53 231.525 1906.88 232.2 1908.24 232.2H1925.12C1931.64 232.2 1937.5 230.4 1942 227.025C1946.5 223.65 1950.1 218.925 1952.35 213.525C1954.6 208.125 1955.73 202.275 1955.73 196.425C1955.73 190.35 1954.6 184.725 1952.35 179.325C1950.1 173.475 1946.5 168.75 1942 165.375ZM1946.05 195.975C1946.05 200.925 1945.15 205.425 1943.35 209.25C1941.55 213.075 1939.07 216 1935.69 218.025C1932.32 220.05 1928.49 221.175 1924.22 221.175H1913.19V170.775H1924.22C1928.49 170.775 1932.54 171.9 1935.69 173.925C1939.07 175.95 1941.55 179.1 1943.35 182.7C1945.15 186.525 1946.05 191.025 1946.05 195.975ZM1973.51 159.525C1972.16 159.525 1970.81 160.2 1969.91 161.325C1969.01 162.45 1968.56 163.8 1968.56 165.375V226.8C1968.56 228.375 1969.01 229.725 1969.91 230.625C1970.81 231.75 1972.16 232.425 1973.51 232.425C1974.86 232.425 1976.21 231.75 1977.11 230.85C1978.01 229.725 1978.46 228.375 1978.46 227.025V165.375C1978.46 163.8 1978.01 162.45 1977.11 161.325C1976.21 160.2 1974.86 159.525 1973.51 159.525ZM2046.43 177.075C2043.96 171.45 2040.36 167.175 2035.86 163.8C2031.35 160.65 2025.95 159.075 2019.88 159.075C2013.8 159.075 2008.4 160.65 2003.67 163.8C1999.17 166.95 1995.57 171.45 1993.09 176.85C1990.61 182.25 1989.26 188.775 1989.26 195.975C1989.49 203.175 1990.61 209.475 1993.09 214.875C1995.57 220.5 1999.17 224.775 2003.67 227.925C2008.17 231.075 2013.8 232.65 2019.88 232.65C2025.95 232.65 2031.35 231.075 2035.86 227.925C2040.36 224.775 2043.96 220.275 2046.43 214.65C2048.91 209.025 2050.26 202.725 2050.26 195.75C2050.26 189 2048.91 182.7 2046.43 177.075ZM2019.65 222.3C2015.37 222.3 2011.55 221.175 2008.62 218.925C2005.47 216.675 2003.22 213.525 2001.42 209.7C1999.84 205.65 1998.94 201.15 1998.94 196.2C1998.94 191.25 1999.84 186.75 2001.42 182.7C2002.99 178.875 2005.47 175.725 2008.62 173.475C2011.77 171.225 2015.37 170.1 2019.65 170.1C2023.93 170.1 2027.53 171.225 2030.68 173.475C2033.83 175.725 2036.31 178.875 2037.88 182.7C2039.46 186.75 2040.36 191.25 2040.36 196.2C2040.36 201.15 2039.46 205.65 2037.88 209.7C2036.31 213.525 2033.83 216.675 2030.68 218.925C2027.53 221.175 2023.93 222.3 2019.65 222.3Z" fill="white"/>
<defs>
<linearGradient id="paint0_linear_2_2693" x1="55.5814" y1="8.56575" x2="91.0339" y2="227.684" gradientUnits="userSpaceOnUse">
<stop offset="0.003" stop-color="#1F8FDD"/>
<stop offset="1" stop-color="#015AB6"/>
</linearGradient>
<linearGradient id="paint1_linear_2_2693" x1="512.919" y1="88.9537" x2="747.724" y2="143.369" gradientUnits="userSpaceOnUse">
<stop offset="0.003" stop-color="#E01801"/>
<stop offset="1" stop-color="#B61400"/>
</linearGradient>
</defs>
</svg>
