<svg width="201" height="52" viewBox="0 0 2013 527" fill="none" xmlns="http://www.w3.org/2000/svg">
<path opacity="0.992" fill-rule="evenodd" clip-rule="evenodd" d="M524.189 23.8419C519.497 28.4921 514.013 28.4921 507.735 23.8419C502.477 24.2975 497.385 24.2975 492.456 23.8419C491.673 25.4091 490.888 26.9761 490.105 28.5433C488.486 26.5295 486.528 24.9625 484.229 23.8419C481.361 26.6888 478.618 26.6888 476.001 23.8419C472.925 29.4629 470.574 29.4629 468.95 23.8419C466.599 25.4091 464.248 26.9761 461.898 28.5433C453.278 25.4091 444.661 25.4091 436.041 28.5433C431.603 22.8492 426.902 22.8492 421.937 28.5433C421.154 26.9761 420.369 25.4091 419.587 23.8419C407.07 23.8803 394.531 23.8803 381.977 23.8419C376.493 25.4091 371.006 26.9761 365.522 28.5433C362.389 25.4091 359.253 25.4091 356.12 28.5433C354.552 26.9761 352.987 25.4091 351.419 23.8419C345.775 26.112 339.508 26.112 332.614 23.8419C329.13 29.2041 325.212 29.2041 320.861 23.8419C315.076 25.53 309.199 27.0969 303.231 28.5433C300.932 27.4227 298.974 25.8558 297.354 23.8419C295.735 25.8558 293.777 27.4227 291.478 28.5433C287.853 25.6125 284.327 25.6125 280.9 28.5433C278.364 24.0918 275.228 23.3083 271.498 26.1926C270.407 24.7954 270.014 23.2282 270.322 21.4913C309.39 5.37472 350.133 -1.67734 392.554 0.335086C438.168 -1.19709 482.045 6.63845 524.189 23.8419Z" fill="#FFDB1E"/>
<path opacity="0.996" fill-rule="evenodd" clip-rule="evenodd" d="M270.321 21.4912C270.013 23.2281 270.405 24.7953 271.496 26.1926C275.227 23.3083 278.362 24.0918 280.899 28.5433C284.326 25.6124 287.852 25.6124 291.476 28.5433C293.775 27.4227 295.733 25.8557 297.353 23.8419C298.973 25.8557 300.931 27.4227 303.229 28.5433C309.198 27.0969 315.074 25.5299 320.859 23.8419C325.21 29.204 329.129 29.204 332.612 23.8419C339.507 26.112 345.773 26.112 351.417 23.8419C352.985 25.4091 354.551 26.9761 356.118 28.5433C359.252 25.4091 362.388 25.4091 365.521 28.5433C371.005 26.9761 376.491 25.4091 381.975 23.8419C394.53 23.8802 407.068 23.8802 419.585 23.8419C420.368 25.4091 421.153 26.9761 421.936 28.5433C426.9 22.8492 431.602 22.8492 436.04 28.5433C444.659 25.4091 453.277 25.4091 461.896 28.5433C464.247 26.9761 466.598 25.4091 468.948 23.8419C470.572 29.4629 472.923 29.4629 476 23.8419C478.616 26.6888 481.359 26.6888 484.227 23.8419C486.526 24.9625 488.484 26.5294 490.104 28.5433C490.887 26.9761 491.672 25.4091 492.454 23.8419C497.384 24.2975 502.475 24.2975 507.733 23.8419C514.012 28.492 519.496 28.492 524.188 23.8419C532.022 27.7598 539.859 31.6774 547.694 35.5953C547.01 38.2965 545.052 39.8637 541.817 40.2967C497.997 40.2882 452.945 39.5047 406.657 37.946C404.781 39.02 403.998 40.5872 404.306 42.6474C397.254 42.6474 390.202 42.6474 383.151 42.6474C376.169 41.0849 369.117 39.5177 361.995 37.946C324.705 39.0649 286.31 39.8484 246.815 40.2967C243.681 39.9048 240.545 39.5132 237.412 39.1213C240.364 38.1413 241.932 36.1825 242.113 33.2446C251.504 29.3298 260.907 25.4119 270.321 21.4912Z" fill="#FFD620"/>
<path opacity="0.99" fill-rule="evenodd" clip-rule="evenodd" d="M547.695 35.5952C560.064 41.7124 571.817 48.7645 582.954 56.7514C580.272 58.7236 577.139 60.2908 573.552 61.4527C564.152 59.8957 555.142 59.8957 546.52 61.4527C541.638 60.237 536.936 58.6698 532.416 56.7514C528.498 63.0199 524.582 63.0199 520.663 56.7514C516.745 58.3186 512.828 59.8855 508.91 61.4527C507.342 59.8855 505.777 58.3186 504.209 56.7514C497.94 59.8855 491.673 59.8855 485.404 56.7514C482.27 63.0199 479.135 63.0199 476.001 56.7514C473.651 58.3186 471.3 59.8855 468.949 61.4527C463.115 61.1023 457.239 61.1023 451.32 61.4527C436.462 52.4322 420.792 46.1637 404.307 42.6473C403.999 40.5871 404.782 39.0199 406.658 37.9459C452.946 39.5046 497.998 40.2881 541.819 40.2966C545.053 39.8636 547.011 38.2964 547.695 35.5952Z" fill="#FFD123"/>
<path opacity="0.997" fill-rule="evenodd" clip-rule="evenodd" d="M242.115 33.2446C241.934 36.1825 240.366 38.1413 237.414 39.1213C240.547 39.5132 243.683 39.9048 246.816 40.2967C286.311 39.8484 324.706 39.0649 361.996 37.946C369.119 39.5177 376.171 41.0849 383.152 42.6474C367.565 45.7587 352.679 51.2436 338.49 59.1022C335.129 58.916 331.993 59.6997 329.088 61.4528C326.697 55.5103 323.954 55.5103 320.861 61.4528C317.727 61.4528 314.591 61.4528 311.458 61.4528C304.406 59.8856 297.354 58.3187 290.302 56.7515C288.735 58.3187 287.169 59.8856 285.601 61.4528C282.174 58.522 278.648 58.522 275.023 61.4528C267.125 56.7014 259.683 56.7014 252.693 61.4528C246.736 59.0556 240.077 59.0556 232.712 61.4528C225.966 59.9907 219.304 58.4235 212.732 56.7515C209.298 60.0013 207.34 59.2178 206.855 54.4008C218.218 46.7573 229.971 39.7053 242.115 33.2446Z" fill="#FFD123"/>
<path opacity="0.997" fill-rule="evenodd" clip-rule="evenodd" d="M206.855 54.4009C207.339 59.2179 209.297 60.0014 212.731 56.7516C219.304 58.4236 225.965 59.9908 232.712 61.4529C240.076 59.0557 246.736 59.0557 252.692 61.4529C259.683 56.7015 267.125 56.7015 275.023 61.4529C278.648 58.5221 282.174 58.5221 285.601 61.4529C287.169 59.8857 288.734 58.3188 290.302 56.7516C297.354 58.3188 304.406 59.8857 311.458 61.4529C314.591 61.4529 317.727 61.4529 320.86 61.4529C323.953 55.5104 326.697 55.5104 329.087 61.4529C331.993 59.6998 335.128 58.9161 338.49 59.1022C329.148 67.655 319.746 76.2742 310.282 84.9598C307.043 83.2334 303.517 81.6662 299.704 80.2584C286.148 81.3569 272.83 81.3569 259.744 80.2584C255.393 85.6206 251.474 85.6206 247.991 80.2584C223.476 82.7224 199.58 82.7224 176.297 80.2584C185.734 70.8261 195.92 62.2068 206.855 54.4009Z" fill="#FFCB25"/>
<path opacity="0.995" fill-rule="evenodd" clip-rule="evenodd" d="M582.953 56.7515C593.101 63.7715 602.503 71.6071 611.161 80.2583C565.051 80.9226 518.821 80.9226 472.474 80.2583C465.361 73.9223 458.309 67.6537 451.318 61.4528C457.237 61.1023 463.114 61.1023 468.948 61.4528C471.299 59.8856 473.649 58.3187 476 56.7515C479.133 63.02 482.269 63.02 485.402 56.7515C491.671 59.8856 497.938 59.8856 504.207 56.7515C505.775 58.3187 507.341 59.8856 508.909 61.4528C512.827 59.8856 516.743 58.3187 520.662 56.7515C524.58 63.02 528.496 63.02 532.415 56.7515C536.935 58.6699 541.636 60.2371 546.518 61.4528C555.141 59.8957 564.15 59.8957 573.551 61.4528C577.138 60.2909 580.271 58.7237 582.953 56.7515Z" fill="#FFCA26"/>
<path opacity="0.991" fill-rule="evenodd" clip-rule="evenodd" d="M176.296 80.2583C199.579 82.7223 223.476 82.7223 247.99 80.2583C251.474 85.6204 255.392 85.6204 259.743 80.2583C272.829 81.3568 286.148 81.3568 299.704 80.2583C303.516 81.6661 307.042 83.2333 310.282 84.9597C304.767 92.8838 299.283 100.719 293.827 108.467C294.029 106.125 293.244 104.167 291.477 102.59C284.187 99.4563 276.745 99.8489 269.146 103.765C261.311 100.632 253.474 100.632 245.64 103.765C239.37 102.197 233.104 100.632 226.835 99.0638C222.77 103.61 218.069 103.61 212.731 99.0638C209.597 100.632 206.462 102.197 203.328 103.765C199.01 103.377 194.309 101.809 189.225 99.0638C187.605 101.078 185.646 102.644 183.348 103.765C174.469 101.986 165.067 101.203 155.141 101.414C161.409 93.5796 168.461 86.5269 176.296 80.2583Z" fill="#FFC429"/>
<path opacity="0.99" fill-rule="evenodd" clip-rule="evenodd" d="M472.475 80.2583C518.822 80.9226 565.051 80.9226 611.161 80.2583C618.996 86.5269 626.048 93.5796 632.317 101.414C626.678 101.266 620.801 102.049 614.687 103.765C609.986 102.197 605.285 100.632 600.583 99.0638C595.882 100.632 591.181 102.197 586.48 103.765C581.268 102.738 575.782 102.738 570.025 103.765C569.301 101.866 568.126 100.298 566.499 99.0638C561.307 100.488 556.213 102.056 551.22 103.765C531.475 101.313 511.495 101.313 491.28 103.765C484.19 96.6661 477.921 88.8298 472.475 80.2583Z" fill="#FFC429"/>
<path fill-rule="evenodd" clip-rule="evenodd" d="M293.828 108.467C292.394 113.013 290.044 116.932 286.777 120.22C281.088 119.731 275.604 120.516 270.322 122.571C265.875 116.591 261.566 116.591 257.394 122.571C249.679 119.856 242.237 118.29 235.063 117.869C228.439 123.777 221.78 123.777 215.083 117.869C209.744 122.416 205.043 122.416 200.979 117.869C196.628 123.231 192.709 123.231 189.226 117.869C181.692 120.801 174.249 120.801 166.895 117.869C164.597 118.991 162.638 120.556 161.018 122.571C160.235 121.003 159.451 119.437 158.668 117.869C156.317 121.003 153.966 121.003 151.616 117.869C147.536 123.897 144.794 123.114 143.389 115.519C146.211 109.856 150.129 105.155 155.142 101.415C165.068 101.203 174.47 101.986 183.349 103.765C185.647 102.644 187.606 101.079 189.226 99.064C194.31 101.81 199.011 103.377 203.329 103.765C206.463 102.197 209.599 100.632 212.732 99.064C218.07 103.61 222.771 103.61 226.836 99.064C233.105 100.632 239.372 102.197 245.641 103.765C253.475 100.632 261.312 100.632 269.147 103.765C276.746 99.8491 284.188 99.4565 291.478 102.59C293.245 104.167 294.031 106.125 293.828 108.467Z" fill="#FFBD2B"/>
<path opacity="0.999" fill-rule="evenodd" clip-rule="evenodd" d="M632.316 101.415C637.33 105.155 641.247 109.856 644.07 115.519C646.864 123.72 644.904 124.503 638.193 117.869C627.683 118.194 616.321 118.194 604.109 117.869C599.584 123.683 595.275 123.683 591.181 117.869C589.613 121.003 588.047 121.003 586.479 117.869C584.855 123.49 582.505 123.49 579.428 117.869C577.077 121.003 574.726 121.003 572.376 117.869C568.681 122.78 564.372 122.78 559.447 117.869C557.097 121.003 554.746 121.003 552.395 117.869C549.948 123.725 547.99 123.725 546.519 117.869C544.951 124.139 543.385 124.139 541.818 117.869C534.43 120.093 527.378 120.093 520.662 117.869C515.34 122.376 509.464 122.376 503.032 117.869C501.606 118.161 500.823 118.944 500.682 120.22C495.774 115.904 492.64 110.42 491.279 103.765C511.495 101.314 531.475 101.314 551.22 103.765C556.213 102.056 561.307 100.488 566.499 99.064C568.126 100.298 569.301 101.866 570.025 103.765C575.782 102.738 581.268 102.738 586.479 103.765C591.181 102.197 595.882 100.632 600.583 99.064C605.284 100.632 609.986 102.197 614.687 103.765C620.801 102.049 626.677 101.267 632.316 101.415Z" fill="#FFBD2B"/>
<path opacity="0.997" fill-rule="evenodd" clip-rule="evenodd" d="M143.388 115.519C144.793 123.114 147.535 123.896 151.615 117.869C153.966 121.003 156.316 121.003 158.667 117.869C159.45 119.437 160.234 121.003 161.018 122.571C162.637 120.556 164.596 118.991 166.894 117.869C174.248 120.801 181.692 120.801 189.225 117.869C192.709 123.231 196.627 123.231 200.978 117.869C205.042 122.415 209.744 122.415 215.082 117.869C221.779 123.777 228.438 123.777 235.062 117.869C242.236 118.29 249.678 119.856 257.393 122.571C261.565 116.59 265.874 116.59 270.321 122.571C275.603 120.516 281.087 119.731 286.776 120.22C285.619 125.671 283.269 130.373 279.724 134.324C265.992 135.767 253.063 136.55 240.939 136.675C238.717 135.723 237.149 134.155 236.237 131.973C233.377 134.056 230.241 136.407 226.835 139.025C222.916 136.675 219 134.324 215.082 131.973C211.948 133.541 208.813 135.107 205.679 136.675C204.112 130.405 202.546 130.405 200.978 136.675C197.06 135.107 193.144 133.541 189.225 131.973C183.561 133.172 177.292 133.172 170.42 131.973C169.637 133.541 168.853 135.107 168.069 136.675C155.35 136.308 141.638 136.308 126.934 136.675C131.593 128.894 137.077 121.842 143.388 115.519Z" fill="#FFB82D"/>
<path fill-rule="evenodd" clip-rule="evenodd" d="M644.069 115.519C648.822 120.293 652.741 125.779 655.823 131.973C651.5 135.781 646.799 136.567 641.719 134.324C639.023 135.072 637.062 136.637 635.842 139.025C635.06 137.457 634.274 135.892 633.492 134.324C630.511 134.597 627.375 135.379 624.089 136.675C622.465 131.054 620.114 131.054 617.037 136.675C608.733 136.198 600.113 134.632 591.181 131.973C590.398 133.541 589.613 135.107 588.83 136.675C585.697 136.675 582.561 136.675 579.427 136.675C576.715 130.899 573.579 130.899 570.025 136.675C565.082 130.995 560.38 130.995 555.921 136.675C551.175 132.42 545.691 132.42 539.467 136.675C534.502 131.724 529.801 132.507 525.363 139.025C520.413 134.815 514.536 133.247 507.734 134.324C504.189 130.373 501.838 125.671 500.682 120.22C500.823 118.944 501.605 118.161 503.032 117.869C509.464 122.376 515.34 122.376 520.662 117.869C527.378 120.093 534.429 120.093 541.817 117.869C543.385 124.139 544.951 124.139 546.519 117.869C547.99 123.725 549.948 123.725 552.395 117.869C554.746 121.003 557.097 121.003 559.447 117.869C564.372 122.78 568.68 122.78 572.376 117.869C574.726 121.003 577.077 121.003 579.427 117.869C582.504 123.49 584.855 123.49 586.479 117.869C588.047 121.003 589.613 121.003 591.181 117.869C595.275 123.682 599.584 123.682 604.109 117.869C616.32 118.194 627.683 118.194 638.193 117.869C644.904 124.503 646.864 123.72 644.069 115.519Z" fill="#FFB82D"/>
<path opacity="0.995" fill-rule="evenodd" clip-rule="evenodd" d="M279.724 134.324C278.69 141.094 276.339 147.361 272.672 153.13C269.6 154.665 266.467 156.233 263.27 157.831C216.119 156.743 167.539 155.958 117.531 155.481C119.645 148.675 122.78 142.406 126.934 136.675C141.638 136.308 155.35 136.308 168.07 136.675C168.853 135.107 169.637 133.542 170.42 131.974C177.292 133.173 183.561 133.173 189.225 131.974C193.144 133.542 197.06 135.107 200.978 136.675C202.546 130.406 204.112 130.406 205.68 136.675C208.813 135.107 211.949 133.542 215.082 131.974C219 134.324 222.917 136.675 226.835 139.026C230.241 136.407 233.377 134.056 236.238 131.974C237.15 134.155 238.717 135.723 240.939 136.675C253.063 136.551 265.992 135.768 279.724 134.324Z" fill="#FFB22F"/>
<path opacity="0.993" fill-rule="evenodd" clip-rule="evenodd" d="M655.823 131.974C661.699 139.012 666.4 146.846 669.926 155.48C619.125 156.889 567.021 157.671 513.61 157.831C510.867 157.439 508.126 157.048 505.383 156.656C507.536 156.002 509.101 154.827 510.084 153.13C511.821 153.438 513.389 153.045 514.785 151.954C510.785 146.701 508.434 140.824 507.733 134.324C514.536 133.248 520.413 134.816 525.363 139.026C529.801 132.507 534.502 131.724 539.467 136.675C545.691 132.42 551.175 132.42 555.921 136.675C560.38 130.996 565.082 130.996 570.025 136.675C573.579 130.899 576.715 130.899 579.427 136.675C582.561 136.675 585.696 136.675 588.83 136.675C589.613 135.107 590.398 133.542 591.18 131.974C600.113 134.632 608.733 136.198 617.037 136.675C620.114 131.055 622.465 131.055 624.089 136.675C627.375 135.38 630.511 134.597 633.492 134.324C634.274 135.892 635.059 137.458 635.842 139.026C637.062 136.637 639.023 135.072 641.719 134.324C646.798 136.567 651.5 135.782 655.823 131.974Z" fill="#FFB22F"/>
<path opacity="0.835" fill-rule="evenodd" clip-rule="evenodd" d="M1104.79 131.973C1141.63 131.581 1178.45 131.973 1215.27 133.149C1219.68 138.146 1222.03 144.023 1222.32 150.779C1183.77 153.908 1144.98 153.908 1105.97 150.779C1105.18 154.697 1104.4 158.614 1103.62 162.532C1101.96 152.22 1102.35 142.034 1104.79 131.973Z" fill="#FFDA1E"/>
<path opacity="0.835" fill-rule="evenodd" clip-rule="evenodd" d="M1400.97 162.532C1397.17 159.972 1395.21 156.054 1395.1 150.779C1355.7 152.721 1316.13 153.896 1276.39 154.305C1275.06 156.644 1273.49 158.602 1271.69 160.182C1271.69 159.399 1271.69 158.614 1271.69 157.831C1273.83 149.23 1276.97 141.002 1281.09 133.149C1320.29 131.191 1359.47 131.583 1398.62 134.324C1400.81 143.56 1401.6 152.963 1400.97 162.532Z" fill="#FFD81F"/>
<path opacity="0.965" fill-rule="evenodd" clip-rule="evenodd" d="M1022.52 153.13C992.821 153.819 963.048 153.034 933.197 150.779C933.912 143.492 937.045 137.615 942.6 133.149C966.889 131.581 991.18 131.581 1015.47 133.149C1018.83 139.472 1021.18 146.132 1022.52 153.13Z" fill="#FFD91E"/>
<path opacity="0.97" fill-rule="evenodd" clip-rule="evenodd" d="M1525.55 139.025C1523.63 145.619 1522.45 152.671 1522.03 160.182C1520.89 157.953 1520.5 155.603 1520.85 153.13C1484.81 153.13 1448.76 153.13 1412.72 153.13C1413.35 156.888 1412.57 160.022 1410.37 162.532C1410.37 152.347 1410.37 142.159 1410.37 131.973C1447.99 131.581 1485.6 131.973 1523.2 133.149C1524.97 134.726 1525.75 136.684 1525.55 139.025Z" fill="#FFD81F"/>
<path opacity="0.982" fill-rule="evenodd" clip-rule="evenodd" d="M1755.91 143.727C1753.79 145.394 1753.01 147.744 1753.56 150.779C1691.43 153.898 1629.53 153.898 1567.86 150.779C1613.46 127.86 1660.08 126.292 1707.73 146.078C1711.9 144.268 1715.42 141.524 1718.3 137.85C1730.82 136.677 1743.35 136.285 1755.91 136.675C1755.91 139.026 1755.91 141.376 1755.91 143.727Z" fill="#FFD720"/>
<path opacity="0.984" fill-rule="evenodd" clip-rule="evenodd" d="M1976.87 150.779C1950.64 152.347 1924 153.13 1896.95 153.13C1869.48 153.128 1842.84 151.56 1817.03 148.429C1841.43 134.428 1867.67 128.944 1895.78 131.974C1925.22 128.883 1952.25 135.15 1976.87 150.779Z" fill="#FFD720"/>
<path opacity="0.999" fill-rule="evenodd" clip-rule="evenodd" d="M1400.97 162.532C1399.86 165.837 1397.51 167.405 1393.92 167.234C1388.65 164.15 1382.38 162.584 1375.11 162.532C1344.56 163.103 1313.61 163.886 1282.27 164.883C1278.45 163.475 1274.93 161.907 1271.69 160.182C1273.49 158.602 1275.06 156.644 1276.39 154.305C1316.13 153.896 1355.7 152.72 1395.1 150.779C1395.21 156.054 1397.17 159.972 1400.97 162.532Z" fill="#FFD123"/>
<path opacity="0.996" fill-rule="evenodd" clip-rule="evenodd" d="M1567.86 150.779C1629.54 153.898 1691.43 153.898 1753.56 150.779C1753.95 157.095 1753.56 163.364 1752.39 169.584C1751.25 167.356 1750.86 165.005 1751.21 162.532C1684.9 162.727 1618.3 162.727 1551.41 162.532C1555.63 156.891 1561.12 152.972 1567.86 150.779Z" fill="#FFD123"/>
<path opacity="0.803" fill-rule="evenodd" clip-rule="evenodd" d="M272.672 153.13C351.811 153.13 430.947 153.13 510.085 153.13C509.102 154.827 507.537 156.002 505.384 156.656C508.127 157.048 510.868 157.439 513.611 157.831C567.022 157.671 619.125 156.889 669.927 155.481C673.472 159.432 675.822 164.133 676.979 169.585C668.359 172.718 659.742 172.718 651.122 169.585C648.835 168.44 646.484 167.265 644.07 166.059C477.176 164.491 310.282 164.491 143.388 166.059C140.975 167.265 138.624 168.44 136.336 169.585C127.227 168.95 117.825 169.733 108.129 171.935C110.704 165.983 113.839 160.499 117.531 155.481C167.539 155.958 216.119 156.743 263.27 157.831C266.467 156.233 269.6 154.665 272.672 153.13Z" fill="#FFAD30"/>
<path opacity="0.995" fill-rule="evenodd" clip-rule="evenodd" d="M1817.03 148.428C1842.84 151.559 1869.48 153.127 1896.95 153.13C1923.99 153.13 1950.63 152.347 1976.87 150.779C1980.1 153.158 1983.23 155.508 1986.27 157.831C1985.24 157.678 1984.46 158.068 1983.92 159.006C1990.52 164.211 1989.74 167.737 1981.57 169.584C1955.76 166.54 1930.69 166.54 1906.35 169.584C1903.26 168.83 1900.12 168.047 1896.95 167.234C1891.08 168.999 1885.6 171.35 1880.5 174.286C1851.32 175.022 1822.33 174.236 1793.52 171.935C1799.68 162.645 1807.51 154.81 1817.03 148.428Z" fill="#FFCF24"/>
<path opacity="0.984" fill-rule="evenodd" clip-rule="evenodd" d="M1525.55 139.025C1525.94 147.681 1525.55 156.298 1524.38 164.883C1521.25 167.426 1517.72 168.994 1513.8 169.584C1510.04 167.205 1506.9 168.381 1504.4 173.11C1479.32 174.678 1454.25 174.678 1429.18 173.11C1426.04 171.542 1426.04 169.977 1429.18 168.409C1424.54 167.245 1419.84 166.853 1415.07 167.234C1411.94 167.234 1410.37 165.666 1410.37 162.532C1412.57 160.022 1413.35 156.888 1412.72 153.129C1448.76 153.129 1484.81 153.129 1520.85 153.129C1520.5 155.602 1520.89 157.953 1522.03 160.182C1522.45 152.671 1523.63 145.619 1525.55 139.025Z" fill="#FFCD25"/>
<path opacity="0.994" fill-rule="evenodd" clip-rule="evenodd" d="M1755.91 143.727C1755.91 163.315 1755.91 182.906 1755.91 202.494C1753.99 195.901 1752.81 188.848 1752.39 181.338C1729.47 183.656 1706.35 184.439 1683.04 183.689C1662.25 167.217 1642.67 168 1624.28 186.039C1594.5 184.471 1564.73 182.906 1534.95 181.338C1538.7 173.665 1544.18 167.396 1551.41 162.533C1618.3 162.728 1684.9 162.728 1751.21 162.533C1750.86 165.005 1751.25 167.356 1752.39 169.585C1753.55 163.365 1753.95 157.095 1753.56 150.779C1753 147.744 1753.79 145.394 1755.91 143.727Z" fill="#FFC926"/>
<path fill-rule="evenodd" clip-rule="evenodd" d="M933.196 150.779C963.047 153.033 992.82 153.818 1022.52 153.129C1028.01 157.847 1031.15 164.114 1031.92 171.935C996.837 174.636 961.578 175.028 926.145 173.11C929.139 170.814 929.139 168.853 926.145 167.234C927.94 161.315 930.291 155.83 933.196 150.779Z" fill="#FFCC25"/>
<path fill-rule="evenodd" clip-rule="evenodd" d="M1104.79 131.974C1102.35 142.035 1101.96 152.22 1103.62 162.533C1104.4 158.614 1105.19 154.698 1105.97 150.779C1144.98 153.908 1183.77 153.908 1222.32 150.779C1226.33 157.258 1229.46 164.31 1231.73 171.935C1192.67 174.944 1154.28 174.944 1116.55 171.935C1111.64 168.553 1106.15 166.985 1100.09 167.234C1099.7 156.235 1100.09 145.267 1101.27 134.324C1102.17 133.017 1103.34 132.235 1104.79 131.974Z" fill="#FFCC25"/>
<path opacity="0.976" fill-rule="evenodd" clip-rule="evenodd" d="M1231.72 171.935C1233.29 175.069 1234.86 178.204 1236.42 181.338C1198.06 182.043 1160.45 184.394 1123.59 188.39C1122.81 188.39 1122.03 188.39 1121.24 188.39C1121.49 182.327 1119.93 176.843 1116.54 171.935C1154.28 174.944 1192.67 174.944 1231.72 171.935Z" fill="#FFC429"/>
<path opacity="0.942" fill-rule="evenodd" clip-rule="evenodd" d="M1271.69 157.831C1271.69 158.614 1271.69 159.399 1271.69 160.182C1274.92 161.907 1278.45 163.475 1282.26 164.883C1313.61 163.886 1344.56 163.104 1375.11 162.532C1382.38 162.584 1388.65 164.15 1393.92 167.234C1388.73 168.463 1385.2 171.597 1383.34 176.637C1382.17 187.579 1381.77 198.547 1382.16 209.546C1381.38 209.546 1380.6 209.546 1379.81 209.546C1380.51 204.292 1379.72 199.591 1377.46 195.442C1377.46 191.523 1377.46 187.607 1377.46 183.689C1337.11 182.266 1297.15 183.834 1257.58 188.39C1260.48 177.123 1265.18 166.938 1271.69 157.831Z" fill="#FFC628"/>
<path opacity="0.976" fill-rule="evenodd" clip-rule="evenodd" d="M1986.27 157.831C1995.41 164.347 2001.68 172.967 2005.08 183.689C1976.87 183.689 1948.66 183.689 1920.46 183.689C1920.46 186.039 1920.46 188.39 1920.46 190.741C1917.5 182.466 1912.8 175.414 1906.35 169.584C1930.69 166.54 1955.76 166.54 1981.57 169.584C1989.74 167.737 1990.52 164.211 1983.92 159.006C1984.46 158.068 1985.24 157.678 1986.27 157.831Z" fill="#FFC528"/>
<path opacity="0.975" fill-rule="evenodd" clip-rule="evenodd" d="M651.121 169.584C659.741 172.718 668.358 172.718 676.978 169.584C683.412 177.772 687.328 187.175 688.731 197.793C687.325 205.388 684.585 206.171 680.504 200.143C675.511 201.852 670.417 203.42 665.225 204.845C663.051 202.163 661.09 202.163 659.348 204.845C658.566 203.277 657.78 201.711 656.998 200.143C653.199 203.202 649.673 203.202 646.42 200.143C648.087 198.018 650.437 197.236 653.472 197.793C654.09 188.155 653.307 178.752 651.121 169.584Z" fill="#FFA133"/>
<path opacity="0.934" fill-rule="evenodd" clip-rule="evenodd" d="M136.336 169.585C135.158 180.522 136.725 190.708 141.037 200.144C135.406 203.232 129.53 203.232 123.407 200.144C121.84 201.712 120.273 203.277 118.706 204.845C115.572 201.712 112.437 201.712 109.303 204.845C106.169 198.576 103.035 198.576 99.9009 204.845C99.2465 202.692 98.0712 201.126 96.375 200.144C100.293 190.741 104.21 181.338 108.128 171.935C117.824 169.733 127.226 168.95 136.336 169.585Z" fill="#FFA133"/>
<path opacity="0.999" fill-rule="evenodd" clip-rule="evenodd" d="M926.145 167.234C929.139 168.854 929.139 170.814 926.145 173.111C961.578 175.029 996.837 174.636 1031.92 171.935C1036.4 179.058 1039.53 186.893 1041.33 195.442C1038.45 194.201 1035.71 192.633 1033.1 190.741C1031.53 197.01 1029.96 197.01 1028.4 190.741C1004.45 195.113 980.16 195.113 955.527 190.741C946.644 195.929 938.027 195.929 929.671 190.741C924.546 192.445 920.235 190.879 916.742 186.039C920.294 180.151 923.43 173.882 926.145 167.234Z" fill="#FFC02A"/>
<path opacity="0.999" fill-rule="evenodd" clip-rule="evenodd" d="M1236.43 181.338C1239.13 185.797 1241.48 190.499 1243.48 195.442C1235.81 199.074 1227.58 201.424 1218.8 202.494C1206.35 201.453 1193.42 199.887 1180.01 197.793C1178.59 198.084 1177.8 198.867 1177.66 200.143C1176.88 200.143 1176.09 200.143 1175.31 200.143C1159.51 200.273 1142.27 200.273 1123.6 200.143C1123.6 196.225 1123.6 192.309 1123.6 188.39C1160.45 184.394 1198.06 182.043 1236.43 181.338Z" fill="#FFBB2C"/>
<path fill-rule="evenodd" clip-rule="evenodd" d="M1377.46 195.442C1377.81 197.915 1377.42 200.266 1376.29 202.494C1359.83 200.301 1342.6 200.301 1324.58 202.494C1319.58 200.785 1314.49 199.217 1309.3 197.793C1307.87 198.084 1307.09 198.867 1306.95 200.143C1306.16 200.143 1305.38 200.143 1304.6 200.143C1291.85 200.301 1279.7 201.084 1268.16 202.494C1263.23 201.011 1258.92 198.66 1255.23 195.442C1254.68 192.407 1255.46 190.057 1257.58 188.39C1297.15 183.834 1337.11 182.266 1377.46 183.689C1377.46 187.607 1377.46 191.523 1377.46 195.442Z" fill="#FFBC2B"/>
<path fill-rule="evenodd" clip-rule="evenodd" d="M1415.07 167.234C1419.84 166.853 1424.54 167.246 1429.18 168.409C1426.04 169.977 1426.04 171.543 1429.18 173.111C1454.25 174.679 1479.32 174.679 1504.4 173.111C1506.9 168.381 1510.04 167.206 1513.8 169.585C1506.32 176.397 1503.18 185.017 1504.4 195.442C1502.7 194.46 1501.53 192.894 1500.87 190.741C1488.84 193.402 1476.3 193.402 1463.26 190.741C1461.69 197.01 1460.13 197.01 1458.56 190.741C1450.35 192.697 1441.73 192.697 1432.7 190.741C1431.55 193.78 1431.16 196.916 1431.53 200.144C1430.75 200.144 1429.96 200.144 1429.18 200.144C1429.57 192.269 1429.17 184.434 1428 176.637C1423.74 173.165 1419.43 170.031 1415.07 167.234Z" fill="#FFBF2A"/>
<path fill-rule="evenodd" clip-rule="evenodd" d="M1793.52 171.935C1822.33 174.236 1851.32 175.022 1880.5 174.286C1877.69 179.577 1875.34 185.064 1873.44 190.741C1871.19 191.805 1869.23 193.371 1867.57 195.442C1858.66 193.016 1849.26 193.016 1839.36 195.442C1833.88 193.874 1828.39 192.308 1822.91 190.741C1820.56 193.874 1818.21 193.874 1815.85 190.741C1815.07 192.308 1814.29 193.874 1813.5 195.442C1803.95 193.176 1794.15 192.393 1784.12 193.091C1785.4 185.071 1788.53 178.019 1793.52 171.935Z" fill="#FFC02A"/>
<path opacity="0.969" fill-rule="evenodd" clip-rule="evenodd" d="M380.8 216.598C378.513 219.633 376.162 219.633 373.748 216.598C372.109 221.029 369.759 221.812 366.696 218.949C364.82 220.023 364.037 221.591 364.345 223.65C341.124 214.588 318.008 205.185 295.002 195.442C288.679 198.801 282.02 201.152 275.022 202.494C271.914 202.894 269.171 202.111 266.795 200.143C261.694 205.616 256.6 205.616 251.516 200.143C265.032 192.626 279.528 187.142 295.002 183.688C324.401 193.089 353.001 204.057 380.8 216.598Z" fill="#FF9D34"/>
<path opacity="0.949" fill-rule="evenodd" clip-rule="evenodd" d="M538.291 200.143C532.488 202.064 526.221 203.239 519.486 203.669C520.793 204.57 521.576 205.745 521.837 207.195C511.779 203.973 501.984 200.054 492.454 195.442C486.373 199.429 479.712 201.779 472.474 202.494C467.477 199.661 462.383 199.661 457.195 202.494C453.96 202.061 452.002 200.494 451.318 197.793C463.962 191.227 477.281 186.526 491.279 183.688C507.623 187.309 523.294 192.793 538.291 200.143Z" fill="#FFA034"/>
<path opacity="0.996" fill-rule="evenodd" clip-rule="evenodd" d="M916.741 186.04C920.234 190.88 924.545 192.445 929.67 190.741C938.026 195.929 946.644 195.929 955.527 190.741C980.159 195.113 1004.45 195.113 1028.4 190.741C1029.96 197.01 1031.53 197.01 1033.1 190.741C1035.71 192.633 1038.45 194.201 1041.32 195.442C1042.89 195.442 1043.67 196.225 1043.67 197.793C1041.98 198.776 1040.8 200.341 1040.15 202.494C997.708 202.233 954.222 202.233 909.689 202.494C911.485 196.575 913.836 191.091 916.741 186.04Z" fill="#FFB72D"/>
<path opacity="0.995" fill-rule="evenodd" clip-rule="evenodd" d="M1534.96 181.338C1564.73 182.906 1594.5 184.471 1624.28 186.039C1622.08 203.93 1621.3 221.953 1621.93 240.105C1619.73 237.594 1618.95 234.461 1619.58 230.702C1619.58 220.517 1619.58 210.329 1619.58 200.143C1586.07 201.624 1553.94 201.624 1523.2 200.143C1524.83 192.128 1528.75 185.858 1534.96 181.338Z" fill="#FFBA2C"/>
<path opacity="0.995" fill-rule="evenodd" clip-rule="evenodd" d="M2005.08 183.688C2007.2 185.355 2007.99 187.706 2007.43 190.741C2004.72 192.652 2004.72 195.002 2007.43 197.793C2004.78 199.584 2002.04 201.152 1999.2 202.494C1972.8 201.596 1946.55 200.811 1920.46 200.143C1920.46 197.01 1920.46 193.874 1920.46 190.741C1920.46 188.39 1920.46 186.039 1920.46 183.688C1948.66 183.688 1976.87 183.688 2005.08 183.688Z" fill="#FFBA2C"/>
<path opacity="0.976" fill-rule="evenodd" clip-rule="evenodd" d="M1873.44 190.741C1871.28 199.231 1869.71 207.851 1868.74 216.598C1867.96 216.598 1867.17 216.598 1866.39 216.598C1838.29 211.944 1809.3 210.378 1779.42 211.897C1780.13 205.143 1781.7 198.876 1784.12 193.091C1794.15 192.393 1803.94 193.176 1813.5 195.442C1814.28 193.874 1815.07 192.309 1815.85 190.741C1818.2 193.874 1820.55 193.874 1822.9 190.741C1828.39 192.309 1833.87 193.874 1839.36 195.442C1849.26 193.016 1858.66 193.016 1867.57 195.442C1869.23 193.371 1871.19 191.806 1873.44 190.741Z" fill="#FFB32E"/>
<path opacity="0.952" fill-rule="evenodd" clip-rule="evenodd" d="M1377.46 195.442C1379.72 199.591 1380.51 204.292 1379.81 209.546C1379.81 212.679 1379.81 215.815 1379.81 218.949C1356.34 219.022 1332.05 218.239 1306.95 216.598C1306.95 211.114 1306.95 205.627 1306.95 200.143C1307.09 198.867 1307.87 198.084 1309.3 197.793C1314.49 199.217 1319.58 200.785 1324.57 202.494C1342.59 200.301 1359.83 200.301 1376.29 202.494C1377.42 200.265 1377.81 197.915 1377.46 195.442Z" fill="#FFB02F"/>
<path opacity="0.989" fill-rule="evenodd" clip-rule="evenodd" d="M1504.4 195.442C1504.4 203.277 1504.4 211.114 1504.4 218.949C1502.27 217.282 1501.49 214.932 1502.04 211.897C1479.65 211.138 1456.93 210.747 1433.88 210.722C1431.81 207.534 1431.02 204.008 1431.53 200.143C1431.16 196.916 1431.55 193.78 1432.7 190.741C1441.73 192.696 1450.35 192.696 1458.56 190.741C1460.13 197.01 1461.69 197.01 1463.26 190.741C1476.3 193.402 1488.84 193.402 1500.87 190.741C1501.52 192.894 1502.7 194.46 1504.4 195.442Z" fill="#FFB32E"/>
<path opacity="0.994" fill-rule="evenodd" clip-rule="evenodd" d="M2007.43 190.741C2011.28 199.462 2012.84 208.865 2012.13 218.949C1982.78 216.532 1953.01 216.532 1922.81 218.949C1923.33 212.416 1922.54 206.147 1920.46 200.143C1946.55 200.811 1972.8 201.596 1999.2 202.494C2002.04 201.152 2004.78 199.584 2007.43 197.793C2004.72 195.003 2004.72 192.652 2007.43 190.741Z" fill="#FFB02F"/>
<path opacity="0.989" fill-rule="evenodd" clip-rule="evenodd" d="M1255.23 195.442C1258.92 198.66 1263.23 201.011 1268.16 202.494C1279.7 201.084 1291.85 200.301 1304.6 200.143C1305.15 203.178 1304.37 205.529 1302.24 207.195C1300.08 205.862 1299.3 207.428 1299.89 211.897C1288.43 209.334 1277.07 209.334 1265.81 211.897C1259.68 211.819 1254.58 210.251 1250.53 207.195C1251.23 202.722 1252.79 198.803 1255.23 195.442Z" fill="#FFB22F"/>
<path opacity="0.991" fill-rule="evenodd" clip-rule="evenodd" d="M1043.67 197.792C1046.2 205.183 1049.33 212.235 1053.08 218.949C1028.32 218.634 1001.68 218.634 973.156 218.949C969.793 214.978 967.834 210.277 967.28 204.845C964.71 211.448 961.967 217.717 959.053 223.65C959.144 220.698 957.969 218.347 955.527 216.598C941.331 215.822 927.62 216.605 914.391 218.949C910.693 218.356 907.56 216.791 904.988 214.247C906.556 210.329 908.122 206.412 909.69 202.494C954.222 202.233 997.708 202.233 1040.15 202.494C1040.8 200.341 1041.98 198.775 1043.67 197.792Z" fill="#FFAF30"/>
<path opacity="0.992" fill-rule="evenodd" clip-rule="evenodd" d="M1243.48 195.442C1245.05 199.36 1246.61 203.277 1248.18 207.195C1246.9 211.434 1244.93 215.352 1242.3 218.949C1226.25 219.226 1209.8 218.443 1192.94 216.598C1191.73 219.012 1190.56 221.363 1189.41 223.65C1184.33 216.624 1180.42 208.789 1177.66 200.143C1177.8 198.867 1178.58 198.084 1180.01 197.793C1193.42 199.887 1206.35 201.453 1218.8 202.494C1227.58 201.424 1235.81 199.074 1243.48 195.442Z" fill="#FFB02F"/>
<path opacity="0.997" fill-rule="evenodd" clip-rule="evenodd" d="M1523.2 200.144C1553.94 201.624 1586.06 201.624 1619.58 200.144C1619.58 210.329 1619.58 220.517 1619.58 230.702C1618.79 230.702 1618.01 230.702 1617.23 230.702C1617.98 225.413 1616.8 220.712 1613.7 216.598C1581.96 217.908 1551.01 217.908 1520.85 216.598C1522.01 211.178 1522.79 205.694 1523.2 200.144Z" fill="#FFB02F"/>
<path opacity="0.51" fill-rule="evenodd" clip-rule="evenodd" d="M1755.91 202.494C1733.61 204.831 1710.89 205.613 1687.74 204.845C1688.77 196.998 1687.2 189.946 1683.04 183.689C1706.35 184.438 1729.47 183.656 1752.39 181.338C1752.81 188.848 1753.99 195.9 1755.91 202.494Z" fill="#FFB82D"/>
<path opacity="0.558" fill-rule="evenodd" clip-rule="evenodd" d="M1772.37 211.897C1772.74 215.124 1772.34 218.26 1771.19 221.299C1734.76 220.505 1698.72 218.154 1663.06 214.247C1662.41 216.401 1661.24 217.966 1659.54 218.949C1659.54 217.381 1658.76 216.598 1657.19 216.598C1657.45 215.148 1658.23 213.972 1659.54 213.072C1697.14 211.897 1734.75 211.504 1772.37 211.897Z" fill="#FFAC30"/>
<path opacity="0.951" fill-rule="evenodd" clip-rule="evenodd" d="M1772.37 211.897C1774.34 212.701 1775.12 214.266 1774.72 216.598C1775.45 224.151 1774.66 231.203 1772.37 237.755C1769.27 234.471 1765.35 232.905 1760.61 233.053C1730.08 234.118 1698.74 234.118 1666.59 233.053C1664.29 234.174 1662.33 235.74 1660.71 237.755C1659.54 231.535 1659.15 225.265 1659.54 218.949C1661.23 217.966 1662.41 216.401 1663.06 214.248C1698.72 218.154 1734.76 220.505 1771.19 221.3C1772.34 218.26 1772.74 215.124 1772.37 211.897Z" fill="#FFA133"/>
<path opacity="0.934" fill-rule="evenodd" clip-rule="evenodd" d="M96.3751 200.144C98.0713 201.126 99.2467 202.692 99.9011 204.845C103.035 198.576 106.169 198.576 109.304 204.845C112.438 201.712 115.572 201.712 118.706 204.845C120.273 203.277 121.84 201.712 123.407 200.144C129.53 203.232 135.406 203.232 141.037 200.144C159.029 206.404 177.05 212.67 195.101 218.949C213.932 212.663 232.737 206.394 251.516 200.144C256.6 205.616 261.694 205.616 266.795 200.144C269.172 202.111 271.915 202.894 275.022 202.494C249.297 214.476 222.655 224.661 195.101 233.053C176.282 227.169 157.869 220.117 139.862 211.897C136.626 213.157 136.626 215.508 139.862 218.949C145.438 224.128 150.531 229.614 155.141 235.404C154.476 237.259 153.301 238.827 151.615 240.105C130.375 240.058 108.827 239.273 86.9727 237.755C90.095 225.265 93.2291 212.729 96.3751 200.144Z" fill="#FF9636"/>
<path opacity="0.95" fill-rule="evenodd" clip-rule="evenodd" d="M451.319 197.792C452.003 200.493 453.961 202.061 457.196 202.494C462.384 199.661 467.478 199.661 472.475 202.494C447.074 214.238 420.827 224.423 393.729 233.053C383.793 230.232 373.998 227.098 364.346 223.65C364.039 221.591 364.821 220.023 366.697 218.949C369.76 221.812 372.111 221.029 373.749 216.598C376.163 219.633 378.514 219.633 380.801 216.598C385.363 217.465 389.674 219.033 393.729 221.299C412.539 212.48 431.736 204.645 451.319 197.792Z" fill="#FF9536"/>
<path opacity="0.891" fill-rule="evenodd" clip-rule="evenodd" d="M688.731 197.792C693.811 209.774 697.729 222.31 700.484 235.403C696.888 236.736 693.362 238.302 689.906 240.105C677.048 237.481 663.727 237.481 649.946 240.105C643.672 238.892 637.795 237.324 632.316 235.403C638.973 228.349 645.24 220.907 651.121 213.072C649.946 212.679 648.77 212.289 647.595 211.897C629.587 220.117 611.175 227.169 592.356 233.053C568.328 225.735 544.821 217.115 521.837 207.195C521.576 205.745 520.793 204.57 519.486 203.669C526.221 203.239 532.488 202.064 538.291 200.143C555.773 206.725 573.402 212.994 591.18 218.949C609.705 212.905 628.118 206.636 646.42 200.143C649.673 203.201 653.199 203.201 656.998 200.143C657.78 201.711 658.565 203.277 659.348 204.845C661.09 202.162 663.05 202.162 665.225 204.845C670.417 203.42 675.511 201.852 680.504 200.143C684.584 206.17 687.325 205.388 688.731 197.792Z" fill="#FF9636"/>
<path fill-rule="evenodd" clip-rule="evenodd" d="M1121.25 188.39C1122.03 188.39 1122.81 188.39 1123.6 188.39C1123.6 192.309 1123.6 196.225 1123.6 200.144C1142.27 200.273 1159.51 200.273 1175.31 200.144C1175.31 208.764 1175.31 217.381 1175.31 226.001C1158.07 226.001 1140.83 226.001 1123.6 226.001C1124.26 230.503 1123.48 234.419 1121.25 237.755C1121.25 221.3 1121.25 204.845 1121.25 188.39Z" fill="#FFAB31"/>
<path opacity="0.999" fill-rule="evenodd" clip-rule="evenodd" d="M1302.24 207.195C1301.12 214.114 1298.76 220.383 1295.19 226.001C1260.02 225.996 1224.76 225.996 1189.41 226.001C1189.41 225.218 1189.41 224.433 1189.41 223.65C1190.56 221.363 1191.73 219.012 1192.94 216.598C1209.8 218.443 1226.25 219.226 1242.3 218.949C1244.94 215.352 1246.9 211.434 1248.18 207.195C1248.96 207.195 1249.75 207.195 1250.53 207.195C1254.58 210.251 1259.67 211.819 1265.81 211.897C1277.06 209.335 1288.42 209.335 1299.89 211.897C1299.3 207.428 1300.08 205.863 1302.24 207.195Z" fill="#FFA732"/>
<path opacity="0.992" fill-rule="evenodd" clip-rule="evenodd" d="M1429.18 200.144C1429.96 200.144 1430.74 200.144 1431.53 200.144C1431.02 204.008 1431.81 207.534 1433.88 210.722C1456.93 210.747 1479.65 211.138 1502.05 211.897C1501.49 214.932 1502.27 217.282 1504.4 218.949C1504.4 222.868 1504.4 226.784 1504.4 230.702C1480.49 227.621 1456.6 224.487 1432.7 221.3C1431.8 222.607 1430.63 223.389 1429.18 223.65C1429.18 215.816 1429.18 207.978 1429.18 200.144Z" fill="#FFA832"/>
<path opacity="0.012" fill-rule="evenodd" clip-rule="evenodd" d="M1774.72 216.598C1777.85 224.433 1777.85 232.27 1774.72 240.105C1773.15 240.105 1772.37 239.322 1772.37 237.754C1774.66 231.203 1775.45 224.151 1774.72 216.598Z" fill="#FE6132"/>
<path fill-rule="evenodd" clip-rule="evenodd" d="M1779.42 211.897C1809.3 210.378 1838.29 211.944 1866.39 216.598C1866.79 219.706 1866.01 222.449 1864.04 224.825C1837.41 226.001 1810.77 226.393 1784.12 226.001C1784.62 222.054 1783.06 219.703 1779.42 218.949C1779.42 216.598 1779.42 214.247 1779.42 211.897Z" fill="#FFA831"/>
<path opacity="0.96" fill-rule="evenodd" clip-rule="evenodd" d="M904.989 214.248C907.561 216.791 910.694 218.357 914.392 218.949C927.621 216.605 941.332 215.823 955.528 216.598C957.97 218.347 959.145 220.698 959.054 223.65C964.209 226.699 969.695 226.699 975.508 223.65C974.655 222.045 973.872 220.477 973.157 218.949C1001.68 218.634 1028.32 218.634 1053.08 218.949C1056.44 221.958 1058.01 225.876 1057.78 230.702C1056.08 231.685 1054.91 233.25 1054.25 235.404C1004.51 234.09 954.364 234.09 903.814 235.404C901.372 233.655 900.197 231.304 900.288 228.352C901.395 223.465 902.961 218.763 904.989 214.248Z" fill="#FFA133"/>
<path fill-rule="evenodd" clip-rule="evenodd" d="M1306.95 216.598C1332.05 218.239 1356.34 219.022 1379.81 218.949C1381.21 226.227 1378.86 231.711 1372.76 235.404C1354.26 234.445 1335.85 234.445 1317.52 235.404C1315.17 233.836 1312.82 232.27 1310.47 230.702C1309.93 233.61 1308.75 235.961 1306.95 237.754C1306.95 230.702 1306.95 223.65 1306.95 216.598Z" fill="#FFA133"/>
<path fill-rule="evenodd" clip-rule="evenodd" d="M1520.85 216.598C1551.01 217.907 1581.96 217.907 1613.7 216.598C1616.8 220.712 1617.98 225.413 1617.23 230.702C1616.54 233.403 1614.59 234.971 1611.35 235.404C1587.58 235.089 1562.11 234.306 1534.96 233.053C1526.94 232.825 1523.8 236.744 1525.55 244.806C1522.05 236.024 1520.49 226.621 1520.85 216.598Z" fill="#FFA133"/>
<path opacity="0.997" fill-rule="evenodd" clip-rule="evenodd" d="M2012.13 218.949C2012.13 222.868 2012.13 226.784 2012.13 230.703C2010.6 232.092 2009.03 233.657 2007.43 235.404C1981.84 233.488 1957.15 233.488 1933.39 235.404C1928.95 230.129 1925.42 230.129 1922.81 235.404C1922.81 229.92 1922.81 224.433 1922.81 218.949C1953.01 216.533 1982.78 216.533 2012.13 218.949Z" fill="#FFA133"/>
<path opacity="0.981" fill-rule="evenodd" clip-rule="evenodd" d="M1866.39 216.598C1867.18 216.598 1867.96 216.598 1868.74 216.598C1868.3 230.199 1869.87 243.521 1873.44 256.56C1871.59 255.895 1870.02 254.719 1868.74 253.034C1841.53 252.615 1814.5 251.44 1787.65 249.508C1786.75 250.815 1785.57 251.597 1784.12 251.858C1780.63 241.203 1779.07 230.232 1779.42 218.949C1783.06 219.703 1784.63 222.054 1784.12 226.001C1810.77 226.393 1837.41 226.001 1864.04 224.826C1866.01 222.449 1866.79 219.706 1866.39 216.598Z" fill="#FF9835"/>
<path opacity="0.991" fill-rule="evenodd" clip-rule="evenodd" d="M900.288 228.352C900.197 231.304 901.372 233.655 903.814 235.404C954.364 234.09 1004.51 234.09 1054.25 235.404C1054.91 233.25 1056.08 231.685 1057.78 230.702C1059.9 232.369 1060.69 234.72 1060.13 237.754C1005.16 241.701 949.531 244.052 893.236 244.806C895.032 238.887 897.383 233.403 900.288 228.352Z" fill="#FF9935"/>
<path opacity="0.98" fill-rule="evenodd" clip-rule="evenodd" d="M1295.19 226.001C1292.67 233.394 1289.53 240.446 1285.79 247.157C1285.53 245.707 1284.75 244.532 1283.44 243.631C1254.27 243.194 1225.28 242.019 1196.47 240.105C1193.25 235.991 1190.89 231.29 1189.41 226.001C1224.76 225.996 1260.02 225.996 1295.19 226.001Z" fill="#FF9B35"/>
<path opacity="0.991" fill-rule="evenodd" clip-rule="evenodd" d="M1504.4 230.702C1504.4 235.403 1504.4 240.105 1504.4 244.806C1502.27 246.473 1501.49 248.823 1502.05 251.858C1478.74 252.608 1455.62 251.825 1432.7 249.508C1432.05 251.661 1430.87 253.226 1429.18 254.209C1429.18 244.023 1429.18 233.836 1429.18 223.65C1430.63 223.389 1431.8 222.606 1432.7 221.299C1456.6 224.487 1480.49 227.62 1504.4 230.702Z" fill="#FF9835"/>
<path fill-rule="evenodd" clip-rule="evenodd" d="M1175.31 226.001C1175.31 237.754 1175.31 249.508 1175.31 261.261C1174.53 261.261 1173.74 261.261 1172.96 261.261C1172.96 258.128 1172.96 254.992 1172.96 251.859C1156.51 251.859 1140.05 251.859 1123.6 251.859C1123.6 254.992 1123.6 258.128 1123.6 261.261C1124 263.593 1123.22 265.159 1121.25 265.963C1121.25 256.56 1121.25 247.157 1121.25 237.754C1123.48 234.419 1124.26 230.503 1123.6 226.001C1140.83 226.001 1158.07 226.001 1175.31 226.001Z" fill="#FF9835"/>
<path opacity="0.984" fill-rule="evenodd" clip-rule="evenodd" d="M1657.19 216.598C1658.76 216.598 1659.54 217.381 1659.54 218.949C1659.15 225.265 1659.55 231.534 1660.71 237.754C1662.33 235.74 1664.29 234.174 1666.59 233.053C1698.74 234.118 1730.09 234.118 1760.62 233.053C1765.35 232.905 1769.27 234.47 1772.37 237.754C1772.37 239.322 1773.15 240.105 1774.72 240.105C1761.83 241.245 1755.56 248.297 1755.91 261.261C1755.13 261.261 1754.35 261.261 1753.56 261.261C1753.56 258.128 1753.56 254.992 1753.56 251.858C1727.89 250.432 1702.81 251.999 1678.34 256.56C1678.04 252.822 1676.47 249.689 1673.64 247.157C1668.45 245.733 1663.36 244.165 1658.36 242.456C1657.19 233.871 1656.8 225.253 1657.19 216.598Z" fill="#FF9736"/>
<path opacity="0.987" fill-rule="evenodd" clip-rule="evenodd" d="M1060.13 237.754C1062.89 240.138 1064.45 243.271 1064.83 247.157C1064.83 250.291 1064.83 253.426 1064.83 256.56C1038.3 256.823 1013.23 256.823 989.611 256.56C976.29 256.56 962.971 256.56 949.65 256.56C948.844 252.505 946.493 251.33 942.598 253.034C943.381 253.817 944.166 254.602 944.949 255.385C935.547 255.777 926.144 256.167 916.742 256.56C906.415 256.539 897.013 254.971 888.534 251.859C888.363 248.269 889.93 245.918 893.235 244.806C949.53 244.052 1005.16 241.701 1060.13 237.754Z" fill="#FF9037"/>
<path opacity="0.99" fill-rule="evenodd" clip-rule="evenodd" d="M1196.46 240.105C1225.28 242.018 1254.27 243.194 1283.44 243.631C1284.74 244.531 1285.53 245.707 1285.79 247.157C1285.09 251.63 1283.52 255.549 1281.09 258.91C1254.87 256.572 1228.23 255.789 1201.17 256.56C1198.66 251.386 1197.09 245.899 1196.46 240.105Z" fill="#FF9037"/>
<path fill-rule="evenodd" clip-rule="evenodd" d="M1379.81 209.546C1380.6 209.546 1381.38 209.546 1382.17 209.546C1382.17 228.352 1382.17 247.157 1382.17 265.963C1380.24 259.369 1379.06 252.317 1378.64 244.807C1377.5 247.035 1377.11 249.386 1377.46 251.859C1356.29 251.469 1335.14 251.859 1314 253.034C1312.19 256.49 1310.63 260.016 1309.3 263.612C1308.51 263.612 1307.73 263.612 1306.95 263.612C1306.95 254.992 1306.95 246.375 1306.95 237.755C1308.75 235.961 1309.93 233.61 1310.47 230.703C1312.82 232.27 1315.17 233.836 1317.52 235.404C1335.85 234.445 1354.26 234.445 1372.76 235.404C1378.86 231.711 1381.21 226.227 1379.81 218.949C1379.81 215.816 1379.81 212.68 1379.81 209.546Z" fill="#FF9437"/>
<path opacity="0.983" fill-rule="evenodd" clip-rule="evenodd" d="M1617.23 230.702C1618.01 230.702 1618.79 230.702 1619.58 230.702C1618.95 234.461 1619.73 237.594 1621.93 240.105C1621.93 243.238 1621.93 246.374 1621.93 249.508C1590.82 251.115 1559.48 252.681 1527.9 254.209C1526.18 251.369 1525.4 248.236 1525.55 244.806C1523.8 236.743 1526.94 232.825 1534.96 233.053C1562.11 234.306 1587.57 235.089 1611.35 235.404C1614.58 234.971 1616.54 233.403 1617.23 230.702Z" fill="#FF9437"/>
<path opacity="0.983" fill-rule="evenodd" clip-rule="evenodd" d="M2012.13 230.702C2012.02 238.857 2010.46 246.692 2007.43 254.209C1979.61 252.665 1951.8 251.097 1923.98 249.508C1923.08 250.815 1921.91 251.597 1920.46 251.858C1920.87 246.308 1921.65 240.824 1922.81 235.404C1925.42 230.129 1928.95 230.129 1933.39 235.404C1957.15 233.488 1981.83 233.488 2007.43 235.404C2009.03 233.657 2010.6 232.091 2012.13 230.702Z" fill="#FF9436"/>
<path opacity="0.991" fill-rule="evenodd" clip-rule="evenodd" d="M155.142 235.404C173.923 246.497 194.296 253.156 216.258 255.385C334.572 256.953 452.888 256.953 571.201 255.385C593.173 253.154 613.545 246.492 632.318 235.404C637.797 237.324 643.673 238.892 649.947 240.105C663.729 237.482 677.05 237.482 689.908 240.105C693.363 238.302 696.889 236.737 700.485 235.404C700.758 243.302 701.541 251.137 702.836 258.911C701.139 259.893 699.964 261.459 699.31 263.612C697.691 261.597 695.733 260.032 693.434 258.911C691.259 261.593 689.299 261.593 687.557 258.911C686.774 260.479 685.989 262.044 685.206 263.612C680.214 261.903 675.12 260.335 669.927 258.911C667.629 260.032 665.67 261.597 664.051 263.612C663.268 262.044 662.483 260.479 661.7 258.911C649.444 261.529 637.691 261.529 626.441 258.911C625.529 261.092 623.961 262.66 621.74 263.612C613.473 262.138 605.245 260.573 597.058 258.911C594.125 260.18 591.381 261.748 588.831 263.612C584.906 263.979 580.987 262.413 577.078 258.911C558.724 261.449 540.312 261.449 521.838 258.911C515.092 260.373 508.43 261.941 501.858 263.612C479.198 262.446 456.084 260.881 432.515 258.911C428.371 259.367 424.06 259.367 419.586 258.911C418.019 260.479 416.453 262.044 414.885 263.612C412.535 260.479 410.184 260.479 407.833 263.612C407.109 261.713 405.934 260.145 404.307 258.911C399.785 257.984 395.476 259.552 391.379 263.612C386.678 260.479 381.976 260.479 377.275 263.612C373.721 257.836 370.585 257.836 367.873 263.612C366.305 257.343 364.739 257.343 363.172 263.612C356.298 260.885 349.246 260.885 342.016 263.612C338.097 262.044 334.181 260.479 330.263 258.911C326.199 263.457 321.497 263.457 316.159 258.911C314.591 262.044 313.026 262.044 311.458 258.911C310.675 260.479 309.89 262.044 309.107 263.612C304.406 262.044 299.705 260.479 295.004 258.911C284.682 261.327 274.497 261.327 264.445 258.911C263.663 260.479 262.878 262.044 262.095 263.612C258.961 262.044 255.826 260.479 252.692 258.911C218.881 261.847 185.973 261.847 153.966 258.911C136.729 260.479 119.49 262.044 102.253 263.612C96.6568 261.414 90.7803 260.631 84.623 261.261C85.9178 253.488 86.7012 245.653 86.9737 237.754C108.828 239.273 130.376 240.058 151.616 240.105C153.302 238.826 154.477 237.258 155.142 235.404Z" fill="#FF8739"/>
<path fill-rule="evenodd" clip-rule="evenodd" d="M1172.96 261.261C1157.1 263.384 1140.64 263.384 1123.6 261.261C1123.6 258.128 1123.6 254.992 1123.6 251.858C1140.05 251.858 1156.51 251.858 1172.96 251.858C1172.96 254.992 1172.96 258.128 1172.96 261.261Z" fill="#FF8839"/>
<path opacity="0.999" fill-rule="evenodd" clip-rule="evenodd" d="M1621.93 249.508C1623.91 252.26 1625.48 255.396 1626.63 258.911C1624.77 259.576 1623.21 260.751 1621.93 262.437C1591.66 262.531 1562.67 262.921 1534.95 263.612C1530.38 262.354 1528.03 259.221 1527.9 254.209C1559.48 252.681 1590.82 251.116 1621.93 249.508Z" fill="#FF8839"/>
<path opacity="0.984" fill-rule="evenodd" clip-rule="evenodd" d="M1873.44 256.56C1873.44 257.343 1873.44 258.128 1873.44 258.911C1868.58 261.988 1862.7 263.553 1855.82 263.612C1844.31 262.963 1834.13 262.18 1825.26 261.261C1813.9 262.888 1802.54 264.456 1791.17 265.963C1788.82 261.261 1786.47 256.56 1784.12 251.858C1785.57 251.598 1786.75 250.815 1787.65 249.508C1814.5 251.44 1841.53 252.615 1868.74 253.034C1870.02 254.719 1871.59 255.895 1873.44 256.56Z" fill="#FF8739"/>
<path opacity="0.993" fill-rule="evenodd" clip-rule="evenodd" d="M2007.43 254.209C2005.64 258.6 2003.29 262.519 2000.38 265.963C1971.96 263.461 1944.54 261.896 1918.11 261.261C1917.95 257.832 1918.73 254.698 1920.46 251.858C1921.91 251.598 1923.08 250.815 1923.98 249.508C1951.8 251.097 1979.61 252.665 2007.43 254.209Z" fill="#FF8739"/>
<path opacity="0.999" fill-rule="evenodd" clip-rule="evenodd" d="M702.836 258.91C702.836 263.612 702.836 268.313 702.836 273.014C700.053 277.504 696.527 278.287 692.258 275.365C691.476 276.933 690.69 278.499 689.908 280.066C685.206 278.499 680.505 276.933 675.804 275.365C674.236 276.933 672.671 278.499 671.103 280.066C665.642 280.464 660.158 278.898 654.648 275.365C653.081 278.499 651.515 278.499 649.947 275.365C649.164 276.933 648.379 278.499 647.597 280.066C640.676 278.287 633.624 276.721 626.441 275.365C610.337 277.65 595.45 277.65 581.779 275.365C577.428 280.727 573.51 280.727 570.026 275.365C564.968 279.653 559.091 280.436 552.396 277.716C550.636 275.292 549.07 272.549 547.695 269.488C528.89 267.92 510.085 267.92 491.28 269.488C493.248 271.865 494.031 274.608 493.631 277.716C478.721 275.511 464.225 274.726 450.144 275.365C447.794 276.933 445.443 278.499 443.093 280.066C440.378 278.097 437.634 275.746 434.865 273.014C434.181 270.313 432.223 268.746 428.989 268.313C425.754 268.746 423.796 270.313 423.112 273.014C417.903 278 412.027 278.783 405.483 275.365C403.915 276.933 402.349 278.499 400.781 280.066C388.276 275.72 376.13 274.152 364.347 275.365C364.347 273.014 364.347 270.664 364.347 268.313C361.011 266.078 357.095 265.295 352.594 265.962C352.432 272.037 349.691 276.738 344.367 280.066C342.799 273.797 341.233 273.797 339.665 280.066C332.665 280.471 325.613 278.903 318.51 275.365C311.949 279.625 304.897 279.625 297.354 275.365C296.454 276.672 295.279 277.455 293.828 277.716C293.92 275.17 294.705 272.819 296.179 270.664C277.423 267.925 258.618 267.533 239.764 269.488C238.389 272.549 236.823 275.292 235.063 277.716C188.344 277.095 138.982 277.095 86.9737 277.716C87.6424 273.214 86.8587 269.298 84.623 265.962C84.623 264.394 84.623 262.829 84.623 261.261C90.7803 260.631 96.6568 261.414 102.253 263.612C119.49 262.044 136.729 260.478 153.966 258.91C185.973 261.846 218.881 261.846 252.692 258.91C255.826 260.478 258.961 262.044 262.095 263.612C262.878 262.044 263.663 260.478 264.445 258.91C274.497 261.327 284.682 261.327 295.004 258.91C299.705 260.478 304.406 262.044 309.107 263.612C309.89 262.044 310.675 260.478 311.458 258.91C313.026 262.044 314.591 262.044 316.159 258.91C321.497 263.457 326.199 263.457 330.263 258.91C334.181 260.478 338.097 262.044 342.016 263.612C349.246 260.885 356.298 260.885 363.172 263.612C364.739 257.342 366.305 257.342 367.873 263.612C370.585 257.836 373.721 257.836 377.275 263.612C381.976 260.478 386.678 260.478 391.379 263.612C395.476 259.552 399.785 257.984 404.307 258.91C405.934 260.144 407.109 261.712 407.833 263.612C410.184 260.478 412.535 260.478 414.885 263.612C416.453 262.044 418.019 260.478 419.586 258.91C424.06 259.366 428.371 259.366 432.515 258.91C456.084 260.88 479.198 262.446 501.858 263.612C508.43 261.94 515.092 260.372 521.838 258.91C540.312 261.449 558.724 261.449 577.078 258.91C580.987 262.413 584.906 263.978 588.831 263.612C591.381 261.748 594.125 260.18 597.058 258.91C605.245 260.572 613.473 262.138 621.74 263.612C623.961 262.66 625.529 261.092 626.441 258.91C637.691 261.529 649.444 261.529 661.7 258.91C662.483 260.478 663.268 262.044 664.051 263.612C665.67 261.597 667.629 260.032 669.927 258.91C675.12 260.335 680.214 261.903 685.206 263.612C685.989 262.044 686.774 260.478 687.557 258.91C689.299 261.592 691.259 261.592 693.434 258.91C695.733 260.032 697.691 261.597 699.31 263.612C699.964 261.458 701.139 259.893 702.836 258.91Z" fill="#FF803A"/>
<path fill-rule="evenodd" clip-rule="evenodd" d="M1064.83 247.157C1067.54 254.139 1071.46 260.408 1076.58 265.963C1075.16 269.55 1072.42 271.901 1068.36 273.015C1042.16 270.939 1016.7 270.156 991.96 270.664C992.371 265.678 991.586 260.977 989.609 256.56C1013.22 256.823 1038.3 256.823 1064.83 256.56C1064.83 253.427 1064.83 250.291 1064.83 247.157Z" fill="#FF823A"/>
<path fill-rule="evenodd" clip-rule="evenodd" d="M1201.17 256.56C1228.23 255.789 1254.87 256.572 1281.09 258.911C1281.09 260.478 1281.09 262.044 1281.09 263.612C1277.75 264.2 1275.4 266.158 1274.04 269.489C1267.16 270.001 1260.5 271.176 1254.06 273.015C1238.07 271.317 1222.01 269.752 1205.87 268.313C1203.66 264.67 1202.09 260.753 1201.17 256.56Z" fill="#FF823A"/>
<path fill-rule="evenodd" clip-rule="evenodd" d="M1382.17 265.963C1383.73 265.963 1384.52 266.746 1384.52 268.313C1376.53 269.954 1368.3 271.522 1359.84 273.015C1343.2 270.711 1326.35 269.928 1309.3 270.664C1309.3 268.313 1309.3 265.963 1309.3 263.612C1310.63 260.016 1312.2 256.49 1314 253.034C1335.14 251.859 1356.3 251.468 1377.46 251.859C1377.11 249.386 1377.5 247.035 1378.64 244.807C1379.07 252.317 1380.24 259.369 1382.17 265.963Z" fill="#FF833A"/>
<path opacity="0.999" fill-rule="evenodd" clip-rule="evenodd" d="M1504.4 244.807C1504.4 251.859 1504.4 258.911 1504.4 265.963C1489.9 269.907 1474.62 272.258 1458.56 273.015C1454.64 269.881 1450.72 269.881 1446.81 273.015C1440.32 271.776 1434.44 269.425 1429.18 265.963C1429.18 262.044 1429.18 258.128 1429.18 254.209C1430.87 253.227 1432.05 251.661 1432.7 249.508C1455.62 251.826 1478.74 252.609 1502.05 251.859C1501.49 248.824 1502.27 246.473 1504.4 244.807Z" fill="#FF833A"/>
<path fill-rule="evenodd" clip-rule="evenodd" d="M1753.56 261.261C1753.56 264.395 1753.56 267.531 1753.56 270.664C1724.24 270.695 1695.64 271.477 1667.76 273.015C1665.42 271.684 1663.47 270.116 1661.89 268.313C1669.41 267.035 1674.89 263.118 1678.34 256.56C1702.81 252 1727.89 250.432 1753.56 251.859C1753.56 254.992 1753.56 258.128 1753.56 261.261Z" fill="#FF833A"/>
<path opacity="0.985" fill-rule="evenodd" clip-rule="evenodd" d="M84.623 265.962C86.8587 269.298 87.6424 273.214 86.9737 277.716C138.982 277.095 188.344 277.095 235.063 277.716C235.22 281.145 234.437 284.279 232.712 287.119C227.59 288.536 222.496 290.104 217.433 291.82C177.046 290.583 135.518 289.801 92.8502 289.469C89.7883 290.593 87.0458 292.161 84.623 294.171C84.623 284.768 84.623 275.365 84.623 265.962Z" fill="#FF793B"/>
<path opacity="0.941" fill-rule="evenodd" clip-rule="evenodd" d="M1123.6 261.261C1140.64 263.384 1157.1 263.384 1172.96 261.261C1173.74 261.261 1174.53 261.261 1175.31 261.261C1176.55 264.131 1178.12 266.872 1180.01 269.489C1186.05 271.6 1191.53 274.343 1196.47 277.716C1169.03 278.109 1141.61 277.716 1114.19 276.541C1112.89 275.64 1112.1 274.465 1111.84 273.015C1114.98 270.664 1118.11 268.313 1121.25 265.963C1123.22 265.159 1124 263.593 1123.6 261.261Z" fill="#FE7A3B"/>
<path opacity="0.983" fill-rule="evenodd" clip-rule="evenodd" d="M1626.63 258.911C1636.85 267.122 1648.6 270.257 1661.89 268.313C1663.47 270.116 1665.42 271.684 1667.76 273.015C1695.64 271.477 1724.24 270.695 1753.56 270.664C1753.56 273.015 1753.56 275.365 1753.56 277.716C1684.56 276.167 1616.4 277.735 1549.06 282.417C1543.22 277.011 1538.52 270.742 1534.95 263.612C1562.67 262.921 1591.66 262.531 1621.93 262.437C1623.2 260.751 1624.77 259.576 1626.63 258.911Z" fill="#FE7A3B"/>
<path opacity="0.964" fill-rule="evenodd" clip-rule="evenodd" d="M1873.44 258.911C1887.39 279.771 1902.28 280.553 1918.11 261.261C1944.54 261.896 1971.96 263.462 2000.38 265.963C1998.91 271.261 1995.78 275.18 1990.97 277.716C1989.52 277.455 1988.35 276.672 1987.45 275.365C1927.68 277.312 1867.74 278.487 1807.63 278.891C1811.15 280.861 1811.93 282.819 1809.98 284.768C1801.59 280.582 1795.32 274.312 1791.17 265.963C1802.54 264.456 1813.9 262.888 1825.26 261.261C1834.12 262.18 1844.31 262.963 1855.81 263.612C1862.7 263.553 1868.58 261.988 1873.44 258.911Z" fill="#FF7B3B"/>
<path opacity="0.963" fill-rule="evenodd" clip-rule="evenodd" d="M888.535 251.858C897.013 254.971 906.416 256.539 916.742 256.56C926.144 256.167 935.547 255.777 944.949 255.384C944.167 254.602 943.382 253.817 942.599 253.034C946.494 251.329 948.844 252.505 949.651 256.56C947.013 260.208 945.838 264.124 946.125 268.313C950.932 271.665 956.026 274.016 961.404 275.365C961.754 277.838 961.364 280.189 960.228 282.417C958.583 278.816 955.842 276.465 952.001 275.365C922.344 277.671 892.571 278.454 862.678 277.716C875.087 273.144 883.704 264.524 888.535 251.858Z" fill="#FF7B3B"/>
<path opacity="0.964" fill-rule="evenodd" clip-rule="evenodd" d="M364.347 268.313C361.214 268.313 358.078 268.313 354.945 268.313C352.777 284.881 350.427 301.335 347.893 317.677C344.889 317.015 342.538 315.447 340.841 312.976C339.844 298.67 332.01 291.618 317.335 291.82C302.427 292.624 294.592 300.459 293.828 315.327C289.889 313.721 288.321 310.585 289.127 305.924C290.19 296.413 291.758 287.01 293.828 277.716C295.279 277.455 296.454 276.672 297.354 275.365C304.898 279.625 311.949 279.625 318.51 275.365C325.614 278.903 332.665 280.471 339.666 280.066C341.233 273.797 342.799 273.797 344.367 280.066C349.691 276.738 352.432 272.037 352.594 265.962C357.095 265.295 361.012 266.078 364.347 268.313Z" fill="#FF763B"/>
<path opacity="0.955" fill-rule="evenodd" clip-rule="evenodd" d="M423.112 273.015C424.32 287.876 425.103 302.763 425.463 317.678C423.368 316.244 421.018 315.461 418.411 315.327C417.445 299.864 409.218 292.029 393.729 291.82C380.778 291.801 373.333 298.068 371.399 310.626C369.126 313.696 365.99 315.264 361.996 315.327C362.607 301.994 363.39 288.673 364.347 275.365C376.13 274.152 388.276 275.72 400.781 280.067C402.349 278.499 403.915 276.933 405.483 275.365C412.027 278.783 417.903 278 423.112 273.015Z" fill="#FF773B"/>
<path opacity="0.986" fill-rule="evenodd" clip-rule="evenodd" d="M702.836 273.015C702.836 280.849 702.836 288.687 702.836 296.521C700.711 294.855 699.928 292.504 700.486 289.469C670.915 290.969 642.315 290.969 614.688 289.469C613.003 290.748 611.827 292.316 611.162 294.171C588.528 286.656 575.992 294.491 573.552 317.678C570.945 317.544 568.595 316.761 566.5 315.327C560.457 303.487 555.756 290.948 552.396 277.716C559.091 280.436 564.968 279.653 570.026 275.365C573.51 280.727 577.428 280.727 581.779 275.365C595.45 277.65 610.337 277.65 626.441 275.365C633.625 276.722 640.676 278.287 647.597 280.067C648.379 278.499 649.164 276.933 649.947 275.365C651.515 278.499 653.081 278.499 654.648 275.365C660.158 278.898 665.642 280.464 671.103 280.067C672.671 278.499 674.236 276.933 675.804 275.365C680.505 276.933 685.207 278.499 689.908 280.067C690.691 278.499 691.476 276.933 692.258 275.365C696.527 278.287 700.053 277.504 702.836 273.015Z" fill="#FF783B"/>
<path opacity="0.969" fill-rule="evenodd" clip-rule="evenodd" d="M434.865 273.015C437.634 275.746 440.377 278.097 443.092 280.067C445.443 278.499 447.794 276.933 450.144 275.365C464.224 274.726 478.721 275.511 493.631 277.716C495.979 288.675 498.33 299.646 500.683 310.626C498.985 313.096 496.635 314.664 493.631 315.327C491.268 295.706 480.298 288.261 460.722 292.995C446.75 300.478 442.831 311.841 448.969 327.08C446.628 327.283 444.67 326.497 443.092 324.73C442.002 326.126 441.609 327.694 441.917 329.431C438.224 311.117 435.874 292.311 434.865 273.015Z" fill="#FF763B"/>
<path opacity="0.999" fill-rule="evenodd" clip-rule="evenodd" d="M961.404 275.365C963.712 283.503 964.495 292.123 963.754 301.223C961.853 297.01 960.677 292.309 960.228 287.119C959.446 288.687 958.661 290.252 957.878 291.82C926.335 290.8 894.602 290.017 862.678 289.469C862.678 285.551 862.678 281.635 862.678 277.716C892.571 278.454 922.344 277.671 952.001 275.365C955.842 276.465 958.583 278.816 960.228 282.417C961.364 280.189 961.754 277.838 961.404 275.365Z" fill="#FE723C"/>
<path fill-rule="evenodd" clip-rule="evenodd" d="M1076.58 265.962C1081.4 269.665 1086.88 272.015 1093.04 273.014C1093.42 279.331 1093.03 285.6 1091.86 291.82C1055.84 290.259 1019.8 289.474 983.735 289.469C981.92 289.81 980.352 290.593 979.034 291.82C978.585 297.01 977.409 301.712 975.508 305.924C975.508 294.953 975.508 283.985 975.508 273.014C981.156 273.137 986.64 272.354 991.962 270.664C1016.7 270.156 1042.16 270.939 1068.36 273.014C1072.42 271.9 1075.16 269.55 1076.58 265.962Z" fill="#FF743C"/>
<path opacity="0.999" fill-rule="evenodd" clip-rule="evenodd" d="M1111.84 273.015C1112.11 274.465 1112.89 275.64 1114.19 276.541C1141.61 277.716 1169.03 278.109 1196.47 277.716C1196.47 287.119 1196.47 296.521 1196.47 305.924C1193.43 302.77 1191.47 298.851 1190.59 294.171C1163.53 295.638 1137.28 296.42 1111.84 296.521C1109.55 295.4 1107.59 293.835 1105.97 291.82C1105.18 295.739 1104.4 299.655 1103.62 303.574C1102.44 294.989 1102.05 286.371 1102.44 277.716C1104.83 274.956 1107.96 273.391 1111.84 273.015Z" fill="#FF713C"/>
<path opacity="0.999" fill-rule="evenodd" clip-rule="evenodd" d="M1306.95 263.612C1307.73 263.612 1308.51 263.612 1309.3 263.612C1309.3 265.963 1309.3 268.313 1309.3 270.664C1326.35 269.928 1343.2 270.711 1359.84 273.015C1368.3 271.522 1376.53 269.954 1384.52 268.313C1390.88 271.451 1397.15 274.587 1403.32 277.716C1401.42 281.928 1400.24 286.63 1399.8 291.82C1362.55 291.822 1326.11 291.037 1290.49 289.469C1290.49 284.768 1290.49 280.067 1290.49 275.365C1298.33 274.235 1303.81 270.318 1306.95 263.612Z" fill="#FF743C"/>
<path fill-rule="evenodd" clip-rule="evenodd" d="M1429.18 265.962C1434.44 269.425 1440.32 271.776 1446.81 273.014C1450.72 269.881 1454.64 269.881 1458.56 273.014C1474.62 272.258 1489.9 269.907 1504.4 265.962C1511.84 271.644 1519.68 276.738 1527.9 281.242C1526.13 282.819 1525.35 284.777 1525.55 287.119C1521.08 289.133 1516.38 290.699 1511.45 291.82C1480.67 291.103 1448.15 291.103 1413.9 291.82C1413.4 288.158 1412.23 285.024 1410.37 282.417C1417.5 278.047 1423.76 272.561 1429.18 265.962Z" fill="#FF743C"/>
<path opacity="0.999" fill-rule="evenodd" clip-rule="evenodd" d="M1281.09 263.612C1276.54 278.019 1271.06 292.123 1264.63 305.924C1250.01 309.001 1235.51 309.001 1221.15 305.924C1216.63 293 1211.54 280.462 1205.87 268.313C1222.01 269.752 1238.07 271.317 1254.05 273.015C1260.5 271.176 1267.16 270.001 1274.04 269.489C1275.39 266.158 1277.74 264.199 1281.09 263.612Z" fill="#FF713B"/>
<path fill-rule="evenodd" clip-rule="evenodd" d="M1753.56 277.716C1754.31 283.005 1753.14 287.707 1750.04 291.82C1690.09 289.479 1629.37 289.479 1567.86 291.82C1564.69 288.412 1560.77 286.844 1556.11 287.119C1552.52 287.29 1550.17 285.723 1549.06 282.417C1616.4 277.735 1684.56 276.167 1753.56 277.716Z" fill="#FE723C"/>
<path opacity="0.999" fill-rule="evenodd" clip-rule="evenodd" d="M1990.98 277.716C1986.16 282.528 1980.67 286.446 1974.52 289.469C1925.46 291.58 1876.49 291.58 1827.61 289.469C1825.19 290.259 1824.01 291.827 1824.08 294.171C1818.69 291.879 1813.99 288.745 1809.98 284.768C1811.94 282.819 1811.15 280.861 1807.63 278.891C1867.74 278.487 1927.68 277.312 1987.45 275.365C1988.35 276.672 1989.53 277.455 1990.98 277.716Z" fill="#FE723C"/>
<path opacity="0.771" fill-rule="evenodd" clip-rule="evenodd" d="M1410.37 282.417C1412.23 285.024 1413.4 288.158 1413.9 291.82C1448.15 291.103 1480.67 291.103 1511.45 291.82C1516.38 290.699 1521.08 289.133 1525.55 287.119C1525.55 294.171 1525.55 301.223 1525.55 308.275C1487.16 308.275 1448.76 308.275 1410.37 308.275C1410.37 299.655 1410.37 291.037 1410.37 282.417Z" fill="#FF6839"/>
<path opacity="0.775" fill-rule="evenodd" clip-rule="evenodd" d="M963.754 301.223C963.754 303.573 963.754 305.924 963.754 308.275C930.063 308.275 896.369 308.275 862.678 308.275C862.678 302.006 862.678 295.739 862.678 289.469C894.602 290.017 926.335 290.8 957.878 291.82C958.661 290.252 959.446 288.687 960.228 287.119C960.677 292.309 961.853 297.01 963.754 301.223Z" fill="#FE6839"/>
<path opacity="0.997" fill-rule="evenodd" clip-rule="evenodd" d="M232.712 287.119C229.205 297.666 225.289 307.852 220.959 317.678C217.851 318.077 215.108 317.294 212.732 315.327C210.381 316.895 208.031 318.46 205.68 320.028C200.034 315.306 195.333 315.306 191.576 320.028C183.43 318.378 175.203 316.81 166.895 315.327C147.158 317.149 127.962 317.149 109.305 315.327C106.065 320.86 102.539 320.86 98.7268 315.327C94.7735 318.399 90.856 318.399 86.9737 315.327C85.4253 308.381 84.6416 301.329 84.623 294.171C87.0458 292.161 89.7883 290.593 92.8502 289.469C135.518 289.801 177.046 290.584 217.433 291.82C222.496 290.104 227.59 288.536 232.712 287.119Z" fill="#FE723C"/>
<path opacity="0.998" fill-rule="evenodd" clip-rule="evenodd" d="M702.836 296.521C703.356 303.054 702.573 309.323 700.486 315.327C674.462 316.512 648.605 317.297 622.915 317.677C623.545 313.919 622.76 310.785 620.565 308.275C618.414 302.976 615.28 298.275 611.162 294.171C611.827 292.316 613.003 290.748 614.688 289.469C642.315 290.969 670.915 290.969 700.486 289.469C699.929 292.504 700.711 294.855 702.836 296.521Z" fill="#FF723C"/>
<path opacity="0.778" fill-rule="evenodd" clip-rule="evenodd" d="M1290.49 275.365C1290.49 280.067 1290.49 284.768 1290.49 289.469C1326.11 291.037 1362.54 291.822 1399.79 291.82C1400.24 286.63 1401.42 281.928 1403.32 277.716C1403.32 287.901 1403.32 298.089 1403.32 308.275C1364.93 308.275 1326.53 308.275 1288.14 308.275C1287.39 296.843 1288.17 285.873 1290.49 275.365Z" fill="#FE6739"/>
<path opacity="0.779" fill-rule="evenodd" clip-rule="evenodd" d="M1093.04 273.015C1095.36 284.31 1096.14 296.063 1095.39 308.275C1055.02 309.051 1015.06 308.268 975.508 305.924C977.409 301.712 978.585 297.01 979.034 291.82C980.352 290.593 981.92 289.81 983.735 289.469C1019.8 289.474 1055.84 290.259 1091.86 291.82C1093.03 285.6 1093.42 279.331 1093.04 273.015Z" fill="#FF6839"/>
<path opacity="0.785" fill-rule="evenodd" clip-rule="evenodd" d="M1102.44 277.716C1102.05 286.371 1102.44 294.989 1103.62 303.573C1104.4 299.655 1105.18 295.739 1105.97 291.82C1107.59 293.834 1109.54 295.4 1111.84 296.521C1137.28 296.42 1163.53 295.637 1190.59 294.171C1191.47 298.851 1193.43 302.769 1196.46 305.924C1165.53 308.651 1134.19 309.043 1102.44 307.099C1099.33 297.069 1099.33 287.274 1102.44 277.716Z" fill="#FE6639"/>
<path opacity="0.947" fill-rule="evenodd" clip-rule="evenodd" d="M1753.56 261.261C1754.34 261.261 1755.13 261.261 1755.91 261.261C1755.91 276.148 1755.91 291.037 1755.91 305.924C1744.13 306.314 1732.38 305.922 1720.65 304.749C1718.54 301.843 1715.8 299.883 1712.43 298.872C1677.37 308.583 1641.72 312.109 1605.47 309.45C1586.32 307.151 1569.87 299.707 1556.11 287.119C1560.77 286.844 1564.69 288.412 1567.86 291.82C1629.37 289.479 1690.09 289.479 1750.04 291.82C1753.14 287.706 1754.31 283.005 1753.56 277.716C1753.56 275.365 1753.56 273.015 1753.56 270.664C1753.56 267.531 1753.56 264.395 1753.56 261.261Z" fill="#FE6939"/>
<path opacity="0.943" fill-rule="evenodd" clip-rule="evenodd" d="M1974.52 289.469C1964.73 298.651 1952.97 304.528 1939.26 307.099C1911.07 311.74 1882.86 311.74 1854.64 307.099C1843.57 304.342 1833.38 300.031 1824.08 294.171C1824.01 291.827 1825.19 290.259 1827.61 289.469C1876.49 291.58 1925.46 291.58 1974.52 289.469Z" fill="#FE6939"/>
<path opacity="0.971" fill-rule="evenodd" clip-rule="evenodd" d="M371.398 310.625C370.641 326.751 378.478 334.586 394.904 334.132C407.654 333.914 415.488 327.644 418.41 315.327C421.017 315.461 423.367 316.244 425.462 317.678C426.87 336.45 427.653 355.256 427.813 374.094C405.089 374.094 382.368 374.094 359.645 374.094C360.093 354.489 360.876 334.899 361.995 315.327C365.989 315.263 369.125 313.695 371.398 310.625Z" fill="#FE6538"/>
<path opacity="0.969" fill-rule="evenodd" clip-rule="evenodd" d="M289.127 305.924C288.321 310.586 289.889 313.722 293.828 315.327C296.759 327.654 304.594 333.923 317.334 334.133C332.313 334.544 340.15 327.492 340.841 312.976C342.538 315.447 344.888 317.015 347.893 317.678C346.992 336.37 344.642 354.786 340.841 372.919C322.818 374.487 304.799 374.487 286.776 372.919C279.861 370.709 276.728 366.008 277.374 358.815C280.444 340.689 284.362 323.058 289.127 305.924Z" fill="#FE6538"/>
<path opacity="0.959" fill-rule="evenodd" clip-rule="evenodd" d="M500.682 310.625C505.721 329.151 508.464 347.957 508.909 367.042C506.786 369.865 504.045 371.826 500.682 372.919C482.61 374.872 464.588 374.482 446.617 371.743C443.51 357.844 441.942 343.74 441.916 329.431C441.608 327.694 442.001 326.126 443.091 324.73C444.669 326.497 446.627 327.282 448.968 327.08C463.478 337.256 477.189 336.474 490.104 324.73C491.963 321.803 493.138 318.67 493.63 315.327C496.634 314.664 498.984 313.096 500.682 310.625Z" fill="#FE6538"/>
<path opacity="0.981" fill-rule="evenodd" clip-rule="evenodd" d="M620.564 308.275C622.759 310.785 623.544 313.919 622.914 317.678C648.604 317.297 674.461 316.512 700.485 315.327C699.457 331.977 695.539 347.649 688.732 362.341C689.627 356.6 688.059 355.032 684.03 357.639C677.822 352.907 671.161 352.907 664.05 357.639C660.447 354.83 656.921 354.83 653.472 357.639C651.173 356.518 649.215 354.952 647.596 352.938C643.839 357.66 639.138 357.66 633.492 352.938C630.011 355.22 628.05 358.354 627.615 362.341C622.515 351.8 617.813 340.832 613.512 329.431C619.569 323.742 621.92 316.69 620.564 308.275Z" fill="#FF6839"/>
<path opacity="0.992" fill-rule="evenodd" clip-rule="evenodd" d="M86.9727 315.327C90.8549 318.399 94.7725 318.399 98.7258 315.327C102.538 320.861 106.064 320.861 109.304 315.327C127.961 317.149 147.157 317.149 166.894 315.327C175.202 316.81 183.429 318.378 191.575 320.029C195.332 315.306 200.033 315.306 205.679 320.029C208.03 318.461 210.38 316.895 212.731 315.327C215.107 317.295 217.85 318.077 220.958 317.678C217.181 331.366 212.479 344.685 206.854 357.639C198.752 354.743 191.307 354.743 184.523 357.639C180.212 352.336 176.294 352.336 172.77 357.639C171.028 354.957 169.069 354.957 166.894 357.639C165.266 356.405 164.091 354.837 163.368 352.938C162.645 354.837 161.469 356.405 159.842 357.639C154.564 355.672 148.688 355.672 142.212 357.639C139.99 356.687 138.423 355.12 137.511 352.938C136.728 354.506 135.944 356.072 135.16 357.639C128.577 354.595 121.917 354.595 115.18 357.639C110.049 353.975 104.956 352.407 99.9011 352.938C98.7662 355.167 98.3743 357.517 98.7258 359.99C92.2914 346.018 88.3736 331.131 86.9727 315.327Z" fill="#FF6839"/>
<path opacity="0.908" fill-rule="evenodd" clip-rule="evenodd" d="M566.5 315.327C568.594 316.761 570.945 317.544 573.552 317.678C577.593 327.196 584.644 333.465 594.707 336.483C599.585 348.763 603.503 361.302 606.461 374.094C599.239 374.839 592.188 374.057 585.305 371.744C578.545 353.03 572.275 334.224 566.5 315.327Z" fill="#FE6639"/>
<path opacity="0.952" fill-rule="evenodd" clip-rule="evenodd" d="M1727.71 385.848C1719.62 386.774 1711.39 387.559 1703.03 388.198C1699.75 382.693 1697.8 382.693 1697.15 388.198C1697.92 410.565 1697.13 432.504 1694.8 454.018C1695.19 429.714 1694.8 405.424 1693.62 381.146C1692.84 381.929 1692.06 382.714 1691.27 383.497C1687.72 377.721 1684.58 377.721 1681.87 383.497C1676.99 380.542 1672.68 381.325 1668.94 385.848C1668.94 372.526 1668.94 359.207 1668.94 345.886C1679.25 345.12 1689.43 345.905 1699.5 348.237C1708.13 361.539 1717.53 374.075 1727.71 385.848Z" fill="#FD442E"/>
<path opacity="0.942" fill-rule="evenodd" clip-rule="evenodd" d="M904.989 381.146C903.538 381.407 902.363 382.19 901.463 383.497C892.989 380.465 884.762 378.897 876.781 378.796C894.347 349.659 920.204 338.296 954.352 344.711C974.308 349.391 986.844 361.537 991.962 381.146C983.307 381.534 974.689 381.144 966.105 379.971C952.664 366.701 936.992 363.566 919.092 370.568C914.015 373.699 909.314 377.225 904.989 381.146Z" fill="#FE472F"/>
<path opacity="0.944" fill-rule="evenodd" clip-rule="evenodd" d="M1904 388.198C1896.61 386.621 1889.16 385.838 1881.67 385.848C1880.01 387.919 1878.05 389.484 1875.8 390.549C1882.29 367.209 1897.18 351.93 1920.46 344.711C1953.11 337.936 1978.18 348.514 1995.68 376.445C1995.19 377.822 1994.4 378.998 1993.33 379.971C1984.71 381.539 1976.09 381.539 1967.47 379.971C1954.03 366.701 1938.36 363.566 1920.46 370.568C1914.42 376.2 1908.94 382.077 1904 388.198Z" fill="#FE462F"/>
<path opacity="0.964" fill-rule="evenodd" clip-rule="evenodd" d="M1412.72 449.316C1420.55 453.542 1429.17 455.108 1438.58 454.017C1438.58 433.644 1438.58 413.273 1438.58 392.899C1421.98 389.599 1405.53 387.248 1389.21 385.847C1396.54 373.17 1403.59 360.241 1410.37 347.061C1420.53 345.888 1430.71 345.495 1440.93 345.886C1440.93 382.714 1440.93 419.54 1440.93 456.368C1431.53 456.368 1422.12 456.368 1412.72 456.368C1412.72 454.017 1412.72 451.666 1412.72 449.316Z" fill="#FD412D"/>
<path opacity="0.965" fill-rule="evenodd" clip-rule="evenodd" d="M1172.96 385.847C1167.08 388.854 1161.2 388.854 1155.33 385.847C1152 387.206 1150.04 389.557 1149.45 392.899C1146.76 389.138 1144.02 385.22 1141.23 381.146C1139.45 388.631 1135.93 394.9 1130.65 399.952C1129.93 398.424 1129.15 396.856 1128.3 395.25C1122.81 393.682 1117.33 392.117 1111.84 390.549C1113.11 387.615 1114.68 384.872 1116.54 382.321C1116.01 381.383 1115.22 380.993 1114.19 381.146C1117.57 369.682 1122.27 358.711 1128.3 348.236C1136.81 345.512 1145.43 345.122 1154.15 347.061C1162.61 358.878 1168.88 371.807 1172.96 385.847Z" fill="#FD422E"/>
<path fill-rule="evenodd" clip-rule="evenodd" d="M206.855 357.639C202.149 370.972 197.448 384.291 192.751 397.601C188.887 397.098 185.361 397.883 182.173 399.951C181.45 398.052 180.275 396.484 178.647 395.25C176.472 397.932 174.513 397.932 172.771 395.25C167.449 401.087 161.964 401.087 156.316 395.25C152.175 396.294 152.567 397.469 157.492 398.776C153.104 400.447 149.578 399.272 146.914 395.25C146.13 396.818 145.347 398.384 144.563 399.951C140.645 396.818 136.728 396.818 132.81 399.951C129.403 397.333 126.269 394.982 123.408 392.899C122.424 395.654 120.857 398.005 118.706 399.951C117.726 396.999 115.768 395.431 112.83 395.25C106.258 384.425 101.557 372.672 98.7262 359.99C98.3748 357.517 98.7666 355.166 99.9015 352.938C104.956 352.407 110.05 353.974 115.181 357.639C121.917 354.595 128.577 354.595 135.161 357.639C135.944 356.071 136.728 354.506 137.511 352.938C138.423 355.119 139.99 356.687 142.213 357.639C148.688 355.672 154.565 355.672 159.842 357.639C161.47 356.405 162.645 354.837 163.368 352.938C164.091 354.837 165.267 356.405 166.894 357.639C169.07 354.957 171.028 354.957 172.771 357.639C176.295 352.336 180.213 352.336 184.524 357.639C191.308 354.743 198.752 354.743 206.855 357.639Z" fill="#FE5D36"/>
<path fill-rule="evenodd" clip-rule="evenodd" d="M688.731 362.341C685.755 376.116 680.269 388.652 672.277 399.952C670.025 398.887 668.065 397.321 666.4 395.25C665.488 397.432 663.921 399 661.699 399.952C654.673 400.304 647.621 398.739 640.544 395.25C637.864 401.169 635.123 401.169 632.316 395.25C634.615 394.519 636.183 392.951 637.018 390.549C632.519 381.562 629.385 372.16 627.615 362.341C628.05 358.354 630.011 355.221 633.492 352.938C639.138 357.661 643.839 357.661 647.596 352.938C649.215 354.953 651.173 356.518 653.472 357.639C656.92 354.83 660.446 354.83 664.05 357.639C671.16 352.907 677.822 352.907 684.03 357.639C688.059 355.032 689.627 356.6 688.731 362.341Z" fill="#FE5D36"/>
<path opacity="0.999" fill-rule="evenodd" clip-rule="evenodd" d="M192.751 397.601C189.961 407.161 186.044 416.171 180.998 424.634C163.76 429.335 146.522 429.335 129.284 424.634C122.255 415.659 116.77 405.866 112.83 395.25C115.768 395.431 117.727 396.999 118.707 399.951C120.857 398.005 122.424 395.654 123.408 392.899C126.269 394.982 129.404 397.333 132.81 399.951C136.728 396.818 140.646 396.818 144.563 399.951C145.347 398.384 146.131 396.818 146.914 395.25C149.578 399.272 153.104 400.447 157.492 398.776C152.567 397.469 152.175 396.294 156.317 395.25C161.965 401.087 167.45 401.087 172.771 395.25C174.513 397.932 176.472 397.932 178.647 395.25C180.275 396.484 181.45 398.052 182.173 399.951C185.361 397.883 188.887 397.098 192.751 397.601Z" fill="#FE5333"/>
<path opacity="0.979" fill-rule="evenodd" clip-rule="evenodd" d="M632.317 395.25C635.124 401.17 637.865 401.17 640.545 395.25C647.622 398.739 654.674 400.304 661.7 399.952C663.922 399 665.489 397.432 666.401 395.25C668.066 397.321 670.026 398.887 672.278 399.952C669.253 410.429 663.769 419.439 655.824 426.985C640.937 428.553 626.048 428.553 611.162 426.985C605.72 424.378 602.194 420.067 600.584 414.056C597.495 407.97 595.927 401.701 595.883 395.25C608.026 398.33 620.172 398.33 632.317 395.25Z" fill="#FE5333"/>
<path opacity="0.986" fill-rule="evenodd" clip-rule="evenodd" d="M1539.66 345.886C1549.06 345.886 1558.46 345.886 1567.86 345.886C1567.86 382.714 1567.86 419.54 1567.86 456.368C1558.46 456.368 1549.06 456.368 1539.66 456.368C1539.66 419.54 1539.66 382.714 1539.66 345.886Z" fill="#FA372B"/>
<path opacity="0.984" fill-rule="evenodd" clip-rule="evenodd" d="M1694.8 454.017C1686.66 456.326 1678.04 457.108 1668.94 456.368C1668.94 432.861 1668.94 409.354 1668.94 385.847C1672.68 381.325 1676.99 380.542 1681.87 383.497C1684.58 377.721 1687.72 377.721 1691.27 383.497C1692.06 382.714 1692.84 381.929 1693.62 381.146C1694.8 405.424 1695.19 429.714 1694.8 454.017Z" fill="#F8322A"/>
<path opacity="0.989" fill-rule="evenodd" clip-rule="evenodd" d="M1697.15 388.198C1697.79 382.693 1699.75 382.693 1703.02 388.198C1711.39 387.559 1719.62 386.774 1727.71 385.847C1735.89 395.868 1744.12 406.056 1752.39 416.406C1753.56 392.914 1753.95 369.407 1753.56 345.886C1762.97 345.886 1772.37 345.886 1781.77 345.886C1781.77 382.714 1781.77 419.54 1781.77 456.368C1771.55 456.758 1761.37 456.366 1751.21 455.193C1733.58 432.476 1715.56 410.144 1697.15 388.198Z" fill="#F9362B"/>
<path opacity="0.98" fill-rule="evenodd" clip-rule="evenodd" d="M1114.19 381.146C1115.22 380.993 1116.01 381.383 1116.54 382.321C1114.68 384.872 1113.11 387.615 1111.84 390.549C1117.33 392.117 1122.81 393.682 1128.3 395.25C1129.15 396.856 1129.93 398.424 1130.65 399.951C1130.56 402.497 1129.77 404.848 1128.3 407.004C1136.92 410.137 1145.53 410.137 1154.15 407.004C1152.1 402.42 1150.54 397.718 1149.45 392.899C1150.04 389.557 1152 387.206 1155.33 385.847C1161.2 388.854 1167.08 388.854 1172.96 385.847C1187.69 407.485 1198.66 430.992 1205.87 456.368C1196.34 457.13 1186.93 456.347 1177.66 454.017C1175.47 446.895 1172.34 440.235 1168.26 434.036C1151.02 432.469 1133.78 432.469 1116.54 434.036C1112.63 441.088 1108.71 448.141 1104.79 455.193C1096.21 456.366 1087.59 456.756 1078.93 456.368C1088.01 429.855 1099.76 404.782 1114.19 381.146Z" fill="#F9332A"/>
<path opacity="0.988" fill-rule="evenodd" clip-rule="evenodd" d="M1389.22 385.848C1405.53 387.249 1421.99 389.599 1438.58 392.9C1438.58 413.273 1438.58 433.644 1438.58 454.017C1429.17 455.108 1420.55 453.543 1412.72 449.316C1413.11 432.06 1412.72 414.822 1411.55 397.601C1401.19 415.962 1391.4 434.768 1382.16 454.017C1372.26 457.069 1362.46 457.069 1352.78 454.017C1342.78 436.366 1333.38 418.343 1324.57 399.952C1323.79 417.974 1323.01 435.995 1322.22 454.017C1313.46 456.274 1304.45 457.057 1295.19 456.368C1295.19 419.54 1295.19 382.714 1295.19 345.886C1306 345.181 1316.58 345.963 1326.92 348.237C1340.25 374.094 1353.56 399.952 1366.89 425.809C1375.55 413.184 1382.99 399.862 1389.22 385.848Z" fill="#F9352B"/>
<path opacity="0.986" fill-rule="evenodd" clip-rule="evenodd" d="M876.781 378.795C884.761 378.896 892.989 380.464 901.463 383.497C902.363 382.19 903.538 381.407 904.989 381.146C895.551 423.033 912.005 439.88 954.352 431.686C959.154 427.671 963.072 422.969 966.105 417.582C953.592 416.409 941.056 416.016 928.495 416.406C928.495 408.572 928.495 400.734 928.495 392.9C950.447 392.509 972.388 392.9 994.312 394.075C996.62 422.351 984.867 442.722 959.053 455.193C932.726 460.994 909.22 455.903 888.534 439.913C873.711 421.533 869.795 401.16 876.781 378.795Z" fill="#F9342A"/>
<path opacity="0.985" fill-rule="evenodd" clip-rule="evenodd" d="M1904 388.198C1898.99 409.912 1906.83 425.191 1927.51 434.037C1945.63 438.195 1959.73 432.711 1969.82 417.582C1956.52 416.409 1943.2 416.016 1929.86 416.407C1929.19 408.703 1929.98 401.261 1932.21 394.075C1954.15 392.507 1976.09 392.507 1998.03 394.075C2000.64 423.259 1988.1 443.632 1960.42 455.193C1933.03 461.582 1909.13 455.705 1888.72 437.563C1876.76 423.72 1872.45 408.05 1875.8 390.549C1878.05 389.484 1880.01 387.919 1881.67 385.848C1889.16 385.838 1896.61 386.621 1904 388.198Z" fill="#F9342A"/>
<path opacity="0.994" fill-rule="evenodd" clip-rule="evenodd" d="M427.813 432.861C425.892 438.665 424.717 444.932 424.287 451.666C420.368 448.533 416.452 448.533 412.534 451.666C410.966 445.397 409.4 445.397 407.832 451.666C403.124 449.981 398.033 449.198 392.553 449.316C390.927 450.55 389.751 452.118 389.027 454.017C386.355 451.986 383.221 449.635 379.625 446.965C378.901 448.864 377.726 450.432 376.099 451.666C372.298 451.269 368.379 450.484 364.346 449.316C363.422 439.687 361.854 433.418 359.645 430.51C336.124 430.9 312.618 430.51 289.126 429.335C275.516 421.032 273.948 410.847 284.425 398.776C357.294 397.208 430.163 397.208 503.032 398.776C513.509 410.847 511.941 421.032 498.331 429.335C474.414 429.735 450.907 430.91 427.813 432.861Z" fill="#FE5132"/>
<path opacity="0.984" fill-rule="evenodd" clip-rule="evenodd" d="M427.813 432.861C427.813 443.047 427.813 453.235 427.813 463.42C532.947 464.504 636.374 478.216 738.095 504.557C755.101 509.929 771.556 516.59 787.458 524.538C785.5 525.321 783.539 526.106 781.581 526.889C588.579 494.696 394.653 487.252 199.803 504.557C136.123 510.197 72.6563 517.641 9.40248 526.889C6.2684 526.106 3.13408 525.321 0 524.538C45.91 504.633 93.7058 490.921 143.388 483.401C214.974 471.307 287.06 464.645 359.645 463.42C359.645 452.45 359.645 441.481 359.645 430.511C361.854 433.419 363.422 439.688 364.346 449.316C368.38 450.485 372.298 451.27 376.099 451.667C377.726 450.433 378.901 448.865 379.625 446.966C383.222 449.636 386.355 451.987 389.028 454.018C389.752 452.118 390.927 450.55 392.554 449.316C398.033 449.199 403.124 449.981 407.833 451.667C409.4 445.398 410.966 445.398 412.534 451.667C416.452 448.533 420.368 448.533 424.287 451.667C424.717 444.932 425.892 438.665 427.813 432.861Z" fill="#FD402D"/>
<path opacity="0.047" fill-rule="evenodd" clip-rule="evenodd" d="M180.998 522.187C184.132 523.755 184.132 523.755 180.998 522.187Z" fill="#FD5332"/>
</svg>
