<svg width="111" height="40" viewBox="0 0 1112 409" fill="none" xmlns="http://www.w3.org/2000/svg">
<path opacity="0.998" fill-rule="evenodd" clip-rule="evenodd" d="M0 0C370.666 0 741.334 0 1112 0C1112 83.5366 1112 167.073 1112 250.61C946.125 250.239 780.437 250.61 614.936 251.724C409.958 251.724 204.978 251.724 0 251.724C0 167.816 0 83.9078 0 0Z" fill="#FE4000"/>
<path fill-rule="evenodd" clip-rule="evenodd" d="M81.1758 80.1951C129.364 80.0094 177.551 80.1951 225.736 80.752C236.69 81.184 245.771 85.4536 252.98 93.561C258.678 110.148 252.932 120.357 235.744 124.191C253.509 125.635 261.479 135.102 259.652 152.593C258.204 156.797 255.794 160.325 252.424 163.175C246.958 166.654 241.028 168.882 234.632 169.858C203.496 170.601 172.36 170.601 141.224 169.858C135.091 163.901 129.161 157.775 123.432 151.48C156.415 150.552 189.405 149.995 222.4 149.809C227.565 147.553 229.233 143.655 227.404 138.114C225.726 135.419 223.317 134.306 220.176 134.772C184.04 133.661 147.716 133.289 111.2 133.659C111.2 145.911 111.2 158.163 111.2 170.415C101.192 170.415 91.1838 170.415 81.1758 170.415C81.1758 140.341 81.1758 110.268 81.1758 80.1951Z" fill="#010000"/>
<path fill-rule="evenodd" clip-rule="evenodd" d="M282.445 80.1953C338.416 80.1953 394.387 80.1953 450.357 80.1953C450.357 86.8782 450.357 93.5612 450.357 100.244C394.387 100.244 338.416 100.244 282.445 100.244C282.445 93.5612 282.445 86.8782 282.445 80.1953Z" fill="black"/>
<path fill-rule="evenodd" clip-rule="evenodd" d="M525.975 102.471C506.524 103.582 486.878 103.953 467.039 103.585C467.039 95.7885 467.039 87.9917 467.039 80.195C479.277 80.0095 491.509 80.1952 503.735 80.7519C511.002 88.2175 518.416 95.4573 525.975 102.471Z" fill="black"/>
<path fill-rule="evenodd" clip-rule="evenodd" d="M640.511 103.586C616.789 103.586 593.065 103.586 569.343 103.586C569.343 125.862 569.343 148.138 569.343 170.415C558.965 170.415 548.585 170.415 538.207 170.415C538.207 140.342 538.207 110.268 538.207 80.1953C572.309 80.1953 606.409 80.1953 640.511 80.1953C640.511 87.9921 640.511 95.7888 640.511 103.586Z" fill="black"/>
<path fill-rule="evenodd" clip-rule="evenodd" d="M660.527 80.1953C716.498 80.1953 772.469 80.1953 828.439 80.1953C828.439 86.8782 828.439 93.5612 828.439 100.244C772.469 100.244 716.498 100.244 660.527 100.244C660.527 93.5612 660.527 86.8782 660.527 80.1953Z" fill="black"/>
<path fill-rule="evenodd" clip-rule="evenodd" d="M1031.93 169.301C1019.9 170.409 1007.67 170.78 995.237 170.415C986.937 161.543 978.411 152.818 969.661 144.24C944.827 143.869 919.991 143.497 895.157 143.126C901.829 136.443 908.501 129.76 915.173 123.077C941.561 123.044 967.877 122.302 994.125 120.85C997.312 119.298 998.794 116.699 998.573 113.053C998.239 106.778 994.903 103.436 988.565 103.028C953.354 102.472 918.14 102.286 882.925 102.472C882.925 125.119 882.925 147.767 882.925 170.415C872.547 170.415 862.167 170.415 851.789 170.415C851.789 140.341 851.789 110.268 851.789 80.1951C899.978 80.0094 948.164 80.1951 996.349 80.752C1023.77 83.5845 1034.34 98.2498 1028.04 124.748C1022.88 133.745 1015.28 139.685 1005.25 142.569C1014.53 151.132 1023.43 160.043 1031.93 169.301Z" fill="#040100"/>
<path fill-rule="evenodd" clip-rule="evenodd" d="M282.448 80.1953C282.448 86.8782 282.448 93.5612 282.448 100.244C338.418 100.244 394.389 100.244 450.36 100.244C394.207 101.357 337.865 101.728 281.336 101.358C280.977 94.0935 281.347 87.0393 282.448 80.1953Z" fill="#421000"/>
<path fill-rule="evenodd" clip-rule="evenodd" d="M660.526 80.1953C660.526 86.8782 660.526 93.5612 660.526 100.244C716.496 100.244 772.468 100.244 828.438 100.244C772.285 101.357 715.944 101.728 659.414 101.358C659.055 94.0935 659.425 87.0393 660.526 80.1953Z" fill="#3F1000"/>
<path fill-rule="evenodd" clip-rule="evenodd" d="M217.952 101.357C224.107 102.926 225.775 106.639 222.956 112.496C221.478 113.701 219.81 114.444 217.952 114.723C182.739 114.723 147.526 114.723 112.312 114.723C112.312 110.268 112.312 105.813 112.312 101.357C147.526 101.357 182.739 101.357 217.952 101.357Z" fill="#FE4000"/>
<path fill-rule="evenodd" clip-rule="evenodd" d="M525.975 102.472C526.579 102.539 526.949 102.91 527.087 103.586C506.891 105.064 486.875 105.064 467.039 103.586C486.878 103.953 506.524 103.582 525.975 102.472Z" fill="#8F2400"/>
<path fill-rule="evenodd" clip-rule="evenodd" d="M640.512 103.585C617.352 104.696 594 105.067 570.456 104.699C570.823 126.797 570.452 148.703 569.344 170.415C569.344 148.138 569.344 125.862 569.344 103.585C593.066 103.585 616.789 103.585 640.512 103.585Z" fill="#AE2C00"/>
<path fill-rule="evenodd" clip-rule="evenodd" d="M217.951 101.357C182.738 101.357 147.525 101.357 112.311 101.357C112.311 105.813 112.311 110.268 112.311 114.723C147.525 114.723 182.738 114.723 217.951 114.723C182.557 115.835 146.973 116.207 111.199 115.837C111.199 110.639 111.199 105.441 111.199 100.244C146.973 99.8743 182.557 100.246 217.951 101.357Z" fill="#C03100"/>
<path fill-rule="evenodd" clip-rule="evenodd" d="M828.438 115.837C772.468 115.837 716.496 115.837 660.526 115.837C660.526 122.52 660.526 129.203 660.526 135.886C659.425 129.042 659.055 121.988 659.414 114.723C715.944 114.354 772.285 114.725 828.438 115.837Z" fill="#220900"/>
<path fill-rule="evenodd" clip-rule="evenodd" d="M281.336 114.724C337.678 114.724 394.018 114.724 450.36 114.724C450.36 121.777 450.36 128.832 450.36 135.886C394.018 135.886 337.678 135.886 281.336 135.886C281.336 128.832 281.336 121.777 281.336 114.724Z" fill="#030000"/>
<path fill-rule="evenodd" clip-rule="evenodd" d="M828.439 115.837C828.439 122.52 828.439 129.203 828.439 135.886C772.469 135.886 716.498 135.886 660.527 135.886C660.527 129.203 660.527 122.52 660.527 115.837C716.498 115.837 772.469 115.837 828.439 115.837Z" fill="black"/>
<path fill-rule="evenodd" clip-rule="evenodd" d="M220.175 134.773C184.221 134.773 148.266 134.773 112.311 134.773C112.676 146.853 112.305 158.734 111.199 170.415C111.199 158.163 111.199 145.911 111.199 133.659C147.715 133.289 184.04 133.661 220.175 134.773Z" fill="#AE2C00"/>
<path fill-rule="evenodd" clip-rule="evenodd" d="M450.36 170.415C394.207 171.527 337.866 171.898 281.336 171.528C281.336 164.103 281.336 156.678 281.336 149.252C338.048 149.252 394.76 149.252 451.472 149.252C451.831 156.516 451.461 163.57 450.36 170.415Z" fill="#802001"/>
<path fill-rule="evenodd" clip-rule="evenodd" d="M828.438 150.366C772.468 150.366 716.496 150.366 660.526 150.366C660.526 157.048 660.526 163.731 660.526 170.414C716.496 170.414 772.468 170.414 828.438 170.414C772.285 171.527 715.944 171.898 659.414 171.528C659.414 164.102 659.414 156.678 659.414 149.252C715.944 148.882 772.285 149.253 828.438 150.366Z" fill="#7A1F01"/>
<path fill-rule="evenodd" clip-rule="evenodd" d="M450.357 170.415C394.387 170.415 338.416 170.415 282.445 170.415C282.445 163.732 282.445 157.049 282.445 150.366C338.416 150.366 394.387 150.366 450.357 150.366C450.357 157.049 450.357 163.732 450.357 170.415Z" fill="black"/>
<path fill-rule="evenodd" clip-rule="evenodd" d="M828.439 150.366C828.439 157.049 828.439 163.732 828.439 170.415C772.469 170.415 716.498 170.415 660.527 170.415C660.527 163.732 660.527 157.049 660.527 150.366C716.498 150.366 772.469 150.366 828.439 150.366Z" fill="black"/>
<path fill-rule="evenodd" clip-rule="evenodd" d="M81.1755 80.1953C81.1755 110.268 81.1755 140.342 81.1755 170.415C91.1835 170.415 101.191 170.415 111.199 170.415C101.023 171.522 90.6441 171.893 80.0635 171.529C79.6952 140.893 80.0658 110.448 81.1755 80.1953Z" fill="#7C2002"/>
<path fill-rule="evenodd" clip-rule="evenodd" d="M1031.93 169.301C1032.54 169.368 1032.91 169.739 1033.05 170.415C1020.27 171.889 1007.66 171.889 995.238 170.415C1007.67 170.78 1019.9 170.409 1031.93 169.301Z" fill="#9D2800"/>
<path opacity="0.998" fill-rule="evenodd" clip-rule="evenodd" d="M1112 250.61C1112 303.33 1112 356.052 1112 408.772C946.31 408.772 780.622 408.772 614.934 408.772C614.934 356.423 614.934 304.073 614.934 251.724C780.435 250.61 946.123 250.239 1112 250.61Z" fill="#2BCBCB"/>
<path fill-rule="evenodd" clip-rule="evenodd" d="M947.422 291.821C975.401 290.709 1003.57 290.338 1031.93 290.707C1031.93 296.276 1031.93 301.845 1031.93 307.414C1011.55 307.414 991.16 307.414 970.774 307.414C990.596 306.304 1010.61 305.933 1030.82 306.301C1030.82 301.474 1030.82 296.647 1030.82 291.821C1003.02 291.821 975.222 291.821 947.422 291.821Z" fill="#90E4E4"/>
<path fill-rule="evenodd" clip-rule="evenodd" d="M697.223 291.821C705.007 291.821 712.791 291.821 720.575 291.821C720.575 311.87 720.575 331.919 720.575 351.968C739.479 351.968 758.383 351.968 777.287 351.968C777.287 357.537 777.287 363.106 777.287 368.675C750.599 368.675 723.911 368.675 697.223 368.675C697.223 343.057 697.223 317.439 697.223 291.821Z" fill="#FEFFFE"/>
<path fill-rule="evenodd" clip-rule="evenodd" d="M791.742 291.821C799.526 291.821 807.31 291.821 815.094 291.821C815.094 317.439 815.094 343.057 815.094 368.675C807.31 368.675 799.526 368.675 791.742 368.675C791.742 343.057 791.742 317.439 791.742 291.821Z" fill="#FEFFFE"/>
<path fill-rule="evenodd" clip-rule="evenodd" d="M826.215 292.935C834.936 291.464 843.832 291.464 852.903 292.935C862.657 312.104 872.109 331.41 881.259 350.853C890.408 331.41 899.86 312.104 909.615 292.935C918.487 291.637 927.383 291.451 936.303 292.378C922.818 317.351 909.474 342.412 896.271 367.561C886.263 369.045 876.255 369.045 866.247 367.561C853.154 342.44 839.81 317.563 826.215 292.935Z" fill="#FDFEFE"/>
<path fill-rule="evenodd" clip-rule="evenodd" d="M947.422 291.821C975.222 291.821 1003.02 291.821 1030.82 291.821C1030.82 296.647 1030.82 301.475 1030.82 306.301C1010.61 305.933 990.596 306.304 970.774 307.415C970.774 312.241 970.774 317.068 970.774 321.894C990.42 321.894 1010.06 321.894 1029.71 321.894C1029.71 326.721 1029.71 331.548 1029.71 336.374C1010.06 336.374 990.42 336.374 970.774 336.374C970.774 341.943 970.774 347.512 970.774 353.081C991.16 353.081 1011.55 353.081 1031.93 353.081C1031.93 358.28 1031.93 363.477 1031.93 368.675C1003.76 368.675 975.592 368.675 947.422 368.675C947.422 343.057 947.422 317.439 947.422 291.821Z" fill="#FDFEFE"/>
</svg>
