<svg width="155" height="33" viewBox="0 0 1558 339" fill="none" xmlns="http://www.w3.org/2000/svg">
<path d="M1388.74 338.492C1482.22 338.492 1557.99 262.717 1557.99 169.25C1557.99 75.7679 1482.22 0 1388.74 0H169.266C75.7863 0 0 75.7751 0 169.243C0 262.717 75.7791 338.492 169.252 338.492H1388.74Z" fill="black"/>
<path d="M169.266 338.492C262.746 338.492 338.518 262.717 338.518 169.25C338.518 75.7679 262.739 0 169.266 0C75.7863 0 0 75.7751 0 169.243C0 262.717 75.7863 338.492 169.266 338.492Z" fill="#505859"/>
<path d="M1543.88 101.56C1550.51 119.962 1553.9 139.376 1553.88 158.936C1553.88 252.411 1478.1 328.186 1384.62 328.186H165.136C95.733 328.186 36.1181 286.396 10 226.619C33.4998 291.849 95.9278 338.5 169.262 338.5H1388.75C1482.22 338.5 1558 262.732 1558 169.257C1558.01 145.175 1552.95 122.289 1543.88 101.56Z" fill="#505859"/>
<path d="M169.298 324.587C255.038 324.587 324.542 255.087 324.542 169.344C324.542 83.6083 255.038 14.1082 169.298 14.1082C83.558 14.1082 14.0469 83.6083 14.0469 169.344C14.0469 255.087 83.558 324.587 169.298 324.587Z" fill="black"/>
<path d="M170.685 273.89C120.938 273.868 84.2239 262.104 69.9062 250.463C61.9143 243.943 56.858 229.006 56.4108 210.506C56.281 205.291 58.9209 199.874 64.2585 194.422C80.2568 178.042 121.161 161.46 168.413 161.46C196.313 161.467 224.314 167.144 247.316 177.414C257.825 182.103 282.298 194.71 282.674 210.311C283.077 227.188 278.043 242.876 269.834 250.276C256.779 262.032 221.104 273.897 170.815 273.897L170.685 273.89Z" fill="#744C29"/>
<path d="M168.482 167.231C228.256 167.26 276.481 194.025 276.878 210.448C277.275 226.886 272.146 240.395 265.943 245.977C254.388 256.385 219.881 268.12 170.668 268.106C121.468 268.084 86.4204 256.464 73.5381 245.977C66.9022 240.582 62.5744 226.792 62.1705 210.362C61.7738 193.917 108.716 167.202 168.482 167.231Z" fill="#D08D41"/>
<path d="M175.563 172.221C216.078 172.553 303.419 164.828 298.579 196.369C293.299 230.773 225.693 240.048 174.084 238.663C122.468 237.278 45.2249 229.099 43.2557 204.93C40.9981 177.147 70.3403 171.363 175.563 172.221Z" fill="#794826"/>
<path d="M288.53 182.427C289.634 187.021 287.571 193.167 276.874 201.151C258.611 214.783 228.901 213.585 228.901 213.585C228.901 213.585 219.048 221.533 200.193 223.741C181.331 225.94 164.792 219.197 164.792 219.197C164.792 219.197 149.645 225.096 126.585 222.442C103.525 219.781 97.5962 209.604 97.5962 209.604C97.5962 209.604 78.4819 212.128 61.6037 202.536C61.6037 202.536 60.3558 210.996 75.3082 217.805C90.7439 224.83 113.732 231.22 172.091 230.744C230.444 230.275 272.928 223.971 291.141 201.648C302.148 188.139 288.53 182.427 288.53 182.427Z" fill="url(#paint0_linear_32_2)"/>
<path d="M280.84 206.106C286.545 202.232 290.216 197.869 291.493 194.616C292.142 192.964 289.892 190.202 288.312 193.202C286.956 195.777 284.561 199.492 279.419 203.091C274.564 206.502 266.781 210.058 263.687 211.342C257.571 213.852 270.958 212.784 280.84 206.106Z" fill="#A87B4F"/>
<path d="M180.01 245.407C142.697 245.725 114.689 241.758 96.5703 238.389C99.4771 245.515 103.783 249.237 107.815 251.862C112.828 255.108 140.735 262.068 177.377 260.431C221.203 258.476 243.584 251.329 249.838 247.391C255.464 243.835 257.859 240.726 259.164 235.504C247.588 240.034 207.837 245.169 180.01 245.407Z" fill="url(#paint1_radial_32_2)"/>
<path d="M194.131 217.235C183.542 217.235 173.458 215.193 165.928 211.566C158.405 215.186 148.321 217.235 137.725 217.235C119.945 217.235 105.195 211.84 99.1578 203.48C98.0293 203.554 96.8986 203.59 95.7677 203.588C89.1174 203.588 81.7602 202.413 74.4896 200.199C60.3522 195.885 49.3597 188.457 45.8037 180.818C43.7841 176.491 44.4693 173.007 45.3926 170.836C48.0253 164.662 55.772 161.258 67.1829 161.258C73.8332 161.258 81.1976 162.434 88.4827 164.655C98.3067 167.656 106.616 172.12 111.982 177.198C119.217 174.226 128.19 172.618 137.718 172.618C148.314 172.618 158.398 174.659 165.921 178.28C173.451 174.673 183.535 172.618 194.123 172.618C204.178 172.618 213.786 174.457 221.172 177.746C226.87 172.207 235.583 167.187 245.768 163.66C254.416 160.674 263.469 159.029 271.259 159.029C282.561 159.029 290.423 162.39 293.373 168.485C294.96 171.752 294.96 175.474 293.402 179.232C289.868 187.735 278.154 196.304 262.819 201.612C254.077 204.627 245.292 206.228 237.387 206.228C235.028 206.228 232.799 206.084 230.722 205.788C223.754 212.828 209.92 217.235 194.131 217.235Z" fill="#03693D"/>
<path d="M50.0869 172.842C53.1307 165.723 69.6628 164.245 87.0027 169.539C97.988 172.892 106.658 178.158 110.769 183.379C117.427 179.91 127.02 177.718 137.724 177.718C149.092 177.718 159.247 180.177 165.927 184.036C172.599 180.184 182.747 177.718 194.129 177.718C205.504 177.718 215.66 180.177 222.332 184.05C226.876 178.316 235.928 172.474 247.447 168.486C266.489 161.9 284.998 162.903 288.785 170.721C292.571 178.533 280.201 190.21 261.159 196.795C248.839 201.05 236.779 202.118 228.751 200.25C224.005 207.145 210.308 212.129 194.129 212.129C182.769 212.129 172.613 209.662 165.927 205.803C159.255 209.662 149.106 212.129 137.724 212.129C119.886 212.129 105.071 206.07 101.948 198.064C94.9874 199.103 85.6178 198.259 75.9813 195.323C58.6342 190.029 47.043 179.961 50.0869 172.842Z" fill="#00954B"/>
<path d="M113.168 191.277C115.231 183.877 102.731 173.91 85.2398 169.019C67.7484 164.137 51.8944 166.17 49.8243 173.571C47.7614 180.971 60.2614 190.938 77.7528 195.829C95.2441 200.711 111.098 198.677 113.168 191.277Z" fill="#00954B"/>
<path d="M116.321 185.969C117.77 178.482 104.383 169.582 86.4229 166.105C68.4555 162.622 52.7168 165.867 51.2598 173.361C49.81 180.848 63.1972 189.748 81.1647 193.232C99.1249 196.708 114.871 193.463 116.321 185.969Z" fill="#8DC141"/>
<path d="M52.9559 173.801C51.7874 180.17 62.8232 187.794 78.1723 191.025C84.3322 192.323 90.2612 192.72 95.3319 192.345C78.2228 188.659 59.1013 183.949 52.9559 173.801Z" fill="#D5DA2A"/>
<path d="M256.968 197.415C275.693 191.262 288.705 179.657 286.022 171.5C283.339 163.343 265.985 161.72 247.26 167.872C228.535 174.024 215.523 185.629 218.206 193.787C220.889 201.944 238.244 203.574 256.968 197.415Z" fill="#00954B"/>
<path d="M253.93 195.223C273.153 190.325 287.038 179.651 284.924 171.378C282.818 163.105 265.522 160.364 246.299 165.254C227.077 170.152 213.199 180.826 215.305 189.099C217.411 197.372 234.708 200.113 253.93 195.223Z" fill="#8DC141"/>
<path d="M234.578 193.671C242.173 196.073 255.135 194.082 265.615 189.776C282.53 182.816 283.828 176.253 282.999 171.615C275.375 188.471 250.216 192.012 234.578 193.671Z" fill="#D5DA2A"/>
<path d="M138.543 212.128C158.133 212.128 174.016 204.425 174.016 194.926C174.016 185.427 158.133 177.724 138.543 177.724C118.945 177.724 103.062 185.427 103.062 194.926C103.062 204.425 118.945 212.128 138.543 212.128Z" fill="#00954B"/>
<path d="M193.504 212.128C213.094 212.128 228.977 204.425 228.977 194.926C228.977 185.427 213.094 177.724 193.504 177.724C173.906 177.724 158.023 185.427 158.023 194.926C158.023 204.425 173.906 212.128 193.504 212.128Z" fill="#00954B"/>
<path d="M193.496 208.219C212.415 208.219 227.757 200.516 227.757 191.01C227.757 181.511 212.415 173.808 193.496 173.808C174.569 173.808 159.234 181.511 159.234 191.01C159.234 200.516 174.569 208.219 193.496 208.219Z" fill="#8DC141"/>
<path d="M138.551 208.219C157.47 208.219 172.812 200.516 172.812 191.01C172.812 181.511 157.47 173.808 138.551 173.808C119.624 173.808 104.289 181.511 104.289 191.01C104.289 200.516 119.624 208.219 138.551 208.219Z" fill="#8DC141"/>
<path d="M222.55 193.931C207.64 201.15 196.698 201.655 173.48 197.537C177.13 202.341 186.362 205.759 197.21 205.759C210.634 205.759 221.59 200.545 222.557 193.931H222.55ZM112.898 194.349C114.247 200.768 125.052 205.759 138.18 205.759C148.97 205.759 158.181 202.384 161.867 197.609C142.854 201.648 128.991 201.648 112.898 194.349Z" fill="#D5DA2A"/>
<path d="M170.343 193.174C113.996 193.174 63.4474 179.831 55.2103 174.357C54.1197 173.632 53.2786 172.59 52.8012 171.371C46.0066 154.039 45.9416 152.373 45.9056 151.284C45.8335 149.481 46.2734 146.776 48.7908 144.165C51.9212 140.89 59.5741 136.116 89.7242 132.387C110.382 129.834 136.565 128.42 165.424 128.276H169.312C222.082 128.276 265.554 133.18 280.456 140.782C283.63 141.979 291.636 145.254 291.917 152.286C291.968 153.801 291.643 155.294 290.936 156.715L290.778 157.01L282.519 171.58C282.328 171.922 282.105 172.245 281.855 172.546C271.396 184.995 229.345 192.9 172.074 193.174H170.343Z" fill="#963528"/>
<path d="M52.2675 151.038C51.9141 141.748 101.51 134.954 165.439 134.651C219.11 134.399 264.443 139.483 277.838 146.61C282.721 148.434 285.447 150.432 285.527 152.524C285.537 152.985 285.431 153.442 285.217 153.851L276.958 168.42C269.168 177.703 231.704 186.495 172.038 186.776C114.32 187.043 65.1859 173.31 58.7231 169.033C58.7231 169.048 52.3396 152.719 52.2675 151.038Z" fill="#D9372A"/>
<path d="M57.0703 156.209C57.5031 159.96 59.2991 167.1 61.16 168.363C65.1993 171.118 73.9197 173.743 79.0121 175.2C79.0121 175.2 68.4235 169.3 67.6156 162.044C67.6156 162.044 61.1023 158.539 57.0703 156.202V156.209Z" fill="#BA3331"/>
<path d="M168.923 189.676C120.669 189.676 63.1598 182.535 54.3673 170.995C54.1042 170.646 53.8995 170.256 53.7614 169.841C48.532 153.389 48.4599 151.738 48.4382 151.182C48.3877 149.877 48.7267 147.893 50.6165 145.924C60.9527 135.134 118.923 131.045 165.432 130.828C166.723 130.814 168.029 130.814 169.305 130.814C221.065 130.814 265.209 135.762 279.411 143.126C283.659 144.734 289.163 147.432 289.35 152.387C289.384 153.465 289.151 154.535 288.672 155.503L282.44 169.091L282.339 169.3C274.694 183.624 243.635 189.329 171.57 189.676H168.923Z" fill="#963528"/>
<path d="M52.2675 151.038C51.9141 141.748 101.51 134.954 165.439 134.651C219.11 134.399 264.443 139.483 277.838 146.61C282.721 148.434 285.447 150.432 285.527 152.524C285.537 152.985 285.431 153.442 285.217 153.851L278.956 167.483C271.375 181.691 231.221 185.55 171.555 185.839C113.83 186.105 64.0102 177.328 57.4103 168.673C57.4175 168.687 52.3396 152.719 52.2675 151.038Z" fill="#D9372A"/>
<path d="M75.7624 165.903C77.1112 167.656 81.6553 172.012 84.05 172.9C86.4447 173.78 110.377 182.637 172.048 182.637C233.719 182.637 262.166 176.448 266.912 173.015C271.659 169.582 273.57 166.235 275.243 162.816C276.917 159.39 264.157 175.417 171.074 175.417C74.4208 175.417 69.9776 158.359 75.7624 165.903Z" fill="url(#paint2_linear_32_2)"/>
<path d="M280.941 153.137C280.941 160.133 228.395 171.615 166.58 171.615C104.765 171.615 56.3086 158.056 56.3086 151.045C56.3086 144.049 104.7 134.651 166.522 134.651C228.352 134.651 280.941 146.119 280.941 153.137Z" fill="#AA322E"/>
<path d="M168.544 166.668C133.605 166.668 105.936 164.273 86.3166 159.542C64.2089 154.211 53 145.744 53 134.377C53 103.76 97.1071 47.5305 169.164 47.5305C241.222 47.5305 285.322 103.76 285.322 134.377C285.322 152.596 259.716 158.359 251.298 160.256C232.371 164.504 204.529 166.668 168.544 166.668Z" fill="#744C29"/>
<path d="M169.17 53.8845C237.462 53.8845 278.965 107.077 278.965 134.377C278.965 152.242 238.299 160.313 168.549 160.313C98.8003 160.313 59.3672 150.403 59.3672 134.369C59.3672 107.077 100.878 53.8845 169.17 53.8845Z" fill="#D08D41"/>
<path d="M177.455 59.5256C236.775 59.5256 272.825 105.275 272.825 128.752C272.825 144.114 237.489 151.046 176.914 151.046C116.333 151.046 82.0859 142.535 82.0859 128.752C82.0859 105.275 118.136 59.5256 177.455 59.5256Z" fill="url(#paint3_radial_32_2)"/>
<g opacity="0.85">
<g opacity="0.85">
<path opacity="0.85" d="M120.722 74.6498C126.204 72.6159 130.092 69.5001 129.421 67.6753C128.743 65.8577 123.759 66.0236 118.284 68.0503C112.802 70.0771 108.914 73.1929 109.592 75.0177C110.263 76.8352 115.247 76.6765 120.722 74.6426V74.6498Z" fill="#D48952"/>
<path opacity="0.85" d="M120.429 72.6879C124.605 71.1445 127.569 68.7715 127.064 67.3867C126.545 65.9947 122.744 66.1245 118.575 67.6752C114.391 69.2187 111.434 71.5916 111.939 72.9764C112.451 74.3613 116.252 74.2314 120.429 72.6879Z" fill="#F0D5AD"/>
<path opacity="0.85" d="M118.836 71.3533C121.375 70.4157 123.179 68.9732 122.861 68.1293C122.551 67.2854 120.243 67.3648 117.704 68.3024C115.172 69.24 113.369 70.6825 113.679 71.5336C113.989 72.3703 116.298 72.2982 118.836 71.3533Z" fill="white"/>
</g>
<g opacity="0.85">
<path opacity="0.85" d="M194.538 87.6904C201.21 85.7647 206.107 82.4036 205.465 80.1894C204.823 77.9751 198.894 77.7371 192.222 79.6701C185.55 81.5958 180.653 84.9569 181.295 87.1711C181.937 89.3854 187.859 89.6234 194.538 87.6904Z" fill="#D48952"/>
<path opacity="0.85" d="M193.99 85.4621C199.075 83.9907 202.804 81.4303 202.321 79.7425C201.83 78.0548 197.315 77.8817 192.223 79.3531C187.137 80.8172 183.408 83.3777 183.899 85.0654C184.382 86.7531 188.905 86.9335 193.997 85.4621H193.99Z" fill="#F0D5AD"/>
<path opacity="0.85" d="M192.22 83.7451C195.307 82.858 197.572 81.3001 197.276 80.2759C196.981 79.2517 194.24 79.1435 191.145 80.0307C188.058 80.925 185.801 82.4829 186.096 83.5071C186.392 84.5313 189.133 84.6395 192.227 83.7524L192.22 83.7451Z" fill="white"/>
</g>
<g opacity="0.85">
<path opacity="0.85" d="M253.438 94.1605C254.462 92.6891 251.707 88.9963 247.292 85.9093C242.871 82.8296 238.449 81.5241 237.425 83.0027C236.401 84.474 239.149 88.1669 243.571 91.2466C247.992 94.3336 252.406 95.6319 253.438 94.1605Z" fill="#D48952"/>
<path opacity="0.85" d="M251.689 92.4147C252.475 91.2967 250.369 88.4838 247.001 86.1253C243.625 83.7812 240.256 82.7787 239.478 83.9039C238.691 85.0218 240.79 87.8419 244.166 90.1932C247.542 92.5445 250.91 93.5398 251.689 92.4147Z" fill="#F0D5AD"/>
<path opacity="0.85" d="M248.937 89.638C249.413 88.96 248.143 87.2434 246.095 85.8153C244.046 84.3945 241.998 83.7958 241.522 84.4738C241.046 85.159 242.315 86.8684 244.371 88.2965C246.412 89.7245 248.461 90.3232 248.937 89.638Z" fill="white"/>
</g>
<g opacity="0.85">
<path opacity="0.85" d="M151.397 85.123C158.631 84.7912 164.402 82.5914 164.293 80.2185C164.185 77.8383 158.235 76.1795 151 76.5112C143.765 76.843 137.988 79.0356 138.103 81.4158C138.211 83.7959 144.162 85.4548 151.397 85.123Z" fill="#D48952"/>
<path opacity="0.85" d="M151.354 82.9588C156.872 82.7064 161.272 81.0331 161.185 79.2155C161.106 77.4052 156.569 76.1358 151.051 76.3882C145.54 76.6478 141.14 78.3212 141.22 80.1387C141.306 81.9491 145.836 83.2185 151.354 82.9588Z" fill="#F0D5AD"/>
<path opacity="0.85" d="M149.996 80.7951C153.343 80.6436 156.019 79.6267 155.969 78.5232C155.918 77.4196 153.156 76.6479 149.809 76.8066C146.462 76.958 143.786 77.9822 143.837 79.0785C143.887 80.182 146.65 80.9538 149.996 80.7951Z" fill="white"/>
</g>
<g opacity="0.85">
<path opacity="0.85" d="M184.19 64.8049C189.592 64.7977 193.97 63.3407 193.97 61.5592C193.97 59.7705 189.585 58.328 184.175 58.3352C178.773 58.3424 174.395 59.7994 174.395 61.5809C174.395 63.3696 178.78 64.8121 184.19 64.8049Z" fill="#D48952"/>
<path opacity="0.85" d="M184.078 63.5936C188.189 63.5936 191.536 62.4756 191.536 61.1196C191.536 59.7493 188.189 58.653 184.064 58.6674C179.945 58.6674 176.605 59.7781 176.605 61.1413C176.605 62.4972 179.952 63.5936 184.071 63.5936H184.078Z" fill="#F0D5AD"/>
<path opacity="0.85" d="M183.155 61.9272C185.658 61.9272 187.684 61.2492 187.684 60.427C187.684 59.5975 185.65 58.9268 183.155 58.9268C180.652 58.934 178.625 59.6047 178.625 60.4414C178.625 61.2636 180.659 61.9344 183.155 61.9272Z" fill="white"/>
</g>
<g opacity="0.85">
<path opacity="0.85" d="M147.939 66.6226C154.279 66.5793 159.407 64.8627 159.393 62.7711C159.379 60.6866 154.229 59.0277 147.888 59.0638C141.555 59.1071 136.42 60.8309 136.441 62.9153C136.449 65.007 141.599 66.6658 147.939 66.6226Z" fill="#D48952"/>
<path opacity="0.85" d="M147.881 64.4515C152.714 64.4227 156.623 63.11 156.609 61.516C156.601 59.9293 152.678 58.6599 147.845 58.6887C143.012 58.7176 139.103 60.0302 139.117 61.6242C139.124 63.211 143.048 64.4804 147.881 64.4515Z" fill="#F0D5AD"/>
<path opacity="0.85" d="M146.76 62.5187C149.689 62.5043 152.062 61.7037 152.062 60.7372C152.054 59.7635 149.667 58.999 146.738 59.0134C143.803 59.0278 141.43 59.8284 141.43 60.8021C141.437 61.7686 143.824 62.5331 146.76 62.5187Z" fill="white"/>
</g>
<g opacity="0.85">
<path opacity="0.85" d="M243.781 107.042C244.314 105.022 239.792 102.072 233.675 100.449C227.552 98.8337 222.164 99.1583 221.63 101.178C221.089 103.197 225.619 106.154 231.728 107.77C237.852 109.393 243.247 109.068 243.774 107.049L243.781 107.042Z" fill="#D48952"/>
<path opacity="0.85" d="M241.139 105.245C241.55 103.702 238.109 101.444 233.443 100.211C228.783 98.9846 224.672 99.2298 224.268 100.773C223.857 102.317 227.297 104.567 231.964 105.8C236.623 107.034 240.728 106.789 241.139 105.245Z" fill="#F0D5AD"/>
<path opacity="0.85" d="M237.003 103.298C237.248 102.36 235.156 100.99 232.322 100.247C229.494 99.497 226.999 99.6484 226.746 100.579C226.501 101.516 228.593 102.887 231.427 103.63C234.255 104.38 236.758 104.228 237.003 103.298Z" fill="white"/>
</g>
<g opacity="0.85">
<path opacity="0.85" d="M226.42 72.6088C226.889 70.9571 223.217 68.4472 218.204 66.9974C213.198 65.5477 208.755 65.7064 208.272 67.3581C207.796 69.0098 211.467 71.5197 216.48 72.9694C221.486 74.412 225.944 74.2533 226.42 72.6088Z" fill="#D48952"/>
<path opacity="0.85" d="M224.258 71.5486C224.619 70.2936 221.82 68.3823 218.005 67.2788C214.182 66.168 210.792 66.2906 210.431 67.5456C210.063 68.8078 212.862 70.7192 216.685 71.8227C220.507 72.9262 223.897 72.8036 224.258 71.5486Z" fill="#F0D5AD"/>
<path opacity="0.85" d="M220.875 69.8678C221.099 69.1104 219.397 67.942 217.081 67.2712C214.759 66.6005 212.696 66.6726 212.48 67.4371C212.263 68.2017 213.958 69.3629 216.281 70.0337C218.603 70.7044 220.652 70.6323 220.875 69.8678Z" fill="white"/>
</g>
<g opacity="0.85">
<path opacity="0.85" d="M90.7149 100.276C94.2637 96.1938 96.0453 91.9456 94.7037 90.77C93.3548 89.6015 89.3949 91.9673 85.8462 96.0424C82.2974 100.125 80.5158 104.38 81.8646 105.549C83.2062 106.717 87.1734 104.358 90.7149 100.276Z" fill="#D48952"/>
<path opacity="0.85" d="M89.1785 98.971C91.8833 95.8624 93.2466 92.6167 92.2224 91.7224C91.1981 90.8352 88.1759 92.6384 85.471 95.747C82.7662 98.8556 81.4029 102.101 82.4344 102.996C83.4514 103.883 86.4736 102.08 89.1785 98.971Z" fill="#F0D5AD"/>
<path opacity="0.85" d="M87.3223 98.5959C88.9669 96.7062 89.7964 94.73 89.176 94.1963C88.5557 93.6553 86.7236 94.7444 85.0719 96.6413C83.4345 98.531 82.6051 100.5 83.2254 101.041C83.8457 101.582 85.6778 100.486 87.3223 98.5887V98.5959Z" fill="white"/>
</g>
<g opacity="0.85">
<path opacity="0.85" d="M113.585 93.4967C119.117 90.3953 122.767 86.3996 121.75 84.582C120.726 82.7572 115.41 83.8103 109.885 86.9117C104.352 90.0203 100.703 94.016 101.727 95.8336C102.744 97.6512 108.06 96.6054 113.585 93.4967Z" fill="#D48952"/>
<path opacity="0.85" d="M113.572 91.3909C117.792 89.0179 120.569 85.9814 119.797 84.5894C119.018 83.1974 114.964 83.998 110.752 86.3637C106.532 88.7366 103.755 91.7803 104.527 93.1724C105.306 94.5572 109.36 93.7638 113.572 91.3909Z" fill="#F0D5AD"/>
<path opacity="0.85" d="M111.677 90.2297C114.23 88.7944 115.918 86.948 115.449 86.1041C114.973 85.2602 112.514 85.7435 109.96 87.1788C107.4 88.6213 105.705 90.4677 106.188 91.3116C106.657 92.1554 109.123 91.6722 111.677 90.2297Z" fill="white"/>
</g>
</g>
<path d="M153.438 109.746C156.734 122.685 151.599 135.163 141.969 137.615C132.333 140.06 121.86 131.557 118.563 118.617C115.26 105.678 120.403 93.2003 130.032 90.7553C139.668 88.303 150.156 96.8066 153.438 109.746Z" fill="url(#paint4_radial_32_2)"/>
<path d="M144.061 141.77C153.69 139.317 158.826 126.84 155.53 113.9C152.233 100.961 141.753 92.4574 132.131 94.9025C122.501 97.3547 117.366 109.832 120.662 122.779C123.951 135.718 134.432 144.222 144.061 141.77Z" fill="#231F20"/>
<path d="M132.659 120.933C134.967 120.933 137.181 120.016 138.813 118.384C140.445 116.752 141.362 114.539 141.362 112.231C141.362 109.923 140.445 107.71 138.813 106.078C137.181 104.446 134.967 103.529 132.659 103.529C130.351 103.529 128.138 104.446 126.506 106.078C124.874 107.71 123.957 109.923 123.957 112.231C123.957 114.539 124.874 116.752 126.506 118.384C128.138 120.016 130.351 120.933 132.659 120.933Z" fill="url(#paint5_radial_32_2)"/>
<path d="M185.838 115.314C183.674 126.018 188.391 136.007 196.362 137.601C204.332 139.21 212.533 131.831 214.69 121.121C216.854 110.417 212.143 100.435 204.173 98.8337C196.203 97.2325 188.002 104.604 185.838 115.314Z" fill="url(#paint6_radial_32_2)"/>
<path d="M212.62 125.304C214.784 114.593 210.074 104.611 202.104 103.003C194.133 101.401 185.925 108.773 183.761 119.483C181.605 130.194 186.315 140.183 194.285 141.785C202.255 143.393 210.464 136.015 212.62 125.304Z" fill="#231F20"/>
<path d="M200.295 123.032C202.184 123.032 203.995 122.282 205.331 120.946C206.667 119.61 207.417 117.798 207.417 115.91C207.417 114.021 206.667 112.209 205.331 110.873C203.995 109.538 202.184 108.787 200.295 108.787C198.406 108.787 196.594 109.538 195.258 110.873C193.922 112.209 193.172 114.021 193.172 115.91C193.172 117.798 193.922 119.61 195.258 120.946C196.594 122.282 198.406 123.032 200.295 123.032Z" fill="url(#paint7_radial_32_2)"/>
<path d="M608.701 179.838C608.701 183.805 607.475 186.957 605.051 189.308C602.613 191.645 599.512 192.828 595.746 192.828C588.389 192.828 583.737 188.313 581.746 179.275L580.852 175.229C578.76 169.935 574.988 167.288 569.535 167.288C568.445 167.288 567.45 167.389 566.556 167.606L547.643 168.074C546.429 167.754 545.178 167.594 543.921 167.598C538.75 167.598 535.28 170.022 533.492 174.861L531.998 180.696C529.921 188.789 525.694 192.835 519.354 192.835C515.575 192.835 512.531 191.638 510.194 189.229C507.857 186.827 506.688 183.639 506.688 179.665C506.688 176.946 507.143 174.328 508.037 171.825L538.259 85.5122C542.428 73.5899 549.136 67.6251 558.362 67.6251C567.493 67.6251 573.891 72.9984 577.57 83.7524L607.056 171.096C608.146 174.306 608.701 177.227 608.701 179.838ZM569.838 131.86L562.242 110.078C561.254 107.143 559.574 105.679 557.186 105.679C555.397 105.679 554.056 106.883 553.161 109.285L544.383 132.329C544.092 133.024 543.941 133.768 543.936 134.522C543.936 136.613 545.032 138.416 547.218 139.931C549.396 141.453 551.683 142.203 554.07 142.203H559.725C562.307 142.203 564.709 141.417 566.938 139.852C569.174 138.294 570.299 136.354 570.299 134.053C570.285 133.299 570.129 132.555 569.838 131.86ZM751.741 178.388C751.741 182.889 750.522 186.423 748.091 188.984C745.66 191.544 742.458 192.828 738.483 192.828C731.537 192.828 727.217 187.433 725.529 176.65L718.972 135.012C718.482 131.766 717.486 130.144 716.001 130.144C714.515 130.144 713.317 132.026 712.423 135.798C708.059 154.652 704.489 167.952 701.705 175.705C700.15 180.038 698.157 184.199 695.754 188.125C693.864 191.27 690.142 192.842 684.581 192.842C680.325 192.842 677.123 191.847 674.981 189.856C672.846 187.866 670.884 184.202 669.109 178.85L655.405 137.37C654.417 134.435 653.32 132.971 652.13 132.971C651.034 132.971 650.038 134.55 649.144 137.695L643.049 175.027C641.058 186.899 636.442 192.828 629.2 192.828C625.32 192.828 622.218 191.573 619.888 189.063C617.558 186.553 616.39 183.033 616.39 178.533C616.39 177.169 616.686 174.349 617.284 170.051L628.753 86.9331C630.542 74.1524 637.387 67.7621 649.303 67.7621C659.127 67.7621 665.286 73.2437 667.768 84.2067L683.557 130.446C684.054 133.375 685.245 134.839 687.127 134.839C688.815 134.839 690.048 133.223 690.849 129.978L701.719 84.0553C704.301 73.186 710.353 67.7549 719.881 67.7549C725.846 67.7549 730.751 69.3849 734.617 72.6234C738.786 76.1792 741.217 81.2568 741.909 87.8419L750.991 171.796C751.495 176.405 751.741 178.597 751.741 178.388ZM832.107 178.244C832.107 183.055 831.415 186.286 830.023 187.967C828.133 190.058 824.267 191.104 818.41 191.104H782.526C775.579 191.104 770.862 189.849 768.388 187.346C765.9 184.836 764.659 180.242 764.659 173.556V88.931C764.659 81.8266 765.929 76.785 768.46 73.8062C770.985 70.8202 775.774 69.3345 782.828 69.3345H817.515C823.372 69.3345 827.246 70.4452 829.128 72.6306C830.52 74.1885 831.213 77.4919 831.213 82.4974C831.213 87.1927 830.52 90.2292 829.128 91.5852C827.433 93.2585 823.567 94.1961 817.515 94.3981L798.899 95.0256C792.249 94.7227 788.923 97.4706 788.923 103.277V107.633C788.923 113.858 792.054 116.966 798.3 116.966H814.688C820.545 116.966 824.411 118.07 826.301 120.255C827.679 121.827 828.378 125.066 828.378 129.97C828.378 134.774 827.679 137.962 826.301 139.527C824.411 141.619 820.545 142.665 814.688 142.665H800.991C794.34 142.665 791.015 145.477 791.015 151.118V155.662C791.015 159.643 792.451 162.463 795.329 164.129C797.507 165.283 800.147 165.694 803.227 165.377H818.41C824.361 165.377 828.241 166.43 830.023 168.514C831.415 170.101 832.107 173.347 832.107 178.251V178.244ZM1059.68 138.914C1059.68 156.679 1055.26 170.411 1046.43 180.134C1037.6 189.849 1025.54 194.703 1010.25 194.703C994.867 194.703 982.728 189.849 973.849 180.134C964.963 170.411 960.519 156.679 960.519 138.914V82.8003C960.519 76.6408 961.616 72.508 963.801 70.4235C965.59 68.642 968.857 67.7549 973.632 67.7549C978.595 67.7549 981.92 68.6565 983.608 70.4235C985.786 72.4142 986.89 76.5326 986.89 82.8003V135.935C986.89 157.457 994.68 168.219 1010.27 168.219C1025.75 168.219 1033.49 157.457 1033.49 135.935V82.8003C1033.49 76.6408 1034.52 72.508 1036.62 70.4235C1038.4 68.642 1041.73 67.7549 1046.59 67.7549C1051.45 67.7549 1054.78 68.6565 1056.57 70.4235C1058.64 72.5152 1059.69 76.6408 1059.69 82.8003L1059.68 138.914ZM1150.76 164.454L1133.18 145.023C1133.18 145.023 1131.86 143.826 1131.26 142.751C1136.54 142.52 1148.32 136.029 1152.18 128.6C1155.85 121.503 1157.6 115.084 1157.6 107.251C1157.6 95.8694 1153.82 86.7744 1146.28 79.9874C1138.44 72.883 1127.53 69.32 1113.53 69.32H1092.98C1085.93 69.32 1081.14 70.813 1078.61 73.7846C1076.08 76.7562 1074.82 81.805 1074.82 88.9093V177.458C1074.82 183.314 1075.71 187.281 1077.49 189.366C1079.28 191.457 1082.76 192.503 1087.92 192.503C1093.08 192.503 1096.48 191.479 1098.12 189.452C1099.76 187.404 1100.62 183.415 1100.73 177.458L1101.32 152.387C1101.42 149.25 1101.62 147.793 1103.11 147.793C1104.9 147.793 1106.44 150.382 1110.26 155.683L1131.85 183.74C1136.8 190.217 1141.52 193.448 1145.99 193.448C1149.66 193.448 1152.69 192.208 1155.07 189.698C1157.46 187.18 1158.64 184.151 1158.64 180.61C1158.64 175.691 1156.02 170.303 1150.76 164.454ZM1113.24 124.64C1105.99 124.756 1102.27 119.635 1102.07 109.285C1101.87 99.6705 1105.8 94.8597 1113.84 94.8597C1124.75 94.8597 1130.21 99.6705 1130.21 109.285C1130.21 119.325 1124.56 124.424 1113.24 124.64ZM1447.08 164.454L1429.5 145.023C1429.5 145.023 1428.18 143.826 1427.58 142.751C1432.87 142.52 1444.64 136.029 1448.5 128.6C1452.17 121.503 1453.92 115.084 1453.92 107.251C1453.92 95.8694 1450.14 86.7744 1442.6 79.9874C1434.76 72.883 1423.84 69.32 1409.85 69.32H1389.3C1382.25 69.32 1377.46 70.813 1374.93 73.7846C1372.4 76.7634 1371.14 81.805 1371.14 88.9093V177.458C1371.14 183.314 1372.03 187.281 1373.81 189.366C1375.6 191.457 1379.08 192.503 1384.24 192.503C1389.4 192.503 1392.81 191.479 1394.44 189.452C1396.08 187.404 1396.95 183.415 1397.05 177.458L1397.64 152.387C1397.74 149.25 1397.94 147.793 1399.43 147.793C1401.22 147.793 1402.77 150.382 1406.57 155.683L1428.16 183.74C1433.13 190.217 1437.84 193.448 1442.31 193.448C1445.99 193.448 1449.01 192.208 1451.4 189.698C1453.78 187.18 1454.97 184.151 1454.97 180.61C1454.97 175.691 1452.33 170.303 1447.08 164.454ZM1409.56 124.64C1402.31 124.756 1398.59 119.635 1398.39 109.285C1398.19 99.6705 1402.12 94.8597 1410.16 94.8597C1421.07 94.8597 1426.53 99.6705 1426.53 109.285C1426.53 119.325 1420.87 124.424 1409.56 124.64ZM1278.32 136.245C1278.32 153.375 1273.39 167.411 1263.51 178.323C1253.62 189.25 1240.6 194.71 1224.42 194.71C1208.14 194.71 1194.83 188.753 1184.52 176.845C1174.19 164.937 1169.03 149.365 1169.03 130.136C1169.03 110.388 1174.29 94.7443 1184.81 83.197C1195.34 71.6569 1209.52 65.8796 1227.4 65.8796C1239.61 65.8796 1249.9 68.5988 1258.23 74.0298C1266.06 79.0426 1269.99 84.791 1269.99 91.2678C1269.99 94.6145 1268.89 97.5932 1266.71 100.197C1264.52 102.808 1261.95 104.113 1258.96 104.113C1256.88 104.113 1252.46 102.13 1245.71 98.163C1238.96 94.1961 1232.56 92.2055 1226.5 92.2055C1217.57 92.2055 1210.51 95.5521 1205.29 102.231C1200.08 108.924 1197.47 118.07 1197.47 129.667C1197.47 141.575 1200.1 150.988 1205.36 157.876C1210.63 164.771 1217.67 168.226 1226.5 168.226C1238.02 168.226 1245.37 162.795 1248.55 151.925C1249.23 149.415 1249.59 147.901 1249.59 147.382C1249.59 144.864 1247.65 143.624 1243.77 143.624H1235.43C1229.58 143.624 1225.8 142.628 1224.12 140.638C1222.83 139.073 1222.19 135.777 1222.19 130.757C1222.19 125.751 1222.83 122.462 1224.12 120.89C1225.81 118.798 1229.58 117.752 1235.43 117.752H1259.86C1266.41 117.752 1271.12 119.195 1274 122.065C1276.87 124.936 1278.32 129.66 1278.32 136.245ZM1357.04 178.244C1357.04 183.055 1356.34 186.286 1354.95 187.967C1353.07 190.058 1349.2 191.104 1343.35 191.104H1307.46C1300.52 191.104 1295.8 189.849 1293.32 187.346C1290.84 184.836 1289.6 180.242 1289.6 173.556V88.931C1289.6 81.8266 1290.86 76.785 1293.39 73.8062C1295.92 70.8202 1300.71 69.3345 1307.76 69.3345H1342.45C1348.3 69.3345 1352.18 70.4452 1354.06 72.6306C1355.45 74.1885 1356.15 77.4919 1356.15 82.4974C1356.15 87.1927 1355.45 90.2292 1354.06 91.5852C1352.37 93.2585 1348.5 94.1961 1342.45 94.3981L1323.84 95.0256C1317.18 94.7227 1313.86 97.4706 1313.86 103.277V107.633C1313.86 113.858 1316.98 116.966 1323.24 116.966H1339.62C1345.47 116.966 1349.34 118.07 1351.23 120.255C1352.61 121.827 1353.31 125.066 1353.31 129.97C1353.31 134.774 1352.61 137.962 1351.23 139.527C1349.34 141.619 1345.47 142.665 1339.62 142.665H1325.92C1319.27 142.665 1315.94 145.477 1315.94 151.118V155.662C1315.94 159.643 1317.38 162.463 1320.26 164.129C1322.44 165.283 1325.08 165.694 1328.16 165.377H1343.35C1349.3 165.377 1353.18 166.43 1354.95 168.514C1356.34 170.101 1357.04 173.347 1357.04 178.251V178.244ZM470.955 117.132C475.074 117.132 479.193 117.118 483.311 117.132C484.891 117.132 486.456 117.082 488.021 117.219C497.687 118.062 502.433 122.318 503.241 131.903C504.438 146.256 501.329 159.6 492.472 171.241C483.311 183.271 470.955 189.827 456.126 191.869C440.481 193.996 425.543 192.186 412.22 183.004C396.453 172.135 388.634 156.599 386.997 137.868C386.211 128.881 386.319 119.837 388.598 110.958C394.267 88.8733 411.175 72.4431 437.538 68.8584C448.934 67.3149 460.244 67.6323 471.294 71.1737C477.137 73.0489 482.575 75.7248 487.221 79.7854C491.267 83.3196 493.626 87.6543 493.005 93.2513C492.183 100.644 485.302 105.224 478.161 103.154C473.797 101.885 469.866 99.6777 465.755 97.8385C459.797 95.1554 453.659 93.4028 447.037 93.5109C433.434 93.7417 422.78 101.358 418.907 114.355C415.502 125.787 415.849 137.342 420.393 148.384C427.05 164.54 442.032 170.13 458.188 165.427C466.866 162.896 471.006 156.21 472.787 147.843C473.502 144.489 472.391 143.061 468.813 142.845C465.106 142.621 461.369 142.91 457.64 142.982C445.667 143.205 443.113 140.631 443.402 128.571C443.575 121.279 445.84 118.82 453.313 118.286C459.191 117.868 465.07 117.716 470.955 117.442V117.132Z" fill="white"/>
<path d="M618.582 270.493L597.441 260.064L580.563 276.508L583.953 253.19L563.086 242.22L586.312 238.231L590.3 215.007L601.271 235.866L624.605 232.476L608.145 249.353L618.575 270.486L618.582 270.493ZM1225.14 270.493L1246.27 260.064L1263.16 276.508L1259.78 253.19L1280.63 242.22L1257.4 238.231L1253.41 215.007L1242.44 235.866L1219.12 232.476L1235.57 249.353L1225.14 270.493Z" fill="#FCCA24"/>
<path d="M818.885 260.734C818.171 258.606 817.94 256.175 817.94 253.723C817.919 245.501 817.976 237.293 817.955 229.092C817.947 223.38 820.025 222.312 825.276 222.81C828.096 223.07 829.308 224.274 829.43 227.166C829.596 230.967 829.517 234.79 829.539 238.598C829.575 243.683 829.632 248.761 829.647 253.838C829.661 255.231 829.964 256.558 830.346 257.878C831.702 262.537 835.028 265.04 839.86 265.04C844.794 265.04 848.033 262.623 849.432 257.914C850.131 255.533 850.24 253.096 850.261 250.651C850.297 243.51 850.297 236.37 850.326 229.244C850.326 228.465 850.326 227.671 850.434 226.9C850.838 224.058 852.014 222.976 854.842 222.745H855.137C860.244 222.493 861.809 223.784 861.845 228.847C861.917 237.351 861.845 245.861 861.752 254.365C861.764 258.001 860.963 261.594 859.407 264.881C856.4 271.069 851.43 274.603 844.679 275.7C841.877 276.164 839.023 276.227 836.203 275.887C827.324 274.805 821.316 269.598 818.885 260.734ZM661.549 227.296C663.533 225.197 666.44 223.654 669.801 223.041C674.41 222.197 678.976 222.413 683.39 224.065C685.518 224.858 687.436 225.998 688.778 227.938C690.026 229.741 689.99 231.602 689.009 233.477C688.064 235.302 686.354 235.663 684.522 235.612C682.322 235.54 680.375 234.53 678.319 233.903C676.134 233.225 673.977 232.828 671.727 233.766C670.169 234.415 669.476 235.591 669.296 237.149C669.116 238.735 669.657 240.055 670.991 240.964C671.554 241.339 672.203 241.592 672.837 241.866C675.174 242.861 677.533 243.799 679.87 244.823C682.207 245.84 684.4 247.088 686.318 248.811C691.959 253.911 692.99 262.198 688.72 268.523C686.686 271.531 684.003 273.824 680.57 274.957C672.729 277.525 665.148 276.818 657.972 272.591C657.387 272.235 656.845 271.814 656.356 271.336C654.322 269.389 653.817 267.03 654.957 264.975C655.54 263.937 656.452 263.124 657.549 262.662C658.646 262.199 659.865 262.115 661.015 262.421C662.905 262.861 664.723 263.611 666.569 264.261C668.697 265.011 670.839 265.739 673.126 265.689C675.311 265.645 677.129 264.859 678.125 262.732C679.336 260.142 678.608 257.322 676.228 255.764C674.553 254.746 672.77 253.919 670.912 253.298C667.615 252.071 664.362 250.737 661.463 248.667C659.01 246.922 657.431 244.628 656.955 241.721C656.075 236.384 657.157 231.581 661.549 227.296ZM1158.01 227.267C1159.99 225.161 1162.9 223.625 1166.26 223.012C1170.87 222.161 1175.44 222.377 1179.85 224.029C1181.98 224.822 1183.9 225.962 1185.24 227.909C1186.49 229.712 1186.45 231.566 1185.48 233.441C1184.52 235.273 1182.81 235.634 1180.98 235.576C1178.79 235.504 1176.83 234.502 1174.79 233.867C1172.59 233.189 1170.44 232.792 1168.19 233.737C1166.64 234.386 1165.94 235.562 1165.76 237.113C1165.57 238.699 1166.12 240.019 1167.46 240.928C1168.01 241.303 1168.66 241.555 1169.3 241.83C1171.64 242.825 1174 243.763 1176.33 244.787C1178.67 245.804 1180.87 247.051 1182.78 248.775C1188.42 253.875 1189.45 262.162 1185.19 268.487C1183.15 271.495 1180.47 273.788 1177.04 274.921C1169.19 277.496 1161.61 276.782 1154.43 272.562C1153.85 272.203 1153.3 271.78 1152.82 271.3C1150.78 269.353 1150.28 266.994 1151.42 264.939C1152 263.903 1152.91 263.09 1154.01 262.628C1155.1 262.166 1156.32 262.081 1157.47 262.385C1159.36 262.825 1161.18 263.575 1163.03 264.232C1165.16 264.982 1167.3 265.703 1169.59 265.66C1171.77 265.609 1173.59 264.823 1174.58 262.703C1175.8 260.106 1175.07 257.279 1172.69 255.728C1171.01 254.71 1169.23 253.883 1167.37 253.261C1164.07 252.035 1160.82 250.701 1157.92 248.631C1155.47 246.886 1153.89 244.592 1153.41 241.685C1152.53 236.348 1153.62 231.552 1158.01 227.267ZM771.648 225.313C773.674 228.32 772.362 232.114 769.123 233.203C767.204 233.852 765.17 233.874 763.151 233.968C760.756 234.076 760.172 234.523 759.739 236.867C759.501 238.151 759.465 239.471 759.436 240.784C759.277 249.756 759.147 258.729 759.003 267.701C758.996 268.206 758.996 268.711 758.982 269.208C758.852 275.108 757.806 276.443 751.127 275.916C748.631 275.714 747.52 274.618 747.138 272.151C746.958 270.968 746.979 269.742 746.994 268.545C747.131 259.161 747.297 249.792 747.434 240.416C747.476 239.108 747.42 237.799 747.268 236.5C746.943 234.119 746.308 233.6 743.935 233.499C742.226 233.427 740.488 233.6 738.821 233.138C736.896 232.605 735.287 231.71 734.768 229.532C734.039 226.38 735.402 223.978 738.518 222.998C739.882 222.572 741.288 222.421 742.695 222.435C750.052 222.536 757.416 222.651 764.774 222.774C766.187 222.803 767.579 223.055 768.935 223.488C769.985 223.847 770.92 224.476 771.648 225.313ZM1006.18 223.856C1007.6 224.166 1008.4 225.176 1008.84 226.582C1009.3 228.01 1009.3 229.489 1009.31 230.939C1009.34 243.438 1009.35 255.93 1009.35 268.429C1009.35 269.598 1009.36 270.781 1009.2 271.935C1008.87 274.279 1007.77 275.375 1005.41 275.757C1004.44 275.897 1003.47 275.934 1002.49 275.866C999.706 275.714 998.401 274.567 997.953 271.827C997.783 270.569 997.706 269.301 997.723 268.033C997.694 255.634 997.687 243.236 997.665 230.83C997.665 230.441 997.622 230.044 997.629 229.655C997.874 224.303 1000.95 222.168 1006.18 223.856ZM1108.56 246.301C1107.66 232.237 1097.57 221.901 1082.27 222.644C1073.11 223.091 1066.17 227.332 1062.11 235.511C1058.25 243.265 1058.01 251.516 1060.55 259.746C1061.38 262.58 1062.76 265.221 1064.62 267.515C1066.48 269.81 1068.78 271.712 1071.38 273.11C1076.27 275.794 1081.6 276.464 1087.09 275.902C1094.46 275.152 1100.15 271.545 1104.43 265.198C1107.94 259.572 1108.99 253.081 1108.56 246.301ZM1073.52 258.945C1070.28 252.136 1070.44 245.169 1074.35 238.735C1078.87 231.292 1089.88 231.696 1093.91 239.428C1097.41 246.121 1096.84 252.98 1094.5 257.748C1089.07 267.124 1077.4 267.11 1073.52 258.945ZM952.627 245.155C951.582 235.129 944.888 226.647 935.691 224.152C928.118 222.103 920.357 222.774 912.66 223.25C909.754 223.43 908.203 225.32 907.792 228.277C907.568 229.886 907.503 231.523 907.496 233.146C907.467 244.224 907.467 255.288 907.474 266.367C907.474 267.687 907.539 269.006 907.647 270.334C907.922 273.925 909.364 275.455 912.899 275.866C914.305 276.032 915.733 276.053 917.356 276.154C920.912 276.147 924.67 276.183 928.435 276.111C939.716 275.873 948.437 269.345 951.567 258.743C952.812 254.328 953.172 249.71 952.627 245.155ZM938.461 256.702C936.42 262.558 929.733 266.179 923.703 264.773C921.756 264.311 920.436 263.099 919.953 261.166C919.679 259.979 919.541 258.764 919.542 257.546C919.506 255.303 919.621 253.06 919.621 250.831C919.621 248.588 919.57 246.359 919.534 244.116H919.65C919.614 242.688 919.506 241.26 919.57 239.839C919.736 235.692 922.081 233.564 926.264 233.636C933.917 233.766 938.173 237.408 939.348 244.96C939.961 248.927 939.803 252.879 938.461 256.702Z" fill="#EA2D2E"/>
<path d="M923.098 123.039C926.697 124.511 930.065 125.621 933.181 127.223C942.183 131.867 947.088 139.369 948.278 149.423C951.322 175.172 935.158 189.691 911.182 192.107C897.52 193.477 883.737 193.29 869.996 193.405C869.372 193.41 868.749 193.384 868.128 193.326C857.294 192.453 853.262 188.428 852.959 177.552C852.158 148.002 851.408 118.459 850.802 88.9095C850.492 74.1021 855.592 68.7071 870.313 68.4619C881.753 68.2816 893.193 67.5964 904.64 68.2672C909.841 68.5738 914.946 69.8048 919.715 71.9023C929.661 76.2442 935.706 83.6588 936.889 94.5641C938.115 105.967 935.194 115.639 924.555 121.727C924.201 121.936 923.941 122.282 923.098 123.039Z" fill="white"/>
<path d="M897.324 168.413C885.863 168.586 883.54 166.393 882.927 155.567C882.206 142.787 885.445 139.39 898.19 139.938C901.905 140.096 905.641 140.45 909.161 141.928C915.032 144.41 917.636 148.535 917.383 155.156C917.153 161.186 914.138 165.146 908.245 167.093C904.451 168.362 900.52 168.572 897.324 168.413ZM880.403 103.644C880.273 95.1478 883.064 92.306 891.453 92.1618C894.576 92.1113 897.656 92.1978 900.621 93.3735C905.872 95.4507 908.569 99.3888 908.396 104.82C908.23 110.251 904.761 114.506 899.387 116.093C895.038 117.37 890.732 116.656 886.498 115.732C883.944 115.184 882.278 113.396 881.369 110.813C880.511 108.39 880.684 105.916 880.403 103.644Z" fill="black"/>
<defs>
<linearGradient id="paint0_linear_32_2" x1="294.156" y1="200.148" x2="37.0367" y2="225.914" gradientUnits="userSpaceOnUse">
<stop stop-color="#996740" stop-opacity="0.96"/>
<stop offset="1" stop-color="#855730" stop-opacity="0.96"/>
</linearGradient>
<radialGradient id="paint1_radial_32_2" cx="0" cy="0" r="1" gradientUnits="userSpaceOnUse" gradientTransform="translate(271.786 216.743) rotate(167.758) scale(154.641 78.4411)">
<stop stop-color="#F0CB88" stop-opacity="0.958"/>
<stop offset="1" stop-color="#E1A165" stop-opacity="0.958"/>
</radialGradient>
<linearGradient id="paint2_linear_32_2" x1="273.015" y1="167.346" x2="82.5354" y2="175.389" gradientUnits="userSpaceOnUse">
<stop stop-color="#EC8B87" stop-opacity="0.958"/>
<stop offset="1" stop-color="#D93E2C" stop-opacity="0.958"/>
</linearGradient>
<radialGradient id="paint3_radial_32_2" cx="0" cy="0" r="1" gradientUnits="userSpaceOnUse" gradientTransform="translate(218.523 79.3982) rotate(176.477) scale(116.42 81.5538)">
<stop stop-color="#F0CB88" stop-opacity="0.958"/>
<stop offset="1" stop-color="#E1A165" stop-opacity="0.958"/>
</radialGradient>
<radialGradient id="paint4_radial_32_2" cx="0" cy="0" r="1" gradientUnits="userSpaceOnUse" gradientTransform="translate(130.587 96.8355) scale(21.3148 21.3137)">
<stop stop-color="#F7E4C5" stop-opacity="0.958"/>
<stop offset="0.656" stop-color="#F0CB88" stop-opacity="0.958"/>
<stop offset="1" stop-color="#E1A165" stop-opacity="0.958"/>
</radialGradient>
<radialGradient id="paint5_radial_32_2" cx="0" cy="0" r="1" gradientUnits="userSpaceOnUse" gradientTransform="translate(132.662 112.24) rotate(75.7173) scale(8.7053 8.7057)">
<stop offset="0.532" stop-color="white" stop-opacity="0.96"/>
<stop offset="1" stop-color="#231F20" stop-opacity="0.96"/>
</radialGradient>
<radialGradient id="paint6_radial_32_2" cx="0" cy="0" r="1" gradientUnits="userSpaceOnUse" gradientTransform="translate(207.015 102.808) scale(17.4358 17.4349)">
<stop stop-color="#F7E4C5" stop-opacity="0.958"/>
<stop offset="0.656" stop-color="#F0CB88" stop-opacity="0.958"/>
<stop offset="1" stop-color="#E1A165" stop-opacity="0.958"/>
</radialGradient>
<radialGradient id="paint7_radial_32_2" cx="0" cy="0" r="1" gradientUnits="userSpaceOnUse" gradientTransform="translate(200.244 115.87) rotate(101.397) scale(7.12146 7.12181)">
<stop offset="0.532" stop-color="white" stop-opacity="0.96"/>
<stop offset="1" stop-color="#231F20" stop-opacity="0.96"/>
</radialGradient>
</defs>
</svg>
