<svg width="120" height="70" viewBox="0 0 1028 637" fill="none" xmlns="http://www.w3.org/2000/svg">
<path fill-rule="evenodd" clip-rule="evenodd" d="M25.02 515.184C23.2102 515.184 21.422 514.791 19.7788 514.033C18.1357 513.275 16.6766 512.17 15.5024 510.793C14.3282 509.417 13.4667 507.803 12.9775 506.061C12.4883 504.32 12.3829 502.493 12.6687 500.707L62.4221 190.118C62.892 187.182 64.3937 184.51 66.6574 182.581C68.9211 180.653 71.7987 179.594 74.7734 179.594H984.173C985.983 179.594 987.771 179.987 989.414 180.745C991.057 181.503 992.516 182.608 993.69 183.985C994.865 185.361 995.726 186.976 996.215 188.717C996.705 190.458 996.81 192.285 996.524 194.071L946.766 504.66C946.296 507.595 944.795 510.266 942.533 512.195C940.27 514.124 937.393 515.183 934.419 515.184H25.02Z" fill="#FEFEFE"/>
<mask id="mask0_2_2959" style="mask-type:luminance" maskUnits="userSpaceOnUse" x="0" y="167" width="1010" height="361">
<path d="M0 167.092H1009.19V527.691H0V167.092Z" fill="#FEFEFE"/>
</mask>
<g mask="url(#mask0_2_2959)">
<path fill-rule="evenodd" clip-rule="evenodd" d="M984.172 167.092H74.7731C68.8235 167.092 63.0688 169.212 58.5416 173.07C54.0144 176.928 51.0111 182.272 50.0706 188.144L0.308285 498.737C-0.262575 502.309 -0.0512094 505.963 0.927798 509.446C1.90681 512.928 3.63015 516.157 5.97894 518.91C8.32773 521.662 11.246 523.873 14.5326 525.389C17.8191 526.904 21.3955 527.69 25.0152 527.691H934.415C940.365 527.691 946.12 525.572 950.647 521.713C955.174 517.855 958.177 512.51 959.117 506.639L1008.87 196.05C1009.44 192.478 1009.23 188.825 1008.25 185.342C1007.27 181.86 1005.55 178.631 1003.2 175.879C1000.85 173.126 997.935 170.916 994.649 169.4C991.363 167.883 987.787 167.097 984.168 167.096M984.168 192.097L934.415 502.681H25.0196L74.7731 192.097H984.177" fill="#FEFEFE"/>
</g>
<mask id="mask1_2_2959" style="mask-type:luminance" maskUnits="userSpaceOnUse" x="518" y="0" width="510" height="637">
<path d="M518.246 0H1027.24V636.92H518.246V0Z" fill="#FEFEFE"/>
</mask>
<g mask="url(#mask1_2_2959)">
<path fill-rule="evenodd" clip-rule="evenodd" d="M1025.93 46.9643C1022.08 31.8046 1010.02 17.9669 992.855 9.00329C981.58 3.11127 969.427 0 957.711 0C940.698 0 926.354 6.8395 918.351 18.7646L918.32 18.8086L907.887 34.4179C906.956 35.8104 906.18 37.2779 905.554 38.7851C904.174 40.2692 902.915 41.8607 901.788 43.5445L844.957 128.54C844.022 129.937 843.246 131.405 842.62 132.921C841.241 134.405 839.982 135.997 838.854 137.68L821.608 163.461C813.671 175.35 813.261 190.074 819.823 203.696L656.469 447.996L607.258 433.101C607.148 432.887 607.036 432.674 606.923 432.462C598.554 417.28 583.605 408.577 565.909 408.577C552.795 408.577 541.458 413.345 537.146 415.416C536.849 415.559 536.555 415.707 536.264 415.861C532.964 416.82 529.898 418.447 527.256 420.643C524.614 422.839 522.453 425.556 520.909 428.623C519.365 431.691 518.47 435.044 518.28 438.473C518.091 441.901 518.61 445.333 519.807 448.552L534.667 488.623C536.819 494.427 541.049 499.226 546.538 502.091L797.113 632.967C799.795 634.367 802.708 635.271 805.712 635.633C808.263 636.48 810.934 636.913 813.623 636.916C817.733 636.914 821.779 635.901 825.405 633.965C829.03 632.03 832.123 629.232 834.41 625.819L856.656 592.609C859.212 588.794 860.668 584.351 860.864 579.764C861.06 575.178 859.988 570.626 857.767 566.608C849.389 551.448 834.432 542.753 816.731 542.753C811.025 542.753 805.668 543.652 801.108 544.825L723.363 485.64L886.412 241.811C902.705 241.388 916.384 234.601 924.127 223.029L941.338 197.275C942.484 195.56 943.476 193.78 944.319 191.942C945.47 190.797 946.523 189.523 947.449 188.139L1004.32 103.152C1005.48 101.412 1006.48 99.5959 1007.33 97.7229C1008.45 96.5992 1009.47 95.3608 1010.37 94.0079L1020.79 78.4384C1026.94 69.2984 1028.77 58.1226 1025.93 46.9643Z" fill="#FEFEFE"/>
</g>
<path fill-rule="evenodd" clip-rule="evenodd" d="M964.709 55.9015C947.895 47.1141 929.031 47.8016 922.589 57.4395L865.758 142.426C875.781 138.504 890.262 139.906 903.799 146.983C917.368 154.056 925.733 164.589 926.659 174.24L983.507 89.2749C989.954 79.615 981.532 64.6712 964.709 55.9015Z" fill="#DA1D30"/>
<path fill-rule="evenodd" clip-rule="evenodd" d="M981.258 31.1613C964.471 22.3871 945.584 23.0658 939.124 32.6949L928.696 48.3041C938.714 44.404 953.204 45.7966 966.741 52.852C980.305 59.9251 988.657 70.4796 989.583 80.1043L1000.03 64.5038C1006.51 54.8704 998.085 39.9442 981.258 31.1613ZM901.766 150.033C884.966 141.228 866.11 141.915 859.655 151.566L842.413 177.347C838.118 183.776 840.442 192.568 847.506 200.329L853.838 190.81C857.503 185.337 867.124 184.53 875.688 189.012C884.3 193.489 888.11 201.32 884.454 206.825L878.091 216.299C889.155 218.005 899.01 215.594 903.327 209.147L920.547 183.367C927.015 173.724 918.602 158.798 901.766 150.033ZM673.887 479.391L543.262 439.866L558.122 479.938L808.697 610.809L793.837 570.728L673.887 479.391Z" fill="#DA1D30"/>
<path fill-rule="evenodd" clip-rule="evenodd" d="M880.944 204.991C883.462 201.259 880.203 195.446 873.651 192.048C867.147 188.628 859.805 188.902 857.3 192.643L669.561 473.411L674.782 475.05L691.724 487.963L880.94 204.996L880.944 204.991ZM798.71 572.183L813.618 611.915L835.869 578.705C824.845 558.751 798.71 572.183 798.71 572.183ZM585.008 444.533C574.204 424.94 548.88 437.53 547.932 437.98L582.516 448.23L585.008 444.533Z" fill="#DA1D30"/>
<mask id="mask2_2_2959" style="mask-type:luminance" maskUnits="userSpaceOnUse" x="0" y="0" width="1028" height="637">
<path d="M0 636.92H1027.24V0H0V636.92Z" fill="#FEFEFE"/>
</mask>
<g mask="url(#mask2_2_2959)">
<path fill-rule="evenodd" clip-rule="evenodd" d="M504.595 424.076H965.45V184.512H504.595V424.076Z" fill="#FEFEFE"/>
</g>
<mask id="mask3_2_2959" style="mask-type:luminance" maskUnits="userSpaceOnUse" x="0" y="0" width="1028" height="637">
<path d="M0 636.92H1027.24V0H0V636.92Z" fill="#505153"/>
</mask>
<g mask="url(#mask3_2_2959)">
<path fill-rule="evenodd" clip-rule="evenodd" d="M45.8687 479.471C44.5458 486.94 47.2798 490.263 54.7011 490.263C62.1577 490.25 66.0646 486.923 67.3743 479.471L71.0122 458.868H62.1974L61.2802 464.077H64.486L61.7741 479.471C61.1656 482.917 58.8109 485.054 55.6183 485.054C52.4522 485.054 50.8604 482.917 51.4689 479.471L57.8187 443.475C58.5507 439.355 61.4434 437.887 63.9128 437.887C67.145 437.922 68.7324 440.068 68.1239 443.475L67.0083 449.803H72.6129L73.7329 443.475C75.0426 436.027 72.3086 432.713 64.852 432.713C57.4262 432.713 53.5282 436.027 52.2141 443.475L45.8687 479.471ZM124.699 471.617L136.155 434.481L134.506 471.617H124.703H124.699ZM133.747 489.307H139.405L140.238 470.256L140.944 433.643H131.728L119.443 470.397L113.591 489.307H119.218L123.098 476.826H134.303L133.747 489.307ZM206.806 489.307L216.635 433.643H210.673L191.809 478.461L188.625 433.643H182.663L172.839 489.307H178.174L185.238 449.301L188.21 489.307H191.72L208.693 448.922L201.563 489.307H206.806ZM264.311 433.643L254.495 489.307H260.096L269.92 433.643H264.311ZM335.531 489.307L345.342 433.678L340.359 433.762L333.207 474.288L329.776 433.643H323.841L314.016 489.307H319.29L326.284 449.658L329.591 489.307H335.531ZM383.216 479.471C381.893 486.94 384.627 490.263 392.053 490.263C399.505 490.25 403.416 486.923 404.73 479.471L408.364 458.868H399.545L398.632 464.077H401.833L399.121 479.471C398.517 482.917 396.158 485.054 392.974 485.054C389.804 485.054 388.212 482.917 388.82 479.471L395.17 443.475C395.902 439.355 398.791 437.887 401.26 437.887C404.492 437.922 406.08 440.068 405.471 443.475L404.36 449.803H409.969L411.08 443.475C412.394 436.027 409.656 432.713 402.204 432.713C394.778 432.713 390.875 436.027 389.566 443.475L383.216 479.471Z" fill="#505153"/>
</g>
<mask id="mask4_2_2959" style="mask-type:luminance" maskUnits="userSpaceOnUse" x="0" y="0" width="1028" height="637">
<path d="M0 636.92H1027.24V0H0V636.92Z" fill="#DA1D30"/>
</mask>
<g mask="url(#mask4_2_2959)">
<path fill-rule="evenodd" clip-rule="evenodd" d="M129.933 295.896C133.299 295.929 136.629 295.211 139.682 293.794C142.615 292.426 145.255 290.503 147.456 288.132C149.681 285.715 151.505 282.958 152.858 279.966C154.227 276.991 155.201 273.85 155.755 270.623C155.927 269.57 156.059 268.6 156.152 267.723C156.24 266.846 156.284 265.965 156.284 265.092C156.284 258.768 154.476 254.124 150.878 251.136C147.271 248.152 142.403 246.663 136.252 246.663H134.153L126.515 295.636L129.933 295.896ZM139.422 402.526L122.56 319.852L121.77 320.381C121.241 325.295 120.721 330.165 120.187 334.986C119.65 339.88 118.949 344.756 118.084 349.603L109.913 402.526H56.1689L87.0008 204.013H138.897C149.255 204.013 158.829 204.802 167.604 206.384C176.388 207.961 183.941 210.645 190.265 214.413C196.499 218.098 201.6 223.425 205.01 229.811C208.529 236.311 210.289 244.556 210.289 254.56C210.289 257.028 210.148 259.522 209.892 262.06C209.627 264.608 209.319 267.291 208.966 270.099C207.211 281.147 203.216 291.163 196.981 300.109C190.745 309.064 181.922 315.648 170.505 319.852L197.638 402.526H139.422ZM335.918 354.605C342.065 354.605 347.29 352.9 351.594 349.471C355.94 345.995 359.563 341.703 362.261 336.837C365.098 331.768 367.31 326.374 368.849 320.773C370.423 315.071 371.565 309.849 372.266 305.111C373.325 299.153 373.854 292.653 373.854 285.624C373.854 281.411 373.545 277.383 372.928 273.518C372.31 269.658 371.168 266.234 369.506 263.241C367.883 260.316 365.522 257.867 362.658 256.137C359.761 254.388 356.114 253.507 351.722 253.507L335.918 354.605ZM305.624 204.013H348.82C362.168 204.013 373.854 205.762 383.864 209.283C393.873 212.791 402.252 217.837 409.02 224.412C415.785 230.992 420.873 238.981 424.304 248.381C427.726 257.768 429.441 268.345 429.441 280.098C429.441 283.614 429.309 287.206 429.044 290.895C428.78 294.579 428.295 298.444 427.598 302.48C425.305 317.75 421.843 330.821 417.191 341.711C412.526 352.596 407.181 361.718 401.118 369.091C395.059 376.459 388.507 382.382 381.496 386.868C374.462 391.332 367.442 394.712 360.418 396.991C353.393 399.278 346.541 400.772 339.869 401.468C333.188 402.178 327.139 402.526 321.693 402.526H274.801L305.624 204.013Z" fill="#DA1D30"/>
</g>
<mask id="mask5_2_2959" style="mask-type:luminance" maskUnits="userSpaceOnUse" x="0" y="0" width="1028" height="637">
<path d="M0 636.92H1027.24V0H0V636.92Z" fill="#424242"/>
</mask>
<g mask="url(#mask5_2_2959)">
<path fill-rule="evenodd" clip-rule="evenodd" d="M498.416 295.896C501.78 295.929 505.11 295.211 508.161 293.794C511.094 292.425 513.733 290.502 515.935 288.132C518.162 285.716 519.985 282.959 521.337 279.966C522.707 276.991 523.681 273.85 524.234 270.623C524.411 269.57 524.534 268.6 524.631 267.723C524.719 266.846 524.759 265.965 524.759 265.092C524.759 258.768 522.955 254.124 519.357 251.136C515.755 248.152 510.886 246.663 504.735 246.663H502.636L494.99 295.636L498.412 295.901L498.416 295.896ZM507.897 402.526L491.039 319.852L490.245 320.381C489.716 325.295 489.2 330.165 488.658 334.986C488.127 339.881 487.426 344.756 486.559 349.603L478.392 402.526H424.652L455.475 204.013H507.376C517.734 204.013 527.308 204.802 536.083 206.384C544.867 207.961 552.42 210.645 558.739 214.413C564.974 218.1 570.078 223.426 573.494 229.811C577.004 236.311 578.768 244.556 578.768 254.56C578.768 257.028 578.635 259.522 578.371 262.06C578.106 264.608 577.798 267.291 577.445 270.099C575.685 281.147 571.69 291.163 565.459 300.109C559.224 309.064 550.401 315.648 538.984 319.852L566.117 402.526H507.897ZM857.842 204.013L800.151 299.845L832.024 402.526H774.329L755.103 311.435H754.838L740.609 402.526H686.869L717.692 204.013H771.436L758.273 288.528H758.529L801.214 204.017L857.842 204.013ZM869.378 204.013H969.228L962.125 250.876H916.018L911.533 278.52H952.895L945.518 325.379H904.156L899.416 355.658H945.518L938.41 402.521H838.568L869.378 204.013Z" fill="#424242"/>
</g>
<mask id="mask6_2_2959" style="mask-type:luminance" maskUnits="userSpaceOnUse" x="0" y="0" width="1028" height="637">
<path d="M0 636.92H1027.24V0H0V636.92Z" fill="#DA1D30"/>
</mask>
<g mask="url(#mask6_2_2959)">
<path fill-rule="evenodd" clip-rule="evenodd" d="M290.151 250.88L297.26 204.013H197.418L196.756 208.248C203.44 212.634 208.932 218.607 212.741 225.633C216.943 233.407 219.069 243.128 219.069 254.56C219.069 257.292 218.915 260.121 218.628 262.968C218.359 265.577 218.037 268.318 217.68 271.169C215.682 283.8 211.154 295.116 204.191 305.12C198.445 313.374 190.781 319.941 181.336 324.704L206.881 402.526H266.441L273.549 355.658H227.447L232.192 325.383H273.554L280.927 278.52H239.565L244.049 250.88H290.151Z" fill="#DA1D30"/>
</g>
<mask id="mask7_2_2959" style="mask-type:luminance" maskUnits="userSpaceOnUse" x="554" y="204" width="130" height="199">
<path d="M606.919 204.013L587.486 253.18C587.49 253.648 587.556 254.084 587.556 254.564C587.556 257.296 587.402 260.121 587.115 262.968C586.842 265.577 586.529 268.318 586.167 271.174C584.165 283.8 579.641 295.121 572.674 305.12C569.764 309.285 566.386 313.008 562.519 316.3L554.074 337.665L575.359 402.526H583.738L592.169 376.992H628.257V402.526H683.84L672.516 204.013H606.919ZM620.364 288.784C622.286 282.645 624.129 276.409 625.889 270.099C627.639 263.779 629.395 257.552 631.154 251.4H631.687C631.33 257.552 630.982 263.779 630.629 270.094C630.276 276.409 630.012 282.645 629.844 288.779L628.521 334.858H605.869L620.364 288.784V288.784Z" fill="#424242"/>
</mask>
<g mask="url(#mask7_2_2959)">
<path fill-rule="evenodd" clip-rule="evenodd" d="M606.919 204.013L587.486 253.18C587.49 253.648 587.556 254.084 587.556 254.564C587.556 257.296 587.402 260.121 587.115 262.968C586.842 265.577 586.529 268.318 586.167 271.174C584.165 283.8 579.641 295.121 572.674 305.12C569.764 309.285 566.386 313.008 562.519 316.3L554.074 337.665L575.359 402.526H583.738L592.169 376.992H628.257V402.526H683.84L672.516 204.013H606.919ZM620.364 288.784C622.286 282.645 624.129 276.409 625.889 270.099C627.639 263.779 629.395 257.552 631.154 251.4H631.687C631.33 257.552 630.982 263.779 630.629 270.094C630.276 276.409 630.012 282.645 629.844 288.779L628.521 334.858H605.869L620.364 288.784Z" fill="#424242"/>
</g>
</svg>
