<svg width="163" height="39" viewBox="0 0 1634 395" fill="none" xmlns="http://www.w3.org/2000/svg">
<path d="M325.261 0.220798C327.271 0.148425 329.282 0.0760531 331.353 0.00148755C346.483 -0.0853896 356.907 3.62547 368.733 13.1486C384.987 30.8438 385.101 51.7121 384.374 74.5862C381.709 127.989 365.397 183.085 348.432 233.626C347.419 236.648 346.421 239.674 345.432 242.704C328.268 295.126 306.079 358.524 258.36 391.458C250.913 395.056 243.342 394.529 235.236 394.21C232.726 394.193 232.726 394.193 230.164 394.175C217.887 393.933 217.887 393.933 211.098 389.408C209.148 388.758 207.197 388.108 205.187 387.438C201.903 384.155 198.619 380.872 195.335 377.588C193.303 376.288 191.271 374.988 189.177 373.649C183.162 369.465 181.139 366.129 177.601 359.859C175.001 357.854 172.379 355.875 169.719 353.949C169.719 352.649 169.719 351.349 169.719 350.009C168.419 349.359 167.118 348.709 165.778 348.039C162.576 345.207 162.576 345.207 159.867 342.129C159.867 340.829 159.867 339.529 159.867 338.19C158.567 337.539 157.266 336.889 155.926 336.22C154.504 332.982 153.18 329.698 151.985 326.37C150.685 326.37 149.384 326.37 148.044 326.37C148.044 325.07 148.044 323.77 148.044 322.43C146.744 321.78 145.444 321.13 144.104 320.46C126.37 296.557 126.37 296.557 126.37 288.941C123.331 289.841 120.294 290.745 117.256 291.65C115.565 292.152 113.873 292.655 112.13 293.173C108.417 294.313 104.734 295.554 101.085 296.882C93.7682 299.119 86.5319 300.171 78.956 301.007C77.4863 301.171 76.0166 301.336 74.5023 301.505C24.2488 306.771 24.2488 306.771 10.1524 295.736C2.01296 286.709 -0.0213732 279.328 0.015394 267.272C0.010314 265.606 0.00523397 263.94 0 262.224C0.245271 257.723 0.973471 253.856 2.23214 249.542C3.53262 249.542 4.83311 249.542 6.17301 249.542C6.37621 248.201 6.57941 246.86 6.78877 245.479C9.45954 234.07 13.371 225.996 21.9365 218.023C21.9365 216.723 21.9365 215.423 21.9365 214.083C24.5217 211.415 27.1509 208.789 29.8183 206.203C30.7936 204.253 30.7936 204.253 31.7887 202.263C33.0892 202.263 34.3897 202.263 35.7296 202.263C36.3392 201.044 36.9488 199.826 37.5769 198.57C38.9315 195.861 40.2862 193.152 41.6409 190.444C42.9414 190.444 44.2419 190.444 45.5818 190.444C46.0288 189.387 46.4758 188.331 46.9364 187.242C51.6046 178.797 57.2653 172.15 65.2861 166.804C66.2615 163.879 66.2615 163.879 67.2566 160.894C65.3058 159.919 65.3058 159.919 63.3157 158.925C62.3305 152.03 62.3305 152.03 61.3453 145.135C60.0448 144.485 58.7443 143.835 57.4044 143.165C53.0426 132.608 53.0426 132.608 55.4339 125.435C54.1335 124.785 52.833 124.135 51.4931 123.466C50.1725 119.851 50.1725 119.851 49.0223 115.124C48.3877 112.528 48.3877 112.528 47.7403 109.88C47.3125 108.025 46.8846 106.17 46.4438 104.259C46.0096 102.382 45.5755 100.505 45.1281 98.5714C36.9589 62.0588 36.9589 62.0588 42.6665 50.3313C47.5522 44.6677 47.5522 44.6677 54.7398 43.2321C57.6111 43.1941 60.4838 43.2226 63.3542 43.3057C64.8848 43.3084 66.4154 43.3111 67.9924 43.3139C71.2273 43.3317 74.4621 43.3782 77.6961 43.4514C82.6143 43.5588 87.5258 43.5726 92.4451 43.5711C95.5971 43.6002 98.749 43.6347 101.901 43.675C103.357 43.6816 104.812 43.6882 106.312 43.695C118.072 44.0131 127.385 46.762 136.851 54.1389C140.93 59.4581 142.268 63.925 143.896 70.4232C144.51 72.811 145.125 75.1988 145.758 77.659C146.071 78.9234 146.383 80.1878 146.704 81.4905C147.69 85.4832 148.709 89.4663 149.738 93.4484C151.141 98.8855 152.535 104.325 153.922 109.766C156.751 120.814 159.755 131.812 162.823 142.796C163.369 144.753 163.914 146.71 164.477 148.727C169.417 166.189 174.916 183.463 180.58 200.704C181.54 203.635 181.54 203.635 182.519 206.626C183.092 208.356 183.665 210.085 184.255 211.866C185.483 216.053 185.483 216.053 185.483 219.993C188.28 217.866 191.07 215.73 193.857 213.591C195.412 212.402 196.966 211.214 198.568 209.989C206.215 203.761 211.496 199.29 214.054 189.582C218.096 176.402 224.903 169.899 236.714 162.864C248.301 159.003 261.547 159.263 273.044 163.234C283.007 170.279 291.919 178.721 295.827 190.444C297.147 205.049 297.098 217.857 287.946 229.843C279.929 238.351 271.745 245.139 259.728 245.887C252.264 246.009 245.514 245.796 238.192 244.248C230.949 243.425 227.173 246.008 220.951 249.542C219.65 249.542 218.35 249.542 217.01 249.542C216.36 250.842 215.709 252.142 215.039 253.482C211.147 255.547 207.207 257.524 203.217 259.392C219.587 298.742 219.587 298.742 250.507 326.37C259.716 327.188 264.815 326.081 272.182 320.46C277.85 314.308 281.294 308.664 284.005 300.761C285.305 300.761 286.606 300.761 287.946 300.761C288.281 299.521 288.616 298.282 288.962 297.005C289.678 294.476 289.678 294.476 290.409 291.896C290.866 290.25 291.323 288.605 291.794 286.909C293.485 282.116 295.344 277.976 297.659 273.481C322.44 225.059 341.106 147.78 324.645 94.5319C322.437 88.139 319.915 83.3741 315.532 78.1568C315.532 76.8566 315.532 75.5564 315.532 74.2169C314.231 74.2169 312.931 74.2169 311.591 74.2169C311.591 72.9167 311.591 71.6165 311.591 70.277C310.29 70.277 308.99 70.277 307.65 70.277C307.65 68.9768 307.65 67.6767 307.65 66.3371C306.349 66.3371 305.049 66.3371 303.709 66.3371C303.709 65.0369 303.709 63.7368 303.709 62.3972C281.341 60.5104 264.712 65.165 244.596 74.2169C242.129 75.3239 242.129 75.3239 239.613 76.4533C231.242 80.2482 222.908 84.1187 214.624 88.0988C213.277 88.7457 211.929 89.3926 210.541 90.0592C206.803 91.9423 206.803 91.9423 203.217 95.8863C197.192 97.0104 191.518 96.9076 185.483 95.8863C179.39 91.4445 176.532 88.1041 173.537 81.2348C173.721 73.6979 176.934 70.2671 181.542 64.3671C186.034 60.7637 190.853 57.8976 195.828 55.0099C198.682 53.3006 201.535 51.5897 204.387 49.8773C205.837 49.0155 207.287 48.1537 208.782 47.2657C212.838 44.8075 216.808 42.2566 220.766 39.6428C240.801 26.4843 261.758 16.1612 284.005 7.23873C285.421 6.65451 286.838 6.07029 288.297 5.46837C300.571 0.837726 312.225 0.245404 325.261 0.220798ZM75.1383 192.414C53.1193 219.986 53.1193 219.986 45.5818 253.482C47.3845 260.391 49.8432 264.77 55.4339 269.241C73.4451 275.244 91.231 268.467 108.636 263.332C105.421 252.63 100.784 242.836 95.9511 232.797C95.1725 231.165 94.394 229.532 93.5919 227.85C90.3135 220.989 86.9971 214.155 83.5896 207.357C81.1465 202.458 79.0637 197.525 77.1088 192.414C76.4585 192.414 75.8083 192.414 75.1383 192.414Z" fill="#C23939"/>
<path d="M54.7398 43.2324C57.6111 43.1944 60.4838 43.2229 63.3542 43.306C64.8848 43.3087 66.4154 43.3114 67.9925 43.3142C71.2273 43.332 74.4621 43.3785 77.6961 43.4517C82.6143 43.5591 87.5259 43.5729 92.4451 43.5714C95.5971 43.6005 98.749 43.635 101.901 43.6753C103.357 43.6819 104.812 43.6885 106.312 43.6953C118.072 44.0134 127.385 46.7623 136.851 54.1392C140.93 59.4584 142.268 63.9253 143.896 70.4235C144.511 72.8113 145.125 75.1991 145.758 77.6593C146.071 78.9237 146.383 80.1881 146.704 81.4908C147.69 85.4835 148.709 89.4666 149.738 93.4487C151.141 98.8858 152.535 104.325 153.922 109.767C156.751 120.815 159.755 131.812 162.823 142.796C163.369 144.753 163.914 146.71 164.477 148.727C169.417 166.19 174.916 183.464 180.58 200.704C181.54 203.636 181.54 203.636 182.519 206.627C183.092 208.356 183.665 210.085 184.255 211.867C185.483 216.053 185.483 216.053 185.483 219.993C188.28 217.866 191.07 215.73 193.857 213.591C195.412 212.402 196.966 211.214 198.568 209.989C206.215 203.761 211.496 199.29 214.054 189.582C218.096 176.402 224.903 169.899 236.714 162.865C248.301 159.004 261.547 159.263 273.044 163.234C283.007 170.279 291.919 178.721 295.827 190.444C297.148 205.049 297.098 217.857 287.946 229.843C279.929 238.351 271.745 245.139 259.728 245.887C252.264 246.01 245.514 245.797 238.192 244.248C230.949 243.425 227.173 246.008 220.951 249.542C219.65 249.542 218.35 249.542 217.01 249.542C216.36 250.842 215.709 252.143 215.039 253.482C211.147 255.547 207.207 257.525 203.217 259.392C219.587 298.743 219.587 298.743 250.507 326.37C253.871 326.508 257.24 326.536 260.606 326.493C262.399 326.476 264.192 326.458 266.04 326.439C267.417 326.417 268.793 326.394 270.212 326.37C266.707 333.849 263.669 337.811 256.419 342.13C250.015 343.964 245.105 343.933 238.685 342.13C222.736 332.035 212.81 316.595 203.217 300.761C200.466 301.043 197.716 301.331 194.966 301.623C192.668 301.863 192.668 301.863 190.324 302.108C185.365 302.746 180.522 303.667 175.631 304.701C167.054 293.005 159.447 281.181 152.694 268.341C150.039 263.227 150.039 263.227 146.721 258.138C144.104 253.482 144.104 253.482 144.104 247.572C146.42 246.435 148.737 245.297 151.123 244.125C158.83 240.34 166.225 236.101 173.66 231.813C171.075 223.728 168.488 215.643 165.902 207.558C165.166 205.258 164.431 202.959 163.673 200.59C162.616 197.286 162.616 197.286 161.537 193.914C160.887 191.882 160.237 189.85 159.567 187.756C158.374 184.049 157.158 180.349 155.926 176.654C152.806 176.934 149.686 177.223 146.567 177.516C143.961 177.756 143.961 177.756 141.302 178.001C136.33 178.494 136.33 178.494 132.035 179.732C126.6 181 121.916 179.728 116.518 178.624C115.867 179.924 115.217 181.225 114.547 182.564C108.666 173.744 106.665 165.547 106.665 154.985C99.5126 154.335 92.3599 153.685 84.9905 153.015C83.69 155.615 82.3895 158.216 81.0496 160.895C79.7491 160.895 78.4487 160.895 77.1088 160.895C79.7945 176.622 85.631 190.712 91.8582 205.295C93.6102 209.402 95.3364 213.519 97.0594 217.638C103.369 232.733 103.369 232.733 111.027 247.167C114.547 253.482 114.547 253.482 114.054 258.284C113.567 259.3 113.079 260.315 112.577 261.362C105.354 250.756 99.6936 239.699 94.2269 228.119C93.1582 225.868 93.1582 225.868 92.0679 223.572C86.9609 212.614 86.9609 212.614 86.9609 208.173C85.6605 208.173 84.36 208.173 83.0201 208.173C83.0201 206.873 83.0201 205.573 83.0201 204.234C81.0693 203.258 81.0693 203.258 79.0792 202.264C77.8477 198.201 77.8477 198.201 77.1088 194.384C62.5367 209.041 48.0274 228.412 47.2828 249.804C47.6777 255.196 48.5396 258.769 51.4931 263.332C59.8626 269.896 67.4999 269.967 77.7245 269.611C79.9134 269.571 79.9134 269.571 82.1465 269.53C85.7224 269.461 89.2975 269.355 92.8723 269.242C95.3597 274.215 95.0369 277.736 94.9659 283.278C94.9481 285.07 94.9303 286.863 94.912 288.71C94.8891 290.087 94.8663 291.463 94.8427 292.881C75.8502 298.788 57.5899 301.528 37.7 300.761C35.6528 300.771 33.6055 300.781 31.4962 300.792C16.3057 300.417 16.3057 300.417 10.0061 295.867C1.96816 286.87 -0.021012 279.21 0.015394 267.272C0.010314 265.606 0.00523397 263.94 0 262.224C0.245271 257.724 0.973471 253.857 2.23214 249.542C3.53263 249.542 4.83311 249.542 6.17301 249.542C6.37621 248.202 6.57941 246.861 6.78877 245.479C9.45954 234.071 13.371 225.996 21.9365 218.023C21.9365 216.723 21.9365 215.423 21.9365 214.083C24.5217 211.415 27.1509 208.789 29.8183 206.204C30.7936 204.253 30.7936 204.253 31.7887 202.264C33.0892 202.264 34.3897 202.264 35.7296 202.264C36.3392 201.045 36.9488 199.826 37.5769 198.57C38.9315 195.861 40.2862 193.153 41.6409 190.444C42.9414 190.444 44.2419 190.444 45.5818 190.444C46.0288 189.388 46.4758 188.331 46.9364 187.243C51.6046 178.798 57.2653 172.15 65.2861 166.805C65.9364 164.854 66.5866 162.904 67.2566 160.895C65.3058 159.92 65.3058 159.92 63.3157 158.925C62.6589 154.328 62.0021 149.732 61.3453 145.135C60.0448 144.485 58.7443 143.835 57.4044 143.165C53.0426 132.608 53.0426 132.608 55.4339 125.436C54.1335 124.786 52.833 124.136 51.4931 123.466C50.1726 119.851 50.1726 119.851 49.0223 115.124C48.3877 112.529 48.3877 112.529 47.7403 109.881C47.3125 108.025 46.8846 106.17 46.4438 104.259C46.0096 102.382 45.5755 100.505 45.1281 98.5717C36.9589 62.0591 36.9589 62.0591 42.6665 50.3316C47.5522 44.668 47.5522 44.668 54.7398 43.2324Z" fill="#CB3030"/>
<path d="M863.93 79.3881C866.199 79.2916 868.467 79.1951 870.804 79.0957C877.108 80.1268 877.108 80.1268 881.264 84.1668C882.494 86.084 883.723 88.0012 884.989 89.9766C885.721 91.0704 886.453 92.1643 887.208 93.2912C889.762 97.1216 892.243 100.993 894.719 104.874C896.617 107.83 898.515 110.784 900.414 113.739C901.416 115.301 902.418 116.862 903.451 118.472C909.21 127.422 915.021 136.338 920.827 145.258C924.606 151.068 928.386 156.878 932.28 162.865C932.93 135.561 933.58 108.258 934.25 80.1268C944.004 80.1268 953.758 80.1268 963.807 80.1268C963.807 126.933 963.807 173.739 963.807 221.963C934.25 221.963 934.25 221.963 927.246 215.107C925.611 212.073 924.09 208.976 922.674 205.834C920.952 202.557 919.222 199.284 917.486 196.015C916.668 194.394 915.849 192.772 915.006 191.102C911.565 184.591 907.511 178.822 903.216 172.837C895.359 161.844 888.356 150.705 881.049 139.225C880.398 166.529 879.748 193.832 879.078 221.963C869.325 221.963 859.571 221.963 849.522 221.963C849.477 203.761 849.441 185.558 849.42 167.356C849.409 158.905 849.395 150.454 849.373 142.003C849.352 133.854 849.34 125.705 849.335 117.555C849.331 114.44 849.324 111.324 849.313 108.208C849.299 103.858 849.297 99.5091 849.298 95.1597C849.294 92.6794 849.289 90.199 849.285 87.6435C849.714 77.5893 854.958 79.6475 863.93 79.3881Z" fill="#FEFEFE"/>
<path d="M471.198 80.1265C480.301 80.1265 489.405 80.1265 498.784 80.1265C505.829 87.5843 509.694 93.0429 514.547 101.796C516.89 105.604 519.284 109.376 521.681 113.15C524.015 116.844 526.294 120.567 528.571 124.296C536.774 137.319 545.417 150.059 553.956 162.864C554.606 135.561 555.257 108.257 555.927 80.1265C565.03 80.1265 574.133 80.1265 583.513 80.1265C585.483 82.0964 585.483 82.0964 585.72 87.6432C585.716 90.1235 585.711 92.6038 585.707 95.1593C585.707 96.5238 585.707 97.8883 585.708 99.2941C585.706 103.824 585.691 108.354 585.676 112.885C585.672 116.018 585.669 119.151 585.667 122.284C585.66 130.545 585.64 138.807 585.618 147.068C585.598 155.492 585.589 163.917 585.579 172.341C585.558 188.881 585.525 205.422 585.483 221.963C580.702 222.141 575.927 222.271 571.144 222.375C569.793 222.43 568.442 222.485 567.05 222.542C560.763 222.644 556.835 222.605 551.621 218.916C548.491 214.824 546.316 210.732 544.104 206.08C542.234 202.674 540.356 199.273 538.47 195.876C537.498 194.054 536.527 192.231 535.526 190.353C529.598 179.72 522.75 169.68 516.025 159.54C511.636 152.836 507.247 146.132 502.725 139.225C502.075 166.528 501.424 193.832 500.754 221.963C491.001 221.963 481.247 221.963 471.198 221.963C471.198 175.157 471.198 128.351 471.198 80.1265Z" fill="#FEFEFE"/>
<path d="M810.605 94.2857C824.345 107.417 835.332 121.911 836.39 141.464C836.862 164.801 835.128 182.596 819.472 201.032C803.937 216.993 786.59 225.524 764.053 226.765C744.977 225.977 727.579 218.98 713.561 206.203C710.94 203.948 710.94 203.948 708.265 201.648C694.529 185.688 688.754 167.525 689.308 146.589C691.896 123.627 701.227 105.845 719.103 91.3308C747.897 71.2078 783.674 71.2251 810.605 94.2857ZM730.764 119.149C723.08 128.877 720.076 140.137 718.61 152.276C720.458 166.525 723.769 177.173 735.236 186.504C747.696 195.656 757.462 197.658 772.674 196.353C784.846 194.108 791.531 188.196 799.383 178.886C808.083 166.05 807.989 152.28 806.172 137.255C802.187 125.774 796.113 117.857 785.728 111.523C766.328 102.376 746.586 104.025 730.764 119.149Z" fill="#FEFEFE"/>
<path d="M1198.29 80.1265C1208.04 80.1265 1217.8 80.1265 1227.84 80.1265C1239.51 108.637 1250.45 137.412 1261.32 166.236C1261.89 167.754 1262.46 169.271 1263.05 170.835C1264.17 173.818 1265.3 176.802 1266.42 179.787C1268.99 186.603 1271.57 193.41 1274.22 200.194C1275.58 203.66 1275.58 203.66 1276.96 207.196C1277.75 209.206 1278.55 211.216 1279.36 213.287C1281.05 218.023 1281.05 218.023 1281.05 221.963C1270.64 221.963 1260.24 221.963 1249.52 221.963C1241.64 205.464 1241.64 205.464 1241.64 194.383C1223.43 195.033 1205.22 195.683 1186.47 196.353C1183.21 204.154 1179.96 211.955 1176.61 219.993C1174.64 221.963 1174.64 221.963 1167.99 222.155C1165.24 222.142 1162.49 222.118 1159.74 222.086C1158.34 222.077 1156.94 222.068 1155.5 222.059C1152.03 222.035 1148.56 222 1145.09 221.963C1146.44 213.737 1149.04 206.446 1152.08 198.693C1152.57 197.412 1153.07 196.131 1153.59 194.811C1155.18 190.726 1156.78 186.645 1158.39 182.564C1159.43 179.883 1160.48 177.203 1161.53 174.522C1163.08 170.537 1164.64 166.553 1166.2 162.57C1170.24 152.248 1174.22 141.906 1178.2 131.558C1182.1 121.416 1186.07 111.298 1190.04 101.18C1190.84 99.1348 1191.64 97.0893 1192.47 94.9819C1194.41 90.0298 1196.35 85.0781 1198.29 80.1265ZM1212.08 123.465C1206.88 137.117 1201.68 150.769 1196.32 164.834C1207.37 164.834 1218.43 164.834 1229.82 164.834C1224.61 151.182 1219.41 137.531 1214.05 123.465C1213.4 123.465 1212.75 123.465 1212.08 123.465Z" fill="#FEFEFE"/>
<path d="M83.0199 151.045C86.2227 151.323 89.4245 151.612 92.6258 151.907C94.4089 152.067 96.1919 152.227 98.0291 152.392C102.724 153.015 102.724 153.015 106.665 154.985C108.214 159.241 109.585 163.564 110.852 167.913C111.896 171.451 111.896 171.451 112.961 175.061C113.746 177.8 113.746 177.8 114.547 180.594C115.197 179.944 115.847 179.294 116.517 178.624C121.115 178.624 125.713 178.624 130.31 178.624C132.261 177.974 134.212 177.324 136.222 176.654C139.621 176.221 143.03 175.856 146.443 175.546C149.107 175.299 149.107 175.299 151.824 175.046C153.177 174.927 154.531 174.807 155.926 174.684C164.02 193.2 169.69 212.531 175.63 231.813C171.494 234.456 167.347 237.079 163.192 239.692C162.02 240.444 160.848 241.196 159.64 241.97C150.684 247.572 150.684 247.572 144.103 247.572C156.464 274.043 171.551 299.321 189.423 322.43C188.773 323.73 188.123 325.031 187.453 326.37C185.665 326.045 183.877 325.72 182.034 325.385C175.412 324.2 175.412 324.2 167.749 324.4C163.946 320.353 163.946 320.353 160.113 314.797C158.757 312.839 157.4 310.881 156.003 308.864C150.459 300.401 145.191 291.809 140.163 283.031C133.335 284.006 133.335 284.006 126.369 285.001C126.369 286.301 126.369 287.602 126.369 288.941C125.084 289.322 123.799 289.703 122.475 290.095C119.892 290.865 119.892 290.865 117.256 291.65C115.565 292.153 113.873 292.655 112.13 293.173C108.417 294.313 104.734 295.554 101.085 296.882C93.7678 299.119 86.5317 300.17 78.9559 301.007C77.4947 301.173 76.0336 301.339 74.5281 301.51C58.2984 303.23 41.9 304.415 25.8772 300.761C25.8772 300.111 25.8772 299.461 25.8772 298.791C27.9067 298.859 29.9361 298.928 32.0271 298.999C52.9901 299.475 72.3747 297.19 92.8721 292.881C92.9783 289.352 93.0548 285.822 93.1184 282.293C93.1641 280.327 93.2098 278.362 93.2569 276.337C93.4084 270.891 93.4084 270.891 88.9312 267.272C95.4336 265.972 101.936 264.671 108.636 263.332C108 262.071 107.364 260.809 106.708 259.51C103.816 253.768 100.93 248.023 98.0445 242.278C97.0437 240.293 96.0429 238.309 95.0118 236.264C93.564 233.379 93.564 233.379 92.087 230.435C91.1996 228.671 90.3121 226.907 89.3978 225.09C87.0483 220.176 84.9816 215.222 83.0199 210.143C84.3204 209.493 85.6209 208.843 86.9608 208.173C87.6667 209.655 88.3727 211.136 89.1 212.663C92.2825 219.336 95.4713 226.005 98.6602 232.675C99.7715 235.007 100.883 237.339 102.028 239.742C103.088 241.958 104.149 244.174 105.241 246.456C106.221 248.509 107.202 250.562 108.212 252.677C110.189 257.21 110.189 257.21 112.576 259.392C111.273 253.406 109.275 248.249 106.657 242.717C105.854 240.997 105.052 239.278 104.224 237.507C103.363 235.668 102.503 233.83 101.616 231.936C94.5438 216.592 87.8658 201.161 81.7884 185.396C81.1138 183.676 80.4393 181.955 79.7443 180.183C79.1336 178.569 78.5229 176.955 77.8937 175.292C77.3587 173.886 76.8237 172.481 76.2725 171.032C74.976 166.2 74.9429 161.936 75.1381 156.955C77.0889 157.605 79.0396 158.255 81.0494 158.925C81.6997 156.324 82.3499 153.724 83.0199 151.045Z" fill="#DB172F"/>
<path d="M50.4694 45.6758C53.1097 45.8472 53.1097 45.8472 55.8034 46.0221C57.5789 46.1109 59.3543 46.1998 61.1836 46.2914C63.2144 46.4628 63.2144 46.4628 65.2861 46.6377C64.7375 48.8926 64.7375 48.8926 64.1778 51.1932C62.8661 56.664 62.8661 56.664 65.2861 62.3972C63.9856 62.3972 62.6852 62.3972 61.3453 62.3972C60.6016 74.8813 63.3505 85.6144 66.6408 97.61C67.1693 99.5939 67.6978 101.578 68.2423 103.622C71.96 117.454 75.9124 131.217 80.2891 144.857C83.2323 154.348 83.2323 154.348 81.0496 160.895C79.7491 160.895 78.4487 160.895 77.1088 160.895C79.7945 176.621 85.6309 190.711 91.8582 205.295C93.6102 209.402 95.3364 213.519 97.0594 217.638C103.369 232.733 103.369 232.733 111.027 247.167C114.547 253.482 114.547 253.482 114.054 258.284C113.567 259.299 113.079 260.315 112.577 261.362C105.354 250.755 99.6936 239.699 94.2269 228.119C93.1582 225.868 93.1582 225.868 92.0679 223.572C86.9609 212.614 86.9609 212.614 86.9609 208.173C85.6605 208.173 84.36 208.173 83.0201 208.173C83.0201 206.873 83.0201 205.573 83.0201 204.233C81.0693 203.258 81.0693 203.258 79.0792 202.263C77.8477 198.2 77.8477 198.2 77.1088 194.384C62.5367 209.041 48.0274 228.411 47.2828 249.804C47.6777 255.196 48.5396 258.768 51.4931 263.332C59.8626 269.896 67.4999 269.967 77.7245 269.611C79.9134 269.571 79.9134 269.571 82.1465 269.53C85.7223 269.461 89.2975 269.355 92.8723 269.242C95.3597 274.215 95.0369 277.736 94.9658 283.277C94.9481 285.07 94.9303 286.863 94.912 288.71C94.8891 290.086 94.8662 291.463 94.8427 292.881C75.8502 298.788 57.5899 301.528 37.7 300.761C35.6528 300.771 33.6055 300.781 31.4962 300.791C16.3057 300.416 16.3057 300.416 10.0061 295.867C1.96816 286.869 -0.021012 279.21 0.015394 267.272C0.010314 265.606 0.00523397 263.94 0 262.224C0.245271 257.723 0.973471 253.856 2.23214 249.542C3.53262 249.542 4.83311 249.542 6.17301 249.542C6.37621 248.201 6.57941 246.86 6.78877 245.479C9.45954 234.07 13.371 225.996 21.9365 218.023C21.9365 216.723 21.9365 215.423 21.9365 214.083C24.5217 211.415 27.1509 208.789 29.8183 206.203C30.7936 204.253 30.7936 204.253 31.7887 202.263C33.0892 202.263 34.3897 202.263 35.7296 202.263C36.3392 201.044 36.9488 199.826 37.5769 198.57C38.9315 195.861 40.2862 193.152 41.6409 190.444C42.9414 190.444 44.2419 190.444 45.5818 190.444C46.0288 189.387 46.4758 188.331 46.9364 187.243C51.6046 178.798 57.2653 172.15 65.2861 166.804C65.9364 164.854 66.5866 162.904 67.2566 160.895C65.3058 159.919 65.3058 159.919 63.3157 158.925C62.6589 154.328 62.0021 149.731 61.3453 145.135C60.0448 144.485 58.7443 143.835 57.4044 143.165C53.0426 132.608 53.0426 132.608 55.4339 125.435C54.1335 124.785 52.833 124.135 51.4931 123.466C50.1726 119.851 50.1726 119.851 49.0223 115.124C48.5994 113.393 48.1765 111.663 47.7408 109.88C47.3128 108.025 46.8848 106.17 46.4438 104.259C46.0082 102.383 45.5726 100.508 45.1238 98.5757C37.0753 62.7193 37.0753 62.7193 41.9873 50.9238C45.5818 46.6377 45.5818 46.6377 50.4694 45.6758Z" fill="#88202F"/>
<path d="M1442.62 80.1265C1468.63 80.1265 1494.64 80.1265 1521.44 80.1265C1521.44 89.8777 1521.44 99.6289 1521.44 109.676C1505.18 109.676 1488.93 109.676 1472.18 109.676C1472.18 116.827 1472.18 123.977 1472.18 131.345C1488.43 131.345 1504.69 131.345 1521.44 131.345C1521.44 141.096 1521.44 150.848 1521.44 160.894C1505.18 160.894 1488.93 160.894 1472.18 160.894C1472.18 171.296 1472.18 181.697 1472.18 192.413C1488.43 192.413 1504.69 192.413 1521.44 192.413C1521.44 202.165 1521.44 211.916 1521.44 221.963C1495.43 221.963 1469.42 221.963 1442.62 221.963C1442.62 175.157 1442.62 128.351 1442.62 80.1265Z" fill="#FEFEFE"/>
<path d="M605.186 80.1265C631.196 80.1265 657.206 80.1265 684.004 80.1265C684.004 89.8777 684.004 99.6289 684.004 109.676C667.747 109.676 651.491 109.676 634.743 109.676C634.743 116.827 634.743 123.977 634.743 131.345C650.999 131.345 667.255 131.345 684.004 131.345C684.004 141.096 684.004 150.848 684.004 160.894C667.747 160.894 651.491 160.894 634.743 160.894C634.743 171.296 634.743 181.697 634.743 192.413C650.999 192.413 667.255 192.413 684.004 192.413C684.004 202.165 684.004 211.916 684.004 221.963C657.994 221.963 631.984 221.963 605.186 221.963C605.186 175.157 605.186 128.351 605.186 80.1265Z" fill="#FEFEFE"/>
<path d="M1018.98 80.1268C1028.73 80.1268 1038.49 80.1268 1048.53 80.1268C1052.53 88.1106 1055.73 95.0314 1058.56 103.335C1059.29 105.47 1060.02 107.605 1060.77 109.804C1061.91 113.154 1061.91 113.154 1063.07 116.571C1064.64 121.163 1066.21 125.754 1067.78 130.345C1068.54 132.549 1069.29 134.752 1070.07 137.022C1073.95 148.303 1077.98 159.524 1082.03 170.744C1090.5 151.231 1097.58 131.357 1104.54 111.275C1105.95 107.228 1107.36 103.185 1108.78 99.1414C1109.6 96.7644 1110.43 94.3874 1111.28 91.9383C1113.56 86.0367 1113.56 86.0367 1117.5 80.1268C1123.92 79.5497 1123.92 79.5497 1131.54 79.7575C1135.33 79.8375 1135.33 79.8375 1139.19 79.9191C1141.14 79.9876 1143.08 80.0562 1145.09 80.1268C1143.9 92.4112 1140.2 103.202 1136.01 114.77C1135.3 116.77 1134.59 118.77 1133.85 120.83C1131.57 127.213 1129.28 133.588 1126.98 139.964C1125.48 144.173 1123.97 148.382 1122.47 152.592C1119.55 160.752 1116.63 168.911 1113.7 177.068C1108.34 192.013 1103.07 206.986 1097.8 221.963C1088.04 221.963 1078.29 221.963 1068.24 221.963C1059.11 197.88 1050.46 173.665 1041.99 149.343C1040.38 144.718 1038.76 140.094 1037.14 135.47C1036.62 133.977 1036.1 132.483 1035.56 130.944C1031.43 119.184 1027.08 107.515 1022.53 95.9083C1020.38 90.3195 1018.98 86.1764 1018.98 80.1268Z" fill="#FEFEFE"/>
<path d="M273.044 163.234C283.006 170.279 291.918 178.721 295.827 190.444C297.147 205.049 297.097 217.857 287.945 229.843C279.929 238.351 271.745 245.139 259.728 245.887C252.264 246.009 245.514 245.796 238.192 244.248C230.949 243.425 227.172 246.008 220.95 249.542C219.65 249.542 218.349 249.542 217.01 249.542C216.359 250.842 215.709 252.142 215.039 253.482C211.147 255.547 207.207 257.524 203.216 259.392C203.867 262.642 204.517 265.893 205.187 269.242C199.828 266.563 199.656 264.014 197.621 258.445C196.613 255.735 196.613 255.735 195.585 252.97C194.893 251.067 194.201 249.164 193.487 247.203C189.318 235.841 185.1 224.867 179.571 214.083C178.326 210.752 177.167 207.386 176.123 203.987C175.605 202.357 175.087 200.726 174.553 199.047C173.605 194.097 174.02 191.226 175.63 186.504C177.28 191.344 178.92 196.187 180.556 201.032C181.026 202.408 181.496 203.785 181.98 205.203C185.483 215.607 185.483 215.607 185.483 219.993C188.279 217.866 191.07 215.73 193.857 213.591C195.411 212.402 196.966 211.214 198.567 209.989C206.215 203.761 211.496 199.29 214.054 189.582C218.095 176.402 224.903 169.899 236.714 162.864C248.3 159.003 261.547 159.263 273.044 163.234Z" fill="#AB0721"/>
<path d="M122.429 50.5776C128.956 50.8239 128.956 50.8239 136.222 52.5476C143.351 63.2108 145.502 76.3322 148.537 88.6222C149.742 93.3839 150.95 98.1446 152.163 102.904C152.78 105.327 153.397 107.749 154.032 110.245C157.025 121.792 160.213 133.282 163.439 144.766C164.01 146.807 164.581 148.848 165.169 150.951C167.304 158.525 169.465 166.045 171.967 173.507C173.567 178.343 174.625 182.972 175.508 187.981C179.01 205.943 185.027 222.002 192.411 238.738C195.794 246.679 198.639 254.726 201.331 262.924C203.362 267.605 205.549 269.62 209.128 273.181C211.352 277.155 213.476 281.185 215.532 285.247C224 301.268 233.709 317.973 250.508 326.37C253.871 326.508 257.24 326.536 260.606 326.493C262.399 326.475 264.193 326.458 266.04 326.439C267.417 326.416 268.794 326.394 270.212 326.37C266.707 333.849 263.669 337.811 256.419 342.13C250.015 343.964 245.105 343.933 238.685 342.13C222.736 332.034 212.811 316.594 203.217 300.761C200.466 301.042 197.716 301.331 194.966 301.623C193.434 301.783 191.903 301.943 190.325 302.107C185.365 302.746 180.522 303.667 175.631 304.701C167.054 293.005 159.447 281.181 152.694 268.341C150.039 263.227 150.039 263.227 146.721 258.138C144.104 253.482 144.104 253.482 144.104 247.572C146.421 246.435 148.737 245.297 151.124 244.125C158.831 240.34 166.226 236.101 173.661 231.813C173.255 230.579 172.85 229.345 172.432 228.073C158.848 186.562 146.759 144.79 136.345 102.373C133.369 90.2673 130.315 78.1677 126.37 66.3372C125.07 66.3372 123.769 66.3372 122.429 66.3372C122.429 61.1365 122.429 55.9359 122.429 50.5776Z" fill="#DD0925"/>
<path d="M1525.38 80.1269C1551.49 77.7629 1551.49 77.7629 1558.54 82.597C1561.17 86.8826 1562.91 91.2167 1564.79 95.8864C1566.82 99.8132 1568.93 103.686 1571.06 107.563C1574.29 113.484 1577.42 119.461 1580.55 125.436C1583.76 119.362 1586.96 113.288 1590.16 107.214C1591.07 105.494 1591.97 103.775 1592.91 102.004C1594.22 99.5091 1594.22 99.5091 1595.56 96.9638C1596.37 95.437 1597.17 93.9102 1598 92.3371C1600.11 88.2893 1602.16 84.2091 1604.2 80.1269C1613.95 80.1269 1623.71 80.1269 1633.75 80.1269C1631.97 90.8581 1629.32 97.0885 1623.9 106.036C1600.91 145.799 1590.91 175.896 1594.35 221.963C1584.59 221.963 1574.84 221.963 1564.79 221.963C1564.74 217.43 1564.69 212.897 1564.64 208.227C1564.56 203.8 1564.47 199.373 1564.38 194.946C1564.33 191.887 1564.28 188.829 1564.26 185.77C1564.21 181.352 1564.12 176.938 1564.02 172.522C1564.02 171.171 1564.01 169.82 1564.01 168.429C1563.71 158.253 1560.29 151.504 1554.94 143.165C1550.46 134.828 1546.08 126.439 1541.71 118.042C1540.34 115.403 1538.96 112.766 1537.58 110.133C1535.56 106.303 1533.56 102.466 1531.57 98.6259C1530.38 96.3513 1529.19 94.0766 1527.97 91.733C1525.38 86.0367 1525.38 86.0367 1525.38 80.1269Z" fill="#FEFEFE"/>
<path d="M1365.77 80.1265C1375.53 80.1265 1385.28 80.1265 1395.33 80.1265C1395.33 117.831 1395.33 155.536 1395.33 194.383C1408.34 194.383 1421.34 194.383 1434.74 194.383C1434.74 203.484 1434.74 212.586 1434.74 221.963C1411.98 221.963 1389.22 221.963 1365.77 221.963C1365.77 175.157 1365.77 128.351 1365.77 80.1265Z" fill="#FEFEFE"/>
<path d="M1290.9 80.1265C1300.65 80.1265 1310.41 80.1265 1320.46 80.1265C1320.46 117.831 1320.46 155.536 1320.46 194.383C1332.81 194.383 1345.16 194.383 1357.89 194.383C1357.89 203.484 1357.89 212.586 1357.89 221.963C1335.79 221.963 1313.68 221.963 1290.9 221.963C1290.9 175.157 1290.9 128.351 1290.9 80.1265Z" fill="#FEFEFE"/>
<path d="M287.944 21.0283C287.944 31.4296 287.944 41.8309 287.944 52.5474C290.545 53.8476 293.146 55.1478 295.826 56.4873C299.767 58.4573 299.767 58.4573 303.708 60.4272C303.708 61.0773 303.708 61.7274 303.708 62.3972C302.082 62.26 300.457 62.1229 298.782 61.9816C278.387 61.0259 262.933 65.9648 244.595 74.2168C242.95 74.9549 241.306 75.6929 239.612 76.4532C231.241 80.2482 222.907 84.1187 214.622 88.0988C213.275 88.7457 211.928 89.3926 210.54 90.0591C206.802 91.9422 206.802 91.9422 203.215 95.8862C197.191 97.0104 191.517 96.9075 185.482 95.8862C179.212 91.3157 176.41 88.0847 173.659 80.8654C173.659 76.1868 173.659 76.1868 176.491 72.6163C177.507 71.8443 178.523 71.0723 179.57 70.277C180.22 72.2272 180.871 74.1774 181.541 76.1868C183.442 74.7546 183.442 74.7546 185.381 73.2934C204.752 58.9277 224.958 46.5509 246.196 35.1873C248.244 34.0848 248.244 34.0848 250.334 32.9601C262.695 26.4533 273.698 21.0283 287.944 21.0283Z" fill="#C53C3D"/>
<path d="M83.0213 151.045C86.2241 151.323 89.4259 151.612 92.6272 151.907C94.4103 152.067 96.1934 152.227 98.0305 152.392C102.726 153.015 102.726 153.015 106.667 154.985C107.958 158.627 109.07 162.333 110.099 166.058C114.583 181.261 120.468 195.691 126.617 210.266C127.688 212.835 128.758 215.404 129.827 217.973C134.796 230.189 134.796 230.189 140.494 242.066C142.134 245.602 142.134 245.602 142.134 251.512C139.027 252.894 135.904 254.242 132.775 255.575C130.169 256.706 130.169 256.706 127.51 257.861C122.43 259.392 122.43 259.392 118.289 259.453C112.247 256.172 110.207 250.489 107.405 244.494C106.749 243.136 106.092 241.778 105.415 240.378C74.1117 174.425 74.1117 174.425 75.1396 156.955C77.0903 157.605 79.041 158.255 81.0509 158.925C81.7011 156.324 82.3514 153.724 83.0213 151.045Z" fill="#B66464"/>
<path d="M1316.51 259.392C1329.65 267.746 1336.36 277.861 1340.16 292.881C1342.46 305.569 1338.71 317.355 1332.28 328.34C1321.13 340.744 1310.57 346.615 1294.05 347.978C1281.16 348.133 1269.85 344.162 1260.29 335.435C1250.66 325.38 1245.95 314.005 1245.39 300.053C1246.36 285.985 1251.46 274.304 1261.83 264.686C1278.63 251.52 1297.34 250.169 1316.51 259.392ZM1264.38 278.552C1258.2 289.167 1257.42 300.606 1259.37 312.58C1262.84 322.579 1268.21 328.554 1277.6 333.388C1288.52 337.468 1297.75 336.795 1308.59 332.818C1318.02 328.197 1322.74 322.102 1326.37 312.58C1329.48 300.697 1328.13 292.825 1323.17 281.6C1317.86 272.837 1310.43 268.526 1300.75 265.301C1286.32 263.809 1274.08 267.067 1264.38 278.552Z" fill="#FEFEFE"/>
<path d="M1007.16 255.452C1055.1 255.452 1055.1 255.452 1068.24 267.271C1079.95 279.512 1083.12 290.263 1082.78 306.901C1081.2 318.956 1075.53 329.858 1066.64 338.189C1048.1 349.817 1028.8 346.069 1007.16 346.069C1007.16 316.165 1007.16 286.262 1007.16 255.452ZM1018.98 267.271C1018.98 289.374 1018.98 311.477 1018.98 334.249C1042.11 334.957 1042.11 334.957 1062.33 325.754C1070.16 315.229 1071.91 305.8 1070.21 292.881C1067.58 283.935 1063.84 278.426 1056.79 272.319C1045.37 267.613 1045.37 267.613 1018.98 267.271Z" fill="#FEFEFE"/>
<path d="M50.4704 45.6758C53.1107 45.8472 53.1107 45.8472 55.8044 46.0221C57.5799 46.1109 59.3553 46.1998 61.1846 46.2914C63.2154 46.4628 63.2154 46.4628 65.2871 46.6377C64.9214 48.141 64.5556 49.6443 64.1788 51.1932C62.8671 56.664 62.8671 56.664 65.2871 62.3972C63.9866 62.3972 62.6862 62.3972 61.3463 62.3972C60.6026 74.8813 63.3515 85.6144 66.6418 97.61C67.1703 99.5939 67.6988 101.578 68.2433 103.622C71.961 117.454 75.9134 131.217 80.2901 144.857C83.2333 154.348 83.2333 154.348 81.0506 160.894C79.7501 160.894 78.4497 160.894 77.1098 160.894C79.7955 176.621 85.6319 190.711 91.8592 205.295C93.6112 209.402 95.3374 213.519 97.0604 217.638C103.331 232.686 103.331 232.686 111.12 246.975C114.548 253.482 114.548 253.482 114.055 258.284C113.568 259.299 113.08 260.315 112.578 261.362C104.901 249.817 98.7929 237.924 93.1196 225.287C92.2741 223.416 91.4285 221.545 90.5574 219.618C69.228 171.752 69.228 171.752 69.228 160.894C67.2773 160.244 65.3265 159.594 63.3167 158.925C62.9509 155.573 62.9509 155.573 62.5778 152.153C62.1714 149.837 61.765 147.521 61.3463 145.135C60.0458 144.485 58.7453 143.835 57.4054 143.165C53.0436 132.608 53.0436 132.608 55.4349 125.435C54.1345 124.785 52.834 124.135 51.4941 123.466C50.1736 119.851 50.1736 119.851 49.0233 115.124C48.6004 113.393 48.1775 111.663 47.7418 109.88C47.3138 108.025 46.8858 106.17 46.4448 104.259C46.0092 102.383 45.5736 100.508 45.1248 98.5757C37.0763 62.7193 37.0763 62.7193 41.9883 50.9238C45.5828 46.6377 45.5828 46.6377 50.4704 45.6758Z" fill="#971E1F"/>
<path d="M155.926 174.684C164.019 193.2 169.689 212.53 175.63 231.812C171.533 234.411 167.427 236.994 163.315 239.569C162.159 240.304 161.003 241.039 159.813 241.797C153.945 245.455 148.877 248.1 142.133 249.542C119.169 199.934 119.169 199.934 114.546 182.564C115.197 181.264 115.847 179.963 116.517 178.624C118.671 178.664 120.825 178.705 123.044 178.747C130.199 178.989 130.199 178.989 136.221 176.654C142.879 174.588 148.975 174.526 155.926 174.684Z" fill="#FC403F"/>
<path d="M865.283 255.452C869.185 255.452 873.086 255.452 877.106 255.452C877.145 257.439 877.184 259.427 877.224 261.475C877.374 268.862 877.549 276.249 877.731 283.635C877.806 286.83 877.875 290.024 877.937 293.219C878.027 297.816 878.141 302.412 878.26 307.009C878.283 308.433 878.306 309.858 878.329 311.325C878.54 318.558 878.895 324.23 883.017 330.31C888.291 334.41 891.13 334.241 897.918 334.003C904.571 332.886 904.571 332.886 908.012 329.191C911.588 322.578 911.509 316.386 911.542 309.048C911.573 307.577 911.604 306.106 911.635 304.591C911.729 299.908 911.783 295.225 911.835 290.541C911.907 285.837 911.986 281.133 912.076 276.428C912.13 273.504 912.172 270.579 912.202 267.655C912.355 257.64 912.355 257.64 914.544 255.452C917.827 255.372 921.113 255.368 924.396 255.452C924.543 265.335 924.65 275.218 924.721 285.102C924.751 288.461 924.791 291.82 924.842 295.179C924.914 300.02 924.947 304.86 924.973 309.702C925.004 311.192 925.034 312.683 925.066 314.218C925.07 325.925 922.426 334.024 914.175 342.745C904.561 348.511 896.303 348.621 885.603 346.808C876.799 343.154 871.585 338.262 866.761 330.063C863.378 321.607 863.208 314.616 863.551 305.662C863.598 304.228 863.644 302.793 863.692 301.315C863.843 296.738 864.009 292.163 864.175 287.586C864.28 284.482 864.384 281.377 864.486 278.272C864.741 270.665 865.008 263.058 865.283 255.452Z" fill="#FEFEFE"/>
<path d="M1446.56 255.452C1451.85 258.754 1456.46 262.383 1460.36 267.272C1460.36 269.222 1460.36 271.172 1460.36 273.181C1457.1 274.482 1453.85 275.782 1450.5 277.121C1448.76 275.455 1447.01 273.79 1445.21 272.073C1439.99 267.605 1439.99 267.605 1433.02 267.641C1431.63 268.169 1430.25 268.697 1428.83 269.241C1428 274.736 1428 274.736 1428.83 281.061C1432.01 284.985 1434.84 287.701 1438.68 290.911C1442.1 293.849 1445.51 296.805 1448.9 299.776C1450.6 301.218 1452.29 302.66 1454.04 304.146C1458.61 308.874 1460.53 312.209 1462.33 318.49C1462.11 330.534 1458.73 335.878 1450.5 344.099C1443.15 348.625 1437.84 348.549 1429.47 347.401C1421.75 345.157 1416.04 340.527 1411.09 334.25C1409.74 329.917 1409.74 329.917 1409.12 326.37C1412.38 325.07 1415.63 323.77 1418.98 322.43C1420.56 324.807 1420.56 324.807 1422.18 327.232C1427.8 333.292 1430.55 333.911 1438.68 334.25C1443.17 333.545 1443.17 333.545 1446.56 332.28C1447.79 321.164 1447.79 321.164 1442.87 311.718C1440.85 310 1438.79 308.324 1436.71 306.67C1433.28 303.739 1429.88 300.782 1426.49 297.806C1424.79 296.363 1423.1 294.921 1421.36 293.435C1414.79 286.655 1413.07 281.562 1413.07 272.196C1415.7 262.968 1419.07 260.854 1426.86 255.452C1433.39 252.187 1439.8 253.45 1446.56 255.452Z" fill="#FEFEFE"/>
<path d="M656.418 255.452C661.695 258.77 666.318 262.382 670.211 267.272C670.211 269.222 670.211 271.172 670.211 273.181C666.96 274.482 663.708 275.782 660.359 277.121C659.952 275.862 659.546 274.602 659.127 273.305C656.647 268.626 656.647 268.626 650.63 267.641C644.515 266.89 644.515 266.89 638.684 269.242C638.684 274.442 638.684 279.643 638.684 285.001C639.756 285.453 640.828 285.905 641.932 286.371C647.946 289.707 652.561 293.924 657.649 298.544C660.492 301.097 660.492 301.097 663.391 303.7C669.759 310.188 671.82 314.127 673.167 323.046C671.833 332.877 668.209 338.101 660.359 344.099C651.387 348.21 644.754 348.607 635.236 346.069C627.683 341.423 623.883 337.663 618.979 330.31C620.95 324.4 620.95 324.4 624.398 322.43C628.832 322.43 628.832 322.43 633.635 327.109C635.301 328.815 636.967 330.522 638.684 332.28C644.404 334.372 647.162 334.67 652.97 332.895C656.6 330.552 656.6 330.552 658.265 326.862C658.454 320.048 656.099 316.335 652.477 310.61C647.137 305.17 642.067 301.231 634.743 298.791C627.821 292.241 624.198 285.439 623.782 275.89C624.277 267.594 626.534 263.139 632.773 257.422C639.91 251.815 648.147 252.782 656.418 255.452Z" fill="#FEFEFE"/>
<path d="M142.132 131.345C146.073 133.315 146.073 133.315 147.425 136.7C147.817 138.138 148.209 139.575 148.613 141.056C149.045 142.623 149.477 144.19 149.922 145.804C150.358 147.452 150.795 149.1 151.245 150.798C151.924 153.248 151.924 153.248 152.615 155.746C155.925 167.938 155.925 167.938 155.925 174.684C147.639 177.84 141.108 178.824 132.28 178.624C130.979 179.274 129.679 179.924 128.339 180.594C124.382 180.04 120.437 179.391 116.516 178.624C115.866 179.924 115.216 181.224 114.546 182.564C108.665 173.744 106.664 165.547 106.664 154.985C103.135 154.601 99.6047 154.235 96.0732 153.876C94.1072 153.671 92.1412 153.465 90.1157 153.253C85.0209 152.598 85.0209 152.598 81.0486 154.985C81.0486 151.734 81.0486 148.484 81.0486 145.135C89.1576 141.081 96.8235 140.397 105.71 139.648C111.981 139.106 118.173 138.177 124.398 137.255C125.81 137.115 127.223 136.976 128.678 136.832C132.521 136.444 136.345 135.877 140.162 135.285C140.812 133.985 141.462 132.685 142.132 131.345Z" fill="#E43031"/>
<path d="M322.55 0.959229C324.35 0.985893 326.15 1.01256 328.004 1.04003C332.386 1.10884 336.765 1.20544 341.146 1.32859C341.146 2.62876 341.146 3.92892 341.146 5.26848C343.097 5.26848 345.048 5.26848 347.058 5.26848C348.033 12.0943 348.033 12.0943 349.028 19.0581C347.403 18.9962 345.777 18.9343 344.102 18.8705C299.831 17.0558 299.831 17.0558 258.388 30.8778C255.43 32.3074 252.469 33.7307 249.506 35.1486C227.241 46.0869 206.947 59.507 186.801 73.9246C183.511 76.1865 183.511 76.1865 179.571 78.1565C178.785 72.8238 178.785 72.8238 179.571 66.3368C183.786 62.5385 187.328 59.957 192.132 57.1027C194.12 55.8592 194.12 55.8592 196.148 54.5907C198.994 52.8186 201.852 51.0652 204.72 49.3287C209.061 46.6779 213.334 43.9407 217.601 41.1738C238.742 27.6321 260.683 16.5519 284.004 7.23843C285.446 6.6485 286.888 6.05857 288.374 5.45076C299.915 1.11663 310.305 0.608937 322.55 0.959229Z" fill="#BF112C"/>
<path d="M351.001 7.23877C361.561 9.27983 369.027 12.0295 375.508 20.9053C391.134 48.1569 385.841 90.096 378.587 119.526C377.286 119.526 375.986 119.526 374.646 119.526C374.377 121.204 374.108 122.883 373.83 124.612C367.134 163.662 367.134 163.662 360.853 180.594C358.902 181.569 358.902 181.569 356.912 182.564C357.489 170.566 359.626 159.312 362.7 147.721C368.909 123.67 371.129 100.37 371.567 75.5713C371.635 73.4093 371.703 71.2473 371.773 69.0198C371.849 54.2336 369.195 43.2302 360.853 30.8781C359.024 29.131 357.195 27.3839 355.311 25.5839C351.001 21.0284 351.001 21.0284 350.385 13.518C350.588 11.4458 350.791 9.3737 351.001 7.23877Z" fill="#802633"/>
<path d="M173.659 186.504C177.644 192.479 179.557 197.562 181.787 204.357C182.483 206.452 183.179 208.547 183.896 210.705C185.482 216.053 185.482 216.053 185.482 219.993C188.278 217.866 191.069 215.73 193.856 213.591C195.41 212.402 196.965 211.214 198.566 209.989C205.738 204.149 211.353 199.041 215.038 190.444C215.066 192.11 215.094 193.775 215.123 195.492C215.727 209.867 216.808 220.991 226.861 231.813C230.694 234.97 234.32 237.257 238.683 239.692C236.713 243.632 236.713 243.632 231.171 245.725C227.589 246.779 223.983 247.768 220.334 248.557C219.236 248.882 218.139 249.207 217.009 249.542C216.358 250.842 215.708 252.142 215.038 253.482C211.146 255.547 207.206 257.524 203.215 259.392C203.866 262.642 204.516 265.893 205.186 269.242C199.827 266.563 199.655 264.014 197.62 258.445C196.612 255.735 196.612 255.735 195.584 252.97C194.892 251.067 194.2 249.164 193.486 247.203C189.316 235.84 185.087 224.875 179.57 214.083C178.368 210.75 177.252 207.384 176.245 203.987C175.502 201.542 175.502 201.542 174.744 199.047C173.659 194.384 173.659 194.384 173.659 186.504Z" fill="#DC253A"/>
<path d="M92.8728 180.594C100.025 180.594 107.178 180.594 114.548 180.594C115.243 182.283 115.939 183.972 116.656 185.713C119.246 191.999 121.839 198.284 124.433 204.569C125.554 207.285 126.674 210.002 127.793 212.72C129.405 216.633 131.02 220.545 132.636 224.456C134.091 227.984 134.091 227.984 135.575 231.583C138 237.5 138 237.5 140.511 242.122C142.134 245.602 142.134 245.602 142.134 251.512C136.932 253.462 131.73 255.412 126.37 257.422C116.178 241.152 108.019 224.586 100.755 206.819C99.5794 203.958 99.5794 203.958 98.3805 201.039C92.8728 187.293 92.8728 187.293 92.8728 180.594Z" fill="#FD8080"/>
<path d="M753.585 255.19C755.703 255.187 757.822 255.185 760.004 255.182C762.234 255.19 764.464 255.198 766.762 255.205C768.992 255.198 771.222 255.19 773.52 255.182C775.639 255.185 777.757 255.187 779.939 255.19C782.877 255.193 782.877 255.193 785.874 255.197C790.407 255.452 790.407 255.452 792.378 257.422C792.378 260.672 792.378 263.922 792.378 267.271C785.875 267.271 779.373 267.271 772.673 267.271C772.673 293.275 772.673 319.278 772.673 346.069C768.772 346.069 764.871 346.069 760.851 346.069C760.851 320.066 760.851 294.063 760.851 267.271C754.348 267.271 747.846 267.271 741.146 267.271C741.146 254.084 741.749 255.203 753.585 255.19Z" fill="#FEFEFE"/>
<path d="M203.218 269.242C204.518 269.242 205.819 269.242 207.159 269.242C208.626 272.133 208.626 272.133 210.122 275.082C225.128 305.27 225.128 305.27 250.508 326.37C253.872 326.508 257.241 326.536 260.607 326.493C262.4 326.475 264.193 326.458 266.041 326.439C267.418 326.417 268.794 326.394 270.213 326.37C266.708 333.849 263.67 337.811 256.42 342.13C250.016 343.964 245.106 343.933 238.686 342.13C223.698 332.643 210.059 317.112 203.218 300.761C201.543 290.264 202.255 279.777 203.218 269.242Z" fill="#D0132E"/>
<path d="M282.035 21.0283C282.035 32.7298 282.035 44.4313 282.035 56.4873C279.434 57.1374 276.833 57.7875 274.153 58.4573C274.153 57.8072 274.153 57.1571 274.153 56.4873C246.843 55.5122 246.843 55.5122 218.981 54.5174C221.401 47.2585 223.029 46.9174 229.642 43.498C231.431 42.5661 233.22 41.6341 235.064 40.6739C236.95 39.7166 238.836 38.7592 240.779 37.7729C242.612 36.8155 244.444 35.8582 246.333 34.8718C273.178 21.0283 273.178 21.0283 282.035 21.0283Z" fill="#BE3A38"/>
<path d="M122.429 50.5776C128.956 50.8239 128.956 50.8239 136.222 52.5476C145.646 65.8669 146.687 83.0142 147.306 98.8413C147.382 100.461 147.458 102.082 147.537 103.751C147.72 107.695 147.885 111.64 148.045 115.586C149.345 115.586 150.646 115.586 151.986 115.586C156.237 125.927 156.4 134.907 156.173 145.874C156.155 147.512 156.137 149.15 156.119 150.837C156.073 154.846 156.002 158.856 155.927 162.865C151.986 160.895 151.986 160.895 150.216 155.715C149.627 153.437 149.037 151.16 148.43 148.813C148.104 147.574 147.779 146.336 147.443 145.059C146.397 141.066 145.373 137.068 144.35 133.069C143.677 130.481 143.002 127.892 142.326 125.305C140.971 120.112 139.622 114.917 138.279 109.72C136.181 101.618 134.047 93.5251 131.897 85.4364C130.944 81.8488 130.944 81.8488 129.971 78.1886C128.878 74.2071 127.676 70.2541 126.37 66.3372C125.07 66.3372 123.769 66.3372 122.429 66.3372C122.429 61.1365 122.429 55.9359 122.429 50.5776Z" fill="#B00C26"/>
<path d="M165.779 206.203C168.746 211.826 170.966 217.395 172.922 223.44C173.692 225.802 173.692 225.802 174.477 228.211C174.858 229.4 175.239 230.588 175.631 231.812C171.534 234.411 167.428 236.994 163.316 239.569C162.161 240.304 161.005 241.039 159.814 241.797C154.037 245.398 148.923 248.484 142.134 249.542C139.765 244.794 137.431 240.033 135.114 235.26C134.103 233.245 134.103 233.245 133.071 231.189C129.562 223.89 127.738 219.838 130.311 212.113C136.223 212.113 142.134 212.113 148.045 212.113C153.395 211.718 158.492 211 163.809 210.143C164.459 208.843 165.109 207.543 165.779 206.203Z" fill="#FD2C2C"/>
<path d="M51.4947 265.302C53.4264 266.269 53.4264 266.269 55.3971 267.256C62.9132 269.764 69.9081 269.67 77.7262 269.488C79.915 269.461 79.915 269.461 82.1481 269.434C85.7237 269.388 89.2989 269.317 92.8739 269.242C95.3613 274.215 95.0386 277.736 94.9675 283.278C94.9497 285.07 94.9319 286.863 94.9136 288.71C94.8908 290.087 94.8679 291.463 94.8443 292.881C75.8465 298.79 57.614 301.454 37.7017 300.761C37.7017 300.111 37.7017 299.461 37.7017 298.791C42.9036 298.791 48.1056 298.791 53.4652 298.791C53.14 296.556 52.8149 294.322 52.4799 292.019C51.3454 283.089 51.3074 274.29 51.4947 265.302Z" fill="#A22235"/>
<path d="M165.779 330.31C172.573 330.49 175.094 331.741 179.918 336.589C181.307 338.418 182.697 340.246 184.128 342.13C185.665 344.088 187.202 346.045 188.785 348.063C190.296 350.005 191.808 351.948 193.365 353.949C205.307 368.674 217.634 379.155 234.744 387.438C234.744 388.089 234.744 388.739 234.744 389.408C209.243 390.961 209.243 390.961 201.37 385.099C200.028 383.271 198.687 381.442 197.306 379.559C194.974 377.848 192.588 376.209 190.163 374.634C184.078 370.456 181.193 366.357 177.601 359.859C175.001 357.854 172.379 355.875 169.719 353.949C169.719 352.649 169.719 351.349 169.719 350.01C168.419 349.359 167.118 348.709 165.779 348.04C164.339 343.481 163.017 338.883 161.838 334.25C163.138 332.95 164.439 331.65 165.779 330.31Z" fill="#971E1F"/>
<path d="M189.423 265.301C192.167 270.13 194.536 274.79 196.812 279.83C197.46 281.181 198.108 282.532 198.775 283.924C203.467 294.098 203.467 294.098 201.246 300.76C199.214 301.045 197.182 301.329 195.088 301.622C188.585 302.566 182.11 303.608 175.63 304.7C173.401 301.631 171.187 298.551 168.98 295.466C167.746 293.752 166.511 292.038 165.239 290.272C162.046 285.324 159.869 280.681 157.896 275.151C162.031 273.117 166.18 271.111 170.335 269.118C172.644 267.998 174.952 266.878 177.331 265.725C183.512 263.332 183.512 263.332 189.423 265.301Z" fill="#E52425"/>
<path d="M67.2569 160.895C73.5036 167.14 75.455 175.233 78.4638 183.426C79.1204 185.144 79.777 186.862 80.4535 188.632C81.3698 191.109 81.3698 191.109 82.3046 193.637C82.8677 195.149 83.4308 196.661 84.0109 198.219C84.9909 202.263 84.9909 202.263 83.0204 208.173C83.0204 206.873 83.0204 205.573 83.0204 204.233C81.7199 203.583 80.4194 202.933 79.0795 202.263C77.848 198.2 77.848 198.2 77.1091 194.384C66.1118 205.736 58.5699 217.715 51.4934 231.813C49.515 225.879 49.5199 223.735 50.385 217.777C51.5619 208.59 51.6404 199.7 51.4934 190.444C50.0304 191.988 48.5673 193.532 47.0599 195.122C41.6412 200.293 41.6412 200.293 37.3309 202.387C32.7179 204.772 31.7088 207.389 29.8186 212.113C29.8186 206.203 29.8186 206.203 31.789 202.263C33.0895 202.263 34.39 202.263 35.7299 202.263C36.3395 201.044 36.9491 199.826 37.5772 198.57C38.9319 195.861 40.2866 193.152 41.6412 190.444C42.9417 190.444 44.2422 190.444 45.5821 190.444C46.0291 189.387 46.4762 188.331 46.9368 187.243C51.6049 178.798 57.2657 172.15 65.2865 166.804C65.9367 164.854 66.587 162.904 67.2569 160.895Z" fill="#A5293A"/>
<path d="M1163.81 255.206C1168.73 255.452 1168.73 255.452 1170.7 257.422C1170.9 260.133 1170.96 262.853 1170.96 265.571C1170.96 267.3 1170.97 269.029 1170.98 270.81C1170.97 272.689 1170.97 274.569 1170.96 276.506C1170.97 278.422 1170.97 280.338 1170.97 282.313C1170.97 286.374 1170.97 290.434 1170.96 294.495C1170.95 300.734 1170.96 306.972 1170.97 313.211C1170.97 317.146 1170.97 321.081 1170.96 325.016C1170.97 326.895 1170.97 328.775 1170.98 330.711C1170.97 332.44 1170.96 334.169 1170.96 335.95C1170.96 337.48 1170.96 339.009 1170.95 340.585C1170.7 344.099 1170.7 344.099 1168.73 346.069C1165.45 346.149 1162.16 346.153 1158.88 346.069C1158.55 333.481 1158.23 320.892 1157.93 308.303C1157.83 304.017 1157.72 299.731 1157.6 295.445C1157.44 289.299 1157.29 283.152 1157.15 277.006C1157.1 275.077 1157.04 273.148 1156.99 271.161C1156.95 269.386 1156.91 267.611 1156.87 265.783C1156.83 264.213 1156.79 262.642 1156.75 261.024C1157.01 255.314 1158.1 255.491 1163.81 255.206Z" fill="#FEFEFE"/>
<path d="M259.745 170.005C268.742 171.024 272.17 173.824 278.095 180.594C279.693 186.215 279.595 190.718 278.095 196.353C274.031 202.263 274.031 202.263 268.243 206.203C259.764 207.565 256.007 207.219 248.785 202.509C243.86 197.586 242.805 195.72 241.888 188.843C242.864 180.547 246.26 178.022 252.479 172.714C254.45 170.744 254.45 170.744 259.745 170.005Z" fill="#FAF2F3"/>
<path d="M159.867 277.121C162.908 281.713 165.668 286.248 168.365 291.034C174.773 302.089 181.449 312.412 189.424 322.43C188.774 323.73 188.124 325.03 187.454 326.37C184.771 325.882 184.771 325.882 182.035 325.385C175.413 324.2 175.413 324.2 167.749 324.4C157.67 313.682 147.417 298.856 142.134 285.001C144.104 279.091 144.104 279.091 148.784 276.629C153.956 275.151 153.956 275.151 159.867 277.121Z" fill="#D34647"/>
<path d="M146.075 88.0063C150.072 94.0008 151.357 98.0985 153.072 105.02C153.631 107.241 154.191 109.462 154.768 111.75C155.354 114.112 155.94 116.475 156.543 118.91C160.436 134.403 164.455 149.708 169.597 164.834C174.846 181.041 175.29 195.471 171.691 212.113C170.39 212.113 169.09 212.113 167.75 212.113C157.243 184.548 152.381 161.027 153.897 131.561C153.976 126.077 153.15 120.933 151.986 115.586C150.686 115.586 149.385 115.586 148.045 115.586C147.395 106.484 146.745 97.3833 146.075 88.0063Z" fill="#C70524"/>
<path d="M47.5508 44.6676C57.4005 44.5208 67.2496 44.4139 77.1001 44.343C80.4465 44.3134 83.7928 44.2731 87.139 44.2218C91.967 44.1496 96.7939 44.1164 101.622 44.0905C103.843 44.0447 103.843 44.0447 106.109 43.9981C116.256 43.9949 123.192 46.0374 132.28 50.5775C129.679 51.2275 127.078 51.8776 124.398 52.5474C124.398 55.7978 124.398 59.0482 124.398 62.3971C123.097 63.0472 121.797 63.6973 120.457 64.3671C118.992 63.7744 117.527 63.1818 116.018 62.5712C109.989 60.1833 105.331 59.8104 98.8668 59.6115C96.6761 59.5353 94.4853 59.4591 92.2281 59.3806C89.9612 59.3197 87.6942 59.2588 85.3585 59.196C83.0535 59.1198 80.7484 59.0436 78.3735 58.9651C72.6973 58.7798 67.021 58.6111 61.3438 58.4572C61.9941 55.2068 62.6443 51.9564 63.3143 48.6075C58.1123 47.9574 52.9104 47.3073 47.5508 46.6376C47.5508 45.9875 47.5508 45.3374 47.5508 44.6676Z" fill="#D61833"/>
<path d="M69.2265 60.4268C76.6155 60.3123 84.0043 60.2423 91.3939 60.1805C94.5372 60.131 94.5372 60.131 97.744 60.0805C99.7633 60.0678 101.783 60.0551 103.863 60.042C105.72 60.0214 107.578 60.0007 109.492 59.9795C114.743 60.4441 117.933 61.6942 122.428 64.3667C121.778 68.2672 121.128 72.1676 120.458 76.1863C109.056 78.6568 97.8202 78.3767 86.2215 78.2794C84.2073 78.2705 82.1931 78.2616 80.1178 78.2525C75.1736 78.2294 70.2297 78.197 65.2856 78.1563C66.5861 77.5062 67.8866 76.8561 69.2265 76.1863C69.2265 70.9857 69.2265 65.785 69.2265 60.4268Z" fill="#BE3B38"/>
<path d="M84.9903 208.173C91.9515 216.956 96.331 226.663 101.123 236.738C102.036 238.609 102.95 240.481 103.89 242.409C105.184 245.117 105.184 245.117 106.503 247.88C107.291 249.522 108.079 251.163 108.891 252.855C110.606 257.422 110.606 257.422 110.606 265.302C109.306 265.302 108.005 265.302 106.665 265.302C106.99 266.683 107.315 268.065 107.65 269.488C108.938 276.889 110.101 284.041 106.665 290.911C108.616 291.561 110.567 292.211 112.576 292.881C101.152 297.945 89.3947 299.066 77.1086 300.761C75.6989 300.987 74.2891 301.213 72.8367 301.446C57.486 303.769 41.03 304.302 25.8772 300.761C25.8772 300.111 25.8772 299.461 25.8772 298.791C27.9067 298.859 29.9361 298.928 32.0271 298.999C52.9901 299.475 72.3747 297.19 92.8721 292.881C92.9783 289.352 93.0548 285.822 93.1184 282.293C93.1641 280.327 93.2098 278.362 93.2569 276.337C93.4084 270.891 93.4084 270.891 88.9312 267.272C95.4336 265.972 101.936 264.671 108.636 263.332C108 262.071 107.364 260.809 106.708 259.51C103.816 253.768 100.93 248.023 98.0445 242.278C96.5433 239.301 96.5433 239.301 95.0118 236.264C93.564 233.379 93.564 233.379 92.087 230.435C91.1996 228.671 90.3121 226.907 89.3978 225.09C87.0483 220.176 84.9816 215.222 83.0199 210.143C83.6701 209.493 84.3204 208.843 84.9903 208.173Z" fill="#CF3A49"/>
<path d="M140.164 281.062C144.043 284.94 145.798 287.937 148.292 292.758C154.415 304.045 162.006 314.162 169.72 324.4C167.011 327.355 167.011 327.355 163.809 330.31C162.508 330.31 161.208 330.31 159.868 330.31C158.1 327.933 158.1 327.933 156.297 325.508C152.56 319.987 152.56 319.987 147.183 319.845C140.918 318.164 140.304 316.492 136.962 311.103C135.386 308.321 133.825 305.531 132.282 302.731C131.103 300.943 129.925 299.155 128.71 297.314C126.371 292.881 126.371 292.881 126.371 285.001C130.922 283.701 135.474 282.401 140.164 281.062Z" fill="#9F3031"/>
<path d="M322.182 1.08278C324.921 1.10944 324.921 1.10944 327.716 1.13665C332.194 1.1828 336.67 1.24741 341.147 1.32902C341.147 2.62919 341.147 3.92935 341.147 5.26891C343.098 5.26891 345.049 5.26891 347.059 5.26891C348.034 12.0948 348.034 12.0948 349.029 19.0585C341.228 18.8998 333.43 18.6775 325.63 18.4429C322.296 18.3763 322.296 18.3763 318.895 18.3083C315.714 18.2035 315.714 18.2035 312.468 18.0966C310.508 18.0451 308.547 17.9935 306.527 17.9403C304.157 17.5187 304.157 17.5187 301.739 17.0886C300.438 15.1383 299.138 13.1881 297.798 11.1788C299.098 11.1788 300.399 11.1788 301.739 11.1788C301.739 9.87859 301.739 8.57842 301.739 7.23886C292.96 8.21398 292.96 8.21398 284.005 9.20881C296.449 0.914749 307.713 0.814526 322.182 1.08278Z" fill="#F30F33"/>
<path d="M146.073 318.49C152.478 319.344 155.837 321.334 159.866 326.37C159.866 327.67 159.866 328.97 159.866 330.31C160.986 329.695 162.107 329.081 163.261 328.448C170.705 324.695 176.067 322.403 184.497 322.553C195.475 326.659 202.447 338.984 209.127 348.039C206.526 349.99 203.925 351.94 201.245 353.949C200.595 353.299 199.945 352.649 199.275 351.979C196.674 352.629 194.073 353.279 191.393 353.949C185.541 346.798 179.689 339.647 173.659 332.28C169.758 332.93 165.856 333.58 161.837 334.25C162.487 336.85 163.137 339.45 163.807 342.13C162.507 342.13 161.206 342.13 159.866 342.13C159.866 340.829 159.866 339.529 159.866 338.19C158.566 337.54 157.265 336.89 155.925 336.22C154.504 332.982 153.18 329.698 151.985 326.37C150.684 326.37 149.384 326.37 148.044 326.37C148.044 325.07 148.044 323.77 148.044 322.43C146.743 321.78 145.443 321.13 144.103 320.46C144.753 319.81 145.403 319.16 146.073 318.49Z" fill="#C74242"/>
<path d="M118.488 214.083C126.037 217.043 129.688 218.999 134.051 225.964C135.011 228.219 135.972 230.474 136.961 232.797C137.951 235.052 138.942 237.307 139.963 239.631C142.133 245.602 142.133 245.602 142.133 251.512C136.931 253.462 131.729 255.412 126.37 257.422C123.772 252.996 121.188 248.563 118.611 244.125C117.876 242.875 117.14 241.626 116.383 240.339C109.484 228.409 109.484 228.409 108.636 221.963C109.936 220.013 111.237 218.062 112.577 216.053C113.877 216.703 115.178 217.353 116.517 218.023C117.168 216.723 117.818 215.423 118.488 214.083Z" fill="#FC7776"/>
<path d="M1478.09 255.452C1491.88 255.452 1505.68 255.452 1519.47 255.452C1519.47 263.253 1519.47 271.054 1519.47 279.091C1512.32 279.091 1505.16 279.091 1497.79 279.091C1497.79 273.89 1497.79 268.69 1497.79 263.331C1495.84 263.331 1493.89 263.331 1491.88 263.331C1491.88 268.532 1491.88 273.733 1491.88 279.091C1489.28 279.091 1486.68 279.091 1484 279.091C1484 273.89 1484 268.69 1484 263.331C1482.05 263.331 1480.1 263.331 1478.09 263.331C1478.09 260.731 1478.09 258.131 1478.09 255.452Z" fill="#FEFEFE"/>
<path d="M228.831 316.52C229.847 317.048 230.863 317.576 231.91 318.121C233.495 318.893 235.08 319.665 236.713 320.46C238.745 321.516 240.777 322.573 242.871 323.661C251.763 327.515 260.696 326.887 270.211 326.37C266.706 333.849 263.668 337.811 256.418 342.129C248.414 343.901 241.742 343.812 234.473 339.813C228.629 335.227 225.295 332.288 223.782 324.892C224.891 320.46 224.891 320.46 228.831 316.52Z" fill="#961B2D"/>
<path d="M165.779 206.203C169.958 213.165 170.769 219.882 171.691 227.873C169.699 227.466 167.708 227.06 165.656 226.641C157.278 225.844 152.083 227.479 144.105 229.842C137.583 229.546 135.257 228.843 130.558 224.302C128.341 219.993 128.341 219.993 128.957 215.56C129.627 213.854 129.627 213.854 130.312 212.113C136.223 212.113 142.134 212.113 148.046 212.113C153.395 211.718 158.492 211 163.809 210.143C164.459 208.843 165.11 207.543 165.779 206.203Z" fill="#FE3535"/>
<path d="M122.429 50.5776C126.981 51.2277 131.533 51.8778 136.222 52.5476C142.092 72.6316 142.805 90.8935 142.134 111.646C140.833 111.646 139.533 111.646 138.193 111.646C137.905 110.483 137.616 109.321 137.32 108.123C136.012 102.853 134.701 97.5846 133.39 92.3159C132.71 89.5714 132.71 89.5714 132.016 86.7715C131.578 85.013 131.14 83.2545 130.688 81.4427C130.084 79.0132 130.084 79.0132 129.469 76.5346C128.565 73.099 127.494 69.7074 126.37 66.3372C125.07 66.3372 123.769 66.3372 122.429 66.3372C122.429 61.1365 122.429 55.9359 122.429 50.5776Z" fill="#97031E"/>
<path d="M83.02 151.045C86.2228 151.323 89.4246 151.612 92.6259 151.907C94.409 152.067 96.1921 152.227 98.0292 152.392C102.724 153.015 102.724 153.015 106.665 154.985C107.897 161.018 107.897 161.018 108.636 166.804C102.133 166.154 95.6308 165.504 88.9313 164.835C89.5816 171.335 90.2318 177.836 90.9017 184.534C87.6505 184.534 84.3993 184.534 81.0496 184.534C74.263 165.997 74.263 165.997 75.1382 156.955C77.089 157.605 79.0397 158.255 81.0496 158.925C81.6998 156.324 82.35 153.724 83.02 151.045Z" fill="#E63F40"/>
<path d="M351.001 7.23877C353.879 8.12687 356.751 9.03326 359.621 9.94744C361.222 10.4502 362.822 10.953 364.471 11.4711C368.735 13.1486 368.735 13.1486 372.676 17.0885C373.491 22.7983 373.491 22.7983 373.907 29.6469C374.054 31.8968 374.202 34.1467 374.354 36.4648C374.574 41.1649 374.646 45.8723 374.646 50.5776C373.346 50.5776 372.045 50.5776 370.705 50.5776C370.108 49.2698 369.511 47.962 368.896 46.6146C363.476 35.163 363.476 35.163 355.311 25.5839C351.001 21.0284 351.001 21.0284 350.385 13.518C350.588 11.4458 350.791 9.3737 351.001 7.23877Z" fill="#AB011E"/>
<path d="M150.017 160.895C151.317 160.895 152.618 160.895 153.958 160.895C154.608 165.445 155.258 169.996 155.928 174.684C147.642 177.84 141.111 178.825 132.283 178.624C130.332 179.599 130.332 179.599 128.342 180.594C124.385 180.04 120.44 179.391 116.519 178.624C115.869 179.924 115.219 181.224 114.549 182.564C110.608 176.654 110.608 176.654 110.608 170.744C117.082 166.429 122.625 166.577 130.251 166.804C134.719 166.914 134.719 166.914 140.903 165.696C146.076 164.834 146.076 164.834 150.017 166.804C150.017 164.854 150.017 162.904 150.017 160.895Z" fill="#F13737"/>
<path d="M191.394 285.001C195.088 285.248 195.088 285.248 199.275 286.971C201.738 293.004 201.738 293.004 203.216 298.791C196.215 301.991 191.156 302.927 183.512 302.731C180.865 303.303 178.227 303.932 175.63 304.701C171.566 300.269 171.566 300.269 167.748 294.851C168.495 290.573 168.495 290.573 169.719 286.971C172.592 286.918 175.466 286.88 178.339 286.848C179.94 286.825 181.54 286.803 183.189 286.779C187.453 286.971 187.453 286.971 191.394 288.941C191.394 287.641 191.394 286.341 191.394 285.001Z" fill="#DA2728"/>
<path d="M86.0987 269.119C88.3339 269.159 90.5691 269.2 92.872 269.242C95.3595 274.215 95.0367 277.736 94.9656 283.278C94.9479 285.07 94.9301 286.863 94.9118 288.71C94.8889 290.087 94.866 291.463 94.8425 292.881C81.542 297.067 81.542 297.067 77.1085 294.851C74.451 286.639 75.498 279.584 77.1085 271.212C79.079 269.242 79.079 269.242 86.0987 269.119Z" fill="#B91F34"/>
<path d="M374.645 119.525C375.295 119.525 375.945 119.525 376.615 119.525C375.509 131.258 373.726 142.273 370.712 153.653C370.33 155.13 369.949 156.608 369.556 158.13C368.755 161.222 367.948 164.312 367.136 167.401C365.9 172.104 364.681 176.812 363.465 181.521C362.68 184.544 361.893 187.567 361.106 190.59C360.745 191.981 360.383 193.373 360.011 194.806C359.008 198.613 357.961 202.409 356.911 206.203C356.296 208.435 355.681 210.666 355.048 212.966C354.362 214.634 353.677 216.303 352.97 218.023C350.044 218.998 350.044 218.998 347.059 219.993C348.247 205.738 351.226 192.426 354.941 178.624C356.241 179.274 357.542 179.924 358.881 180.594C360.447 175.055 362.006 169.514 363.561 163.972C363.998 162.43 364.435 160.887 364.885 159.298C367.475 150.046 369.791 140.785 371.802 131.391C372.673 127.414 373.639 123.47 374.645 119.525Z" fill="#C12B3F"/>
<path d="M159.867 277.121C162.669 281.054 162.669 281.054 165.286 285.863C166.17 287.445 167.054 289.027 167.965 290.657C168.544 292.041 169.123 293.425 169.72 294.851C169.069 296.151 168.419 297.451 167.749 298.791C165.798 298.141 163.848 297.491 161.838 296.821C159.887 297.471 157.936 298.121 155.927 298.791C153.976 298.791 152.025 298.791 150.015 298.791C143.665 288.595 143.665 288.595 142.134 285.001C144.104 279.091 144.104 279.091 148.784 276.629C153.956 275.151 153.956 275.151 159.867 277.121Z" fill="#E65252"/>
<path d="M163.808 153.015C174.833 169.549 175.272 188.407 172.675 207.558C172.35 209.061 172.024 210.564 171.689 212.113C170.389 212.113 169.088 212.113 167.749 212.113C166.371 206.216 165.073 200.306 163.808 194.384C163.361 192.311 162.914 190.239 162.453 188.104C161.489 176.343 162.75 164.745 163.808 153.015Z" fill="#D40629"/>
<path d="M140.164 281.062C145.599 286.496 148.488 291.916 151.986 298.791C151.336 300.741 150.686 302.692 150.016 304.701C146.765 304.051 143.513 303.401 140.164 302.731C140.164 301.431 140.164 300.131 140.164 298.791C138.863 298.791 137.563 298.791 136.223 298.791C136.873 301.391 137.523 303.992 138.193 306.671C130.303 299.794 127.106 295.542 126.371 285.001C130.922 283.701 135.474 282.401 140.164 281.062Z" fill="#A73F40"/>
<path d="M86.9622 162.865C90.165 163.142 93.3668 163.432 96.568 163.727C98.3511 163.887 100.134 164.047 101.971 164.211C106.667 164.835 106.667 164.835 110.607 166.805C111.41 171.378 112.074 175.978 112.578 180.594C106.075 180.594 99.573 180.594 92.8735 180.594C92.2232 181.894 91.573 183.195 90.903 184.534C88.5525 176.897 86.9622 170.91 86.9622 162.865Z" fill="#EC5555"/>
<path d="M114.548 263.332C116.529 266.855 118.497 270.386 120.46 273.92C122.105 276.868 122.105 276.868 123.785 279.876C126.371 285.001 126.371 285.001 126.371 288.941C118.277 292.067 115.352 293.081 106.667 290.911C106.667 282.46 106.667 274.009 106.667 265.301C110.607 263.332 110.607 263.332 114.548 263.332Z" fill="#D61C33"/>
<path d="M199.275 257.422C204.086 270.878 206.007 282.542 205.187 296.821C198.943 291.591 196.314 285.316 192.994 277.983C191.429 274.566 191.429 274.566 189.831 271.081C187.453 265.302 187.453 265.302 187.453 261.362C194.842 257.422 194.842 257.422 199.275 257.422Z" fill="#F1092E"/>
<path d="M372.674 26.938C374.624 27.9131 374.624 27.9131 376.614 28.9079C379.307 44.6002 378.81 60.4339 378.708 76.3097C378.698 78.9812 378.689 81.6527 378.681 84.3242C378.658 90.8048 378.626 97.2853 378.585 103.766C375.659 104.741 375.659 104.741 372.674 105.736C372.674 79.7325 372.674 53.7292 372.674 26.938Z" fill="#7D192A"/>
<path d="M84.9923 192.414C88.7382 198.031 91.2482 203.284 93.9209 209.466C94.8683 211.642 95.8157 213.818 96.7919 216.061C98.7777 220.652 100.764 225.243 102.749 229.835C103.697 232.011 104.644 234.187 105.62 236.43C106.483 238.424 107.345 240.419 108.233 242.474C110.588 247.865 110.588 247.865 114.549 253.482C113.81 257.791 113.81 257.791 112.578 261.362C104.609 249.209 98.1844 236.767 92.1352 223.563C90.7674 220.693 90.7674 220.693 89.3719 217.765C88.521 215.913 87.6701 214.06 86.7934 212.152C86.0203 210.488 85.2472 208.824 84.4506 207.11C82.782 201.45 83.4003 198.029 84.9923 192.414Z" fill="#911B1B"/>
<path d="M100.755 46.6376C110.83 46.4609 120.383 46.5817 130.312 48.6075C130.962 49.9077 131.612 51.2079 132.282 52.5474C129.681 52.5474 127.08 52.5474 124.401 52.5474C124.401 55.7978 124.401 59.0482 124.401 62.3972C120.46 64.3671 120.46 64.3671 114.902 62.8358C112.754 62.0816 110.605 61.3274 108.391 60.5503C106.232 59.8012 104.073 59.0521 101.848 58.2803C100.187 57.6886 98.526 57.0969 96.8145 56.4873C98.1149 53.2369 99.4154 49.9865 100.755 46.6376Z" fill="#AE162C"/>
<path d="M282.035 21.0283C283.986 21.0283 285.936 21.0283 287.946 21.0283C287.946 31.4296 287.946 41.8309 287.946 52.5474C290.547 53.8476 293.148 55.1478 295.828 56.4873C298.455 57.8006 301.082 59.1139 303.71 60.4272C303.71 61.0773 303.71 61.7274 303.71 62.3972C295.257 62.3972 286.803 62.3972 278.094 62.3972C279.069 59.4718 279.069 59.4718 280.064 56.4873C280.35 53.7163 280.55 50.9358 280.688 48.1535C280.77 46.5728 280.853 44.992 280.938 43.3633C281.016 41.7216 281.093 40.0799 281.173 38.3885C281.258 36.7239 281.343 35.0593 281.431 33.3443C281.639 29.2394 281.838 25.1339 282.035 21.0283Z" fill="#CA4A4B"/>
<path d="M217.01 292.881C222.192 297.894 226.776 302.959 231.049 308.764C232.03 310.087 233.01 311.41 234.021 312.773C236.3 315.944 238.489 319.181 240.655 322.43C236.754 321.13 232.852 319.83 228.833 318.49C227.532 321.741 226.232 324.991 224.892 328.34C220.982 325.293 220.982 325.293 217.01 320.46C216.24 313.658 216.24 313.658 216.517 306.178C216.589 303.689 216.66 301.201 216.733 298.637C216.824 296.737 216.916 294.838 217.01 292.881Z" fill="#AE1029"/>
<path d="M148.044 115.586C149.344 115.586 150.645 115.586 151.985 115.586C156.236 125.927 156.399 134.907 156.172 145.874C156.154 147.512 156.136 149.15 156.118 150.837C156.072 154.847 156.001 158.856 155.925 162.865C154.625 162.215 153.324 161.564 151.985 160.895C150.407 155.594 149.038 150.391 147.797 145.012C147.439 143.518 147.081 142.023 146.712 140.483C145.828 136.784 144.963 133.08 144.103 129.376C145.403 129.376 146.704 129.376 148.044 129.376C148.044 124.825 148.044 120.274 148.044 115.586Z" fill="#B90222"/>
<path d="M170.212 330.187C178.034 333.208 183.247 338.829 187.453 346.069C186.803 348.019 186.153 349.97 185.483 351.979C177.333 350.781 170.782 348.536 163.808 344.099C161.838 339.051 161.838 339.051 161.838 334.25C165.779 330.31 165.779 330.31 170.212 330.187Z" fill="#961F1F"/>
<path d="M240.656 326.37C242.607 327.02 244.557 327.67 246.567 328.34C249.518 328.522 252.477 328.596 255.434 328.586C256.958 328.591 258.482 328.596 260.052 328.602C264.665 328.501 264.665 328.501 270.213 326.37C267.232 333.955 263.42 337.96 256.419 342.13C250.446 342.771 244.668 342.599 238.686 342.13C239.336 336.929 239.986 331.728 240.656 326.37Z" fill="#7B031A"/>
<path d="M112.577 261.362C118.488 263.332 118.488 263.332 122.429 267.272C127.558 266.64 127.558 266.64 132.282 265.302C140.163 278.599 140.163 278.599 140.163 283.031C134.961 283.681 129.759 284.331 124.4 285.001C120.498 277.2 116.597 269.399 112.577 261.362Z" fill="#CC132B"/>
<path d="M370.704 109.676C374.584 115.155 374.624 117.792 374.014 124.612C373.516 127.396 372.985 130.174 372.428 132.946C372.15 134.409 371.872 135.872 371.586 137.379C368.74 151.878 365.699 166.624 360.852 180.594C358.901 181.569 358.901 181.569 356.911 182.564C357.563 168.995 360.342 156.246 363.765 143.15C366.644 132.078 368.884 120.974 370.704 109.676Z" fill="#8F0920"/>
<path d="M153.956 294.851C155.906 295.501 157.857 296.151 159.867 296.821C161.167 296.17 162.468 295.52 163.808 294.851C167.626 295.097 167.626 295.097 171.69 296.821C175.261 301.499 175.261 301.499 177.601 306.67C176.951 308.621 176.3 310.571 175.63 312.58C172.379 311.93 169.128 311.28 165.778 310.61C165.778 312.56 165.778 314.511 165.778 316.52C164.478 316.52 163.177 316.52 161.837 316.52C159.228 313.28 159.228 313.28 156.542 309.01C155.64 307.615 154.738 306.221 153.809 304.785C151.985 300.76 151.985 300.76 153.956 294.851Z" fill="#DB4C4D"/>
<path d="M315.532 1.3289C314.881 5.22939 314.231 9.12989 313.561 13.1486C324.29 14.1237 324.29 14.1237 335.236 15.1185C335.236 15.7686 335.236 16.4187 335.236 17.0885C329.734 17.2475 324.237 17.365 318.734 17.4578C317.169 17.5073 315.604 17.5569 313.992 17.6079C309.904 17.6598 305.815 17.3935 301.739 17.0885C300.438 15.1382 299.138 13.188 297.798 11.1786C299.098 11.1786 300.399 11.1786 301.739 11.1786C301.739 9.87846 301.739 8.5783 301.739 7.23874C292.96 8.21386 292.96 8.21386 284.005 9.20868C294.386 2.28957 303.141 0.833387 315.532 1.3289Z" fill="#DA2037"/>
<path d="M75.1382 156.955C79.6949 157.816 79.6949 157.816 84.9904 160.894C88.7463 168.522 90.9017 176.035 90.9017 184.534C87.6505 184.534 84.3993 184.534 81.0496 184.534C74.263 165.997 74.263 165.997 75.1382 156.955Z" fill="#AD4E4F"/>
<path d="M343.118 237.722C345.304 244.28 344.973 245.353 342.695 251.535C342.155 253.027 341.615 254.519 341.059 256.056C340.479 257.603 339.898 259.151 339.3 260.746C338.727 262.317 338.155 263.887 337.565 265.505C336.148 269.383 334.709 273.253 333.266 277.121C331.965 277.121 330.665 277.121 329.325 277.121C328.675 278.421 328.024 279.721 327.354 281.061C328.319 268.038 331.954 257.521 337.207 245.602C338.507 245.602 339.808 245.602 341.148 245.602C341.798 243.002 342.448 240.401 343.118 237.722Z" fill="#E82640"/>
<path d="M69.2274 172.714C76.5509 177.596 77.4727 181.2 80.5574 189.336C81.4413 191.609 82.3252 193.881 83.2359 196.223C84.9909 202.264 84.9909 202.264 83.0204 208.173C83.0204 206.873 83.0204 205.573 83.0204 204.233C81.7199 203.583 80.4195 202.933 79.0796 202.264C77.848 198.201 77.848 198.201 77.1091 194.384C74.5081 196.334 71.9072 198.284 69.2274 200.294C66.6016 181.756 66.6016 181.756 69.2274 172.714Z" fill="#B6303F"/>
<path d="M146.075 88.0063C152.586 97.7708 154.376 109.229 157.282 120.51C157.938 122.971 158.595 125.432 159.271 127.967C159.882 130.321 160.493 132.675 161.123 135.1C161.967 138.34 161.967 138.34 162.829 141.645C163.809 147.105 163.809 147.105 161.838 153.015C161.188 150.414 160.538 147.814 159.868 145.135C158.568 145.135 157.267 145.135 155.927 145.135C153.85 138.905 153.34 133.572 152.848 127.036C152.683 124.895 152.518 122.754 152.348 120.549C152.229 118.911 152.109 117.273 151.986 115.586C150.686 115.586 149.385 115.586 148.045 115.586C147.395 106.484 146.745 97.3833 146.075 88.0063Z" fill="#C12E42"/>
<path d="M323.413 285.001C326.545 294.395 323.103 301.637 319.472 310.611C314.672 320.059 309.203 329.134 303.708 338.19C301.462 331.454 301.82 330.879 304.786 324.862C305.477 323.432 306.167 322.003 306.879 320.53C307.621 319.044 308.363 317.559 309.127 316.028C310.556 313.105 311.982 310.181 313.406 307.256C314.099 305.843 314.791 304.429 315.504 302.973C318.329 297.057 320.884 291.05 323.413 285.001Z" fill="#DD2F43"/>
<path d="M301.738 7.23877C301.738 10.522 301.738 13.8053 301.738 17.0885C293.285 19.0387 284.832 20.989 276.123 22.9983C275.473 21.6982 274.822 20.398 274.152 19.0584C283.318 8.84766 288.318 7.23877 301.738 7.23877Z" fill="#D30327"/>
<path d="M362.822 15.1187C370.395 18.3044 370.395 18.3044 373.166 25.0915C375.198 33.5362 374.997 41.9472 374.644 50.5777C373.344 50.5777 372.043 50.5777 370.703 50.5777C364.715 38.8642 363.507 28.1812 362.822 15.1187Z" fill="#90031D"/>
<path d="M372.675 21.0283C380.243 27.5625 382.225 34.2915 383.412 44.1059C383.591 46.8774 383.747 49.6504 383.882 52.4243C383.961 53.8818 384.041 55.3392 384.124 56.8408C384.751 70.6282 383.942 84.1241 382.527 97.8562C381.877 97.8562 381.226 97.8562 380.557 97.8562C380.517 96.1875 380.478 94.5188 380.438 92.7995C380.284 86.5651 380.113 80.3313 379.931 74.0976C379.856 71.4077 379.787 68.7176 379.725 66.0273C379.635 62.1441 379.518 58.2614 379.402 54.3789C379.34 52.0474 379.278 49.7159 379.214 47.3138C378.572 40.582 377.251 35.1403 374.645 28.9081C373.345 28.258 372.044 27.6079 370.704 26.9382C371.355 24.9879 372.005 23.0377 372.675 21.0283Z" fill="#A93E49"/>
<path d="M146.073 318.49C152.478 319.344 155.837 321.334 159.866 326.37C159.866 327.67 159.866 328.97 159.866 330.31C163.118 329.01 166.369 327.71 169.718 326.37C170.369 327.67 171.019 328.97 171.689 330.31C170.388 331.61 169.088 332.91 167.748 334.25C165.797 334.25 163.847 334.25 161.837 334.25C162.487 336.85 163.137 339.45 163.807 342.13C162.507 342.13 161.206 342.13 159.866 342.13C159.866 340.829 159.866 339.529 159.866 338.19C158.566 337.54 157.265 336.89 155.925 336.22C154.504 332.982 153.18 329.698 151.985 326.37C150.684 326.37 149.384 326.37 148.044 326.37C148.044 325.07 148.044 323.77 148.044 322.43C146.743 321.78 145.443 321.13 144.103 320.46C144.753 319.81 145.403 319.16 146.073 318.49Z" fill="#A93C3D"/>
<path d="M327.354 111.646C329.305 111.646 331.256 111.646 333.266 111.646C337.35 131.042 334.686 149.464 331.295 168.774C326.918 162.21 327 161.555 328.093 154.246C330.781 132.718 330.781 132.718 327.354 111.646Z" fill="#D2565B"/>
<path d="M98.7834 294.851C80.1377 305.915 46.3001 305.435 25.8772 300.761C25.8772 300.111 25.8772 299.461 25.8772 298.791C28.0438 298.837 30.2105 298.882 32.4428 298.929C47.4569 299.147 61.4789 298.934 76.2234 295.728C83.8062 294.35 91.0968 294.599 98.7834 294.851Z" fill="#D7696E"/>
<path d="M335.237 3.29932C341.09 4.27444 341.09 4.27444 347.06 5.26926C347.71 9.81984 348.36 14.3704 349.03 19.0589C344.479 18.4088 339.927 17.7587 335.237 17.0889C335.237 12.5384 335.237 7.98779 335.237 3.29932Z" fill="#E8092C"/>
<path d="M193.366 70.2769C193.366 75.4775 193.366 80.6782 193.366 86.0364C188.814 86.0364 184.262 86.0364 179.573 86.0364C180.244 79.8283 180.717 76.9593 185.361 72.6162C189.425 70.2769 189.425 70.2769 193.366 70.2769Z" fill="#BE3938"/>
<path d="M217.011 292.881C222.187 297.887 225.979 301.982 228.833 308.64C226.232 308.64 223.631 308.64 220.952 308.64C220.952 313.841 220.952 319.042 220.952 324.4C217.011 320.46 217.011 320.46 216.626 314.042C216.672 311.528 216.717 309.014 216.765 306.424C216.8 303.9 216.836 301.376 216.872 298.775C216.918 296.83 216.964 294.885 217.011 292.881Z" fill="#BD1C34"/>
<path d="M45.5827 46.6377C52.0852 46.6377 58.5876 46.6377 65.2871 46.6377C64.962 48.141 64.6369 49.6443 64.3019 51.1932C63.1365 56.5583 63.1365 56.5583 63.3167 62.3973C57.4645 61.4221 57.4645 61.4221 51.4941 60.4273C52.7945 56.5268 54.095 52.6263 55.4349 48.6076C51.5335 49.9078 47.632 51.208 43.6123 52.5475C44.2625 50.5973 44.9128 48.647 45.5827 46.6377Z" fill="#AF0D26"/>
<path d="M114.548 275.151C118.243 275.398 118.243 275.398 122.43 277.121C124.893 283.154 124.893 283.154 126.371 288.941C122.47 290.241 118.568 291.541 114.548 292.881C112.884 286.226 112.364 281.702 114.548 275.151Z" fill="#DD293E"/>
<path d="M374.644 58.4575C375.294 58.4575 375.945 58.4575 376.614 58.4575C378.285 73.6116 378.824 88.5246 378.585 103.766C376.634 104.416 374.683 105.066 372.674 105.736C373.324 90.1342 373.974 74.5323 374.644 58.4575Z" fill="#6F1626"/>
<path d="M228.834 316.52C230.785 317.17 232.735 317.82 234.745 318.49C234.745 323.691 234.745 328.891 234.745 334.25C232.794 334.25 230.844 334.25 228.834 334.25C224.893 330.31 224.893 330.31 224.4 325.385C224.893 320.46 224.893 320.46 228.834 316.52Z" fill="#9C0D25"/>
<path d="M100.755 46.6377C105.307 46.6377 109.859 46.6377 114.548 46.6377C112.598 47.6128 112.598 47.6128 110.608 48.6076C111.258 50.5579 111.908 52.5081 112.578 54.5175C111.928 55.8176 111.277 57.1178 110.608 58.4574C106.056 57.8073 101.504 57.1572 96.8145 56.4874C98.1149 53.237 99.4154 49.9866 100.755 46.6377Z" fill="#BF0F2B"/>
<path d="M2.23214 249.542C3.53262 249.542 4.83311 249.542 6.17301 249.542C6.17301 261.894 6.17301 274.245 6.17301 286.971C2.23214 285.001 2.23214 285.001 1.01601 281.554C0.19236 276.714 0.000424393 272.18 0.015394 267.272C0.010314 265.606 0.00523397 263.94 0 262.224C0.245271 257.723 0.973471 253.856 2.23214 249.542Z" fill="#B14953"/>
<path d="M92.8723 172.714C97.1364 172.761 97.1364 172.761 101.986 173.453C104.401 173.781 104.401 173.781 106.865 174.115C108.1 174.303 109.334 174.491 110.606 174.684C111.256 176.635 111.907 178.585 112.577 180.594C106.074 180.594 99.5718 180.594 92.8723 180.594C92.222 181.894 91.5718 183.194 90.9018 184.534C89.6703 180.84 89.6703 180.84 88.9314 176.654C90.2319 175.354 91.5324 174.054 92.8723 172.714Z" fill="#F1696A"/>
<path d="M84.99 156.955C88.194 157.073 91.3959 157.248 94.5959 157.447C97.2705 157.584 97.2705 157.584 99.9992 157.724C101.549 158.12 103.098 158.516 104.694 158.925C105.995 161.525 107.295 164.125 108.635 166.804C100.832 166.154 93.0294 165.504 84.99 164.834C84.99 162.234 84.99 159.634 84.99 156.955Z" fill="#EB4A4A"/>
<path d="M47.5509 48.6079C50.1519 48.6079 52.7529 48.6079 55.4326 48.6079C54.7824 51.8583 54.1322 55.1087 53.4622 58.4576C52.2024 58.6608 50.9425 58.8639 49.6445 59.0732C48.3034 59.5202 46.9622 59.9671 45.5805 60.4276C44.9302 62.3778 44.28 64.3281 43.61 66.3374C43.3637 59.6889 43.3637 59.6889 43.61 52.5478C44.9105 51.2476 46.211 49.9475 47.5509 48.6079Z" fill="#8A031C"/>
<path d="M358.883 11.1787C363.563 11.6712 363.563 11.6712 368.735 13.1487C371.321 17.2117 371.321 17.2117 372.676 21.0284C370.075 19.7283 367.474 18.4281 364.794 17.0885C364.794 22.9393 364.794 28.79 364.794 34.8181C359.878 29.9029 360.145 27.5819 359.622 20.7822C359.475 18.9894 359.327 17.1966 359.176 15.3495C359.079 13.9731 358.983 12.5968 358.883 11.1787Z" fill="#A81129"/>
<path d="M92.8728 180.594C100.025 180.594 107.178 180.594 114.548 180.594C113.897 182.544 113.247 184.494 112.577 186.504C105.359 187.98 99.92 188.942 92.8728 186.504C92.8728 184.553 92.8728 182.603 92.8728 180.594Z" fill="#F97575"/>
<path d="M341.148 1.3291C349.796 2.33448 355.605 4.32764 362.823 9.20888C360.872 10.184 360.872 10.184 358.882 11.1788C354.695 9.332 354.695 9.332 351 7.23894C351.65 12.4396 352.301 17.6402 352.971 22.9985C350.37 21.6983 347.769 20.3982 345.089 19.0586C346.389 19.0586 347.69 19.0586 349.03 19.0586C348.379 14.508 347.729 9.95746 347.059 5.26899C345.109 5.26899 343.158 5.26899 341.148 5.26899C341.148 3.96883 341.148 2.66866 341.148 1.3291Z" fill="#CB2239"/>
<path d="M88.9314 166.805C103.569 168.775 103.569 168.775 110.606 170.745C110.606 172.045 110.606 173.345 110.606 174.684C103.817 176.381 99.5643 176.53 92.8723 174.684C90.9215 175.66 90.9215 175.66 88.9314 176.654C88.9314 173.404 88.9314 170.154 88.9314 166.805Z" fill="#F45D5E"/>
<path d="M73.1687 48.6079C77.0702 48.6079 80.9716 48.6079 84.9913 48.6079C85.6416 51.8583 86.2918 55.1087 86.9618 58.4576C82.4101 58.4576 77.8583 58.4576 73.1687 58.4576C73.1687 55.2072 73.1687 51.9568 73.1687 48.6079Z" fill="#EA0120"/>
<path d="M140.164 281.062C141.464 283.012 142.765 284.962 144.105 286.971C142.154 288.922 140.203 290.872 138.193 292.881C136.242 292.231 134.292 291.581 132.282 290.911C132.282 289.611 132.282 288.311 132.282 286.971C130.981 286.971 129.681 286.971 128.341 286.971C128.991 289.572 129.642 292.172 130.311 294.851C129.011 294.201 127.711 293.551 126.371 292.881C126.371 290.281 126.371 287.681 126.371 285.001C130.922 283.701 135.474 282.401 140.164 281.062Z" fill="#B14548"/>
<path d="M114.546 257.422C118.448 257.422 122.349 257.422 126.369 257.422C127.669 260.672 128.97 263.923 130.31 267.272C127.059 267.922 123.807 268.572 120.458 269.242C114.546 261.854 114.546 261.854 114.546 257.422Z" fill="#C81A2F"/>
<path d="M325.385 3.29932C328.636 3.29932 331.887 3.29932 335.237 3.29932C335.237 7.19981 335.237 11.1003 335.237 15.119C330.685 14.4689 326.133 13.8188 321.444 13.149C322.094 11.8895 322.744 10.63 323.414 9.33227C325.528 5.7264 325.528 5.7264 325.385 3.29932Z" fill="#FC0830"/>
<path d="M112.577 261.362C120.397 263.968 121.048 267.097 124.769 274.29C125.813 276.283 126.857 278.276 127.933 280.33C128.718 281.872 129.502 283.413 130.311 285.001C128.36 285.001 126.41 285.001 124.4 285.001C120.498 277.2 116.597 269.399 112.577 261.362Z" fill="#C50222"/>
<path d="M138.193 247.572C139.493 248.872 140.794 250.172 142.134 251.512C136.932 253.462 131.73 255.412 126.37 257.422C125.07 254.821 123.769 252.221 122.429 249.542C128.429 245.9 131.579 244.927 138.193 247.572Z" fill="#FA6969"/>
<path d="M163.807 153.015C167.436 158.457 169.171 162.484 171.073 168.651C171.609 170.335 172.145 172.018 172.697 173.753C173.7 178.831 173.361 181.667 171.689 186.504C169.738 181.953 167.787 177.403 165.777 172.714C165.127 172.714 164.477 172.714 163.807 172.714C163.807 166.213 163.807 159.712 163.807 153.015Z" fill="#D22D41"/>
<path d="M287.945 9.2085C287.945 12.4589 287.945 15.7093 287.945 19.0582C284.044 20.3584 280.142 21.6586 276.123 22.9981C275.473 21.6979 274.822 20.3978 274.152 19.0582C283.512 9.2085 283.512 9.2085 287.945 9.2085Z" fill="#C50525"/>
<path d="M45.5821 186.504C46.2323 188.454 46.8826 190.404 47.5525 192.414C42.9959 198.693 42.9959 198.693 37.7004 204.233C36.3999 204.233 35.0994 204.233 33.7595 204.233C32.459 206.834 31.1585 209.434 29.8186 212.113C29.8186 206.203 29.8186 206.203 31.789 202.263C33.0895 202.263 34.39 202.263 35.7299 202.263C36.3395 201.045 36.9491 199.826 37.5772 198.57C38.9319 195.861 40.2866 193.152 41.6412 190.444C42.9417 190.444 44.2422 190.444 45.5821 190.444C45.5821 189.144 45.5821 187.843 45.5821 186.504Z" fill="#BB444F"/>
<path d="M368.733 24.9683C370.684 25.9434 370.684 25.9434 372.674 26.9382C374.002 35.0392 374.644 42.3633 374.644 50.5776C373.344 50.5776 372.044 50.5776 370.704 50.5776C369.321 41.9377 368.52 33.7189 368.733 24.9683Z" fill="#840D22"/>
<path d="M146.073 318.49C149.891 318.983 149.891 318.983 153.955 320.46C157.896 326.37 157.896 326.37 157.896 334.25C156.595 334.25 155.295 334.25 153.955 334.25C153.305 331.649 152.654 329.049 151.985 326.37C150.684 326.37 149.384 326.37 148.044 326.37C148.044 325.07 148.044 323.77 148.044 322.43C146.743 321.78 145.443 321.13 144.103 320.46C144.753 319.81 145.403 319.16 146.073 318.49Z" fill="#BB4E51"/>
<path d="M360.852 158.925C363.192 161.88 363.192 161.88 364.793 166.805C363.356 172.297 361.215 177.396 358.881 182.564C358.231 182.564 357.581 182.564 356.911 182.564C357.189 179.362 357.478 176.161 357.773 172.961C357.933 171.178 358.093 169.395 358.258 167.559C358.881 162.865 358.881 162.865 360.852 158.925Z" fill="#A60722"/>
<path d="M75.1379 156.955C80.0148 158.905 80.0148 158.905 84.9901 160.894C84.9901 164.145 84.9901 167.395 84.9901 170.744C83.0394 170.094 81.0887 169.444 79.0788 168.774C78.4286 170.074 77.7783 171.375 77.1084 172.714C76.4581 167.513 75.8079 162.313 75.1379 156.955Z" fill="#A1393A"/>
<path d="M270.212 326.37C267.466 333.003 264.342 336.192 258.389 340.16C257.089 336.909 255.788 333.659 254.448 330.31C265.778 326.37 265.778 326.37 270.212 326.37Z" fill="#8D071F"/>
<path d="M311.59 3.29932C314.191 3.29932 316.792 3.29932 319.472 3.29932C319.472 5.89964 319.472 8.49997 319.472 11.1791C322.073 12.4793 324.674 13.7794 327.354 15.119C320.703 15.3652 320.703 15.3652 313.561 15.119C312.26 13.8188 310.96 12.5187 309.62 11.1791C310.359 6.99296 310.359 6.99296 311.59 3.29932Z" fill="#EC0A2E"/>
<path d="M240.656 326.37C242.607 327.02 244.557 327.67 246.567 328.34C247.799 333.019 247.799 333.019 248.538 338.19C247.237 339.49 245.937 340.79 244.597 342.13C242.646 342.13 240.695 342.13 238.686 342.13C239.336 336.929 239.986 331.728 240.656 326.37Z" fill="#820D22"/>
<path d="M343.118 223.933C344.418 223.933 345.719 223.933 347.059 223.933C346.137 231.923 345.326 238.64 341.147 245.603C339.847 244.952 338.546 244.302 337.207 243.633C339.157 237.132 341.108 230.631 343.118 223.933Z" fill="#D90D2C"/>
<path d="M57.404 133.315C61.3449 135.285 61.3449 135.285 63.0229 139.579C63.7772 142.207 63.7772 142.207 64.5469 144.888C65.06 146.63 65.573 148.372 66.1017 150.167C67.2562 154.984 67.2562 154.984 67.2562 160.894C65.9557 160.244 64.6552 159.594 63.3153 158.924C62.6585 154.328 62.0017 149.731 61.3449 145.135C60.0444 144.485 58.7439 143.834 57.404 143.165C56.0494 139.225 56.0494 139.225 55.4336 135.285C56.0838 134.635 56.7341 133.985 57.404 133.315Z" fill="#D26469"/>
<path d="M155.928 131.345C157.228 131.345 158.529 131.345 159.868 131.345C161.169 138.496 162.469 145.647 163.809 153.015C162.509 150.414 161.208 147.814 159.868 145.135C158.568 145.135 157.268 145.135 155.928 145.135C153.869 138.962 154.087 137.275 155.928 131.345Z" fill="#C71F37"/>
<path d="M372.675 21.0283C378.072 25.6883 380.422 29.9888 382.527 36.7879C382.773 42.3284 382.773 42.3284 382.527 46.6376C378.586 40.7278 378.586 40.7278 376.616 34.5717C375.298 28.6616 375.298 28.6616 370.704 26.9382C371.355 24.9879 372.005 23.0377 372.675 21.0283Z" fill="#A82F3D"/>
<path d="M167.749 346.07C172.552 347.424 172.552 347.424 177.602 350.01C179.203 355.181 179.203 355.181 179.572 359.859C174.646 357.151 174.646 357.151 169.72 353.95C169.72 352.649 169.72 351.349 169.72 350.01C168.419 349.36 167.119 348.71 165.779 348.04C166.429 347.39 167.08 346.74 167.749 346.07Z" fill="#C1565A"/>
<path d="M6.1731 288.941C11.9613 289.68 11.9613 289.68 17.9957 290.911C18.646 292.212 19.2962 293.512 19.9662 294.851C21.9169 296.151 23.8676 297.452 25.8775 298.791C20.4588 299.407 20.4588 299.407 14.0548 298.791C9.37506 293.866 9.37506 293.866 6.1731 288.941Z" fill="#D1787E"/>
<path d="M370.704 101.796C371.355 103.097 372.005 104.397 372.675 105.736C373.975 105.736 375.276 105.736 376.616 105.736C376.964 114.802 376.829 119.1 372.675 127.406C372.025 118.955 371.374 110.504 370.704 101.796Z" fill="#811929"/>
<path d="M341.148 5.26855C343.099 5.26855 345.049 5.26855 347.059 5.26855C347.71 9.81913 348.36 14.3697 349.03 19.0582C346.429 18.4081 343.828 17.758 341.148 17.0882C341.148 13.1877 341.148 9.28724 341.148 5.26855Z" fill="#D10426"/>
<path d="M224.892 310.61C231.306 311.297 232.811 312.622 237.207 317.628C238.345 319.213 239.483 320.797 240.655 322.43C229.325 318.736 229.325 318.736 224.892 316.52C224.892 314.57 224.892 312.62 224.892 310.61Z" fill="#AD2235"/>
<path d="M323.414 285.001C326.021 292.823 324.136 297.051 321.443 304.701C319.493 305.676 319.493 305.676 317.502 306.671C318.425 298.681 319.236 291.963 323.414 285.001Z" fill="#E81937"/>
<path d="M325.383 277.122C327.334 277.122 329.285 277.122 331.295 277.122C330.093 284.13 328.185 290.286 325.383 296.821C322.957 289.544 324.114 284.596 325.383 277.122Z" fill="#E2374B"/>
<path d="M177.6 70.2769C178.25 70.2769 178.9 70.2769 179.57 70.2769C180.22 76.7777 180.871 83.2785 181.541 89.9763C177.477 86.5289 177.477 86.5289 173.659 82.0965C174.076 77.3728 175.487 74.5007 177.6 70.2769Z" fill="#D45962"/>
<path d="M90.9036 48.6079C95.7804 49.583 95.7804 49.583 100.756 50.5779C100.756 52.5281 100.756 54.4783 100.756 56.4877C98.1548 57.1378 95.5538 57.7879 92.874 58.4576C92.2238 55.2072 91.5735 51.9568 90.9036 48.6079Z" fill="#D00426"/>
<path d="M345.088 216.053C347.038 216.703 348.989 217.353 350.999 218.023C349.698 224.524 348.398 231.025 347.058 237.723C345.088 229.843 345.088 229.843 347.058 223.933C345.758 223.933 344.457 223.933 343.117 223.933C343.767 221.333 344.418 218.732 345.088 216.053Z" fill="#D52F41"/>
<path d="M120.459 50.5776C121.76 51.2277 123.06 51.8778 124.4 52.5476C124.4 55.798 124.4 59.0484 124.4 62.3973C122.45 62.3973 120.499 62.3973 118.489 62.3973C117.839 61.0971 117.189 59.797 116.519 58.4574C118.366 54.2713 118.366 54.2713 120.459 50.5776Z" fill="#9B0E25"/>
<path d="M179.573 359.859C181.837 361.739 184.094 363.628 186.346 365.522C187.603 366.574 188.861 367.625 190.156 368.708C193.366 371.679 193.366 371.679 195.336 375.618C187.674 373.134 183.723 370.787 179.573 363.799C179.573 362.499 179.573 361.198 179.573 359.859Z" fill="#D26469"/>
<path d="M354.942 178.624C356.892 179.274 358.843 179.924 360.853 180.594C360.203 186.445 359.552 192.295 358.883 198.323C358.232 198.323 357.582 198.323 356.912 198.323C356.262 191.823 355.612 185.322 354.942 178.624Z" fill="#BF2539"/>
<path d="M350.999 7.23877C352.3 7.23877 353.6 7.23877 354.94 7.23877C357.225 14.0907 356.336 17.9926 354.94 24.9683C350.999 21.0284 350.999 21.0284 350.753 13.8873C350.834 11.6933 350.915 9.49928 350.999 7.23877Z" fill="#B90122"/>
</svg>
