<svg width="1647" height="514" viewBox="0 0 1647 514" fill="none" xmlns="http://www.w3.org/2000/svg">
<path d="M436.49 0.335449H458.617L542.294 52.6339H518.961L436.49 0.335449Z" fill="#FFA200"/>
<path d="M349.998 513.665H372.124L455.802 461.366H432.469L349.998 513.665Z" fill="#FDE43B"/>
<path d="M290.522 414.7L343.561 254.586L391.343 414.7H507.8C507.8 414.7 498.772 439.709 492.986 455.734C481.549 458.399 475.026 459.551 463.358 460.964C451.21 462.436 432.082 462.976 432.082 462.976H103.696C79.0053 462.976 63.7793 462.976 39.5001 455.332C25.437 450.904 16.4555 444.872 9.45978 436.424C0.759807 425.918 0 414.7 0 414.7H290.522Z" fill="url(#paint0_linear_1408_23)"/>
<path d="M100.815 84.4155C109.647 77.0102 115.411 73.6147 125.918 68.7259C136.609 63.7508 154.724 59.4731 154.724 59.4731L140.732 100.91L104.519 235.679L55.1374 414.7H0C0 414.7 0.000263766 380.219 2.87543 368.034C18.4097 302.202 22.2171 296.425 39.5001 232.863C49.5861 195.769 55.9611 174.932 66.6597 138.725C76.369 105.868 81.4841 100.625 100.815 84.4155Z" fill="url(#paint1_linear_1408_23)"/>
<path d="M495.449 100.91L451.375 260.219L394.63 100.91H140.32L154.723 59.4731C154.723 59.4731 167.454 56.8763 175.71 55.8525C183.866 54.8411 196.697 54.1297 196.697 54.1297L544.014 52.5205C568.704 52.5205 583.929 52.6341 608.209 60.2777C622.272 64.7051 631.254 70.7374 638.249 79.1856C646.949 89.692 646.891 100.91 646.891 100.91H495.449Z" fill="url(#paint2_linear_1408_23)"/>
<path d="M546.894 430.39C538.063 437.795 532.298 441.191 521.792 446.079C511.1 451.055 504.552 453.25 492.986 455.734C498.45 439.396 506.977 413.896 506.977 413.896L543.19 279.127L592.572 100.105H646.892C646.892 100.105 646.802 124.478 644.834 139.932C641.201 168.484 591.877 353.545 581.05 376.08C570.222 398.615 566.226 414.181 546.894 430.39Z" fill="url(#paint3_linear_1408_23)"/>
<path d="M436.49 0.335449L519.187 52.749L352.146 54.0419L436.49 0.335449Z" fill="url(#paint4_linear_1408_23)"/>
<path d="M349.997 513.665L265.729 459.958H434.653L349.997 513.665Z" fill="url(#paint5_linear_1408_23)"/>
<path d="M241.492 100.909H280.646L196.345 414.7H157.191L241.492 100.909Z" fill="url(#paint6_linear_1408_23)"/>
<path d="M90.5273 182.173H232.087V221.598H90.5273V182.173Z" fill="url(#paint7_linear_1408_23)"/>
<path d="M395.859 414.7L343.561 254.586L375.744 414.7H395.859Z" fill="#FFF348"/>
<path d="M506.087 100.909L451.375 260.218L485.57 100.909H506.087Z" fill="#FFA200"/>
<path d="M634.601 125.046L636.164 113.754C637.639 103.096 635.446 92.2512 629.944 83.0033C623.297 71.8322 612.358 63.8785 599.682 61.0016L562.812 52.6338L575.629 52.6339C578.875 52.6339 582.113 52.9812 585.285 53.6699L611.553 59.3714C624.95 62.2794 636.736 70.1847 644.509 81.4778C650.695 90.465 654.008 101.119 654.008 112.031V119.843C654.008 126.748 653.103 133.623 651.316 140.293L585.104 387.4C579.713 407.518 567.48 425.13 550.508 437.205C541.883 443.341 532.239 447.9 522.023 450.67L514.86 452.613C498.323 457.097 481.388 459.949 464.295 461.128L454.996 461.769L511.63 441.422C518.634 438.905 525.282 435.489 531.405 431.258C548.159 419.681 560.251 402.525 565.521 382.854L634.601 125.046Z" fill="#FFF348"/>
<path d="M63.9644 414.7H44.252L97.0549 221.598H115.056L63.9644 414.7Z" fill="url(#paint8_linear_1408_23)"/>
<path d="M207.988 414.7H188.275L271.953 100.909H290.459L207.988 414.7Z" fill="#FFF349"/>
<path d="M207.988 414.7H188.275L271.953 100.909H290.459L207.988 414.7Z" fill="url(#paint9_linear_1408_23)"/>
<path d="M126.321 182.173H106.434L128.434 100.909H146.435L126.321 182.173Z" fill="#FFAA06"/>
<path d="M764.211 102.366C764.211 102.366 733.182 107.173 724.296 110.67C700.988 119.993 683.507 140.387 673.747 169.668C670.833 178.408 633.249 318.402 628.296 339.233C623.052 361.084 623.052 377.691 628.296 388.617C634.415 400.999 644.466 407.991 662.53 412.216C670.396 414.109 685.401 414.693 748.623 415.13C846.809 416.003 862.683 414.402 887.448 401.436C904.787 392.258 920.372 371.719 928.965 346.225C933.342 333.552 972.816 185.547 976.018 170.105C983.887 132.23 973.548 113.001 940.624 104.26C932.61 102.221 920.662 101.783 850.598 101.637C806.169 101.492 764.211 102.366 764.211 102.366ZM874.631 186.42C872.596 195.015 838.795 320.441 837.338 324.811L835.737 329.618H781.983C752.411 329.618 728.229 329.618 728.229 329.618C728.229 328.745 761.734 203.464 765.521 190.062L767.707 182.487H821.754H875.653L874.631 186.42Z" fill="white"/>
<path d="M1026.81 100.909C1023.31 111.398 962.71 342.729 961.254 351.033C955.863 380.75 962.276 398.668 981.063 406.826C999.279 414.547 1002.63 414.838 1094.55 414.838C1171.32 414.838 1181.08 414.547 1192.88 412.216C1227.98 405.078 1246.78 389.199 1260.76 355.111C1263.97 347.391 1279.26 293.491 1298.35 222.256C1316.12 156.412 1330.54 101.346 1330.54 100.909C1330.54 100.909 1308.39 100.909 1281.3 100.909H1232.06L1201.62 213.807C1184.87 275.864 1170.15 328.745 1169.57 329.618H1117.13H1090.54H1063.95L1094.7 216.72C1111.45 154.954 1125.14 101.929 1125.14 100.909C1125.14 100.909 1114.36 100.909 1076.33 100.909C1038.46 100.909 1026.81 100.909 1026.81 100.909Z" fill="white"/>
<path d="M1355.65 100.909C1355.36 101.929 1350.7 120.866 1345.46 140.97C1340.21 160.927 1334.24 181.176 1333.8 182.487C1333.8 182.487 1337.3 182.487 1382.6 182.487H1430.82L1429.8 185.691C1429.21 187.585 1415.37 238.863 1399.07 299.755C1382.75 360.647 1367.01 414.255 1366.58 415.566H1417.42H1467.09C1467.53 413.818 1482.39 358.171 1499 296.114L1529.51 182.778H1577.52H1625.88C1626.31 181.467 1641.75 120.866 1647 100.909C1647 100.909 1617.87 100.909 1501.91 100.909C1386.68 100.909 1355.65 100.909 1355.65 100.909Z" fill="white"/>
<defs>
<linearGradient id="paint0_linear_1408_23" x1="278.791" y1="598.549" x2="377.803" y2="35.2508" gradientUnits="userSpaceOnUse">
<stop offset="0.380208" stop-color="#FFA200"/>
<stop offset="1" stop-color="#FDE43B"/>
</linearGradient>
<linearGradient id="paint1_linear_1408_23" x1="278.791" y1="598.55" x2="377.803" y2="35.251" gradientUnits="userSpaceOnUse">
<stop offset="0.380208" stop-color="#FFA200"/>
<stop offset="1" stop-color="#FDE43B"/>
</linearGradient>
<linearGradient id="paint2_linear_1408_23" x1="278.791" y1="598.55" x2="377.803" y2="35.251" gradientUnits="userSpaceOnUse">
<stop offset="0.380208" stop-color="#FFA200"/>
<stop offset="1" stop-color="#FDE43B"/>
</linearGradient>
<linearGradient id="paint3_linear_1408_23" x1="278.791" y1="598.55" x2="377.803" y2="35.251" gradientUnits="userSpaceOnUse">
<stop offset="0.380208" stop-color="#FFA200"/>
<stop offset="1" stop-color="#FDE43B"/>
</linearGradient>
<linearGradient id="paint4_linear_1408_23" x1="278.79" y1="598.549" x2="377.802" y2="35.2508" gradientUnits="userSpaceOnUse">
<stop offset="0.380208" stop-color="#FFA200"/>
<stop offset="1" stop-color="#FDE43B"/>
</linearGradient>
<linearGradient id="paint5_linear_1408_23" x1="278.79" y1="598.549" x2="377.802" y2="35.2508" gradientUnits="userSpaceOnUse">
<stop offset="0.380208" stop-color="#FFA200"/>
<stop offset="1" stop-color="#FDE43B"/>
</linearGradient>
<linearGradient id="paint6_linear_1408_23" x1="278.79" y1="598.549" x2="377.802" y2="35.2506" gradientUnits="userSpaceOnUse">
<stop offset="0.380208" stop-color="#FFA200"/>
<stop offset="1" stop-color="#FDE43B"/>
</linearGradient>
<linearGradient id="paint7_linear_1408_23" x1="278.791" y1="598.55" x2="377.803" y2="35.251" gradientUnits="userSpaceOnUse">
<stop offset="0.380208" stop-color="#FFA200"/>
<stop offset="1" stop-color="#FDE43B"/>
</linearGradient>
<linearGradient id="paint8_linear_1408_23" x1="79.654" y1="221.598" x2="44.252" y2="414.7" gradientUnits="userSpaceOnUse">
<stop stop-color="#FFAA06"/>
<stop offset="1" stop-color="#FFF348"/>
</linearGradient>
<linearGradient id="paint9_linear_1408_23" x1="253.85" y1="221.598" x2="142.414" y2="622.284" gradientUnits="userSpaceOnUse">
<stop stop-color="#FFAB00"/>
<stop offset="1" stop-color="#FFE600" stop-opacity="0"/>
</linearGradient>
</defs>
</svg>
