<svg width="109" height="36" viewBox="0 0 109 36" fill="none" xmlns="http://www.w3.org/2000/svg">
<g clip-path="url(#clip0_481_13884)">
<path d="M23.8671 17.8072H12.3565V21.8818H18.9828C18.3495 23.2247 17.5166 24.2111 16.4837 24.841C15.4507 25.471 14.1815 25.786 12.6762 25.786C10.3613 25.786 8.41483 25.0217 6.8369 23.4931C5.2591 21.9647 4.4702 20.1002 4.4702 17.9002C4.4702 15.7726 5.23044 13.9651 6.75092 12.4778C8.27141 10.9905 10.1576 10.2469 12.4102 10.2469C14.9945 10.2469 17.257 11.2694 19.1979 13.3144L22.265 10.2934C20.865 8.78543 19.434 7.72156 17.9718 7.10186C16.2398 6.36863 14.3786 6.00189 12.3875 6.00189C9.11154 6.00189 6.36638 6.98664 4.1509 8.95359C4.16136 9.01866 4.15157 9.09524 4.1167 9.14903C4.11619 9.14988 4.11594 9.15073 4.11543 9.15158C4.10267 9.30406 3.97933 9.41547 3.82572 9.42233C3.81874 9.42267 3.81168 9.42225 3.80454 9.42182C3.80395 9.42233 3.80352 9.42284 3.80293 9.42334C3.4775 9.69385 3.20829 10.0157 2.95916 10.3554C2.90379 10.8829 2.3818 11.2624 2.0459 11.661C1.98186 11.7855 1.91713 11.9092 1.84874 12.0297C1.66485 12.3537 1.5581 12.6983 1.44957 13.0526C1.34861 13.3822 1.21779 13.697 1.09718 14.0195C0.84711 14.6881 0.747931 15.3884 0.534779 16.0669C0.421058 16.4288 0.27527 16.7892 0.251623 17.1709C0.228403 17.5467 0.240566 17.9167 0.175753 18.2895C0.17167 18.3131 0.16359 18.334 0.153809 18.3537C0.515046 20.7733 1.30165 23.1482 2.7631 25.1385C4.06771 26.915 6.0145 28.1377 8.03492 28.9598C10.1406 29.8166 12.5562 29.957 14.7876 29.5938C16.9526 29.2414 19.0387 28.3473 20.5095 26.6831C22.0036 24.9925 23.0033 22.9651 23.5562 20.7886C23.5853 20.674 23.6613 20.611 23.7488 20.5898C23.8482 19.9923 23.8982 19.3851 23.8982 18.7677L23.8671 17.8072Z" fill="white"/>
<path d="M21.3623 22.8241C19.8196 24.1445 17.5392 25.5356 15.1052 26.2164C12.7118 26.8857 9.82276 26.9934 7.64239 26.8198C4.91277 26.6023 3.15897 26.0029 3.33206 26.1902C4.14538 27.07 5.08731 27.8055 6.158 28.3965C8.01925 29.4241 10.1374 29.938 12.5121 29.938C14.7311 29.938 16.6654 29.4678 18.3141 28.5282C19.963 27.5884 21.3057 26.225 22.3429 24.4381C23.1205 23.098 23.6067 21.7 23.8012 20.2435C23.8019 20.2383 23.801 20.2358 23.7986 20.2358C23.7448 20.2358 22.9227 21.4888 21.3623 22.8241Z" fill="url(#paint0_linear_481_13884)"/>
<path d="M2.94231 10.1369C1.99341 11.2138 1.26107 12.4766 0.745023 13.9252C0.0153194 15.9737 -0.154199 18.0634 0.236808 20.1936C0.464335 21.434 0.865208 22.5805 1.43943 23.6332C1.99307 24.6483 2.56796 25.3199 2.94324 25.7546C3.5178 26.4199 4.36556 27.3859 5.76135 28.2315C6.98951 28.9755 8.1927 29.3542 9.16859 29.5493C8.20776 28.7159 6.89491 27.3915 5.73856 25.4878C5.32195 24.8018 4.34251 23.0809 3.7358 20.649C3.7358 20.649 2.86031 17.3034 3.37286 13.5952C3.7347 10.9783 4.20106 8.91049 4.20106 8.91049C4.20106 8.91049 3.56866 9.4259 2.94231 10.1369Z" fill="url(#paint1_linear_481_13884)"/>
<path d="M32.5764 14.6748L29.8498 21.6237H35.2868L32.5764 14.6748ZM30.5907 9.30856H34.5137L42.3298 29.5493H38.3096L36.7196 25.3801H28.4273L26.7741 29.5493H22.7539L30.5907 9.30856Z" fill="white"/>
<path d="M47.292 9.30853H51.0609L55.7719 23.4261L60.5255 9.30853H64.292L67.7011 29.5492H63.9607L61.7815 16.7664L57.4642 29.5492H54.0551L49.7762 16.7664L47.545 29.5492H43.7734L47.292 9.30853Z" fill="white"/>
<path d="M69.7046 9.30853H82.0001L74.7638 25.8478H81.5304V29.5492H69.1104L76.3129 13.12H69.7046V9.30853Z" fill="white"/>
<path d="M84.6523 9.30856H88.493V29.5493H84.6523V9.30856Z" fill="white"/>
<path d="M91.5255 9.30853H95.8774L100.148 15.807L104.429 9.30853H108.775L102.327 19.122L109.181 29.5492H104.83L100.152 22.433L95.4765 29.5492H91.0972L97.9704 19.1139L91.5255 9.30853Z" fill="white"/>
<path d="M89.9399 8.93857C89.9029 8.49846 89.3648 6.00186 86.5193 6.00186C83.7912 6.00186 83.1931 8.93857 83.1931 8.93857C83.4574 8.6208 84.6778 7.82353 86.5665 7.82353C88.4552 7.82353 89.6757 8.6208 89.9399 8.93857Z" fill="#F1A409"/>
</g>
<defs>
<linearGradient id="paint0_linear_481_13884" x1="4.3918" y1="28.4017" x2="24.4637" y2="23.792" gradientUnits="userSpaceOnUse">
<stop stop-color="#352711"/>
<stop offset="0.00735868" stop-color="#352711"/>
<stop offset="1" stop-color="#F1A409"/>
</linearGradient>
<linearGradient id="paint1_linear_481_13884" x1="1.93547" y1="11.0684" x2="5.26562" y2="27.8182" gradientUnits="userSpaceOnUse">
<stop stop-color="#352711"/>
<stop offset="0.00735868" stop-color="#352711"/>
<stop offset="1" stop-color="#F1A409"/>
</linearGradient>
<clipPath id="clip0_481_13884">
<rect width="109" height="36" fill="white"/>
</clipPath>
</defs>
</svg>
